<?xml version="1.0" encoding="UTF-8" standalone="no"?>
<svg width="500px" height="500px" viewBox="0 0 500 500" version="1.1" xmlns="http://www.w3.org/2000/svg" xmlns:xlink="http://www.w3.org/1999/xlink" style="background: #FFFFFF;">
    <!-- Generator: Sketch 48.2 (47327) - http://www.bohemiancoding.com/sketch -->
    <title>3.3.2_1</title>
    <desc>Created with Sketch.</desc>
    <defs>
        <rect id="path-1" x="0" y="0" width="380" height="50" rx="4"></rect>
        <rect id="path-2" x="0" y="74" width="380" height="50" rx="4"></rect>
        <rect id="path-3" x="0" y="148" width="380" height="50" rx="4"></rect>
        <rect id="path-4" x="0" y="222" width="380" height="50" rx="4"></rect>
    </defs>
    <g id="Page-1" stroke="none" stroke-width="1" fill="none" fill-rule="evenodd">
        <g id="3.3.2_1">
            <g id="Group" transform="translate(60.000000, 114.000000)">
                <g id="Rectangle">
                    <use fill="#FFFFFF" fill-rule="evenodd" xlink:href="#path-1"></use>
                    <rect stroke="#AAAAAA" stroke-width="1" x="0.5" y="0.5" width="379" height="49" rx="4"></rect>
                </g>
                <g id="Rectangle">
                    <use fill="#FFFFFF" fill-rule="evenodd" xlink:href="#path-2"></use>
                    <rect stroke="#AAAAAA" stroke-width="1" x="0.5" y="74.5" width="379" height="49" rx="4"></rect>
                </g>
                <path d="M22.296,95.92 L19.542,95.92 C18.858,95.92 18.192,95.956 17.652,96.01 L17.652,94.75 C18.12,94.822 18.714,94.858 19.542,94.858 L26.652,94.858 C27.444,94.858 28.074,94.822 28.56,94.75 L28.56,96.01 C28.038,95.956 27.354,95.92 26.67,95.92 L23.466,95.92 L23.466,99.718 L26.13,99.718 C26.868,99.718 27.516,99.682 28.002,99.61 L28.002,100.834 C27.462,100.78 26.796,100.744 26.148,100.744 L23.466,100.744 L23.466,105.406 L27.192,105.406 C27.984,105.406 28.686,105.37 29.154,105.298 L29.154,106.54 C28.614,106.486 27.93,106.45 27.192,106.45 L18.804,106.45 C18.048,106.45 17.364,106.486 16.824,106.54 L16.824,105.298 C17.31,105.37 17.976,105.406 18.768,105.406 L22.296,105.406 L22.296,100.744 L20.064,100.744 C19.398,100.744 18.75,100.78 18.192,100.834 L18.192,99.61 C18.678,99.682 19.308,99.718 20.046,99.718 L22.296,99.718 L22.296,95.92 Z M14.934,105.028 L14.934,99.232 C14.934,98.422 14.97,97.702 15.024,96.874 C14.322,98.08 13.944,98.638 13.098,99.61 C13.026,99.286 12.864,99.034 12.45,98.584 C13.926,97.054 14.988,95.398 15.834,93.382 C16.212,92.446 16.5,91.546 16.59,90.97 L17.778,91.348 C17.13,93.094 16.986,93.436 16.086,95.308 L16.086,105.082 C16.086,105.892 16.122,106.522 16.212,107.188 L14.808,107.188 C14.898,106.558 14.934,106.036 14.934,105.028 Z M20.388,91.906 L21.18,91.096 C22.656,91.87 23.466,92.374 24.798,93.382 L23.952,94.3 C22.854,93.31 22.098,92.806 20.388,91.906 Z M43.896,97.576 L40.89,97.576 C40.782,100.114 40.512,101.77 39.99,103.264 C39.45,104.758 38.748,105.82 37.38,107.206 C37.074,106.81 36.84,106.594 36.462,106.342 C37.776,105.136 38.424,104.182 38.928,102.796 C39.54,101.086 39.792,98.8 39.792,94.858 C39.792,93.796 39.774,93.328 39.72,92.77 C41.556,92.752 44.832,91.924 46.254,91.114 L47.028,92.158 C46.758,92.23 46.65,92.266 46.29,92.374 C44.382,93.04 43.086,93.364 40.926,93.706 L40.926,96.514 L45.606,96.514 C46.326,96.514 46.794,96.478 47.28,96.406 L47.28,97.684 C46.794,97.612 46.326,97.576 45.66,97.576 L45.03,97.576 L45.03,105.352 C45.03,106.252 45.048,106.666 45.138,107.188 L43.788,107.188 C43.86,106.666 43.896,106.18 43.896,105.316 L43.896,97.576 Z M31.26,93.184 L31.26,91.924 C31.782,92.014 32.232,92.032 32.988,92.032 L37.272,92.032 C38.1,92.032 38.514,92.014 38.946,91.942 L38.946,93.166 C38.514,93.094 38.082,93.076 37.29,93.076 L32.952,93.076 C32.268,93.076 31.764,93.112 31.26,93.184 Z M38.154,96.316 L38.154,99.322 C38.154,99.916 38.172,100.24 38.208,100.636 C37.902,100.6 37.776,100.6 37.686,100.6 L37.29,100.6 L36.588,100.582 L33.258,100.582 C33.096,103.624 32.682,105.208 31.584,107.098 C31.242,106.738 31.008,106.558 30.612,106.36 C31.908,104.326 32.214,102.544 32.214,97.252 C32.214,96.1 32.196,95.542 32.142,94.966 C32.7,95.02 33.186,95.038 34.014,95.038 L36.516,95.038 C37.272,95.038 37.722,95.02 38.208,94.966 C38.172,95.326 38.154,95.794 38.154,96.316 Z M33.294,99.592 L37.056,99.592 L37.056,96.028 L33.312,96.028 L33.312,97.954 C33.312,98.854 33.312,98.908 33.294,99.592 Z" id="住所" fill="#AAAAAA"></path>
                <path d="M17.508,22.352 L18.354,21.704 C19.668,22.532 20.082,22.82 21,23.63 C22.422,22.37 23.25,21.452 24.474,19.796 L19.092,19.796 C17.724,21.38 16.23,22.622 14.16,23.882 C13.944,23.54 13.782,23.324 13.404,23.018 C15.222,22.01 16.644,20.894 17.85,19.562 C18.876,18.41 19.506,17.528 19.848,16.7 L21.072,17.168 C20.244,18.338 20.244,18.338 19.902,18.788 L23.862,18.788 C24.564,18.788 25.05,18.752 25.536,18.698 L26.184,19.472 C25.986,19.688 25.896,19.814 25.572,20.246 C23.97,22.424 22.206,24.188 19.776,25.988 L26.382,25.988 C26.958,25.988 27.3,25.97 27.678,25.916 C27.606,26.348 27.588,26.78 27.588,27.356 L27.588,31.712 C27.588,32.27 27.624,32.918 27.696,33.314 L26.436,33.314 L26.436,32.306 L18.912,32.306 L18.912,33.314 L17.652,33.314 C17.724,32.846 17.76,32.198 17.76,31.712 L17.76,27.356 C16.536,28.13 15.438,28.706 13.746,29.462 C13.548,29.03 13.404,28.796 13.026,28.4 C15.816,27.338 17.886,26.15 20.118,24.35 C19.236,23.504 18.786,23.162 17.508,22.352 Z M18.912,27.032 L18.912,31.298 L26.436,31.298 L26.436,27.032 L18.912,27.032 Z M32.88,19.652 L36.408,19.652 C35.796,18.662 35.454,18.212 34.482,17.15 L35.562,16.718 C36.822,18.23 37.002,18.482 37.65,19.652 L40.224,19.652 C41.106,18.68 41.61,17.978 42.258,16.736 L43.41,17.168 C42.69,18.23 42.06,19.022 41.466,19.652 L45.156,19.652 C45.966,19.652 46.47,19.616 46.956,19.544 L46.956,20.768 C46.434,20.696 45.93,20.66 45.156,20.66 L32.88,20.66 C32.124,20.66 31.638,20.696 31.08,20.768 L31.08,19.544 C31.656,19.634 31.656,19.634 32.88,19.652 Z M33.438,29.156 L33.438,31.316 C33.438,32.27 33.474,32.774 33.546,33.224 L32.232,33.224 C32.304,32.72 32.322,32.18 32.322,31.28 L32.322,23.72 C32.322,22.838 32.304,22.532 32.268,22.118 C32.862,22.172 33.294,22.19 34.014,22.19 L36.84,22.19 C37.83,22.19 38.1,22.172 38.478,22.118 C38.442,22.532 38.424,23 38.424,24.026 L38.424,31.658 C38.424,32.738 38.082,33.044 36.912,33.044 C36.534,33.044 36.102,33.026 35.418,32.972 C35.328,32.45 35.292,32.306 35.13,31.856 C35.778,31.982 36.3,32.036 36.696,32.036 C37.218,32.036 37.326,31.946 37.326,31.568 L37.326,29.156 L33.438,29.156 Z M33.438,28.148 L37.326,28.148 L37.326,26.204 L33.438,26.204 L33.438,28.148 Z M33.438,25.196 L37.326,25.196 L37.326,23.216 L33.438,23.216 L33.438,25.196 Z M40.71,22.334 L42.006,22.334 C41.934,22.766 41.916,23.054 41.916,24.026 L41.916,27.68 C41.916,29.048 41.916,29.282 41.988,29.714 L40.728,29.714 C40.782,29.264 40.8,28.958 40.8,27.698 L40.8,24.026 C40.8,23.108 40.782,22.838 40.71,22.334 Z M44.508,21.794 L45.876,21.794 C45.786,22.262 45.768,22.748 45.768,23.738 L45.768,31.532 C45.768,32.792 45.39,33.116 43.914,33.116 C43.302,33.116 42.708,33.08 41.808,33.008 C41.736,32.558 41.664,32.27 41.466,31.802 C42.42,31.964 43.194,32.036 43.788,32.036 C44.49,32.036 44.616,31.964 44.616,31.496 L44.616,23.702 C44.616,22.622 44.598,22.298 44.508,21.794 Z" id="名前" fill="#AAAAAA"></path>
                <g id="Rectangle">
                    <use fill="#FFFFFF" fill-rule="evenodd" xlink:href="#path-3"></use>
                    <rect stroke="#AAAAAA" stroke-width="1" x="0.5" y="148.5" width="379" height="49" rx="4"></rect>
                </g>
                <path d="M24.456,166.014 L25.968,166.59 C25.734,166.932 25.662,167.094 25.41,167.688 C24.24,170.442 23.682,171.54 22.764,172.944 C24.312,174.222 25.464,175.32 26.904,176.814 L25.896,177.93 C24.942,176.706 23.79,175.554 21.972,174.024 C20.082,176.616 17.886,178.506 14.736,180.288 C14.412,179.748 14.268,179.586 13.8,179.208 C16.68,177.804 18.984,175.86 20.964,173.196 C19.326,171.882 17.634,170.766 16.122,169.938 L17.022,168.984 C18.786,170.046 19.686,170.64 21.702,172.116 C22.548,170.784 23.196,169.488 23.826,167.922 C24.276,166.824 24.366,166.536 24.456,166.014 Z M31.566,173.826 L31.566,172.35 C32.088,172.44 32.574,172.458 33.798,172.458 L44.256,172.458 C45.588,172.458 45.876,172.44 46.434,172.368 L46.434,173.826 C45.858,173.772 45.444,173.754 44.238,173.754 L33.798,173.754 C32.484,173.754 32.106,173.772 31.566,173.826 Z M52.842,166.284 L54.336,166.374 C54.264,166.824 54.264,166.824 54.228,167.922 C54.084,172.8 53.94,174.132 53.256,175.95 C52.644,177.624 51.78,178.83 50.142,180.396 C49.782,179.928 49.602,179.766 49.062,179.424 C50.538,178.254 51.51,176.958 52.104,175.284 C52.662,173.718 52.914,171.36 52.914,167.562 C52.914,166.914 52.896,166.698 52.842,166.284 Z M57.324,166.158 L58.8,166.176 C58.71,166.608 58.692,166.932 58.692,167.76 L58.584,178.632 C60.078,178.074 60.996,177.498 61.932,176.544 C62.922,175.518 63.624,174.33 64.056,172.944 C64.434,173.43 64.578,173.592 65.064,173.988 C64.182,176.058 62.994,177.552 61.446,178.614 C60.654,179.154 59.934,179.514 58.872,179.928 C58.548,180.054 58.548,180.054 58.296,180.144 C58.08,180.234 58.044,180.252 57.882,180.342 L57.162,179.514 C57.27,179.208 57.288,179.064 57.288,178.29 L57.396,167.76 C57.396,166.59 57.396,166.59 57.324,166.158 Z M81.696,166.716 L82.416,167.58 C82.236,167.814 82.2,167.868 81.984,168.3 C80.742,170.712 79.068,172.35 76.728,173.43 C76.458,172.98 76.314,172.818 75.846,172.404 C77.106,171.918 77.844,171.486 78.69,170.694 C79.518,169.92 80.184,169.038 80.706,168.012 L70.482,168.012 C69.492,168.012 69.024,168.03 68.358,168.102 L68.358,166.716 C68.97,166.806 69.474,166.842 70.5,166.842 L80.166,166.842 C81.372,166.842 81.372,166.842 81.696,166.716 Z M73.848,169.848 L75.306,169.848 C75.252,170.172 75.252,170.172 75.234,171.108 C75.18,174.114 74.676,175.896 73.452,177.444 C72.354,178.83 71.022,179.73 68.844,180.558 C68.574,179.982 68.448,179.802 68.016,179.352 C69.474,178.92 70.374,178.47 71.31,177.696 C73.218,176.166 73.92,174.33 73.92,170.82 C73.92,170.316 73.902,170.19 73.848,169.848 Z M90.876,180.558 L89.328,180.558 C89.4,180.144 89.418,179.766 89.436,178.668 L89.436,167.49 C89.418,166.356 89.4,166.05 89.328,165.654 L90.876,165.654 C90.804,166.068 90.786,166.41 90.786,167.526 L90.786,170.892 C93.36,171.81 95.844,172.98 98.796,174.69 L98.022,176.022 C96.672,175.014 93.846,173.52 91.308,172.458 C91.056,172.35 90.912,172.278 90.75,172.152 L90.714,172.17 C90.768,172.494 90.786,172.782 90.786,173.232 L90.786,178.65 C90.786,179.73 90.804,180.126 90.876,180.558 Z M95.34,166.842 L96.24,166.374 C97.05,167.346 97.554,168.102 98.094,169.164 L97.194,169.704 C96.744,168.75 95.88,167.4 95.34,166.842 Z M97.392,165.87 L98.274,165.384 C99.084,166.392 99.534,167.058 100.128,168.192 L99.228,168.714 C98.85,167.85 98.094,166.698 97.392,165.87 Z M106.104,166.176 L107.634,166.176 C107.58,166.554 107.544,167.022 107.544,167.778 L107.49,178.632 C109.56,178.29 111.198,177.732 112.638,176.832 C114.438,175.716 115.644,174.42 116.688,172.512 C117.138,173.142 117.246,173.286 117.678,173.646 C115.212,177.318 112.566,178.992 107.76,179.928 C107.058,180.072 106.968,180.09 106.716,180.198 L105.996,179.298 C106.086,178.992 106.122,178.794 106.122,178.128 L106.158,167.814 L106.158,167.148 C106.158,166.788 106.14,166.572 106.104,166.176 Z M136.218,179.028 L135.192,180.162 C133.77,178.344 131.736,176.382 129.432,174.6 C128.172,176.04 127.29,176.868 125.994,177.822 C124.752,178.722 123.798,179.316 122.466,179.982 C122.178,179.442 122.034,179.244 121.584,178.794 C122.97,178.236 123.852,177.75 125.238,176.724 C128.118,174.6 130.35,171.756 131.664,168.606 C131.7,168.498 131.718,168.48 131.754,168.39 C131.79,168.336 131.79,168.318 131.808,168.264 C131.646,168.282 131.592,168.282 131.376,168.282 L125.364,168.372 C124.554,168.39 124.032,168.426 123.51,168.516 L123.474,167.058 C123.96,167.13 124.284,167.148 124.896,167.148 L125.364,167.148 L131.79,167.076 C132.42,167.058 132.636,167.04 132.942,166.932 L133.698,167.706 C133.518,167.922 133.392,168.138 133.194,168.588 C132.186,170.82 131.34,172.242 130.224,173.628 C132.582,175.428 134.166,176.85 136.218,179.028 Z" id="メールアドレス" fill="#AAAAAA"></path>
                <g id="Rectangle">
                    <use fill="#FFFFFF" fill-rule="evenodd" xlink:href="#path-4"></use>
                    <rect stroke="#AAAAAA" stroke-width="1" x="0.5" y="222.5" width="379" height="49" rx="4"></rect>
                </g>
                <path d="M20.226,240.5 L16.248,240.5 C15.51,240.5 15.042,240.518 14.466,240.572 L14.466,239.456 C15.042,239.528 15.6,239.564 16.302,239.564 L25.662,239.564 C26.418,239.564 26.922,239.528 27.444,239.456 L27.444,240.572 C26.886,240.518 26.508,240.5 25.716,240.5 L21.324,240.5 L21.324,241.598 L26.634,241.598 C27.624,241.598 28.11,241.58 28.614,241.508 C28.56,241.94 28.542,242.3 28.542,242.876 L28.542,243.938 C28.542,244.496 28.56,244.82 28.65,245.288 L27.48,245.288 L27.48,242.48 L21.324,242.48 L21.324,244.64 C21.324,245.54 21.342,245.918 21.414,246.404 L20.118,246.404 C20.19,245.954 20.226,245.486 20.226,244.64 L20.226,242.48 L14.412,242.48 L14.412,245.288 L13.242,245.288 C13.314,244.838 13.35,244.478 13.35,243.938 L13.35,242.876 C13.35,242.336 13.332,241.958 13.278,241.508 C13.764,241.58 14.25,241.598 15.24,241.598 L20.226,241.598 L20.226,240.5 Z M20.19,252.344 L15.996,252.344 L15.996,253.352 L14.79,253.352 C14.862,252.902 14.898,252.398 14.898,251.822 L14.898,248.492 C14.898,247.844 14.88,247.376 14.826,246.89 C15.276,246.944 15.672,246.962 16.374,246.962 L25.446,246.962 C26.202,246.962 26.634,246.944 27.084,246.89 C27.03,247.34 27.012,247.79 27.012,248.492 L27.012,251.12 C27.012,251.696 27.03,252.056 27.066,252.416 C26.58,252.362 26.13,252.344 25.446,252.344 L21.288,252.344 L21.288,253.568 C21.288,254 21.666,254.054 24.186,254.054 C26.328,254.054 27.282,253.964 27.588,253.712 C27.822,253.532 27.894,252.992 27.912,251.588 C28.308,251.822 28.362,251.858 29.028,252.092 C28.992,253.514 28.794,254.216 28.344,254.54 C27.84,254.918 26.814,255.026 24.006,255.026 C20.658,255.026 20.19,254.882 20.19,253.838 L20.19,252.344 Z M20.19,247.844 L15.996,247.844 L15.996,249.122 L20.19,249.122 L20.19,247.844 Z M20.19,249.986 L15.996,249.986 L15.996,251.444 L20.19,251.444 L20.19,249.986 Z M21.288,251.444 L25.914,251.444 L25.914,249.986 L21.288,249.986 L21.288,251.444 Z M21.288,249.122 L25.914,249.122 L25.914,247.844 L21.288,247.844 L21.288,249.122 Z M15.402,244.19 L15.402,243.326 C15.744,243.362 15.96,243.38 16.5,243.38 L18.174,243.38 C18.624,243.38 18.93,243.362 19.218,243.326 L19.218,244.19 C18.912,244.136 18.606,244.118 18.174,244.118 L16.5,244.118 C16.032,244.118 15.726,244.136 15.402,244.19 Z M15.402,245.936 L15.402,245.054 C15.69,245.108 15.996,245.126 16.5,245.126 L18.174,245.126 C18.624,245.126 18.912,245.108 19.218,245.054 L19.218,245.936 C18.912,245.882 18.624,245.864 18.174,245.864 L16.5,245.864 C15.996,245.864 15.726,245.882 15.402,245.936 Z M22.422,244.19 L22.422,243.308 C22.71,243.362 23.016,243.38 23.52,243.38 L25.482,243.38 C25.932,243.38 26.238,243.362 26.526,243.308 L26.526,244.19 C26.22,244.136 25.932,244.118 25.482,244.118 L23.52,244.118 C23.034,244.118 22.728,244.136 22.422,244.19 Z M22.422,245.936 L22.422,245.054 C22.71,245.108 23.016,245.126 23.52,245.126 L25.482,245.126 C25.914,245.126 26.238,245.108 26.526,245.054 L26.526,245.936 C26.22,245.882 25.932,245.864 25.482,245.864 L23.52,245.864 C23.016,245.864 22.746,245.882 22.422,245.936 Z M41.502,244.478 L41.502,241.382 C40.152,241.634 39.648,241.706 37.974,241.886 C37.848,241.508 37.812,241.4 37.488,240.842 C39.594,240.734 41.916,240.338 43.716,239.798 C44.724,239.492 45.39,239.24 45.732,239.024 L46.506,240.05 C46.146,240.158 45.948,240.212 45.93,240.212 C45.282,240.446 43.392,240.968 42.636,241.148 L42.636,244.478 L45.012,244.478 C45.912,244.478 46.416,244.442 46.938,244.37 L46.938,245.594 C46.398,245.522 45.876,245.486 45.012,245.486 L42.636,245.486 L42.636,248.564 L44.85,248.564 C45.444,248.564 45.822,248.546 46.2,248.492 C46.146,248.852 46.128,249.374 46.128,250.094 L46.128,253.442 C46.128,254.126 46.164,254.828 46.218,255.206 L44.994,255.206 L44.994,254.306 L39.414,254.306 L39.414,255.206 L38.19,255.206 C38.262,254.81 38.28,254.306 38.28,253.46 L38.28,250.004 C38.28,249.374 38.262,248.978 38.208,248.492 C38.586,248.546 38.982,248.564 39.486,248.564 L41.502,248.564 L41.502,245.486 L39.594,245.486 C38.658,245.486 38.208,245.504 37.596,245.594 L37.596,244.37 C38.154,244.46 38.622,244.478 39.612,244.478 L41.502,244.478 Z M39.414,249.554 L39.414,253.298 L44.994,253.298 L44.994,249.554 L39.414,249.554 Z M31.674,240.824 L31.674,239.69 C32.124,239.762 32.394,239.78 33.06,239.78 L35.562,239.78 C36.21,239.78 36.498,239.762 36.948,239.69 L36.948,240.824 C36.552,240.77 36.138,240.752 35.562,240.752 L33.06,240.752 C32.466,240.752 32.106,240.77 31.674,240.824 Z M31.062,243.308 L31.062,242.156 C31.494,242.228 31.818,242.246 32.502,242.246 L35.85,242.246 C36.57,242.246 36.894,242.228 37.29,242.156 L37.29,243.308 C36.912,243.254 36.642,243.236 35.994,243.236 L32.502,243.236 C31.872,243.236 31.494,243.254 31.062,243.308 Z M31.764,245.756 L31.764,244.64 C32.196,244.694 32.43,244.712 33.06,244.712 L35.724,244.712 C36.336,244.712 36.624,244.694 37.002,244.64 L37.002,245.756 C36.516,245.702 36.3,245.684 35.724,245.684 L33.06,245.684 C32.466,245.684 32.196,245.702 31.764,245.756 Z M31.764,248.24 L31.764,247.124 C32.142,247.178 32.43,247.196 33.06,247.196 L35.724,247.196 C36.354,247.196 36.642,247.178 37.002,247.124 L37.002,248.24 C36.57,248.186 36.3,248.168 35.724,248.168 L33.06,248.168 C32.466,248.168 32.142,248.186 31.764,248.24 Z M33.006,254.324 L33.006,255.296 L31.836,255.296 C31.908,254.81 31.944,254.306 31.944,253.568 L31.944,251.102 C31.944,250.472 31.926,250.076 31.854,249.608 C32.322,249.662 32.772,249.68 33.312,249.68 L35.634,249.68 C36.408,249.68 36.624,249.68 36.948,249.626 C36.912,250.004 36.894,250.382 36.894,251.03 L36.894,253.586 C36.894,254.162 36.912,254.522 36.984,255.062 L35.868,255.062 L35.868,254.324 L33.006,254.324 Z M32.988,250.616 L32.988,253.388 L35.868,253.388 L35.868,250.616 L32.988,250.616 Z M56.316,243.65 L56.316,241.04 C54.534,241.166 52.698,241.256 50.88,241.274 C50.718,240.788 50.628,240.572 50.394,240.23 C51.114,240.248 51.492,240.248 51.87,240.248 C56.01,240.248 60.258,239.744 62.436,239.006 L63.246,240.032 L62.904,240.086 C62.832,240.104 62.706,240.122 62.526,240.158 C61.212,240.428 58.872,240.77 57.396,240.932 L57.396,243.65 L59.556,243.65 C60.222,242.66 60.564,242.012 60.996,240.932 L62.094,241.346 C61.644,242.228 61.32,242.768 60.708,243.65 L62.868,243.65 C63.732,243.65 64.164,243.632 64.686,243.542 L64.686,244.712 C64.164,244.64 63.642,244.604 62.868,244.604 L58.44,244.604 C60.15,246.116 62.436,247.268 65.352,248.06 C65.046,248.456 64.902,248.69 64.722,249.14 C63.246,248.564 63.138,248.51 62.472,248.204 C62.454,248.618 62.454,248.762 62.454,249.212 L62.454,253.694 C62.454,254.396 62.49,254.936 62.562,255.386 L61.392,255.386 L61.392,254.414 L52.608,254.414 L52.608,255.386 L51.438,255.386 C51.51,254.936 51.546,254.324 51.546,253.712 L51.546,249.23 C51.546,248.87 51.528,248.492 51.528,248.222 C50.754,248.6 50.394,248.762 49.476,249.122 C49.314,248.726 49.206,248.546 48.828,248.114 C51.528,247.286 53.652,246.116 55.254,244.604 L51.042,244.604 C50.286,244.604 49.728,244.64 49.224,244.712 L49.224,243.542 C49.71,243.614 50.214,243.65 51.042,243.65 L53.076,243.65 C52.752,243.002 52.464,242.534 51.96,241.85 L52.914,241.436 C53.508,242.3 53.76,242.732 54.21,243.65 L56.316,243.65 Z M61.608,247.79 C59.664,246.764 58.728,246.098 57.324,244.694 C57.342,244.802 57.342,244.856 57.36,244.982 C57.378,245.234 57.396,245.306 57.396,245.396 L57.396,246.044 C57.396,246.566 57.414,246.98 57.45,247.268 L56.244,247.268 C56.298,246.872 56.316,246.53 56.316,246.044 L56.316,245.414 C56.316,245.252 56.334,245.09 56.388,244.712 C55.218,246.008 54.21,246.782 52.392,247.79 L61.608,247.79 Z M52.608,248.726 L52.608,250.562 L56.334,250.562 L56.334,248.726 L52.608,248.726 Z M52.608,251.48 L52.608,253.46 L56.334,253.46 L56.334,251.48 L52.608,251.48 Z M57.378,248.726 L57.378,250.562 L61.392,250.562 L61.392,248.726 L57.378,248.726 Z M57.396,251.48 L57.396,253.46 L61.374,253.46 L61.374,251.48 L57.396,251.48 Z M71.58,247.034 L68.844,247.034 C68.088,247.034 67.476,247.07 66.99,247.142 L66.99,245.864 C67.476,245.936 68.034,245.972 68.844,245.972 L81.156,245.972 C81.966,245.972 82.542,245.936 83.028,245.864 L83.028,247.142 C82.524,247.07 81.93,247.034 81.156,247.034 L72.858,247.034 C72.462,247.952 72.336,248.24 71.976,248.906 L78.546,248.906 C79.626,248.906 80.094,248.888 80.562,248.834 C80.526,248.96 80.526,249.032 80.508,249.158 C80.436,249.788 80.436,249.788 80.382,250.094 C80.04,252.65 79.68,254 79.194,254.558 C78.834,254.99 78.258,255.152 77.124,255.152 C76.296,255.152 75.18,255.08 74.118,254.972 C74.1,254.612 74.028,254.252 73.848,253.766 C75,253.946 76.314,254.072 77.106,254.072 C77.916,254.072 78.186,253.982 78.384,253.622 C78.69,253.046 78.942,251.948 79.212,249.914 L71.436,249.914 C71.094,250.49 70.932,250.742 70.428,251.48 L69.15,251.21 C70.266,249.752 70.878,248.708 71.58,247.034 Z M69.42,243.272 L69.42,240.932 C69.42,240.392 69.402,240.032 69.348,239.582 C70.05,239.654 70.626,239.672 71.364,239.672 L78.582,239.672 C79.608,239.672 80.112,239.654 80.616,239.582 C80.562,240.032 80.544,240.392 80.544,240.932 L80.544,243.272 C80.544,243.83 80.562,244.136 80.616,244.604 C80.022,244.55 79.608,244.532 78.726,244.532 L71.256,244.532 C70.41,244.532 69.942,244.55 69.348,244.604 C69.402,244.118 69.42,243.794 69.42,243.272 Z M79.392,240.68 L70.554,240.68 L70.554,243.542 L79.392,243.542 L79.392,240.68 Z" id="電話番号" fill="#AAAAAA"></path>
            </g>
        </g>
    </g>
</svg>