<svg xmlns="http://www.w3.org/2000/svg" viewBox="0 0 260 100">
  <defs>
    <style>
      .cls-1{fill:#2d8c3c}.cls-2{fill:#fff}
    </style>
  </defs>
  <title>
    Ameba
  </title>
  <path class="cls-1" d="M69.31 69.73c-.74-1.79-2.09-2.63-4.59-4.25-1.88-1.22-3.18-2.88-3.41-6.23-.3-4.36.66-7.06.44-13.31a24.81 24.81 0 0 0-3-10.58 14.68 14.68 0 0 1-1.59-7.17c-.08-2.64 0-8.51 0-10.35a3.79 3.79 0 0 0-2.07-3.63 3.7 3.7 0 0 0-4.54 1C49.26 16.58 47 19 45.39 20.49c-2.06 1.89-3.38 2.31-5.2 2.31S37 22.38 35 20.49c-1.58-1.45-3.87-3.91-5.14-5.28a3.7 3.7 0 0 0-4.54-1 3.78 3.78 0 0 0-2.07 3.63c-.07 1.84 0 7.71 0 10.35a14.7 14.7 0 0 1-1.59 7.17 24.81 24.81 0 0 0-3 10.58c-.22 6.25.73 9 .44 13.31-.23 3.35-1.52 5-3.41 6.23-2.5 1.62-3.85 2.46-4.59 4.25-.52 1.26-.52 3.08 1 3.87a4.11 4.11 0 0 0 3.4-.09 7.27 7.27 0 0 1 2.82-.89c.71 0 1.29.42 1.4 1.59s.67 1.72 1.55 1.72c.72 0 1.4-.49 1.91-1.82s.82-2.67 1.67-2.65 1.13 1 1.2 2.39a6 6 0 0 1-2.15 4.88c-1.7 1.57-3 3-2.51 5 .33 1.37 1.82 2.26 4.2 2.38s6.32.14 9 .08c2.55-.06 4-1.16 4.32-2.62.36-1.66-.6-2.25-.36-3.62a1.72 1.72 0 0 1 3.2 0c.24 1.37-.72 2-.36 3.62.31 1.46 1.77 2.56 4.32 2.62 2.73.07 6.67 0 9.05-.08s3.87-1 4.2-2.37c.46-1.93-.81-3.4-2.51-5a6 6 0 0 1-2.15-4.88c.06-1.38.28-2.37 1.2-2.39s1.12 1.23 1.67 2.65 1.2 1.82 1.91 1.82c.88 0 1.45-.52 1.55-1.72s.68-1.56 1.39-1.59a7.28 7.28 0 0 1 2.82.89 4.1 4.1 0 0 0 3.39.09c1.6-.8 1.6-2.61 1.08-3.88z"/>
  <circle class="cls-2" cx="29.1" cy="37.09" r="1.98"/>
  <path class="cls-2" d="M51.32 42.69c-3.2-2.71-6.5-3.78-11.13-3.77S32.25 40 29.05 42.69c-2.2 1.87-3.63 5.59-2 8.4a5.79 5.79 0 0 0 4.41 2.73A5.88 5.88 0 0 0 36.68 52c1-1.07 2-2.09 3.5-2.09s2.53 1 3.5 2.09a5.88 5.88 0 0 0 5.18 1.81 5.79 5.79 0 0 0 4.41-2.73c1.73-2.8.25-6.53-1.95-8.39zM40.19 57.84A9.18 9.18 0 1 0 49.36 67a9.19 9.19 0 0 0-9.17-9.16z"/>
  <circle class="cls-2" cx="51.27" cy="37.09" r="1.98"/>
  <path class="cls-1" d="M40.19 39.91c-2.57 0-4.58 1.53-4.58 3.49s2 3.49 4.58 3.49 4.58-1.53 4.58-3.49-2.01-3.49-4.58-3.49z"/>
  <path d="M94.3 32.56a13.82 13.82 0 0 0-13.42 10.58 26.3 26.3 0 0 0-.38 5.45v20.56a3.49 3.49 0 1 0 7 0V60.9h13.64v8.25a3.49 3.49 0 1 0 7 0V48.58a26.16 26.16 0 0 0-.38-5.45A13.82 13.82 0 0 0 94.3 32.56zm-6.82 21.36v-5.34a20.74 20.74 0 0 1 .2-3.88 6.82 6.82 0 0 1 13.23 0 20.67 20.67 0 0 1 .21 3.89v5.34zM207 52.36a11.75 11.75 0 0 0-16.9-10.53v-6a3.31 3.31 0 1 0-6.61 0v22.66a23 23 0 0 0 .47 5.72 11.76 11.76 0 0 0 11.28 8.45A12 12 0 0 0 207 61v-8.64zm-6.61 8.46a5.31 5.31 0 0 1-5.15 5.24 5.2 5.2 0 0 1-5.14-5.14v-8.51a5.14 5.14 0 1 1 10.29 0c.04 2.93.03 5.96-.04 8.41zM138.18 40.62a9.77 9.77 0 0 0-6.68 2.66 9.78 9.78 0 0 0-6.68-2.66 10.09 10.09 0 0 0-9.69 7.82 15.81 15.81 0 0 0-.3 3.73v17.18a3.31 3.31 0 1 0 6.61 0V52.17a13.2 13.2 0 0 1 .1-2.13 3.5 3.5 0 0 1 3.27-2.8 3.56 3.56 0 0 1 3.37 3.71v18.4a3.31 3.31 0 1 0 6.61 0V50.93a3.56 3.56 0 0 1 3.37-3.71 3.5 3.5 0 0 1 3.27 2.8 13 13 0 0 1 .1 2.13v17.2a3.31 3.31 0 1 0 6.61 0V52.17a15.8 15.8 0 0 0-.29-3.73 10.09 10.09 0 0 0-9.67-7.82zM211.67 62.38c0 5.68 5.3 10.3 11.81 10.3s11.71-4.6 11.81-10.25c.07-3.78.07-7.46 0-11.55-.1-5.85-5.17-10.26-11.81-10.26a15.24 15.24 0 0 0-10.6 4.25 3.31 3.31 0 1 0 4.68 4.68 8.58 8.58 0 0 1 5.92-2.32c2.6 0 4.66 1.28 5.11 3.06a33.92 33.92 0 0 1-6.35 2c-2.61.59-10.57 2.47-10.57 10.09zm17.06-5c0 1.68.05 3.33-.05 5-.12 1.81-2.13 3.76-5.2 3.76-2.82 0-5.2-1.69-5.2-3.7 0-.83 0-2.38 5.49-3.69 1.76-.48 3.44-.9 4.96-1.4zM178.31 50.93c0-5.69-5.3-10.31-11.81-10.31s-11.71 4.6-11.81 10.25c-.07 3.79-.07 7.46 0 11.56.1 5.85 5.17 10.26 11.81 10.26a15.23 15.23 0 0 0 10.6-4.25 3.3 3.3 0 1 0-4.67-4.67 8.59 8.59 0 0 1-5.92 2.32c-2.6 0-4.66-1.28-5.11-3.06a33.87 33.87 0 0 1 6.35-2c2.6-.61 10.56-2.49 10.56-10.1zm-17.06 5c0-1.68-.05-3.33.05-5 .12-1.81 2.13-3.75 5.2-3.75 2.82 0 5.2 1.69 5.2 3.7 0 .83 0 2.38-5.49 3.68-1.77.44-3.44.89-4.96 1.44zM245.27 68.14a1.93 1.93 0 0 0 1.37-.72 1.53 1.53 0 0 0 .27-.85 1.49 1.49 0 0 0-.48-1.06A2 2 0 0 0 245 65h-2.4v5.6h.83v-2.44h.88l1.64 2.44h1zm.76-1.58a.74.74 0 0 1-.28.59 1.22 1.22 0 0 1-.87.27h-1.48v-1.67h1.6a1.28 1.28 0 0 1 .76.22.69.69 0 0 1 .24.6z"/>
  <path d="M244.56 63.16a4.68 4.68 0 1 0 4.68 4.68 4.69 4.69 0 0 0-4.68-4.68zm0 8.53a3.84 3.84 0 1 1 3.84-3.84 3.85 3.85 0 0 1-3.84 3.84z"/>
</svg>
