<?xml version="1.0" encoding="UTF-8"?>
<svg width="1250px" height="2048px" viewBox="0 0 1250 2048" version="1.1" xmlns="http://www.w3.org/2000/svg" xmlns:xlink="http://www.w3.org/1999/xlink">
    <!-- Generator: Sketch 48.2 (47327) - http://www.bohemiancoding.com/sketch -->
    <title>bad</title>
    <defs></defs>
    <g id="for_export" stroke="none" stroke-width="1" fill="none" fill-rule="evenodd">
        <g id="icon_bad" fill="#F24C3B" fill-rule="nonzero">
            <path d="M625,708.029131 L983.264565,349.764565 C1044.28399,288.745145 1143.21601,288.745145 1204.23543,349.764565 C1265.25486,410.783986 1265.25486,509.716014 1204.23543,570.735435 L845.970869,929 L1204.23543,1287.26457 C1265.25486,1348.28399 1265.25486,1447.21601 1204.23543,1508.23543 C1143.21601,1569.25486 1044.28399,1569.25486 983.264565,1508.23543 L625,1149.97087 L266.735435,1508.23543 C205.716014,1569.25486 106.783986,1569.25486 45.7645654,1508.23543 C-15.2548551,1447.21601 -15.2548551,1348.28399 45.7645654,1287.26457 L404.029131,929 L45.7645654,570.735435 C-15.2548551,509.716014 -15.2548551,410.783986 45.7645654,349.764565 C106.783986,288.745145 205.716014,288.745145 266.735435,349.764565 L625,708.029131 Z" id="Combined-Shape"></path>
        </g>
    </g>
</svg>
