<?xml version="1.0" encoding="UTF-8" standalone="no"?>
<svg width="500px" height="434px" viewBox="0 0 500 434" version="1.1" xmlns="http://www.w3.org/2000/svg" xmlns:xlink="http://www.w3.org/1999/xlink" style="background: #FFFFFF;">
    <!-- Generator: Sketch 48.2 (47327) - http://www.bohemiancoding.com/sketch -->
    <title>3.3.1_ng</title>
    <desc>Created with Sketch.</desc>
    <defs>
        <rect id="path-1" x="0" y="26" width="380" height="50" rx="4"></rect>
        <rect id="path-2" x="0" y="126" width="380" height="50" rx="4"></rect>
        <rect id="path-3" x="0" y="226" width="380" height="50" rx="4"></rect>
    </defs>
    <g id="Page-1" stroke="none" stroke-width="1" fill="none" fill-rule="evenodd">
        <g id="3.3.1_ng">
            <path d="M67.6,52.62 L63.92,52.62 C62.94,52.62 62.24,52.66 61.64,52.74 L61.64,51.3 C62.26,51.38 62.92,51.42 63.92,51.42 L76.24,51.42 C77.26,51.42 77.9,51.38 78.52,51.3 L78.52,52.74 C77.9,52.66 77.22,52.62 76.24,52.62 L69.06,52.62 C67.96,55.02 67.58,55.76 66.56,57.34 C69.32,57.16 71.4,56.96 74.36,56.6 C73.16,55.3 72.8,54.94 71.92,54.12 L72.96,53.48 C74.96,55.36 76.3,56.84 77.8,58.76 L76.7,59.58 C75.92,58.48 75.66,58.14 75.24,57.62 C71.68,58.1 68.66,58.42 65.54,58.66 C63.06,58.86 62.66,58.9 62.16,59.02 L61.92,57.5 C62.26,57.54 62.64,57.56 62.94,57.56 C63.26,57.56 63.26,57.56 65.06,57.44 C66.18,55.66 66.82,54.46 67.6,52.62 Z M69.26,41.46 L70.68,41.46 C71.62,42.9 72.5,43.84 74.04,45.04 C75.78,46.42 77.7,47.52 79.56,48.24 C79.16,48.72 78.96,49.06 78.78,49.52 C76.78,48.58 74.84,47.36 73.22,46.04 C71.88,44.94 70.96,43.94 70.02,42.62 C69.04,43.98 68.28,44.8 67.02,45.9 C65.26,47.42 63.62,48.5 61.62,49.42 C61.42,49 61.1,48.58 60.78,48.28 C62.84,47.38 64.42,46.4 66.08,45.02 C67.46,43.86 68.38,42.84 69.26,41.46 Z M65.2,48.98 L65.2,47.64 C65.6,47.7 66.04,47.72 66.78,47.72 L73.24,47.72 C74.02,47.72 74.48,47.7 74.92,47.64 L74.92,48.98 C74.5,48.92 73.98,48.9 73.24,48.9 L66.76,48.9 C66.16,48.9 65.6,48.92 65.2,48.98 Z M96.46,43.46 L96.46,44.72 C96.46,45.3 96.48,45.68 96.54,46.12 C95.94,46.08 95.2,46.06 94.28,46.06 L85.74,46.06 C84.82,46.06 84.1,46.08 83.5,46.12 C83.56,45.64 83.58,45.28 83.58,44.72 L83.58,43.46 C83.58,42.9 83.56,42.58 83.5,42.02 C84.12,42.1 84.64,42.12 85.78,42.12 L94.26,42.12 C95.4,42.12 95.9,42.1 96.54,42.02 C96.48,42.52 96.46,42.84 96.46,43.46 Z M95.18,43.18 L84.84,43.18 L84.84,45.04 L95.18,45.04 L95.18,43.18 Z M82.82,54.1 L82.82,49.44 C82.82,48.4 82.8,47.8 82.74,47.26 C83.34,47.32 83.98,47.34 85,47.34 L95,47.34 C96,47.34 96.66,47.32 97.26,47.26 C97.2,47.76 97.18,48.38 97.18,49.44 L97.18,54.1 L97.2,55.18 L97.2,55.52 C97.2,55.66 97.22,55.82 97.26,56.2 C96.64,56.14 96.06,56.12 95,56.12 L85,56.12 C83.94,56.12 83.38,56.14 82.74,56.2 C82.8,55.76 82.8,55.76 82.82,54.1 Z M84.06,48.4 L84.06,49.92 L95.94,49.92 L95.94,48.4 L84.06,48.4 Z M84.06,50.92 L84.06,52.48 L95.94,52.48 L95.94,50.92 L84.06,50.92 Z M84.06,53.48 L84.06,55.08 L95.94,55.08 L95.94,53.48 L84.06,53.48 Z M86.62,56.2 L87.68,57 C86.64,57.76 85.96,58.14 84.8,58.64 C84.08,58.96 83.56,59.12 81.74,59.66 C81.44,59.12 81.28,58.92 80.84,58.5 C83.32,58.08 85.28,57.3 86.62,56.2 Z M92.22,56.96 L93.18,56.18 C94.78,57.32 96.7,58.08 99.14,58.56 C98.76,58.92 98.5,59.26 98.28,59.68 C95.22,58.8 94.14,58.32 92.22,56.96 Z M117.06,44.18 L118.1,44.94 C117.82,45.24 117.82,45.24 117.2,45.94 C116.72,46.46 116.2,46.98 115.54,47.56 C116.78,48.4 117.58,48.8 119.24,49.4 C118.9,49.78 118.76,50 118.5,50.54 C116.04,49.46 114.54,48.48 112.76,46.8 C111.48,45.58 110.76,44.66 109.94,43.18 C108.94,44.8 108.2,45.7 106.8,47 C105.12,48.58 103.74,49.5 101.44,50.62 C101.2,50.14 101.06,49.94 100.68,49.56 C102.56,48.74 103.84,47.98 105.26,46.8 C104.22,45.8 103.56,45.22 102.34,44.36 L103.22,43.56 C104.42,44.46 105.1,45.04 106.14,46.04 C107.26,44.98 107.88,44.24 108.62,43.06 L104.98,43.06 C104.64,43.06 104.22,43.1 103.68,43.16 L103.68,41.9 C104.1,41.98 104.42,42 105.12,42 L108.9,42 C109.84,42 110.22,41.98 110.68,41.92 C110.82,42.7 111.3,43.54 112.3,44.7 C113.18,43.84 113.98,42.84 114.38,42.1 L115.42,42.84 C114.14,44.32 113.76,44.72 112.98,45.44 C113.56,46.02 114,46.42 114.68,46.96 C115.82,45.88 116.58,45.02 117.06,44.18 Z M103.14,57.72 L107,57.72 C106.68,56.96 106.32,56.28 105.82,55.52 L107,55.1 C107.56,56.08 107.84,56.66 108.28,57.72 L111.74,57.72 C112.3,56.82 112.68,56.08 113.08,55 L114.26,55.54 C113.72,56.58 113.4,57.14 113,57.72 L116.92,57.72 C117.8,57.72 118.32,57.68 118.88,57.6 L118.88,58.98 C118.32,58.9 117.74,58.86 116.88,58.86 L103.18,58.86 C102.32,58.86 101.78,58.9 101.2,58.98 L101.2,57.6 C101.76,57.7 102.26,57.72 103.14,57.72 Z M106.52,48.76 L106.52,47.5 C106.96,47.58 107.34,47.6 108.1,47.6 L111.92,47.6 C112.68,47.6 113.06,47.58 113.48,47.5 L113.48,48.76 C113.02,48.68 112.64,48.66 111.9,48.66 L108.14,48.66 C107.4,48.66 106.94,48.68 106.52,48.76 Z M114.2,54.8 L105.76,54.8 C105.1,54.8 104.68,54.82 104.22,54.86 C104.28,54.36 104.3,54.02 104.3,53.52 L104.3,51.38 C104.3,50.88 104.28,50.52 104.22,50.04 C104.74,50.1 105.14,50.12 105.82,50.12 L114.18,50.12 C114.86,50.12 115.3,50.1 115.78,50.04 C115.72,50.48 115.7,50.82 115.7,51.38 L115.7,53.52 C115.7,54.12 115.7,54.38 115.78,54.86 C115.3,54.82 114.88,54.8 114.2,54.8 Z M105.54,51.22 L105.54,53.72 L114.46,53.72 L114.46,51.22 L105.54,51.22 Z M132.9,57.8 L132.9,54.78 C132.22,55.32 131.82,55.62 131.26,56.02 C130.9,56.28 130.9,56.28 129.28,57.32 C128.94,57.54 128.94,57.54 128.68,57.7 L128.16,56.7 C126.2,57.46 125.02,57.84 122.68,58.44 C122.04,58.6 121.82,58.66 121.48,58.78 L121.22,57.44 C122.06,57.4 123.02,57.2 124.58,56.78 L124.58,50.62 L123.2,50.62 C122.4,50.62 121.9,50.64 121.34,50.72 L121.34,49.46 C121.86,49.54 122.38,49.56 123.22,49.56 L124.58,49.56 L124.58,47.48 L123.9,47.48 C123.42,47.48 123.06,47.5 122.6,47.56 L122.6,46.42 C122.26,46.76 122.08,46.92 121.6,47.34 C121.32,46.8 121.28,46.74 120.88,46.36 C122.6,45.06 123.8,43.48 124.48,41.6 L125.9,41.6 C126.68,43.26 127.44,44.22 128.8,45.28 C128.48,45.66 128.32,45.88 128.08,46.32 C126.68,45 126.1,44.2 125.26,42.58 C124.52,44.12 123.82,45.16 122.62,46.38 C122.96,46.44 123.4,46.46 123.94,46.46 L126.4,46.46 C126.98,46.46 127.34,46.44 127.74,46.38 L127.74,47.56 C127.3,47.5 126.98,47.48 126.4,47.48 L125.72,47.48 L125.72,49.56 L126.56,49.56 C127.34,49.56 127.8,49.54 128.32,49.46 L128.32,50.72 C127.82,50.64 127.34,50.62 126.56,50.62 L125.72,50.62 L125.72,56.46 C126.6,56.18 127,56.04 128.1,55.6 L128.14,56.52 C129.48,55.94 131.28,54.78 132.9,53.5 L132.9,48.92 L130.06,48.92 C129.22,48.92 128.72,48.94 128.24,49.02 L128.24,47.74 C128.76,47.82 129.3,47.86 130.06,47.86 L135.68,47.86 C135.78,46.9 135.78,46.86 135.84,46.02 L131.42,46.02 C130.62,46.02 130.24,46.04 129.7,46.12 L129.7,44.9 C130.18,44.98 130.58,45 131.42,45 L135.92,45 C135.94,44.4 135.96,44.2 136,43.24 L131.04,43.24 C130.18,43.24 129.66,43.26 129.14,43.34 L129.14,42.08 C129.68,42.16 130.16,42.18 131.04,42.18 L135.36,42.18 C136.22,42.18 136.74,42.16 137.3,42.1 C137.22,42.54 137.22,42.54 137.12,44.18 C137.06,45.22 137,46.14 136.86,47.86 L137.3,47.86 C138.1,47.86 138.64,47.82 139.18,47.74 L139.18,49.02 C138.66,48.94 138.16,48.92 137.32,48.92 L134.08,48.92 L134.08,48.98 C134.46,50.6 134.76,51.46 135.46,52.76 C136.42,51.82 137.04,51 137.7,49.86 L138.74,50.56 C137.66,52 136.88,52.88 136,53.7 C137,55.22 138.02,56.22 139.62,57.24 C139.28,57.54 139.02,57.88 138.76,58.34 C137.3,57.26 136.38,56.28 135.44,54.78 C134.76,53.68 134.44,52.94 133.94,51.24 C134.02,53.06 134.06,53.82 134.06,54.94 L134.06,57.96 C134.06,59.1 133.64,59.46 132.3,59.46 C131.88,59.46 131.28,59.44 130.44,59.38 C130.4,58.86 130.32,58.54 130.18,58.12 C130.9,58.24 131.54,58.3 132.06,58.3 C132.74,58.3 132.9,58.2 132.9,57.8 Z M123.64,55.74 L122.6,56.1 C122.38,54.38 122.2,53.56 121.72,52 L122.7,51.68 C123.14,53.08 123.36,54.02 123.64,55.74 Z M127.32,55.26 L126.42,54.94 C126.9,53.68 127.12,52.82 127.28,51.46 L128.28,51.84 C128,53.18 127.76,54.04 127.32,55.26 Z M129.08,50.34 L130.04,49.88 C130.9,51.24 131.24,51.86 131.74,53 L130.76,53.62 C130.26,52.3 129.88,51.54 129.08,50.34 Z" id="会員登録" fill="#333333"></path>
            <g id="Group" transform="translate(61.000000, 118.000000)">
                <path d="M11.772,13.084 L14.4,13.084 C15.444,13.084 15.876,13.066 16.506,12.958 L16.506,14.398 C15.894,14.326 15.39,14.308 14.418,14.308 L3.6,14.308 C2.628,14.308 2.124,14.326 1.512,14.398 L1.512,12.958 C2.142,13.066 2.574,13.084 3.618,13.084 L10.386,13.084 C10.854,11.014 11.394,7.756 11.664,5.164 L5.562,5.164 C4.68,5.164 4.176,5.182 3.582,5.254 L3.582,3.85 C4.176,3.958 4.572,3.976 5.58,3.976 L11.394,3.976 C12.042,3.976 12.258,3.94 12.6,3.814 L13.302,4.444 C13.14,4.75 13.068,5.038 12.978,5.812 C12.6,8.548 12.258,10.564 11.772,13.084 Z M19.566,9.826 L19.566,8.35 C20.088,8.44 20.574,8.458 21.798,8.458 L32.256,8.458 C33.588,8.458 33.876,8.44 34.434,8.368 L34.434,9.826 C33.858,9.772 33.444,9.754 32.238,9.754 L21.798,9.754 C20.484,9.754 20.106,9.772 19.566,9.826 Z M42.084,5.56 L47.574,5.56 L47.574,3.796 C47.574,2.536 47.574,2.374 47.52,1.96 L48.924,1.96 C48.87,2.464 48.87,2.482 48.852,3.67 L48.852,5.56 L50.4,5.56 C51.534,5.56 51.894,5.542 52.506,5.452 L52.506,6.82 C51.93,6.748 51.57,6.73 50.418,6.73 L48.834,6.73 C48.816,10.204 48.618,11.536 47.952,12.832 C46.98,14.632 45.36,15.892 42.93,16.72 C42.714,16.252 42.534,15.982 42.12,15.586 C44.478,14.992 46.296,13.588 47.016,11.77 C47.412,10.69 47.52,9.61 47.556,6.73 L42.084,6.73 L42.084,9.736 C42.084,10.528 42.102,10.78 42.156,11.194 L40.698,11.194 C40.752,10.816 40.77,10.636 40.77,9.682 L40.77,6.73 L39.258,6.73 C38.106,6.73 37.746,6.748 37.17,6.82 L37.17,5.452 C37.782,5.542 38.142,5.56 39.276,5.56 L40.77,5.56 L40.77,3.472 C40.77,2.518 40.752,2.356 40.698,1.96 L42.156,1.96 C42.102,2.392 42.084,2.626 42.084,3.418 L42.084,5.56 Z M49.608,1.096 L50.562,0.826 C51.138,1.87 51.426,2.5 51.84,3.778 L50.886,4.102 C50.454,2.77 50.094,1.906 49.608,1.096 Z M51.714,0.538 L52.632,0.232 C53.172,1.168 53.622,2.194 53.91,3.166 L52.974,3.49 C52.632,2.392 52.146,1.24 51.714,0.538 Z M55.566,9.826 L55.566,8.35 C56.088,8.44 56.574,8.458 57.798,8.458 L68.256,8.458 C69.588,8.458 69.876,8.44 70.434,8.368 L70.434,9.826 C69.858,9.772 69.444,9.754 68.238,9.754 L57.798,9.754 C56.484,9.754 56.106,9.772 55.566,9.826 Z M77.508,6.352 L78.354,5.704 C79.668,6.532 80.082,6.82 81,7.63 C82.422,6.37 83.25,5.452 84.474,3.796 L79.092,3.796 C77.724,5.38 76.23,6.622 74.16,7.882 C73.944,7.54 73.782,7.324 73.404,7.018 C75.222,6.01 76.644,4.894 77.85,3.562 C78.876,2.41 79.506,1.528 79.848,0.7 L81.072,1.168 C80.244,2.338 80.244,2.338 79.902,2.788 L83.862,2.788 C84.564,2.788 85.05,2.752 85.536,2.698 L86.184,3.472 C85.986,3.688 85.896,3.814 85.572,4.246 C83.97,6.424 82.206,8.188 79.776,9.988 L86.382,9.988 C86.958,9.988 87.3,9.97 87.678,9.916 C87.606,10.348 87.588,10.78 87.588,11.356 L87.588,15.712 C87.588,16.27 87.624,16.918 87.696,17.314 L86.436,17.314 L86.436,16.306 L78.912,16.306 L78.912,17.314 L77.652,17.314 C77.724,16.846 77.76,16.198 77.76,15.712 L77.76,11.356 C76.536,12.13 75.438,12.706 73.746,13.462 C73.548,13.03 73.404,12.796 73.026,12.4 C75.816,11.338 77.886,10.15 80.118,8.35 C79.236,7.504 78.786,7.162 77.508,6.352 Z M78.912,11.032 L78.912,15.298 L86.436,15.298 L86.436,11.032 L78.912,11.032 Z" id="ユーザー名" fill="#333333"></path>
                <g id="Rectangle">
                    <use fill="#FFFFFF" fill-rule="evenodd" xlink:href="#path-1"></use>
                    <rect stroke="#CCCCCC" stroke-width="1" x="0.5" y="26.5" width="379" height="49" rx="4"></rect>
                </g>
                <path d="M5.49,102.914 L7.002,103.184 C6.93,103.382 6.912,103.49 6.768,104.408 C6.012,109.538 4.554,112.994 2.016,115.64 C1.566,115.154 1.368,114.992 0.864,114.704 C1.98,113.66 2.718,112.652 3.474,111.14 C4.356,109.358 4.986,107.252 5.328,104.894 C5.436,104.174 5.508,103.526 5.508,103.202 C5.508,103.148 5.508,103.04 5.49,102.914 Z M10.656,103.184 L11.988,102.914 C11.988,103.688 12.384,105.758 12.816,107.234 C13.68,110.402 15.156,113.066 16.902,114.668 C16.416,114.974 16.2,115.172 15.786,115.676 C13.392,113.138 11.592,108.98 10.89,104.372 C10.8,103.742 10.728,103.418 10.656,103.184 Z M15.498,101.528 C16.632,101.528 17.532,102.428 17.532,103.562 C17.532,104.678 16.614,105.596 15.498,105.596 C14.364,105.596 13.446,104.678 13.446,103.562 C13.446,102.446 14.364,101.528 15.498,101.528 Z M15.498,102.284 C14.778,102.284 14.202,102.86 14.202,103.562 C14.202,104.264 14.778,104.84 15.498,104.84 C16.2,104.84 16.776,104.264 16.776,103.562 C16.776,102.86 16.2,102.284 15.498,102.284 Z M34.218,115.028 L33.192,116.162 C31.77,114.344 29.736,112.382 27.432,110.6 C26.172,112.04 25.29,112.868 23.994,113.822 C22.752,114.722 21.798,115.316 20.466,115.982 C20.178,115.442 20.034,115.244 19.584,114.794 C20.97,114.236 21.852,113.75 23.238,112.724 C26.118,110.6 28.35,107.756 29.664,104.606 C29.7,104.498 29.718,104.48 29.754,104.39 C29.79,104.336 29.79,104.318 29.808,104.264 C29.646,104.282 29.592,104.282 29.376,104.282 L23.364,104.372 C22.554,104.39 22.032,104.426 21.51,104.516 L21.474,103.058 C21.96,103.13 22.284,103.148 22.896,103.148 L23.364,103.148 L29.79,103.076 C30.42,103.058 30.636,103.04 30.942,102.932 L31.698,103.706 C31.518,103.922 31.392,104.138 31.194,104.588 C30.186,106.82 29.34,108.242 28.224,109.628 C30.582,111.428 32.166,112.85 34.218,115.028 Z M40.41,108.872 L38.916,108.872 C38.97,108.458 38.988,108.17 38.988,107.414 L38.988,104.336 C38.97,103.634 38.97,103.472 38.934,102.986 C39.33,103.022 39.888,103.058 40.32,103.058 L49.626,103.058 C50.364,103.058 50.544,103.04 50.904,102.914 L51.642,103.616 C51.48,103.904 51.444,104.048 51.372,104.624 C50.832,108.746 49.932,110.996 47.988,113.012 C46.62,114.434 44.928,115.514 42.84,116.306 C42.552,115.73 42.426,115.55 41.976,115.1 C44.892,114.092 46.818,112.724 48.096,110.708 C49.104,109.142 49.608,107.36 49.968,104.246 L40.356,104.246 L40.356,107.378 C40.356,108.584 40.356,108.584 40.41,108.872 Z M55.566,109.826 L55.566,108.35 C56.088,108.44 56.574,108.458 57.798,108.458 L68.256,108.458 C69.588,108.458 69.876,108.44 70.434,108.368 L70.434,109.826 C69.858,109.772 69.444,109.754 68.238,109.754 L57.798,109.754 C56.484,109.754 56.106,109.772 55.566,109.826 Z M78.876,116.558 L77.328,116.558 C77.4,116.144 77.418,115.766 77.436,114.668 L77.436,103.49 C77.418,102.356 77.4,102.05 77.328,101.654 L78.876,101.654 C78.804,102.068 78.786,102.41 78.786,103.526 L78.786,106.892 C81.36,107.81 83.844,108.98 86.796,110.69 L86.022,112.022 C84.672,111.014 81.846,109.52 79.308,108.458 C79.056,108.35 78.912,108.278 78.75,108.152 L78.714,108.17 C78.768,108.494 78.786,108.782 78.786,109.232 L78.786,114.65 C78.786,115.73 78.804,116.126 78.876,116.558 Z M83.34,102.842 L84.24,102.374 C85.05,103.346 85.554,104.102 86.094,105.164 L85.194,105.704 C84.744,104.75 83.88,103.4 83.34,102.842 Z M85.392,101.87 L86.274,101.384 C87.084,102.392 87.534,103.058 88.128,104.192 L87.228,104.714 C86.85,103.85 86.094,102.698 85.392,101.87 Z" id="パスワード" fill="#333333"></path>
                <g id="Rectangle">
                    <use fill="#FFFFFF" fill-rule="evenodd" xlink:href="#path-2"></use>
                    <rect stroke="#CCCCCC" stroke-width="1" x="0.5" y="126.5" width="379" height="49" rx="4"></rect>
                </g>
                <path d="M21,143.276 C23.268,143.276 25.32,144.194 26.85,145.886 C28.164,147.326 28.884,149.198 28.884,151.16 C28.884,155.534 25.356,159.062 21,159.062 C16.644,159.062 13.098,155.516 13.098,151.16 C13.098,148.892 13.998,146.876 15.708,145.31 C17.112,144.032 19.056,143.276 21,143.276 Z M39,143.276 C41.268,143.276 43.32,144.194 44.85,145.886 C46.164,147.326 46.884,149.198 46.884,151.16 C46.884,155.534 43.356,159.062 39,159.062 C34.644,159.062 31.098,155.516 31.098,151.16 C31.098,148.892 31.998,146.876 33.708,145.31 C35.112,144.032 37.056,143.276 39,143.276 Z M57,143.276 C59.268,143.276 61.32,144.194 62.85,145.886 C64.164,147.326 64.884,149.198 64.884,151.16 C64.884,155.534 61.356,159.062 57,159.062 C52.644,159.062 49.098,155.516 49.098,151.16 C49.098,148.892 49.998,146.876 51.708,145.31 C53.112,144.032 55.056,143.276 57,143.276 Z M75,143.276 C77.268,143.276 79.32,144.194 80.85,145.886 C82.164,147.326 82.884,149.198 82.884,151.16 C82.884,155.534 79.356,159.062 75,159.062 C70.644,159.062 67.098,155.516 67.098,151.16 C67.098,148.892 67.998,146.876 69.708,145.31 C71.112,144.032 73.056,143.276 75,143.276 Z M93,143.276 C95.268,143.276 97.32,144.194 98.85,145.886 C100.164,147.326 100.884,149.198 100.884,151.16 C100.884,155.534 97.356,159.062 93,159.062 C88.644,159.062 85.098,155.516 85.098,151.16 C85.098,148.892 85.998,146.876 87.708,145.31 C89.112,144.032 91.056,143.276 93,143.276 Z M111,143.276 C113.268,143.276 115.32,144.194 116.85,145.886 C118.164,147.326 118.884,149.198 118.884,151.16 C118.884,155.534 115.356,159.062 111,159.062 C106.644,159.062 103.098,155.516 103.098,151.16 C103.098,148.892 103.998,146.876 105.708,145.31 C107.112,144.032 109.056,143.276 111,143.276 Z" id="●●●●●●" fill="#333333"></path>
                <path d="M5.49,202.914 L7.002,203.184 C6.93,203.382 6.912,203.49 6.768,204.408 C6.012,209.538 4.554,212.994 2.016,215.64 C1.566,215.154 1.368,214.992 0.864,214.704 C1.98,213.66 2.718,212.652 3.474,211.14 C4.356,209.358 4.986,207.252 5.328,204.894 C5.436,204.174 5.508,203.526 5.508,203.202 C5.508,203.148 5.508,203.04 5.49,202.914 Z M10.656,203.184 L11.988,202.914 C11.988,203.688 12.384,205.758 12.816,207.234 C13.68,210.402 15.156,213.066 16.902,214.668 C16.416,214.974 16.2,215.172 15.786,215.676 C13.392,213.138 11.592,208.98 10.89,204.372 C10.8,203.742 10.728,203.418 10.656,203.184 Z M15.498,201.528 C16.632,201.528 17.532,202.428 17.532,203.562 C17.532,204.678 16.614,205.596 15.498,205.596 C14.364,205.596 13.446,204.678 13.446,203.562 C13.446,202.446 14.364,201.528 15.498,201.528 Z M15.498,202.284 C14.778,202.284 14.202,202.86 14.202,203.562 C14.202,204.264 14.778,204.84 15.498,204.84 C16.2,204.84 16.776,204.264 16.776,203.562 C16.776,202.86 16.2,202.284 15.498,202.284 Z M34.218,215.028 L33.192,216.162 C31.77,214.344 29.736,212.382 27.432,210.6 C26.172,212.04 25.29,212.868 23.994,213.822 C22.752,214.722 21.798,215.316 20.466,215.982 C20.178,215.442 20.034,215.244 19.584,214.794 C20.97,214.236 21.852,213.75 23.238,212.724 C26.118,210.6 28.35,207.756 29.664,204.606 C29.7,204.498 29.718,204.48 29.754,204.39 C29.79,204.336 29.79,204.318 29.808,204.264 C29.646,204.282 29.592,204.282 29.376,204.282 L23.364,204.372 C22.554,204.39 22.032,204.426 21.51,204.516 L21.474,203.058 C21.96,203.13 22.284,203.148 22.896,203.148 L23.364,203.148 L29.79,203.076 C30.42,203.058 30.636,203.04 30.942,202.932 L31.698,203.706 C31.518,203.922 31.392,204.138 31.194,204.588 C30.186,206.82 29.34,208.242 28.224,209.628 C30.582,211.428 32.166,212.85 34.218,215.028 Z M40.41,208.872 L38.916,208.872 C38.97,208.458 38.988,208.17 38.988,207.414 L38.988,204.336 C38.97,203.634 38.97,203.472 38.934,202.986 C39.33,203.022 39.888,203.058 40.32,203.058 L49.626,203.058 C50.364,203.058 50.544,203.04 50.904,202.914 L51.642,203.616 C51.48,203.904 51.444,204.048 51.372,204.624 C50.832,208.746 49.932,210.996 47.988,213.012 C46.62,214.434 44.928,215.514 42.84,216.306 C42.552,215.73 42.426,215.55 41.976,215.1 C44.892,214.092 46.818,212.724 48.096,210.708 C49.104,209.142 49.608,207.36 49.968,204.246 L40.356,204.246 L40.356,207.378 C40.356,208.584 40.356,208.584 40.41,208.872 Z M55.566,209.826 L55.566,208.35 C56.088,208.44 56.574,208.458 57.798,208.458 L68.256,208.458 C69.588,208.458 69.876,208.44 70.434,208.368 L70.434,209.826 C69.858,209.772 69.444,209.754 68.238,209.754 L57.798,209.754 C56.484,209.754 56.106,209.772 55.566,209.826 Z M78.876,216.558 L77.328,216.558 C77.4,216.144 77.418,215.766 77.436,214.668 L77.436,203.49 C77.418,202.356 77.4,202.05 77.328,201.654 L78.876,201.654 C78.804,202.068 78.786,202.41 78.786,203.526 L78.786,206.892 C81.36,207.81 83.844,208.98 86.796,210.69 L86.022,212.022 C84.672,211.014 81.846,209.52 79.308,208.458 C79.056,208.35 78.912,208.278 78.75,208.152 L78.714,208.17 C78.768,208.494 78.786,208.782 78.786,209.232 L78.786,214.65 C78.786,215.73 78.804,216.126 78.876,216.558 Z M83.34,202.842 L84.24,202.374 C85.05,203.346 85.554,204.102 86.094,205.164 L85.194,205.704 C84.744,204.75 83.88,203.4 83.34,202.842 Z M85.392,201.87 L86.274,201.384 C87.084,202.392 87.534,203.058 88.128,204.192 L87.228,204.714 C86.85,203.85 86.094,202.698 85.392,201.87 Z M102.96,215.55 L105.138,215.55 C105.948,215.55 106.326,215.532 106.848,215.46 L106.848,216.63 C106.236,216.558 105.768,216.522 105.138,216.522 L99.144,216.522 L99.144,217.422 L98.01,217.422 C98.082,216.882 98.118,216.378 98.118,215.532 L98.118,210.672 C98.154,209.628 98.172,209.034 98.19,208.89 C97.848,209.412 97.524,209.826 96.948,210.42 C96.768,210.06 96.534,209.736 96.264,209.484 C97.596,208.296 98.532,207.072 99.468,205.308 C99.72,204.822 99.918,204.426 100.116,203.904 L98.046,203.904 L98.046,205.92 L96.93,205.92 C96.984,205.632 97.002,205.29 97.002,204.84 L97.002,203.796 C97.002,203.472 97.002,203.364 96.966,202.86 C97.344,202.896 97.47,202.896 98.55,202.896 L100.494,202.896 C100.764,202.014 100.908,201.51 101.016,200.898 L102.204,201.114 C102.096,201.402 102.096,201.402 101.88,202.05 C101.772,202.392 101.7,202.572 101.592,202.896 L105.156,202.896 C105.894,202.896 106.416,202.878 106.956,202.806 C106.92,203.094 106.902,203.472 106.902,203.994 L106.902,204.894 C106.902,205.29 106.92,205.56 106.974,205.884 L105.822,205.884 L105.822,203.904 L101.214,203.904 C100.728,205.074 100.368,205.758 99.738,206.712 L102.168,206.712 C102.528,206.01 102.762,205.344 102.924,204.66 L104.022,204.93 C103.932,205.128 103.932,205.128 103.806,205.47 C103.752,205.596 103.644,205.83 103.5,206.172 C103.302,206.604 103.302,206.604 103.248,206.712 L104.832,206.712 C105.624,206.712 106.002,206.694 106.47,206.622 L106.47,207.738 C105.822,207.666 105.408,207.648 104.868,207.648 L102.96,207.648 L102.96,209.61 L104.58,209.61 C105.372,209.61 105.75,209.592 106.218,209.52 L106.218,210.636 C105.606,210.564 105.174,210.546 104.616,210.546 L102.96,210.546 L102.96,212.49 L104.58,212.49 C105.354,212.49 105.768,212.472 106.218,212.4 L106.218,213.516 C105.606,213.444 105.174,213.426 104.616,213.426 L102.96,213.426 L102.96,215.55 Z M99.144,209.61 L101.934,209.61 L101.934,207.648 L99.144,207.648 L99.144,209.61 Z M99.144,210.546 L99.144,212.49 L101.934,212.49 L101.934,210.546 L99.144,210.546 Z M99.144,213.426 L99.144,215.55 L101.934,215.55 L101.934,213.426 L99.144,213.426 Z M93.294,202.806 L92.646,202.806 C91.944,202.806 91.602,202.824 91.116,202.914 L91.116,201.69 C91.62,201.762 92.088,201.798 92.718,201.798 L95.22,201.798 C95.832,201.798 96.246,201.762 96.732,201.69 L96.732,202.878 C96.264,202.824 95.958,202.806 95.418,202.806 L94.392,202.806 C94.104,204.57 93.816,205.65 93.186,207.414 L95.166,207.414 C95.616,207.414 95.922,207.396 96.282,207.342 C96.228,207.774 96.21,208.17 96.21,208.8 L96.21,214.38 C96.21,215.064 96.228,215.442 96.282,215.892 L95.202,215.892 L95.202,215.01 L93.24,215.01 L93.24,216.882 L92.07,216.882 C92.142,216.414 92.178,215.946 92.178,215.154 L92.178,211.05 C92.178,210.834 92.232,209.664 92.268,209.106 C91.854,210.132 91.548,210.69 91.044,211.374 C90.774,210.816 90.702,210.69 90.396,210.366 C91.404,209.07 92.034,207.828 92.592,206.01 C92.934,204.948 93.096,204.156 93.294,202.806 Z M93.24,208.404 L93.24,214.02 L95.202,214.02 L95.202,208.404 L93.24,208.404 Z M115.848,204.786 L116.37,204.012 C117.396,204.372 117.738,204.498 118.566,204.876 C118.764,204.246 118.8,204.012 118.962,202.95 L117.27,202.95 C116.406,202.95 115.938,202.968 115.47,203.058 L115.47,201.852 C115.902,201.924 116.478,201.96 117.288,201.96 L122.796,201.96 C123.516,201.96 124.02,201.942 124.47,201.888 C124.434,202.14 124.434,202.248 124.398,202.752 C124.254,205.74 123.966,207.63 123.516,208.44 C123.246,208.944 122.868,209.088 121.896,209.088 C121.446,209.088 120.924,209.052 120.42,208.998 C120.384,208.548 120.33,208.314 120.15,207.864 C120.726,207.99 121.32,208.062 121.842,208.062 C122.472,208.062 122.634,207.9 122.832,207.126 C123.066,206.244 123.192,204.948 123.282,202.95 L120.024,202.95 C119.862,204.102 119.754,204.552 119.502,205.326 C120.222,205.704 120.564,205.884 121.482,206.46 L120.888,207.342 C120.114,206.784 119.826,206.586 119.142,206.226 C118.476,207.648 117.45,208.71 115.614,209.898 C115.344,209.502 115.164,209.304 114.822,209.034 C116.532,208.152 117.594,207.126 118.224,205.74 C117.36,205.326 116.964,205.182 115.848,204.786 Z M109.548,202.86 L109.548,201.726 C109.944,201.798 110.214,201.816 110.844,201.816 L113.184,201.816 C113.796,201.816 114.084,201.798 114.48,201.726 L114.48,202.86 C114.066,202.806 113.742,202.788 113.184,202.788 L110.844,202.788 C110.286,202.788 109.926,202.806 109.548,202.86 Z M108.9,205.38 L108.9,204.21 C109.296,204.282 109.656,204.3 110.34,204.3 L113.454,204.3 C114.21,204.3 114.498,204.282 114.894,204.21 L114.894,205.362 C114.516,205.326 114.174,205.308 113.58,205.308 L110.34,205.308 C109.692,205.308 109.332,205.326 108.9,205.38 Z M109.602,207.864 L109.602,206.748 C109.962,206.802 110.214,206.82 110.826,206.82 L113.238,206.82 C113.85,206.82 114.12,206.802 114.444,206.748 L114.444,207.864 C114.066,207.81 113.778,207.792 113.238,207.792 L110.826,207.792 C110.25,207.792 109.926,207.81 109.602,207.864 Z M109.602,210.348 L109.602,209.232 C109.962,209.286 110.232,209.304 110.826,209.304 L113.238,209.304 C113.832,209.304 114.12,209.286 114.444,209.232 L114.444,210.348 C114.066,210.294 113.778,210.276 113.238,210.276 L110.826,210.276 C110.25,210.276 109.98,210.294 109.602,210.348 Z M110.772,217.314 L109.656,217.314 C109.71,216.756 109.746,216.18 109.746,215.568 L109.746,213.12 C109.746,212.49 109.728,212.13 109.674,211.644 C110.088,211.698 110.448,211.716 111.132,211.716 L113.04,211.716 C113.706,211.716 114.102,211.698 114.354,211.662 C114.318,211.968 114.3,212.4 114.3,213.066 L114.3,215.604 C114.3,216.216 114.318,216.702 114.39,217.08 L113.292,217.08 L113.292,216.306 L110.772,216.306 L110.772,217.314 Z M110.754,212.634 L110.754,215.37 L113.292,215.37 L113.292,212.634 L110.754,212.634 Z M115.812,211.428 L116.838,211.644 C116.55,213.66 116.352,214.416 115.632,216 L114.66,215.496 C115.398,214.056 115.668,213.084 115.812,211.428 Z M118.71,212.526 L118.71,215.514 C118.71,215.892 118.89,215.964 119.808,215.964 C120.222,215.964 121.05,215.928 121.23,215.91 C121.842,215.838 121.986,215.658 122.094,214.902 C122.166,214.488 122.22,213.966 122.238,213.372 C122.634,213.588 122.85,213.66 123.264,213.75 C123.12,215.388 122.922,216.144 122.562,216.504 C122.202,216.864 121.68,216.954 119.862,216.954 C118.044,216.954 117.648,216.756 117.648,215.82 L117.648,212.598 C117.648,212.04 117.612,211.608 117.54,211.14 L118.818,211.14 C118.728,211.518 118.71,211.842 118.71,212.526 Z M122.706,211.662 L123.588,211.176 C124.596,212.526 124.956,213.138 125.784,214.974 L124.83,215.568 C124.146,213.822 123.678,212.976 122.706,211.662 Z M118.098,209.538 L118.872,208.89 C120.204,209.772 120.762,210.222 121.77,211.248 L120.96,212.004 C120.078,210.924 119.448,210.384 118.098,209.538 Z" id="パスワード確認" fill="#333333"></path>
                <g id="Rectangle">
                    <use fill="#FFFFFF" fill-rule="evenodd" xlink:href="#path-3"></use>
                    <rect stroke="#CCCCCC" stroke-width="1" x="0.5" y="226.5" width="379" height="49" rx="4"></rect>
                </g>
                <path d="M21,243.276 C23.268,243.276 25.32,244.194 26.85,245.886 C28.164,247.326 28.884,249.198 28.884,251.16 C28.884,255.534 25.356,259.062 21,259.062 C16.644,259.062 13.098,255.516 13.098,251.16 C13.098,248.892 13.998,246.876 15.708,245.31 C17.112,244.032 19.056,243.276 21,243.276 Z M39,243.276 C41.268,243.276 43.32,244.194 44.85,245.886 C46.164,247.326 46.884,249.198 46.884,251.16 C46.884,255.534 43.356,259.062 39,259.062 C34.644,259.062 31.098,255.516 31.098,251.16 C31.098,248.892 31.998,246.876 33.708,245.31 C35.112,244.032 37.056,243.276 39,243.276 Z M57,243.276 C59.268,243.276 61.32,244.194 62.85,245.886 C64.164,247.326 64.884,249.198 64.884,251.16 C64.884,255.534 61.356,259.062 57,259.062 C52.644,259.062 49.098,255.516 49.098,251.16 C49.098,248.892 49.998,246.876 51.708,245.31 C53.112,244.032 55.056,243.276 57,243.276 Z M75,243.276 C77.268,243.276 79.32,244.194 80.85,245.886 C82.164,247.326 82.884,249.198 82.884,251.16 C82.884,255.534 79.356,259.062 75,259.062 C70.644,259.062 67.098,255.516 67.098,251.16 C67.098,248.892 67.998,246.876 69.708,245.31 C71.112,244.032 73.056,243.276 75,243.276 Z M93,243.276 C95.268,243.276 97.32,244.194 98.85,245.886 C100.164,247.326 100.884,249.198 100.884,251.16 C100.884,255.534 97.356,259.062 93,259.062 C88.644,259.062 85.098,255.516 85.098,251.16 C85.098,248.892 85.998,246.876 87.708,245.31 C89.112,244.032 91.056,243.276 93,243.276 Z M111,243.276 C113.268,243.276 115.32,244.194 116.85,245.886 C118.164,247.326 118.884,249.198 118.884,251.16 C118.884,255.534 115.356,259.062 111,259.062 C106.644,259.062 103.098,255.516 103.098,251.16 C103.098,248.892 103.998,246.876 105.708,245.31 C107.112,244.032 109.056,243.276 111,243.276 Z" id="●●●●●●" fill="#333333"></path>
            </g>
            <path d="M62.448,78.212 L63.78,78.212 L63.366,80.588 L65.22,79.058 L65.922,80.102 L63.618,81.002 L65.85,81.848 L65.202,82.928 L63.348,81.38 L63.78,83.792 L62.448,83.792 L62.88,81.38 L61.008,82.928 L60.36,81.848 L62.61,81.002 L60.306,80.102 L61.008,79.058 L62.862,80.588 L62.448,78.212 Z M75.714,81.146 L75.714,89.12 L80.538,89.12 C81.618,89.12 81.996,89.102 82.644,89.012 L82.644,90.416 C82.032,90.344 81.51,90.326 80.556,90.326 L69.864,90.326 C68.928,90.326 68.406,90.344 67.794,90.416 L67.794,89.012 C68.442,89.102 68.82,89.12 69.882,89.12 L74.382,89.12 L74.382,81.146 L71.25,81.146 C70.278,81.146 69.774,81.164 69.162,81.236 L69.162,79.85 C69.792,79.94 70.224,79.958 71.268,79.958 L79.17,79.958 C80.214,79.958 80.646,79.94 81.276,79.85 L81.276,81.236 C80.664,81.164 80.16,81.146 79.188,81.146 L75.714,81.146 Z M88.26,79.76 L88.26,78.374 C88.782,78.482 89.142,78.5 90.15,78.5 L96.162,78.5 C97.17,78.5 97.53,78.482 98.052,78.374 L98.052,79.76 C97.566,79.688 97.134,79.67 96.18,79.67 L90.132,79.67 C89.178,79.67 88.746,79.688 88.26,79.76 Z M86.712,83.9 L86.712,82.55 C87.36,82.64 87.738,82.658 88.818,82.658 L98.052,82.658 C98.718,82.658 98.916,82.64 99.222,82.532 L99.888,83.306 C99.726,83.558 99.69,83.648 99.384,84.44 C97.854,88.634 95.37,90.938 90.708,92.504 C90.492,91.982 90.366,91.784 89.934,91.262 C92.346,90.578 93.93,89.768 95.28,88.526 C96.558,87.356 97.368,86.024 98.196,83.81 L88.8,83.81 C87.846,83.81 87.324,83.828 86.712,83.9 Z M103.794,85.826 L103.794,84.35 C104.316,84.44 104.802,84.458 106.026,84.458 L116.484,84.458 C117.816,84.458 118.104,84.44 118.662,84.368 L118.662,85.826 C118.086,85.772 117.672,85.754 116.466,85.754 L106.026,85.754 C104.712,85.754 104.334,85.772 103.794,85.826 Z M133.332,77.87 L134.232,77.402 C135.042,78.374 135.546,79.13 136.086,80.192 L135.186,80.732 C134.736,79.778 133.872,78.446 133.332,77.87 Z M121.74,83.414 L121.596,82.118 C122.244,82.1 122.928,82.028 125.574,81.65 C125.88,80.3 126.114,78.59 126.114,77.834 L126.114,77.6 L127.554,77.762 C127.446,78.104 127.356,78.518 127.212,79.49 C127.14,79.94 126.978,80.768 126.834,81.542 C127.248,81.506 127.482,81.488 127.896,81.488 C129.174,81.488 129.93,81.704 130.488,82.244 C131.118,82.838 131.37,83.666 131.37,85.142 C131.37,87.896 130.902,90.29 130.164,91.334 C129.732,91.946 129.246,92.18 128.4,92.18 C127.626,92.18 126.87,91.982 125.682,91.478 C125.718,91.208 125.718,91.082 125.718,90.83 C125.718,90.56 125.718,90.452 125.664,90.128 C126.69,90.65 127.698,90.956 128.346,90.956 C128.796,90.956 129.138,90.668 129.372,90.092 C129.858,88.94 130.128,87.104 130.128,85.088 C130.128,83.18 129.588,82.568 127.914,82.568 C127.518,82.568 127.284,82.586 126.618,82.658 C125.862,86.024 124.602,89.156 122.73,92.45 L121.506,91.73 C123,89.768 124.548,86.168 125.358,82.766 C123.054,83.09 122.55,83.18 121.74,83.414 Z M135.384,76.916 L136.266,76.43 C137.076,77.42 137.526,78.086 138.12,79.22 L137.22,79.742 C136.842,78.896 136.086,77.726 135.384,76.916 Z M132.36,81.02 L133.422,80.462 C135.204,82.37 136.428,84.458 137.184,86.834 L136.032,87.482 C135.438,85.196 133.98,82.622 132.36,81.02 Z M140.712,80.984 L140.73,79.742 C141.486,79.958 142.44,80.03 144.096,80.03 C144.15,80.03 144.222,80.03 144.546,80.012 C144.564,79.58 144.564,79.58 144.636,78.662 C144.654,78.464 144.69,77.762 144.69,77.636 C144.69,77.6 144.69,77.492 144.672,77.366 L146.076,77.456 C145.914,77.96 145.824,78.572 145.698,79.976 C148.632,79.832 151.188,79.454 152.556,78.968 L152.628,80.228 C152.394,80.264 152.34,80.264 151.998,80.318 C150.036,80.678 147.3,80.984 145.626,81.038 C145.518,82.568 145.518,82.568 145.5,83.45 C146.418,83.198 147.21,83.09 148.164,83.09 C148.542,83.09 148.758,83.108 149.208,83.144 C149.424,82.604 149.568,82.064 149.64,81.524 L150.882,81.902 C150.828,82.01 150.63,82.496 150.324,83.342 C152.808,83.918 154.194,85.448 154.194,87.554 C154.194,89.318 153.222,90.74 151.368,91.712 C150.342,92.252 149.316,92.54 147.696,92.738 C147.534,92.216 147.444,92.018 147.12,91.532 C148.182,91.496 148.956,91.352 149.82,91.046 C151.782,90.362 152.916,89.048 152.916,87.446 C152.916,85.898 151.89,84.818 149.946,84.314 C148.902,86.744 147.93,88.292 146.526,89.714 C145.14,91.154 143.772,91.892 142.512,91.892 C141.162,91.892 140.19,90.758 140.19,89.156 C140.19,86.942 141.756,84.926 144.366,83.792 C144.384,82.478 144.384,82.388 144.474,81.074 L143.754,81.074 C143.574,81.074 142.764,81.038 141.324,80.984 C141.162,80.966 141.036,80.966 141,80.966 C140.928,80.966 140.838,80.966 140.712,80.984 Z M144.366,84.926 C143.484,85.412 142.962,85.826 142.458,86.402 C141.756,87.23 141.36,88.184 141.36,89.084 C141.36,90.074 141.882,90.722 142.656,90.722 C143.322,90.722 143.916,90.452 144.726,89.804 C144.474,88.418 144.366,87.104 144.366,84.926 Z M145.698,89.048 L145.752,89.066 C145.932,88.778 145.95,88.742 146.094,88.598 C147.264,87.248 148.02,85.988 148.848,84.098 C148.272,84.062 148.182,84.062 147.984,84.062 C147.156,84.062 146.31,84.206 145.482,84.476 C145.5,86.798 145.518,87.104 145.68,88.598 C145.698,88.706 145.698,88.742 145.698,88.85 L145.698,89.048 Z M161.016,77.42 L162.42,77.564 C162.276,77.942 162.168,78.446 162.006,79.418 C161.718,81.236 161.466,83.198 161.412,84.116 L161.484,84.134 C161.52,83.99 161.52,83.99 161.61,83.612 C161.826,82.622 162.186,81.74 162.708,80.93 C163.716,79.382 164.904,78.608 166.308,78.608 C167.478,78.608 168.486,79.166 169.188,80.21 C169.944,81.326 170.268,82.658 170.268,84.584 C170.268,87.842 168.81,90.308 166.11,91.658 C165.246,92.09 164.166,92.45 162.906,92.72 C162.69,92.18 162.582,91.982 162.186,91.496 C163.86,91.244 164.796,90.956 165.84,90.362 C167.946,89.156 168.936,87.266 168.936,84.386 C168.936,81.488 167.928,79.814 166.2,79.814 C164.832,79.814 163.68,80.84 162.654,82.946 C162.024,84.26 161.682,85.646 161.682,86.96 C161.682,87.032 161.682,87.122 161.7,87.392 L160.404,87.446 L160.404,87.248 L160.386,86.924 L160.35,85.052 L160.35,84.638 C160.35,82.874 160.512,81.182 160.962,77.996 C160.998,77.726 161.016,77.636 161.016,77.42 Z M189.978,90.56 L189.258,91.82 C188.43,90.956 187.116,90.038 185.586,89.246 C185.28,89.084 184.866,88.904 184.38,88.706 C184.416,89.12 184.416,89.12 184.416,89.354 C184.416,90.308 184.29,90.884 183.966,91.316 C183.444,92.054 182.346,92.45 180.924,92.45 C179.736,92.45 178.746,92.198 178.134,91.73 C177.522,91.28 177.162,90.578 177.162,89.84 C177.162,88.652 178.098,87.716 179.682,87.356 C180.222,87.23 180.762,87.176 181.554,87.176 C182.148,87.176 182.4,87.194 183.174,87.32 C183.156,87.266 183.156,87.266 183.156,87.104 C183.156,87.086 183.138,87.014 183.138,86.906 C183.12,86.744 183.12,86.366 183.102,85.844 C183.084,85.61 183.084,85.268 183.066,84.8 C182.418,84.818 181.518,84.836 180.942,84.836 C179.862,84.836 179.016,84.8 177.9,84.71 C177.702,84.692 177.558,84.692 177.45,84.692 L177.306,84.692 L177.324,83.504 C178.134,83.684 179.628,83.792 181.446,83.792 C181.914,83.792 182.544,83.792 183.048,83.774 L183.012,81.308 C182.49,81.326 182.202,81.326 181.788,81.326 C180.474,81.326 179.016,81.272 177.396,81.146 C177.27,81.128 177.162,81.128 177.072,81.128 C177.018,81.128 176.928,81.128 176.82,81.146 L176.838,79.922 C177.612,80.138 179.484,80.282 181.446,80.282 C181.806,80.282 182.418,80.264 183.012,80.264 C182.994,78.068 182.994,78.068 182.922,77.672 L184.308,77.672 C184.236,78.05 184.2,78.914 184.182,80.21 C186.666,80.048 188.52,79.796 189.51,79.472 L189.6,80.696 C189.294,80.714 189.294,80.714 188.358,80.84 C186.666,81.092 186.18,81.146 184.182,81.272 C184.2,82.748 184.2,82.748 184.218,83.702 C186.666,83.522 188.214,83.306 189.204,82.964 L189.276,84.206 C189.042,84.224 188.862,84.242 188.232,84.332 C186.99,84.53 185.568,84.674 184.236,84.764 C184.272,85.772 184.272,85.772 184.344,87.518 C185.91,87.95 187.476,88.778 189.366,90.146 C189.654,90.362 189.744,90.416 189.978,90.56 Z M183.192,89.102 L183.174,88.418 C182.49,88.256 182.13,88.22 181.338,88.22 C179.556,88.22 178.386,88.868 178.386,89.822 C178.386,90.776 179.286,91.316 180.852,91.316 C181.806,91.316 182.49,91.118 182.832,90.722 C183.084,90.47 183.192,89.966 183.192,89.102 Z M202.182,80.012 L202.146,78.59 C202.146,78.122 202.128,77.924 202.074,77.546 L203.424,77.546 C203.352,78.122 203.334,78.392 203.334,79.796 L203.334,79.994 C206.736,79.976 208.122,79.94 208.716,79.868 L208.716,81.146 C208.05,81.074 207.42,81.056 205.278,81.056 C205.008,81.056 204.81,81.056 203.352,81.092 L203.352,84.656 C203.658,85.412 203.784,85.988 203.784,86.78 C203.784,88.652 202.92,90.308 201.372,91.478 C200.634,92.018 199.842,92.432 198.528,92.936 C198.222,92.36 198.114,92.198 197.736,91.802 C199.14,91.352 199.932,90.992 200.652,90.452 C201.966,89.462 202.596,88.292 202.668,86.654 C202.506,87.086 202.398,87.284 202.182,87.536 C201.642,88.184 200.868,88.508 199.914,88.508 C198.186,88.508 196.962,87.32 196.962,85.664 C196.962,83.954 198.312,82.694 200.148,82.694 C201.012,82.694 201.768,82.982 202.236,83.504 C202.218,83.252 202.218,83.18 202.218,82.514 C202.218,82.442 202.2,82.262 202.2,82.046 L202.2,81.11 C198.582,81.182 194.946,81.362 193.74,81.56 L193.686,80.246 C194.01,80.264 194.136,80.264 194.406,80.264 C194.928,80.264 194.928,80.264 197.826,80.156 C199.554,80.084 200.958,80.048 202.182,80.012 Z M202.128,85.268 C202.128,84.674 201.894,84.296 201.372,84.008 C201.03,83.81 200.652,83.72 200.166,83.72 C199.032,83.72 198.168,84.53 198.168,85.61 C198.168,86.654 198.924,87.392 200.022,87.392 C201.264,87.392 202.128,86.528 202.128,85.268 Z M213.918,87.77 C215.412,87.77 216.618,88.976 216.618,90.47 C216.618,91.964 215.412,93.17 213.918,93.17 C212.424,93.17 211.218,91.964 211.218,90.47 C211.218,88.976 212.424,87.77 213.918,87.77 Z M213.918,88.796 C213,88.796 212.244,89.552 212.244,90.47 C212.244,91.388 213,92.144 213.918,92.144 C214.836,92.144 215.592,91.388 215.592,90.47 C215.592,89.552 214.836,88.796 213.918,88.796 Z" id="*エラーがあります。" fill="#F24C3B"></path>
        </g>
    </g>
</svg>