<?xml version="1.0" encoding="UTF-8" standalone="no"?>
<svg width="500px" height="400px" viewBox="0 0 500 400" version="1.1" xmlns="http://www.w3.org/2000/svg" xmlns:xlink="http://www.w3.org/1999/xlink" style="background: #EFEFEF;">
    <!-- Generator: Sketch 49.3 (51167) - http://www.bohemiancoding.com/sketch -->
    <title>2.2.4_ng</title>
    <desc>Created with Sketch.</desc>
    <defs>
        <rect id="path-1" x="40" y="50" width="420" height="300" rx="8"></rect>
        <filter x="-7.4%" y="-9.7%" width="114.8%" height="120.7%" filterUnits="objectBoundingBox" id="filter-2">
            <feOffset dx="0" dy="2" in="SourceAlpha" result="shadowOffsetOuter1"></feOffset>
            <feGaussianBlur stdDeviation="10" in="shadowOffsetOuter1" result="shadowBlurOuter1"></feGaussianBlur>
            <feColorMatrix values="0 0 0 0 0   0 0 0 0 0   0 0 0 0 0  0 0 0 0.1 0" type="matrix" in="shadowBlurOuter1"></feColorMatrix>
        </filter>
    </defs>
    <g id="2.2.4_ng" stroke="none" stroke-width="1" fill="none" fill-rule="evenodd">
        <g id="Rectangle-9">
            <use fill="black" fill-opacity="1" filter="url(#filter-2)" xlink:href="#path-1"></use>
            <use fill="#FFFFFF" fill-rule="evenodd" xlink:href="#path-1"></use>
        </g>
        <path d="M156.38,92.7 L157.72,94.22 C157.44,94.56 157.44,94.58 156.92,95.62 C156.22,97.1 155.06,98.6 153.84,99.64 C153.04,100.34 152.38,100.78 151.44,101.3 C150.84,100.46 150.54,100.16 149.64,99.48 C150.98,98.88 151.74,98.42 152.56,97.64 C153.38,96.88 154,96.06 154.46,95.1 L143.96,95.1 C142.56,95.1 142.06,95.12 141.24,95.22 L141.24,92.72 C142,92.84 142.62,92.88 144,92.88 L154.44,92.88 C155.64,92.88 155.82,92.86 156.38,92.7 Z M146.88,96.74 L149.6,96.74 C149.54,97.12 149.54,97.14 149.52,98.36 C149.44,101.78 148.9,103.7 147.54,105.44 C146.34,106.98 144.88,108 142.38,109.04 C141.86,107.96 141.6,107.6 140.8,106.76 C142.42,106.28 143.32,105.84 144.3,105.06 C146.34,103.44 146.98,101.72 146.98,97.94 C146.98,97.34 146.96,97.16 146.88,96.74 Z M162.311111,97.12 L164.431111,96.5 C165.271111,98.04 165.671111,99 166.391111,101.24 L164.131111,101.96 C163.611111,99.94 163.211111,98.88 162.311111,97.12 Z M166.591111,96.28 L168.691111,95.68 C169.751111,97.66 170.131111,98.54 170.631111,100.28 L168.411111,100.98 C168.031111,99.46 167.431111,97.92 166.591111,96.28 Z M173.471111,96.08 L175.911111,96.64 C175.791111,96.94 175.751111,97.04 175.631111,97.66 C175.051111,100.38 174.151111,102.58 172.871111,104.32 C171.391111,106.34 169.731111,107.64 166.771111,109.14 C166.251111,108.26 166.011111,107.96 165.171111,107.16 C166.571111,106.62 167.391111,106.18 168.571111,105.32 C170.911111,103.62 172.251111,101.58 173.111111,98.38 C173.371111,97.4 173.471111,96.7 173.471111,96.08 Z M183.962222,93.46 L193.142222,93.46 C193.742222,93.46 193.982222,93.44 194.322222,93.42 C194.342222,92.12 195.342222,91.1 196.622222,91.1 C197.902222,91.1 198.942222,92.14 198.942222,93.4 C198.942222,94.68 197.902222,95.72 196.622222,95.72 C196.502222,95.72 196.382222,95.7 196.242222,95.68 C194.622222,102.22 191.082222,106.3 184.762222,108.94 C184.242222,107.9 183.902222,107.44 183.002222,106.56 C188.542222,104.84 192.162222,101.12 193.442222,95.8 L183.922222,95.8 C182.442222,95.8 182.062222,95.82 181.402222,95.92 L181.402222,93.32 C182.122222,93.44 182.602222,93.46 183.962222,93.46 Z M196.622222,92.1 C195.902222,92.1 195.322222,92.68 195.322222,93.4 C195.322222,94.12 195.902222,94.72 196.622222,94.72 C197.362222,94.72 197.942222,94.12 197.942222,93.4 C197.942222,92.68 197.362222,92.1 196.622222,92.1 Z M213.773333,92.58 L213.773333,95.02 C213.153333,94.94 212.873333,94.92 211.233333,94.92 L205.273333,94.92 C203.633333,94.92 203.373333,94.94 202.733333,95.02 L202.733333,92.58 C203.413333,92.7 203.813333,92.72 205.313333,92.72 L211.193333,92.72 C212.713333,92.72 213.113333,92.7 213.773333,92.58 Z M215.033333,99.92 L210.753333,99.92 C210.533333,104.86 208.653333,107.5 204.133333,109.24 C203.653333,108.24 203.313333,107.8 202.493333,107.02 C206.413333,105.78 207.973333,103.8 208.113333,99.92 L203.253333,99.92 C201.693333,99.92 201.393333,99.94 200.713333,100.02 L200.713333,97.64 C201.413333,97.76 201.813333,97.78 203.293333,97.78 L214.993333,97.78 C216.473333,97.78 216.873333,97.76 217.573333,97.64 L217.573333,100.02 C216.893333,99.94 216.593333,99.92 215.033333,99.92 Z M219.273333,93.54 L217.793333,94.12 C217.333333,92.98 216.753333,91.96 216.073333,91.02 L217.513333,90.5 C218.313333,91.56 218.793333,92.36 219.273333,93.54 Z M213.453333,91.8 L214.933333,91.28 C215.693333,92.32 216.153333,93.12 216.713333,94.44 L215.213333,95 C214.653333,93.66 214.193333,92.84 213.453333,91.8 Z M220.864444,101.72 L220.864444,98.94 C221.744444,99.06 222.124444,99.08 224.104444,99.08 L234.764444,99.08 C236.744444,99.08 237.124444,99.06 238.004444,98.94 L238.004444,101.72 C237.204444,101.62 236.984444,101.62 234.744444,101.62 L224.124444,101.62 C221.884444,101.62 221.664444,101.62 220.864444,101.72 Z M247.595556,108.9 L244.855556,108.9 C244.955556,108.26 244.975556,107.72 244.975556,106.66 L244.975556,93.84 C244.975556,92.86 244.935556,92.34 244.855556,91.8 L247.595556,91.8 C247.515556,92.4 247.515556,92.66 247.515556,93.9 L247.515556,97.62 C250.255556,98.58 253.395556,100.04 256.595556,101.84 L255.195556,104.2 C253.535556,103.06 251.455556,101.92 248.115556,100.38 C247.655555,100.16 247.595556,100.14 247.435556,100.04 C247.495556,100.6 247.515556,100.84 247.515556,101.4 L247.515556,106.68 C247.515556,107.72 247.535556,108.24 247.595556,108.9 Z M271.226667,95.18 C270.846667,98.32 270.146667,101.08 269.146667,103.34 C268.006667,105.92 266.726667,107.1 265.086667,107.1 C262.806667,107.1 261.166667,104.78 261.166667,101.56 C261.166667,99.36 261.946667,97.3 263.366667,95.74 C265.046667,93.9 267.406667,92.94 270.246667,92.94 C275.046667,92.94 278.166667,95.86 278.166667,100.36 C278.166667,103.82 276.366667,106.58 273.306667,107.82 C272.346667,108.22 271.566667,108.42 270.166667,108.66 C269.826667,107.6 269.586667,107.16 268.946667,106.32 C270.786667,106.08 271.986667,105.76 272.926667,105.22 C274.666667,104.26 275.706667,102.36 275.706667,100.22 C275.706667,98.3 274.846667,96.74 273.246667,95.78 C272.626667,95.42 272.106667,95.26 271.226667,95.18 Z M268.786667,95.2 C267.746667,95.32 267.026667,95.6 266.206667,96.18 C264.526667,97.38 263.486667,99.44 263.486667,101.58 C263.486667,103.22 264.186667,104.52 265.066667,104.52 C265.726667,104.52 266.406667,103.68 267.126667,101.96 C267.886667,100.16 268.546667,97.46 268.786667,95.2 Z M288.037778,101.88 L288.057778,105.82 C288.057778,106.64 288.017778,107.12 287.897778,107.52 C287.717778,108.22 286.997778,108.68 286.057778,108.68 C284.797778,108.68 283.277778,108.12 282.277778,107.26 C281.557778,106.64 281.177778,105.86 281.177778,105 C281.177778,104.06 281.797778,103 282.897778,102.04 C283.617778,101.42 284.497778,100.9 285.817778,100.34 L285.797778,97.26 C285.637778,97.26 285.637778,97.26 284.977778,97.3 C284.677778,97.32 284.397778,97.32 283.897778,97.32 C283.597778,97.32 283.037778,97.3 282.797778,97.3 C282.537778,97.28 282.357778,97.28 282.297778,97.28 C282.217778,97.28 282.057778,97.28 281.877778,97.3 L281.857778,95.06 C282.417778,95.18 283.217778,95.24 284.277778,95.24 C284.477778,95.24 284.697778,95.24 284.977778,95.22 C285.457778,95.2 285.557778,95.2 285.777778,95.2 L285.777778,93.88 C285.777778,92.74 285.757778,92.22 285.657778,91.58 L288.157778,91.58 C288.057778,92.22 288.037778,92.64 288.037778,93.76 L288.037778,95.04 C289.537778,94.86 290.877778,94.6 291.897778,94.28 L291.977778,96.52 C291.617778,96.58 291.237778,96.64 289.857778,96.88 C289.197778,97 288.797778,97.06 288.037778,97.14 L288.037778,99.74 C289.397778,99.34 290.657778,99.18 292.117778,99.18 C295.457778,99.18 297.837778,101.22 297.837778,104.06 C297.837778,106.66 295.897778,108.62 293.297778,108.62 C291.677778,108.62 290.537778,107.84 290.017778,106.4 C289.757778,105.72 289.677778,105.06 289.677778,103.84 C290.697778,103.56 291.037778,103.42 291.897778,102.96 C291.857778,103.34 291.857778,103.52 291.857778,103.84 C291.857778,104.68 291.937778,105.22 292.137778,105.6 C292.357778,106.02 292.837778,106.28 293.397778,106.28 C294.577778,106.28 295.417778,105.34 295.417778,104.06 C295.417778,102.34 294.017778,101.22 291.877778,101.22 C290.677778,101.22 289.457778,101.44 288.037778,101.88 Z M285.797778,105.52 L285.797778,102.6 C284.297778,103.4 283.417778,104.28 283.417778,105 C283.417778,105.34 283.617778,105.64 284.077778,105.92 C284.477778,106.2 284.977778,106.36 285.357778,106.36 C285.697778,106.36 285.797778,106.18 285.797778,105.52 Z M298.717778,97.08 L296.877778,98.56 C295.877778,96.98 294.417778,95.4 292.877778,94.24 L294.757778,92.98 C296.497778,94.32 297.657778,95.52 298.717778,97.08 Z M304.968889,95.72 L303.988889,95.72 C303.428889,96.86 303.048889,97.46 302.248889,98.44 C301.728889,97.82 301.288889,97.42 300.528889,96.92 C301.808889,95.56 302.528889,94.24 303.088889,92.24 C303.248889,91.72 303.308889,91.38 303.328889,91 L305.588889,91.44 C305.488889,91.7 305.428889,91.88 305.248889,92.48 C305.128889,92.9 305.008889,93.24 304.828889,93.74 L307.848889,93.74 C308.788889,93.74 309.268889,93.72 309.828889,93.64 L309.828889,95.82 C309.248889,95.76 308.608889,95.72 307.848889,95.72 L307.108889,95.72 C307.068889,97.84 307.068889,97.84 306.988889,98.86 L308.188889,98.86 C309.048889,98.86 309.508889,98.84 310.068889,98.76 L310.068889,100.96 C309.528889,100.88 308.988889,100.86 308.128889,100.86 L306.788889,100.86 C306.748889,101.14 306.728889,101.24 306.668889,101.54 C307.128889,102.36 307.288889,102.6 307.708889,103.12 C308.488889,104.12 309.088889,104.7 310.308889,105.64 C309.788889,106.3 309.468889,106.88 309.088889,107.82 C307.648889,106.5 306.648889,105.3 305.988889,104.04 C305.208889,106.08 304.268889,107.32 302.128889,109.1 C301.688889,108.3 301.288889,107.88 300.468889,107.3 C302.048889,106.32 303.088889,105.18 303.828889,103.68 C304.208889,102.86 304.448889,102.02 304.648889,100.86 L303.108889,100.86 C302.048889,100.86 301.508889,100.88 300.928889,100.98 L300.928889,98.74 C301.508889,98.84 302.008889,98.86 303.168889,98.86 L304.868889,98.86 C304.908889,98.24 304.948889,97.18 304.968889,95.72 Z M312.668889,107.64 L312.668889,109 L310.448889,109 C310.508889,108.36 310.568889,107.5 310.568889,106.7 L310.568889,94.92 C310.568889,94.12 310.528889,93.46 310.448889,92.8 C311.028889,92.88 311.428889,92.9 312.288889,92.9 L316.488889,92.9 C317.288889,92.9 317.768889,92.88 318.348889,92.8 C318.268889,93.44 318.248889,94 318.248889,94.92 L318.248889,106.5 C318.248889,107.42 318.288889,108.28 318.368889,109.02 L316.108889,109.02 L316.108889,107.64 L312.668889,107.64 Z M312.708889,94.9 L312.708889,105.64 L316.108889,105.64 L316.108889,94.9 L312.708889,94.9 Z M325.74,93.7 L326.9,91.68 C328.28,92.44 332.1,93.58 334.36,93.9 L333.54,96.2 C330.12,95.42 328.02,94.76 325.74,93.7 Z M324.14,95.46 L326.64,95.6 C326.34,96.7 326,98.56 325.74,100.52 C325.7,100.8 325.7,100.8 325.64,101.1 L325.68,101.14 C326.84,100.02 329.32,99.24 331.74,99.24 C335.14,99.24 337.38,100.92 337.38,103.48 C337.38,104.94 336.6,106.42 335.32,107.34 C334.02,108.28 332.36,108.7 330.04,108.7 C328.32,108.7 327.22,108.56 324.94,108 C324.92,106.76 324.88,106.36 324.64,105.42 C326.6,106.1 328.32,106.42 330.02,106.42 C332.84,106.42 334.8,105.24 334.8,103.54 C334.8,102.2 333.54,101.4 331.42,101.4 C329.64,101.4 327.78,101.94 326.44,102.86 C326.08,103.12 325.96,103.24 325.54,103.72 L323.02,103.64 C323.08,103.28 323.08,103.2 323.18,102.44 C323.34,101.2 323.66,98.98 324.02,96.62 C324.1,96.14 324.12,95.9 324.14,95.46 Z M357.251111,105.38 L357.411111,108.06 C357.191111,108.08 357.191111,108.08 356.511111,108.16 C355.051111,108.32 352.411111,108.46 351.091111,108.46 C347.351111,108.46 345.731111,107.74 345.131111,105.82 C344.851111,104.92 344.771111,103.8 344.771111,100.36 C344.771111,100.06 344.771111,99.98 344.791111,98.42 C341.991111,98.62 341.991111,98.62 341.091111,98.78 L340.931111,96.44 C341.211111,96.46 341.411111,96.46 341.511111,96.46 C341.691111,96.46 342.791111,96.4 344.771111,96.28 C344.791111,95.96 344.791111,95.78 344.791111,95.66 C344.791111,93.54 344.771111,92.98 344.651111,92.26 L347.331111,92.26 C347.211111,93 347.211111,93 347.151111,96.16 C349.951111,96.02 349.951111,96.02 352.931111,95.88 C352.931111,92.7 352.931111,92.7 352.811111,91.92 L355.311111,91.92 C355.231111,92.56 355.211111,92.8 355.211111,93.3 L355.211111,95.8 C358.431111,95.7 358.431111,95.7 359.091111,95.62 L359.131111,98 C358.671111,97.94 358.491111,97.94 357.991111,97.94 C357.291111,97.94 356.151111,97.96 355.211111,97.96 C355.191111,99.98 355.011111,101.48 354.691111,102.2 C354.251111,103.2 353.431111,103.7 352.251111,103.7 C351.311111,103.7 350.431111,103.5 349.391111,103.02 C349.411111,102.62 349.411111,102.5 349.411111,102.22 C349.411111,101.68 349.371111,101.3 349.271111,100.58 C350.351111,101.2 351.291111,101.56 351.891111,101.56 C352.411111,101.56 352.631111,101.3 352.751111,100.52 C352.851111,99.94 352.911111,99.14 352.931111,98.02 C349.891111,98.14 349.891111,98.14 347.111111,98.3 L347.111111,98.84 C347.111111,98.94 347.111111,98.94 347.091111,100 L347.091111,100.42 C347.091111,101.46 347.151111,103.64 347.191111,104.04 C347.351111,105.72 348.211111,106.14 351.471111,106.14 C354.071111,106.14 355.951111,105.9 357.251111,105.38 Z" id="アップデートのお知らせ" fill="#333333"></path>
        <path d="M138,148.608 C138.72,148.608 139.312,149.2 139.312,149.92 C139.312,150.64 138.72,151.232 138,151.232 C137.28,151.232 136.688,150.64 136.688,149.92 C136.688,149.2 137.28,148.608 138,148.608 Z M154.159111,144.768 L148.767111,144.768 C148.159111,144.768 147.535111,144.8 147.023111,144.864 L147.023111,143.696 C147.519111,143.76 148.047111,143.792 148.751111,143.792 L159.391111,143.792 C160.159111,143.792 160.671111,143.76 161.135111,143.696 L161.135111,144.864 C160.639111,144.8 160.063111,144.768 159.407111,144.768 L155.391111,144.768 C154.991111,145.568 154.815111,145.888 154.367111,146.56 L154.367111,155.424 C154.367111,156.08 154.399111,156.608 154.479111,157.152 L153.167111,157.152 C153.231111,156.624 153.279111,156.016 153.279111,155.424 L153.279111,149.712 C153.279111,149.072 153.295111,148.528 153.311111,147.888 C152.719111,148.704 151.887111,149.584 150.863111,150.48 C149.887111,151.36 148.895111,152.08 147.407111,152.992 C147.215111,152.64 147.055111,152.432 146.671111,152.048 C148.735111,150.912 150.159111,149.84 151.615111,148.32 C152.799111,147.104 153.407111,146.24 154.159111,144.768 Z M155.183111,148.064 L155.967111,147.408 C156.831111,148.48 157.471111,149.104 158.431111,149.888 C159.487111,150.72 160.431111,151.312 161.631111,151.872 C161.343111,152.144 161.167111,152.384 160.895111,152.864 C158.511111,151.552 156.703111,150.016 155.183111,148.064 Z M167.118222,143.408 L173.486222,143.408 C174.190222,143.408 174.574222,143.392 175.134222,143.328 C175.070222,143.712 175.054222,144.128 175.054222,144.896 L175.054222,150.192 C175.054222,150.96 175.070222,151.424 175.134222,151.792 C174.590222,151.744 174.046222,151.712 173.438222,151.712 L167.022222,151.712 C166.414222,151.712 165.854222,151.744 165.326222,151.792 C165.390222,151.392 165.406222,150.912 165.406222,150.144 L165.406222,144.832 C165.406222,144.128 165.390222,143.776 165.326222,143.328 C165.838222,143.392 166.366222,143.408 167.118222,143.408 Z M174.062222,144.288 L166.398222,144.288 L166.398222,145.84 L174.062222,145.84 L174.062222,144.288 Z M174.062222,146.704 L166.398222,146.704 L166.398222,148.32 L174.062222,148.32 L174.062222,146.704 Z M174.062222,149.184 L166.398222,149.184 L166.398222,150.848 L174.062222,150.848 L174.062222,149.184 Z M163.166222,153.92 L163.166222,152.784 C163.598222,152.848 164.158222,152.88 164.814222,152.88 L175.726222,152.88 C176.398222,152.88 176.942222,152.848 177.374222,152.784 L177.374222,153.92 C176.926222,153.856 176.350222,153.824 175.742222,153.824 L164.814222,153.824 C164.158222,153.824 163.630222,153.856 163.166222,153.92 Z M167.870222,154.176 L168.766222,154.752 C167.278222,156.016 166.334222,156.512 164.126222,157.168 C163.886222,156.768 163.774222,156.624 163.406222,156.272 C164.798222,155.936 165.422222,155.728 166.206222,155.344 C166.846222,155.008 167.214222,154.752 167.870222,154.176 Z M171.550222,154.736 L172.430222,154.144 C173.822222,155.168 174.798222,155.584 177.102222,156.176 C176.782222,156.528 176.654222,156.704 176.398222,157.104 C174.222222,156.448 173.278222,155.984 171.550222,154.736 Z M185.677333,142.736 L186.877333,142.736 C187.549333,143.824 188.285333,144.624 189.517333,145.632 C190.877333,146.752 192.381333,147.648 193.901333,148.256 C193.613333,148.592 193.453333,148.864 193.261333,149.264 C191.661333,148.48 190.045333,147.424 188.749333,146.32 C187.741333,145.472 187.005333,144.656 186.285333,143.632 C185.213333,145.136 184.333333,146.048 182.925333,147.136 C181.837333,147.968 180.829333,148.592 179.533333,149.216 C179.357333,148.848 179.229333,148.672 178.861333,148.304 C180.509333,147.568 181.885333,146.688 183.213333,145.52 C184.349333,144.544 184.973333,143.824 185.677333,142.736 Z M182.557333,148.688 L182.557333,147.6 C182.845333,147.648 183.229333,147.664 183.821333,147.664 L188.781333,147.664 C189.405333,147.664 189.789333,147.648 190.125333,147.6 L190.125333,148.688 C189.773333,148.64 189.389333,148.624 188.781333,148.624 L183.805333,148.624 C183.309333,148.624 182.893333,148.64 182.557333,148.688 Z M182.445333,157.04 L181.293333,157.04 C181.357333,156.544 181.389333,156.08 181.389333,155.472 L181.389333,151.936 C181.389333,151.344 181.373333,150.912 181.309333,150.464 C181.645333,150.512 181.981333,150.528 182.557333,150.528 L190.061333,150.528 C190.637333,150.528 190.973333,150.512 191.309333,150.464 C191.245333,150.896 191.229333,151.312 191.229333,151.936 L191.229333,155.472 C191.229333,156.096 191.261333,156.576 191.325333,157.04 L190.173333,157.04 L190.173333,156.112 L182.445333,156.112 L182.445333,157.04 Z M182.445333,151.504 L182.445333,155.168 L190.173333,155.168 L190.173333,151.504 L182.445333,151.504 Z M199.996444,145.232 L200.252444,145.232 C200.780444,144.112 200.972444,143.552 201.020444,143.04 L202.300444,143.264 C202.156444,143.472 202.156444,143.472 201.884444,144.128 C201.676444,144.64 201.468444,145.072 201.388444,145.216 C201.580444,145.2 201.580444,145.2 201.724444,145.2 C204.284444,145.072 205.884444,144.88 206.764444,144.592 L206.860444,145.68 C206.604444,145.696 206.508444,145.712 206.220444,145.76 C204.556444,145.984 202.876444,146.112 200.940444,146.176 C200.460444,147.12 200.060444,147.76 199.500444,148.448 C199.340444,148.64 199.020444,149.008 198.956444,149.056 C198.844444,149.136 198.764444,149.2 198.748444,149.216 C198.748444,149.232 198.732444,149.232 198.732444,149.232 L198.732444,149.248 C198.748444,149.28 198.748444,149.28 198.764444,149.296 C199.340444,148.848 199.340444,148.848 199.500444,148.736 C200.236444,148.224 201.084444,147.952 201.916444,147.952 C203.100444,147.952 203.820444,148.544 204.028444,149.728 C205.196444,149.264 206.108444,148.928 206.812444,148.672 C207.596444,148.4 207.644444,148.384 207.900444,148.208 L208.412444,149.328 C207.580444,149.472 206.140444,149.952 204.140444,150.736 C204.172444,151.152 204.172444,151.312 204.172444,151.712 C204.172444,151.92 204.172444,152.272 204.156444,152.592 C204.140444,152.944 204.140444,153.168 204.140444,153.312 C204.140444,153.536 204.140444,153.664 204.172444,153.888 L203.084444,153.904 C203.132444,153.552 203.180444,152.576 203.180444,151.6 C203.180444,151.344 203.180444,151.312 203.164444,151.12 C200.988444,152.144 200.156444,152.896 200.156444,153.856 C200.156444,154.912 201.148444,155.376 203.404444,155.376 C204.988444,155.376 206.764444,155.12 207.676444,154.752 L207.820444,155.984 C207.580444,156 207.500444,156.016 207.180444,156.064 C205.916444,156.272 204.524444,156.384 203.292444,156.384 C200.428444,156.384 199.036444,155.568 199.036444,153.92 C199.036444,153.04 199.580444,152.208 200.668444,151.392 C201.212444,150.992 201.980444,150.576 203.052444,150.112 C202.924444,149.232 202.540444,148.848 201.788444,148.848 C200.780444,148.848 199.516444,149.44 198.220444,150.544 C197.596444,151.072 197.244444,151.44 196.988444,151.872 L196.092444,150.976 C197.196444,150.128 198.524444,148.448 199.676444,146.4 L199.820444,146.16 C199.756444,146.176 199.596444,146.192 199.516444,146.192 C199.260444,146.192 197.756444,146.16 197.164444,146.144 L196.908444,146.144 C196.764444,146.144 196.732444,146.144 196.556444,146.16 L196.572444,145.056 C197.148444,145.168 198.364444,145.232 199.996444,145.232 Z M225.675556,144.08 L225.675556,145.136 C225.179555,145.072 224.779556,145.056 224.123556,145.056 C223.499555,146.224 222.939555,146.928 221.947555,147.744 C223.211556,148.496 224.411555,148.928 226.219556,149.264 C226.011555,149.568 225.867555,149.84 225.755556,150.224 C223.643555,149.664 222.507555,149.184 221.211556,148.288 C219.931556,149.152 218.859555,149.632 217.083555,150.144 C216.923555,149.776 216.795555,149.568 216.571555,149.312 C218.267556,148.912 219.275555,148.512 220.491556,147.744 C219.707556,147.056 219.291556,146.544 218.795555,145.648 C218.219556,146.448 217.883555,146.848 217.179555,147.504 C217.067555,147.312 216.811555,147.104 216.443556,146.912 C217.323555,146.16 217.819555,145.6 218.363555,144.752 C218.843555,144 219.115555,143.392 219.355555,142.576 L220.379555,142.832 C220.043555,143.488 220.011555,143.584 219.691555,144.176 L224.043555,144.176 C224.859555,144.176 225.291556,144.144 225.675556,144.08 Z M223.051556,145.056 L219.371555,145.056 C219.867555,145.984 220.331555,146.544 221.227555,147.232 C222.139555,146.528 222.587556,145.984 223.051556,145.056 Z M212.955556,155.232 L212.955556,150.256 C212.955556,149.424 212.971555,148.656 213.003556,147.904 C212.603555,148.816 212.251555,149.392 211.547555,150.272 C211.307555,149.872 211.131555,149.632 210.891555,149.392 C212.507555,147.584 213.915555,144.768 214.267556,142.64 L215.355555,142.928 C215.259555,143.136 215.243556,143.216 215.115555,143.6 C214.811555,144.576 214.491556,145.36 213.931556,146.496 L213.931556,155.216 C213.931556,156.176 213.947555,156.64 213.995555,157.2 L212.859555,157.2 C212.923555,156.624 212.955556,156.128 212.955556,155.232 Z M221.403555,149.408 L222.219556,150.064 C222.059555,150.176 222.059555,150.176 221.707556,150.432 C221.275555,150.752 220.299555,151.248 219.499555,151.568 C218.795555,151.856 218.267556,152.016 217.355555,152.256 C217.195556,151.92 217.083555,151.728 216.795555,151.408 C218.875555,151.024 220.603555,150.272 221.403555,149.408 Z M224.747556,152.288 L225.643555,152.928 C225.435555,153.088 225.323555,153.168 225.003556,153.456 C224.027556,154.288 222.747556,155.088 221.451555,155.68 C220.235556,156.24 218.955556,156.656 217.035555,157.088 C216.859555,156.688 216.715555,156.432 216.491556,156.176 C218.987555,155.728 220.939555,155.04 222.619555,154.016 C223.707556,153.36 224.331555,152.848 224.747556,152.288 Z M215.179555,145.456 L216.251555,145.456 C216.203555,145.872 216.187556,146.176 216.187556,146.816 L216.187556,153.12 C216.187556,153.952 216.203555,154.288 216.267556,154.752 L215.163556,154.752 C215.227555,154.256 215.259555,153.888 215.259555,153.12 L215.259555,146.832 C215.259555,146.192 215.243556,145.888 215.179555,145.456 Z M222.907556,150.8 L223.803556,151.424 C222.747556,152.256 222.347555,152.544 221.579555,152.96 C220.411555,153.616 219.259556,154.048 217.483555,154.496 C217.323555,154.08 217.179555,153.856 216.939555,153.616 C218.555555,153.312 219.851555,152.864 221.067555,152.208 C221.915555,151.744 222.571555,151.232 222.907556,150.8 Z M234.554667,155.36 L234.554667,144.56 L230.026667,144.56 C229.290667,144.56 228.746667,144.592 228.218667,144.656 L228.218667,143.488 C228.714667,143.552 229.242667,143.584 229.994667,143.584 L239.370667,143.584 C240.106667,143.584 240.618667,143.552 241.146667,143.488 L241.146667,144.656 C240.618667,144.592 240.058667,144.56 239.370667,144.56 L235.658667,144.56 L235.658667,149.12 L238.842667,149.12 C239.610667,149.12 240.090667,149.088 240.490667,149.024 L240.490667,150.176 C240.090667,150.112 239.578667,150.08 238.842667,150.08 L235.658667,150.08 L235.658667,155.36 L239.850667,155.36 C240.650667,155.36 241.146667,155.328 241.706667,155.248 L241.706667,156.448 C241.178667,156.368 240.618667,156.336 239.866667,156.336 L229.450667,156.336 C228.698667,156.336 228.154667,156.368 227.594667,156.448 L227.594667,155.248 C228.090667,155.328 228.570667,155.36 229.434667,155.36 L230.234667,155.36 L230.234667,149.792 C230.234667,149.008 230.202667,148.496 230.122667,147.952 L231.434667,147.952 C231.354667,148.464 231.322667,149.008 231.322667,149.792 L231.322667,155.36 L234.554667,155.36 Z M246.489778,143.52 L247.881778,143.52 C247.785778,144.064 247.721778,144.88 247.673778,146.896 C247.609778,148.816 247.561778,150.992 247.561778,151.712 C247.561778,151.904 247.577778,152.304 247.593778,152.672 C247.657778,153.632 247.865778,154.16 248.345778,154.592 C248.793778,154.992 249.513778,155.216 250.345778,155.216 C252.249778,155.216 253.721778,154.256 254.633778,152.432 C255.001778,151.664 255.193778,151.04 255.417778,149.92 C255.865778,150.304 256.057778,150.432 256.569778,150.688 C255.961778,152.56 255.497778,153.504 254.793778,154.32 C253.657778,155.664 252.153778,156.32 250.281778,156.32 C248.921778,156.32 247.913778,155.936 247.273778,155.2 C246.617778,154.448 246.393778,153.6 246.393778,151.92 C246.393778,150.848 246.409778,150.448 246.537778,145.408 C246.553778,144.928 246.553778,144.624 246.553778,144.368 C246.553778,144.032 246.537778,143.84 246.489778,143.52 Z M272.888889,154.72 L272.248889,155.84 C271.512889,155.072 270.344889,154.256 268.984889,153.552 C268.712889,153.408 268.344889,153.248 267.912889,153.072 C267.944889,153.44 267.944889,153.44 267.944889,153.648 C267.944889,154.496 267.832889,155.008 267.544889,155.392 C267.080889,156.048 266.104889,156.4 264.840889,156.4 C263.784889,156.4 262.904889,156.176 262.360889,155.76 C261.816889,155.36 261.496889,154.736 261.496889,154.08 C261.496889,153.024 262.328889,152.192 263.736889,151.872 C264.216889,151.76 264.696889,151.712 265.400889,151.712 C265.928889,151.712 266.152889,151.728 266.840889,151.84 C266.824889,151.792 266.824889,151.792 266.824889,151.648 C266.824889,151.632 266.808889,151.568 266.808889,151.472 C266.792889,151.328 266.792889,150.992 266.776889,150.528 C266.760889,150.32 266.760889,150.016 266.744889,149.6 C266.168889,149.616 265.368889,149.632 264.856889,149.632 C263.896889,149.632 263.144889,149.6 262.152889,149.52 C261.976889,149.504 261.848889,149.504 261.752889,149.504 L261.624889,149.504 L261.640889,148.448 C262.360889,148.608 263.688889,148.704 265.304889,148.704 C265.720889,148.704 266.280889,148.704 266.728889,148.688 L266.696889,146.496 C266.232889,146.512 265.976889,146.512 265.608889,146.512 C264.440889,146.512 263.144889,146.464 261.704889,146.352 C261.592889,146.336 261.496889,146.336 261.416889,146.336 C261.368889,146.336 261.288889,146.336 261.192889,146.352 L261.208889,145.264 C261.896889,145.456 263.560889,145.584 265.304889,145.584 C265.624889,145.584 266.168889,145.568 266.696889,145.568 C266.680889,143.616 266.680889,143.616 266.616889,143.264 L267.848889,143.264 C267.784889,143.6 267.752889,144.368 267.736889,145.52 C269.944889,145.376 271.592889,145.152 272.472889,144.864 L272.552889,145.952 C272.280889,145.968 272.280889,145.968 271.448889,146.08 C269.944889,146.304 269.512889,146.352 267.736889,146.464 C267.752889,147.776 267.752889,147.776 267.768889,148.624 C269.944889,148.464 271.320889,148.272 272.200889,147.968 L272.264889,149.072 C272.056889,149.088 271.896889,149.104 271.336889,149.184 C270.232889,149.36 268.968889,149.488 267.784889,149.568 C267.816889,150.464 267.816889,150.464 267.880889,152.016 C269.272889,152.4 270.664889,153.136 272.344889,154.352 C272.600889,154.544 272.680889,154.592 272.888889,154.72 Z M266.856889,153.424 L266.840889,152.816 C266.232889,152.672 265.912889,152.64 265.208889,152.64 C263.624889,152.64 262.584889,153.216 262.584889,154.064 C262.584889,154.912 263.384889,155.392 264.776889,155.392 C265.624889,155.392 266.232889,155.216 266.536889,154.864 C266.760889,154.64 266.856889,154.192 266.856889,153.424 Z M278.712,143.52 L280.104,143.52 C280.008,144.064 279.944,144.88 279.896,146.896 C279.832,148.816 279.784,150.992 279.784,151.712 C279.784,151.904 279.8,152.304 279.816,152.672 C279.88,153.632 280.088,154.16 280.568,154.592 C281.016,154.992 281.736,155.216 282.568,155.216 C284.472,155.216 285.944,154.256 286.856,152.432 C287.224,151.664 287.416,151.04 287.64,149.92 C288.088,150.304 288.28,150.432 288.792,150.688 C288.184,152.56 287.72,153.504 287.016,154.32 C285.88,155.664 284.376,156.32 282.504,156.32 C281.144,156.32 280.136,155.936 279.496,155.2 C278.84,154.448 278.616,153.6 278.616,151.92 C278.616,150.848 278.632,150.448 278.76,145.408 C278.776,144.928 278.776,144.624 278.776,144.368 C278.776,144.032 278.76,143.84 278.712,143.52 Z M292.887111,147.072 L292.887111,145.952 C293.399111,146.048 294.039111,146.096 294.887111,146.096 C295.207111,146.096 295.383111,146.096 295.847111,146.064 C296.167111,144.096 296.199111,143.824 296.199111,143.12 L297.463111,143.248 C297.367111,143.632 297.367111,143.632 297.175111,144.768 C297.095111,145.28 297.047111,145.504 296.967111,145.984 C298.215111,145.856 299.079111,145.696 299.847111,145.44 L299.927111,146.544 C299.799111,146.56 299.799111,146.56 299.479111,146.624 C298.663111,146.8 297.559111,146.944 296.775111,147.008 C296.535111,148.272 296.087111,150.08 295.655111,151.536 C295.127111,153.248 294.663111,154.464 293.815111,156.416 L292.647111,155.92 C293.831111,153.856 295.063111,150.208 295.655111,147.072 C295.335111,147.088 295.143111,147.088 294.551111,147.088 C293.991111,147.088 293.847111,147.088 293.223111,147.056 L293.159111,147.056 C293.127111,147.056 293.031111,147.056 292.887111,147.072 Z M304.967111,147.856 L304.983111,148.992 C304.215111,148.912 303.767111,148.88 303.095111,148.88 C301.671111,148.88 300.551111,149.024 299.095111,149.424 L298.983111,148.336 C300.839111,147.936 301.879111,147.808 303.223111,147.808 C303.527111,147.808 303.767111,147.808 304.967111,147.856 Z M299.143111,151.312 L300.039111,151.76 C299.719111,152.144 299.671111,152.192 299.559111,152.368 C299.303111,152.704 299.159111,153.12 299.159111,153.504 C299.159111,154.464 300.135111,154.976 301.959111,154.976 C303.159111,154.976 304.583111,154.752 305.495111,154.432 L305.607111,155.632 C305.431111,155.664 305.431111,155.664 304.903111,155.744 C303.831111,155.936 302.903111,156.016 302.055111,156.016 C299.431111,156.016 298.071111,155.2 298.071111,153.616 C298.071111,152.896 298.295111,152.4 299.143111,151.312 Z M310.502222,152.24 C311.830222,152.24 312.902222,153.312 312.902222,154.64 C312.902222,155.968 311.830222,157.04 310.502222,157.04 C309.174222,157.04 308.102222,155.968 308.102222,154.64 C308.102222,153.312 309.174222,152.24 310.502222,152.24 Z M310.502222,153.152 C309.686222,153.152 309.014222,153.824 309.014222,154.64 C309.014222,155.456 309.686222,156.128 310.502222,156.128 C311.318222,156.128 311.990222,155.456 311.990222,154.64 C311.990222,153.824 311.318222,153.152 310.502222,153.152 Z" id="・不具合を修正しました。" fill="#333333"></path>
        <path d="M138,180.608 C138.72,180.608 139.312,181.2 139.312,181.92 C139.312,182.64 138.72,183.232 138,183.232 C137.28,183.232 136.688,182.64 136.688,181.92 C136.688,181.2 137.28,180.608 138,180.608 Z M161.151111,181.072 L161.151111,182.4 C160.575111,182.32 160.031111,182.288 159.039111,182.288 L149.183111,182.288 C148.303111,182.288 147.567111,182.32 147.055111,182.4 L147.055111,181.072 C147.567111,181.152 148.255111,181.184 149.183111,181.184 L159.039111,181.184 C159.983111,181.184 160.671111,181.152 161.151111,181.072 Z M167.918222,176.48 L169.694222,176.48 C170.414222,176.48 170.814222,176.464 171.182222,176.4 L171.182222,177.456 C170.862222,177.392 170.414222,177.376 169.710222,177.376 L164.926222,177.376 C164.270222,177.376 163.854222,177.392 163.486222,177.456 L163.486222,176.4 C163.870222,176.464 164.238222,176.48 164.974222,176.48 L166.910222,176.48 L166.910222,175.888 C166.910222,175.376 166.878222,174.976 166.814222,174.672 L168.014222,174.672 C167.950222,175.04 167.918222,175.392 167.918222,175.904 L167.918222,176.48 Z M168.990222,180.832 L169.902222,180.832 C170.638222,180.832 171.070222,180.816 171.390222,180.752 L171.390222,181.824 C171.070222,181.776 170.606222,181.744 169.934222,181.744 L164.574222,181.744 C163.838222,181.744 163.438222,181.76 163.054222,181.824 L163.054222,180.752 C163.422222,180.816 163.854222,180.832 164.590222,180.832 L168.046222,180.832 C168.622222,179.664 168.894222,178.912 169.198222,177.648 L170.174222,177.984 C169.774222,179.184 169.518222,179.824 168.990222,180.832 Z M164.526222,178 L165.422222,177.68 C165.934222,178.64 166.158222,179.216 166.494222,180.336 L165.566222,180.656 C165.310222,179.664 165.054222,179.024 164.526222,178 Z M165.150222,188.112 L165.150222,189.104 L164.078222,189.104 C164.126222,188.736 164.142222,188.384 164.142222,187.664 L164.142222,184.416 C164.142222,183.68 164.126222,183.408 164.094222,183.072 C164.430222,183.104 164.798222,183.12 165.358222,183.12 L169.150222,183.12 C169.742222,183.12 170.046222,183.104 170.318222,183.072 C170.270222,183.392 170.270222,183.584 170.270222,184.4 L170.270222,187.84 C170.270222,188.432 170.286222,188.72 170.334222,189.104 L169.262222,189.104 L169.262222,188.112 L165.150222,188.112 Z M165.150222,184.016 L165.150222,187.216 L169.278222,187.216 L169.278222,184.016 L165.150222,184.016 Z M177.022222,175.136 L177.502222,175.808 C177.390222,176 177.390222,176 176.846222,177.232 C176.430222,178.176 175.822222,179.344 175.198222,180.4 C176.222222,181.456 176.622222,182.016 177.006222,182.912 C177.326222,183.632 177.486222,184.4 177.486222,185.152 C177.486222,186.016 177.198222,186.64 176.670222,186.944 C176.382222,187.104 175.886222,187.184 175.230222,187.184 C174.798222,187.184 174.382222,187.168 173.902222,187.12 C173.886222,186.672 173.822222,186.4 173.694222,186.048 C174.334222,186.16 174.734222,186.208 175.246222,186.208 C176.158222,186.208 176.462222,185.92 176.462222,185.072 C176.462222,184.336 176.286222,183.632 175.934222,182.896 C175.518222,182.032 175.102222,181.52 174.030222,180.576 C174.958222,179.072 175.598222,177.728 176.190222,176.112 L173.006222,176.112 L173.006222,187.488 C173.006222,188.304 173.038222,188.8 173.118222,189.264 L171.902222,189.264 C171.966222,188.8 171.998222,188.272 171.998222,187.504 L171.998222,176.624 C171.998222,176.144 171.982222,175.696 171.934222,175.152 C172.350222,175.184 172.654222,175.2 173.214222,175.2 L175.790222,175.2 C176.398222,175.2 176.734222,175.184 177.022222,175.136 Z M190.973333,181.024 L187.133333,181.024 C186.941333,185.168 185.597333,187.12 181.981333,188.528 C181.773333,188.064 181.613333,187.856 181.229333,187.488 C184.541333,186.384 185.789333,184.672 185.917333,181.024 L181.581333,181.024 C180.573333,181.024 180.237333,181.04 179.741333,181.104 L179.741333,179.92 C180.269333,180 180.589333,180.016 181.597333,180.016 L190.957333,180.016 C191.981333,180.016 192.285333,180 192.813333,179.92 L192.813333,181.104 C192.317333,181.04 191.981333,181.024 190.973333,181.024 Z M181.357333,177.168 L181.357333,175.952 C181.837333,176.048 182.157333,176.064 183.197333,176.064 L188.029333,176.064 C188.893333,176.064 189.309333,176.048 189.869333,175.984 L189.869333,177.136 C189.661333,177.12 189.053333,177.104 188.045333,177.088 L183.181333,177.088 C182.077333,177.088 181.805333,177.104 181.357333,177.168 Z M189.933333,174.992 L190.733333,174.608 C191.421333,175.488 191.853333,176.192 192.301333,177.136 L191.485333,177.584 C191.117333,176.72 190.381333,175.504 189.933333,174.992 Z M191.901333,174.4 L192.701333,174 C193.389333,174.896 193.773333,175.52 194.269333,176.528 L193.453333,176.976 C193.133333,176.208 192.493333,175.152 191.901333,174.4 Z M199.852444,178.72 L204.732444,178.72 L204.732444,177.152 C204.732444,176.032 204.732444,175.888 204.684444,175.52 L205.932444,175.52 C205.884444,175.968 205.884444,175.984 205.868444,177.04 L205.868444,178.72 L207.244444,178.72 C208.252444,178.72 208.572444,178.704 209.116444,178.624 L209.116444,179.84 C208.604444,179.776 208.284444,179.76 207.260444,179.76 L205.852444,179.76 C205.836444,182.848 205.660444,184.032 205.068444,185.184 C204.204444,186.784 202.764444,187.904 200.604444,188.64 C200.412444,188.224 200.252444,187.984 199.884444,187.632 C201.980444,187.104 203.596444,185.856 204.236444,184.24 C204.588444,183.28 204.684444,182.32 204.716444,179.76 L199.852444,179.76 L199.852444,182.432 C199.852444,183.136 199.868444,183.36 199.916444,183.728 L198.620444,183.728 C198.668444,183.392 198.684444,183.232 198.684444,182.384 L198.684444,179.76 L197.340444,179.76 C196.316444,179.76 195.996444,179.776 195.484444,179.84 L195.484444,178.624 C196.028444,178.704 196.348444,178.72 197.356444,178.72 L198.684444,178.72 L198.684444,176.864 C198.684444,176.016 198.668444,175.872 198.620444,175.52 L199.916444,175.52 C199.868444,175.904 199.852444,176.112 199.852444,176.816 L199.852444,178.72 Z M206.540444,174.752 L207.388444,174.512 C207.900444,175.44 208.156444,176 208.524444,177.136 L207.676444,177.424 C207.292444,176.24 206.972444,175.472 206.540444,174.752 Z M208.412444,174.256 L209.228444,173.984 C209.708444,174.816 210.108444,175.728 210.364444,176.592 L209.532444,176.88 C209.228444,175.904 208.796444,174.88 208.412444,174.256 Z M222.123556,175.296 L223.227555,176.08 C222.939555,176.288 222.923555,176.32 222.523555,176.752 C221.515556,177.808 220.155555,178.976 218.779555,179.968 L218.779555,186.784 C218.779555,187.696 218.795555,188.048 218.859555,188.48 L217.467556,188.48 C217.547555,188.064 217.563556,187.696 217.563556,186.816 L217.563556,180.736 C215.483555,182.016 214.315555,182.544 211.387555,183.536 C211.163555,183.024 211.083555,182.864 210.763555,182.464 C213.771555,181.68 216.539556,180.304 219.067555,178.32 C220.555555,177.168 221.675555,176.048 222.123556,175.296 Z M228.202667,177.552 L228.986667,176.688 C230.698667,177.776 231.690667,178.56 232.842667,179.696 L232.010667,180.688 C230.858667,179.44 229.594667,178.4 228.202667,177.552 Z M228.314667,187.952 L227.962667,186.608 C229.210667,186.56 231.130667,186.064 232.618667,185.376 C235.706667,184 237.850667,181.648 239.146667,178.256 C239.514667,178.752 239.674667,178.896 240.122667,179.2 C238.842667,181.984 237.354667,183.856 235.242667,185.312 C233.594667,186.432 231.946667,187.088 229.274667,187.696 C228.842667,187.792 228.714667,187.824 228.314667,187.952 Z M247.369778,177.232 L247.625778,177.232 C248.153778,176.112 248.345778,175.552 248.393778,175.04 L249.673778,175.264 C249.529778,175.472 249.529778,175.472 249.257778,176.128 C249.049778,176.64 248.841778,177.072 248.761778,177.216 C248.953778,177.2 248.953778,177.2 249.097778,177.2 C251.657778,177.072 253.257778,176.88 254.137778,176.592 L254.233778,177.68 C253.977778,177.696 253.881778,177.712 253.593778,177.76 C251.929778,177.984 250.249778,178.112 248.313778,178.176 C247.833778,179.12 247.433778,179.76 246.873778,180.448 C246.713778,180.64 246.393778,181.008 246.329778,181.056 C246.217778,181.136 246.137778,181.2 246.121778,181.216 C246.121778,181.232 246.105778,181.232 246.105778,181.232 L246.105778,181.248 C246.121778,181.28 246.121778,181.28 246.137778,181.296 C246.713778,180.848 246.713778,180.848 246.873778,180.736 C247.609778,180.224 248.457778,179.952 249.289778,179.952 C250.473778,179.952 251.193778,180.544 251.401778,181.728 C252.569778,181.264 253.481778,180.928 254.185778,180.672 C254.969778,180.4 255.017778,180.384 255.273778,180.208 L255.785778,181.328 C254.953778,181.472 253.513778,181.952 251.513778,182.736 C251.545778,183.152 251.545778,183.312 251.545778,183.712 C251.545778,183.92 251.545778,184.272 251.529778,184.592 C251.513778,184.944 251.513778,185.168 251.513778,185.312 C251.513778,185.536 251.513778,185.664 251.545778,185.888 L250.457778,185.904 C250.505778,185.552 250.553778,184.576 250.553778,183.6 C250.553778,183.344 250.553778,183.312 250.537778,183.12 C248.361778,184.144 247.529778,184.896 247.529778,185.856 C247.529778,186.912 248.521778,187.376 250.777778,187.376 C252.361778,187.376 254.137778,187.12 255.049778,186.752 L255.193778,187.984 C254.953778,188 254.873778,188.016 254.553778,188.064 C253.289778,188.272 251.897778,188.384 250.665778,188.384 C247.801778,188.384 246.409778,187.568 246.409778,185.92 C246.409778,185.04 246.953778,184.208 248.041778,183.392 C248.585778,182.992 249.353778,182.576 250.425778,182.112 C250.297778,181.232 249.913778,180.848 249.161778,180.848 C248.153778,180.848 246.889778,181.44 245.593778,182.544 C244.969778,183.072 244.617778,183.44 244.361778,183.872 L243.465778,182.976 C244.569778,182.128 245.897778,180.448 247.049778,178.4 L247.193778,178.16 C247.129778,178.176 246.969778,178.192 246.889778,178.192 C246.633778,178.192 245.129778,178.16 244.537778,178.144 L244.281778,178.144 C244.137778,178.144 244.105778,178.144 243.929778,178.16 L243.945778,177.056 C244.521778,177.168 245.737778,177.232 247.369778,177.232 Z M264.280889,177.216 L260.776889,177.216 C259.960889,177.216 259.512889,177.232 259.064889,177.296 L259.064889,176.224 C259.480889,176.288 259.976889,176.32 260.824889,176.32 L265.368889,176.32 L265.368889,175.856 C265.368889,175.392 265.336889,175.056 265.272889,174.736 L266.520889,174.736 C266.456889,175.072 266.424889,175.392 266.424889,175.856 L266.424889,176.32 L271.000889,176.32 C271.848889,176.32 272.344889,176.288 272.792889,176.224 L272.792889,177.296 C272.280889,177.248 271.704889,177.216 271.016889,177.216 L268.200889,177.216 L268.200889,180.864 C268.200889,181.648 267.928889,181.888 267.064889,181.888 C266.680889,181.888 266.152889,181.872 265.720889,181.84 C265.688889,181.488 265.608889,181.232 265.432889,180.896 C265.960889,180.976 266.376889,181.008 266.792889,181.008 C267.144889,181.008 267.224889,180.944 267.224889,180.64 L267.224889,177.216 L265.256889,177.216 C265.176889,179.968 264.520889,181.168 262.392889,182.432 C262.152889,182.144 261.944889,181.968 261.560889,181.728 C262.776889,181.152 263.400889,180.608 263.800889,179.776 C264.136889,179.072 264.248889,178.448 264.280889,177.216 Z M269.448889,183.232 L270.104889,183.888 C269.976889,184.016 269.976889,184.016 269.608889,184.4 C268.728889,185.328 267.976889,185.952 266.968889,186.608 C268.776889,187.472 270.568889,187.904 273.272889,188.128 C273.000889,188.496 272.840889,188.8 272.696889,189.184 C269.832889,188.752 267.848889,188.144 266.056889,187.152 C265.064889,187.68 263.880889,188.128 262.536889,188.48 C261.544889,188.736 261.192889,188.8 259.144889,189.104 C259.016889,188.688 258.872889,188.464 258.600889,188.112 C261.320889,187.936 263.160889,187.504 265.112889,186.576 C264.168889,185.936 263.576889,185.424 262.824889,184.608 C261.896889,185.312 261.256889,185.696 260.072889,186.256 C259.832889,185.904 259.720889,185.76 259.464889,185.488 C260.904889,184.928 262.040889,184.224 263.096889,183.248 C263.752889,182.64 264.104889,182.208 264.408889,181.664 L265.352889,182.08 C265.240889,182.192 265.224889,182.224 265.112889,182.352 C264.840889,182.672 264.536889,183.024 264.264889,183.312 L267.960889,183.312 C268.648889,183.312 269.128889,183.28 269.448889,183.232 Z M268.504889,184.144 L263.576889,184.144 C264.264889,184.88 265.016889,185.488 266.024889,186.112 C267.032889,185.52 267.640889,185.04 268.504889,184.144 Z M261.864889,177.808 L262.776889,178.224 C262.296889,179.168 261.992889,179.648 261.400889,180.336 C260.920889,180.896 260.584889,181.216 259.832889,181.808 C259.496889,181.456 259.416889,181.408 259.000889,181.12 C259.768889,180.608 260.136889,180.304 260.584889,179.808 C261.160889,179.184 261.464889,178.704 261.864889,177.808 Z M268.952889,178.512 L269.688889,177.952 C270.952889,179.136 271.608889,179.824 272.680889,181.168 L271.784889,181.856 C270.808889,180.4 270.152889,179.632 268.952889,178.512 Z M281.64,176.272 L276.664,176.272 C276.008,176.272 275.544,176.304 274.984,176.368 L274.984,175.264 C275.448,175.328 275.976,175.36 276.664,175.36 L287.464,175.36 C288.152,175.36 288.632,175.328 289.144,175.264 L289.144,176.368 C288.648,176.304 288.088,176.272 287.464,176.272 L282.648,176.272 L282.648,177.84 L285.864,177.84 C286.872,177.84 287.288,177.824 287.752,177.76 C287.704,178.304 287.688,178.736 287.688,179.52 L287.688,182.256 C287.688,183.008 287.704,183.424 287.752,183.952 C287.256,183.888 286.776,183.872 285.912,183.872 L282.28,183.872 C282.024,184.912 281.72,185.632 281.192,186.304 C283.08,187.44 285.496,188 288.44,188 C288.616,188 288.92,188 289.384,187.984 C289.192,188.304 289.096,188.592 288.952,189.12 C285.336,189.072 282.76,188.432 280.552,187.024 C279.24,188.256 277.688,188.96 275.384,189.424 C275.24,188.992 275.192,188.88 274.904,188.448 C276.072,188.272 276.696,188.112 277.528,187.776 C278.456,187.408 279.128,187.024 279.768,186.464 C279.192,186 278.952,185.776 278.36,185.152 L278.008,184.8 L278.936,184.256 C279.224,184.72 279.768,185.28 280.408,185.776 C280.824,185.216 281.048,184.72 281.256,183.872 L278.328,183.872 C277.464,183.872 276.968,183.888 276.488,183.952 C276.52,183.392 276.552,182.912 276.552,182.24 L276.552,179.52 C276.552,178.752 276.536,178.272 276.488,177.76 C276.984,177.824 277.352,177.84 278.344,177.84 L281.64,177.84 L281.64,176.272 Z M281.624,178.688 L277.528,178.688 L277.528,180.368 L281.592,180.368 C281.608,179.632 281.624,179.344 281.624,178.688 Z M282.632,178.688 L282.6,180.368 L286.696,180.368 L286.696,178.688 L282.632,178.688 Z M281.56,181.2 L277.528,181.2 L277.528,183.024 L281.416,183.024 C281.48,182.416 281.512,182.032 281.56,181.2 Z M286.696,181.2 L282.568,181.2 C282.536,181.968 282.504,182.32 282.424,183.024 L286.696,183.024 L286.696,181.2 Z M293.863111,175.52 L295.255111,175.52 C295.159111,176.064 295.095111,176.88 295.047111,178.896 C294.983111,180.816 294.935111,182.992 294.935111,183.712 C294.935111,183.904 294.951111,184.304 294.967111,184.672 C295.031111,185.632 295.239111,186.16 295.719111,186.592 C296.167111,186.992 296.887111,187.216 297.719111,187.216 C299.623111,187.216 301.095111,186.256 302.007111,184.432 C302.375111,183.664 302.567111,183.04 302.791111,181.92 C303.239111,182.304 303.431111,182.432 303.943111,182.688 C303.335111,184.56 302.871111,185.504 302.167111,186.32 C301.031111,187.664 299.527111,188.32 297.655111,188.32 C296.295111,188.32 295.287111,187.936 294.647111,187.2 C293.991111,186.448 293.767111,185.6 293.767111,183.92 C293.767111,182.848 293.783111,182.448 293.911111,177.408 C293.927111,176.928 293.927111,176.624 293.927111,176.368 C293.927111,176.032 293.911111,175.84 293.863111,175.52 Z M320.262222,186.72 L319.622222,187.84 C318.886222,187.072 317.718222,186.256 316.358222,185.552 C316.086222,185.408 315.718222,185.248 315.286222,185.072 C315.318222,185.44 315.318222,185.44 315.318222,185.648 C315.318222,186.496 315.206222,187.008 314.918222,187.392 C314.454222,188.048 313.478222,188.4 312.214222,188.4 C311.158222,188.4 310.278222,188.176 309.734222,187.76 C309.190222,187.36 308.870222,186.736 308.870222,186.08 C308.870222,185.024 309.702222,184.192 311.110222,183.872 C311.590222,183.76 312.070222,183.712 312.774222,183.712 C313.302222,183.712 313.526222,183.728 314.214222,183.84 C314.198222,183.792 314.198222,183.792 314.198222,183.648 C314.198222,183.632 314.182222,183.568 314.182222,183.472 C314.166222,183.328 314.166222,182.992 314.150222,182.528 C314.134222,182.32 314.134222,182.016 314.118222,181.6 C313.542222,181.616 312.742222,181.632 312.230222,181.632 C311.270222,181.632 310.518222,181.6 309.526222,181.52 C309.350222,181.504 309.222222,181.504 309.126222,181.504 L308.998222,181.504 L309.014222,180.448 C309.734222,180.608 311.062222,180.704 312.678222,180.704 C313.094222,180.704 313.654222,180.704 314.102222,180.688 L314.070222,178.496 C313.606222,178.512 313.350222,178.512 312.982222,178.512 C311.814222,178.512 310.518222,178.464 309.078222,178.352 C308.966222,178.336 308.870222,178.336 308.790222,178.336 C308.742222,178.336 308.662222,178.336 308.566222,178.352 L308.582222,177.264 C309.270222,177.456 310.934222,177.584 312.678222,177.584 C312.998222,177.584 313.542222,177.568 314.070222,177.568 C314.054222,175.616 314.054222,175.616 313.990222,175.264 L315.222222,175.264 C315.158222,175.6 315.126222,176.368 315.110222,177.52 C317.318222,177.376 318.966222,177.152 319.846222,176.864 L319.926222,177.952 C319.654222,177.968 319.654222,177.968 318.822222,178.08 C317.318222,178.304 316.886222,178.352 315.110222,178.464 C315.126222,179.776 315.126222,179.776 315.142222,180.624 C317.318222,180.464 318.694222,180.272 319.574222,179.968 L319.638222,181.072 C319.430222,181.088 319.270222,181.104 318.710222,181.184 C317.606222,181.36 316.342222,181.488 315.158222,181.568 C315.190222,182.464 315.190222,182.464 315.254222,184.016 C316.646222,184.4 318.038222,185.136 319.718222,186.352 C319.974222,186.544 320.054222,186.592 320.262222,186.72 Z M314.230222,185.424 L314.214222,184.816 C313.606222,184.672 313.286222,184.64 312.582222,184.64 C310.998222,184.64 309.958222,185.216 309.958222,186.064 C309.958222,186.912 310.758222,187.392 312.150222,187.392 C312.998222,187.392 313.606222,187.216 313.910222,186.864 C314.134222,186.64 314.230222,186.192 314.230222,185.424 Z M326.085333,175.52 L327.477333,175.52 C327.381333,176.064 327.317333,176.88 327.269333,178.896 C327.205333,180.816 327.157333,182.992 327.157333,183.712 C327.157333,183.904 327.173333,184.304 327.189333,184.672 C327.253333,185.632 327.461333,186.16 327.941333,186.592 C328.389333,186.992 329.109333,187.216 329.941333,187.216 C331.845333,187.216 333.317333,186.256 334.229333,184.432 C334.597333,183.664 334.789333,183.04 335.013333,181.92 C335.461333,182.304 335.653333,182.432 336.165333,182.688 C335.557333,184.56 335.093333,185.504 334.389333,186.32 C333.253333,187.664 331.749333,188.32 329.877333,188.32 C328.517333,188.32 327.509333,187.936 326.869333,187.2 C326.213333,186.448 325.989333,185.6 325.989333,183.92 C325.989333,182.848 326.005333,182.448 326.133333,177.408 C326.149333,176.928 326.149333,176.624 326.149333,176.368 C326.149333,176.032 326.133333,175.84 326.085333,175.52 Z M340.260444,179.072 L340.260444,177.952 C340.772444,178.048 341.412444,178.096 342.260444,178.096 C342.580444,178.096 342.756444,178.096 343.220444,178.064 C343.540444,176.096 343.572444,175.824 343.572444,175.12 L344.836444,175.248 C344.740444,175.632 344.740444,175.632 344.548444,176.768 C344.468444,177.28 344.420444,177.504 344.340444,177.984 C345.588444,177.856 346.452444,177.696 347.220444,177.44 L347.300444,178.544 C347.172444,178.56 347.172444,178.56 346.852444,178.624 C346.036444,178.8 344.932444,178.944 344.148444,179.008 C343.908444,180.272 343.460444,182.08 343.028444,183.536 C342.500444,185.248 342.036444,186.464 341.188444,188.416 L340.020444,187.92 C341.204444,185.856 342.436444,182.208 343.028444,179.072 C342.708444,179.088 342.516444,179.088 341.924444,179.088 C341.364444,179.088 341.220444,179.088 340.596444,179.056 L340.532444,179.056 C340.500444,179.056 340.404444,179.056 340.260444,179.072 Z M352.340444,179.856 L352.356444,180.992 C351.588444,180.912 351.140444,180.88 350.468444,180.88 C349.044444,180.88 347.924444,181.024 346.468444,181.424 L346.356444,180.336 C348.212444,179.936 349.252444,179.808 350.596444,179.808 C350.900444,179.808 351.140444,179.808 352.340444,179.856 Z M346.516444,183.312 L347.412444,183.76 C347.092444,184.144 347.044444,184.192 346.932444,184.368 C346.676444,184.704 346.532444,185.12 346.532444,185.504 C346.532444,186.464 347.508444,186.976 349.332444,186.976 C350.532444,186.976 351.956444,186.752 352.868444,186.432 L352.980444,187.632 C352.804444,187.664 352.804444,187.664 352.276444,187.744 C351.204444,187.936 350.276444,188.016 349.428444,188.016 C346.804444,188.016 345.444444,187.2 345.444444,185.616 C345.444444,184.896 345.668444,184.4 346.516444,183.312 Z M357.875555,184.24 C359.203555,184.24 360.275555,185.312 360.275555,186.64 C360.275555,187.968 359.203555,189.04 357.875555,189.04 C356.547555,189.04 355.475555,187.968 355.475555,186.64 C355.475555,185.312 356.547555,184.24 357.875555,184.24 Z M357.875555,185.152 C357.059555,185.152 356.387555,185.824 356.387555,186.64 C356.387555,187.456 357.059555,188.128 357.875555,188.128 C358.691555,188.128 359.363555,187.456 359.363555,186.64 C359.363555,185.824 358.691555,185.152 357.875555,185.152 Z" id="・一部デザインを変更しました。" fill="#333333"></path>
        <path d="M137.56,229.68 L137.24,229.68 C136.632,229.68 136.296,229.696 135.8,229.776 L135.8,228.736 C136.184,228.816 136.552,228.832 137.256,228.832 L148.744,228.832 C149.464,228.832 149.816,228.816 150.232,228.736 L150.232,229.776 C149.736,229.696 149.384,229.68 148.76,229.68 L142.648,229.68 L142.648,235.744 C142.648,236.464 142.664,236.832 142.744,237.232 L141.64,237.232 C141.704,236.848 141.736,236.448 141.736,235.744 L141.736,235.344 C139.704,235.712 139.704,235.712 137.24,236.048 C136.824,236.112 136.52,236.16 136.056,236.272 L135.8,235.216 L136.072,235.216 C136.344,235.216 136.888,235.184 137.56,235.12 L137.56,229.68 Z M138.504,229.68 L138.504,230.816 L141.736,230.816 L141.736,229.68 L138.504,229.68 Z M138.504,231.568 L138.504,232.752 L141.736,232.752 L141.736,231.568 L138.504,231.568 Z M138.504,233.504 L138.504,235.008 C139.864,234.864 140.344,234.784 141.736,234.528 L141.736,233.504 L138.504,233.504 Z M148.744,230.736 L149.304,231.328 C149.192,231.488 149.144,231.568 149.016,231.792 C148.248,233.152 147.768,233.824 147.048,234.544 C147.912,235.248 148.84,235.728 150.136,236.176 C149.928,236.4 149.704,236.736 149.528,237.056 C148.168,236.48 147.24,235.92 146.376,235.168 C145.432,235.968 144.872,236.32 143.608,236.928 C143.4,236.544 143.288,236.4 142.984,236.112 C144.264,235.584 144.92,235.216 145.736,234.544 C144.92,233.648 144.504,232.976 143.976,231.616 C143.72,231.632 143.528,231.648 143.192,231.68 L143.192,230.736 C143.56,230.784 143.912,230.8 144.552,230.8 L147.528,230.8 C148.12,230.8 148.504,230.784 148.744,230.736 Z M148.056,231.616 L144.872,231.616 C145.368,232.72 145.688,233.216 146.376,233.952 C147.048,233.264 147.432,232.736 148.056,231.616 Z M148.344,224.496 L148.344,226.672 C148.344,227.248 148.36,227.536 148.408,227.936 C147.896,227.888 147.384,227.872 146.76,227.872 L139.432,227.872 C138.728,227.872 138.28,227.888 137.704,227.936 C137.752,227.568 137.768,227.184 137.768,226.672 L137.768,224.496 C137.768,223.968 137.752,223.584 137.704,223.216 C138.248,223.264 138.712,223.28 139.448,223.28 L146.68,223.28 C147.416,223.28 147.864,223.264 148.408,223.216 C148.36,223.6 148.344,223.92 148.344,224.496 Z M138.712,224.096 L138.712,225.216 L147.4,225.216 L147.4,224.096 L138.712,224.096 Z M138.712,225.984 L138.712,227.104 L147.4,227.104 L147.4,225.984 L138.712,225.984 Z M160.983111,227.744 L165.047111,227.744 C165.767111,227.744 166.151111,227.712 166.519111,227.648 L166.519111,228.752 C166.119111,228.688 165.767111,228.672 165.111111,228.672 L164.519111,228.672 L164.519111,235.648 C164.519111,236.448 164.535111,236.848 164.615111,237.248 L163.383111,237.248 C163.447111,236.832 163.479111,236.432 163.479111,235.648 L163.479111,228.672 L160.967111,228.672 L160.967111,229.296 C160.951111,231.424 160.615111,233.584 160.055111,235.04 C159.735111,235.888 159.415111,236.496 158.871111,237.232 C158.535111,236.912 158.359111,236.768 157.959111,236.56 C159.495111,234.672 159.975111,232.432 159.975111,227.088 C159.975111,225.28 159.943111,224.592 159.895111,224.128 L160.087111,224.128 C160.935111,224.128 162.567111,223.808 163.879111,223.392 C164.551111,223.168 164.951111,222.992 165.351111,222.704 L166.167111,223.6 C166.023111,223.648 166.007111,223.648 165.591111,223.824 C164.263111,224.368 163.047111,224.672 160.983111,225.008 L160.983111,227.744 Z M156.263111,224.176 L157.751111,224.176 C158.407111,224.176 158.711111,224.16 159.095111,224.096 L159.095111,225.168 C158.663111,225.104 158.359111,225.088 157.735111,225.088 L153.639111,225.088 C152.967111,225.088 152.663111,225.104 152.247111,225.168 L152.247111,224.096 C152.615111,224.16 152.951111,224.176 153.655111,224.176 L155.255111,224.176 L155.255111,223.744 C155.255111,223.232 155.239111,222.976 155.175111,222.624 L156.343111,222.624 C156.279111,222.96 156.263111,223.216 156.263111,223.744 L156.263111,224.176 Z M153.255111,227.856 L156.119111,227.856 C156.679111,226.912 156.967111,226.192 157.191111,225.232 L158.151111,225.536 C157.767111,226.496 157.431111,227.232 157.063111,227.856 L158.007111,227.856 C158.615111,227.856 158.935111,227.84 159.303111,227.776 L159.303111,228.848 C158.903111,228.784 158.583111,228.768 158.007111,228.768 L153.255111,228.768 C152.631111,228.768 152.295111,228.784 151.927111,228.848 L151.927111,227.776 C152.279111,227.84 152.615111,227.856 153.255111,227.856 Z M154.919111,231.424 L153.271111,231.424 C152.647111,231.424 152.343111,231.44 151.959111,231.52 L151.959111,230.464 C152.327111,230.544 152.647111,230.56 153.303111,230.56 L155.255111,230.56 L155.255111,229.712 C155.255111,229.504 155.223111,229.248 155.175111,229.056 L156.247111,229.056 C156.199111,229.248 156.183111,229.504 156.183111,229.712 L156.183111,230.56 L157.943111,230.56 C158.503111,230.56 158.823111,230.544 159.239111,230.464 L159.239111,231.504 C158.871111,231.44 158.551111,231.424 157.943111,231.424 L156.423111,231.424 C157.031111,232.272 157.479111,232.688 158.679111,233.456 C158.423111,233.76 158.311111,233.952 158.119111,234.32 C157.079111,233.44 156.743111,233.072 156.119111,232.112 C156.151111,232.464 156.167111,232.928 156.183111,233.52 L156.183111,235.84 C156.183111,236.4 156.199111,236.784 156.263111,237.216 L155.159111,237.216 C155.223111,236.8 155.255111,236.368 155.255111,235.84 L155.255111,233.568 C155.255111,233.184 155.271111,232.768 155.303111,232.24 C154.647111,233.616 153.735111,234.672 152.279111,235.792 C152.103111,235.424 151.927111,235.168 151.671111,234.896 C152.471111,234.368 153.159111,233.792 153.751111,233.136 C154.231111,232.592 154.471111,232.256 154.919111,231.424 Z M154.935111,227.408 L154.087111,227.712 C153.815111,226.816 153.607111,226.32 153.175111,225.568 L154.023111,225.248 C154.471111,226.048 154.663111,226.528 154.935111,227.408 Z M176.086222,225.392 C175.846222,227.616 175.238222,230.064 174.518222,231.744 C173.590222,233.856 172.646222,234.816 171.494222,234.816 C169.974222,234.816 168.838222,233.152 168.838222,230.912 C168.838222,229.28 169.446222,227.696 170.518222,226.496 C171.798222,225.088 173.542222,224.368 175.686222,224.368 C177.478222,224.368 179.046222,224.928 180.086222,225.952 C181.094222,226.928 181.638222,228.32 181.638222,229.856 C181.638222,232.336 180.294222,234.384 177.974222,235.376 C177.254222,235.68 176.646222,235.872 175.542222,236.112 C175.382222,235.584 175.286222,235.424 174.982222,235.04 C176.150222,234.848 176.902222,234.64 177.654222,234.288 C179.414222,233.488 180.486222,231.776 180.486222,229.808 C180.486222,227.984 179.558222,226.512 177.942222,225.792 C177.350222,225.536 176.886222,225.424 176.086222,225.392 Z M174.934222,225.408 C173.974222,225.488 173.286222,225.712 172.550222,226.16 C170.934222,227.136 169.942222,228.944 169.942222,230.928 C169.942222,232.464 170.614222,233.648 171.478222,233.648 C172.150222,233.648 172.790222,232.896 173.478222,231.328 C174.134222,229.824 174.726222,227.456 174.934222,225.408 Z M188.165333,224.368 L189.509333,224.608 C189.445333,224.784 189.429333,224.88 189.301333,225.696 C188.629333,230.256 187.333333,233.328 185.077333,235.68 C184.677333,235.248 184.501333,235.104 184.053333,234.848 C185.045333,233.92 185.701333,233.024 186.373333,231.68 C187.157333,230.096 187.717333,228.224 188.021333,226.128 C188.117333,225.488 188.181333,224.912 188.181333,224.624 C188.181333,224.576 188.181333,224.48 188.165333,224.368 Z M192.757333,224.608 L193.941333,224.368 C193.941333,225.056 194.293333,226.896 194.677333,228.208 C195.445333,231.024 196.757333,233.392 198.309333,234.816 C197.877333,235.088 197.685333,235.264 197.317333,235.712 C195.189333,233.456 193.589333,229.76 192.965333,225.664 C192.885333,225.104 192.821333,224.816 192.757333,224.608 Z M194.837333,223.92 L195.637333,223.52 C196.341333,224.4 196.789333,225.088 197.237333,226.032 L196.421333,226.496 C196.053333,225.648 195.285333,224.416 194.837333,223.92 Z M196.677333,223.104 L197.461333,222.688 C198.165333,223.568 198.565333,224.208 199.061333,225.216 L198.261333,225.648 C197.925333,224.88 197.285333,223.856 196.677333,223.104 Z M200.036444,230.512 L200.036444,229.2 C200.500444,229.28 200.932444,229.296 202.020444,229.296 L211.316444,229.296 C212.500444,229.296 212.756444,229.28 213.252444,229.216 L213.252444,230.512 C212.740444,230.464 212.372444,230.448 211.300444,230.448 L202.020444,230.448 C200.852444,230.448 200.516444,230.464 200.036444,230.512 Z M218.211555,224.72 L218.835555,223.76 C220.291555,224.352 221.555555,224.992 222.803555,225.776 L222.147555,226.848 C221.251555,226.144 219.123555,224.992 218.211555,224.72 Z M216.947555,228.56 L217.587555,227.584 C218.979556,228.144 220.387555,228.864 221.651555,229.664 L221.027556,230.752 C220.083555,230.016 218.243555,229.024 216.947555,228.56 Z M217.491556,236.208 L217.171555,234.896 L217.267555,234.896 C218.179555,234.896 219.971555,234.48 221.475555,233.904 C224.563555,232.768 227.043555,230.128 228.195555,226.736 C228.579555,227.152 228.771555,227.312 229.187555,227.6 C227.171555,232.448 223.875555,234.96 218.115555,236.048 C217.763555,236.128 217.731555,236.128 217.491556,236.208 Z M226.419556,223.44 L227.219556,223.024 C227.923556,223.888 228.371555,224.56 228.851556,225.504 L228.051556,225.984 C227.651555,225.136 226.883555,223.952 226.419556,223.44 Z M228.227555,222.592 L229.011555,222.16 C229.747555,223.04 230.147555,223.632 230.675555,224.64 L229.875555,225.104 C229.523555,224.352 228.851555,223.312 228.227555,222.592 Z M241.362667,236.064 L235.218667,236.064 C234.354667,236.064 234.226667,236.064 233.826667,236.128 L233.826667,235.008 C234.210667,235.072 234.626667,235.104 235.218667,235.104 L241.362667,235.104 L241.362667,232.096 L235.730667,232.096 C234.882667,232.096 234.754667,232.096 234.354667,232.16 L234.354667,231.072 C234.738667,231.136 235.122667,231.168 235.746667,231.168 L241.362667,231.168 L241.362667,228.384 L235.378667,228.384 C234.530667,228.384 234.386667,228.384 233.986667,228.448 L233.986667,227.344 C234.370667,227.408 234.754667,227.44 235.378667,227.44 L241.330667,227.44 C241.842667,227.44 242.130667,227.424 242.418667,227.408 C242.402667,227.824 242.402667,228.08 242.402667,228.64 L242.402667,235.872 C242.402667,236.384 242.418667,236.592 242.466667,236.864 L241.362667,236.864 L241.362667,236.064 Z M248.993778,225.552 L249.777778,224.688 C251.489778,225.776 252.481778,226.56 253.633778,227.696 L252.801778,228.688 C251.649778,227.44 250.385778,226.4 248.993778,225.552 Z M249.105778,235.952 L248.753778,234.608 C250.001778,234.56 251.921778,234.064 253.409778,233.376 C256.497778,232 258.641778,229.648 259.937778,226.256 C260.305778,226.752 260.465778,226.896 260.913778,227.2 C259.633778,229.984 258.145778,231.856 256.033778,233.312 C254.385778,234.432 252.737778,235.088 250.065778,235.696 C249.633778,235.792 249.505778,235.824 249.105778,235.952 Z M265.712889,223.52 L266.976889,223.712 C266.736889,224.4 266.544889,225.184 266.304889,226.272 C265.968889,227.952 265.824889,229.36 265.824889,231.28 C265.824889,232.528 265.856889,233.472 265.920889,234.32 C266.144889,233.248 266.448889,232.368 266.960889,231.2 L267.728889,231.568 C267.008889,233.152 266.432889,235.072 266.432889,235.968 L266.432889,236.208 L265.280889,236.304 C265.248889,236.048 265.232889,235.968 265.184889,235.664 C264.880889,233.968 264.768889,232.816 264.768889,231.136 C264.768889,228.864 264.960889,227.168 265.488889,224.8 C265.648889,224.048 265.680889,223.888 265.712889,223.52 Z M269.008889,226.544 L269.024889,225.408 C269.712889,225.584 270.496889,225.648 271.744889,225.648 C273.520889,225.648 274.960889,225.504 276.032889,225.216 L276.112889,226.352 C276.080889,226.352 275.712889,226.4 275.008889,226.496 C274.080889,226.624 272.800889,226.704 271.568889,226.704 C270.672889,226.704 270.048889,226.656 269.008889,226.544 Z M270.176889,229.664 L271.056889,230.144 C270.256889,231.024 269.856889,231.792 269.856889,232.496 C269.856889,233.68 270.864889,234.256 272.928889,234.256 C274.384889,234.256 275.744889,234.048 276.608889,233.696 L276.768889,234.928 C276.560889,234.944 276.528889,234.96 276.208889,235.008 C275.088889,235.232 274.016889,235.328 272.928889,235.328 C271.104889,235.328 269.952889,234.944 269.264889,234.112 C268.944889,233.712 268.784889,233.232 268.784889,232.64 C268.784889,231.664 269.184889,230.8 270.176889,229.664 Z M286.32,224.272 L281.344,224.272 C280.688,224.272 280.224,224.304 279.664,224.368 L279.664,223.264 C280.128,223.328 280.656,223.36 281.344,223.36 L292.144,223.36 C292.832,223.36 293.312,223.328 293.824,223.264 L293.824,224.368 C293.328,224.304 292.768,224.272 292.144,224.272 L287.328,224.272 L287.328,225.84 L290.544,225.84 C291.552,225.84 291.968,225.824 292.432,225.76 C292.384,226.304 292.368,226.736 292.368,227.52 L292.368,230.256 C292.368,231.008 292.384,231.424 292.432,231.952 C291.936,231.888 291.456,231.872 290.592,231.872 L286.96,231.872 C286.704,232.912 286.4,233.632 285.872,234.304 C287.76,235.44 290.176,236 293.12,236 C293.296,236 293.6,236 294.064,235.984 C293.872,236.304 293.776,236.592 293.632,237.12 C290.016,237.072 287.44,236.432 285.232,235.024 C283.92,236.256 282.368,236.96 280.064,237.424 C279.92,236.992 279.872,236.88 279.584,236.448 C280.752,236.272 281.376,236.112 282.208,235.776 C283.136,235.408 283.808,235.024 284.448,234.464 C283.872,234 283.632,233.776 283.04,233.152 L282.688,232.8 L283.616,232.256 C283.904,232.72 284.448,233.28 285.088,233.776 C285.504,233.216 285.728,232.72 285.936,231.872 L283.008,231.872 C282.144,231.872 281.648,231.888 281.168,231.952 C281.2,231.392 281.232,230.912 281.232,230.24 L281.232,227.52 C281.232,226.752 281.216,226.272 281.168,225.76 C281.664,225.824 282.032,225.84 283.024,225.84 L286.32,225.84 L286.32,224.272 Z M286.304,226.688 L282.208,226.688 L282.208,228.368 L286.272,228.368 C286.288,227.632 286.304,227.344 286.304,226.688 Z M287.312,226.688 L287.28,228.368 L291.376,228.368 L291.376,226.688 L287.312,226.688 Z M286.24,229.2 L282.208,229.2 L282.208,231.024 L286.096,231.024 C286.16,230.416 286.192,230.032 286.24,229.2 Z M291.376,229.2 L287.248,229.2 C287.216,229.968 287.184,230.32 287.104,231.024 L291.376,231.024 L291.376,229.2 Z M304.703111,227.744 L308.767111,227.744 C309.487111,227.744 309.871111,227.712 310.239111,227.648 L310.239111,228.752 C309.839111,228.688 309.487111,228.672 308.831111,228.672 L308.239111,228.672 L308.239111,235.648 C308.239111,236.448 308.255111,236.848 308.335111,237.248 L307.103111,237.248 C307.167111,236.832 307.199111,236.432 307.199111,235.648 L307.199111,228.672 L304.687111,228.672 L304.687111,229.296 C304.671111,231.424 304.335111,233.584 303.775111,235.04 C303.455111,235.888 303.135111,236.496 302.591111,237.232 C302.255111,236.912 302.079111,236.768 301.679111,236.56 C303.215111,234.672 303.695111,232.432 303.695111,227.088 C303.695111,225.28 303.663111,224.592 303.615111,224.128 L303.807111,224.128 C304.655111,224.128 306.287111,223.808 307.599111,223.392 C308.271111,223.168 308.671111,222.992 309.071111,222.704 L309.887111,223.6 C309.743111,223.648 309.727111,223.648 309.311111,223.824 C307.983111,224.368 306.767111,224.672 304.703111,225.008 L304.703111,227.744 Z M299.983111,224.176 L301.471111,224.176 C302.127111,224.176 302.431111,224.16 302.815111,224.096 L302.815111,225.168 C302.383111,225.104 302.079111,225.088 301.455111,225.088 L297.359111,225.088 C296.687111,225.088 296.383111,225.104 295.967111,225.168 L295.967111,224.096 C296.335111,224.16 296.671111,224.176 297.375111,224.176 L298.975111,224.176 L298.975111,223.744 C298.975111,223.232 298.959111,222.976 298.895111,222.624 L300.063111,222.624 C299.999111,222.96 299.983111,223.216 299.983111,223.744 L299.983111,224.176 Z M296.975111,227.856 L299.839111,227.856 C300.399111,226.912 300.687111,226.192 300.911111,225.232 L301.871111,225.536 C301.487111,226.496 301.151111,227.232 300.783111,227.856 L301.727111,227.856 C302.335111,227.856 302.655111,227.84 303.023111,227.776 L303.023111,228.848 C302.623111,228.784 302.303111,228.768 301.727111,228.768 L296.975111,228.768 C296.351111,228.768 296.015111,228.784 295.647111,228.848 L295.647111,227.776 C295.999111,227.84 296.335111,227.856 296.975111,227.856 Z M298.639111,231.424 L296.991111,231.424 C296.367111,231.424 296.063111,231.44 295.679111,231.52 L295.679111,230.464 C296.047111,230.544 296.367111,230.56 297.023111,230.56 L298.975111,230.56 L298.975111,229.712 C298.975111,229.504 298.943111,229.248 298.895111,229.056 L299.967111,229.056 C299.919111,229.248 299.903111,229.504 299.903111,229.712 L299.903111,230.56 L301.663111,230.56 C302.223111,230.56 302.543111,230.544 302.959111,230.464 L302.959111,231.504 C302.591111,231.44 302.271111,231.424 301.663111,231.424 L300.143111,231.424 C300.751111,232.272 301.199111,232.688 302.399111,233.456 C302.143111,233.76 302.031111,233.952 301.839111,234.32 C300.799111,233.44 300.463111,233.072 299.839111,232.112 C299.871111,232.464 299.887111,232.928 299.903111,233.52 L299.903111,235.84 C299.903111,236.4 299.919111,236.784 299.983111,237.216 L298.879111,237.216 C298.943111,236.8 298.975111,236.368 298.975111,235.84 L298.975111,233.568 C298.975111,233.184 298.991111,232.768 299.023111,232.24 C298.367111,233.616 297.455111,234.672 295.999111,235.792 C295.823111,235.424 295.647111,235.168 295.391111,234.896 C296.191111,234.368 296.879111,233.792 297.471111,233.136 C297.951111,232.592 298.191111,232.256 298.639111,231.424 Z M298.655111,227.408 L297.807111,227.712 C297.535111,226.816 297.327111,226.32 296.895111,225.568 L297.743111,225.248 C298.191111,226.048 298.383111,226.528 298.655111,227.408 Z M314.654222,223.52 L316.046222,223.52 C315.950222,224.064 315.886222,224.88 315.838222,226.896 C315.774222,228.816 315.726222,230.992 315.726222,231.712 C315.726222,231.904 315.742222,232.304 315.758222,232.672 C315.822222,233.632 316.030222,234.16 316.510222,234.592 C316.958222,234.992 317.678222,235.216 318.510222,235.216 C320.414222,235.216 321.886222,234.256 322.798222,232.432 C323.166222,231.664 323.358222,231.04 323.582222,229.92 C324.030222,230.304 324.222222,230.432 324.734222,230.688 C324.126222,232.56 323.662222,233.504 322.958222,234.32 C321.822222,235.664 320.318222,236.32 318.446222,236.32 C317.086222,236.32 316.078222,235.936 315.438222,235.2 C314.782222,234.448 314.558222,233.6 314.558222,231.92 C314.558222,230.848 314.574222,230.448 314.702222,225.408 C314.718222,224.928 314.718222,224.624 314.718222,224.368 C314.718222,224.032 314.702222,223.84 314.654222,223.52 Z M341.053333,234.72 L340.413333,235.84 C339.677333,235.072 338.509333,234.256 337.149333,233.552 C336.877333,233.408 336.509333,233.248 336.077333,233.072 C336.109333,233.44 336.109333,233.44 336.109333,233.648 C336.109333,234.496 335.997333,235.008 335.709333,235.392 C335.245333,236.048 334.269333,236.4 333.005333,236.4 C331.949333,236.4 331.069333,236.176 330.525333,235.76 C329.981333,235.36 329.661333,234.736 329.661333,234.08 C329.661333,233.024 330.493333,232.192 331.901333,231.872 C332.381333,231.76 332.861333,231.712 333.565333,231.712 C334.093333,231.712 334.317333,231.728 335.005333,231.84 C334.989333,231.792 334.989333,231.792 334.989333,231.648 C334.989333,231.632 334.973333,231.568 334.973333,231.472 C334.957333,231.328 334.957333,230.992 334.941333,230.528 C334.925333,230.32 334.925333,230.016 334.909333,229.6 C334.333333,229.616 333.533333,229.632 333.021333,229.632 C332.061333,229.632 331.309333,229.6 330.317333,229.52 C330.141333,229.504 330.013333,229.504 329.917333,229.504 L329.789333,229.504 L329.805333,228.448 C330.525333,228.608 331.853333,228.704 333.469333,228.704 C333.885333,228.704 334.445333,228.704 334.893333,228.688 L334.861333,226.496 C334.397333,226.512 334.141333,226.512 333.773333,226.512 C332.605333,226.512 331.309333,226.464 329.869333,226.352 C329.757333,226.336 329.661333,226.336 329.581333,226.336 C329.533333,226.336 329.453333,226.336 329.357333,226.352 L329.373333,225.264 C330.061333,225.456 331.725333,225.584 333.469333,225.584 C333.789333,225.584 334.333333,225.568 334.861333,225.568 C334.845333,223.616 334.845333,223.616 334.781333,223.264 L336.013333,223.264 C335.949333,223.6 335.917333,224.368 335.901333,225.52 C338.109333,225.376 339.757333,225.152 340.637333,224.864 L340.717333,225.952 C340.445333,225.968 340.445333,225.968 339.613333,226.08 C338.109333,226.304 337.677333,226.352 335.901333,226.464 C335.917333,227.776 335.917333,227.776 335.933333,228.624 C338.109333,228.464 339.485333,228.272 340.365333,227.968 L340.429333,229.072 C340.221333,229.088 340.061333,229.104 339.501333,229.184 C338.397333,229.36 337.133333,229.488 335.949333,229.568 C335.981333,230.464 335.981333,230.464 336.045333,232.016 C337.437333,232.4 338.829333,233.136 340.509333,234.352 C340.765333,234.544 340.845333,234.592 341.053333,234.72 Z M335.021333,233.424 L335.005333,232.816 C334.397333,232.672 334.077333,232.64 333.373333,232.64 C331.789333,232.64 330.749333,233.216 330.749333,234.064 C330.749333,234.912 331.549333,235.392 332.941333,235.392 C333.789333,235.392 334.397333,235.216 334.701333,234.864 C334.925333,234.64 335.021333,234.192 335.021333,233.424 Z M352.012444,225.344 L351.980444,224.08 C351.980444,223.664 351.964444,223.488 351.916444,223.152 L353.116444,223.152 C353.052444,223.664 353.036444,223.904 353.036444,225.152 L353.036444,225.328 C356.060444,225.312 357.292444,225.28 357.820444,225.216 L357.820444,226.352 C357.228444,226.288 356.668444,226.272 354.764444,226.272 C354.524444,226.272 354.348444,226.272 353.052444,226.304 L353.052444,229.472 C353.324444,230.144 353.436444,230.656 353.436444,231.36 C353.436444,233.024 352.668444,234.496 351.292444,235.536 C350.636444,236.016 349.932444,236.384 348.764444,236.832 C348.492444,236.32 348.396444,236.176 348.060444,235.824 C349.308444,235.424 350.012444,235.104 350.652444,234.624 C351.820444,233.744 352.380444,232.704 352.444444,231.248 C352.300444,231.632 352.204444,231.808 352.012444,232.032 C351.532444,232.608 350.844444,232.896 349.996444,232.896 C348.460444,232.896 347.372444,231.84 347.372444,230.368 C347.372444,228.848 348.572444,227.728 350.204444,227.728 C350.972444,227.728 351.644444,227.984 352.060444,228.448 C352.044444,228.224 352.044444,228.16 352.044444,227.568 C352.044444,227.504 352.028444,227.344 352.028444,227.152 L352.028444,226.32 C348.812444,226.384 345.580444,226.544 344.508444,226.72 L344.460444,225.552 C344.748444,225.568 344.860444,225.568 345.100444,225.568 C345.564444,225.568 345.564444,225.568 348.140444,225.472 C349.676444,225.408 350.924444,225.376 352.012444,225.344 Z M351.964444,230.016 C351.964444,229.488 351.756444,229.152 351.292444,228.896 C350.988444,228.72 350.652444,228.64 350.220444,228.64 C349.212444,228.64 348.444444,229.36 348.444444,230.32 C348.444444,231.248 349.116444,231.904 350.092444,231.904 C351.196444,231.904 351.964444,231.136 351.964444,230.016 Z M360.955555,232.24 C362.283555,232.24 363.355555,233.312 363.355555,234.64 C363.355555,235.968 362.283555,237.04 360.955555,237.04 C359.627555,237.04 358.555555,235.968 358.555555,234.64 C358.555555,233.312 359.627555,232.24 360.955555,232.24 Z M360.955555,233.152 C360.139555,233.152 359.467555,233.824 359.467555,234.64 C359.467555,235.456 360.139555,236.128 360.955555,236.128 C361.771555,236.128 362.443555,235.456 362.443555,234.64 C362.443555,233.824 361.771555,233.152 360.955555,233.152 Z" id="最新のバージョンに更新します。" fill="#333333"></path>
        <rect id="Rectangle-11" fill="#2D8C3C" x="100" y="262" width="300" height="48" rx="8"></rect>
        <path d="M242.34,278 C244.54,278 246.24,278.64 247.6,280 C249.06,281.46 249.84,283.64 249.84,286.24 C249.84,291.3 246.9,294.58 242.36,294.58 C237.82,294.58 234.9,291.32 234.9,286.24 C234.9,283.66 235.7,281.44 237.18,280 C238.56,278.64 240.22,278 242.34,278 Z M242.4,292.2 C245.26,292.2 247.04,289.92 247.04,286.24 C247.04,284.22 246.48,282.6 245.46,281.58 C244.64,280.78 243.58,280.36 242.38,280.36 C239.5,280.36 237.68,282.64 237.68,286.26 C237.68,288.26 238.26,289.94 239.3,290.98 C240.12,291.78 241.18,292.2 242.4,292.2 Z M259.111111,284.82 L264.191111,291.7 C265.391111,293.32 265.611111,293.6 266.191111,294.24 L262.491111,294.24 C262.191111,293.64 261.691111,292.8 261.231111,292.14 L257.251111,286.54 L255.071111,288.72 L255.071111,291.66 C255.071111,292.84 255.111111,293.4 255.251111,294.24 L252.291111,294.24 C252.411111,293.34 252.451111,292.72 252.451111,291.66 L252.451111,280.9 C252.451111,279.82 252.411111,279.16 252.291111,278.32 L255.251111,278.32 C255.131111,278.98 255.071111,279.76 255.071111,280.9 L255.071111,285.56 L260.171111,280.26 C260.951111,279.46 261.331111,278.98 261.731111,278.32 L265.511111,278.32 C264.931111,278.9 264.271111,279.54 263.391111,280.44 L259.111111,284.82 Z" id="OK" fill="#FFFFFF"></path>
    </g>
</svg>