<?xml version="1.0" encoding="UTF-8" standalone="no"?>
<svg width="500px" height="500px" viewBox="0 0 500 500" version="1.1" xmlns="http://www.w3.org/2000/svg" xmlns:xlink="http://www.w3.org/1999/xlink" style="background: #FFFFFF;">
    <!-- Generator: Sketch 48.2 (47327) - http://www.bohemiancoding.com/sketch -->
    <title>4.1.2_ok_1</title>
    <desc>Created with Sketch.</desc>
    <defs></defs>
    <g id="Page-1" stroke="none" stroke-width="1" fill="none" fill-rule="evenodd">
        <g id="4.1.2_ok_1">
            <rect id="Rectangle-10" fill="#444444" x="0" y="0" width="490" height="500"></rect>
            <text id="&lt;body&gt;-&lt;h1&gt;バナー作成の手順&lt;" font-family="HiraginoSans-W6, Hiragino Sans" font-size="18" font-weight="500" line-spacing="30" letter-spacing="0.100000001">
                <tspan x="58" y="27" fill="#FFFFFF">&lt;body&gt;</tspan>
                <tspan x="58" y="57" fill="#FFCD7B">  </tspan>
                <tspan x="70.188" y="57" fill="#FFBE53">&lt;h1&gt;</tspan>
                <tspan x="114.958" y="57" fill="#FFFFFF">バナー作成の手順</tspan>
                <tspan x="259.758" y="57" fill="#FFBE53">&lt;/h1&gt;</tspan>
                <tspan x="313.988" y="57" fill="#FFFFFF"></tspan>
                <tspan x="58" y="87" fill="#FFFFFF">  バナーの作成手順を紹介します。本文…</tspan>
                <tspan x="58" y="117" fill="#FFFFFF">  </tspan>
                <tspan x="70.188" y="117" fill="#FFBF47">&lt;h2&gt;</tspan>
                <tspan x="114.958" y="117" fill="#FFFFFF">手順①バナー構成を確認</tspan>
                <tspan x="314.058" y="117" fill="#FFBF47">&lt;/h2&gt;</tspan>
                <tspan x="58" y="147" fill="#FFFFFF">  バナーの構成を確認します。本文…</tspan>
                <tspan x="58" y="177" fill="#FFFFFF">  </tspan>
                <tspan x="70.188" y="177" fill="#FFBF47">&lt;h3&gt;</tspan>
                <tspan x="114.958" y="177" fill="#FFFFFF">構成の内容を整理する</tspan>
                <tspan x="295.958" y="177" fill="#FFBF47">&lt;/h3&gt;</tspan>
                <tspan x="58" y="207" fill="#FFFFFF">  構成の内容を整理しましょう。本文…</tspan>
                <tspan x="58" y="237" fill="#FFFFFF"> </tspan>
                <tspan x="64.094" y="237" fill="#FFBF47"> &lt;h2&gt;</tspan>
                <tspan x="114.958" y="237" fill="#FFFFFF">手順②入稿規定を確認</tspan>
                <tspan x="295.958" y="237" fill="#FFBF47">&lt;/h2&gt;</tspan>
                <tspan x="350.188" y="237" fill="#FFFFFF"></tspan>
                <tspan x="58" y="267" fill="#FFFFFF">  …</tspan>
                <tspan x="58" y="297" fill="#FFFFFF">  </tspan>
                <tspan x="70.188" y="297" fill="#FFBF47">&lt;h3&gt;</tspan>
                <tspan x="114.958" y="297" fill="#FFFFFF">サイズ・容量・掲載箇所</tspan>
                <tspan x="314.058" y="297" fill="#FFBF47">&lt;/h3&gt;</tspan>
                <tspan x="58" y="327" fill="#FFFFFF">  …</tspan>
                <tspan x="58" y="357" fill="#FFFFFF"> </tspan>
                <tspan x="64.094" y="357" fill="#FFBF47"> &lt;h2&gt;</tspan>
                <tspan x="114.958" y="357" fill="#FFFFFF">手順③素材を集める</tspan>
                <tspan x="277.858" y="357" fill="#FFBF47">&lt;/h2&gt;</tspan>
                <tspan x="58" y="387" fill="#FFFFFF">  …</tspan>
                <tspan x="58" y="417" fill="#FFFFFF">  </tspan>
                <tspan x="70.188" y="417" fill="#FFBF47">&lt;h3&gt;</tspan>
                <tspan x="114.958" y="417" fill="#FFFFFF">使用可能な素材一覧</tspan>
                <tspan x="277.858" y="417" fill="#FFBF47">&lt;/h3&gt;</tspan>
                <tspan x="58" y="447" fill="#FFFFFF">  …</tspan>
                <tspan x="58" y="477" fill="#FFFFFF">&lt;/body</tspan>
                <tspan x="126.478" y="477" fill="#FFFFFF">&gt;</tspan>
            </text>
            <rect id="Rectangle-2" fill="#CCCCCC" opacity="0.2" x="0" y="0" width="36" height="500"></rect>
            <text id="1-2-3-4-5-6-7-8-9-10" font-family="HiraginoSans-W6, Hiragino Sans" font-size="16" font-weight="500" line-spacing="30" fill="#FFFFFF">
                <tspan x="12.804" y="27">1</tspan>
                <tspan x="12.804" y="57">2</tspan>
                <tspan x="12.804" y="87">3</tspan>
                <tspan x="12.804" y="117">4</tspan>
                <tspan x="12.804" y="147">5</tspan>
                <tspan x="12.804" y="177">6</tspan>
                <tspan x="12.804" y="207">7</tspan>
                <tspan x="12.804" y="237">8</tspan>
                <tspan x="12.804" y="267">9</tspan>
                <tspan x="7.108" y="297">10</tspan>
                <tspan x="7.108" y="327">11</tspan>
                <tspan x="7.108" y="357">12</tspan>
                <tspan x="7.108" y="387">13</tspan>
                <tspan x="7.108" y="417">14</tspan>
                <tspan x="7.108" y="447">15</tspan>
                <tspan x="7.108" y="477">16</tspan>
            </text>
        </g>
    </g>
</svg>