<?xml version="1.0" encoding="UTF-8" standalone="no"?>
<svg width="500px" height="360px" viewBox="0 0 500 360" version="1.1" xmlns="http://www.w3.org/2000/svg" xmlns:xlink="http://www.w3.org/1999/xlink" style="background: #FFFFFF;">
    <!-- Generator: Sketch 48.2 (47327) - http://www.bohemiancoding.com/sketch -->
    <title>4.1.2_ng_2</title>
    <desc>Created with Sketch.</desc>
    <defs></defs>
    <g id="Page-1" stroke="none" stroke-width="1" fill="none" fill-rule="evenodd">
        <g id="4.1.2_ng_2">
            <rect id="Rectangle-5" stroke="#AAAAAA" x="80.5" y="20.5" width="339" height="319" rx="8"></rect>
            <path d="M211.516,62.094 L210.346,62.094 C209.338,62.094 208.87,62.112 208.312,62.148 C208.384,61.59 208.402,61.086 208.402,60.258 L208.402,54.156 C208.402,53.112 208.366,52.158 208.312,51.762 C208.906,51.834 209.464,51.852 210.238,51.852 L217.762,51.852 C218.5,51.852 219.166,51.816 219.688,51.762 C219.634,52.14 219.598,53.148 219.598,54.156 L219.598,60.258 C219.598,61.104 219.616,61.608 219.688,62.148 C219.184,62.112 218.644,62.094 217.672,62.094 L216.106,62.094 L216.106,65.352 C216.106,65.91 216.286,65.964 218.122,65.964 C219.832,65.964 220.246,65.892 220.498,65.514 C220.696,65.208 220.822,64.56 220.93,63.156 C221.434,63.426 221.704,63.534 222.064,63.642 C221.65,66.864 221.452,67.026 218.032,67.026 C216.556,67.026 215.746,66.936 215.386,66.72 C215.062,66.522 214.954,66.288 214.954,65.712 L214.954,62.094 L212.758,62.094 C212.506,63.588 212.074,64.506 211.174,65.37 C210.112,66.396 208.798,67.008 206.566,67.494 C206.386,67.044 206.242,66.792 205.936,66.414 C207.304,66.162 207.934,66 208.69,65.658 C209.932,65.118 210.778,64.326 211.192,63.336 C211.354,62.958 211.39,62.832 211.516,62.094 Z M209.518,52.914 L209.518,54.876 L218.482,54.876 L218.482,52.914 L209.518,52.914 Z M209.518,55.884 L209.518,57.954 L218.482,57.954 L218.482,55.884 L209.518,55.884 Z M209.518,58.962 L209.518,61.104 L218.482,61.104 L218.482,58.962 L209.518,58.962 Z M231.28,57.306 L231.28,52.752 C231.28,51.942 231.244,51.528 231.154,51.114 L232.612,51.114 C232.522,51.618 232.486,51.996 232.486,52.752 L232.486,57.306 L237.22,57.306 L237.22,53.904 C237.22,53.4 237.202,53.004 237.148,52.59 L238.498,52.59 C238.426,53.112 238.408,53.454 238.408,53.958 L238.408,57.54 C238.408,57.9 238.426,58.152 238.444,58.458 C238.084,58.44 237.67,58.422 237.328,58.422 L232.486,58.422 L232.486,65.01 L237.85,65.01 L237.85,61.59 C237.85,60.942 237.832,60.492 237.76,60.042 L239.128,60.042 C239.056,60.51 239.038,60.942 239.038,61.644 L239.038,65.712 C239.038,66.36 239.074,66.756 239.146,67.224 L237.85,67.224 L237.85,66.144 L226.15,66.144 L226.15,67.224 L224.854,67.224 C224.926,66.774 224.962,66.288 224.962,65.712 L224.962,61.752 C224.962,61.068 224.944,60.6 224.872,60.15 L226.24,60.15 C226.168,60.6 226.15,60.996 226.15,61.68 L226.15,65.01 L231.28,65.01 L231.28,58.422 L226.78,58.422 C226.456,58.422 226.042,58.44 225.664,58.458 C225.682,58.116 225.7,57.846 225.7,57.54 L225.7,53.976 C225.7,53.526 225.664,53.094 225.61,52.59 L226.96,52.59 C226.906,52.968 226.888,53.364 226.888,53.922 L226.888,57.306 L231.28,57.306 Z M245.176,51.96 L246.742,51.96 C246.634,52.572 246.562,53.49 246.508,55.758 C246.436,57.918 246.382,60.366 246.382,61.176 C246.382,61.392 246.4,61.842 246.418,62.256 C246.49,63.336 246.724,63.93 247.264,64.416 C247.768,64.866 248.578,65.118 249.514,65.118 C251.656,65.118 253.312,64.038 254.338,61.986 C254.752,61.122 254.968,60.42 255.22,59.16 C255.724,59.592 255.94,59.736 256.516,60.024 C255.832,62.13 255.31,63.192 254.518,64.11 C253.24,65.622 251.548,66.36 249.442,66.36 C247.912,66.36 246.778,65.928 246.058,65.1 C245.32,64.254 245.068,63.3 245.068,61.41 C245.068,60.204 245.086,59.754 245.23,54.084 C245.248,53.544 245.248,53.202 245.248,52.914 C245.248,52.536 245.23,52.32 245.176,51.96 Z M275.92,58.206 L275.92,59.7 C275.272,59.61 274.66,59.574 273.544,59.574 L262.456,59.574 C261.466,59.574 260.638,59.61 260.062,59.7 L260.062,58.206 C260.638,58.296 261.412,58.332 262.456,58.332 L273.544,58.332 C274.606,58.332 275.38,58.296 275.92,58.206 Z M283.354,55.776 L283.354,56.784 L284.884,56.784 C285.604,56.784 286.09,56.766 286.414,56.712 L286.414,57.63 C285.856,57.576 285.424,57.558 284.884,57.558 L280.51,57.558 C279.88,57.558 279.466,57.576 278.926,57.612 C278.962,57.18 278.98,56.73 278.98,55.992 L278.98,53.22 C278.98,52.428 278.962,51.96 278.908,51.492 C279.358,51.546 279.79,51.564 280.672,51.564 L284.776,51.564 C285.55,51.564 286.018,51.546 286.414,51.474 L286.414,52.446 C285.964,52.392 285.532,52.374 284.884,52.374 L283.336,52.374 L283.336,53.346 L284.47,53.346 C285.298,53.346 285.586,53.328 285.946,53.292 C285.91,53.598 285.892,53.814 285.892,54.174 L285.892,54.948 C285.892,55.344 285.91,55.542 285.946,55.83 C285.586,55.794 285.082,55.776 284.362,55.776 L283.354,55.776 Z M282.382,55.776 L279.988,55.776 L279.988,56.784 L282.382,56.784 L282.382,55.776 Z M279.988,55.038 L284.938,55.038 L284.938,54.084 L279.988,54.084 L279.988,55.038 Z M279.988,53.346 L282.364,53.346 L282.364,52.374 L279.988,52.374 L279.988,53.346 Z M292.372,53.652 L288.178,53.652 C287.692,54.372 287.44,54.678 286.702,55.434 C286.45,55.092 286.27,54.93 285.928,54.696 C287.152,53.67 287.818,52.644 288.286,51.078 L289.366,51.366 C289.078,52.068 288.952,52.32 288.754,52.716 L292.372,52.716 C293.074,52.716 293.452,52.698 293.902,52.626 L293.902,53.742 C293.47,53.67 293.056,53.652 292.372,53.652 Z M283.534,64.416 L282.472,64.416 C281.626,64.416 280.924,64.434 280.456,64.488 C280.51,64.092 280.528,63.534 280.528,62.652 L280.528,59.97 C280.528,59.286 280.51,58.782 280.474,58.242 C280.924,58.278 281.464,58.296 282.346,58.296 L289.87,58.296 C290.788,58.296 291.202,58.278 291.724,58.224 C291.688,58.71 291.67,59.124 291.67,59.97 L291.67,62.616 C291.67,63.57 291.688,64.182 291.742,64.488 C291.256,64.434 290.608,64.416 289.744,64.416 L288.178,64.416 L288.178,65.604 C288.178,66.144 288.376,66.198 290.05,66.198 C292.102,66.198 292.588,66.126 292.804,65.82 C292.984,65.568 293.092,65.01 293.182,64.11 C293.56,64.344 293.794,64.452 294.244,64.56 C294.028,65.802 293.83,66.378 293.488,66.702 C293.092,67.062 292.354,67.17 290.248,67.17 C287.566,67.17 287.08,66.972 287.08,65.91 L287.08,64.416 L284.686,64.416 C283.912,66.342 281.914,67.332 278.746,67.404 C278.566,66.954 278.458,66.756 278.152,66.324 C278.548,66.342 278.746,66.342 278.944,66.342 C281.248,66.342 282.886,65.658 283.534,64.416 Z M281.59,59.142 L281.59,60.06 L290.608,60.06 L290.608,59.142 L281.59,59.142 Z M281.59,60.852 L281.59,61.788 L290.608,61.788 L290.608,60.852 L281.59,60.852 Z M281.59,62.58 L281.59,63.588 L290.608,63.588 L290.608,62.58 L281.59,62.58 Z M287.602,56.622 L287.602,55.488 C287.998,55.56 288.448,55.578 289.096,55.578 L291.724,55.578 C292.444,55.578 292.84,55.56 293.254,55.488 L293.254,56.622 C292.786,56.55 292.426,56.532 291.724,56.532 L289.132,56.532 C288.448,56.532 288.016,56.55 287.602,56.622 Z" id="見出し一覧" fill="#333333"></path>
            <path d="M128.832,94.368 L130.176,94.608 C130.112,94.784 130.096,94.88 129.968,95.696 C129.296,100.256 128,103.328 125.744,105.68 C125.344,105.248 125.168,105.104 124.72,104.848 C125.712,103.92 126.368,103.024 127.04,101.68 C127.824,100.096 128.384,98.224 128.688,96.128 C128.784,95.488 128.848,94.912 128.848,94.624 C128.848,94.576 128.848,94.48 128.832,94.368 Z M133.424,94.608 L134.608,94.368 C134.608,95.056 134.96,96.896 135.344,98.208 C136.112,101.024 137.424,103.392 138.976,104.816 C138.544,105.088 138.352,105.264 137.984,105.712 C135.856,103.456 134.256,99.76 133.632,95.664 C133.552,95.104 133.488,94.816 133.424,94.608 Z M135.504,93.92 L136.304,93.52 C137.008,94.4 137.456,95.088 137.904,96.032 L137.088,96.496 C136.72,95.648 135.952,94.416 135.504,93.92 Z M137.344,93.104 L138.128,92.688 C138.832,93.568 139.232,94.208 139.728,95.216 L138.928,95.648 C138.592,94.88 137.952,93.856 137.344,93.104 Z M149.056,97.344 L152.608,97.344 C153.536,97.344 153.92,97.328 154.48,97.232 L154.48,98.48 C153.936,98.416 153.472,98.4 152.624,98.4 L149.008,98.4 C148.88,100.64 148.592,101.84 147.824,103.056 C146.976,104.416 145.744,105.456 143.856,106.4 C143.568,105.904 143.424,105.728 143.04,105.376 C144.912,104.624 146.24,103.52 147.008,102.08 C147.52,101.12 147.696,100.304 147.824,98.4 L143.392,98.4 C142.544,98.4 142.08,98.416 141.536,98.48 L141.536,97.232 C142.112,97.328 142.48,97.344 143.408,97.344 L147.872,97.344 C147.888,96.752 147.888,96.432 147.888,95.936 L147.888,94.784 C147.888,94.144 147.872,93.808 147.808,93.424 L149.152,93.424 C149.088,93.856 149.088,93.888 149.072,94.784 L149.056,95.936 L149.056,97.344 Z M157.392,100.512 L157.392,99.2 C157.856,99.28 158.288,99.296 159.376,99.296 L168.672,99.296 C169.856,99.296 170.112,99.28 170.608,99.216 L170.608,100.512 C170.096,100.464 169.728,100.448 168.656,100.448 L159.376,100.448 C158.208,100.448 157.872,100.464 157.392,100.512 Z M180.848,96.096 L180.144,96.096 C179.392,97.616 178.656,98.752 177.6,100 C177.28,99.568 177.28,99.568 176.8,99.232 C178.048,97.904 178.912,96.576 179.632,94.848 C180.016,93.904 180.256,93.12 180.304,92.576 L181.424,92.944 C181.296,93.232 181.248,93.344 181.104,93.76 C180.88,94.416 180.8,94.624 180.56,95.184 L185.632,95.184 C186.272,95.184 186.624,95.168 187.088,95.088 L187.088,96.176 C186.688,96.112 186.304,96.096 185.632,96.096 L181.872,96.096 L181.872,98.688 L185.12,98.688 C185.712,98.688 186.08,98.656 186.528,98.592 L186.528,99.696 C186.032,99.632 185.664,99.6 185.12,99.6 L181.872,99.6 L181.872,102.192 L185.168,102.192 C185.744,102.192 186.128,102.16 186.576,102.096 L186.576,103.2 C186.144,103.136 185.728,103.104 185.168,103.104 L181.872,103.104 L181.872,105.552 C181.872,106.336 181.904,106.832 181.984,107.232 L180.752,107.232 C180.816,106.848 180.848,106.4 180.848,105.552 L180.848,96.096 Z M176.576,92.576 L177.696,92.944 C177.504,93.376 177.456,93.52 177.328,93.84 C176.96,94.832 176.752,95.296 176.144,96.496 L176.144,105.248 C176.144,105.968 176.176,106.64 176.256,107.168 L175.008,107.168 C175.088,106.544 175.12,105.984 175.12,105.216 L175.12,99.904 C175.12,99.216 175.136,98.784 175.184,97.84 C174.624,98.784 174.128,99.424 173.2,100.368 C172.912,99.904 172.912,99.904 172.528,99.52 C173.936,98.24 175.056,96.656 175.904,94.72 C176.272,93.888 176.48,93.2 176.576,92.576 Z M200.88,97.552 L201.968,97.984 C201.92,98.064 201.76,98.416 201.488,99.056 C200.576,101.184 200.272,101.76 199.36,102.96 C199.856,103.968 200.256,104.48 200.976,105.088 C201.264,105.312 201.52,105.456 201.664,105.456 C201.92,105.456 202.192,104.624 202.384,103.152 C202.72,103.488 202.96,103.68 203.248,103.856 C203.04,104.912 202.912,105.344 202.672,105.808 C202.416,106.32 202.096,106.576 201.68,106.576 C201.264,106.576 200.624,106.208 200,105.584 C199.52,105.12 199.088,104.528 198.672,103.792 C197.36,105.184 196.08,106.112 194.24,106.976 C193.984,106.592 193.824,106.432 193.456,106.16 C195.456,105.36 196.912,104.352 198.208,102.848 C197.472,101.136 197.008,98.864 196.848,96.192 L191.216,96.192 C191.216,97.584 191.2,98.128 191.184,98.8 L194.24,98.8 C194.816,98.8 195.088,98.784 195.44,98.736 C195.392,99.072 195.392,99.072 195.328,100.528 C195.232,102.336 195.072,103.504 194.848,103.968 C194.608,104.464 194.256,104.608 193.36,104.608 C192.784,104.608 192.4,104.576 191.68,104.464 C191.648,104.048 191.616,103.808 191.488,103.424 C192.368,103.616 192.848,103.68 193.376,103.68 C193.904,103.68 194.032,103.536 194.144,102.832 C194.256,102.16 194.336,100.96 194.352,99.696 L191.152,99.696 C191.056,101.744 190.928,102.928 190.64,104.112 C190.368,105.248 190.08,105.936 189.424,106.912 C189.136,106.576 188.912,106.384 188.576,106.192 C189.168,105.36 189.472,104.688 189.696,103.792 C190.048,102.352 190.224,100.192 190.224,97.072 C190.224,96 190.208,95.744 190.128,95.2 C190.688,95.264 191.264,95.28 192.08,95.28 L196.8,95.28 C196.736,93.312 196.72,93.056 196.64,92.688 L197.872,92.688 C197.808,93.008 197.792,93.392 197.792,94 C197.792,94.288 197.792,94.528 197.824,95.28 L201.312,95.28 C202.208,95.28 202.624,95.264 203.024,95.184 L203.024,96.272 C202.528,96.208 202.08,96.192 201.232,96.192 L197.856,96.192 C197.968,98.48 198.32,100.416 198.912,101.952 C199.872,100.576 200.704,98.72 200.88,97.552 Z M201.76,94.352 L201.088,95.024 C200.192,94.208 199.856,93.952 198.784,93.328 L199.472,92.768 C200.528,93.376 200.72,93.504 201.76,94.352 Z M212.864,95.392 C212.624,97.616 212.016,100.064 211.296,101.744 C210.368,103.856 209.424,104.816 208.272,104.816 C206.752,104.816 205.616,103.152 205.616,100.912 C205.616,99.28 206.224,97.696 207.296,96.496 C208.576,95.088 210.32,94.368 212.464,94.368 C214.256,94.368 215.824,94.928 216.864,95.952 C217.872,96.928 218.416,98.32 218.416,99.856 C218.416,102.336 217.072,104.384 214.752,105.376 C214.032,105.68 213.424,105.872 212.32,106.112 C212.16,105.584 212.064,105.424 211.76,105.04 C212.928,104.848 213.68,104.64 214.432,104.288 C216.192,103.488 217.264,101.776 217.264,99.808 C217.264,97.984 216.336,96.512 214.72,95.792 C214.128,95.536 213.664,95.424 212.864,95.392 Z M211.712,95.408 C210.752,95.488 210.064,95.712 209.328,96.16 C207.712,97.136 206.72,98.944 206.72,100.928 C206.72,102.464 207.392,103.648 208.256,103.648 C208.928,103.648 209.568,102.896 210.256,101.328 C210.912,99.824 211.504,97.456 211.712,95.408 Z M227.552,97.456 L227.552,94.912 C225.424,95.184 224.336,95.264 222.304,95.328 C222.208,94.912 222.128,94.752 221.888,94.336 C224.24,94.336 226.368,94.16 228.512,93.824 C230.432,93.504 231.808,93.136 232.592,92.736 L233.472,93.68 C230.912,94.4 230.48,94.496 228.592,94.768 L228.592,97.456 L232.464,97.456 C233.216,97.456 233.696,97.424 234.16,97.36 L234.16,98.48 C233.712,98.416 233.168,98.384 232.464,98.384 L228.592,98.384 L228.592,100.896 L233.168,100.896 C233.904,100.896 234.384,100.864 234.848,100.8 L234.848,101.936 C234.352,101.872 233.888,101.84 233.168,101.84 L228.592,101.84 L228.592,105.536 C228.592,106.528 228.208,106.8 226.848,106.8 C226.224,106.8 225.296,106.752 224.448,106.656 C224.4,106.224 224.336,106.016 224.16,105.552 C225.168,105.728 226.192,105.824 226.88,105.824 C227.392,105.824 227.552,105.712 227.552,105.36 L227.552,101.84 L222.624,101.84 C221.904,101.84 221.424,101.872 220.944,101.936 L220.944,100.8 C221.392,100.864 221.872,100.896 222.624,100.896 L227.552,100.896 L227.552,98.384 L223.52,98.384 C222.88,98.384 222.304,98.416 221.824,98.48 L221.824,97.36 C222.288,97.424 222.768,97.456 223.52,97.456 L227.552,97.456 Z M246.704,94.192 L244.832,94.192 C243.968,94.192 243.648,94.208 243.28,94.272 L243.28,93.2 C243.6,93.264 243.952,93.28 244.832,93.28 L249.68,93.28 C250.432,93.28 250.88,93.248 251.232,93.184 L251.232,94.288 C250.816,94.208 250.432,94.192 249.68,94.192 L247.712,94.192 C247.536,94.784 247.296,95.44 247.088,95.888 L249.088,95.888 C249.824,95.888 250.224,95.872 250.56,95.824 C250.512,96.256 250.496,96.624 250.496,97.28 L250.496,102.464 C250.496,103.104 250.512,103.536 250.56,103.984 C250.064,103.936 249.744,103.92 249.168,103.92 L245.232,103.92 C244.656,103.92 244.288,103.936 243.84,103.984 C243.888,103.552 243.904,103.104 243.904,102.512 L243.904,97.328 C243.904,96.688 243.888,96.256 243.84,95.824 C244.256,95.872 244.544,95.888 245.232,95.888 L246.096,95.888 C246.368,95.312 246.56,94.736 246.704,94.192 Z M244.848,96.736 L244.848,98.256 L249.536,98.256 L249.536,96.736 L244.848,96.736 Z M244.848,99.072 L244.848,100.592 L249.536,100.592 L249.536,99.072 L244.848,99.072 Z M244.848,101.408 L244.848,103.056 L249.536,103.056 L249.536,101.408 L244.848,101.408 Z M237.472,92.992 L238.56,92.992 C238.496,93.392 238.48,93.728 238.48,94.608 L238.48,98.592 C238.48,102.56 238.128,104.816 237.232,106.656 C236.784,106.192 236.752,106.16 236.384,105.92 C236.864,105.056 237.12,104.32 237.28,103.232 C237.456,101.952 237.568,100.304 237.568,98.528 L237.568,94.608 C237.568,93.824 237.536,93.472 237.472,92.992 Z M239.6,93.472 L240.64,93.472 C240.576,93.856 240.576,94.16 240.576,95.12 L240.576,103.136 C240.576,103.904 240.592,104.336 240.64,104.736 L239.584,104.736 C239.632,104.256 239.664,103.856 239.664,103.12 L239.664,95.12 C239.664,94.192 239.648,93.92 239.6,93.472 Z M241.68,93.008 L242.752,93.008 C242.688,93.424 242.672,93.76 242.672,94.896 L242.672,104.752 C242.672,105.888 242.688,106.256 242.736,106.656 L241.68,106.656 C241.744,106.24 241.76,105.872 241.76,104.752 L241.76,94.896 C241.76,93.824 241.744,93.44 241.68,93.008 Z M247.744,104.704 L248.576,104.192 C249.504,105.152 250.224,105.648 251.632,106.256 C251.408,106.496 251.2,106.8 251.024,107.136 C249.552,106.368 248.848,105.856 247.744,104.704 Z M245.536,104.208 L246.416,104.736 C245.44,105.856 244.752,106.416 243.392,107.152 C243.168,106.8 242.992,106.592 242.72,106.368 C244.032,105.776 244.736,105.232 245.536,104.208 Z" id="バナー作成の手順" fill="#333333"></path>
        </g>
    </g>
</svg>