<?xml version="1.0" encoding="UTF-8" standalone="no"?>
<svg width="500px" height="272px" viewBox="0 0 500 272" version="1.1" xmlns="http://www.w3.org/2000/svg" xmlns:xlink="http://www.w3.org/1999/xlink" style="background: #FFFFFF;">
    <!-- Generator: Sketch 49.3 (51167) - http://www.bohemiancoding.com/sketch -->
    <title>1.3.3_ok</title>
    <desc>Created with Sketch.</desc>
    <defs>
        <rect id="path-1" x="128" y="0" width="280" height="40" rx="4"></rect>
        <rect id="path-2" x="128" y="70" width="280" height="40" rx="4"></rect>
    </defs>
    <g id="1.3.3_ok" stroke="none" stroke-width="1" fill="none" fill-rule="evenodd">
        <g id="Group-2" transform="translate(46.000000, 81.000000)">
            <g id="Rectangle-7">
                <use fill="#FFFFFF" fill-rule="evenodd" xlink:href="#path-1"></use>
                <rect stroke="#CCCCCC" stroke-width="1" x="128.5" y="0.5" width="279" height="39" rx="4"></rect>
            </g>
            <g id="Rectangle-7-Copy">
                <use fill="#FFFFFF" fill-rule="evenodd" xlink:href="#path-2"></use>
                <rect stroke="#CCCCCC" stroke-width="1" x="128.5" y="70.5" width="279" height="39" rx="4"></rect>
            </g>
            <path d="M15.158,15.138 L15.212,16.344 C14.996,16.38 14.924,16.398 14.672,16.452 C13.196,16.758 12.332,16.902 11.486,16.992 L11.486,20.106 C13.052,19.638 14.15,19.458 15.356,19.458 C16.634,19.458 17.714,19.71 18.542,20.214 C19.73,20.916 20.396,22.068 20.396,23.4 C20.396,25.506 18.794,27.126 16.724,27.126 C15.302,27.126 14.294,26.388 13.952,25.092 C13.79,24.498 13.718,23.958 13.736,23.058 C14.294,22.914 14.474,22.842 14.924,22.59 C14.888,22.914 14.888,23.076 14.888,23.292 C14.888,25.164 15.428,25.938 16.742,25.938 C18.146,25.938 19.154,24.876 19.154,23.4 C19.154,21.636 17.66,20.538 15.302,20.538 C14.15,20.538 12.998,20.754 11.486,21.24 L11.486,25.74 C11.486,26.712 11.054,27.18 10.172,27.18 C9.164,27.18 7.994,26.73 7.202,26.028 C6.644,25.542 6.374,24.984 6.374,24.336 C6.374,23.544 6.824,22.77 7.796,21.942 C8.462,21.384 9.2,20.952 10.334,20.466 L10.334,17.064 C10.172,17.082 10.172,17.082 9.614,17.118 C9.29,17.136 8.984,17.136 8.462,17.136 C8.192,17.136 7.706,17.136 7.508,17.118 L6.77,17.118 L6.77,15.93 C7.292,16.02 7.796,16.056 8.606,16.056 C9.092,16.056 9.794,16.038 10.334,16.002 L10.334,14.22 C10.334,13.5 10.316,13.05 10.244,12.51 L11.576,12.51 C11.504,13.014 11.486,13.356 11.486,14.184 L11.486,15.912 C13.034,15.714 14.168,15.48 15.158,15.138 Z M10.334,25.074 L10.334,21.654 C8.552,22.518 7.544,23.49 7.544,24.354 C7.544,24.732 7.796,25.092 8.318,25.434 C8.804,25.74 9.452,25.956 9.92,25.956 C10.28,25.956 10.334,25.848 10.334,25.074 Z M21.152,17.46 L20.216,18.27 C19.262,16.938 17.984,15.696 16.58,14.742 L17.516,14.04 C19.172,15.21 20.072,16.074 21.152,17.46 Z M28.1,17.352 L28.946,16.704 C30.26,17.532 30.674,17.82 31.592,18.63 C33.014,17.37 33.842,16.452 35.066,14.796 L29.684,14.796 C28.316,16.38 26.822,17.622 24.752,18.882 C24.536,18.54 24.374,18.324 23.996,18.018 C25.814,17.01 27.236,15.894 28.442,14.562 C29.468,13.41 30.098,12.528 30.44,11.7 L31.664,12.168 C30.836,13.338 30.836,13.338 30.494,13.788 L34.454,13.788 C35.156,13.788 35.642,13.752 36.128,13.698 L36.776,14.472 C36.578,14.688 36.488,14.814 36.164,15.246 C34.562,17.424 32.798,19.188 30.368,20.988 L36.974,20.988 C37.55,20.988 37.892,20.97 38.27,20.916 C38.198,21.348 38.18,21.78 38.18,22.356 L38.18,26.712 C38.18,27.27 38.216,27.918 38.288,28.314 L37.028,28.314 L37.028,27.306 L29.504,27.306 L29.504,28.314 L28.244,28.314 C28.316,27.846 28.352,27.198 28.352,26.712 L28.352,22.356 C27.128,23.13 26.03,23.706 24.338,24.462 C24.14,24.03 23.996,23.796 23.618,23.4 C26.408,22.338 28.478,21.15 30.71,19.35 C29.828,18.504 29.378,18.162 28.1,17.352 Z M29.504,22.032 L29.504,26.298 L37.028,26.298 L37.028,22.032 L29.504,22.032 Z M43.472,14.652 L47,14.652 C46.388,13.662 46.046,13.212 45.074,12.15 L46.154,11.718 C47.414,13.23 47.594,13.482 48.242,14.652 L50.816,14.652 C51.698,13.68 52.202,12.978 52.85,11.736 L54.002,12.168 C53.282,13.23 52.652,14.022 52.058,14.652 L55.748,14.652 C56.558,14.652 57.062,14.616 57.548,14.544 L57.548,15.768 C57.026,15.696 56.522,15.66 55.748,15.66 L43.472,15.66 C42.716,15.66 42.23,15.696 41.672,15.768 L41.672,14.544 C42.248,14.634 42.248,14.634 43.472,14.652 Z M44.03,24.156 L44.03,26.316 C44.03,27.27 44.066,27.774 44.138,28.224 L42.824,28.224 C42.896,27.72 42.914,27.18 42.914,26.28 L42.914,18.72 C42.914,17.838 42.896,17.532 42.86,17.118 C43.454,17.172 43.886,17.19 44.606,17.19 L47.432,17.19 C48.422,17.19 48.692,17.172 49.07,17.118 C49.034,17.532 49.016,18 49.016,19.026 L49.016,26.658 C49.016,27.738 48.674,28.044 47.504,28.044 C47.126,28.044 46.694,28.026 46.01,27.972 C45.92,27.45 45.884,27.306 45.722,26.856 C46.37,26.982 46.892,27.036 47.288,27.036 C47.81,27.036 47.918,26.946 47.918,26.568 L47.918,24.156 L44.03,24.156 Z M44.03,23.148 L47.918,23.148 L47.918,21.204 L44.03,21.204 L44.03,23.148 Z M44.03,20.196 L47.918,20.196 L47.918,18.216 L44.03,18.216 L44.03,20.196 Z M51.302,17.334 L52.598,17.334 C52.526,17.766 52.508,18.054 52.508,19.026 L52.508,22.68 C52.508,24.048 52.508,24.282 52.58,24.714 L51.32,24.714 C51.374,24.264 51.392,23.958 51.392,22.698 L51.392,19.026 C51.392,18.108 51.374,17.838 51.302,17.334 Z M55.1,16.794 L56.468,16.794 C56.378,17.262 56.36,17.748 56.36,18.738 L56.36,26.532 C56.36,27.792 55.982,28.116 54.506,28.116 C53.894,28.116 53.3,28.08 52.4,28.008 C52.328,27.558 52.256,27.27 52.058,26.802 C53.012,26.964 53.786,27.036 54.38,27.036 C55.082,27.036 55.208,26.964 55.208,26.496 L55.208,18.702 C55.208,17.622 55.19,17.298 55.1,16.794 Z M64.478,29.142 L63.344,29.862 C62.3,28.26 61.868,27.396 61.436,26.1 C60.95,24.642 60.698,23.094 60.698,21.42 C60.698,19.746 60.95,18.198 61.436,16.74 C61.868,15.462 62.3,14.598 63.344,12.996 L64.478,13.716 C63.47,15.264 63.074,16.074 62.678,17.352 C62.264,18.648 62.066,19.998 62.066,21.42 C62.066,22.842 62.264,24.21 62.678,25.506 C63.074,26.784 63.47,27.594 64.478,29.142 Z M71.588,24.498 L71.588,26.118 C71.588,26.73 72.092,26.874 74.342,26.874 C75.458,26.874 76.286,26.802 76.7,26.676 C77.168,26.532 77.33,26.28 77.492,25.326 C77.618,24.606 77.654,24.12 77.69,22.842 C78.158,23.094 78.428,23.202 78.878,23.292 C78.644,26.118 78.356,27.126 77.654,27.522 C77.132,27.828 76.16,27.936 74.198,27.936 C71.138,27.936 70.436,27.648 70.436,26.388 L70.436,25.344 C69.032,26.388 68.312,26.856 66.638,27.756 C66.368,27.306 66.188,27.09 65.756,26.748 C67.646,25.884 68.744,25.236 70.436,23.94 L70.436,17.586 C70.436,17.01 70.4,16.614 70.31,15.876 L71.714,15.876 C71.624,16.398 71.588,16.902 71.588,17.568 L71.588,23.076 C73.046,21.762 73.946,20.79 75.188,19.098 C76.79,16.92 77.888,14.886 78.284,13.266 L79.58,13.806 C79.382,14.166 79.328,14.274 78.986,14.994 C77.708,17.676 76.25,19.818 74.09,22.158 C73.28,23.058 72.884,23.418 71.588,24.498 Z M70.364,12.816 L71.066,11.916 C73.406,12.852 74.594,13.482 76.43,14.706 L75.692,15.732 C74.054,14.49 72.74,13.77 70.364,12.816 Z M67.7,17.694 L68.87,18.018 C68.294,20.97 67.862,22.356 66.764,24.714 L65.666,24.066 C66.278,22.932 66.512,22.41 66.872,21.276 C67.304,19.962 67.466,19.242 67.7,17.694 Z M78.41,18.396 L79.418,17.838 C80.66,19.836 81.488,21.618 82.406,24.318 L81.272,24.984 C80.786,23.292 80.48,22.428 79.886,21.096 C79.418,20.016 79.13,19.512 78.41,18.396 Z M94.052,13.734 L91.622,13.734 C90.812,13.734 90.38,13.752 89.894,13.824 L89.894,12.6 C90.398,12.672 90.956,12.708 91.694,12.708 L98.156,12.708 C98.894,12.708 99.488,12.672 99.992,12.6 L99.992,13.824 C99.614,13.752 99.182,13.734 98.21,13.734 L95.222,13.734 C94.97,14.436 94.7,15.066 94.43,15.606 L97.418,15.606 C98.21,15.606 98.678,15.588 99.074,15.534 C99.02,15.984 99.002,16.47 99.002,17.244 L99.002,23.04 C99.002,23.796 99.02,24.318 99.074,24.804 C98.606,24.75 98.102,24.732 97.454,24.732 L92,24.732 C91.352,24.732 90.938,24.75 90.434,24.804 C90.488,24.282 90.506,23.742 90.506,23.094 L90.506,17.154 C90.506,16.524 90.488,16.038 90.434,15.534 C90.866,15.588 91.172,15.606 91.964,15.606 L93.26,15.606 C93.602,14.976 93.836,14.418 94.052,13.734 Z M91.604,16.56 L91.604,18.288 L97.904,18.288 L97.904,16.56 L91.604,16.56 Z M91.604,19.224 L91.604,20.952 L97.904,20.952 L97.904,19.224 L91.604,19.224 Z M91.604,21.888 L91.604,23.76 L97.904,23.76 L97.904,21.888 L91.604,21.888 Z M88.526,12.114 L89.57,12.888 C89.408,13.032 89.408,13.032 89.084,13.356 C87.554,14.85 86.132,15.912 84.458,16.812 C84.296,16.434 84.026,16.02 83.81,15.75 C85.412,15.03 86.528,14.256 87.752,13.032 C88.148,12.636 88.328,12.438 88.526,12.114 Z M88.886,21.852 L89.912,22.68 C87.86,25.146 86.492,26.352 84.332,27.594 C84.134,27.162 83.936,26.874 83.63,26.532 C85.34,25.722 86.546,24.768 88.004,23.094 C88.436,22.608 88.652,22.284 88.886,21.852 Z M95.492,25.578 L96.392,24.948 C97.652,26.118 98.534,26.64 100.352,27.27 C100.082,27.576 99.884,27.9 99.704,28.26 C97.85,27.504 96.806,26.856 95.492,25.578 Z M88.76,16.776 L89.732,17.604 C89.48,17.838 89.48,17.838 88.868,18.45 C87.392,19.908 85.97,20.952 84.368,21.762 C84.188,21.33 84.062,21.114 83.756,20.682 C85.358,19.98 86.42,19.242 87.86,17.838 C88.328,17.37 88.544,17.1 88.76,16.776 Z M92.45,25.002 L93.26,25.686 C91.784,26.982 90.83,27.54 88.868,28.296 C88.706,27.99 88.49,27.684 88.202,27.36 C90.182,26.712 91.154,26.172 92.45,25.002 Z M101.504,13.716 L102.638,12.996 C103.682,14.598 104.114,15.462 104.546,16.74 C105.05,18.198 105.284,19.746 105.284,21.42 C105.284,23.112 105.05,24.642 104.546,26.1 C104.114,27.396 103.682,28.26 102.638,29.862 L101.504,29.142 C102.512,27.594 102.908,26.784 103.304,25.506 C103.718,24.21 103.916,22.86 103.916,21.42 C103.916,19.98 103.718,18.648 103.304,17.352 C102.908,16.074 102.512,15.264 101.504,13.716 Z" id="お名前(必須)" fill="#333333"></path>
            <path d="M4.068,84.56 L4.068,83.102 C4.662,83.192 5.058,83.21 5.994,83.21 L12.87,83.21 C13.806,83.21 14.202,83.192 14.796,83.102 L14.796,84.56 C14.256,84.506 13.77,84.488 12.888,84.488 L5.976,84.488 C5.094,84.488 4.608,84.506 4.068,84.56 Z M2.25,93.164 L2.25,91.652 C2.898,91.742 3.276,91.76 4.338,91.76 L14.544,91.76 C15.606,91.76 15.984,91.742 16.632,91.652 L16.632,93.164 C16.038,93.092 15.516,93.074 14.562,93.074 L4.32,93.074 C3.366,93.074 2.862,93.092 2.25,93.164 Z M21.816,85.496 L22.95,85.118 C23.67,86.36 24.066,87.206 24.732,89.114 L23.508,89.528 C23.076,87.944 22.572,86.738 21.816,85.496 Z M25.524,84.74 L26.622,84.398 C27.576,86.108 27.9,86.828 28.368,88.268 L27.18,88.682 C26.856,87.404 26.298,86.09 25.524,84.74 Z M31.77,84.722 L33.102,85.01 C32.994,85.298 32.994,85.298 32.706,86.468 C32.418,87.728 31.77,89.384 31.122,90.5 C29.844,92.696 27.954,94.352 25.164,95.702 C24.894,95.252 24.75,95.072 24.336,94.694 C27.108,93.452 28.8,92.066 30.042,89.996 C30.726,88.862 31.248,87.512 31.572,86.126 C31.698,85.532 31.77,85.118 31.77,84.902 L31.77,84.722 Z M44.1,80.33 L45.576,80.708 C45.414,80.942 45.414,80.942 45.18,81.446 C44.712,82.418 44.55,82.724 44.352,83.048 C44.586,82.994 44.586,82.994 49.788,82.904 C50.418,82.904 50.472,82.886 50.724,82.778 L51.498,83.534 C51.336,83.75 51.336,83.768 51.138,84.416 C50.382,86.954 49.068,89.402 47.538,91.184 C45.882,93.074 43.902,94.496 41.274,95.684 C40.986,95.162 40.842,94.982 40.374,94.622 C43.092,93.506 45,92.138 46.728,90.068 C48.114,88.394 49.194,86.288 49.824,84.038 L43.758,84.146 C42.66,85.91 41.22,87.494 39.456,88.826 C39.15,88.376 38.97,88.214 38.448,87.89 C40.356,86.648 41.724,85.154 42.966,82.958 C43.65,81.77 44.01,80.96 44.1,80.33 Z M64.008,95.936 L62.55,95.936 C62.622,95.504 62.658,95.036 62.658,94.406 L62.658,89.33 C62.658,89.24 62.658,89.222 62.676,89.132 C61.524,89.96 59.184,90.968 56.592,91.76 C56.358,91.184 56.268,91.004 55.926,90.572 C58.104,90.014 59.382,89.564 61.128,88.718 C63.432,87.602 65.43,86.144 67.176,84.272 C66.708,84.308 66.42,84.326 66.15,84.326 L59.274,84.362 C58.464,84.362 58.032,84.38 57.528,84.434 L57.528,83.084 C57.996,83.174 58.518,83.21 59.274,83.21 L62.622,83.21 L62.622,81.59 C62.622,80.996 62.604,80.726 62.55,80.366 L63.99,80.366 C63.918,80.744 63.9,81.014 63.9,81.554 L63.9,83.21 L67.68,83.21 C68.058,83.21 68.238,83.174 68.472,83.084 L69.138,83.876 C68.868,84.11 68.832,84.146 68.652,84.362 C67.446,85.784 66.51,86.63 64.476,88.088 C67.248,89.15 68.778,89.888 71.064,91.22 L70.326,92.408 C68.832,91.4 67.266,90.554 64.386,89.258 C64.296,89.222 64.116,89.132 63.864,88.988 C63.918,89.258 63.936,89.474 63.936,89.906 L63.936,94.37 C63.936,95.162 63.936,95.45 64.008,95.936 Z M74.016,88.826 L74.016,87.35 C74.538,87.44 75.024,87.458 76.248,87.458 L86.706,87.458 C88.038,87.458 88.326,87.44 88.884,87.368 L88.884,88.826 C88.308,88.772 87.894,88.754 86.688,88.754 L76.248,88.754 C74.934,88.754 74.556,88.772 74.016,88.826 Z M97.11,80.69 L98.694,81.068 C98.514,81.41 98.388,81.77 98.208,82.364 C96.894,86.684 95.67,90.14 94.464,92.894 C96.858,92.732 101.088,92.174 103.212,91.76 C102.258,89.87 101.322,88.322 100.44,87.098 L101.556,86.486 C102.996,88.466 104.796,91.724 106.038,94.622 L104.778,95.306 C104.382,94.28 104.13,93.704 103.716,92.876 C100.692,93.47 97.11,93.956 92.646,94.37 C91.962,94.424 91.458,94.496 91.116,94.568 L90.936,93.074 C91.35,93.092 91.35,93.092 91.44,93.092 C91.566,93.092 92.556,93.038 92.97,93.002 C94.086,90.482 94.806,88.574 95.688,85.874 C96.57,83.156 96.966,81.716 97.11,80.69 Z" id="ニックネーム" fill="#333333"></path>
        </g>
    </g>
</svg>