<?xml version="1.0" encoding="UTF-8" standalone="no"?>
<svg width="500px" height="272px" viewBox="0 0 500 272" version="1.1" xmlns="http://www.w3.org/2000/svg" xmlns:xlink="http://www.w3.org/1999/xlink" style="background: #FFFFFF;">
    <!-- Generator: Sketch 49.3 (51167) - http://www.bohemiancoding.com/sketch -->
    <title>1.3.3_ng_01</title>
    <desc>Created with Sketch.</desc>
    <defs>
        <rect id="path-1" x="128" y="67" width="280" height="40" rx="4"></rect>
        <rect id="path-2" x="128" y="135" width="280" height="40" rx="4"></rect>
    </defs>
    <g id="1.3.3_ng_01" stroke="none" stroke-width="1" fill="none" fill-rule="evenodd">
        <g id="Group-2" transform="translate(46.000000, 49.000000)">
            <g id="Rectangle-7">
                <use fill="#FFFFFF" fill-rule="evenodd" xlink:href="#path-1"></use>
                <rect stroke="#CCCCCC" stroke-width="1" x="128.5" y="67.5" width="279" height="39" rx="4"></rect>
            </g>
            <g id="Rectangle-7-Copy">
                <use fill="#FFFFFF" fill-rule="evenodd" xlink:href="#path-2"></use>
                <rect stroke="#CCCCCC" stroke-width="1" x="128.5" y="135.5" width="279" height="39" rx="4"></rect>
            </g>
            <path d="M64.566,82.138 L64.62,83.344 C64.404,83.38 64.332,83.398 64.08,83.452 C62.604,83.758 61.74,83.902 60.894,83.992 L60.894,87.106 C62.46,86.638 63.558,86.458 64.764,86.458 C66.042,86.458 67.122,86.71 67.95,87.214 C69.138,87.916 69.804,89.068 69.804,90.4 C69.804,92.506 68.202,94.126 66.132,94.126 C64.71,94.126 63.702,93.388 63.36,92.092 C63.198,91.498 63.126,90.958 63.144,90.058 C63.702,89.914 63.882,89.842 64.332,89.59 C64.296,89.914 64.296,90.076 64.296,90.292 C64.296,92.164 64.836,92.938 66.15,92.938 C67.554,92.938 68.562,91.876 68.562,90.4 C68.562,88.636 67.068,87.538 64.71,87.538 C63.558,87.538 62.406,87.754 60.894,88.24 L60.894,92.74 C60.894,93.712 60.462,94.18 59.58,94.18 C58.572,94.18 57.402,93.73 56.61,93.028 C56.052,92.542 55.782,91.984 55.782,91.336 C55.782,90.544 56.232,89.77 57.204,88.942 C57.87,88.384 58.608,87.952 59.742,87.466 L59.742,84.064 C59.58,84.082 59.58,84.082 59.022,84.118 C58.698,84.136 58.392,84.136 57.87,84.136 C57.6,84.136 57.114,84.136 56.916,84.118 L56.178,84.118 L56.178,82.93 C56.7,83.02 57.204,83.056 58.014,83.056 C58.5,83.056 59.202,83.038 59.742,83.002 L59.742,81.22 C59.742,80.5 59.724,80.05 59.652,79.51 L60.984,79.51 C60.912,80.014 60.894,80.356 60.894,81.184 L60.894,82.912 C62.442,82.714 63.576,82.48 64.566,82.138 Z M59.742,92.074 L59.742,88.654 C57.96,89.518 56.952,90.49 56.952,91.354 C56.952,91.732 57.204,92.092 57.726,92.434 C58.212,92.74 58.86,92.956 59.328,92.956 C59.688,92.956 59.742,92.848 59.742,92.074 Z M70.56,84.46 L69.624,85.27 C68.67,83.938 67.392,82.696 65.988,81.742 L66.924,81.04 C68.58,82.21 69.48,83.074 70.56,84.46 Z M77.508,84.352 L78.354,83.704 C79.668,84.532 80.082,84.82 81,85.63 C82.422,84.37 83.25,83.452 84.474,81.796 L79.092,81.796 C77.724,83.38 76.23,84.622 74.16,85.882 C73.944,85.54 73.782,85.324 73.404,85.018 C75.222,84.01 76.644,82.894 77.85,81.562 C78.876,80.41 79.506,79.528 79.848,78.7 L81.072,79.168 C80.244,80.338 80.244,80.338 79.902,80.788 L83.862,80.788 C84.564,80.788 85.05,80.752 85.536,80.698 L86.184,81.472 C85.986,81.688 85.896,81.814 85.572,82.246 C83.97,84.424 82.206,86.188 79.776,87.988 L86.382,87.988 C86.958,87.988 87.3,87.97 87.678,87.916 C87.606,88.348 87.588,88.78 87.588,89.356 L87.588,93.712 C87.588,94.27 87.624,94.918 87.696,95.314 L86.436,95.314 L86.436,94.306 L78.912,94.306 L78.912,95.314 L77.652,95.314 C77.724,94.846 77.76,94.198 77.76,93.712 L77.76,89.356 C76.536,90.13 75.438,90.706 73.746,91.462 C73.548,91.03 73.404,90.796 73.026,90.4 C75.816,89.338 77.886,88.15 80.118,86.35 C79.236,85.504 78.786,85.162 77.508,84.352 Z M78.912,89.032 L78.912,93.298 L86.436,93.298 L86.436,89.032 L78.912,89.032 Z M92.88,81.652 L96.408,81.652 C95.796,80.662 95.454,80.212 94.482,79.15 L95.562,78.718 C96.822,80.23 97.002,80.482 97.65,81.652 L100.224,81.652 C101.106,80.68 101.61,79.978 102.258,78.736 L103.41,79.168 C102.69,80.23 102.06,81.022 101.466,81.652 L105.156,81.652 C105.966,81.652 106.47,81.616 106.956,81.544 L106.956,82.768 C106.434,82.696 105.93,82.66 105.156,82.66 L92.88,82.66 C92.124,82.66 91.638,82.696 91.08,82.768 L91.08,81.544 C91.656,81.634 91.656,81.634 92.88,81.652 Z M93.438,91.156 L93.438,93.316 C93.438,94.27 93.474,94.774 93.546,95.224 L92.232,95.224 C92.304,94.72 92.322,94.18 92.322,93.28 L92.322,85.72 C92.322,84.838 92.304,84.532 92.268,84.118 C92.862,84.172 93.294,84.19 94.014,84.19 L96.84,84.19 C97.83,84.19 98.1,84.172 98.478,84.118 C98.442,84.532 98.424,85 98.424,86.026 L98.424,93.658 C98.424,94.738 98.082,95.044 96.912,95.044 C96.534,95.044 96.102,95.026 95.418,94.972 C95.328,94.45 95.292,94.306 95.13,93.856 C95.778,93.982 96.3,94.036 96.696,94.036 C97.218,94.036 97.326,93.946 97.326,93.568 L97.326,91.156 L93.438,91.156 Z M93.438,90.148 L97.326,90.148 L97.326,88.204 L93.438,88.204 L93.438,90.148 Z M93.438,87.196 L97.326,87.196 L97.326,85.216 L93.438,85.216 L93.438,87.196 Z M100.71,84.334 L102.006,84.334 C101.934,84.766 101.916,85.054 101.916,86.026 L101.916,89.68 C101.916,91.048 101.916,91.282 101.988,91.714 L100.728,91.714 C100.782,91.264 100.8,90.958 100.8,89.698 L100.8,86.026 C100.8,85.108 100.782,84.838 100.71,84.334 Z M104.508,83.794 L105.876,83.794 C105.786,84.262 105.768,84.748 105.768,85.738 L105.768,93.532 C105.768,94.792 105.39,95.116 103.914,95.116 C103.302,95.116 102.708,95.08 101.808,95.008 C101.736,94.558 101.664,94.27 101.466,93.802 C102.42,93.964 103.194,94.036 103.788,94.036 C104.49,94.036 104.616,93.964 104.616,93.496 L104.616,85.702 C104.616,84.622 104.598,84.298 104.508,83.794 Z" id="お名前" fill="#F24C3B"></path>
            <path d="M10,8.7 L17.1,1.6 L17.74,2.26 L10.64,9.4 L17.74,16.5 L17.1,17.16 L10,10.12 L2.92,17.16 L2.26,16.5 L9.36,9.4 L2.26,2.26 L2.92,1.6 L10,8.7 Z M10.02,2.08 C10.86,2.08 11.54,2.76 11.54,3.6 C11.54,4.46 10.86,5.14 10.02,5.14 C9.18,5.14 8.48,4.44 8.48,3.6 C8.48,2.76 9.18,2.08 10.02,2.08 Z M4.28,7.86 C5.12,7.86 5.8,8.54 5.8,9.38 C5.8,10.24 5.12,10.92 4.28,10.92 C3.44,10.92 2.74,10.22 2.74,9.38 C2.74,8.54 3.42,7.86 4.28,7.86 Z M15.72,7.88 C16.56,7.88 17.24,8.56 17.24,9.4 C17.24,10.24 16.56,10.92 15.72,10.92 C14.88,10.92 14.2,10.24 14.2,9.4 C14.2,8.56 14.88,7.88 15.72,7.88 Z M10,13.68 C10.84,13.68 11.52,14.36 11.52,15.22 C11.52,16.06 10.82,16.76 10,16.76 C9.2,16.76 8.46,16.02 8.46,15.22 C8.46,14.46 9.18,13.68 9.86,13.68 L9.92,13.68 C9.94,13.7 9.94,13.7 9.96,13.7 L10,13.68 Z M27.46,8.04 L23.4,8.04 C22.56,8.04 21.92,8.08 21.32,8.16 L21.32,6.76 C21.84,6.84 22.48,6.88 23.4,6.88 L29.2,6.88 L29.2,4.06 L24.72,4.06 C23.9,4.06 23.42,4.08 22.86,4.16 L22.86,2.78 C23.38,2.86 23.84,2.88 24.72,2.88 L29.2,2.88 L29.2,2.14 C29.2,1.24 29.18,0.88 29.08,0.38 L30.62,0.38 C30.52,0.78 30.48,1.32 30.48,2.14 L30.48,2.88 L35.4,2.88 C36.28,2.88 36.74,2.86 37.26,2.78 L37.26,4.16 C36.7,4.08 36.24,4.06 35.4,4.06 L30.48,4.06 L30.48,6.88 L36.76,6.88 C37.68,6.88 38.32,6.84 38.84,6.76 L38.84,8.16 C38.24,8.08 37.6,8.04 36.76,8.04 L32.8,8.04 L32.8,16.7 C32.8,17.82 32.28,18.2 30.76,18.2 C30.16,18.2 29.48,18.18 28.64,18.1 C28.56,17.62 28.5,17.34 28.32,16.78 C29.1,16.92 29.82,16.98 30.5,16.98 C31.32,16.98 31.52,16.88 31.52,16.46 L31.52,8.04 L28.76,8.04 C28.64,10.66 28.36,12.34 27.82,13.66 C26.94,15.78 25.62,17.08 23,18.5 C22.68,18 22.44,17.74 22,17.4 C24.6,16.24 25.82,15.12 26.62,13.18 C27.14,11.92 27.32,10.78 27.46,8.04 Z M23.9,9.22 L25.14,9.68 C24.7,11.06 24.44,11.72 23.88,12.68 C23.38,13.56 23.04,14.04 22.22,14.98 C21.8,14.6 21.56,14.44 21.06,14.18 C21.84,13.38 22.18,12.98 22.64,12.24 C23.24,11.28 23.52,10.62 23.9,9.22 Z M34.58,9.62 L35.8,9.16 C36.64,11.76 37.3,12.98 38.92,14.86 C38.38,15.14 38.12,15.34 37.68,15.7 C36.12,13.52 35.48,12.28 34.58,9.62 Z M43.88,1.4 L45.46,1.64 C45.16,2.5 44.92,3.48 44.62,4.84 C44.2,6.94 44.02,8.7 44.02,11.1 C44.02,12.66 44.06,13.84 44.14,14.9 C44.42,13.56 44.8,12.46 45.44,11 L46.4,11.46 C45.5,13.44 44.78,15.84 44.78,16.96 L44.78,17.26 L43.34,17.38 C43.3,17.06 43.28,16.96 43.22,16.58 C42.84,14.46 42.7,13.02 42.7,10.92 C42.7,8.08 42.94,5.96 43.6,3 C43.8,2.06 43.84,1.86 43.88,1.4 Z M48,5.18 L48.02,3.76 C48.88,3.98 49.86,4.06 51.42,4.06 C53.64,4.06 55.44,3.88 56.78,3.52 L56.88,4.94 C56.84,4.94 56.38,5 55.5,5.12 C54.34,5.28 52.74,5.38 51.2,5.38 C50.08,5.38 49.3,5.32 48,5.18 Z M49.46,9.08 L50.56,9.68 C49.56,10.78 49.06,11.74 49.06,12.62 C49.06,14.1 50.32,14.82 52.9,14.82 C54.72,14.82 56.42,14.56 57.5,14.12 L57.7,15.66 C57.44,15.68 57.4,15.7 57,15.76 C55.6,16.04 54.26,16.16 52.9,16.16 C50.62,16.16 49.18,15.68 48.32,14.64 C47.92,14.14 47.72,13.54 47.72,12.8 C47.72,11.58 48.22,10.5 49.46,9.08 Z M66.6,0.78 L68.18,1 C68.04,1.38 68.02,1.46 67.86,2.28 C67.72,2.96 67.6,3.44 67.32,4.46 C68.72,4.34 69.98,4.1 70.9,3.8 L70.96,5.18 C70.74,5.22 70.74,5.22 70.26,5.3 C69.44,5.48 68.2,5.64 66.98,5.72 C66.36,7.86 65.64,9.72 64.76,11.56 C64.28,12.52 64.1,12.86 63.34,14.18 C63.16,14.46 63.04,14.7 62.94,14.86 L61.58,14.06 C62.22,13.26 62.76,12.38 63.5,10.94 C64.42,9.12 65,7.68 65.58,5.78 C65.08,5.8 64.4,5.82 64.1,5.82 C63.76,5.82 63.08,5.8 62.78,5.8 C62.56,5.78 62.4,5.78 62.34,5.78 L62.08,5.78 L62.1,4.4 C62.78,4.52 63.38,4.56 64.48,4.56 C64.88,4.56 65.54,4.54 65.92,4.54 C66.24,3.4 66.56,1.7 66.6,0.78 Z M78.38,6.3 L77.66,7.5 C75.98,6.34 74.46,5.54 72.36,4.78 L73.1,3.66 C75.42,4.58 76.76,5.26 78.38,6.3 Z M78.42,15.16 L77.68,16.52 C76.9,15.56 75.64,14.56 74.18,13.8 C74.22,14.12 74.22,14.24 74.22,14.44 C74.22,16.5 72.86,17.64 70.42,17.64 C68.02,17.64 66.52,16.52 66.52,14.74 C66.52,13.66 67.26,12.66 68.38,12.2 C69.08,11.9 69.84,11.76 70.74,11.76 C71.48,11.76 71.98,11.84 72.76,12.06 C72.66,10.76 72.62,9.82 72.62,9.32 C72.62,8.6 72.66,8.12 72.82,7.38 L74.18,7.52 C73.98,8.26 73.92,8.68 73.92,9.38 C73.92,10.28 74.02,11.66 74.14,12.42 C75.74,13.12 76.98,13.88 78.06,14.84 C78.28,15.06 78.28,15.06 78.42,15.16 Z M72.86,13.34 C72.02,13.04 71.44,12.94 70.64,12.94 C68.94,12.94 67.86,13.64 67.86,14.74 C67.86,15.76 68.82,16.38 70.4,16.38 C72.12,16.38 72.9,15.7 72.9,14.2 C72.9,13.96 72.86,13.34 72.86,13.34 Z M83.64,10.34 L83.28,8.88 C83.78,8.84 83.88,8.82 85.12,8.52 C87.74,7.9 89.5,7.64 91.22,7.64 C93.28,7.64 94.7,8.26 95.46,9.5 C95.86,10.14 96.08,10.96 96.08,11.78 C96.08,14.02 94.28,16.06 91.5,16.94 C90.28,17.32 89.8,17.4 87.38,17.7 C87.26,17.14 87.18,16.94 86.86,16.32 C86.98,16.34 87.06,16.34 87.14,16.34 C88.38,16.34 89.94,16.1 91.08,15.72 C93.36,14.98 94.74,13.46 94.74,11.68 C94.74,9.86 93.46,8.88 91.04,8.88 C89.7,8.88 88.16,9.12 85.78,9.68 C84.56,9.96 84.24,10.06 83.64,10.34 Z M101.46,5.38 L101.36,3.8 L102.08,3.8 C102.36,3.8 102.6,3.78 103.22,3.74 C105.6,3.56 112,3.2 114.58,3.08 C115.7,3.04 116.64,2.96 116.96,2.86 L117.08,4.36 C116.28,4.36 115.6,4.44 114.84,4.62 C113.5,4.98 112.1,5.7 111,6.64 C109.4,7.98 108.54,9.6 108.54,11.26 C108.54,12.94 109.56,14.28 111.34,14.96 C112.32,15.32 113.58,15.6 114.34,15.6 L114.54,15.6 L114.28,17.22 C114.06,17.18 113.98,17.16 113.66,17.1 C111.68,16.76 110.48,16.34 109.34,15.56 C107.92,14.6 107.12,13.12 107.12,11.48 C107.12,9.16 108.48,6.94 110.86,5.34 C111.48,4.92 112,4.64 112.76,4.28 C111.58,4.48 110.58,4.58 108.36,4.72 C104.22,5 102.44,5.16 101.46,5.38 Z M122.12,2.82 L123.8,2.84 C123.7,3.46 123.66,4.12 123.66,5.22 C123.66,7.42 123.88,10.16 124.18,11.44 C124.62,13.48 125.44,14.86 126.2,14.86 C126.56,14.86 126.9,14.52 127.2,13.86 C127.66,12.86 127.98,11.8 128.24,10.44 C128.68,10.96 128.86,11.14 129.42,11.58 C128.44,15.08 127.52,16.42 126.1,16.42 C124.98,16.42 123.94,15.3 123.26,13.38 C122.56,11.48 122.28,8.92 122.18,4 C122.16,3.24 122.16,3.18 122.12,2.82 Z M132.24,4.52 L133.46,3.9 C134.76,5.44 135.58,6.76 136.32,8.46 C137.08,10.14 137.46,11.56 137.82,13.8 L136.4,14.38 C136.04,10.66 134.58,7.24 132.24,4.52 Z M144.22,3.6 L144.14,2.1 C144.7,2.2 145.06,2.22 146.02,2.22 C147.68,2.22 150.34,2.1 152.14,1.96 C152.66,1.92 152.84,1.88 153.1,1.74 L153.94,2.84 C153.66,2.98 153.56,3.06 152.92,3.68 C150.16,6.38 147.74,8.46 146.34,9.36 L146.38,9.42 C147.9,8.6 149.52,8.18 151.28,8.18 C154.62,8.18 156.76,9.82 156.76,12.38 C156.76,15.5 153.86,17.56 149.42,17.56 C146.6,17.56 144.98,16.52 144.98,14.68 C144.98,13.34 146.22,12.34 147.88,12.34 C149.22,12.34 150.38,12.92 151.18,13.98 C151.6,14.54 151.82,15.02 152.1,15.9 C154.2,15.32 155.3,14.1 155.3,12.4 C155.3,10.48 153.7,9.34 151,9.34 C148.06,9.34 144.9,10.62 142.58,12.76 L141.68,11.48 C142.4,11.06 143.12,10.54 144.48,9.44 C146.62,7.74 149.78,4.96 151.16,3.6 L151.6,3.16 L151.56,3.12 C151.5,3.12 151.5,3.12 151.38,3.14 C150.74,3.26 148.34,3.4 145.3,3.5 C144.86,3.52 144.66,3.54 144.22,3.6 Z M150.78,16.26 C150.34,14.44 149.34,13.48 147.9,13.48 C146.9,13.48 146.28,13.96 146.28,14.72 C146.28,15.24 146.54,15.62 147.08,15.94 C147.6,16.22 148.46,16.4 149.32,16.4 C149.82,16.4 150.06,16.38 150.78,16.26 Z M162.84,3.42 L161.94,3.42 C161.4,3.42 161.04,3.44 160.58,3.5 L160.58,2.2 C160.96,2.26 161.38,2.28 162.04,2.28 L164.7,2.28 C165.34,2.28 165.8,2.26 166.14,2.2 L166.14,3.5 C165.7,3.44 165.34,3.42 164.76,3.42 L164.1,3.42 L164.1,12.5 C164.94,12.16 165.38,11.96 166.36,11.46 L166.36,12.74 C165.04,13.44 164.06,13.84 161.04,14.94 C160.96,14.98 160.86,15.02 160.64,15.12 L160.24,13.74 C160.86,13.66 161.54,13.46 162.84,12.98 L162.84,3.42 Z M171.5,2.5 L168.58,2.5 C167.82,2.5 167.26,2.52 166.66,2.58 L166.66,1.24 C167.24,1.32 167.82,1.36 168.62,1.36 L176.18,1.36 C177.1,1.36 177.52,1.34 178.06,1.24 L178.06,2.6 C177.58,2.54 177.02,2.5 176.2,2.5 L172.84,2.5 C172.56,3.26 172.26,3.92 172.02,4.42 L175.7,4.42 C176.02,4.42 176.68,4.4 176.94,4.36 C176.9,4.7 176.88,5.46 176.88,6.2 L176.88,12.66 C176.88,13.5 176.9,14.2 176.94,14.6 C176.86,14.6 176.78,14.58 176.74,14.58 C176.58,14.56 176.48,14.56 176.48,14.56 L176.18,14.56 L175.16,14.54 L169.22,14.54 C168.48,14.54 167.86,14.56 167.5,14.6 C167.54,14.16 167.56,13.42 167.56,12.68 L167.56,6.14 C167.56,5.34 167.54,4.82 167.48,4.36 C167.86,4.4 167.86,4.4 169.18,4.42 L170.7,4.42 C171.04,3.78 171.28,3.2 171.5,2.5 Z M168.78,5.48 L168.78,7.44 L175.66,7.44 L175.66,5.48 L168.78,5.48 Z M168.78,8.48 L168.78,10.42 L175.66,10.42 L175.66,8.48 L168.78,8.48 Z M168.78,11.46 L168.78,13.48 L175.66,13.48 L175.66,11.46 L168.78,11.46 Z M173.14,15.74 L174.14,14.94 C175.66,16.08 176.76,16.64 178.82,17.3 C178.48,17.64 178.32,17.86 177.98,18.42 C176,17.64 174.82,17 173.14,15.74 Z M169.46,15 L170.52,15.76 C168.84,17.04 167.82,17.58 165.62,18.42 C165.32,17.92 165.16,17.74 164.78,17.34 C167.02,16.64 168.16,16.08 169.46,15 Z M184.92,1.4 L193.88,1.4 C194.82,1.4 195.38,1.38 195.96,1.3 C195.88,1.88 195.86,2.4 195.86,3.14 L195.86,16.2 C195.86,17.14 195.9,17.72 195.98,18.32 L194.52,18.32 L194.52,17 L184.22,17 L184.22,18.32 L182.76,18.32 C182.84,17.74 182.88,17.16 182.88,16.28 L182.88,3.28 C182.88,2.44 182.86,1.9 182.78,1.3 C183.42,1.38 184,1.4 184.92,1.4 Z M184.22,6.08 L194.52,6.08 L194.52,2.64 L184.22,2.64 L184.22,6.08 Z M184.22,7.28 L184.22,10.86 L194.52,10.86 L194.52,7.28 L184.22,7.28 Z M184.22,12.06 L184.22,15.78 L194.52,15.78 L194.52,12.06 L184.22,12.06 Z M206.74,6.68 L206.78,5.28 C207.76,5.52 208.62,5.6 210.38,5.6 C211.16,5.6 211.7,5.58 212.52,5.54 C212.5,3.66 212.5,3.66 212.5,2.14 C212.5,1.8 212.48,1.52 212.44,1.32 L213.94,1.32 C213.84,1.86 213.8,2.8 213.8,4.46 C213.8,4.68 213.8,5 213.82,5.44 C215.36,5.26 216.52,5.02 217.28,4.7 L217.34,6.06 C217.3,6.06 217.3,6.06 215.94,6.34 C215.42,6.46 214.86,6.54 213.82,6.66 C213.84,8.64 213.88,9.66 214.04,12.32 C215.5,12.98 216.06,13.3 217.38,14.28 C217.62,14.44 217.66,14.48 217.88,14.62 L217.26,16.02 C216.64,15.32 215.84,14.76 214.42,13.94 C214.34,13.9 214.34,13.9 214.22,13.82 C214.14,13.76 214.14,13.76 214.04,13.7 C214.08,14 214.08,14.04 214.08,14.22 C214.08,14.74 214,15.22 213.84,15.58 C213.36,16.64 212.14,17.26 210.5,17.26 C208.18,17.26 206.72,16.16 206.72,14.42 C206.72,12.76 208.3,11.58 210.52,11.58 C211.34,11.58 212.28,11.74 212.74,11.98 C212.68,11.56 212.6,9.68 212.54,6.76 C211.64,6.8 211.02,6.82 210.26,6.82 C209.44,6.82 208.7,6.8 208,6.76 C207.66,6.72 207.44,6.72 207.36,6.72 C207.18,6.7 207.06,6.7 207.02,6.7 C206.92,6.68 206.86,6.68 206.82,6.68 L206.74,6.68 Z M212.76,13.2 C211.94,12.88 211.42,12.78 210.62,12.78 C209.06,12.78 208.04,13.44 208.04,14.44 C208.04,15.42 208.96,16.06 210.36,16.06 C211.24,16.06 212.02,15.8 212.4,15.36 C212.66,15.06 212.78,14.58 212.78,13.8 C212.78,13.66 212.76,13.2 212.76,13.2 Z M203.2,1.3 L204.76,1.56 C203.9,3.56 203.22,7.66 203.22,10.94 C203.22,11.64 203.26,12.82 203.3,13.74 C203.3,13.9 203.3,13.94 203.32,14.3 L203.32,14.68 L203.4,14.7 C203.76,13.2 203.9,12.82 204.58,11.18 C204.66,11 204.7,10.92 204.74,10.78 L205.72,11.24 C204.78,13.2 204,15.74 204,16.92 C204,17.02 204,17.04 204.04,17.32 L202.62,17.46 C202.6,17.28 202.58,17.18 202.5,16.72 C202.14,14.86 201.94,12.8 201.94,10.78 C201.94,8.12 202.2,6.02 202.98,2.56 C203.16,1.68 203.18,1.56 203.2,1.3 Z M226.72,14.22 L226.72,16.02 C226.72,16.7 227.28,16.86 229.78,16.86 C231.02,16.86 231.94,16.78 232.4,16.64 C232.92,16.48 233.1,16.2 233.28,15.14 C233.42,14.34 233.46,13.8 233.5,12.38 C234.02,12.66 234.32,12.78 234.82,12.88 C234.56,16.02 234.24,17.14 233.46,17.58 C232.88,17.92 231.8,18.04 229.62,18.04 C226.22,18.04 225.44,17.72 225.44,16.32 L225.44,15.16 C223.88,16.32 223.08,16.84 221.22,17.84 C220.92,17.34 220.72,17.1 220.24,16.72 C222.34,15.76 223.56,15.04 225.44,13.6 L225.44,6.54 C225.44,5.9 225.4,5.46 225.3,4.64 L226.86,4.64 C226.76,5.22 226.72,5.78 226.72,6.52 L226.72,12.64 C228.34,11.18 229.34,10.1 230.72,8.22 C232.5,5.8 233.72,3.54 234.16,1.74 L235.6,2.34 C235.38,2.74 235.32,2.86 234.94,3.66 C233.52,6.64 231.9,9.02 229.5,11.62 C228.6,12.62 228.16,13.02 226.72,14.22 Z M225.36,1.24 L226.14,0.24 C228.74,1.28 230.06,1.98 232.1,3.34 L231.28,4.48 C229.46,3.1 228,2.3 225.36,1.24 Z M222.4,6.66 L223.7,7.02 C223.06,10.3 222.58,11.84 221.36,14.46 L220.14,13.74 C220.82,12.48 221.08,11.9 221.48,10.64 C221.96,9.18 222.14,8.38 222.4,6.66 Z M234.3,7.44 L235.42,6.82 C236.8,9.04 237.72,11.02 238.74,14.02 L237.48,14.76 C236.94,12.88 236.6,11.92 235.94,10.44 C235.42,9.24 235.1,8.68 234.3,7.44 Z M251.68,2.26 L248.98,2.26 C248.08,2.26 247.6,2.28 247.06,2.36 L247.06,1 C247.62,1.08 248.24,1.12 249.06,1.12 L256.24,1.12 C257.06,1.12 257.72,1.08 258.28,1 L258.28,2.36 C257.86,2.28 257.38,2.26 256.3,2.26 L252.98,2.26 C252.7,3.04 252.4,3.74 252.1,4.34 L255.42,4.34 C256.3,4.34 256.82,4.32 257.26,4.26 C257.2,4.76 257.18,5.3 257.18,6.16 L257.18,12.6 C257.18,13.44 257.2,14.02 257.26,14.56 C256.74,14.5 256.18,14.48 255.46,14.48 L249.4,14.48 C248.68,14.48 248.22,14.5 247.66,14.56 C247.72,13.98 247.74,13.38 247.74,12.66 L247.74,6.06 C247.74,5.36 247.72,4.82 247.66,4.26 C248.14,4.32 248.48,4.34 249.36,4.34 L250.8,4.34 C251.18,3.64 251.44,3.02 251.68,2.26 Z M248.96,5.4 L248.96,7.32 L255.96,7.32 L255.96,5.4 L248.96,5.4 Z M248.96,8.36 L248.96,10.28 L255.96,10.28 L255.96,8.36 L248.96,8.36 Z M248.96,11.32 L248.96,13.4 L255.96,13.4 L255.96,11.32 L248.96,11.32 Z M245.54,0.46 L246.7,1.32 C246.52,1.48 246.52,1.48 246.16,1.84 C244.46,3.5 242.88,4.68 241.02,5.68 C240.84,5.26 240.54,4.8 240.3,4.5 C242.08,3.7 243.32,2.84 244.68,1.48 C245.12,1.04 245.32,0.82 245.54,0.46 Z M245.94,11.28 L247.08,12.2 C244.8,14.94 243.28,16.28 240.88,17.66 C240.66,17.18 240.44,16.86 240.1,16.48 C242,15.58 243.34,14.52 244.96,12.66 C245.44,12.12 245.68,11.76 245.94,11.28 Z M253.28,15.42 L254.28,14.72 C255.68,16.02 256.66,16.6 258.68,17.3 C258.38,17.64 258.16,18 257.96,18.4 C255.9,17.56 254.74,16.84 253.28,15.42 Z M245.8,5.64 L246.88,6.56 C246.6,6.82 246.6,6.82 245.92,7.5 C244.28,9.12 242.7,10.28 240.92,11.18 C240.72,10.7 240.58,10.46 240.24,9.98 C242.02,9.2 243.2,8.38 244.8,6.82 C245.32,6.3 245.56,6 245.8,5.64 Z M249.9,14.78 L250.8,15.54 C249.16,16.98 248.1,17.6 245.92,18.44 C245.74,18.1 245.5,17.76 245.18,17.4 C247.38,16.68 248.46,16.08 249.9,14.78 Z M261.3,5.34 L261.2,3.76 C261.58,3.78 261.78,3.78 261.92,3.78 C262.2,3.78 262.44,3.76 263.06,3.72 C264.18,3.64 264.3,3.62 266.76,3.48 L269.9,3.28 C272.36,3.14 272.62,3.12 273.28,3.1 L274.42,3.06 C276.14,2.96 276.52,2.92 276.8,2.84 L276.92,4.32 C276.12,4.32 275.44,4.4 274.68,4.6 C273.34,4.94 271.94,5.66 270.84,6.6 C269.24,7.94 268.38,9.56 268.38,11.22 C268.38,12.9 269.4,14.24 271.18,14.92 C272.16,15.28 273.42,15.56 274.18,15.56 L274.38,15.56 L274.12,17.18 C273.9,17.14 273.86,17.12 273.5,17.06 C271.52,16.72 270.32,16.3 269.18,15.52 C267.76,14.56 266.96,13.1 266.96,11.44 C266.96,9.12 268.32,6.92 270.7,5.3 C271.32,4.88 271.84,4.6 272.6,4.24 C271.46,4.44 270.3,4.54 268.2,4.68 C264.22,4.96 262.02,5.16 261.3,5.34 Z M273.58,7.26 L274.58,6.74 C275.48,7.82 276.04,8.66 276.64,9.84 L275.62,10.44 C275.14,9.38 274.18,7.88 273.58,7.26 Z M275.86,6.18 L276.84,5.64 C277.74,6.74 278.24,7.5 278.9,8.76 L277.9,9.32 C277.46,8.38 276.64,7.1 275.86,6.18 Z M290.46,3.68 L290.42,2.1 C290.42,1.58 290.4,1.36 290.34,0.94 L291.84,0.94 C291.76,1.58 291.74,1.88 291.74,3.44 L291.74,3.66 C295.52,3.64 297.06,3.6 297.72,3.52 L297.72,4.94 C296.98,4.86 296.28,4.84 293.9,4.84 C293.6,4.84 293.38,4.84 291.76,4.88 L291.76,8.84 C292.1,9.68 292.24,10.32 292.24,11.2 C292.24,13.28 291.28,15.12 289.56,16.42 C288.74,17.02 287.86,17.48 286.4,18.04 C286.06,17.4 285.94,17.22 285.52,16.78 C287.08,16.28 287.96,15.88 288.76,15.28 C290.22,14.18 290.92,12.88 291,11.06 C290.82,11.54 290.7,11.76 290.46,12.04 C289.86,12.76 289,13.12 287.94,13.12 C286.02,13.12 284.66,11.8 284.66,9.96 C284.66,8.06 286.16,6.66 288.2,6.66 C289.16,6.66 290,6.98 290.52,7.56 C290.5,7.28 290.5,7.2 290.5,6.46 C290.5,6.38 290.48,6.18 290.48,5.94 L290.48,4.9 C286.46,4.98 282.42,5.18 281.08,5.4 L281.02,3.94 C281.38,3.96 281.52,3.96 281.82,3.96 C282.4,3.96 282.4,3.96 285.62,3.84 C287.54,3.76 289.1,3.72 290.46,3.68 Z M290.4,9.52 C290.4,8.86 290.14,8.44 289.56,8.12 C289.18,7.9 288.76,7.8 288.22,7.8 C286.96,7.8 286,8.7 286,9.9 C286,11.06 286.84,11.88 288.06,11.88 C289.44,11.88 290.4,10.92 290.4,9.52 Z M301.5,12.3 C303.16,12.3 304.5,13.64 304.5,15.3 C304.5,16.96 303.16,18.3 301.5,18.3 C299.84,18.3 298.5,16.96 298.5,15.3 C298.5,13.64 299.84,12.3 301.5,12.3 Z M301.5,13.44 C300.48,13.44 299.64,14.28 299.64,15.3 C299.64,16.32 300.48,17.16 301.5,17.16 C302.52,17.16 303.36,16.32 303.36,15.3 C303.36,14.28 302.52,13.44 301.5,13.44 Z" id="※赤になっている項目は必須です。" fill="#333333"></path>
            <path d="M4.068,149.56 L4.068,148.102 C4.662,148.192 5.058,148.21 5.994,148.21 L12.87,148.21 C13.806,148.21 14.202,148.192 14.796,148.102 L14.796,149.56 C14.256,149.506 13.77,149.488 12.888,149.488 L5.976,149.488 C5.094,149.488 4.608,149.506 4.068,149.56 Z M2.25,158.164 L2.25,156.652 C2.898,156.742 3.276,156.76 4.338,156.76 L14.544,156.76 C15.606,156.76 15.984,156.742 16.632,156.652 L16.632,158.164 C16.038,158.092 15.516,158.074 14.562,158.074 L4.32,158.074 C3.366,158.074 2.862,158.092 2.25,158.164 Z M21.816,150.496 L22.95,150.118 C23.67,151.36 24.066,152.206 24.732,154.114 L23.508,154.528 C23.076,152.944 22.572,151.738 21.816,150.496 Z M25.524,149.74 L26.622,149.398 C27.576,151.108 27.9,151.828 28.368,153.268 L27.18,153.682 C26.856,152.404 26.298,151.09 25.524,149.74 Z M31.77,149.722 L33.102,150.01 C32.994,150.298 32.994,150.298 32.706,151.468 C32.418,152.728 31.77,154.384 31.122,155.5 C29.844,157.696 27.954,159.352 25.164,160.702 C24.894,160.252 24.75,160.072 24.336,159.694 C27.108,158.452 28.8,157.066 30.042,154.996 C30.726,153.862 31.248,152.512 31.572,151.126 C31.698,150.532 31.77,150.118 31.77,149.902 L31.77,149.722 Z M44.1,145.33 L45.576,145.708 C45.414,145.942 45.414,145.942 45.18,146.446 C44.712,147.418 44.55,147.724 44.352,148.048 C44.586,147.994 44.586,147.994 49.788,147.904 C50.418,147.904 50.472,147.886 50.724,147.778 L51.498,148.534 C51.336,148.75 51.336,148.768 51.138,149.416 C50.382,151.954 49.068,154.402 47.538,156.184 C45.882,158.074 43.902,159.496 41.274,160.684 C40.986,160.162 40.842,159.982 40.374,159.622 C43.092,158.506 45,157.138 46.728,155.068 C48.114,153.394 49.194,151.288 49.824,149.038 L43.758,149.146 C42.66,150.91 41.22,152.494 39.456,153.826 C39.15,153.376 38.97,153.214 38.448,152.89 C40.356,151.648 41.724,150.154 42.966,147.958 C43.65,146.77 44.01,145.96 44.1,145.33 Z M64.008,160.936 L62.55,160.936 C62.622,160.504 62.658,160.036 62.658,159.406 L62.658,154.33 C62.658,154.24 62.658,154.222 62.676,154.132 C61.524,154.96 59.184,155.968 56.592,156.76 C56.358,156.184 56.268,156.004 55.926,155.572 C58.104,155.014 59.382,154.564 61.128,153.718 C63.432,152.602 65.43,151.144 67.176,149.272 C66.708,149.308 66.42,149.326 66.15,149.326 L59.274,149.362 C58.464,149.362 58.032,149.38 57.528,149.434 L57.528,148.084 C57.996,148.174 58.518,148.21 59.274,148.21 L62.622,148.21 L62.622,146.59 C62.622,145.996 62.604,145.726 62.55,145.366 L63.99,145.366 C63.918,145.744 63.9,146.014 63.9,146.554 L63.9,148.21 L67.68,148.21 C68.058,148.21 68.238,148.174 68.472,148.084 L69.138,148.876 C68.868,149.11 68.832,149.146 68.652,149.362 C67.446,150.784 66.51,151.63 64.476,153.088 C67.248,154.15 68.778,154.888 71.064,156.22 L70.326,157.408 C68.832,156.4 67.266,155.554 64.386,154.258 C64.296,154.222 64.116,154.132 63.864,153.988 C63.918,154.258 63.936,154.474 63.936,154.906 L63.936,159.37 C63.936,160.162 63.936,160.45 64.008,160.936 Z M74.016,153.826 L74.016,152.35 C74.538,152.44 75.024,152.458 76.248,152.458 L86.706,152.458 C88.038,152.458 88.326,152.44 88.884,152.368 L88.884,153.826 C88.308,153.772 87.894,153.754 86.688,153.754 L76.248,153.754 C74.934,153.754 74.556,153.772 74.016,153.826 Z M97.11,145.69 L98.694,146.068 C98.514,146.41 98.388,146.77 98.208,147.364 C96.894,151.684 95.67,155.14 94.464,157.894 C96.858,157.732 101.088,157.174 103.212,156.76 C102.258,154.87 101.322,153.322 100.44,152.098 L101.556,151.486 C102.996,153.466 104.796,156.724 106.038,159.622 L104.778,160.306 C104.382,159.28 104.13,158.704 103.716,157.876 C100.692,158.47 97.11,158.956 92.646,159.37 C91.962,159.424 91.458,159.496 91.116,159.568 L90.936,158.074 C91.35,158.092 91.35,158.092 91.44,158.092 C91.566,158.092 92.556,158.038 92.97,158.002 C94.086,155.482 94.806,153.574 95.688,150.874 C96.57,148.156 96.966,146.716 97.11,145.69 Z" id="ニックネーム" fill="#333333"></path>
        </g>
    </g>
</svg>