<?xml version="1.0" encoding="UTF-8" standalone="no"?>
<svg width="500px" height="272px" viewBox="0 0 500 272" version="1.1" xmlns="http://www.w3.org/2000/svg" xmlns:xlink="http://www.w3.org/1999/xlink" style="background: #FFFFFF;">
    <!-- Generator: Sketch 49.3 (51167) - http://www.bohemiancoding.com/sketch -->
    <title>1.3.3_ng_02</title>
    <desc>Created with Sketch.</desc>
    <defs>
        <rect id="path-1" x="128" y="65" width="280" height="40" rx="4"></rect>
        <rect id="path-2" x="128" y="135" width="280" height="40" rx="4"></rect>
    </defs>
    <g id="1.3.3_ng_02" stroke="none" stroke-width="1" fill="none" fill-rule="evenodd">
        <g id="Group-2" transform="translate(46.000000, 49.000000)">
            <g id="Rectangle-7">
                <use fill="#FFFFFF" fill-rule="evenodd" xlink:href="#path-1"></use>
                <rect stroke="#CCCCCC" stroke-width="1" x="128.5" y="65.5" width="279" height="39" rx="4"></rect>
            </g>
            <g id="Rectangle-7-Copy">
                <use fill="#FFFFFF" fill-rule="evenodd" xlink:href="#path-2"></use>
                <rect stroke="#CCCCCC" stroke-width="1" x="128.5" y="135.5" width="279" height="39" rx="4"></rect>
            </g>
            <path d="M65.088,79.49 L65.178,81.92 C64.818,81.956 64.656,81.974 63.9,82.118 C63,82.262 62.514,82.334 61.686,82.424 L61.686,84.386 C62.946,84.098 63.63,84.008 64.854,84.008 C66.438,84.008 67.698,84.332 68.67,84.98 C69.804,85.772 70.488,87.086 70.488,88.544 C70.488,91.028 68.67,92.846 66.204,92.846 C64.026,92.846 62.82,91.406 62.82,88.814 C62.82,88.742 62.82,88.598 62.838,88.436 C63.954,88.112 64.314,87.968 65.214,87.464 C65.142,87.878 65.124,88.166 65.124,88.454 C65.124,89.75 65.484,90.308 66.312,90.308 C67.212,90.308 67.878,89.57 67.878,88.544 C67.878,87.122 66.708,86.222 64.818,86.222 C63.774,86.222 62.82,86.366 61.704,86.708 L61.704,90.092 C61.704,91.442 61.65,91.82 61.398,92.18 C61.092,92.648 60.462,92.918 59.742,92.918 C58.698,92.918 57.438,92.522 56.538,91.892 C55.548,91.226 55.026,90.362 55.026,89.408 C55.026,88.49 55.602,87.464 56.628,86.564 C57.276,86.006 58.086,85.538 59.274,85.016 L59.274,82.55 C58.374,82.568 57.888,82.586 57.654,82.586 C57.492,82.586 57.456,82.586 56.52,82.55 L56.214,82.55 C56.124,82.55 55.962,82.55 55.764,82.568 L55.746,80.174 C56.232,80.282 57.06,80.336 58.014,80.336 C58.176,80.336 58.23,80.336 58.896,80.318 C59.13,80.318 59.13,80.318 59.256,80.3 L59.256,79.4 C59.256,78.23 59.238,77.78 59.148,77.168 L61.812,77.168 C61.722,77.798 61.704,78.176 61.704,79.256 L61.704,80.138 C62.82,80.03 64.134,79.778 65.088,79.49 Z M59.274,89.696 L59.274,87.5 C58.176,88.04 57.438,88.796 57.438,89.39 C57.438,89.642 57.6,89.876 57.942,90.092 C58.248,90.29 58.644,90.434 58.932,90.434 C59.202,90.434 59.274,90.29 59.274,89.696 Z M71.298,82.118 L69.3,83.702 C68.418,82.244 67.158,80.804 65.718,79.652 L67.698,78.248 C69.3,79.526 70.326,80.624 71.298,82.118 Z M77.058,91.658 L77.058,87.86 C75.924,88.454 75.204,88.796 73.89,89.336 C73.494,88.436 73.188,87.986 72.522,87.212 C74.664,86.6 76.716,85.664 78.714,84.422 C78.012,83.666 77.508,83.216 76.482,82.442 C75.762,82.964 75.258,83.27 74.178,83.864 C73.728,83.036 73.368,82.604 72.756,82.064 C74.304,81.326 75.618,80.444 76.842,79.346 C77.814,78.482 78.57,77.528 79.11,76.484 L81.648,77.06 C81.324,77.546 81.234,77.672 80.82,78.212 L84.384,78.212 C85.032,78.212 85.482,78.194 85.932,78.122 L87.21,79.418 C86.958,79.724 86.94,79.724 86.526,80.264 C85.032,82.19 83.484,83.666 81.342,85.214 L86.76,85.214 C87.534,85.214 87.93,85.196 88.362,85.16 C88.29,85.664 88.272,86.168 88.272,86.906 L88.272,91.676 C88.272,92.468 88.308,93.008 88.38,93.53 L85.95,93.53 L85.95,92.576 L79.398,92.576 L79.398,93.53 L76.95,93.53 C77.022,92.954 77.058,92.396 77.058,91.658 Z M83.43,80.3 L79.002,80.3 C78.606,80.678 78.48,80.804 78.138,81.11 C79.452,82.046 79.56,82.136 80.55,83.09 C81.864,82.046 82.548,81.38 83.43,80.3 Z M79.38,87.32 L79.38,90.542 L85.986,90.542 L85.986,87.32 L79.38,87.32 Z M92.916,78.95 L95.184,78.95 C94.806,78.284 94.608,77.978 93.96,77.222 L96.336,76.61 C97.02,77.546 97.398,78.14 97.812,78.95 L100.152,78.95 C100.782,78.176 101.124,77.582 101.52,76.628 L103.986,77.24 C103.572,77.906 103.176,78.482 102.78,78.95 L105.12,78.95 C106.038,78.95 106.542,78.914 107.1,78.842 L107.1,81.128 C106.542,81.056 106.092,81.038 105.12,81.038 L92.916,81.038 C91.998,81.038 91.512,81.056 90.936,81.128 L90.936,78.842 C91.602,78.932 92.016,78.95 92.916,78.95 Z M94.05,89.804 L94.05,91.532 C94.05,92.45 94.068,92.9 94.14,93.476 L91.71,93.476 C91.8,92.81 91.818,92.288 91.818,91.37 L91.818,83.522 C91.818,82.658 91.8,82.334 91.746,81.902 C92.268,81.938 92.736,81.956 93.42,81.956 L97.344,81.956 C98.208,81.956 98.55,81.938 98.928,81.902 C98.892,82.334 98.874,82.73 98.874,83.648 L98.874,91.424 C98.874,92.99 98.424,93.35 96.516,93.35 C96.372,93.35 96.102,93.35 95.49,93.314 C95.346,92.306 95.274,92.072 94.986,91.28 C95.598,91.37 95.814,91.388 96.228,91.388 C96.588,91.388 96.66,91.298 96.66,90.902 L96.66,89.804 L94.05,89.804 Z M94.05,87.914 L96.66,87.914 L96.66,86.852 L94.05,86.852 L94.05,87.914 Z M94.05,84.962 L96.66,84.962 L96.66,83.936 L94.05,83.936 L94.05,84.962 Z M100.224,82.244 L102.618,82.244 C102.564,82.748 102.546,83.126 102.546,83.972 L102.546,87.914 C102.546,88.958 102.564,89.282 102.618,89.822 L100.224,89.822 C100.278,89.246 100.296,88.922 100.296,87.932 L100.296,83.954 C100.296,83.162 100.278,82.802 100.224,82.244 Z M103.842,81.776 L106.308,81.776 C106.236,82.298 106.218,82.82 106.218,83.666 L106.218,91.136 C106.218,92.018 106.11,92.504 105.804,92.81 C105.408,93.242 104.832,93.386 103.626,93.386 C103.104,93.386 102.996,93.386 101.628,93.332 C101.484,92.45 101.34,91.964 100.98,91.1 C101.898,91.208 102.582,91.262 103.104,91.262 C103.824,91.262 103.932,91.19 103.932,90.722 L103.932,83.612 C103.932,82.658 103.914,82.298 103.842,81.776 Z" id="お名前" fill="#333333"></path>
            <path d="M10,8.7 L17.1,1.6 L17.74,2.26 L10.64,9.4 L17.74,16.5 L17.1,17.16 L10,10.12 L2.92,17.16 L2.26,16.5 L9.36,9.4 L2.26,2.26 L2.92,1.6 L10,8.7 Z M10.02,2.08 C10.86,2.08 11.54,2.76 11.54,3.6 C11.54,4.46 10.86,5.14 10.02,5.14 C9.18,5.14 8.48,4.44 8.48,3.6 C8.48,2.76 9.18,2.08 10.02,2.08 Z M4.28,7.86 C5.12,7.86 5.8,8.54 5.8,9.38 C5.8,10.24 5.12,10.92 4.28,10.92 C3.44,10.92 2.74,10.22 2.74,9.38 C2.74,8.54 3.42,7.86 4.28,7.86 Z M15.72,7.88 C16.56,7.88 17.24,8.56 17.24,9.4 C17.24,10.24 16.56,10.92 15.72,10.92 C14.88,10.92 14.2,10.24 14.2,9.4 C14.2,8.56 14.88,7.88 15.72,7.88 Z M10,13.68 C10.84,13.68 11.52,14.36 11.52,15.22 C11.52,16.06 10.82,16.76 10,16.76 C9.2,16.76 8.46,16.02 8.46,15.22 C8.46,14.46 9.18,13.68 9.86,13.68 L9.92,13.68 C9.94,13.7 9.94,13.7 9.96,13.7 L10,13.68 Z M36.5,6.02 L30.66,6.02 C31.42,8.5 32.1,9.94 33.26,11.72 C34.02,12.84 34.94,13.86 36.14,14.88 C37.18,15.78 37.84,16.24 39.3,17.06 C38.92,17.52 38.78,17.76 38.46,18.38 C35.4,16.34 33.74,14.74 32.24,12.42 C31.2,10.78 30.58,9.44 29.92,7.36 C29.44,9.46 28.8,11.06 27.82,12.6 C26.36,14.88 24.74,16.38 21.7,18.22 C21.44,17.7 21.28,17.44 20.86,17.02 C25.62,14.52 28.06,11.16 28.86,6.02 L23.44,6.02 C22.36,6.02 21.84,6.06 21.24,6.16 L21.24,4.66 C21.76,4.76 22.4,4.8 23.5,4.8 L29,4.8 C29.08,3.96 29.1,3.4 29.1,2.64 C29.1,1.72 29.06,1.02 28.96,0.46 L30.56,0.46 C30.46,1.14 30.44,1.54 30.42,2.54 C30.42,3.4 30.38,3.9 30.32,4.8 L36.48,4.8 C37.5,4.8 38.16,4.76 38.68,4.66 L38.68,6.16 C38.06,6.06 37.48,6.02 36.5,6.02 Z M32,16.4 L30.88,17.22 C29.78,15.52 29.18,14.76 27.88,13.4 L28.92,12.72 C30.1,13.88 30.94,14.88 32,16.4 Z M49.16,2.56 L49.16,1.96 C49.16,1.3 49.12,0.8 49.04,0.3 L50.62,0.3 C50.54,0.82 50.5,1.3 50.5,1.96 L50.5,2.56 L56.3,2.56 C57.12,2.56 57.74,2.54 58.44,2.46 C58.36,2.92 58.34,3.36 58.34,4 L58.34,5.14 C58.34,5.62 58.38,6.08 58.44,6.54 L57.1,6.54 L57.1,3.72 L43.02,3.72 L43.02,6.54 L41.68,6.54 C41.74,6.08 41.78,5.62 41.78,5.14 L41.78,4 C41.78,3.38 41.76,2.98 41.68,2.46 C42.38,2.54 43,2.56 43.82,2.56 L49.16,2.56 Z M43.52,10.82 L49.32,10.82 C49.32,10.1 49.3,9.68 49.22,9.22 L50.22,9.22 C51.66,8.52 52.44,8 53.68,6.92 L46.02,6.92 C45.24,6.92 44.66,6.96 44.06,7.06 L44.06,5.66 C44.58,5.74 45.14,5.78 46.02,5.78 L53.78,5.78 C54.52,5.78 54.92,5.76 55.26,5.7 L55.94,6.52 C55.68,6.74 55.66,6.76 55.18,7.16 C53.7,8.42 52.56,9.18 50.66,10.2 L50.66,10.82 L56.6,10.82 C57.46,10.82 58.14,10.78 58.7,10.7 L58.7,12.1 C58.12,12.02 57.44,11.98 56.6,11.98 L50.66,11.98 L50.66,16.54 C50.66,17.76 50.12,18.18 48.54,18.18 C47.74,18.18 46.94,18.14 46.02,18.04 C45.96,17.54 45.88,17.26 45.66,16.7 C46.46,16.86 47.7,17 48.48,17 C49.12,17 49.32,16.86 49.32,16.42 L49.32,11.98 L43.52,11.98 C42.68,11.98 42,12.02 41.42,12.1 L41.42,10.7 C42.02,10.78 42.66,10.82 43.52,10.82 Z M63.88,1.4 L65.46,1.64 C65.16,2.5 64.92,3.48 64.62,4.84 C64.2,6.94 64.02,8.7 64.02,11.1 C64.02,12.66 64.06,13.84 64.14,14.9 C64.42,13.56 64.8,12.46 65.44,11 L66.4,11.46 C65.5,13.44 64.78,15.84 64.78,16.96 L64.78,17.26 L63.34,17.38 C63.3,17.06 63.28,16.96 63.22,16.58 C62.84,14.46 62.7,13.02 62.7,10.92 C62.7,8.08 62.94,5.96 63.6,3 C63.8,2.06 63.84,1.86 63.88,1.4 Z M68,5.18 L68.02,3.76 C68.88,3.98 69.86,4.06 71.42,4.06 C73.64,4.06 75.44,3.88 76.78,3.52 L76.88,4.94 C76.84,4.94 76.38,5 75.5,5.12 C74.34,5.28 72.74,5.38 71.2,5.38 C70.08,5.38 69.3,5.32 68,5.18 Z M69.46,9.08 L70.56,9.68 C69.56,10.78 69.06,11.74 69.06,12.62 C69.06,14.1 70.32,14.82 72.9,14.82 C74.72,14.82 76.42,14.56 77.5,14.12 L77.7,15.66 C77.44,15.68 77.4,15.7 77,15.76 C75.6,16.04 74.26,16.16 72.9,16.16 C70.62,16.16 69.18,15.68 68.32,14.64 C67.92,14.14 67.72,13.54 67.72,12.8 C67.72,11.58 68.22,10.5 69.46,9.08 Z M86.6,0.78 L88.18,1 C88.04,1.38 88.02,1.46 87.86,2.28 C87.72,2.96 87.6,3.44 87.32,4.46 C88.72,4.34 89.98,4.1 90.9,3.8 L90.96,5.18 C90.74,5.22 90.74,5.22 90.26,5.3 C89.44,5.48 88.2,5.64 86.98,5.72 C86.36,7.86 85.64,9.72 84.76,11.56 C84.28,12.52 84.1,12.86 83.34,14.18 C83.16,14.46 83.04,14.7 82.94,14.86 L81.58,14.06 C82.22,13.26 82.76,12.38 83.5,10.94 C84.42,9.12 85,7.68 85.58,5.78 C85.08,5.8 84.4,5.82 84.1,5.82 C83.76,5.82 83.08,5.8 82.78,5.8 C82.56,5.78 82.4,5.78 82.34,5.78 L82.08,5.78 L82.1,4.4 C82.78,4.52 83.38,4.56 84.48,4.56 C84.88,4.56 85.54,4.54 85.92,4.54 C86.24,3.4 86.56,1.7 86.6,0.78 Z M98.38,6.3 L97.66,7.5 C95.98,6.34 94.46,5.54 92.36,4.78 L93.1,3.66 C95.42,4.58 96.76,5.26 98.38,6.3 Z M98.42,15.16 L97.68,16.52 C96.9,15.56 95.64,14.56 94.18,13.8 C94.22,14.12 94.22,14.24 94.22,14.44 C94.22,16.5 92.86,17.64 90.42,17.64 C88.02,17.64 86.52,16.52 86.52,14.74 C86.52,13.66 87.26,12.66 88.38,12.2 C89.08,11.9 89.84,11.76 90.74,11.76 C91.48,11.76 91.98,11.84 92.76,12.06 C92.66,10.76 92.62,9.82 92.62,9.32 C92.62,8.6 92.66,8.12 92.82,7.38 L94.18,7.52 C93.98,8.26 93.92,8.68 93.92,9.38 C93.92,10.28 94.02,11.66 94.14,12.42 C95.74,13.12 96.98,13.88 98.06,14.84 C98.28,15.06 98.28,15.06 98.42,15.16 Z M92.86,13.34 C92.02,13.04 91.44,12.94 90.64,12.94 C88.94,12.94 87.86,13.64 87.86,14.74 C87.86,15.76 88.82,16.38 90.4,16.38 C92.12,16.38 92.9,15.7 92.9,14.2 C92.9,13.96 92.86,13.34 92.86,13.34 Z M103.64,10.34 L103.28,8.88 C103.78,8.84 103.88,8.82 105.12,8.52 C107.74,7.9 109.5,7.64 111.22,7.64 C113.28,7.64 114.7,8.26 115.46,9.5 C115.86,10.14 116.08,10.96 116.08,11.78 C116.08,14.02 114.28,16.06 111.5,16.94 C110.28,17.32 109.8,17.4 107.38,17.7 C107.26,17.14 107.18,16.94 106.86,16.32 C106.98,16.34 107.06,16.34 107.14,16.34 C108.38,16.34 109.94,16.1 111.08,15.72 C113.36,14.98 114.74,13.46 114.74,11.68 C114.74,9.86 113.46,8.88 111.04,8.88 C109.7,8.88 108.16,9.12 105.78,9.68 C104.56,9.96 104.24,10.06 103.64,10.34 Z M121.46,5.38 L121.36,3.8 L122.08,3.8 C122.36,3.8 122.6,3.78 123.22,3.74 C125.6,3.56 132,3.2 134.58,3.08 C135.7,3.04 136.64,2.96 136.96,2.86 L137.08,4.36 C136.28,4.36 135.6,4.44 134.84,4.62 C133.5,4.98 132.1,5.7 131,6.64 C129.4,7.98 128.54,9.6 128.54,11.26 C128.54,12.94 129.56,14.28 131.34,14.96 C132.32,15.32 133.58,15.6 134.34,15.6 L134.54,15.6 L134.28,17.22 C134.06,17.18 133.98,17.16 133.66,17.1 C131.68,16.76 130.48,16.34 129.34,15.56 C127.92,14.6 127.12,13.12 127.12,11.48 C127.12,9.16 128.48,6.94 130.86,5.34 C131.48,4.92 132,4.64 132.76,4.28 C131.58,4.48 130.58,4.58 128.36,4.72 C124.22,5 122.44,5.16 121.46,5.38 Z M142.12,2.82 L143.8,2.84 C143.7,3.46 143.66,4.12 143.66,5.22 C143.66,7.42 143.88,10.16 144.18,11.44 C144.62,13.48 145.44,14.86 146.2,14.86 C146.56,14.86 146.9,14.52 147.2,13.86 C147.66,12.86 147.98,11.8 148.24,10.44 C148.68,10.96 148.86,11.14 149.42,11.58 C148.44,15.08 147.52,16.42 146.1,16.42 C144.98,16.42 143.94,15.3 143.26,13.38 C142.56,11.48 142.28,8.92 142.18,4 C142.16,3.24 142.16,3.18 142.12,2.82 Z M152.24,4.52 L153.46,3.9 C154.76,5.44 155.58,6.76 156.32,8.46 C157.08,10.14 157.46,11.56 157.82,13.8 L156.4,14.38 C156.04,10.66 154.58,7.24 152.24,4.52 Z M164.22,3.6 L164.14,2.1 C164.7,2.2 165.06,2.22 166.02,2.22 C167.68,2.22 170.34,2.1 172.14,1.96 C172.66,1.92 172.84,1.88 173.1,1.74 L173.94,2.84 C173.66,2.98 173.56,3.06 172.92,3.68 C170.16,6.38 167.74,8.46 166.34,9.36 L166.38,9.42 C167.9,8.6 169.52,8.18 171.28,8.18 C174.62,8.18 176.76,9.82 176.76,12.38 C176.76,15.5 173.86,17.56 169.42,17.56 C166.6,17.56 164.98,16.52 164.98,14.68 C164.98,13.34 166.22,12.34 167.88,12.34 C169.22,12.34 170.38,12.92 171.18,13.98 C171.6,14.54 171.82,15.02 172.1,15.9 C174.2,15.32 175.3,14.1 175.3,12.4 C175.3,10.48 173.7,9.34 171,9.34 C168.06,9.34 164.9,10.62 162.58,12.76 L161.68,11.48 C162.4,11.06 163.12,10.54 164.48,9.44 C166.62,7.74 169.78,4.96 171.16,3.6 L171.6,3.16 L171.56,3.12 C171.5,3.12 171.5,3.12 171.38,3.14 C170.74,3.26 168.34,3.4 165.3,3.5 C164.86,3.52 164.66,3.54 164.22,3.6 Z M170.78,16.26 C170.34,14.44 169.34,13.48 167.9,13.48 C166.9,13.48 166.28,13.96 166.28,14.72 C166.28,15.24 166.54,15.62 167.08,15.94 C167.6,16.22 168.46,16.4 169.32,16.4 C169.82,16.4 170.06,16.38 170.78,16.26 Z M182.84,3.42 L181.94,3.42 C181.4,3.42 181.04,3.44 180.58,3.5 L180.58,2.2 C180.96,2.26 181.38,2.28 182.04,2.28 L184.7,2.28 C185.34,2.28 185.8,2.26 186.14,2.2 L186.14,3.5 C185.7,3.44 185.34,3.42 184.76,3.42 L184.1,3.42 L184.1,12.5 C184.94,12.16 185.38,11.96 186.36,11.46 L186.36,12.74 C185.04,13.44 184.06,13.84 181.04,14.94 C180.96,14.98 180.86,15.02 180.64,15.12 L180.24,13.74 C180.86,13.66 181.54,13.46 182.84,12.98 L182.84,3.42 Z M191.5,2.5 L188.58,2.5 C187.82,2.5 187.26,2.52 186.66,2.58 L186.66,1.24 C187.24,1.32 187.82,1.36 188.62,1.36 L196.18,1.36 C197.1,1.36 197.52,1.34 198.06,1.24 L198.06,2.6 C197.58,2.54 197.02,2.5 196.2,2.5 L192.84,2.5 C192.56,3.26 192.26,3.92 192.02,4.42 L195.7,4.42 C196.02,4.42 196.68,4.4 196.94,4.36 C196.9,4.7 196.88,5.46 196.88,6.2 L196.88,12.66 C196.88,13.5 196.9,14.2 196.94,14.6 C196.86,14.6 196.78,14.58 196.74,14.58 C196.58,14.56 196.48,14.56 196.48,14.56 L196.18,14.56 L195.16,14.54 L189.22,14.54 C188.48,14.54 187.86,14.56 187.5,14.6 C187.54,14.16 187.56,13.42 187.56,12.68 L187.56,6.14 C187.56,5.34 187.54,4.82 187.48,4.36 C187.86,4.4 187.86,4.4 189.18,4.42 L190.7,4.42 C191.04,3.78 191.28,3.2 191.5,2.5 Z M188.78,5.48 L188.78,7.44 L195.66,7.44 L195.66,5.48 L188.78,5.48 Z M188.78,8.48 L188.78,10.42 L195.66,10.42 L195.66,8.48 L188.78,8.48 Z M188.78,11.46 L188.78,13.48 L195.66,13.48 L195.66,11.46 L188.78,11.46 Z M193.14,15.74 L194.14,14.94 C195.66,16.08 196.76,16.64 198.82,17.3 C198.48,17.64 198.32,17.86 197.98,18.42 C196,17.64 194.82,17 193.14,15.74 Z M189.46,15 L190.52,15.76 C188.84,17.04 187.82,17.58 185.62,18.42 C185.32,17.92 185.16,17.74 184.78,17.34 C187.02,16.64 188.16,16.08 189.46,15 Z M204.92,1.4 L213.88,1.4 C214.82,1.4 215.38,1.38 215.96,1.3 C215.88,1.88 215.86,2.4 215.86,3.14 L215.86,16.2 C215.86,17.14 215.9,17.72 215.98,18.32 L214.52,18.32 L214.52,17 L204.22,17 L204.22,18.32 L202.76,18.32 C202.84,17.74 202.88,17.16 202.88,16.28 L202.88,3.28 C202.88,2.44 202.86,1.9 202.78,1.3 C203.42,1.38 204,1.4 204.92,1.4 Z M204.22,6.08 L214.52,6.08 L214.52,2.64 L204.22,2.64 L204.22,6.08 Z M204.22,7.28 L204.22,10.86 L214.52,10.86 L214.52,7.28 L204.22,7.28 Z M204.22,12.06 L204.22,15.78 L214.52,15.78 L214.52,12.06 L204.22,12.06 Z M226.74,6.68 L226.78,5.28 C227.76,5.52 228.62,5.6 230.38,5.6 C231.16,5.6 231.7,5.58 232.52,5.54 C232.5,3.66 232.5,3.66 232.5,2.14 C232.5,1.8 232.48,1.52 232.44,1.32 L233.94,1.32 C233.84,1.86 233.8,2.8 233.8,4.46 C233.8,4.68 233.8,5 233.82,5.44 C235.36,5.26 236.52,5.02 237.28,4.7 L237.34,6.06 C237.3,6.06 237.3,6.06 235.94,6.34 C235.42,6.46 234.86,6.54 233.82,6.66 C233.84,8.64 233.88,9.66 234.04,12.32 C235.5,12.98 236.06,13.3 237.38,14.28 C237.62,14.44 237.66,14.48 237.88,14.62 L237.26,16.02 C236.64,15.32 235.84,14.76 234.42,13.94 C234.34,13.9 234.34,13.9 234.22,13.82 C234.14,13.76 234.14,13.76 234.04,13.7 C234.08,14 234.08,14.04 234.08,14.22 C234.08,14.74 234,15.22 233.84,15.58 C233.36,16.64 232.14,17.26 230.5,17.26 C228.18,17.26 226.72,16.16 226.72,14.42 C226.72,12.76 228.3,11.58 230.52,11.58 C231.34,11.58 232.28,11.74 232.74,11.98 C232.68,11.56 232.6,9.68 232.54,6.76 C231.64,6.8 231.02,6.82 230.26,6.82 C229.44,6.82 228.7,6.8 228,6.76 C227.66,6.72 227.44,6.72 227.36,6.72 C227.18,6.7 227.06,6.7 227.02,6.7 C226.92,6.68 226.86,6.68 226.82,6.68 L226.74,6.68 Z M232.76,13.2 C231.94,12.88 231.42,12.78 230.62,12.78 C229.06,12.78 228.04,13.44 228.04,14.44 C228.04,15.42 228.96,16.06 230.36,16.06 C231.24,16.06 232.02,15.8 232.4,15.36 C232.66,15.06 232.78,14.58 232.78,13.8 C232.78,13.66 232.76,13.2 232.76,13.2 Z M223.2,1.3 L224.76,1.56 C223.9,3.56 223.22,7.66 223.22,10.94 C223.22,11.64 223.26,12.82 223.3,13.74 C223.3,13.9 223.3,13.94 223.32,14.3 L223.32,14.68 L223.4,14.7 C223.76,13.2 223.9,12.82 224.58,11.18 C224.66,11 224.7,10.92 224.74,10.78 L225.72,11.24 C224.78,13.2 224,15.74 224,16.92 C224,17.02 224,17.04 224.04,17.32 L222.62,17.46 C222.6,17.28 222.58,17.18 222.5,16.72 C222.14,14.86 221.94,12.8 221.94,10.78 C221.94,8.12 222.2,6.02 222.98,2.56 C223.16,1.68 223.18,1.56 223.2,1.3 Z M246.72,14.22 L246.72,16.02 C246.72,16.7 247.28,16.86 249.78,16.86 C251.02,16.86 251.94,16.78 252.4,16.64 C252.92,16.48 253.1,16.2 253.28,15.14 C253.42,14.34 253.46,13.8 253.5,12.38 C254.02,12.66 254.32,12.78 254.82,12.88 C254.56,16.02 254.24,17.14 253.46,17.58 C252.88,17.92 251.8,18.04 249.62,18.04 C246.22,18.04 245.44,17.72 245.44,16.32 L245.44,15.16 C243.88,16.32 243.08,16.84 241.22,17.84 C240.92,17.34 240.72,17.1 240.24,16.72 C242.34,15.76 243.56,15.04 245.44,13.6 L245.44,6.54 C245.44,5.9 245.4,5.46 245.3,4.64 L246.86,4.64 C246.76,5.22 246.72,5.78 246.72,6.52 L246.72,12.64 C248.34,11.18 249.34,10.1 250.72,8.22 C252.5,5.8 253.72,3.54 254.16,1.74 L255.6,2.34 C255.38,2.74 255.32,2.86 254.94,3.66 C253.52,6.64 251.9,9.02 249.5,11.62 C248.6,12.62 248.16,13.02 246.72,14.22 Z M245.36,1.24 L246.14,0.24 C248.74,1.28 250.06,1.98 252.1,3.34 L251.28,4.48 C249.46,3.1 248,2.3 245.36,1.24 Z M242.4,6.66 L243.7,7.02 C243.06,10.3 242.58,11.84 241.36,14.46 L240.14,13.74 C240.82,12.48 241.08,11.9 241.48,10.64 C241.96,9.18 242.14,8.38 242.4,6.66 Z M254.3,7.44 L255.42,6.82 C256.8,9.04 257.72,11.02 258.74,14.02 L257.48,14.76 C256.94,12.88 256.6,11.92 255.94,10.44 C255.42,9.24 255.1,8.68 254.3,7.44 Z M271.68,2.26 L268.98,2.26 C268.08,2.26 267.6,2.28 267.06,2.36 L267.06,1 C267.62,1.08 268.24,1.12 269.06,1.12 L276.24,1.12 C277.06,1.12 277.72,1.08 278.28,1 L278.28,2.36 C277.86,2.28 277.38,2.26 276.3,2.26 L272.98,2.26 C272.7,3.04 272.4,3.74 272.1,4.34 L275.42,4.34 C276.3,4.34 276.82,4.32 277.26,4.26 C277.2,4.76 277.18,5.3 277.18,6.16 L277.18,12.6 C277.18,13.44 277.2,14.02 277.26,14.56 C276.74,14.5 276.18,14.48 275.46,14.48 L269.4,14.48 C268.68,14.48 268.22,14.5 267.66,14.56 C267.72,13.98 267.74,13.38 267.74,12.66 L267.74,6.06 C267.74,5.36 267.72,4.82 267.66,4.26 C268.14,4.32 268.48,4.34 269.36,4.34 L270.8,4.34 C271.18,3.64 271.44,3.02 271.68,2.26 Z M268.96,5.4 L268.96,7.32 L275.96,7.32 L275.96,5.4 L268.96,5.4 Z M268.96,8.36 L268.96,10.28 L275.96,10.28 L275.96,8.36 L268.96,8.36 Z M268.96,11.32 L268.96,13.4 L275.96,13.4 L275.96,11.32 L268.96,11.32 Z M265.54,0.46 L266.7,1.32 C266.52,1.48 266.52,1.48 266.16,1.84 C264.46,3.5 262.88,4.68 261.02,5.68 C260.84,5.26 260.54,4.8 260.3,4.5 C262.08,3.7 263.32,2.84 264.68,1.48 C265.12,1.04 265.32,0.82 265.54,0.46 Z M265.94,11.28 L267.08,12.2 C264.8,14.94 263.28,16.28 260.88,17.66 C260.66,17.18 260.44,16.86 260.1,16.48 C262,15.58 263.34,14.52 264.96,12.66 C265.44,12.12 265.68,11.76 265.94,11.28 Z M273.28,15.42 L274.28,14.72 C275.68,16.02 276.66,16.6 278.68,17.3 C278.38,17.64 278.16,18 277.96,18.4 C275.9,17.56 274.74,16.84 273.28,15.42 Z M265.8,5.64 L266.88,6.56 C266.6,6.82 266.6,6.82 265.92,7.5 C264.28,9.12 262.7,10.28 260.92,11.18 C260.72,10.7 260.58,10.46 260.24,9.98 C262.02,9.2 263.2,8.38 264.8,6.82 C265.32,6.3 265.56,6 265.8,5.64 Z M269.9,14.78 L270.8,15.54 C269.16,16.98 268.1,17.6 265.92,18.44 C265.74,18.1 265.5,17.76 265.18,17.4 C267.38,16.68 268.46,16.08 269.9,14.78 Z M281.3,5.34 L281.2,3.76 C281.58,3.78 281.78,3.78 281.92,3.78 C282.2,3.78 282.44,3.76 283.06,3.72 C284.18,3.64 284.3,3.62 286.76,3.48 L289.9,3.28 C292.36,3.14 292.62,3.12 293.28,3.1 L294.42,3.06 C296.14,2.96 296.52,2.92 296.8,2.84 L296.92,4.32 C296.12,4.32 295.44,4.4 294.68,4.6 C293.34,4.94 291.94,5.66 290.84,6.6 C289.24,7.94 288.38,9.56 288.38,11.22 C288.38,12.9 289.4,14.24 291.18,14.92 C292.16,15.28 293.42,15.56 294.18,15.56 L294.38,15.56 L294.12,17.18 C293.9,17.14 293.86,17.12 293.5,17.06 C291.52,16.72 290.32,16.3 289.18,15.52 C287.76,14.56 286.96,13.1 286.96,11.44 C286.96,9.12 288.32,6.92 290.7,5.3 C291.32,4.88 291.84,4.6 292.6,4.24 C291.46,4.44 290.3,4.54 288.2,4.68 C284.22,4.96 282.02,5.16 281.3,5.34 Z M293.58,7.26 L294.58,6.74 C295.48,7.82 296.04,8.66 296.64,9.84 L295.62,10.44 C295.14,9.38 294.18,7.88 293.58,7.26 Z M295.86,6.18 L296.84,5.64 C297.74,6.74 298.24,7.5 298.9,8.76 L297.9,9.32 C297.46,8.38 296.64,7.1 295.86,6.18 Z M310.46,3.68 L310.42,2.1 C310.42,1.58 310.4,1.36 310.34,0.94 L311.84,0.94 C311.76,1.58 311.74,1.88 311.74,3.44 L311.74,3.66 C315.52,3.64 317.06,3.6 317.72,3.52 L317.72,4.94 C316.98,4.86 316.28,4.84 313.9,4.84 C313.6,4.84 313.38,4.84 311.76,4.88 L311.76,8.84 C312.1,9.68 312.24,10.32 312.24,11.2 C312.24,13.28 311.28,15.12 309.56,16.42 C308.74,17.02 307.86,17.48 306.4,18.04 C306.06,17.4 305.94,17.22 305.52,16.78 C307.08,16.28 307.96,15.88 308.76,15.28 C310.22,14.18 310.92,12.88 311,11.06 C310.82,11.54 310.7,11.76 310.46,12.04 C309.86,12.76 309,13.12 307.94,13.12 C306.02,13.12 304.66,11.8 304.66,9.96 C304.66,8.06 306.16,6.66 308.2,6.66 C309.16,6.66 310,6.98 310.52,7.56 C310.5,7.28 310.5,7.2 310.5,6.46 C310.5,6.38 310.48,6.18 310.48,5.94 L310.48,4.9 C306.46,4.98 302.42,5.18 301.08,5.4 L301.02,3.94 C301.38,3.96 301.52,3.96 301.82,3.96 C302.4,3.96 302.4,3.96 305.62,3.84 C307.54,3.76 309.1,3.72 310.46,3.68 Z M310.4,9.52 C310.4,8.86 310.14,8.44 309.56,8.12 C309.18,7.9 308.76,7.8 308.22,7.8 C306.96,7.8 306,8.7 306,9.9 C306,11.06 306.84,11.88 308.06,11.88 C309.44,11.88 310.4,10.92 310.4,9.52 Z M321.5,12.3 C323.16,12.3 324.5,13.64 324.5,15.3 C324.5,16.96 323.16,18.3 321.5,18.3 C319.84,18.3 318.5,16.96 318.5,15.3 C318.5,13.64 319.84,12.3 321.5,12.3 Z M321.5,13.44 C320.48,13.44 319.64,14.28 319.64,15.3 C319.64,16.32 320.48,17.16 321.5,17.16 C322.52,17.16 323.36,16.32 323.36,15.3 C323.36,14.28 322.52,13.44 321.5,13.44 Z" id="※太字になっている項目は必須です。" fill="#333333"></path>
            <path d="M4.068,149.56 L4.068,148.102 C4.662,148.192 5.058,148.21 5.994,148.21 L12.87,148.21 C13.806,148.21 14.202,148.192 14.796,148.102 L14.796,149.56 C14.256,149.506 13.77,149.488 12.888,149.488 L5.976,149.488 C5.094,149.488 4.608,149.506 4.068,149.56 Z M2.25,158.164 L2.25,156.652 C2.898,156.742 3.276,156.76 4.338,156.76 L14.544,156.76 C15.606,156.76 15.984,156.742 16.632,156.652 L16.632,158.164 C16.038,158.092 15.516,158.074 14.562,158.074 L4.32,158.074 C3.366,158.074 2.862,158.092 2.25,158.164 Z M21.816,150.496 L22.95,150.118 C23.67,151.36 24.066,152.206 24.732,154.114 L23.508,154.528 C23.076,152.944 22.572,151.738 21.816,150.496 Z M25.524,149.74 L26.622,149.398 C27.576,151.108 27.9,151.828 28.368,153.268 L27.18,153.682 C26.856,152.404 26.298,151.09 25.524,149.74 Z M31.77,149.722 L33.102,150.01 C32.994,150.298 32.994,150.298 32.706,151.468 C32.418,152.728 31.77,154.384 31.122,155.5 C29.844,157.696 27.954,159.352 25.164,160.702 C24.894,160.252 24.75,160.072 24.336,159.694 C27.108,158.452 28.8,157.066 30.042,154.996 C30.726,153.862 31.248,152.512 31.572,151.126 C31.698,150.532 31.77,150.118 31.77,149.902 L31.77,149.722 Z M44.1,145.33 L45.576,145.708 C45.414,145.942 45.414,145.942 45.18,146.446 C44.712,147.418 44.55,147.724 44.352,148.048 C44.586,147.994 44.586,147.994 49.788,147.904 C50.418,147.904 50.472,147.886 50.724,147.778 L51.498,148.534 C51.336,148.75 51.336,148.768 51.138,149.416 C50.382,151.954 49.068,154.402 47.538,156.184 C45.882,158.074 43.902,159.496 41.274,160.684 C40.986,160.162 40.842,159.982 40.374,159.622 C43.092,158.506 45,157.138 46.728,155.068 C48.114,153.394 49.194,151.288 49.824,149.038 L43.758,149.146 C42.66,150.91 41.22,152.494 39.456,153.826 C39.15,153.376 38.97,153.214 38.448,152.89 C40.356,151.648 41.724,150.154 42.966,147.958 C43.65,146.77 44.01,145.96 44.1,145.33 Z M64.008,160.936 L62.55,160.936 C62.622,160.504 62.658,160.036 62.658,159.406 L62.658,154.33 C62.658,154.24 62.658,154.222 62.676,154.132 C61.524,154.96 59.184,155.968 56.592,156.76 C56.358,156.184 56.268,156.004 55.926,155.572 C58.104,155.014 59.382,154.564 61.128,153.718 C63.432,152.602 65.43,151.144 67.176,149.272 C66.708,149.308 66.42,149.326 66.15,149.326 L59.274,149.362 C58.464,149.362 58.032,149.38 57.528,149.434 L57.528,148.084 C57.996,148.174 58.518,148.21 59.274,148.21 L62.622,148.21 L62.622,146.59 C62.622,145.996 62.604,145.726 62.55,145.366 L63.99,145.366 C63.918,145.744 63.9,146.014 63.9,146.554 L63.9,148.21 L67.68,148.21 C68.058,148.21 68.238,148.174 68.472,148.084 L69.138,148.876 C68.868,149.11 68.832,149.146 68.652,149.362 C67.446,150.784 66.51,151.63 64.476,153.088 C67.248,154.15 68.778,154.888 71.064,156.22 L70.326,157.408 C68.832,156.4 67.266,155.554 64.386,154.258 C64.296,154.222 64.116,154.132 63.864,153.988 C63.918,154.258 63.936,154.474 63.936,154.906 L63.936,159.37 C63.936,160.162 63.936,160.45 64.008,160.936 Z M74.016,153.826 L74.016,152.35 C74.538,152.44 75.024,152.458 76.248,152.458 L86.706,152.458 C88.038,152.458 88.326,152.44 88.884,152.368 L88.884,153.826 C88.308,153.772 87.894,153.754 86.688,153.754 L76.248,153.754 C74.934,153.754 74.556,153.772 74.016,153.826 Z M97.11,145.69 L98.694,146.068 C98.514,146.41 98.388,146.77 98.208,147.364 C96.894,151.684 95.67,155.14 94.464,157.894 C96.858,157.732 101.088,157.174 103.212,156.76 C102.258,154.87 101.322,153.322 100.44,152.098 L101.556,151.486 C102.996,153.466 104.796,156.724 106.038,159.622 L104.778,160.306 C104.382,159.28 104.13,158.704 103.716,157.876 C100.692,158.47 97.11,158.956 92.646,159.37 C91.962,159.424 91.458,159.496 91.116,159.568 L90.936,158.074 C91.35,158.092 91.35,158.092 91.44,158.092 C91.566,158.092 92.556,158.038 92.97,158.002 C94.086,155.482 94.806,153.574 95.688,150.874 C96.57,148.156 96.966,146.716 97.11,145.69 Z" id="ニックネーム" fill="#333333"></path>
        </g>
    </g>
</svg>