<?xml version="1.0" encoding="UTF-8" standalone="no"?>
<svg width="500px" height="272px" viewBox="0 0 500 272" version="1.1" xmlns="http://www.w3.org/2000/svg" xmlns:xlink="http://www.w3.org/1999/xlink" style="background: #FFFFFF;">
    <!-- Generator: Sketch 49.3 (51167) - http://www.bohemiancoding.com/sketch -->
    <title>1.3.3_ok_02</title>
    <desc>Created with Sketch.</desc>
    <defs>
        <rect id="path-1" x="128" y="0" width="280" height="40" rx="4"></rect>
        <rect id="path-2" x="128" y="70" width="280" height="40" rx="4"></rect>
    </defs>
    <g id="1.3.3_ok_02" stroke="none" stroke-width="1" fill="none" fill-rule="evenodd">
        <g id="Group-2" transform="translate(46.000000, 81.000000)">
            <g id="Rectangle-7">
                <use fill="#FFFFFF" fill-rule="evenodd" xlink:href="#path-1"></use>
                <rect stroke="#CCCCCC" stroke-width="1" x="128.5" y="0.5" width="279" height="39" rx="4"></rect>
            </g>
            <g id="Rectangle-7-Copy">
                <use fill="#FFFFFF" fill-rule="evenodd" xlink:href="#path-2"></use>
                <rect stroke="#CCCCCC" stroke-width="1" x="128.5" y="70.5" width="279" height="39" rx="4"></rect>
            </g>
            <path d="M11.126,21.492 L11.144,25.038 C11.144,25.776 11.108,26.208 11,26.568 C10.838,27.198 10.19,27.612 9.344,27.612 C8.21,27.612 6.842,27.108 5.942,26.334 C5.294,25.776 4.952,25.074 4.952,24.3 C4.952,23.454 5.51,22.5 6.5,21.636 C7.148,21.078 7.94,20.61 9.128,20.106 L9.11,17.334 C8.966,17.334 8.966,17.334 8.372,17.37 C8.102,17.388 7.85,17.388 7.4,17.388 C7.13,17.388 6.626,17.37 6.41,17.37 C6.176,17.352 6.014,17.352 5.96,17.352 C5.888,17.352 5.744,17.352 5.582,17.37 L5.564,15.354 C6.068,15.462 6.788,15.516 7.742,15.516 C7.922,15.516 8.12,15.516 8.372,15.498 C8.804,15.48 8.894,15.48 9.092,15.48 L9.092,14.292 C9.092,13.266 9.074,12.798 8.984,12.222 L11.234,12.222 C11.144,12.798 11.126,13.176 11.126,14.184 L11.126,15.336 C12.476,15.174 13.682,14.94 14.6,14.652 L14.672,16.668 C14.348,16.722 14.006,16.776 12.764,16.992 C12.17,17.1 11.81,17.154 11.126,17.226 L11.126,19.566 C12.35,19.206 13.484,19.062 14.798,19.062 C17.804,19.062 19.946,20.898 19.946,23.454 C19.946,25.794 18.2,27.558 15.86,27.558 C14.402,27.558 13.376,26.856 12.908,25.56 C12.674,24.948 12.602,24.354 12.602,23.256 C13.52,23.004 13.826,22.878 14.6,22.464 C14.564,22.806 14.564,22.968 14.564,23.256 C14.564,24.012 14.636,24.498 14.816,24.84 C15.014,25.218 15.446,25.452 15.95,25.452 C17.012,25.452 17.768,24.606 17.768,23.454 C17.768,21.906 16.508,20.898 14.582,20.898 C13.502,20.898 12.404,21.096 11.126,21.492 Z M9.11,24.768 L9.11,22.14 C7.76,22.86 6.968,23.652 6.968,24.3 C6.968,24.606 7.148,24.876 7.562,25.128 C7.922,25.38 8.372,25.524 8.714,25.524 C9.02,25.524 9.11,25.362 9.11,24.768 Z M20.738,17.172 L19.082,18.504 C18.182,17.082 16.868,15.66 15.482,14.616 L17.174,13.482 C18.74,14.688 19.784,15.768 20.738,17.172 Z M26.642,17.514 L28.136,16.452 C29.306,17.28 29.342,17.298 30.386,18.252 C31.646,17.226 32.294,16.56 33.464,15.138 L28.73,15.138 C27.326,16.65 25.868,17.766 23.87,18.882 C23.564,18.27 23.258,17.91 22.646,17.37 C25.598,15.93 27.974,13.77 29.036,11.556 L31.16,12.078 C30.692,12.762 30.53,12.978 30.224,13.392 L33.914,13.392 C34.598,13.392 35.03,13.374 35.498,13.302 L36.56,14.436 C36.344,14.706 36.326,14.724 35.912,15.264 C34.346,17.316 32.618,18.972 30.494,20.466 L36.326,20.466 C37.046,20.466 37.406,20.448 37.838,20.394 C37.766,20.88 37.748,21.348 37.748,22.05 L37.748,26.676 C37.748,27.396 37.784,27.99 37.856,28.458 L35.804,28.458 L35.804,27.486 L28.928,27.486 L28.928,28.458 L26.84,28.458 C26.912,27.918 26.948,27.324 26.948,26.676 L26.948,22.77 C25.85,23.382 25.148,23.706 23.528,24.39 C23.222,23.616 22.97,23.238 22.376,22.59 C23.924,22.086 25.4,21.456 26.696,20.754 C27.272,20.43 27.866,20.052 28.838,19.404 C28.082,18.612 27.578,18.18 26.642,17.514 Z M28.91,22.23 L28.91,25.776 L35.822,25.776 L35.822,22.23 L28.91,22.23 Z M42.59,14.166 L45.272,14.166 C44.822,13.41 44.552,13.032 43.814,12.186 L45.758,11.628 C46.658,12.816 46.892,13.158 47.432,14.166 L49.862,14.166 C50.582,13.32 50.996,12.654 51.446,11.646 L53.48,12.204 C53.012,12.942 52.472,13.662 52.04,14.166 L54.812,14.166 C55.694,14.166 56.234,14.13 56.738,14.058 L56.738,16.002 C56.198,15.912 55.73,15.894 54.812,15.894 L42.59,15.894 C41.726,15.894 41.222,15.912 40.664,16.002 L40.664,14.058 C41.366,14.148 41.672,14.166 42.59,14.166 Z M43.526,24.624 L43.526,26.46 C43.526,27.378 43.544,27.864 43.634,28.386 L41.564,28.386 C41.636,27.792 41.654,27.27 41.654,26.334 L41.654,18.576 C41.654,17.694 41.636,17.406 41.6,16.956 C42.14,17.01 42.572,17.028 43.292,17.028 L46.784,17.028 C47.702,17.028 47.99,17.01 48.386,16.956 C48.35,17.388 48.332,17.802 48.332,18.756 L48.332,26.496 C48.332,27.882 47.936,28.224 46.262,28.224 C45.992,28.224 45.776,28.224 45.128,28.206 C45.002,27.36 44.948,27.144 44.696,26.442 C45.29,26.514 45.632,26.55 45.956,26.55 C46.388,26.55 46.478,26.478 46.478,26.154 L46.478,24.624 L43.526,24.624 Z M43.526,22.932 L46.478,22.932 L46.478,21.672 L43.526,21.672 L43.526,22.932 Z M43.526,19.98 L46.478,19.98 L46.478,18.72 L43.526,18.72 L43.526,19.98 Z M49.952,17.28 L52.022,17.28 C51.95,17.784 51.932,18.09 51.932,18.99 L51.932,22.842 C51.932,23.994 51.95,24.264 52.004,24.786 L49.97,24.786 C50.024,24.264 50.042,23.94 50.042,22.86 L50.042,18.972 C50.042,18.144 50.024,17.82 49.952,17.28 Z M53.75,16.794 L55.856,16.794 C55.766,17.298 55.748,17.802 55.748,18.702 L55.748,26.28 C55.748,27.072 55.622,27.54 55.334,27.828 C54.956,28.188 54.47,28.314 53.318,28.314 C52.886,28.314 52.508,28.296 51.374,28.242 C51.266,27.504 51.14,27.072 50.816,26.334 C51.806,26.478 52.472,26.532 53.012,26.532 C53.75,26.532 53.84,26.46 53.84,25.956 L53.84,18.648 C53.84,17.64 53.822,17.316 53.75,16.794 Z M64.532,28.89 L62.66,30.168 C61.652,28.71 61.238,27.972 60.752,26.748 C60.032,25.002 59.708,23.274 59.708,21.384 C59.708,19.818 59.942,18.288 60.41,16.902 C60.896,15.408 61.418,14.418 62.66,12.636 L64.568,13.86 C63.524,15.372 63.092,16.182 62.696,17.442 C62.282,18.684 62.084,19.998 62.084,21.42 C62.084,22.824 62.282,24.138 62.66,25.326 C63.056,26.55 63.488,27.36 64.532,28.89 Z M70.148,26.262 L70.148,26.064 C68.852,26.964 68.294,27.324 66.89,28.044 C66.458,27.288 66.17,26.928 65.54,26.334 C67.286,25.56 68.636,24.768 70.148,23.652 L70.148,17.604 C70.148,16.902 70.13,16.56 70.04,15.768 L72.218,15.768 C72.146,16.326 72.11,16.902 72.11,17.55 L72.11,21.996 C73.46,20.718 74.864,19.008 75.962,17.28 C76.916,15.768 77.726,14.022 77.978,12.906 L80.048,13.734 C79.832,14.112 79.832,14.112 79.346,15.12 C78.068,17.73 76.646,19.872 74.828,21.96 C74,22.914 73.262,23.616 72.11,24.552 L72.11,25.812 C72.11,26.262 72.578,26.388 74.288,26.388 C75.89,26.388 76.502,26.262 76.718,25.884 C76.97,25.434 77.114,24.3 77.15,22.482 C77.924,22.86 78.32,23.004 79.058,23.166 C78.662,27.9 78.374,28.188 74.18,28.188 C70.886,28.188 70.148,27.828 70.148,26.262 Z M69.968,13.284 L71.174,11.736 C73.586,12.69 74.522,13.14 76.43,14.31 L75.242,16.038 C73.874,15.012 72.362,14.22 69.968,13.284 Z M67.232,17.388 L69.14,17.748 C68.69,20.754 68.348,22.068 67.376,24.57 L65.504,23.634 C66.476,21.42 66.836,20.124 67.232,17.388 Z M77.978,18.45 L79.742,17.586 C80.93,19.854 81.614,21.51 82.514,24.354 L80.606,25.38 C79.76,22.194 79.274,20.898 77.978,18.45 Z M92.018,24.93 L91.478,24.93 C90.848,24.93 90.47,24.948 90.056,24.984 C90.092,24.498 90.11,23.922 90.11,23.292 L90.11,22.986 C88.418,25.308 86.924,26.694 84.584,28.116 C84.278,27.414 83.954,26.856 83.45,26.262 C84.836,25.524 85.808,24.804 86.852,23.724 C87.626,22.95 88.04,22.392 88.508,21.564 L90.11,22.842 L90.11,17.046 C90.11,16.434 90.092,15.966 90.038,15.39 C90.434,15.426 90.704,15.444 91.55,15.444 L93.062,15.444 C93.314,14.94 93.476,14.562 93.62,14.166 L91.46,14.166 C90.578,14.166 90.074,14.184 89.57,14.238 L89.57,13.266 C88.652,14.22 88.652,14.22 88.094,14.706 C87.068,15.606 85.772,16.488 84.548,17.118 C84.26,16.47 83.882,15.75 83.54,15.282 C85.016,14.598 85.862,14.058 86.798,13.248 C87.374,12.726 87.77,12.276 88.076,11.808 L89.57,12.96 L89.57,12.312 C90.182,12.384 90.83,12.42 91.64,12.42 L98.084,12.42 C98.93,12.42 99.578,12.384 100.208,12.312 L100.208,14.238 C99.776,14.184 99.272,14.166 98.246,14.166 L95.636,14.166 C95.492,14.562 95.294,14.976 95.06,15.444 L97.616,15.444 C98.57,15.444 98.966,15.426 99.398,15.39 C99.344,15.876 99.326,16.362 99.326,17.118 L99.326,23.13 C99.326,23.976 99.344,24.462 99.398,24.984 C98.876,24.948 98.39,24.93 97.796,24.93 L96.662,24.93 C97.814,25.848 98.516,26.19 100.514,26.802 C100.1,27.36 99.794,27.9 99.542,28.548 C97.598,27.864 96.644,27.288 95.042,25.902 L96.428,24.93 L92.396,24.93 L93.548,25.902 C92.09,27.162 91.064,27.774 88.994,28.584 C88.706,27.99 88.382,27.504 87.914,26.928 C89.912,26.316 90.794,25.902 92.018,24.93 Z M91.982,17.064 L91.982,18.036 L97.436,18.036 L97.436,17.064 L91.982,17.064 Z M91.982,19.548 L91.982,20.574 L97.436,20.574 L97.436,19.548 L91.982,19.548 Z M91.982,22.122 L91.982,23.22 L97.436,23.22 L97.436,22.122 L91.982,22.122 Z M88.346,16.524 L89.948,17.802 C89.696,18.054 89.696,18.054 89.066,18.702 C87.662,20.178 86.186,21.294 84.458,22.212 C84.224,21.6 83.954,21.06 83.504,20.304 C84.854,19.674 85.718,19.134 86.708,18.288 C87.428,17.676 87.878,17.208 88.346,16.524 Z M103.34,30.168 L101.468,28.89 C102.512,27.36 102.944,26.55 103.34,25.326 C103.718,24.12 103.916,22.842 103.916,21.42 C103.916,19.998 103.718,18.684 103.304,17.442 C102.908,16.182 102.476,15.372 101.432,13.86 L103.34,12.636 C104.582,14.418 105.104,15.408 105.608,16.902 C106.058,18.306 106.292,19.8 106.292,21.384 C106.292,23.292 105.968,25.002 105.266,26.748 C104.762,27.972 104.348,28.71 103.34,30.168 Z" id="お名前(必須)" fill="#F24C3B"></path>
            <path d="M4.068,84.56 L4.068,83.102 C4.662,83.192 5.058,83.21 5.994,83.21 L12.87,83.21 C13.806,83.21 14.202,83.192 14.796,83.102 L14.796,84.56 C14.256,84.506 13.77,84.488 12.888,84.488 L5.976,84.488 C5.094,84.488 4.608,84.506 4.068,84.56 Z M2.25,93.164 L2.25,91.652 C2.898,91.742 3.276,91.76 4.338,91.76 L14.544,91.76 C15.606,91.76 15.984,91.742 16.632,91.652 L16.632,93.164 C16.038,93.092 15.516,93.074 14.562,93.074 L4.32,93.074 C3.366,93.074 2.862,93.092 2.25,93.164 Z M21.816,85.496 L22.95,85.118 C23.67,86.36 24.066,87.206 24.732,89.114 L23.508,89.528 C23.076,87.944 22.572,86.738 21.816,85.496 Z M25.524,84.74 L26.622,84.398 C27.576,86.108 27.9,86.828 28.368,88.268 L27.18,88.682 C26.856,87.404 26.298,86.09 25.524,84.74 Z M31.77,84.722 L33.102,85.01 C32.994,85.298 32.994,85.298 32.706,86.468 C32.418,87.728 31.77,89.384 31.122,90.5 C29.844,92.696 27.954,94.352 25.164,95.702 C24.894,95.252 24.75,95.072 24.336,94.694 C27.108,93.452 28.8,92.066 30.042,89.996 C30.726,88.862 31.248,87.512 31.572,86.126 C31.698,85.532 31.77,85.118 31.77,84.902 L31.77,84.722 Z M44.1,80.33 L45.576,80.708 C45.414,80.942 45.414,80.942 45.18,81.446 C44.712,82.418 44.55,82.724 44.352,83.048 C44.586,82.994 44.586,82.994 49.788,82.904 C50.418,82.904 50.472,82.886 50.724,82.778 L51.498,83.534 C51.336,83.75 51.336,83.768 51.138,84.416 C50.382,86.954 49.068,89.402 47.538,91.184 C45.882,93.074 43.902,94.496 41.274,95.684 C40.986,95.162 40.842,94.982 40.374,94.622 C43.092,93.506 45,92.138 46.728,90.068 C48.114,88.394 49.194,86.288 49.824,84.038 L43.758,84.146 C42.66,85.91 41.22,87.494 39.456,88.826 C39.15,88.376 38.97,88.214 38.448,87.89 C40.356,86.648 41.724,85.154 42.966,82.958 C43.65,81.77 44.01,80.96 44.1,80.33 Z M64.008,95.936 L62.55,95.936 C62.622,95.504 62.658,95.036 62.658,94.406 L62.658,89.33 C62.658,89.24 62.658,89.222 62.676,89.132 C61.524,89.96 59.184,90.968 56.592,91.76 C56.358,91.184 56.268,91.004 55.926,90.572 C58.104,90.014 59.382,89.564 61.128,88.718 C63.432,87.602 65.43,86.144 67.176,84.272 C66.708,84.308 66.42,84.326 66.15,84.326 L59.274,84.362 C58.464,84.362 58.032,84.38 57.528,84.434 L57.528,83.084 C57.996,83.174 58.518,83.21 59.274,83.21 L62.622,83.21 L62.622,81.59 C62.622,80.996 62.604,80.726 62.55,80.366 L63.99,80.366 C63.918,80.744 63.9,81.014 63.9,81.554 L63.9,83.21 L67.68,83.21 C68.058,83.21 68.238,83.174 68.472,83.084 L69.138,83.876 C68.868,84.11 68.832,84.146 68.652,84.362 C67.446,85.784 66.51,86.63 64.476,88.088 C67.248,89.15 68.778,89.888 71.064,91.22 L70.326,92.408 C68.832,91.4 67.266,90.554 64.386,89.258 C64.296,89.222 64.116,89.132 63.864,88.988 C63.918,89.258 63.936,89.474 63.936,89.906 L63.936,94.37 C63.936,95.162 63.936,95.45 64.008,95.936 Z M74.016,88.826 L74.016,87.35 C74.538,87.44 75.024,87.458 76.248,87.458 L86.706,87.458 C88.038,87.458 88.326,87.44 88.884,87.368 L88.884,88.826 C88.308,88.772 87.894,88.754 86.688,88.754 L76.248,88.754 C74.934,88.754 74.556,88.772 74.016,88.826 Z M97.11,80.69 L98.694,81.068 C98.514,81.41 98.388,81.77 98.208,82.364 C96.894,86.684 95.67,90.14 94.464,92.894 C96.858,92.732 101.088,92.174 103.212,91.76 C102.258,89.87 101.322,88.322 100.44,87.098 L101.556,86.486 C102.996,88.466 104.796,91.724 106.038,94.622 L104.778,95.306 C104.382,94.28 104.13,93.704 103.716,92.876 C100.692,93.47 97.11,93.956 92.646,94.37 C91.962,94.424 91.458,94.496 91.116,94.568 L90.936,93.074 C91.35,93.092 91.35,93.092 91.44,93.092 C91.566,93.092 92.556,93.038 92.97,93.002 C94.086,90.482 94.806,88.574 95.688,85.874 C96.57,83.156 96.966,81.716 97.11,80.69 Z" id="ニックネーム" fill="#333333"></path>
        </g>
    </g>
</svg>