<?xml version="1.0" encoding="UTF-8" standalone="no"?>
<svg width="500px" height="500px" viewBox="0 0 500 500" version="1.1" xmlns="http://www.w3.org/2000/svg" xmlns:xlink="http://www.w3.org/1999/xlink" style="background: #FFFFFF;">
    <!-- Generator: Sketch 48.2 (47327) - http://www.bohemiancoding.com/sketch -->
    <title>3.3.2_2</title>
    <desc>Created with Sketch.</desc>
    <defs>
        <rect id="path-1" x="0" y="26" width="380" height="50" rx="4"></rect>
        <rect id="path-2" x="0" y="126" width="380" height="50" rx="4"></rect>
        <rect id="path-3" x="0" y="226" width="380" height="50" rx="4"></rect>
        <rect id="path-4" x="0" y="326" width="380" height="50" rx="4"></rect>
    </defs>
    <g id="Page-1" stroke="none" stroke-width="1" fill="none" fill-rule="evenodd">
        <g id="3.3.2_2">
            <g id="Group" transform="translate(60.000000, 62.000000)">
                <path d="M5.508,6.352 L6.354,5.704 C7.668,6.532 8.082,6.82 9,7.63 C10.422,6.37 11.25,5.452 12.474,3.796 L7.092,3.796 C5.724,5.38 4.23,6.622 2.16,7.882 C1.944,7.54 1.782,7.324 1.404,7.018 C3.222,6.01 4.644,4.894 5.85,3.562 C6.876,2.41 7.506,1.528 7.848,0.7 L9.072,1.168 C8.244,2.338 8.244,2.338 7.902,2.788 L11.862,2.788 C12.564,2.788 13.05,2.752 13.536,2.698 L14.184,3.472 C13.986,3.688 13.896,3.814 13.572,4.246 C11.97,6.424 10.206,8.188 7.776,9.988 L14.382,9.988 C14.958,9.988 15.3,9.97 15.678,9.916 C15.606,10.348 15.588,10.78 15.588,11.356 L15.588,15.712 C15.588,16.27 15.624,16.918 15.696,17.314 L14.436,17.314 L14.436,16.306 L6.912,16.306 L6.912,17.314 L5.652,17.314 C5.724,16.846 5.76,16.198 5.76,15.712 L5.76,11.356 C4.536,12.13 3.438,12.706 1.746,13.462 C1.548,13.03 1.404,12.796 1.026,12.4 C3.816,11.338 5.886,10.15 8.118,8.35 C7.236,7.504 6.786,7.162 5.508,6.352 Z M6.912,11.032 L6.912,15.298 L14.436,15.298 L14.436,11.032 L6.912,11.032 Z M20.88,3.652 L24.408,3.652 C23.796,2.662 23.454,2.212 22.482,1.15 L23.562,0.718 C24.822,2.23 25.002,2.482 25.65,3.652 L28.224,3.652 C29.106,2.68 29.61,1.978 30.258,0.736 L31.41,1.168 C30.69,2.23 30.06,3.022 29.466,3.652 L33.156,3.652 C33.966,3.652 34.47,3.616 34.956,3.544 L34.956,4.768 C34.434,4.696 33.93,4.66 33.156,4.66 L20.88,4.66 C20.124,4.66 19.638,4.696 19.08,4.768 L19.08,3.544 C19.656,3.634 19.656,3.634 20.88,3.652 Z M21.438,13.156 L21.438,15.316 C21.438,16.27 21.474,16.774 21.546,17.224 L20.232,17.224 C20.304,16.72 20.322,16.18 20.322,15.28 L20.322,7.72 C20.322,6.838 20.304,6.532 20.268,6.118 C20.862,6.172 21.294,6.19 22.014,6.19 L24.84,6.19 C25.83,6.19 26.1,6.172 26.478,6.118 C26.442,6.532 26.424,7 26.424,8.026 L26.424,15.658 C26.424,16.738 26.082,17.044 24.912,17.044 C24.534,17.044 24.102,17.026 23.418,16.972 C23.328,16.45 23.292,16.306 23.13,15.856 C23.778,15.982 24.3,16.036 24.696,16.036 C25.218,16.036 25.326,15.946 25.326,15.568 L25.326,13.156 L21.438,13.156 Z M21.438,12.148 L25.326,12.148 L25.326,10.204 L21.438,10.204 L21.438,12.148 Z M21.438,9.196 L25.326,9.196 L25.326,7.216 L21.438,7.216 L21.438,9.196 Z M28.71,6.334 L30.006,6.334 C29.934,6.766 29.916,7.054 29.916,8.026 L29.916,11.68 C29.916,13.048 29.916,13.282 29.988,13.714 L28.728,13.714 C28.782,13.264 28.8,12.958 28.8,11.698 L28.8,8.026 C28.8,7.108 28.782,6.838 28.71,6.334 Z M32.508,5.794 L33.876,5.794 C33.786,6.262 33.768,6.748 33.768,7.738 L33.768,15.532 C33.768,16.792 33.39,17.116 31.914,17.116 C31.302,17.116 30.708,17.08 29.808,17.008 C29.736,16.558 29.664,16.27 29.466,15.802 C30.42,15.964 31.194,16.036 31.788,16.036 C32.49,16.036 32.616,15.964 32.616,15.496 L32.616,7.702 C32.616,6.622 32.598,6.298 32.508,5.794 Z" id="名前" fill="#333333"></path>
                <g id="Rectangle">
                    <use fill="#FFFFFF" fill-rule="evenodd" xlink:href="#path-1"></use>
                    <rect stroke="#CCCCCC" stroke-width="1" x="0.5" y="26.5" width="379" height="49" rx="4"></rect>
                </g>
                <path d="M10.296,105.92 L7.542,105.92 C6.858,105.92 6.192,105.956 5.652,106.01 L5.652,104.75 C6.12,104.822 6.714,104.858 7.542,104.858 L14.652,104.858 C15.444,104.858 16.074,104.822 16.56,104.75 L16.56,106.01 C16.038,105.956 15.354,105.92 14.67,105.92 L11.466,105.92 L11.466,109.718 L14.13,109.718 C14.868,109.718 15.516,109.682 16.002,109.61 L16.002,110.834 C15.462,110.78 14.796,110.744 14.148,110.744 L11.466,110.744 L11.466,115.406 L15.192,115.406 C15.984,115.406 16.686,115.37 17.154,115.298 L17.154,116.54 C16.614,116.486 15.93,116.45 15.192,116.45 L6.804,116.45 C6.048,116.45 5.364,116.486 4.824,116.54 L4.824,115.298 C5.31,115.37 5.976,115.406 6.768,115.406 L10.296,115.406 L10.296,110.744 L8.064,110.744 C7.398,110.744 6.75,110.78 6.192,110.834 L6.192,109.61 C6.678,109.682 7.308,109.718 8.046,109.718 L10.296,109.718 L10.296,105.92 Z M2.934,115.028 L2.934,109.232 C2.934,108.422 2.97,107.702 3.024,106.874 C2.322,108.08 1.944,108.638 1.098,109.61 C1.026,109.286 0.864,109.034 0.45,108.584 C1.926,107.054 2.988,105.398 3.834,103.382 C4.212,102.446 4.5,101.546 4.59,100.97 L5.778,101.348 C5.13,103.094 4.986,103.436 4.086,105.308 L4.086,115.082 C4.086,115.892 4.122,116.522 4.212,117.188 L2.808,117.188 C2.898,116.558 2.934,116.036 2.934,115.028 Z M8.388,101.906 L9.18,101.096 C10.656,101.87 11.466,102.374 12.798,103.382 L11.952,104.3 C10.854,103.31 10.098,102.806 8.388,101.906 Z M31.896,107.576 L28.89,107.576 C28.782,110.114 28.512,111.77 27.99,113.264 C27.45,114.758 26.748,115.82 25.38,117.206 C25.074,116.81 24.84,116.594 24.462,116.342 C25.776,115.136 26.424,114.182 26.928,112.796 C27.54,111.086 27.792,108.8 27.792,104.858 C27.792,103.796 27.774,103.328 27.72,102.77 C29.556,102.752 32.832,101.924 34.254,101.114 L35.028,102.158 C34.758,102.23 34.65,102.266 34.29,102.374 C32.382,103.04 31.086,103.364 28.926,103.706 L28.926,106.514 L33.606,106.514 C34.326,106.514 34.794,106.478 35.28,106.406 L35.28,107.684 C34.794,107.612 34.326,107.576 33.66,107.576 L33.03,107.576 L33.03,115.352 C33.03,116.252 33.048,116.666 33.138,117.188 L31.788,117.188 C31.86,116.666 31.896,116.18 31.896,115.316 L31.896,107.576 Z M19.26,103.184 L19.26,101.924 C19.782,102.014 20.232,102.032 20.988,102.032 L25.272,102.032 C26.1,102.032 26.514,102.014 26.946,101.942 L26.946,103.166 C26.514,103.094 26.082,103.076 25.29,103.076 L20.952,103.076 C20.268,103.076 19.764,103.112 19.26,103.184 Z M26.154,106.316 L26.154,109.322 C26.154,109.916 26.172,110.24 26.208,110.636 C25.902,110.6 25.776,110.6 25.686,110.6 L25.29,110.6 L24.588,110.582 L21.258,110.582 C21.096,113.624 20.682,115.208 19.584,117.098 C19.242,116.738 19.008,116.558 18.612,116.36 C19.908,114.326 20.214,112.544 20.214,107.252 C20.214,106.1 20.196,105.542 20.142,104.966 C20.7,105.02 21.186,105.038 22.014,105.038 L24.516,105.038 C25.272,105.038 25.722,105.02 26.208,104.966 C26.172,105.326 26.154,105.794 26.154,106.316 Z M21.294,109.592 L25.056,109.592 L25.056,106.028 L21.312,106.028 L21.312,107.954 C21.312,108.854 21.312,108.908 21.294,109.592 Z" id="住所" fill="#333333"></path>
                <g id="Rectangle">
                    <use fill="#FFFFFF" fill-rule="evenodd" xlink:href="#path-2"></use>
                    <rect stroke="#CCCCCC" stroke-width="1" x="0.5" y="126.5" width="379" height="49" rx="4"></rect>
                </g>
                <path d="M20.316,145.904 L15.15,145.904 C14.088,145.904 13.62,145.922 13.026,146.012 L13.026,144.752 C13.638,144.842 14.178,144.878 15.204,144.878 L20.316,144.878 L20.316,144.734 C20.316,143.942 20.28,143.528 20.19,142.988 L21.522,142.988 C21.432,143.528 21.396,144.032 21.396,144.734 L21.396,144.878 L26.778,144.878 C27.948,144.878 28.542,144.842 29.028,144.752 L29.028,146.012 C28.524,145.94 27.786,145.904 26.814,145.904 L21.396,145.904 L21.396,147.398 L25.32,147.398 C26.454,147.398 26.886,147.38 27.372,147.308 C27.318,147.812 27.3,148.208 27.3,149.198 L27.3,151.844 C27.3,152.924 27.3,153.194 27.372,153.752 C26.886,153.662 26.382,153.644 25.32,153.644 L22.224,153.644 C24.168,155.66 26.31,156.812 29.64,157.64 C29.316,158.072 29.19,158.252 28.956,158.774 C27.336,158.234 26.202,157.748 24.906,156.992 C23.484,156.164 22.458,155.318 21.342,154.04 C21.378,154.508 21.396,155.102 21.396,155.444 L21.396,157.28 C21.396,158.252 21.414,158.72 21.522,159.278 L20.19,159.278 C20.28,158.666 20.316,158.216 20.316,157.28 L20.316,155.462 C20.316,155.12 20.334,154.58 20.37,154.076 C19.596,155.012 19.164,155.426 18.246,156.128 C16.788,157.244 15.204,158.072 13.224,158.756 C12.954,158.216 12.846,158.018 12.558,157.676 C14.214,157.226 15.492,156.668 16.932,155.75 C18.102,154.994 18.768,154.454 19.452,153.644 L16.824,153.644 C15.672,153.644 15.24,153.662 14.736,153.752 L14.754,153.518 C14.79,153.14 14.808,152.834 14.808,151.844 L14.808,149.234 C14.808,148.19 14.79,147.866 14.736,147.29 C15.168,147.38 15.654,147.398 16.734,147.398 L20.316,147.398 L20.316,145.904 Z M20.316,148.334 L15.924,148.334 L15.924,149.99 L20.316,149.99 L20.316,148.334 Z M21.396,148.334 L21.396,149.99 L26.184,149.99 L26.184,148.334 L21.396,148.334 Z M20.316,150.908 L15.924,150.908 L15.924,152.726 L20.316,152.726 L20.316,150.908 Z M21.396,150.908 L21.396,152.726 L26.184,152.726 L26.184,150.908 L21.396,150.908 Z M38.262,145.22 L38.262,144.554 C38.262,143.978 38.226,143.51 38.136,143.042 L39.558,143.042 C39.468,143.402 39.432,143.87 39.432,144.554 L39.432,145.22 L44.994,145.22 C45.894,145.22 46.47,145.184 46.992,145.094 L46.992,146.372 C46.524,146.282 46.038,146.264 45.03,146.264 L33.078,146.264 C32.106,146.264 31.638,146.282 31.152,146.372 L31.152,145.094 C31.692,145.184 32.25,145.22 33.15,145.22 L38.262,145.22 Z M38.514,152.654 L34.986,152.654 C34.266,152.654 33.906,152.672 33.384,152.726 C33.438,152.258 33.456,151.916 33.456,151.268 L33.456,149.234 C33.456,148.532 33.438,148.28 33.384,147.74 C33.888,147.794 34.23,147.812 34.986,147.812 L42.816,147.812 C43.68,147.812 44.058,147.794 44.472,147.74 C44.418,148.172 44.4,148.532 44.4,149.234 L44.4,151.268 C44.4,151.898 44.418,152.258 44.454,152.708 C43.986,152.672 43.5,152.654 42.816,152.654 L39.684,152.654 L39.684,157.658 C39.684,158.684 39.216,159.008 37.704,159.008 C37.308,159.008 36.552,158.972 35.94,158.936 C35.886,158.45 35.832,158.234 35.634,157.748 C36.372,157.874 36.984,157.928 37.578,157.928 C38.37,157.928 38.514,157.856 38.514,157.496 L38.514,152.654 Z M34.59,148.838 L34.59,151.664 L43.266,151.664 L43.266,148.838 L34.59,148.838 Z M35.022,153.464 L36.03,154.076 C34.716,156.182 33.69,157.262 31.782,158.594 C31.44,158.108 31.314,157.964 30.954,157.658 C32.034,157.01 32.574,156.596 33.276,155.876 C34.032,155.12 34.428,154.562 35.022,153.464 Z M41.772,154.076 L42.762,153.446 C43.428,154.526 43.788,154.994 44.526,155.714 C45.282,156.47 45.822,156.884 47.028,157.604 C46.668,157.928 46.434,158.198 46.2,158.594 C45.138,157.856 44.688,157.496 43.932,156.722 C43.068,155.84 42.618,155.282 41.772,154.076 Z M53.472,149.342 L50.898,149.342 C49.998,149.342 49.566,149.36 49.062,149.45 L49.062,148.262 C49.566,148.352 49.998,148.37 50.898,148.37 L52.752,148.37 L52.752,146.084 L51.42,146.084 C50.682,146.084 50.268,146.102 49.782,146.174 L49.782,145.004 C50.214,145.094 50.61,145.112 51.42,145.112 L52.752,145.112 L52.752,144.518 C52.752,143.816 52.716,143.402 52.644,142.934 L53.94,142.934 C53.868,143.348 53.85,143.78 53.85,144.518 L53.85,145.112 L54.408,145.112 C55.146,145.112 55.452,145.094 55.884,145.004 L55.884,146.156 C55.38,146.102 55.038,146.084 54.48,146.084 L53.85,146.084 L53.85,148.37 L54.408,148.37 C55.488,147.146 56.136,146.246 56.874,144.896 C57.108,144.464 57.288,144.032 57.378,143.708 L58.494,144.356 C58.314,144.572 58.242,144.68 58.062,144.986 C57.144,146.588 56.658,147.29 55.74,148.37 L56.316,148.37 C57.234,148.37 57.72,148.352 58.206,148.28 L58.206,149.414 C57.702,149.36 57.216,149.342 56.478,149.342 L54.858,149.342 C54.138,150.08 53.49,150.692 52.806,151.25 L55.47,151.25 C56.28,151.25 56.766,151.232 57.108,151.178 C57.054,151.664 57.054,151.97 57.054,153.068 L57.054,157.244 C57.054,158.09 57.072,158.558 57.126,159.026 L55.992,159.026 L55.992,158.216 L51.942,158.216 L51.942,159.314 L50.772,159.314 C50.826,158.954 50.88,158.198 50.88,157.352 L50.88,152.78 C50.106,153.356 49.908,153.518 49.08,154.058 C48.882,153.608 48.756,153.428 48.45,153.086 C50.322,152.078 51.96,150.854 53.472,149.342 Z M51.942,152.186 L51.942,154.148 L55.992,154.148 L55.992,152.186 L51.942,152.186 Z M51.942,155.084 L51.942,157.262 L55.992,157.262 L55.992,155.084 L51.942,155.084 Z M64.452,143.492 L64.992,144.248 C64.866,144.482 64.866,144.482 64.272,145.85 C63.768,146.984 63.246,147.974 62.454,149.396 C63.426,150.368 63.84,150.908 64.272,151.808 C64.74,152.744 64.974,153.698 64.974,154.598 C64.974,155.642 64.632,156.362 63.984,156.722 C63.588,156.938 63.048,157.028 62.184,157.028 C61.896,157.028 61.464,157.01 60.96,156.974 C60.924,156.47 60.87,156.182 60.708,155.75 C61.41,155.858 61.806,155.894 62.436,155.894 C63.426,155.894 63.768,155.534 63.768,154.436 C63.768,153.482 63.462,152.438 62.922,151.538 C62.508,150.854 62.112,150.404 61.158,149.558 C62.31,147.596 62.868,146.426 63.552,144.554 L59.97,144.554 L59.97,156.938 C59.97,157.892 60.006,158.738 60.096,159.386 L58.728,159.386 C58.8,158.9 58.836,158.252 58.836,156.92 L58.836,145.148 C58.836,144.554 58.818,144.122 58.764,143.51 C59.232,143.546 59.556,143.564 60.24,143.564 L63.066,143.564 C63.75,143.564 64.146,143.546 64.452,143.492 Z M77.808,149.306 L81.174,149.306 C81.984,149.306 82.542,149.27 83.028,149.198 L83.028,150.422 C82.488,150.35 81.948,150.314 81.174,150.314 L72.786,150.314 C71.976,150.314 71.58,150.332 71.058,150.404 L71.058,149.216 C71.544,149.288 71.94,149.306 72.75,149.306 L73.308,149.306 L73.308,146.084 C73.308,145.49 73.272,144.986 73.2,144.518 L74.514,144.518 C74.442,144.968 74.406,145.454 74.406,146.102 L74.406,149.306 L76.692,149.306 L76.692,144.644 C76.692,144.014 76.656,143.564 76.584,143.096 L77.916,143.096 C77.844,143.528 77.808,144.014 77.808,144.662 L77.808,145.598 L80.508,145.598 C81.174,145.598 81.66,145.562 82.146,145.49 L82.146,146.714 C81.606,146.642 81.174,146.606 80.49,146.606 L77.808,146.606 L77.808,149.306 Z M67.89,144.176 L68.646,143.384 C69.888,144.212 70.536,144.734 71.544,145.742 L70.788,146.66 C69.852,145.634 69.096,144.986 67.89,144.176 Z M66.9,148.532 L67.584,147.686 C68.736,148.388 69.474,148.928 70.716,149.972 L69.978,150.962 C68.772,149.792 68.088,149.252 66.9,148.532 Z M69.816,152.906 L70.788,153.626 C70.014,155.552 69.294,157.064 68.412,158.486 C68.196,158.846 68.142,158.954 68.034,159.17 L66.972,158.216 C67.944,157.226 68.952,155.336 69.816,152.906 Z M75.918,155.228 L76.296,156.308 C74.874,157.388 73.956,157.964 72.39,158.774 C72.03,158.954 71.886,159.026 71.67,159.152 L71.076,157.964 C71.58,157.856 72.12,157.622 73.002,157.136 C74.226,156.488 74.856,156.074 75.918,155.228 Z M82.74,158.144 L82.056,159.206 C80.634,157.928 79.77,157.334 77.538,156.038 L78.276,155.264 C80.13,156.254 81.336,157.028 82.74,158.144 Z M78.276,154.58 L77.484,153.734 C78.33,153.212 78.69,152.942 79.536,152.222 C80.166,151.664 80.364,151.448 80.814,150.836 L81.822,151.574 C80.706,152.744 79.842,153.482 78.276,154.58 Z M72.174,151.826 L72.966,150.998 C74.298,151.826 75.126,152.438 76.26,153.446 L75.468,154.346 C74.28,153.194 73.542,152.636 72.174,151.826 Z M92.298,146.606 L93.558,146.606 C94.44,148.1 95.25,149.036 96.69,150.26 C98.166,151.52 99.39,152.258 101.406,153.122 C101.154,153.41 100.866,153.842 100.686,154.184 C99.39,153.536 98.832,153.212 97.932,152.6 C97.914,152.798 97.914,152.996 97.914,153.554 L97.914,157.424 C97.914,158.216 97.95,158.738 98.022,159.26 L96.762,159.26 L96.762,158.252 L89.238,158.252 L89.238,159.26 L87.978,159.26 C88.05,158.756 88.086,158.18 88.086,157.424 L88.086,152.69 C87.33,153.23 86.826,153.536 85.422,154.274 C85.188,153.842 85.044,153.626 84.72,153.284 C86.628,152.42 87.78,151.7 89.148,150.512 C90.606,149.252 91.398,148.28 92.298,146.606 Z M97.212,152.096 C96.348,151.448 95.646,150.818 94.926,150.08 C94.152,149.288 93.756,148.784 92.982,147.56 C91.758,149.522 90.894,150.476 88.878,152.096 L97.212,152.096 Z M89.238,153.122 L89.238,157.226 L96.762,157.226 L96.762,153.122 L89.238,153.122 Z M90.426,143.132 L91.452,143.816 C90.462,145.274 89.724,146.084 88.536,147.02 C87.78,147.632 87.654,147.704 86.196,148.586 C85.836,148.082 85.71,147.938 85.35,147.632 C86.682,146.93 87.474,146.408 88.248,145.76 C89.22,144.95 89.742,144.32 90.426,143.132 Z M94.566,143.744 L95.502,143.096 C96.528,144.482 97.248,145.22 98.49,146.138 C99.138,146.606 99.66,146.93 100.758,147.506 C100.524,147.74 100.236,148.154 100.002,148.55 C97.68,147.2 96.402,146.048 94.566,143.744 Z M117.156,154.868 L116.346,155.894 C114.726,154.202 113.844,153.374 112.206,151.97 C110.622,153.68 109.218,154.832 106.86,156.272 C106.59,155.93 106.338,155.678 105.978,155.372 C108.282,154.04 109.812,152.852 111.342,151.25 C109.74,149.954 108.642,149.18 106.788,148.064 L107.562,147.182 C109.542,148.514 110.442,149.144 112.08,150.404 C113.34,148.874 114.384,147.092 114.726,145.904 L115.914,146.498 C115.734,146.768 115.68,146.876 115.41,147.38 C114.726,148.748 114.006,149.846 112.944,151.106 C114.51,152.366 115.536,153.302 117.156,154.868 Z M118.758,157.028 L118.758,158.36 C118.2,158.27 117.768,158.234 116.994,158.234 L105.042,158.234 L105.042,159.206 L103.728,159.206 C103.818,158.576 103.854,158 103.854,157.244 L103.854,145.814 C103.854,145.076 103.818,144.5 103.782,143.942 C104.394,144.014 104.934,144.032 105.672,144.032 L116.454,144.032 C117.354,144.032 117.84,143.996 118.398,143.906 L118.398,145.238 C117.768,145.148 117.3,145.13 116.436,145.13 L105.042,145.13 L105.042,157.136 L116.976,157.136 C117.858,157.136 118.272,157.118 118.758,157.028 Z M123.15,151.754 L123.15,157.262 C123.15,158.396 123.168,158.756 123.24,159.17 L121.836,159.17 C121.908,158.684 121.944,158.162 121.944,157.208 L121.944,145.634 C121.944,144.95 121.926,144.518 121.872,144.032 C122.34,144.086 122.79,144.104 123.528,144.104 L134.508,144.104 C135.282,144.104 135.732,144.086 136.164,144.032 C136.11,144.536 136.092,144.932 136.092,145.688 L136.092,157.496 C136.092,158.576 135.696,158.828 133.95,158.828 C133.23,158.828 132.24,158.792 131.376,158.72 C131.322,158.27 131.25,157.982 131.088,157.55 C132.348,157.694 133.23,157.766 133.932,157.766 C134.724,157.766 134.886,157.694 134.886,157.352 L134.886,151.754 L123.15,151.754 Z M128.28,150.674 L128.28,145.202 L123.15,145.202 L123.15,150.674 L128.28,150.674 Z M129.45,150.674 L134.886,150.674 L134.886,145.202 L129.45,145.202 L129.45,150.674 Z M146.208,156.47 L146.208,144.896 C146.208,144.212 146.172,143.762 146.082,143.222 L147.576,143.222 C147.486,143.744 147.45,144.194 147.45,144.896 L147.45,156.47 L152.76,156.47 L152.76,148.244 C152.76,147.488 152.724,147.092 152.652,146.57 L154.074,146.57 C154.002,147.182 153.966,147.668 153.966,148.262 L153.966,157.226 C153.966,157.946 154.002,158.486 154.092,159.134 L152.76,159.134 L152.76,157.622 L141.258,157.622 L141.258,159.134 L139.926,159.134 C140.016,158.378 140.052,157.964 140.052,157.316 L140.052,148.334 C140.052,147.65 140.016,147.092 139.926,146.57 L141.348,146.57 C141.276,147.074 141.258,147.578 141.258,148.316 L141.258,156.47 L146.208,156.47 Z M165.414,146.516 L165.414,154.904 C165.414,155.57 165.45,156.2 165.504,156.686 L164.352,156.686 L164.352,155.642 L158.844,155.642 L158.844,157.28 L157.656,157.28 C157.728,156.776 157.782,156.002 157.782,154.904 L157.782,145.706 C157.782,144.932 157.764,144.428 157.71,143.87 C158.232,143.924 158.754,143.942 159.564,143.942 L163.614,143.942 C164.442,143.942 164.946,143.924 165.486,143.87 C165.432,144.32 165.414,144.662 165.414,145.454 L171.048,145.454 C172.074,145.454 172.722,145.418 173.262,145.328 L173.262,146.624 C172.722,146.534 172.254,146.516 171.102,146.516 L170.742,146.516 L170.742,157.532 C170.742,158.72 170.418,158.954 168.798,158.954 C168.168,158.954 167.43,158.936 166.818,158.882 C166.782,158.432 166.728,158.144 166.602,157.694 C167.52,157.802 168.168,157.856 168.798,157.856 C169.446,157.856 169.572,157.784 169.572,157.442 L169.572,146.516 L165.414,146.516 Z M158.862,144.95 L158.862,149.108 L161.022,149.108 L161.022,144.95 L158.862,144.95 Z M162.084,144.95 L162.084,149.108 L164.352,149.108 L164.352,144.95 L162.084,144.95 Z M158.862,150.098 L158.862,154.634 L161.022,154.634 L161.022,150.098 L158.862,150.098 Z M162.084,150.098 L162.084,154.634 L164.352,154.634 L164.352,150.098 L162.084,150.098 Z M183.324,157.892 L181.542,157.892 C181.29,157.424 181.11,157.136 180.732,156.56 L178.824,153.806 L176.826,156.722 C176.538,157.118 176.394,157.388 176.124,157.892 L174.342,157.892 C174.63,157.532 175.116,156.902 175.512,156.326 L178.014,152.87 L175.692,149.63 C175.584,149.468 175.44,149.288 174.612,148.19 L176.376,148.19 C176.556,148.604 176.736,148.91 177.078,149.396 L178.842,151.934 L180.588,149.396 C180.894,148.946 181.128,148.55 181.29,148.19 L183.018,148.19 C182.604,148.766 182.226,149.252 181.92,149.684 L179.652,152.87 L182.028,156.182 C182.208,156.416 182.208,156.416 183.324,157.892 Z M184.152,153.41 L184.152,151.898 C184.656,151.97 185.034,151.988 185.79,151.988 L187.932,151.988 C188.706,151.988 189.084,151.97 189.588,151.898 L189.588,153.41 C189.084,153.338 188.688,153.32 187.932,153.32 L185.79,153.32 C185.07,153.32 184.656,153.338 184.152,153.41 Z M199.416,157.892 L197.634,157.892 C197.382,157.424 197.202,157.136 196.824,156.56 L194.916,153.806 L192.918,156.722 C192.63,157.118 192.486,157.388 192.216,157.892 L190.434,157.892 C190.722,157.532 191.208,156.902 191.604,156.326 L194.106,152.87 L191.784,149.63 C191.676,149.468 191.532,149.288 190.704,148.19 L192.468,148.19 C192.648,148.604 192.828,148.91 193.17,149.396 L194.934,151.934 L196.68,149.396 C196.986,148.946 197.22,148.55 197.382,148.19 L199.11,148.19 C198.696,148.766 198.318,149.252 198.012,149.684 L195.744,152.87 L198.12,156.182 C198.3,156.416 198.3,156.416 199.416,157.892 Z M200.244,153.41 L200.244,151.898 C200.748,151.97 201.126,151.988 201.882,151.988 L204.024,151.988 C204.798,151.988 205.176,151.97 205.68,151.898 L205.68,153.41 C205.176,153.338 204.78,153.32 204.024,153.32 L201.882,153.32 C201.162,153.32 200.748,153.338 200.244,153.41 Z M215.508,157.892 L213.726,157.892 C213.474,157.424 213.294,157.136 212.916,156.56 L211.008,153.806 L209.01,156.722 C208.722,157.118 208.578,157.388 208.308,157.892 L206.526,157.892 C206.814,157.532 207.3,156.902 207.696,156.326 L210.198,152.87 L207.876,149.63 C207.768,149.468 207.624,149.288 206.796,148.19 L208.56,148.19 C208.74,148.604 208.92,148.91 209.262,149.396 L211.026,151.934 L212.772,149.396 C213.078,148.946 213.312,148.55 213.474,148.19 L215.202,148.19 C214.788,148.766 214.41,149.252 214.104,149.684 L211.836,152.87 L214.212,156.182 C214.392,156.416 214.392,156.416 215.508,157.892 Z" id="東京都渋谷区円山町x-x-x" fill="#AAAAAA"></path>
                <path d="M20.208,56.47 L20.208,44.896 C20.208,44.212 20.172,43.762 20.082,43.222 L21.576,43.222 C21.486,43.744 21.45,44.194 21.45,44.896 L21.45,56.47 L26.76,56.47 L26.76,48.244 C26.76,47.488 26.724,47.092 26.652,46.57 L28.074,46.57 C28.002,47.182 27.966,47.668 27.966,48.262 L27.966,57.226 C27.966,57.946 28.002,58.486 28.092,59.134 L26.76,59.134 L26.76,57.622 L15.258,57.622 L15.258,59.134 L13.926,59.134 C14.016,58.378 14.052,57.964 14.052,57.316 L14.052,48.334 C14.052,47.65 14.016,47.092 13.926,46.57 L15.348,46.57 C15.276,47.074 15.258,47.578 15.258,48.316 L15.258,56.47 L20.208,56.47 Z M46.2,59.098 L44.94,59.098 L44.94,58 L33.078,58 L33.078,59.098 L31.818,59.098 C31.89,58.45 31.926,57.838 31.926,57.01 L31.926,45.832 C31.926,45.166 31.89,44.608 31.836,44.032 C32.52,44.104 33.096,44.122 33.906,44.122 L44.13,44.122 C44.922,44.122 45.498,44.104 46.182,44.032 C46.11,44.59 46.092,45.112 46.092,45.832 L46.092,57.01 C46.092,57.838 46.128,58.486 46.2,59.098 Z M33.078,45.166 L33.078,50.332 L38.244,50.332 L38.244,45.166 L33.078,45.166 Z M39.378,45.166 L39.378,50.332 L44.94,50.332 L44.94,45.166 L39.378,45.166 Z M33.078,51.358 L33.078,56.956 L38.244,56.956 L38.244,51.358 L33.078,51.358 Z M39.378,51.358 L39.378,56.956 L44.94,56.956 L44.94,51.358 L39.378,51.358 Z M62.85,48.118 L57.594,48.118 C58.278,50.35 58.89,51.646 59.934,53.248 C60.618,54.256 61.446,55.174 62.526,56.092 C63.462,56.902 64.056,57.316 65.37,58.054 C65.028,58.468 64.902,58.684 64.614,59.242 C61.86,57.406 60.366,55.966 59.016,53.878 C58.08,52.402 57.522,51.196 56.928,49.324 C56.496,51.214 55.92,52.654 55.038,54.04 C53.724,56.092 52.266,57.442 49.53,59.098 C49.296,58.63 49.152,58.396 48.774,58.018 C53.058,55.768 55.254,52.744 55.974,48.118 L51.096,48.118 C50.124,48.118 49.656,48.154 49.116,48.244 L49.116,46.894 C49.584,46.984 50.16,47.02 51.15,47.02 L56.1,47.02 C56.172,46.264 56.19,45.76 56.19,45.076 C56.19,44.248 56.154,43.618 56.064,43.114 L57.504,43.114 C57.414,43.726 57.396,44.086 57.378,44.986 C57.378,45.76 57.342,46.21 57.288,47.02 L62.832,47.02 C63.75,47.02 64.344,46.984 64.812,46.894 L64.812,48.244 C64.254,48.154 63.732,48.118 62.85,48.118 Z M58.8,57.46 L57.792,58.198 C56.802,56.668 56.262,55.984 55.092,54.76 L56.028,54.148 C57.09,55.192 57.846,56.092 58.8,57.46 Z M75.612,57.856 L74.586,58.45 C74.172,57.55 74.01,57.262 73.632,56.578 C71.346,57.478 70.104,57.892 67.998,58.486 C67.746,58.558 67.386,58.666 67.044,58.792 L66.756,57.568 C67.206,57.532 67.566,57.478 68.178,57.334 L68.178,46.912 C68.178,46.21 68.16,45.688 68.106,45.274 C68.502,45.328 68.934,45.346 69.636,45.346 L70.932,45.346 L70.932,44.392 C70.932,43.906 70.896,43.564 70.824,43.186 L72.156,43.186 C72.084,43.546 72.048,43.906 72.048,44.41 L72.048,45.346 L73.38,45.346 C74.082,45.346 74.496,45.328 74.91,45.274 C74.856,45.706 74.838,46.174 74.838,46.93 L74.838,51.16 C74.838,51.862 74.856,52.294 74.892,52.798 C74.46,52.744 74.01,52.726 73.38,52.726 L69.294,52.726 L69.294,57.046 C70.932,56.578 71.454,56.398 73.128,55.732 C72.714,55.048 72.48,54.706 71.85,53.86 L72.804,53.428 C73.92,54.904 74.694,56.128 75.612,57.856 Z M69.294,48.46 L73.74,48.46 L73.74,46.354 L69.294,46.354 L69.294,48.46 Z M69.294,49.432 L69.294,51.718 L73.74,51.718 L73.74,49.432 L69.294,49.432 Z M82.272,43.744 L82.902,44.554 C82.776,44.788 82.686,44.986 82.596,45.22 C82.056,46.588 81.048,48.658 80.364,49.81 C81.3,50.8 81.678,51.268 82.056,51.934 C82.578,52.816 82.83,53.77 82.83,54.742 C82.83,55.93 82.362,56.65 81.426,56.92 C81.102,57.01 80.562,57.064 80.04,57.064 C79.734,57.064 79.356,57.046 78.798,56.992 C78.798,56.47 78.726,56.164 78.582,55.786 C79.194,55.894 79.662,55.948 80.112,55.948 C81.282,55.948 81.642,55.66 81.642,54.724 C81.642,53.896 81.426,53.086 80.994,52.312 C80.562,51.52 80.112,50.98 79.014,49.99 C80.13,48.118 80.706,46.876 81.462,44.824 L77.682,44.824 L77.682,57.334 C77.682,58.234 77.718,58.882 77.808,59.404 L76.44,59.404 C76.512,58.918 76.548,58.396 76.548,57.478 L76.548,45.4 C76.548,44.86 76.53,44.284 76.476,43.762 C76.944,43.798 77.286,43.816 77.898,43.816 L80.886,43.816 C81.552,43.816 81.93,43.798 82.272,43.744 Z" id="山田太郎" fill="#AAAAAA"></path>
                <path d="M12.456,202.014 L13.968,202.59 C13.734,202.932 13.662,203.094 13.41,203.688 C12.24,206.442 11.682,207.54 10.764,208.944 C12.312,210.222 13.464,211.32 14.904,212.814 L13.896,213.93 C12.942,212.706 11.79,211.554 9.972,210.024 C8.082,212.616 5.886,214.506 2.736,216.288 C2.412,215.748 2.268,215.586 1.8,215.208 C4.68,213.804 6.984,211.86 8.964,209.196 C7.326,207.882 5.634,206.766 4.122,205.938 L5.022,204.984 C6.786,206.046 7.686,206.64 9.702,208.116 C10.548,206.784 11.196,205.488 11.826,203.922 C12.276,202.824 12.366,202.536 12.456,202.014 Z M19.566,209.826 L19.566,208.35 C20.088,208.44 20.574,208.458 21.798,208.458 L32.256,208.458 C33.588,208.458 33.876,208.44 34.434,208.368 L34.434,209.826 C33.858,209.772 33.444,209.754 32.238,209.754 L21.798,209.754 C20.484,209.754 20.106,209.772 19.566,209.826 Z M40.842,202.284 L42.336,202.374 C42.264,202.824 42.264,202.824 42.228,203.922 C42.084,208.8 41.94,210.132 41.256,211.95 C40.644,213.624 39.78,214.83 38.142,216.396 C37.782,215.928 37.602,215.766 37.062,215.424 C38.538,214.254 39.51,212.958 40.104,211.284 C40.662,209.718 40.914,207.36 40.914,203.562 C40.914,202.914 40.896,202.698 40.842,202.284 Z M45.324,202.158 L46.8,202.176 C46.71,202.608 46.692,202.932 46.692,203.76 L46.584,214.632 C48.078,214.074 48.996,213.498 49.932,212.544 C50.922,211.518 51.624,210.33 52.056,208.944 C52.434,209.43 52.578,209.592 53.064,209.988 C52.182,212.058 50.994,213.552 49.446,214.614 C48.654,215.154 47.934,215.514 46.872,215.928 C46.548,216.054 46.548,216.054 46.296,216.144 C46.08,216.234 46.044,216.252 45.882,216.342 L45.162,215.514 C45.27,215.208 45.288,215.064 45.288,214.29 L45.396,203.76 C45.396,202.59 45.396,202.59 45.324,202.158 Z M69.696,202.716 L70.416,203.58 C70.236,203.814 70.2,203.868 69.984,204.3 C68.742,206.712 67.068,208.35 64.728,209.43 C64.458,208.98 64.314,208.818 63.846,208.404 C65.106,207.918 65.844,207.486 66.69,206.694 C67.518,205.92 68.184,205.038 68.706,204.012 L58.482,204.012 C57.492,204.012 57.024,204.03 56.358,204.102 L56.358,202.716 C56.97,202.806 57.474,202.842 58.5,202.842 L68.166,202.842 C69.372,202.842 69.372,202.842 69.696,202.716 Z M61.848,205.848 L63.306,205.848 C63.252,206.172 63.252,206.172 63.234,207.108 C63.18,210.114 62.676,211.896 61.452,213.444 C60.354,214.83 59.022,215.73 56.844,216.558 C56.574,215.982 56.448,215.802 56.016,215.352 C57.474,214.92 58.374,214.47 59.31,213.696 C61.218,212.166 61.92,210.33 61.92,206.82 C61.92,206.316 61.902,206.19 61.848,205.848 Z M78.876,216.558 L77.328,216.558 C77.4,216.144 77.418,215.766 77.436,214.668 L77.436,203.49 C77.418,202.356 77.4,202.05 77.328,201.654 L78.876,201.654 C78.804,202.068 78.786,202.41 78.786,203.526 L78.786,206.892 C81.36,207.81 83.844,208.98 86.796,210.69 L86.022,212.022 C84.672,211.014 81.846,209.52 79.308,208.458 C79.056,208.35 78.912,208.278 78.75,208.152 L78.714,208.17 C78.768,208.494 78.786,208.782 78.786,209.232 L78.786,214.65 C78.786,215.73 78.804,216.126 78.876,216.558 Z M83.34,202.842 L84.24,202.374 C85.05,203.346 85.554,204.102 86.094,205.164 L85.194,205.704 C84.744,204.75 83.88,203.4 83.34,202.842 Z M85.392,201.87 L86.274,201.384 C87.084,202.392 87.534,203.058 88.128,204.192 L87.228,204.714 C86.85,203.85 86.094,202.698 85.392,201.87 Z M94.104,202.176 L95.634,202.176 C95.58,202.554 95.544,203.022 95.544,203.778 L95.49,214.632 C97.56,214.29 99.198,213.732 100.638,212.832 C102.438,211.716 103.644,210.42 104.688,208.512 C105.138,209.142 105.246,209.286 105.678,209.646 C103.212,213.318 100.566,214.992 95.76,215.928 C95.058,216.072 94.968,216.09 94.716,216.198 L93.996,215.298 C94.086,214.992 94.122,214.794 94.122,214.128 L94.158,203.814 L94.158,203.148 C94.158,202.788 94.14,202.572 94.104,202.176 Z M124.218,215.028 L123.192,216.162 C121.77,214.344 119.736,212.382 117.432,210.6 C116.172,212.04 115.29,212.868 113.994,213.822 C112.752,214.722 111.798,215.316 110.466,215.982 C110.178,215.442 110.034,215.244 109.584,214.794 C110.97,214.236 111.852,213.75 113.238,212.724 C116.118,210.6 118.35,207.756 119.664,204.606 C119.7,204.498 119.718,204.48 119.754,204.39 C119.79,204.336 119.79,204.318 119.808,204.264 C119.646,204.282 119.592,204.282 119.376,204.282 L113.364,204.372 C112.554,204.39 112.032,204.426 111.51,204.516 L111.474,203.058 C111.96,203.13 112.284,203.148 112.896,203.148 L113.364,203.148 L119.79,203.076 C120.42,203.058 120.636,203.04 120.942,202.932 L121.698,203.706 C121.518,203.922 121.392,204.138 121.194,204.588 C120.186,206.82 119.34,208.242 118.224,209.628 C120.582,211.428 122.166,212.85 124.218,215.028 Z" id="メールアドレス" fill="#333333"></path>
                <g id="Rectangle">
                    <use fill="#FFFFFF" fill-rule="evenodd" xlink:href="#path-3"></use>
                    <rect stroke="#CCCCCC" stroke-width="1" x="0.5" y="226.5" width="379" height="49" rx="4"></rect>
                </g>
                <path d="M21.324,257.892 L19.542,257.892 C19.29,257.424 19.11,257.136 18.732,256.56 L16.824,253.806 L14.826,256.722 C14.538,257.118 14.394,257.388 14.124,257.892 L12.342,257.892 C12.63,257.532 13.116,256.902 13.512,256.326 L16.014,252.87 L13.692,249.63 C13.584,249.468 13.44,249.288 12.612,248.19 L14.376,248.19 C14.556,248.604 14.736,248.91 15.078,249.396 L16.842,251.934 L18.588,249.396 C18.894,248.946 19.128,248.55 19.29,248.19 L21.018,248.19 C20.604,248.766 20.226,249.252 19.92,249.684 L17.652,252.87 L20.028,256.182 C20.208,256.416 20.208,256.416 21.324,257.892 Z M30.972,257.892 L29.19,257.892 C28.938,257.424 28.758,257.136 28.38,256.56 L26.472,253.806 L24.474,256.722 C24.186,257.118 24.042,257.388 23.772,257.892 L21.99,257.892 C22.278,257.532 22.764,256.902 23.16,256.326 L25.662,252.87 L23.34,249.63 C23.232,249.468 23.088,249.288 22.26,248.19 L24.024,248.19 C24.204,248.604 24.384,248.91 24.726,249.396 L26.49,251.934 L28.236,249.396 C28.542,248.946 28.776,248.55 28.938,248.19 L30.666,248.19 C30.252,248.766 29.874,249.252 29.568,249.684 L27.3,252.87 L29.676,256.182 C29.856,256.416 29.856,256.416 30.972,257.892 Z M40.62,257.892 L38.838,257.892 C38.586,257.424 38.406,257.136 38.028,256.56 L36.12,253.806 L34.122,256.722 C33.834,257.118 33.69,257.388 33.42,257.892 L31.638,257.892 C31.926,257.532 32.412,256.902 32.808,256.326 L35.31,252.87 L32.988,249.63 C32.88,249.468 32.736,249.288 31.908,248.19 L33.672,248.19 C33.852,248.604 34.032,248.91 34.374,249.396 L36.138,251.934 L37.884,249.396 C38.19,248.946 38.424,248.55 38.586,248.19 L40.314,248.19 C39.9,248.766 39.522,249.252 39.216,249.684 L36.948,252.87 L39.324,256.182 C39.504,256.416 39.504,256.416 40.62,257.892 Z M50.268,257.892 L48.486,257.892 C48.234,257.424 48.054,257.136 47.676,256.56 L45.768,253.806 L43.77,256.722 C43.482,257.118 43.338,257.388 43.068,257.892 L41.286,257.892 C41.574,257.532 42.06,256.902 42.456,256.326 L44.958,252.87 L42.636,249.63 C42.528,249.468 42.384,249.288 41.556,248.19 L43.32,248.19 C43.5,248.604 43.68,248.91 44.022,249.396 L45.786,251.934 L47.532,249.396 C47.838,248.946 48.072,248.55 48.234,248.19 L49.962,248.19 C49.548,248.766 49.17,249.252 48.864,249.684 L46.596,252.87 L48.972,256.182 C49.152,256.416 49.152,256.416 50.268,257.892 Z M59.916,257.892 L58.134,257.892 C57.882,257.424 57.702,257.136 57.324,256.56 L55.416,253.806 L53.418,256.722 C53.13,257.118 52.986,257.388 52.716,257.892 L50.934,257.892 C51.222,257.532 51.708,256.902 52.104,256.326 L54.606,252.87 L52.284,249.63 C52.176,249.468 52.032,249.288 51.204,248.19 L52.968,248.19 C53.148,248.604 53.328,248.91 53.67,249.396 L55.434,251.934 L57.18,249.396 C57.486,248.946 57.72,248.55 57.882,248.19 L59.61,248.19 C59.196,248.766 58.818,249.252 58.512,249.684 L56.244,252.87 L58.62,256.182 C58.8,256.416 58.8,256.416 59.916,257.892 Z M69.564,257.892 L67.782,257.892 C67.53,257.424 67.35,257.136 66.972,256.56 L65.064,253.806 L63.066,256.722 C62.778,257.118 62.634,257.388 62.364,257.892 L60.582,257.892 C60.87,257.532 61.356,256.902 61.752,256.326 L64.254,252.87 L61.932,249.63 C61.824,249.468 61.68,249.288 60.852,248.19 L62.616,248.19 C62.796,248.604 62.976,248.91 63.318,249.396 L65.082,251.934 L66.828,249.396 C67.134,248.946 67.368,248.55 67.53,248.19 L69.258,248.19 C68.844,248.766 68.466,249.252 68.16,249.684 L65.892,252.87 L68.268,256.182 C68.448,256.416 68.448,256.416 69.564,257.892 Z M82.848,255.66 L83.532,256.632 C82.596,257.208 82.146,257.424 81.336,257.676 C80.31,257.982 79.194,258.162 78.132,258.162 C73.812,258.162 70.842,255.336 70.842,251.232 C70.842,247.002 74.1,243.942 78.6,243.942 C82.578,243.942 85.224,246.318 85.224,249.882 C85.224,251.988 84.306,253.752 82.704,254.742 C82.02,255.156 81.21,255.408 80.58,255.408 C79.77,255.408 79.248,254.94 79.248,254.202 C79.248,254.148 79.248,254.076 79.266,253.986 C78.888,254.472 78.672,254.67 78.294,254.868 C77.844,255.102 77.304,255.228 76.782,255.228 C75.27,255.228 74.28,254.058 74.28,252.258 C74.28,250.98 74.73,249.54 75.45,248.496 C76.278,247.29 77.502,246.588 78.762,246.588 C79.788,246.588 80.454,247.02 80.67,247.794 L80.922,246.858 L82.11,246.858 C81.93,247.308 81.822,247.668 81.588,248.55 L80.292,253.482 C80.238,253.626 80.22,253.77 80.22,253.896 C80.22,254.256 80.382,254.418 80.778,254.418 C81.192,254.418 81.804,254.166 82.308,253.806 C83.46,252.942 84.126,251.538 84.126,249.918 C84.126,246.948 81.894,244.932 78.618,244.932 C74.838,244.932 71.994,247.65 71.994,251.25 C71.994,254.724 74.55,257.136 78.204,257.136 C79.23,257.136 80.31,256.938 81.246,256.578 C81.876,256.344 82.2,256.164 82.848,255.66 Z M78.78,247.56 C77.898,247.56 77.088,248.046 76.512,248.928 C75.882,249.9 75.468,251.232 75.468,252.33 C75.468,253.536 75.99,254.22 76.908,254.22 C77.772,254.22 78.672,253.536 79.248,252.474 C79.77,251.502 80.112,250.188 80.112,249.126 C80.112,248.1 79.662,247.56 78.78,247.56 Z M95.502,257.892 L93.72,257.892 C93.468,257.424 93.288,257.136 92.91,256.56 L91.002,253.806 L89.004,256.722 C88.716,257.118 88.572,257.388 88.302,257.892 L86.52,257.892 C86.808,257.532 87.294,256.902 87.69,256.326 L90.192,252.87 L87.87,249.63 C87.762,249.468 87.618,249.288 86.79,248.19 L88.554,248.19 C88.734,248.604 88.914,248.91 89.256,249.396 L91.02,251.934 L92.766,249.396 C93.072,248.946 93.306,248.55 93.468,248.19 L95.196,248.19 C94.782,248.766 94.404,249.252 94.098,249.684 L91.83,252.87 L94.206,256.182 C94.386,256.416 94.386,256.416 95.502,257.892 Z M105.15,257.892 L103.368,257.892 C103.116,257.424 102.936,257.136 102.558,256.56 L100.65,253.806 L98.652,256.722 C98.364,257.118 98.22,257.388 97.95,257.892 L96.168,257.892 C96.456,257.532 96.942,256.902 97.338,256.326 L99.84,252.87 L97.518,249.63 C97.41,249.468 97.266,249.288 96.438,248.19 L98.202,248.19 C98.382,248.604 98.562,248.91 98.904,249.396 L100.668,251.934 L102.414,249.396 C102.72,248.946 102.954,248.55 103.116,248.19 L104.844,248.19 C104.43,248.766 104.052,249.252 103.746,249.684 L101.478,252.87 L103.854,256.182 C104.034,256.416 104.034,256.416 105.15,257.892 Z M114.798,257.892 L113.016,257.892 C112.764,257.424 112.584,257.136 112.206,256.56 L110.298,253.806 L108.3,256.722 C108.012,257.118 107.868,257.388 107.598,257.892 L105.816,257.892 C106.104,257.532 106.59,256.902 106.986,256.326 L109.488,252.87 L107.166,249.63 C107.058,249.468 106.914,249.288 106.086,248.19 L107.85,248.19 C108.03,248.604 108.21,248.91 108.552,249.396 L110.316,251.934 L112.062,249.396 C112.368,248.946 112.602,248.55 112.764,248.19 L114.492,248.19 C114.078,248.766 113.7,249.252 113.394,249.684 L111.126,252.87 L113.502,256.182 C113.682,256.416 113.682,256.416 114.798,257.892 Z M124.446,257.892 L122.664,257.892 C122.412,257.424 122.232,257.136 121.854,256.56 L119.946,253.806 L117.948,256.722 C117.66,257.118 117.516,257.388 117.246,257.892 L115.464,257.892 C115.752,257.532 116.238,256.902 116.634,256.326 L119.136,252.87 L116.814,249.63 C116.706,249.468 116.562,249.288 115.734,248.19 L117.498,248.19 C117.678,248.604 117.858,248.91 118.2,249.396 L119.964,251.934 L121.71,249.396 C122.016,248.946 122.25,248.55 122.412,248.19 L124.14,248.19 C123.726,248.766 123.348,249.252 123.042,249.684 L120.774,252.87 L123.15,256.182 C123.33,256.416 123.33,256.416 124.446,257.892 Z M134.094,257.892 L132.312,257.892 C132.06,257.424 131.88,257.136 131.502,256.56 L129.594,253.806 L127.596,256.722 C127.308,257.118 127.164,257.388 126.894,257.892 L125.112,257.892 C125.4,257.532 125.886,256.902 126.282,256.326 L128.784,252.87 L126.462,249.63 C126.354,249.468 126.21,249.288 125.382,248.19 L127.146,248.19 C127.326,248.604 127.506,248.91 127.848,249.396 L129.612,251.934 L131.358,249.396 C131.664,248.946 131.898,248.55 132.06,248.19 L133.788,248.19 C133.374,248.766 132.996,249.252 132.69,249.684 L130.422,252.87 L132.798,256.182 C132.978,256.416 132.978,256.416 134.094,257.892 Z M135.678,256.11 L137.46,256.11 L137.46,257.892 L135.678,257.892 L135.678,256.11 Z M148.062,257.892 L146.28,257.892 C146.028,257.424 145.848,257.136 145.47,256.56 L143.562,253.806 L141.564,256.722 C141.276,257.118 141.132,257.388 140.862,257.892 L139.08,257.892 C139.368,257.532 139.854,256.902 140.25,256.326 L142.752,252.87 L140.43,249.63 C140.322,249.468 140.178,249.288 139.35,248.19 L141.114,248.19 C141.294,248.604 141.474,248.91 141.816,249.396 L143.58,251.934 L145.326,249.396 C145.632,248.946 145.866,248.55 146.028,248.19 L147.756,248.19 C147.342,248.766 146.964,249.252 146.658,249.684 L144.39,252.87 L146.766,256.182 C146.946,256.416 146.946,256.416 148.062,257.892 Z M157.71,257.892 L155.928,257.892 C155.676,257.424 155.496,257.136 155.118,256.56 L153.21,253.806 L151.212,256.722 C150.924,257.118 150.78,257.388 150.51,257.892 L148.728,257.892 C149.016,257.532 149.502,256.902 149.898,256.326 L152.4,252.87 L150.078,249.63 C149.97,249.468 149.826,249.288 148.998,248.19 L150.762,248.19 C150.942,248.604 151.122,248.91 151.464,249.396 L153.228,251.934 L154.974,249.396 C155.28,248.946 155.514,248.55 155.676,248.19 L157.404,248.19 C156.99,248.766 156.612,249.252 156.306,249.684 L154.038,252.87 L156.414,256.182 C156.594,256.416 156.594,256.416 157.71,257.892 Z M167.358,257.892 L165.576,257.892 C165.324,257.424 165.144,257.136 164.766,256.56 L162.858,253.806 L160.86,256.722 C160.572,257.118 160.428,257.388 160.158,257.892 L158.376,257.892 C158.664,257.532 159.15,256.902 159.546,256.326 L162.048,252.87 L159.726,249.63 C159.618,249.468 159.474,249.288 158.646,248.19 L160.41,248.19 C160.59,248.604 160.77,248.91 161.112,249.396 L162.876,251.934 L164.622,249.396 C164.928,248.946 165.162,248.55 165.324,248.19 L167.052,248.19 C166.638,248.766 166.26,249.252 165.954,249.684 L163.686,252.87 L166.062,256.182 C166.242,256.416 166.242,256.416 167.358,257.892 Z" id="xxxxxx@xxxxx.xxx" fill="#AAAAAA"></path>
                <path d="M8.226,302.5 L4.248,302.5 C3.51,302.5 3.042,302.518 2.466,302.572 L2.466,301.456 C3.042,301.528 3.6,301.564 4.302,301.564 L13.662,301.564 C14.418,301.564 14.922,301.528 15.444,301.456 L15.444,302.572 C14.886,302.518 14.508,302.5 13.716,302.5 L9.324,302.5 L9.324,303.598 L14.634,303.598 C15.624,303.598 16.11,303.58 16.614,303.508 C16.56,303.94 16.542,304.3 16.542,304.876 L16.542,305.938 C16.542,306.496 16.56,306.82 16.65,307.288 L15.48,307.288 L15.48,304.48 L9.324,304.48 L9.324,306.64 C9.324,307.54 9.342,307.918 9.414,308.404 L8.118,308.404 C8.19,307.954 8.226,307.486 8.226,306.64 L8.226,304.48 L2.412,304.48 L2.412,307.288 L1.242,307.288 C1.314,306.838 1.35,306.478 1.35,305.938 L1.35,304.876 C1.35,304.336 1.332,303.958 1.278,303.508 C1.764,303.58 2.25,303.598 3.24,303.598 L8.226,303.598 L8.226,302.5 Z M8.19,314.344 L3.996,314.344 L3.996,315.352 L2.79,315.352 C2.862,314.902 2.898,314.398 2.898,313.822 L2.898,310.492 C2.898,309.844 2.88,309.376 2.826,308.89 C3.276,308.944 3.672,308.962 4.374,308.962 L13.446,308.962 C14.202,308.962 14.634,308.944 15.084,308.89 C15.03,309.34 15.012,309.79 15.012,310.492 L15.012,313.12 C15.012,313.696 15.03,314.056 15.066,314.416 C14.58,314.362 14.13,314.344 13.446,314.344 L9.288,314.344 L9.288,315.568 C9.288,316 9.666,316.054 12.186,316.054 C14.328,316.054 15.282,315.964 15.588,315.712 C15.822,315.532 15.894,314.992 15.912,313.588 C16.308,313.822 16.362,313.858 17.028,314.092 C16.992,315.514 16.794,316.216 16.344,316.54 C15.84,316.918 14.814,317.026 12.006,317.026 C8.658,317.026 8.19,316.882 8.19,315.838 L8.19,314.344 Z M8.19,309.844 L3.996,309.844 L3.996,311.122 L8.19,311.122 L8.19,309.844 Z M8.19,311.986 L3.996,311.986 L3.996,313.444 L8.19,313.444 L8.19,311.986 Z M9.288,313.444 L13.914,313.444 L13.914,311.986 L9.288,311.986 L9.288,313.444 Z M9.288,311.122 L13.914,311.122 L13.914,309.844 L9.288,309.844 L9.288,311.122 Z M3.402,306.19 L3.402,305.326 C3.744,305.362 3.96,305.38 4.5,305.38 L6.174,305.38 C6.624,305.38 6.93,305.362 7.218,305.326 L7.218,306.19 C6.912,306.136 6.606,306.118 6.174,306.118 L4.5,306.118 C4.032,306.118 3.726,306.136 3.402,306.19 Z M3.402,307.936 L3.402,307.054 C3.69,307.108 3.996,307.126 4.5,307.126 L6.174,307.126 C6.624,307.126 6.912,307.108 7.218,307.054 L7.218,307.936 C6.912,307.882 6.624,307.864 6.174,307.864 L4.5,307.864 C3.996,307.864 3.726,307.882 3.402,307.936 Z M10.422,306.19 L10.422,305.308 C10.71,305.362 11.016,305.38 11.52,305.38 L13.482,305.38 C13.932,305.38 14.238,305.362 14.526,305.308 L14.526,306.19 C14.22,306.136 13.932,306.118 13.482,306.118 L11.52,306.118 C11.034,306.118 10.728,306.136 10.422,306.19 Z M10.422,307.936 L10.422,307.054 C10.71,307.108 11.016,307.126 11.52,307.126 L13.482,307.126 C13.914,307.126 14.238,307.108 14.526,307.054 L14.526,307.936 C14.22,307.882 13.932,307.864 13.482,307.864 L11.52,307.864 C11.016,307.864 10.746,307.882 10.422,307.936 Z M29.502,306.478 L29.502,303.382 C28.152,303.634 27.648,303.706 25.974,303.886 C25.848,303.508 25.812,303.4 25.488,302.842 C27.594,302.734 29.916,302.338 31.716,301.798 C32.724,301.492 33.39,301.24 33.732,301.024 L34.506,302.05 C34.146,302.158 33.948,302.212 33.93,302.212 C33.282,302.446 31.392,302.968 30.636,303.148 L30.636,306.478 L33.012,306.478 C33.912,306.478 34.416,306.442 34.938,306.37 L34.938,307.594 C34.398,307.522 33.876,307.486 33.012,307.486 L30.636,307.486 L30.636,310.564 L32.85,310.564 C33.444,310.564 33.822,310.546 34.2,310.492 C34.146,310.852 34.128,311.374 34.128,312.094 L34.128,315.442 C34.128,316.126 34.164,316.828 34.218,317.206 L32.994,317.206 L32.994,316.306 L27.414,316.306 L27.414,317.206 L26.19,317.206 C26.262,316.81 26.28,316.306 26.28,315.46 L26.28,312.004 C26.28,311.374 26.262,310.978 26.208,310.492 C26.586,310.546 26.982,310.564 27.486,310.564 L29.502,310.564 L29.502,307.486 L27.594,307.486 C26.658,307.486 26.208,307.504 25.596,307.594 L25.596,306.37 C26.154,306.46 26.622,306.478 27.612,306.478 L29.502,306.478 Z M27.414,311.554 L27.414,315.298 L32.994,315.298 L32.994,311.554 L27.414,311.554 Z M19.674,302.824 L19.674,301.69 C20.124,301.762 20.394,301.78 21.06,301.78 L23.562,301.78 C24.21,301.78 24.498,301.762 24.948,301.69 L24.948,302.824 C24.552,302.77 24.138,302.752 23.562,302.752 L21.06,302.752 C20.466,302.752 20.106,302.77 19.674,302.824 Z M19.062,305.308 L19.062,304.156 C19.494,304.228 19.818,304.246 20.502,304.246 L23.85,304.246 C24.57,304.246 24.894,304.228 25.29,304.156 L25.29,305.308 C24.912,305.254 24.642,305.236 23.994,305.236 L20.502,305.236 C19.872,305.236 19.494,305.254 19.062,305.308 Z M19.764,307.756 L19.764,306.64 C20.196,306.694 20.43,306.712 21.06,306.712 L23.724,306.712 C24.336,306.712 24.624,306.694 25.002,306.64 L25.002,307.756 C24.516,307.702 24.3,307.684 23.724,307.684 L21.06,307.684 C20.466,307.684 20.196,307.702 19.764,307.756 Z M19.764,310.24 L19.764,309.124 C20.142,309.178 20.43,309.196 21.06,309.196 L23.724,309.196 C24.354,309.196 24.642,309.178 25.002,309.124 L25.002,310.24 C24.57,310.186 24.3,310.168 23.724,310.168 L21.06,310.168 C20.466,310.168 20.142,310.186 19.764,310.24 Z M21.006,316.324 L21.006,317.296 L19.836,317.296 C19.908,316.81 19.944,316.306 19.944,315.568 L19.944,313.102 C19.944,312.472 19.926,312.076 19.854,311.608 C20.322,311.662 20.772,311.68 21.312,311.68 L23.634,311.68 C24.408,311.68 24.624,311.68 24.948,311.626 C24.912,312.004 24.894,312.382 24.894,313.03 L24.894,315.586 C24.894,316.162 24.912,316.522 24.984,317.062 L23.868,317.062 L23.868,316.324 L21.006,316.324 Z M20.988,312.616 L20.988,315.388 L23.868,315.388 L23.868,312.616 L20.988,312.616 Z M44.316,305.65 L44.316,303.04 C42.534,303.166 40.698,303.256 38.88,303.274 C38.718,302.788 38.628,302.572 38.394,302.23 C39.114,302.248 39.492,302.248 39.87,302.248 C44.01,302.248 48.258,301.744 50.436,301.006 L51.246,302.032 L50.904,302.086 C50.832,302.104 50.706,302.122 50.526,302.158 C49.212,302.428 46.872,302.77 45.396,302.932 L45.396,305.65 L47.556,305.65 C48.222,304.66 48.564,304.012 48.996,302.932 L50.094,303.346 C49.644,304.228 49.32,304.768 48.708,305.65 L50.868,305.65 C51.732,305.65 52.164,305.632 52.686,305.542 L52.686,306.712 C52.164,306.64 51.642,306.604 50.868,306.604 L46.44,306.604 C48.15,308.116 50.436,309.268 53.352,310.06 C53.046,310.456 52.902,310.69 52.722,311.14 C51.246,310.564 51.138,310.51 50.472,310.204 C50.454,310.618 50.454,310.762 50.454,311.212 L50.454,315.694 C50.454,316.396 50.49,316.936 50.562,317.386 L49.392,317.386 L49.392,316.414 L40.608,316.414 L40.608,317.386 L39.438,317.386 C39.51,316.936 39.546,316.324 39.546,315.712 L39.546,311.23 C39.546,310.87 39.528,310.492 39.528,310.222 C38.754,310.6 38.394,310.762 37.476,311.122 C37.314,310.726 37.206,310.546 36.828,310.114 C39.528,309.286 41.652,308.116 43.254,306.604 L39.042,306.604 C38.286,306.604 37.728,306.64 37.224,306.712 L37.224,305.542 C37.71,305.614 38.214,305.65 39.042,305.65 L41.076,305.65 C40.752,305.002 40.464,304.534 39.96,303.85 L40.914,303.436 C41.508,304.3 41.76,304.732 42.21,305.65 L44.316,305.65 Z M49.608,309.79 C47.664,308.764 46.728,308.098 45.324,306.694 C45.342,306.802 45.342,306.856 45.36,306.982 C45.378,307.234 45.396,307.306 45.396,307.396 L45.396,308.044 C45.396,308.566 45.414,308.98 45.45,309.268 L44.244,309.268 C44.298,308.872 44.316,308.53 44.316,308.044 L44.316,307.414 C44.316,307.252 44.334,307.09 44.388,306.712 C43.218,308.008 42.21,308.782 40.392,309.79 L49.608,309.79 Z M40.608,310.726 L40.608,312.562 L44.334,312.562 L44.334,310.726 L40.608,310.726 Z M40.608,313.48 L40.608,315.46 L44.334,315.46 L44.334,313.48 L40.608,313.48 Z M45.378,310.726 L45.378,312.562 L49.392,312.562 L49.392,310.726 L45.378,310.726 Z M45.396,313.48 L45.396,315.46 L49.374,315.46 L49.374,313.48 L45.396,313.48 Z M59.58,309.034 L56.844,309.034 C56.088,309.034 55.476,309.07 54.99,309.142 L54.99,307.864 C55.476,307.936 56.034,307.972 56.844,307.972 L69.156,307.972 C69.966,307.972 70.542,307.936 71.028,307.864 L71.028,309.142 C70.524,309.07 69.93,309.034 69.156,309.034 L60.858,309.034 C60.462,309.952 60.336,310.24 59.976,310.906 L66.546,310.906 C67.626,310.906 68.094,310.888 68.562,310.834 C68.526,310.96 68.526,311.032 68.508,311.158 C68.436,311.788 68.436,311.788 68.382,312.094 C68.04,314.65 67.68,316 67.194,316.558 C66.834,316.99 66.258,317.152 65.124,317.152 C64.296,317.152 63.18,317.08 62.118,316.972 C62.1,316.612 62.028,316.252 61.848,315.766 C63,315.946 64.314,316.072 65.106,316.072 C65.916,316.072 66.186,315.982 66.384,315.622 C66.69,315.046 66.942,313.948 67.212,311.914 L59.436,311.914 C59.094,312.49 58.932,312.742 58.428,313.48 L57.15,313.21 C58.266,311.752 58.878,310.708 59.58,309.034 Z M57.42,305.272 L57.42,302.932 C57.42,302.392 57.402,302.032 57.348,301.582 C58.05,301.654 58.626,301.672 59.364,301.672 L66.582,301.672 C67.608,301.672 68.112,301.654 68.616,301.582 C68.562,302.032 68.544,302.392 68.544,302.932 L68.544,305.272 C68.544,305.83 68.562,306.136 68.616,306.604 C68.022,306.55 67.608,306.532 66.726,306.532 L59.256,306.532 C58.41,306.532 57.942,306.55 57.348,306.604 C57.402,306.118 57.42,305.794 57.42,305.272 Z M67.392,302.68 L58.554,302.68 L58.554,305.542 L67.392,305.542 L67.392,302.68 Z" id="電話番号" fill="#333333"></path>
                <g id="Rectangle">
                    <use fill="#FFFFFF" fill-rule="evenodd" xlink:href="#path-4"></use>
                    <rect stroke="#CCCCCC" stroke-width="1" x="0.5" y="326.5" width="379" height="49" rx="4"></rect>
                </g>
                <path d="M17.904,358.162 C16.572,358.162 15.456,357.73 14.61,356.884 C14.124,356.398 13.746,355.84 13.53,355.228 C13.08,353.968 12.846,352.546 12.846,351.07 C12.846,349.162 13.26,347.218 13.89,346.174 C14.754,344.716 16.14,343.96 17.922,343.96 C19.254,343.96 20.406,344.392 21.216,345.238 C21.72,345.742 22.08,346.3 22.296,346.894 C22.746,348.136 22.98,349.576 22.98,351.07 C22.98,353.248 22.512,355.174 21.72,356.272 C20.82,357.532 19.56,358.162 17.904,358.162 Z M17.904,345.202 C16.968,345.202 16.23,345.508 15.654,346.12 C15.276,346.534 14.988,346.984 14.844,347.434 C14.466,348.532 14.286,349.756 14.286,351.07 C14.286,352.744 14.646,354.508 15.132,355.354 C15.762,356.398 16.698,356.92 17.922,356.92 C18.822,356.92 19.596,356.632 20.136,356.074 C20.532,355.66 20.82,355.192 20.982,354.67 C21.36,353.554 21.54,352.366 21.54,351.034 C21.54,349.468 21.198,347.686 20.73,346.84 C20.136,345.76 19.164,345.202 17.904,345.202 Z M31.566,350.728 C32.322,350.836 32.826,351.052 33.42,351.502 C34.32,352.168 34.77,353.122 34.77,354.328 C34.77,356.794 32.97,358.18 29.802,358.18 C26.508,358.18 24.69,356.812 24.69,354.328 C24.69,353.032 25.212,352.042 26.292,351.34 C26.85,350.98 27.246,350.836 27.912,350.728 C26.328,350.44 25.302,349.162 25.302,347.488 C25.302,345.31 27.012,343.924 29.73,343.924 C32.484,343.924 34.176,345.274 34.176,347.488 C34.176,349.162 33.168,350.422 31.566,350.728 Z M29.73,345.13 C27.894,345.13 26.706,346.102 26.706,347.596 C26.706,349.198 27.858,350.17 29.748,350.17 C31.638,350.17 32.772,349.198 32.772,347.596 C32.772,346.084 31.584,345.13 29.73,345.13 Z M29.73,351.412 C27.516,351.412 26.166,352.492 26.166,354.238 C26.166,355.948 27.48,356.956 29.712,356.956 C30.972,356.956 31.998,356.632 32.61,356.02 C33.06,355.606 33.294,354.976 33.294,354.238 C33.294,352.474 31.944,351.412 29.73,351.412 Z M41.556,358.162 C40.224,358.162 39.108,357.73 38.262,356.884 C37.776,356.398 37.398,355.84 37.182,355.228 C36.732,353.968 36.498,352.546 36.498,351.07 C36.498,349.162 36.912,347.218 37.542,346.174 C38.406,344.716 39.792,343.96 41.574,343.96 C42.906,343.96 44.058,344.392 44.868,345.238 C45.372,345.742 45.732,346.3 45.948,346.894 C46.398,348.136 46.632,349.576 46.632,351.07 C46.632,353.248 46.164,355.174 45.372,356.272 C44.472,357.532 43.212,358.162 41.556,358.162 Z M41.556,345.202 C40.62,345.202 39.882,345.508 39.306,346.12 C38.928,346.534 38.64,346.984 38.496,347.434 C38.118,348.532 37.938,349.756 37.938,351.07 C37.938,352.744 38.298,354.508 38.784,355.354 C39.414,356.398 40.35,356.92 41.574,356.92 C42.474,356.92 43.248,356.632 43.788,356.074 C44.184,355.66 44.472,355.192 44.634,354.67 C45.012,353.554 45.192,352.366 45.192,351.034 C45.192,349.468 44.85,347.686 44.382,346.84 C43.788,345.76 42.816,345.202 41.556,345.202 Z M47.982,353.41 L47.982,351.898 C48.486,351.97 48.864,351.988 49.62,351.988 L51.762,351.988 C52.536,351.988 52.914,351.97 53.418,351.898 L53.418,353.41 C52.914,353.338 52.518,353.32 51.762,353.32 L49.62,353.32 C48.9,353.32 48.486,353.338 47.982,353.41 Z M63.246,357.892 L61.464,357.892 C61.212,357.424 61.032,357.136 60.654,356.56 L58.746,353.806 L56.748,356.722 C56.46,357.118 56.316,357.388 56.046,357.892 L54.264,357.892 C54.552,357.532 55.038,356.902 55.434,356.326 L57.936,352.87 L55.614,349.63 C55.506,349.468 55.362,349.288 54.534,348.19 L56.298,348.19 C56.478,348.604 56.658,348.91 57,349.396 L58.764,351.934 L60.51,349.396 C60.816,348.946 61.05,348.55 61.212,348.19 L62.94,348.19 C62.526,348.766 62.148,349.252 61.842,349.684 L59.574,352.87 L61.95,356.182 C62.13,356.416 62.13,356.416 63.246,357.892 Z M72.894,357.892 L71.112,357.892 C70.86,357.424 70.68,357.136 70.302,356.56 L68.394,353.806 L66.396,356.722 C66.108,357.118 65.964,357.388 65.694,357.892 L63.912,357.892 C64.2,357.532 64.686,356.902 65.082,356.326 L67.584,352.87 L65.262,349.63 C65.154,349.468 65.01,349.288 64.182,348.19 L65.946,348.19 C66.126,348.604 66.306,348.91 66.648,349.396 L68.412,351.934 L70.158,349.396 C70.464,348.946 70.698,348.55 70.86,348.19 L72.588,348.19 C72.174,348.766 71.796,349.252 71.49,349.684 L69.222,352.87 L71.598,356.182 C71.778,356.416 71.778,356.416 72.894,357.892 Z M82.542,357.892 L80.76,357.892 C80.508,357.424 80.328,357.136 79.95,356.56 L78.042,353.806 L76.044,356.722 C75.756,357.118 75.612,357.388 75.342,357.892 L73.56,357.892 C73.848,357.532 74.334,356.902 74.73,356.326 L77.232,352.87 L74.91,349.63 C74.802,349.468 74.658,349.288 73.83,348.19 L75.594,348.19 C75.774,348.604 75.954,348.91 76.296,349.396 L78.06,351.934 L79.806,349.396 C80.112,348.946 80.346,348.55 80.508,348.19 L82.236,348.19 C81.822,348.766 81.444,349.252 81.138,349.684 L78.87,352.87 L81.246,356.182 C81.426,356.416 81.426,356.416 82.542,357.892 Z M92.19,357.892 L90.408,357.892 C90.156,357.424 89.976,357.136 89.598,356.56 L87.69,353.806 L85.692,356.722 C85.404,357.118 85.26,357.388 84.99,357.892 L83.208,357.892 C83.496,357.532 83.982,356.902 84.378,356.326 L86.88,352.87 L84.558,349.63 C84.45,349.468 84.306,349.288 83.478,348.19 L85.242,348.19 C85.422,348.604 85.602,348.91 85.944,349.396 L87.708,351.934 L89.454,349.396 C89.76,348.946 89.994,348.55 90.156,348.19 L91.884,348.19 C91.47,348.766 91.092,349.252 90.786,349.684 L88.518,352.87 L90.894,356.182 C91.074,356.416 91.074,356.416 92.19,357.892 Z M93.018,353.41 L93.018,351.898 C93.522,351.97 93.9,351.988 94.656,351.988 L96.798,351.988 C97.572,351.988 97.95,351.97 98.454,351.898 L98.454,353.41 C97.95,353.338 97.554,353.32 96.798,353.32 L94.656,353.32 C93.936,353.32 93.522,353.338 93.018,353.41 Z M108.282,357.892 L106.5,357.892 C106.248,357.424 106.068,357.136 105.69,356.56 L103.782,353.806 L101.784,356.722 C101.496,357.118 101.352,357.388 101.082,357.892 L99.3,357.892 C99.588,357.532 100.074,356.902 100.47,356.326 L102.972,352.87 L100.65,349.63 C100.542,349.468 100.398,349.288 99.57,348.19 L101.334,348.19 C101.514,348.604 101.694,348.91 102.036,349.396 L103.8,351.934 L105.546,349.396 C105.852,348.946 106.086,348.55 106.248,348.19 L107.976,348.19 C107.562,348.766 107.184,349.252 106.878,349.684 L104.61,352.87 L106.986,356.182 C107.166,356.416 107.166,356.416 108.282,357.892 Z M117.93,357.892 L116.148,357.892 C115.896,357.424 115.716,357.136 115.338,356.56 L113.43,353.806 L111.432,356.722 C111.144,357.118 111,357.388 110.73,357.892 L108.948,357.892 C109.236,357.532 109.722,356.902 110.118,356.326 L112.62,352.87 L110.298,349.63 C110.19,349.468 110.046,349.288 109.218,348.19 L110.982,348.19 C111.162,348.604 111.342,348.91 111.684,349.396 L113.448,351.934 L115.194,349.396 C115.5,348.946 115.734,348.55 115.896,348.19 L117.624,348.19 C117.21,348.766 116.832,349.252 116.526,349.684 L114.258,352.87 L116.634,356.182 C116.814,356.416 116.814,356.416 117.93,357.892 Z M127.578,357.892 L125.796,357.892 C125.544,357.424 125.364,357.136 124.986,356.56 L123.078,353.806 L121.08,356.722 C120.792,357.118 120.648,357.388 120.378,357.892 L118.596,357.892 C118.884,357.532 119.37,356.902 119.766,356.326 L122.268,352.87 L119.946,349.63 C119.838,349.468 119.694,349.288 118.866,348.19 L120.63,348.19 C120.81,348.604 120.99,348.91 121.332,349.396 L123.096,351.934 L124.842,349.396 C125.148,348.946 125.382,348.55 125.544,348.19 L127.272,348.19 C126.858,348.766 126.48,349.252 126.174,349.684 L123.906,352.87 L126.282,356.182 C126.462,356.416 126.462,356.416 127.578,357.892 Z M137.226,357.892 L135.444,357.892 C135.192,357.424 135.012,357.136 134.634,356.56 L132.726,353.806 L130.728,356.722 C130.44,357.118 130.296,357.388 130.026,357.892 L128.244,357.892 C128.532,357.532 129.018,356.902 129.414,356.326 L131.916,352.87 L129.594,349.63 C129.486,349.468 129.342,349.288 128.514,348.19 L130.278,348.19 C130.458,348.604 130.638,348.91 130.98,349.396 L132.744,351.934 L134.49,349.396 C134.796,348.946 135.03,348.55 135.192,348.19 L136.92,348.19 C136.506,348.766 136.128,349.252 135.822,349.684 L133.554,352.87 L135.93,356.182 C136.11,356.416 136.11,356.416 137.226,357.892 Z" id="080-xxxx-xxxx" fill="#AAAAAA"></path>
            </g>
        </g>
    </g>
</svg>