<?xml version="1.0" encoding="UTF-8"?>
<svg width="1250px" height="2048px" viewBox="0 0 1250 2048" version="1.1" xmlns="http://www.w3.org/2000/svg" xmlns:xlink="http://www.w3.org/1999/xlink">
    <!-- Generator: Sketch 48.2 (47327) - http://www.bohemiancoding.com/sketch -->
    <title>open</title>
    <defs></defs>
    <g id="for_export" stroke="none" stroke-width="1" fill="none" fill-rule="evenodd">
        <g id="icon_acrdion_open" fill="#757575">
            <path d="M1250,928.97466 C1250,990.651125 1214.62599,1043.40807 1163.79485,1070.67342 C1133.134,1087.09345 1113.4705,1088.41111 1071.55889,1088.41111 L784.411109,1088.41111 L784.411109,1374.74802 C784.411109,1417.4705 782.181228,1437.134 766.470707,1468.1496 C740.523008,1519.48753 686.499088,1554 624.97466,1554 C563.298196,1554 510.541253,1518.62599 483.275897,1467.79485 C466.906548,1437.134 465.538212,1417.4705 465.538212,1375.60957 L465.538212,1088.41111 L179.201297,1088.41111 C136.478816,1088.41111 116.866004,1086.18123 85.7997162,1070.47071 C34.5124671,1044.52301 0,990.499088 0,928.97466 C0,867.298196 35.3233327,814.541253 86.205149,787.275897 C116.866004,770.906548 136.478816,769.538212 178.339753,769.538212 L465.538212,769.538212 L465.538212,483.201297 C465.538212,440.478816 467.818772,420.815325 483.478613,389.799716 C509.476992,338.512467 563.450233,304 624.97466,304 C686.651125,304 739.408068,339.323333 766.673424,390.205149 C783.093452,420.815325 784.411109,440.478816 784.411109,482.339753 L784.411109,769.538212 L1070.74802,769.538212 C1113.4705,769.538212 1133.134,771.818772 1164.1496,787.478613 C1215.48753,813.476992 1250,867.450233 1250,928.97466" id="Path"></path>
        </g>
    </g>
</svg>
