<svg height="500" viewBox="0 0 500 500" width="500" xmlns="http://www.w3.org/2000/svg" xmlns:xlink="http://www.w3.org/1999/xlink"><defs><path id="a" d="m16 0h240v500h-240z"/><filter id="b" height="112.4%" width="125.8%" x="-12.9%" y="-5.8%"><feOffset dx="0" dy="2" in="SourceAlpha" result="shadowOffsetOuter1"/><feGaussianBlur in="shadowOffsetOuter1" result="shadowBlurOuter1" stdDeviation="10"/><feColorMatrix in="shadowBlurOuter1" type="matrix" values="0 0 0 0 0   0 0 0 0 0   0 0 0 0 0  0 0 0 0.1 0"/></filter><rect id="c" height="222" rx="8" width="212"/><filter id="d" height="127.9%" width="129.2%" x="-14.6%" y="-13.1%"><feOffset dx="0" dy="2" in="SourceAlpha" result="shadowOffsetOuter1"/><feGaussianBlur in="shadowOffsetOuter1" result="shadowBlurOuter1" stdDeviation="10"/><feColorMatrix in="shadowBlurOuter1" type="matrix" values="0 0 0 0 0   0 0 0 0 0   0 0 0 0 0  0 0 0 0.1 0"/></filter></defs><g fill="none" fill-rule="evenodd"><use fill="#000" filter="url(#b)" xlink:href="#a"/><use fill="#efefef" fill-rule="evenodd" xlink:href="#a"/><g transform="translate(16 198)"><path d="m0 0h240v182h-240z" fill="#fff"/><g fill="#e2e2e2"><path d="m16 50h208v18h-208z"/><path d="m16 84h208v18h-208z"/><path d="m16 118h208v18h-208z"/></g><path d="m23.794 17.114h2.322c-.072.306-.126 1.206-.126 1.854 0 2.898.468 4.806 1.764 7.092.756 1.35 1.566 2.304 2.844 3.42 1.062.936 1.602 1.314 2.79 1.944-.684.702-.972 1.134-1.404 1.998-2.196-1.53-3.294-2.556-4.572-4.248-1.098-1.458-1.782-2.844-2.394-4.914-.342 1.44-.666 2.268-1.404 3.636-.72 1.314-1.494 2.286-2.772 3.456-.936.864-1.53 1.296-2.79 2.07-.414-.828-.756-1.278-1.404-1.854 1.836-.972 2.79-1.71 3.924-3.006 2.322-2.664 3.294-5.616 3.294-9.936 0-.702-.018-1.026-.072-1.512zm24.318 2.934h-9.396c-.792 1.188-1.584 2.106-2.682 3.132-.468-.594-.846-.972-1.404-1.404 1.53-1.35 2.52-2.592 3.258-4.068.234-.45.342-.756.396-1.134l2.16.324c-.162.306-.162.306-.63 1.26h8.298c1.026 0 1.656-.036 2.25-.126v2.124c-.594-.072-1.296-.108-2.25-.108zm-2.016 11.466-1.35 1.494c-1.08-1.044-1.89-1.782-3.132-2.772-1.386 1.188-2.61 1.962-5.202 3.24-.36-.63-.63-.972-1.35-1.692 2.448-1.044 3.672-1.71 4.986-2.736-1.098-.81-1.71-1.206-3.132-2.052l1.314-1.206c1.314.756 1.908 1.134 3.186 1.998.846-.9 1.35-1.638 1.566-2.304l1.926.918c-.18.198-.378.468-.774 1.008-.432.612-.72.99-1.17 1.494 1.098.864 1.998 1.602 3.132 2.61zm.414-6.228h-8.748c-.936 0-1.53.036-2.07.108v-1.89c.414.072.846.09 1.548.09h9.144c1.188 0 1.566-.018 2.106-.072-.072.576-.09 1.044-.09 1.638 0 1.908.18 3.474.504 4.626.216.702.324.936.63 1.224.252-.342.378-1.188.432-2.664.594.558.954.792 1.548 1.08-.288 2.826-.846 3.978-1.944 3.978-.81 0-1.728-.936-2.232-2.304-.558-1.476-.792-3.168-.828-5.814zm-8.316-2.682v-1.746c.234.036.81.072 1.35.072h7.542c.9 0 1.512-.036 1.908-.09v1.782c-.54-.072-1.008-.09-1.908-.09h-7.182c-.738 0-1.224.018-1.71.072zm15.264-3.492v-1.782c.486.072.774.09 1.494.09h3.096c.72 0 1.008-.018 1.494-.09v1.782c-.504-.054-.828-.072-1.494-.072h-3.096c-.648 0-1.044.018-1.494.072zm-.612 2.646v-1.872c.432.072.774.09 1.44.09h4.446c.738 0 1.044-.018 1.44-.072v1.854c-.378-.054-.63-.072-1.368-.072h-4.518c-.63 0-1.008.018-1.44.072zm.684 2.52v-1.674c.36.036.594.054 1.188.054h3.708c.594 0 .828-.018 1.152-.054v1.674c-.396-.036-.612-.054-1.152-.054h-3.708c-.576 0-.828.018-1.188.054zm0 2.538v-1.674c.36.036.594.054 1.188.054h3.708c.594 0 .828-.018 1.152-.054v1.674c-.414-.054-.594-.054-1.188-.054h-3.69c-.54 0-.828.018-1.17.054zm1.872 6.75h-1.908c.072-.558.108-1.134.108-1.764v-2.664c0-.576-.018-.972-.09-1.422.45.036.72.054 1.404.054h3.528c.702 0 .9 0 1.206-.054-.054.396-.054.63-.054 1.296v3.024c0 .432.036.972.072 1.278h-1.836v-.72h-2.43zm-.036-4.266v1.692h2.466v-1.692zm7.308-4.302v5.58c0 .36.09.468.414.54.342.072.882.108 1.584.108 1.422 0 1.98-.09 2.25-.36s.396-1.08.432-2.934c.684.324 1.368.558 1.98.666-.144 2.088-.342 3.006-.828 3.654-.468.63-1.422.828-3.888.828-3.294 0-3.942-.288-3.942-1.818v-6.354c0-.864-.018-1.206-.072-1.764.54.054 1.026.072 1.8.072h4.05v-3.816h-4.158c-.792 0-1.332.036-1.872.09v-2.034c.576.072 1.134.108 1.89.108h4.356c.792 0 1.314-.018 1.836-.072-.054.63-.072.954-.072 1.818v3.978c0 .756.018 1.26.072 1.782-.576-.054-.99-.072-1.8-.072zm15.21 1.71v-.792h-4.266c-.648 0-1.17.018-1.656.072v-1.566c.432.054.9.072 1.692.072h4.23v-.684h-3.816c-.648 0-1.098.018-1.512.054.036-.378.054-.756.054-1.206v-1.188c0-.504-.018-.828-.054-1.26.468.036.846.054 1.53.054h3.798v-.684h-4.932c-.882 0-1.476.036-2.106.108v-1.782c.558.072 1.17.108 2.214.108h4.824c-.018-.63-.036-.828-.108-1.224h2.178c-.09.396-.108.576-.126 1.224h5.058c1.044 0 1.638-.036 2.214-.108v1.782c-.612-.072-1.242-.108-2.106-.108h-5.166v.684h4.068c.684 0 1.08-.018 1.512-.054-.036.396-.054.702-.054 1.26v1.188c0 .54.018.81.054 1.206-.396-.036-.864-.054-1.44-.054h-4.14v.684h4.032c1.062 0 1.422-.018 1.926-.054-.054.45-.054.702-.054 1.638v.63c.774 0 1.206-.036 1.566-.09v1.71c-.432-.054-.774-.09-1.566-.09v1.044c0 .936.018 1.422.09 1.944h-2.016v-.702h-3.978v1.008c0 1.62-.45 1.962-2.646 1.962-.432 0-1.152-.036-1.728-.072-.108-.72-.216-1.08-.558-1.782.972.108 1.638.162 2.286.162.558 0 .702-.09.702-.414v-.864h-4.23c-.81 0-1.242.018-1.782.09v-1.674c.486.054.792.072 1.71.072h4.302v-.774h-5.166c-1.026 0-1.512.018-1.98.09v-1.71c.468.072.918.09 1.944.09zm1.944 0h3.978v-.792h-3.978zm0 1.53v.774h3.978v-.774zm-1.944-6.57h-3.366v.738h3.366zm1.944 0v.738h3.618v-.738z" fill="#298538"/><path d="m75.426 152.534h1.12c-.042.238-.07.798-.07 1.246 0 .826.14 2.254.308 3.038.238 1.12.994 2.772 1.806 3.92.56.784 1.316 1.582 2.072 2.212.448.378.812.616 1.624 1.092-.336.308-.49.476-.728.882-1.708-1.162-2.716-2.142-3.71-3.584-.868-1.274-1.4-2.576-1.82-4.452-.252 1.33-.49 2.086-.966 3.122-.49 1.078-1.106 1.974-2.002 2.87-.784.812-1.358 1.274-2.576 2.044-.238-.378-.406-.56-.756-.826 1.414-.784 2.044-1.246 2.856-2.114 1.946-2.086 2.898-4.774 2.898-8.218 0-.588-.014-.868-.056-1.232zm18.41 1.834h-7.336c-.7 1.162-1.26 1.834-2.198 2.702-.098-.21-.294-.378-.658-.616 1.204-1.008 2.03-2.114 2.674-3.542.154-.336.224-.546.266-.826l.994.224c-.098.168-.112.196-.238.49-.126.252-.182.378-.392.756h6.888c.812 0 1.288-.028 1.764-.098v1.008c-.336-.07-.91-.098-1.764-.098zm-1.316 9.31-.644.728c-.868-.896-1.484-1.456-2.73-2.436-1.316 1.218-2.31 1.876-4.382 2.856-.21-.35-.336-.504-.672-.77 2.002-.84 3.15-1.526 4.34-2.618-.84-.616-1.386-.966-2.674-1.722l.602-.56c1.134.644 1.736 1.022 2.674 1.694.812-.84 1.372-1.624 1.568-2.17l.896.518c-.056.07-.056.07-.196.238-.07.098-.07.098-.35.476-.364.504-.77.994-1.204 1.456 1.036.77 1.792 1.414 2.772 2.31zm.644-5.348h-7.224c-.616 0-1.036.028-1.442.084v-.952c.378.056.756.084 1.302.084h6.706c.826 0 1.148-.014 1.582-.07-.042.42-.056.742-.056 1.19 0 1.708.182 3.122.518 4.074.196.56.546 1.106.7 1.106.196 0 .42-1.05.504-2.338.294.294.448.406.77.546-.112.966-.196 1.386-.378 1.918-.182.588-.49.91-.84.91-.546 0-1.232-.826-1.61-1.96-.35-1.05-.504-2.366-.532-4.592zm-6.986-1.918v-.924c.266.056.644.07 1.218.07h5.67c.672 0 1.078-.028 1.372-.084v.952c-.378-.07-.714-.084-1.372-.084h-5.586c-.574 0-.952.014-1.302.07zm12.152-2.674v-.882c.336.056.56.07 1.064.07h2.198c.504 0 .714-.014 1.064-.07v.882c-.308-.042-.616-.056-1.064-.056h-2.198c-.448 0-.728.014-1.064.056zm-.49 1.974v-.91c.322.056.588.07 1.12.07h3.136c.574 0 .826-.014 1.12-.07v.91c-.28-.042-.518-.056-1.022-.056h-3.234c-.49 0-.784.014-1.12.056zm.546 1.96v-.868c.294.042.518.056 1.008.056h2.324c.476 0 .728-.014.994-.056v.868c-.336-.042-.546-.056-.994-.056h-2.324c-.462 0-.714.014-1.008.056zm0 1.918v-.868c.294.042.518.056 1.008.056h2.324c.49 0 .714-.014.994-.056v.868c-.378-.042-.546-.056-.994-.056h-2.324c-.448 0-.714.014-1.008.056zm.98 5.516h-.91c.056-.406.084-.784.084-1.358v-1.89c0-.476-.014-.798-.07-1.162.364.042.686.056 1.12.056h2.128c.602 0 .756 0 1.008-.042-.028.308-.042.574-.042 1.092v2.016c0 .392.028.77.07 1.106h-.868v-.7h-2.52zm-.014-3.64v2.03h2.534v-2.03zm5.432-3.234v4.998c0 .28.07.364.364.434.238.056.84.084 1.638.084 1.456 0 1.918-.07 2.184-.322.21-.224.35-.938.42-2.268.308.182.658.35.938.42-.154 1.358-.322 2.072-.616 2.45-.336.448-1.022.574-2.968.574-1.204 0-1.876-.056-2.296-.168-.434-.14-.588-.378-.588-1.008v-4.704c0-.658-.014-.952-.07-1.344.406.042.784.056 1.358.056h3.514v-3.598h-3.794c-.574 0-.91.014-1.288.07v-.98c.392.056.798.084 1.288.084h3.388c.588 0 .924-.014 1.33-.056-.028.364-.042.602-.042 1.372v2.66c0 .56.014.924.056 1.302-.434-.042-.784-.056-1.372-.056zm12.67 1.918v-.966h-3.29c-.574 0-.91.014-1.316.07v-.868c.35.056.686.07 1.344.07h3.262v-.91h-2.926c-.462 0-.84.014-1.148.056.042-.322.056-.574.056-.938v-.616c0-.378-.014-.602-.056-.952.364.042.672.056 1.162.056h2.912v-.924h-4.06c-.644 0-1.148.028-1.568.084v-.924c.378.056.784.084 1.596.084h4.032c0-.686-.014-.896-.084-1.26h1.022c-.084.35-.098.546-.098 1.26h4.284c.812 0 1.232-.028 1.61-.084v.924c-.462-.056-.924-.084-1.582-.084h-4.312v.924h3.22c.49 0 .798-.014 1.148-.056-.042.35-.056.56-.056.952v.616c0 .392.014.588.056.938-.308-.042-.686-.056-1.134-.056h-3.234v.91h3.052c.812 0 1.19-.014 1.568-.056-.028.294-.042.56-.042 1.162v.588c.798 0 1.176-.014 1.484-.084v.882c-.35-.056-.742-.07-1.484-.07v.91c0 .686.028 1.064.084 1.4h-.91v-.574h-3.752v1.162c0 .966-.28 1.162-1.638 1.162-.294 0-.546-.014-1.33-.056-.028-.35-.084-.532-.238-.882.714.098 1.204.14 1.736.14.504 0 .63-.07.63-.378v-1.148h-3.374c-.644 0-.938.014-1.372.07v-.868c.392.056.672.07 1.344.07h3.402v-1.008h-4.2c-.77 0-1.148.014-1.526.07v-.882c.336.056.728.084 1.526.084zm.84 0h3.752v-.966h-3.752zm0 .728v1.008h3.752v-1.008zm-.84-5.04h-3.178v1.036h3.178zm.84 0v1.036h3.472v-1.036zm11.564-1.26h.224c.462-.98.63-1.47.672-1.918l1.12.196c-.126.182-.126.182-.364.756-.182.448-.364.826-.434.952.168-.014.168-.014.294-.014 2.24-.112 3.64-.28 4.41-.532l.084.952c-.224.014-.308.028-.56.07-1.456.196-2.926.308-4.62.364-.42.826-.77 1.386-1.26 1.988-.14.168-.42.49-.476.532-.098.07-.168.126-.182.14 0 .014-.014.014-.014.014v.014c.014.028.014.028.028.042.504-.392.504-.392.644-.49.644-.448 1.386-.686 2.114-.686 1.036 0 1.666.518 1.848 1.554 1.022-.406 1.82-.7 2.436-.924.686-.238.728-.252.952-.406l.448.98c-.728.126-1.988.546-3.738 1.232.028.364.028.504.028.854 0 .182 0 .49-.014.77-.014.308-.014.504-.014.63 0 .196 0 .308.028.504l-.952.014c.042-.308.084-1.162.084-2.016 0-.224 0-.252-.014-.42-1.904.896-2.632 1.554-2.632 2.394 0 .924.868 1.33 2.842 1.33 1.386 0 2.94-.224 3.738-.546l.126 1.078c-.21.014-.28.028-.56.07-1.106.182-2.324.28-3.402.28-2.506 0-3.724-.714-3.724-2.156 0-.77.476-1.498 1.428-2.212.476-.35 1.148-.714 2.086-1.12-.112-.77-.448-1.106-1.106-1.106-.882 0-1.988.518-3.122 1.484-.546.462-.854.784-1.078 1.162l-.784-.784c.966-.742 2.128-2.212 3.136-4.004l.126-.21c-.056.014-.196.028-.266.028-.224 0-1.54-.028-2.058-.042h-.224c-.126 0-.154 0-.308.014l.014-.966c.504.098 1.568.154 2.996.154zm10.892 4.732.126-.966c.56.252 1.442.434 2.506.56.07-.686.21-1.778.322-2.52-.658-.084-1.26-.182-2.086-.378-.182-.042-.238-.056-.434-.098l.126-.924c.602.252 1.54.462 2.52.546.224-1.344.336-2.268.336-2.632v-.112l1.12.126c-.084.266-.126.434-.224.938-.014.126-.014.126-.14.896-.042.308-.07.448-.14.84.392.014.588.014.812.014 1.05 0 1.932-.084 2.562-.238l-.042.966c-.28.028-.28.028-.98.084-.434.042-.854.056-1.26.056-.224 0-.462 0-1.232-.028-.224 1.61-.238 1.75-.322 2.534.532.014.728.014.924.014 1.008 0 2.03-.084 2.576-.224l-.028.938c-.14.014-.182.014-.378.028-.714.084-1.316.112-1.974.112-.35 0-.574 0-1.204-.028 0 .098 0 .098-.014.28-.028.336-.056.798-.056 1.036 0 .77.21 1.302.644 1.68.448.392 1.12.602 1.974.602 1.876 0 3.094-.966 3.094-2.45 0-.882-.434-1.666-1.33-2.436.462-.056.616-.098 1.022-.28.994 1.078 1.316 1.764 1.316 2.786 0 1.974-1.652 3.304-4.102 3.304-1.47 0-2.59-.504-3.136-1.4-.28-.462-.434-1.134-.434-1.932 0-.294.014-.574.056-.924.014-.21.014-.21.028-.336-.84-.084-1.484-.196-2.114-.35-.224-.07-.266-.07-.434-.084zm14.798.028-.252-1.022c.35-.028.42-.042 1.288-.252 1.834-.434 3.066-.616 4.27-.616 1.442 0 2.436.434 2.968 1.302.28.448.434 1.022.434 1.596 0 1.568-1.26 2.996-3.206 3.612-.854.266-1.19.322-2.884.532-.084-.392-.14-.532-.364-.966.084.014.14.014.196.014.868 0 1.96-.168 2.758-.434 1.596-.518 2.562-1.582 2.562-2.828 0-1.274-.896-1.96-2.59-1.96-.938 0-2.016.168-3.682.56-.854.196-1.078.266-1.498.462zm15.792-6.328 1.106-.21c.056.938.574 3.234 1.05 4.634.826-.336 1.218-.49 3.388-1.246.49-.182.616-.224.896-.364l.42 1.064c-.98.21-2.982.854-4.214 1.358-2.394.952-3.43 1.876-3.43 3.038 0 1.274 1.078 1.764 3.822 1.764 1.61 0 3.178-.182 4.004-.476l.112 1.162c-.266 0-.266 0-1.036.084-1.442.14-2.114.182-3.094.182-1.386 0-2.436-.126-3.108-.378-1.148-.42-1.736-1.19-1.736-2.296 0-.896.42-1.708 1.246-2.38.532-.434.966-.7 1.834-1.134-.392-1.148-.658-2.128-1.022-3.92-.126-.588-.154-.658-.238-.882zm14.728 7.952h-.91c-.784 0-1.148.014-1.582.042.056-.434.07-.826.07-1.47v-4.746c0-.812-.028-1.554-.07-1.862.462.056.896.07 1.498.07h5.852c.574 0 1.092-.028 1.498-.07-.042.294-.07 1.078-.07 1.862v4.746c0 .658.014 1.05.07 1.47-.392-.028-.812-.042-1.568-.042h-1.218v2.534c0 .434.14.476 1.568.476 1.33 0 1.652-.056 1.848-.35.154-.238.252-.742.336-1.834.392.21.602.294.882.378-.322 2.506-.476 2.632-3.136 2.632-1.148 0-1.778-.07-2.058-.238-.252-.154-.336-.336-.336-.784v-2.814h-1.708c-.196 1.162-.532 1.876-1.232 2.548-.826.798-1.848 1.274-3.584 1.652-.14-.35-.252-.546-.49-.84 1.064-.196 1.554-.322 2.142-.588.966-.42 1.624-1.036 1.946-1.806.126-.294.154-.392.252-.966zm-1.554-7.14v1.526h6.972v-1.526zm0 2.31v1.61h6.972v-1.61zm0 2.394v1.666h6.972v-1.666zm13.86-3.906-.056-1.05c.392.07.644.084 1.316.084 1.162 0 3.024-.084 4.284-.182.364-.028.49-.056.672-.154l.588.77c-.196.098-.266.154-.714.588-1.932 1.89-3.626 3.346-4.606 3.976l.028.042c1.064-.574 2.198-.868 3.43-.868 2.338 0 3.836 1.148 3.836 2.94 0 2.184-2.03 3.626-5.138 3.626-1.974 0-3.108-.728-3.108-2.016 0-.938.868-1.638 2.03-1.638.938 0 1.75.406 2.31 1.148.294.392.448.728.644 1.344 1.47-.406 2.24-1.26 2.24-2.45 0-1.344-1.12-2.142-3.01-2.142-2.058 0-4.27.896-5.894 2.394l-.63-.896c.504-.294 1.008-.658 1.96-1.428 1.498-1.19 3.71-3.136 4.676-4.088l.308-.308-.028-.028c-.042 0-.042 0-.126.014-.448.084-2.128.182-4.256.252-.308.014-.448.028-.756.07zm4.592 8.862c-.308-1.274-1.008-1.946-2.016-1.946-.7 0-1.134.336-1.134.868 0 .364.182.63.56.854.364.196.966.322 1.568.322.35 0 .518-.014 1.022-.098z" fill="#757575"/><path d="m214.421387 163.908203c-.148113-.148113-.220052-.325845-.215821-.533203.004232-.207358.084635-.38509.241211-.533203l4.494141-4.341797-4.494141-4.341797c-.156576-.148113-.236979-.325845-.241211-.533203-.004231-.207358.067708-.38509.215821-.533203.143881-.156576.325845-.234863.545898-.234863.215822 0 .393554.069823.533203.209472l5.052735 4.887696c.156576.14388.234863.325845.234863.545898s-.078287.402018-.234863.545898l-5.052735 4.887696c-.156576.148112-.337482.218994-.542724.212646-.205242-.006347-.384033-.085692-.536377-.238037z" fill="#aaa"/></g><g transform="translate(16)"><path d="m0 0h240v182h-240z" fill="#fff"/><g fill="#e2e2e2"><path d="m16 50h208v18h-208z"/><path d="m16 84h208v18h-208z"/><path d="m16 118h208v18h-208z"/></g><path d="m27.754 22.334h4.05c.792 0 1.242-.036 1.638-.108v1.998c-.45-.054-.738-.072-1.44-.072h-.45v7.254c0 1.08.018 1.584.108 2.124h-2.106c.09-.558.108-1.08.108-2.124v-7.254h-1.926c-.018 2.286-.234 4.176-.666 5.814-.36 1.404-.918 2.664-1.602 3.618-.72-.594-1.026-.792-1.782-1.188 1.71-2.088 2.16-4.446 2.16-11.268 0-1.512-.018-2.088-.108-2.808 2.034-.054 5.148-.846 6.066-1.53l1.476 1.746c-.198.054-.27.09-.594.198-1.44.54-2.574.81-4.932 1.224zm-7.488 2.106h-1.872c-.756 0-1.17.018-1.638.072v-1.926c.45.072.828.09 1.674.09h.432c-.252-1.008-.432-1.476-.792-2.124l1.584-.396h-.846c-.792 0-1.206.018-1.692.072v-1.926c.45.072.864.09 1.728.09h1.368v-.27c0-.612-.018-.864-.09-1.314h2.178c-.072.432-.09.666-.09 1.314v.27h1.224c.846 0 1.206-.018 1.674-.09v1.926c-.486-.054-.918-.072-1.692-.072h-.738l1.53.432c-.108.234-.108.234-.27.63-.108.18-.108.18-.306.666-.126.306-.198.432-.396.792h.36c.81 0 1.188-.018 1.656-.09v1.926c-.504-.054-.882-.072-1.656-.072h-1.458v1.278h1.386c.774 0 1.17-.018 1.638-.09v1.89c-.468-.054-.882-.072-1.638-.072h-.666c.54.63.99 1.008 1.854 1.584-.396.666-.594 1.044-.864 1.71-.9-.81-1.188-1.116-1.764-1.944.018.234.018.234.036.702 0 .054.018.612.018.702v1.8c0 .63.036 1.062.108 1.494h-2.07c.054-.414.09-.846.09-1.422v-1.8c0-.342.018-.81.054-1.224-.738 1.386-1.566 2.322-2.97 3.33-.252-.738-.504-1.242-.918-1.836 1.368-.846 2.376-1.836 3.15-3.096h-1.17c-.774 0-1.152.018-1.638.09v-1.908c.468.072.828.09 1.674.09h1.818zm2.16-4.284h-2.646c.396.774.54 1.152.774 2.088l-1.602.432h2.466c.504-.936.738-1.512 1.008-2.52zm19.476-.18h-4.518c-.774 0-1.224.018-1.8.09v-1.674c.522.09.954.108 1.8.108h2.286c-.36-.594-.63-.918-1.152-1.494l1.854-.414c.576.756.936 1.278 1.296 1.908h2.61c.396-.468.936-1.278 1.278-1.908l1.944.432c-.522.738-.792 1.08-1.17 1.476h2.268c.864 0 1.296-.018 1.818-.108v1.674c-.54-.072-1.026-.09-1.818-.09h-4.77v.792h4.05c.936 0 1.224-.018 1.71-.072v1.494c-.486-.054-.828-.072-1.71-.072h-4.05v.792h5.4c.9 0 1.314-.018 1.818-.09v1.674c-.558-.072-.972-.09-1.818-.09h-8.82c-.072.306-.144.522-.198.738h7.65c.594 0 1.116-.018 1.692-.072-.054.558-.072.936-.072 1.71v4.86c0 .792.018 1.278.108 1.836h-2.07v-.666h-6.894v.666h-2.034c.072-.558.108-1.026.108-1.764v-1.89c0-.342.018-1.008.036-1.278-.846 1.584-1.566 2.52-2.736 3.546-.432-.702-.918-1.242-1.458-1.674 1.206-.954 1.854-1.656 2.466-2.628.702-1.08 1.062-1.944 1.44-3.384h-1.674c-.9 0-1.296.018-1.818.09v-1.674c.486.072.9.09 1.818.09h5.13v-.792h-3.744c-.882 0-1.224.018-1.71.072v-1.494c.486.054.774.072 1.71.072h3.744zm5.634 6.606h-6.912v.756h6.912zm0 2.016h-6.912v.738h6.912zm0 1.998h-6.912v.738h6.912zm5.922-11.484v-1.782c.486.072.774.09 1.494.09h3.096c.72 0 1.008-.018 1.494-.09v1.782c-.504-.054-.828-.072-1.494-.072h-3.096c-.648 0-1.044.018-1.494.072zm-.612 2.646v-1.872c.432.072.774.09 1.44.09h4.446c.738 0 1.044-.018 1.44-.072v1.854c-.378-.054-.63-.072-1.368-.072h-4.518c-.63 0-1.008.018-1.44.072zm.684 2.52v-1.674c.36.036.594.054 1.188.054h3.708c.594 0 .828-.018 1.152-.054v1.674c-.396-.036-.612-.054-1.152-.054h-3.708c-.576 0-.828.018-1.188.054zm0 2.538v-1.674c.36.036.594.054 1.188.054h3.708c.594 0 .828-.018 1.152-.054v1.674c-.414-.054-.594-.054-1.188-.054h-3.69c-.54 0-.828.018-1.17.054zm1.872 6.75h-1.908c.072-.558.108-1.134.108-1.764v-2.664c0-.576-.018-.972-.09-1.422.45.036.72.054 1.404.054h3.528c.702 0 .9 0 1.206-.054-.054.396-.054.63-.054 1.296v3.024c0 .432.036.972.072 1.278h-1.836v-.72h-2.43zm-.036-4.266v1.692h2.466v-1.692zm7.308-4.302v5.58c0 .36.09.468.414.54.342.072.882.108 1.584.108 1.422 0 1.98-.09 2.25-.36s.396-1.08.432-2.934c.684.324 1.368.558 1.98.666-.144 2.088-.342 3.006-.828 3.654-.468.63-1.422.828-3.888.828-3.294 0-3.942-.288-3.942-1.818v-6.354c0-.864-.018-1.206-.072-1.764.54.054 1.026.072 1.8.072h4.05v-3.816h-4.158c-.792 0-1.332.036-1.872.09v-2.034c.576.072 1.134.108 1.89.108h4.356c.792 0 1.314-.018 1.836-.072-.054.63-.072.954-.072 1.818v3.978c0 .756.018 1.26.072 1.782-.576-.054-.99-.072-1.8-.072zm15.21 1.71v-.792h-4.266c-.648 0-1.17.018-1.656.072v-1.566c.432.054.9.072 1.692.072h4.23v-.684h-3.816c-.648 0-1.098.018-1.512.054.036-.378.054-.756.054-1.206v-1.188c0-.504-.018-.828-.054-1.26.468.036.846.054 1.53.054h3.798v-.684h-4.932c-.882 0-1.476.036-2.106.108v-1.782c.558.072 1.17.108 2.214.108h4.824c-.018-.63-.036-.828-.108-1.224h2.178c-.09.396-.108.576-.126 1.224h5.058c1.044 0 1.638-.036 2.214-.108v1.782c-.612-.072-1.242-.108-2.106-.108h-5.166v.684h4.068c.684 0 1.08-.018 1.512-.054-.036.396-.054.702-.054 1.26v1.188c0 .54.018.81.054 1.206-.396-.036-.864-.054-1.44-.054h-4.14v.684h4.032c1.062 0 1.422-.018 1.926-.054-.054.45-.054.702-.054 1.638v.63c.774 0 1.206-.036 1.566-.09v1.71c-.432-.054-.774-.09-1.566-.09v1.044c0 .936.018 1.422.09 1.944h-2.016v-.702h-3.978v1.008c0 1.62-.45 1.962-2.646 1.962-.432 0-1.152-.036-1.728-.072-.108-.72-.216-1.08-.558-1.782.972.108 1.638.162 2.286.162.558 0 .702-.09.702-.414v-.864h-4.23c-.81 0-1.242.018-1.782.09v-1.674c.486.054.792.072 1.71.072h4.302v-.774h-5.166c-1.026 0-1.512.018-1.98.09v-1.71c.468.072.918.09 1.944.09zm1.944 0h3.978v-.792h-3.978zm0 1.53v.774h3.978v-.774zm-1.944-6.57h-3.366v.738h3.366zm1.944 0v.738h3.618v-.738z" fill="#298538"/><path d="m77.638 156.776h3.556c.63 0 .966-.028 1.288-.084v.966c-.35-.056-.658-.07-1.232-.07h-.518v6.104c0 .7.014 1.05.084 1.4h-1.078c.056-.364.084-.714.084-1.4v-6.104h-2.198v.546c-.014 1.862-.308 3.752-.798 5.026-.28.742-.56 1.274-1.036 1.918-.294-.28-.448-.406-.798-.588 1.344-1.652 1.764-3.612 1.764-8.288 0-1.582-.028-2.184-.07-2.59h.168c.742 0 2.17-.28 3.318-.644.588-.196.938-.35 1.288-.602l.714.784c-.126.042-.14.042-.504.196-1.162.476-2.226.742-4.032 1.036zm-4.13-3.122h1.302c.574 0 .84-.014 1.176-.07v.938c-.378-.056-.644-.07-1.19-.07h-3.584c-.588 0-.854.014-1.218.07v-.938c.322.056.616.07 1.232.07h1.4v-.378c0-.448-.014-.672-.07-.98h1.022c-.056.294-.07.518-.07.98zm-2.632 3.22h2.506c.49-.826.742-1.456.938-2.296l.84.266c-.336.84-.63 1.484-.952 2.03h.826c.532 0 .812-.014 1.134-.07v.938c-.35-.056-.63-.07-1.134-.07h-4.158c-.546 0-.84.014-1.162.07v-.938c.308.056.602.07 1.162.07zm1.456 3.122h-1.442c-.546 0-.812.014-1.148.084v-.924c.322.07.602.084 1.176.084h1.708v-.742c0-.182-.028-.406-.07-.574h.938c-.042.168-.056.392-.056.574v.742h1.54c.49 0 .77-.014 1.134-.084v.91c-.322-.056-.602-.07-1.134-.07h-1.33c.532.742.924 1.106 1.974 1.778-.224.266-.322.434-.49.756-.91-.77-1.204-1.092-1.75-1.932.028.308.042.714.056 1.232v2.03c0 .49.014.826.07 1.204h-.966c.056-.364.084-.742.084-1.204v-1.988c0-.336.014-.7.042-1.162-.574 1.204-1.372 2.128-2.646 3.108-.154-.322-.308-.546-.532-.784.7-.462 1.302-.966 1.82-1.54.42-.476.63-.77 1.022-1.498zm.014-3.514-.742.266c-.238-.784-.42-1.218-.798-1.876l.742-.28c.392.7.56 1.12.798 1.89zm17.122-1.988h-3.64c-.574 0-.966.028-1.372.084v-.868c.392.056.756.084 1.372.084h1.988c-.28-.476-.588-.854-1.05-1.344l.784-.308c.49.588.812 1.036 1.176 1.652h2.38c.49-.49.882-.994 1.274-1.638l.84.322c-.518.658-.784.952-1.19 1.316h2.156c.616 0 .98-.028 1.386-.084v.868c-.378-.056-.812-.084-1.386-.084h-3.864v.98h3.402c.616 0 .882-.014 1.232-.07v.84c-.336-.056-.63-.07-1.232-.07h-3.402v.994h4.438c.63 0 .994-.028 1.386-.084v.896c-.406-.056-.798-.084-1.386-.084h-6.944c-.126.462-.154.588-.266.882h6.062c.406 0 .784-.014 1.26-.056-.042.42-.056.658-.056 1.106v4.004c0 .49.028.854.084 1.246h-.952v-.658h-6.23v.658h-.938c.056-.392.084-.77.084-1.232v-2.1c0-.462.042-1.274.098-1.554-.728 1.652-1.526 2.772-2.688 3.864-.21-.322-.406-.532-.686-.742.966-.798 1.554-1.456 2.1-2.38.616-1.008.966-1.862 1.26-3.038h-1.694c-.616 0-.952.014-1.372.084v-.896c.378.056.742.084 1.372.084h4.214v-.994h-3.108c-.602 0-.91.014-1.246.07v-.84c.336.056.616.07 1.246.07h3.108zm4.48 4.998h-6.23v.938h6.23zm0 1.61h-6.23v.938h6.23zm0 1.61h-6.23v.994h6.23zm4.382-8.974v-.882c.336.056.56.07 1.064.07h2.198c.504 0 .714-.014 1.064-.07v.882c-.308-.042-.616-.056-1.064-.056h-2.198c-.448 0-.728.014-1.064.056zm-.49 1.974v-.91c.322.056.588.07 1.12.07h3.136c.574 0 .826-.014 1.12-.07v.91c-.28-.042-.518-.056-1.022-.056h-3.234c-.49 0-.784.014-1.12.056zm.546 1.96v-.868c.294.042.518.056 1.008.056h2.324c.476 0 .728-.014.994-.056v.868c-.336-.042-.546-.056-.994-.056h-2.324c-.462 0-.714.014-1.008.056zm0 1.918v-.868c.294.042.518.056 1.008.056h2.324c.49 0 .714-.014.994-.056v.868c-.378-.042-.546-.056-.994-.056h-2.324c-.448 0-.714.014-1.008.056zm.98 5.516h-.91c.056-.406.084-.784.084-1.358v-1.89c0-.476-.014-.798-.07-1.162.364.042.686.056 1.12.056h2.128c.602 0 .756 0 1.008-.042-.028.308-.042.574-.042 1.092v2.016c0 .392.028.77.07 1.106h-.868v-.7h-2.52zm-.014-3.64v2.03h2.534v-2.03zm5.432-3.234v4.998c0 .28.07.364.364.434.238.056.84.084 1.638.084 1.456 0 1.918-.07 2.184-.322.21-.224.35-.938.42-2.268.308.182.658.35.938.42-.154 1.358-.322 2.072-.616 2.45-.336.448-1.022.574-2.968.574-1.204 0-1.876-.056-2.296-.168-.434-.14-.588-.378-.588-1.008v-4.704c0-.658-.014-.952-.07-1.344.406.042.784.056 1.358.056h3.514v-3.598h-3.794c-.574 0-.91.014-1.288.07v-.98c.392.056.798.084 1.288.084h3.388c.588 0 .924-.014 1.33-.056-.028.364-.042.602-.042 1.372v2.66c0 .56.014.924.056 1.302-.434-.042-.784-.056-1.372-.056zm12.67 1.918v-.966h-3.29c-.574 0-.91.014-1.316.07v-.868c.35.056.686.07 1.344.07h3.262v-.91h-2.926c-.462 0-.84.014-1.148.056.042-.322.056-.574.056-.938v-.616c0-.378-.014-.602-.056-.952.364.042.672.056 1.162.056h2.912v-.924h-4.06c-.644 0-1.148.028-1.568.084v-.924c.378.056.784.084 1.596.084h4.032c0-.686-.014-.896-.084-1.26h1.022c-.084.35-.098.546-.098 1.26h4.284c.812 0 1.232-.028 1.61-.084v.924c-.462-.056-.924-.084-1.582-.084h-4.312v.924h3.22c.49 0 .798-.014 1.148-.056-.042.35-.056.56-.056.952v.616c0 .392.014.588.056.938-.308-.042-.686-.056-1.134-.056h-3.234v.91h3.052c.812 0 1.19-.014 1.568-.056-.028.294-.042.56-.042 1.162v.588c.798 0 1.176-.014 1.484-.084v.882c-.35-.056-.742-.07-1.484-.07v.91c0 .686.028 1.064.084 1.4h-.91v-.574h-3.752v1.162c0 .966-.28 1.162-1.638 1.162-.294 0-.546-.014-1.33-.056-.028-.35-.084-.532-.238-.882.714.098 1.204.14 1.736.14.504 0 .63-.07.63-.378v-1.148h-3.374c-.644 0-.938.014-1.372.07v-.868c.392.056.672.07 1.344.07h3.402v-1.008h-4.2c-.77 0-1.148.014-1.526.07v-.882c.336.056.728.084 1.526.084zm.84 0h3.752v-.966h-3.752zm0 .728v1.008h3.752v-1.008zm-.84-5.04h-3.178v1.036h3.178zm.84 0v1.036h3.472v-1.036zm11.564-1.26h.224c.462-.98.63-1.47.672-1.918l1.12.196c-.126.182-.126.182-.364.756-.182.448-.364.826-.434.952.168-.014.168-.014.294-.014 2.24-.112 3.64-.28 4.41-.532l.084.952c-.224.014-.308.028-.56.07-1.456.196-2.926.308-4.62.364-.42.826-.77 1.386-1.26 1.988-.14.168-.42.49-.476.532-.098.07-.168.126-.182.14 0 .014-.014.014-.014.014v.014c.014.028.014.028.028.042.504-.392.504-.392.644-.49.644-.448 1.386-.686 2.114-.686 1.036 0 1.666.518 1.848 1.554 1.022-.406 1.82-.7 2.436-.924.686-.238.728-.252.952-.406l.448.98c-.728.126-1.988.546-3.738 1.232.028.364.028.504.028.854 0 .182 0 .49-.014.77-.014.308-.014.504-.014.63 0 .196 0 .308.028.504l-.952.014c.042-.308.084-1.162.084-2.016 0-.224 0-.252-.014-.42-1.904.896-2.632 1.554-2.632 2.394 0 .924.868 1.33 2.842 1.33 1.386 0 2.94-.224 3.738-.546l.126 1.078c-.21.014-.28.028-.56.07-1.106.182-2.324.28-3.402.28-2.506 0-3.724-.714-3.724-2.156 0-.77.476-1.498 1.428-2.212.476-.35 1.148-.714 2.086-1.12-.112-.77-.448-1.106-1.106-1.106-.882 0-1.988.518-3.122 1.484-.546.462-.854.784-1.078 1.162l-.784-.784c.966-.742 2.128-2.212 3.136-4.004l.126-.21c-.056.014-.196.028-.266.028-.224 0-1.54-.028-2.058-.042h-.224c-.126 0-.154 0-.308.014l.014-.966c.504.098 1.568.154 2.996.154zm10.892 4.732.126-.966c.56.252 1.442.434 2.506.56.07-.686.21-1.778.322-2.52-.658-.084-1.26-.182-2.086-.378-.182-.042-.238-.056-.434-.098l.126-.924c.602.252 1.54.462 2.52.546.224-1.344.336-2.268.336-2.632v-.112l1.12.126c-.084.266-.126.434-.224.938-.014.126-.014.126-.14.896-.042.308-.07.448-.14.84.392.014.588.014.812.014 1.05 0 1.932-.084 2.562-.238l-.042.966c-.28.028-.28.028-.98.084-.434.042-.854.056-1.26.056-.224 0-.462 0-1.232-.028-.224 1.61-.238 1.75-.322 2.534.532.014.728.014.924.014 1.008 0 2.03-.084 2.576-.224l-.028.938c-.14.014-.182.014-.378.028-.714.084-1.316.112-1.974.112-.35 0-.574 0-1.204-.028 0 .098 0 .098-.014.28-.028.336-.056.798-.056 1.036 0 .77.21 1.302.644 1.68.448.392 1.12.602 1.974.602 1.876 0 3.094-.966 3.094-2.45 0-.882-.434-1.666-1.33-2.436.462-.056.616-.098 1.022-.28.994 1.078 1.316 1.764 1.316 2.786 0 1.974-1.652 3.304-4.102 3.304-1.47 0-2.59-.504-3.136-1.4-.28-.462-.434-1.134-.434-1.932 0-.294.014-.574.056-.924.014-.21.014-.21.028-.336-.84-.084-1.484-.196-2.114-.35-.224-.07-.266-.07-.434-.084zm14.798.028-.252-1.022c.35-.028.42-.042 1.288-.252 1.834-.434 3.066-.616 4.27-.616 1.442 0 2.436.434 2.968 1.302.28.448.434 1.022.434 1.596 0 1.568-1.26 2.996-3.206 3.612-.854.266-1.19.322-2.884.532-.084-.392-.14-.532-.364-.966.084.014.14.014.196.014.868 0 1.96-.168 2.758-.434 1.596-.518 2.562-1.582 2.562-2.828 0-1.274-.896-1.96-2.59-1.96-.938 0-2.016.168-3.682.56-.854.196-1.078.266-1.498.462zm15.792-6.328 1.106-.21c.056.938.574 3.234 1.05 4.634.826-.336 1.218-.49 3.388-1.246.49-.182.616-.224.896-.364l.42 1.064c-.98.21-2.982.854-4.214 1.358-2.394.952-3.43 1.876-3.43 3.038 0 1.274 1.078 1.764 3.822 1.764 1.61 0 3.178-.182 4.004-.476l.112 1.162c-.266 0-.266 0-1.036.084-1.442.14-2.114.182-3.094.182-1.386 0-2.436-.126-3.108-.378-1.148-.42-1.736-1.19-1.736-2.296 0-.896.42-1.708 1.246-2.38.532-.434.966-.7 1.834-1.134-.392-1.148-.658-2.128-1.022-3.92-.126-.588-.154-.658-.238-.882zm14.728 7.952h-.91c-.784 0-1.148.014-1.582.042.056-.434.07-.826.07-1.47v-4.746c0-.812-.028-1.554-.07-1.862.462.056.896.07 1.498.07h5.852c.574 0 1.092-.028 1.498-.07-.042.294-.07 1.078-.07 1.862v4.746c0 .658.014 1.05.07 1.47-.392-.028-.812-.042-1.568-.042h-1.218v2.534c0 .434.14.476 1.568.476 1.33 0 1.652-.056 1.848-.35.154-.238.252-.742.336-1.834.392.21.602.294.882.378-.322 2.506-.476 2.632-3.136 2.632-1.148 0-1.778-.07-2.058-.238-.252-.154-.336-.336-.336-.784v-2.814h-1.708c-.196 1.162-.532 1.876-1.232 2.548-.826.798-1.848 1.274-3.584 1.652-.14-.35-.252-.546-.49-.84 1.064-.196 1.554-.322 2.142-.588.966-.42 1.624-1.036 1.946-1.806.126-.294.154-.392.252-.966zm-1.554-7.14v1.526h6.972v-1.526zm0 2.31v1.61h6.972v-1.61zm0 2.394v1.666h6.972v-1.666zm13.86-3.906-.056-1.05c.392.07.644.084 1.316.084 1.162 0 3.024-.084 4.284-.182.364-.028.49-.056.672-.154l.588.77c-.196.098-.266.154-.714.588-1.932 1.89-3.626 3.346-4.606 3.976l.028.042c1.064-.574 2.198-.868 3.43-.868 2.338 0 3.836 1.148 3.836 2.94 0 2.184-2.03 3.626-5.138 3.626-1.974 0-3.108-.728-3.108-2.016 0-.938.868-1.638 2.03-1.638.938 0 1.75.406 2.31 1.148.294.392.448.728.644 1.344 1.47-.406 2.24-1.26 2.24-2.45 0-1.344-1.12-2.142-3.01-2.142-2.058 0-4.27.896-5.894 2.394l-.63-.896c.504-.294 1.008-.658 1.96-1.428 1.498-1.19 3.71-3.136 4.676-4.088l.308-.308-.028-.028c-.042 0-.042 0-.126.014-.448.084-2.128.182-4.256.252-.308.014-.448.028-.756.07zm4.592 8.862c-.308-1.274-1.008-1.946-2.016-1.946-.7 0-1.134.336-1.134.868 0 .364.182.63.56.854.364.196.966.322 1.568.322.35 0 .518-.014 1.022-.098z" fill="#757575"/><path d="m214.421387 163.908203c-.148113-.148113-.220052-.325845-.215821-.533203.004232-.207358.084635-.38509.241211-.533203l4.494141-4.341797-4.494141-4.341797c-.156576-.148113-.236979-.325845-.241211-.533203-.004231-.207358.067708-.38509.215821-.533203.143881-.156576.325845-.234863.545898-.234863.215822 0 .393554.069823.533203.209472l5.052735 4.887696c.156576.14388.234863.325845.234863.545898s-.078287.402018-.234863.545898l-5.052735 4.887696c-.156576.148112-.337482.218994-.542724.212646-.205242-.006347-.384033-.085692-.536377-.238037z" fill="#aaa"/></g><g transform="translate(16 396)"><path d="m0 0h240v182h-240z" fill="#fff"/><path d="m16 50h208v18h-208z" fill="#e2e2e2"/><path d="m16 84h208v18h-208z" fill="#e2e2e2"/><path d="m21.562 19.778v3.636c2.718-.504 6.696-2.106 7.866-3.204l1.44 2.034c-.198.072-.234.09-.378.162l-.468.234c-2.664 1.368-5.454 2.304-8.46 2.862v2.376c-.018.108-.018.216-.018.288 0 1.008.072 1.404.324 1.656.306.306 1.332.468 3.078.468 1.206 0 2.862-.108 4.176-.288.864-.108 1.26-.198 2.052-.432l.108 2.394c-.378 0-.468.018-2.376.198-1.062.108-3.33.216-4.428.216-2.268 0-3.51-.234-4.212-.774-.504-.378-.774-.954-.882-1.836-.036-.306-.054-.612-.054-1.656l-.018-8.352c0-.918 0-1.206-.072-1.656h2.412c-.072.432-.09.756-.09 1.674zm10.368-3.186c1.152 0 2.088.936 2.088 2.07 0 1.152-.936 2.088-2.088 2.088-1.134 0-2.07-.936-2.07-2.088 0-1.134.936-2.07 2.07-2.07zm0 .9c-.648 0-1.17.522-1.17 1.17s.522 1.188 1.17 1.188c.666 0 1.188-.54 1.188-1.188s-.522-1.17-1.188-1.17zm4.68 4.716 1.908-.558c.756 1.386 1.116 2.25 1.764 4.266l-2.034.648c-.468-1.818-.828-2.772-1.638-4.356zm3.852-.756 1.89-.54c.954 1.782 1.296 2.574 1.746 4.14l-1.998.63c-.342-1.368-.882-2.754-1.638-4.23zm6.192-.18 2.196.504c-.108.27-.144.36-.252.918-.522 2.448-1.332 4.428-2.484 5.994-1.332 1.818-2.826 2.988-5.49 4.338-.468-.792-.684-1.062-1.44-1.782 1.26-.486 1.998-.882 3.06-1.656 2.106-1.53 3.312-3.366 4.086-6.246.234-.882.324-1.512.324-2.07zm19.674-1.926 1.152 1.134c-.18.27-.252.432-.45 1.08-.828 2.736-2.106 5.166-3.69 6.948-1.656 1.89-3.636 3.294-6.408 4.572-.504-.9-.738-1.206-1.53-1.89 1.8-.738 2.808-1.278 3.942-2.124 2.574-1.908 4.266-4.374 5.256-7.596l-5.418.09c-1.098 1.746-2.502 3.294-4.212 4.608-.54-.738-.81-.972-1.746-1.548 2.052-1.404 3.348-2.844 4.662-5.22.558-1.026.846-1.728.918-2.376l2.466.486c-.108.162-.108.162-.306.558-.054.09-.054.09-.234.504l-.234.468c-.108.252-.108.252-.288.576.234-.018.522-.036.864-.036l3.942-.054c.702 0 .9-.036 1.314-.18zm19.044-1.116 1.206 1.368c-.252.306-.252.324-.72 1.26-.63 1.332-1.674 2.682-2.772 3.618-.72.63-1.314 1.026-2.16 1.494-.54-.756-.81-1.026-1.62-1.638 1.206-.54 1.89-.954 2.628-1.656.738-.684 1.296-1.422 1.71-2.286h-9.45c-1.26 0-1.71.018-2.448.108v-2.25c.684.108 1.242.144 2.484.144h9.396c1.08 0 1.242-.018 1.746-.162zm-8.55 3.636h2.448c-.054.342-.054.36-.072 1.458-.072 3.078-.558 4.806-1.782 6.372-1.08 1.386-2.394 2.304-4.644 3.24-.468-.972-.702-1.296-1.422-2.052 1.458-.432 2.268-.828 3.15-1.53 1.836-1.458 2.412-3.006 2.412-6.408 0-.54-.018-.702-.09-1.08zm13.788.342 1.908-.558c.756 1.386 1.116 2.25 1.764 4.266l-2.034.648c-.468-1.818-.828-2.772-1.638-4.356zm3.852-.756 1.89-.54c.954 1.782 1.296 2.574 1.746 4.14l-1.998.63c-.342-1.368-.882-2.754-1.638-4.23zm6.192-.18 2.196.504c-.108.27-.144.36-.252.918-.522 2.448-1.332 4.428-2.484 5.994-1.332 1.818-2.826 2.988-5.49 4.338-.468-.792-.684-1.062-1.44-1.782 1.26-.486 1.998-.882 3.06-1.656 2.106-1.53 3.312-3.366 4.086-6.246.234-.882.324-1.512.324-2.07zm9.342-2.358h8.262c.54 0 .756-.018 1.062-.036.018-1.17.918-2.088 2.07-2.088s2.088.936 2.088 2.07c0 1.152-.936 2.088-2.088 2.088-.108 0-.216-.018-.342-.036-1.458 5.886-4.644 9.558-10.332 11.934-.468-.936-.774-1.35-1.584-2.142 4.986-1.548 8.244-4.896 9.396-9.684h-8.568c-1.332 0-1.674.018-2.268.108v-2.34c.648.108 1.08.126 2.304.126zm11.394-1.224c-.648 0-1.17.522-1.17 1.17s.522 1.188 1.17 1.188c.666 0 1.188-.54 1.188-1.188s-.522-1.17-1.188-1.17z" fill="#298538"/></g><g transform="translate(272 132)"><use fill="#000" filter="url(#d)" xlink:href="#c"/><use fill="#444" fill-rule="evenodd" xlink:href="#c"/><g fill="#fff"><path d="m19.672 25.798 2.448.018c-.072.504-.072.666-.072 1.62v4.968c0 .9 0 1.134.072 1.584h-2.466c.054-.414.09-.972.09-1.62v-4.95c0-.918-.018-1.152-.072-1.62zm8.118.036h2.502c-.072.45-.09.648-.09 1.674v2.43c-.018 2.808-.144 4.32-.468 5.454-.522 1.8-1.674 3.15-3.546 4.194-.954.54-1.854.9-3.51 1.386-.324-.882-.504-1.188-1.26-2.142 1.764-.342 2.808-.72 3.888-1.44 1.692-1.116 2.286-2.214 2.484-4.59.072-.774.09-1.566.09-3.006v-2.25c0-.918-.018-1.296-.09-1.71zm8.406 2.61 1.494-1.782c2.142 1.332 3.258 2.16 4.644 3.474l-1.548 1.962c-1.44-1.53-2.916-2.718-4.59-3.654zm.63 11.88-.666-2.484c1.548-.09 3.69-.612 5.328-1.332 2.25-.972 3.924-2.358 5.346-4.41.792-1.152 1.296-2.142 1.836-3.6.702.846.99 1.116 1.908 1.764-1.53 3.294-3.24 5.418-5.706 7.056-1.836 1.224-4.068 2.106-6.858 2.7-.72.144-.774.162-1.188.306zm29.772-12.978 1.152 1.134c-.18.27-.252.432-.45 1.08-.828 2.736-2.106 5.166-3.69 6.948-1.656 1.89-3.636 3.294-6.408 4.572-.504-.9-.738-1.206-1.53-1.89 1.8-.738 2.808-1.278 3.942-2.124 2.574-1.908 4.266-4.374 5.256-7.596l-5.418.09c-1.098 1.746-2.502 3.294-4.212 4.608-.54-.738-.81-.972-1.746-1.548 2.052-1.404 3.348-2.844 4.662-5.22.558-1.026.846-1.728.918-2.376l2.466.486c-.108.162-.108.162-.306.558-.054.09-.054.09-.234.504l-.234.468c-.108.252-.108.252-.288.576.234-.018.522-.036.864-.036l3.942-.054c.702 0 .9-.036 1.314-.18zm20.484 4.32v2.376c-.828-.09-1.656-.126-2.736-.126h-10.656c-1.008 0-1.944.054-2.754.126v-2.376c.774.09 1.584.126 2.754.126h10.656c1.206 0 2.034-.036 2.736-.126zm7.794-1.854v.594h1.08c.738 0 1.206-.018 1.476-.072v1.224c-.486-.036-.828-.054-1.476-.054h-4.986c-.576 0-.9.018-1.404.054.036-.486.054-.9.054-1.8v-2.646c0-.846-.018-1.422-.072-1.836.45.036.936.054 1.836.054h4.302c.81 0 1.26-.018 1.728-.09v1.422c-.378-.036-.792-.054-1.422-.054h-1.116v.576h.936c.558 0 .954-.018 1.206-.036-.036.252-.036.288-.054.864 1.098-.936 1.692-1.854 2.07-3.168l1.89.36c-.234.54-.324.738-.486 1.044h2.988c.666 0 1.152-.036 1.584-.09v1.746c-.45-.072-.936-.09-1.584-.09h-3.906c-.558.792-.936 1.206-1.71 1.89-.306-.432-.414-.576-.846-1.026v.306c0 .45.018.576.054.864-.36-.018-.684-.036-1.278-.036zm-1.638 0h-1.908v.594h1.908zm-1.908-1.044h4.014v-.54h-4.014zm0-1.584h1.908v-.576h-1.908zm2.538 11.25h-.828c-.72 0-1.566.018-1.908.054.036-.306.072-1.062.072-1.8v-3.474c0-.558 0-.792-.036-1.296.36.036.936.054 1.8.054h8.28c.9 0 1.26-.018 1.746-.072-.036.396-.054.666-.054 1.296v3.384c0 .81.036 1.656.072 1.908-.36-.036-1.116-.054-1.89-.054h-1.566v.81c0 .468.198.54 1.602.54 1.494 0 1.962-.072 2.178-.324.144-.18.216-.63.27-1.692.702.342 1.152.486 1.782.612-.162 1.476-.378 2.106-.828 2.466-.45.378-1.278.504-3.402.504-2.916 0-3.492-.234-3.492-1.404v-1.512h-1.71c-.864 1.962-2.898 3.006-6.174 3.15-.27-.72-.414-1.026-.9-1.764.234.018.414.018.54.018 2.124 0 3.636-.486 4.446-1.404zm-.81-5.292v.594h8.01v-.594zm0 1.674v.612h8.01v-.612zm0 1.692v.648h8.01v-.648zm5.49-5.76v-1.656c.306.054.882.072 1.44.072h2.88c.738 0 1.17-.018 1.566-.072v1.656c-.45-.054-.828-.072-1.548-.072h-2.79c-.684 0-1.152.018-1.548.072z"/><path d="m24 64.608c.72 0 1.312.592 1.312 1.312s-.592 1.312-1.312 1.312-1.312-.592-1.312-1.312.592-1.312 1.312-1.312zm17.872-.864h4.064c.72 0 1.104-.032 1.472-.096v1.104c-.4-.064-.752-.08-1.408-.08h-.592v6.976c0 .8.016 1.2.096 1.6h-1.232c.064-.416.096-.816.096-1.6v-6.976h-2.512v.624c-.016 2.128-.352 4.288-.912 5.744-.32.848-.64 1.456-1.184 2.192-.336-.32-.512-.464-.912-.672 1.536-1.888 2.016-4.128 2.016-9.472 0-1.808-.032-2.496-.08-2.96h.192c.848 0 2.48-.32 3.792-.736.672-.224 1.072-.4 1.472-.688l.816.896c-.144.048-.16.048-.576.224-1.328.544-2.544.848-4.608 1.184zm-4.72-3.568h1.488c.656 0 .96-.016 1.344-.08v1.072c-.432-.064-.736-.08-1.36-.08h-4.096c-.672 0-.976.016-1.392.08v-1.072c.368.064.704.08 1.408.08h1.6v-.432c0-.512-.016-.768-.08-1.12h1.168c-.064.336-.08.592-.08 1.12zm-3.008 3.68h2.864c.56-.944.848-1.664 1.072-2.624l.96.304c-.384.96-.72 1.696-1.088 2.32h.944c.608 0 .928-.016 1.296-.08v1.072c-.4-.064-.72-.08-1.296-.08h-4.752c-.624 0-.96.016-1.328.08v-1.072c.352.064.688.08 1.328.08zm1.664 3.568h-1.648c-.624 0-.928.016-1.312.096v-1.056c.368.08.688.096 1.344.096h1.952v-.848c0-.208-.032-.464-.08-.656h1.072c-.048.192-.064.448-.064.656v.848h1.76c.56 0 .88-.016 1.296-.096v1.04c-.368-.064-.688-.08-1.296-.08h-1.52c.608.848 1.056 1.264 2.256 2.032-.256.304-.368.496-.56.864-1.04-.88-1.376-1.248-2-2.208.032.352.048.816.064 1.408v2.32c0 .56.016.944.08 1.376h-1.104c.064-.416.096-.848.096-1.376v-2.272c0-.384.016-.8.048-1.328-.656 1.376-1.568 2.432-3.024 3.552-.176-.368-.352-.624-.608-.896.8-.528 1.488-1.104 2.08-1.76.48-.544.72-.88 1.168-1.712zm.016-4.016-.848.304c-.272-.896-.48-1.392-.912-2.144l.848-.32c.448.8.64 1.28.912 2.16zm19.568-2.272h-4.16c-.656 0-1.104.032-1.568.096v-.992c.448.064.864.096 1.568.096h2.272c-.32-.544-.672-.976-1.2-1.536l.896-.352c.56.672.928 1.184 1.344 1.888h2.72c.56-.56 1.008-1.136 1.456-1.872l.96.368c-.592.752-.896 1.088-1.36 1.504h2.464c.704 0 1.12-.032 1.584-.096v.992c-.432-.064-.928-.096-1.584-.096h-4.416v1.12h3.888c.704 0 1.008-.016 1.408-.08v.96c-.384-.064-.72-.08-1.408-.08h-3.888v1.136h5.072c.72 0 1.136-.032 1.584-.096v1.024c-.464-.064-.912-.096-1.584-.096h-7.936c-.144.528-.176.672-.304 1.008h6.928c.464 0 .896-.016 1.44-.064-.048.48-.064.752-.064 1.264v4.576c0 .56.032.976.096 1.424h-1.088v-.752h-7.12v.752h-1.072c.064-.448.096-.88.096-1.408v-2.4c0-.528.048-1.456.112-1.776-.832 1.888-1.744 3.168-3.072 4.416-.24-.368-.464-.608-.784-.848 1.104-.912 1.776-1.664 2.4-2.72.704-1.152 1.104-2.128 1.44-3.472h-1.936c-.704 0-1.088.016-1.568.096v-1.024c.432.064.848.096 1.568.096h4.816v-1.136h-3.552c-.688 0-1.04.016-1.424.08v-.96c.384.064.704.08 1.424.08h3.552zm5.12 5.712h-7.12v1.072h7.12zm0 1.84h-7.12v1.072h7.12zm0 1.84h-7.12v1.136h7.12zm5.008-10.256v-1.008c.384.064.64.08 1.216.08h2.512c.576 0 .816-.016 1.216-.08v1.008c-.352-.048-.704-.064-1.216-.064h-2.512c-.512 0-.832.016-1.216.064zm-.56 2.256v-1.04c.368.064.672.08 1.28.08h3.584c.656 0 .944-.016 1.28-.08v1.04c-.32-.048-.592-.064-1.168-.064h-3.696c-.56 0-.896.016-1.28.064zm.624 2.24v-.992c.336.048.592.064 1.152.064h2.656c.544 0 .832-.016 1.136-.064v.992c-.384-.048-.624-.064-1.136-.064h-2.656c-.528 0-.816.016-1.152.064zm0 2.192v-.992c.336.048.592.064 1.152.064h2.656c.56 0 .816-.016 1.136-.064v.992c-.432-.048-.624-.064-1.136-.064h-2.656c-.512 0-.816.016-1.152.064zm1.12 6.304h-1.04c.064-.464.096-.896.096-1.552v-2.16c0-.544-.016-.912-.08-1.328.416.048.784.064 1.28.064h2.432c.688 0 .864 0 1.152-.048-.032.352-.048.656-.048 1.248v2.304c0 .448.032.88.08 1.264h-.992v-.8h-2.88zm-.016-4.16v2.32h2.896v-2.32zm6.208-3.696v5.712c0 .32.08.416.416.496.272.064.96.096 1.872.096 1.664 0 2.192-.08 2.496-.368.24-.256.4-1.072.48-2.592.352.208.752.4 1.072.48-.176 1.552-.368 2.368-.704 2.8-.384.512-1.168.656-3.392.656-1.376 0-2.144-.064-2.624-.192-.496-.16-.672-.432-.672-1.152v-5.376c0-.752-.016-1.088-.08-1.536.464.048.896.064 1.552.064h4.016v-4.112h-4.336c-.656 0-1.04.016-1.472.08v-1.12c.448.064.912.096 1.472.096h3.872c.672 0 1.056-.016 1.52-.064-.032.416-.048.688-.048 1.568v3.04c0 .64.016 1.056.064 1.488-.496-.048-.896-.064-1.568-.064zm14.48 2.192v-1.104h-3.76c-.656 0-1.04.016-1.504.08v-.992c.4.064.784.08 1.536.08h3.728v-1.04h-3.344c-.528 0-.96.016-1.312.064.048-.368.064-.656.064-1.072v-.704c0-.432-.016-.688-.064-1.088.416.048.768.064 1.328.064h3.328v-1.056h-4.64c-.736 0-1.312.032-1.792.096v-1.056c.432.064.896.096 1.824.096h4.608c0-.784-.016-1.024-.096-1.44h1.168c-.096.4-.112.624-.112 1.44h4.896c.928 0 1.408-.032 1.84-.096v1.056c-.528-.064-1.056-.096-1.808-.096h-4.928v1.056h3.68c.56 0 .912-.016 1.312-.064-.048.4-.064.64-.064 1.088v.704c0 .448.016.672.064 1.072-.352-.048-.784-.064-1.296-.064h-3.696v1.04h3.488c.928 0 1.36-.016 1.792-.064-.032.336-.048.64-.048 1.328v.672c.912 0 1.344-.016 1.696-.096v1.008c-.4-.064-.848-.08-1.696-.08v1.04c0 .784.032 1.216.096 1.6h-1.04v-.656h-4.288v1.328c0 1.104-.32 1.328-1.872 1.328-.336 0-.624-.016-1.52-.064-.032-.4-.096-.608-.272-1.008.816.112 1.376.16 1.984.16.576 0 .72-.08.72-.432v-1.312h-3.856c-.736 0-1.072.016-1.568.08v-.992c.448.064.768.08 1.536.08h3.888v-1.152h-4.8c-.88 0-1.312.016-1.744.08v-1.008c.384.064.832.096 1.744.096zm.96 0h4.288v-1.104h-4.288zm0 .832v1.152h4.288v-1.152zm-.96-5.76h-3.632v1.184h3.632zm.96 0v1.184h3.968v-1.184zm13.216-1.44h.256c.528-1.12.72-1.68.768-2.192l1.28.224c-.144.208-.144.208-.416.864-.208.512-.416.944-.496 1.088.192-.016.192-.016.336-.016 2.56-.128 4.16-.32 5.04-.608l.096 1.088c-.256.016-.352.032-.64.08-1.664.224-3.344.352-5.28.416-.48.944-.88 1.584-1.44 2.272-.16.192-.48.56-.544.608-.112.08-.192.144-.208.16 0 .016-.016.016-.016.016v.016c.016.032.016.032.032.048.576-.448.576-.448.736-.56.736-.512 1.584-.784 2.416-.784 1.184 0 1.904.592 2.112 1.776 1.168-.464 2.08-.8 2.784-1.056.784-.272.832-.288 1.088-.464l.512 1.12c-.832.144-2.272.624-4.272 1.408.032.416.032.576.032.976 0 .208 0 .56-.016.88-.016.352-.016.576-.016.72 0 .224 0 .352.032.576l-1.088.016c.048-.352.096-1.328.096-2.304 0-.256 0-.288-.016-.48-2.176 1.024-3.008 1.776-3.008 2.736 0 1.056.992 1.52 3.248 1.52 1.584 0 3.36-.256 4.272-.624l.144 1.232c-.24.016-.32.032-.64.08-1.264.208-2.656.32-3.888.32-2.864 0-4.256-.816-4.256-2.464 0-.88.544-1.712 1.632-2.528.544-.4 1.312-.816 2.384-1.28-.128-.88-.512-1.264-1.264-1.264-1.008 0-2.272.592-3.568 1.696-.624.528-.976.896-1.232 1.328l-.896-.896c1.104-.848 2.432-2.528 3.584-4.576l.144-.24c-.064.016-.224.032-.304.032-.256 0-1.76-.032-2.352-.048h-.256c-.144 0-.176 0-.352.016l.016-1.104c.576.112 1.792.176 3.424.176zm12.448 5.408.144-1.104c.64.288 1.648.496 2.864.64.08-.784.24-2.032.368-2.88-.752-.096-1.44-.208-2.384-.432-.208-.048-.272-.064-.496-.112l.144-1.056c.688.288 1.76.528 2.88.624.256-1.536.384-2.592.384-3.008v-.128l1.28.144c-.096.304-.144.496-.256 1.072-.016.144-.016.144-.16 1.024-.048.352-.08.512-.16.96.448.016.672.016.928.016 1.2 0 2.208-.096 2.928-.272l-.048 1.104c-.32.032-.32.032-1.12.096-.496.048-.976.064-1.44.064-.256 0-.528 0-1.408-.032-.256 1.84-.272 2-.368 2.896.608.016.832.016 1.056.016 1.152 0 2.32-.096 2.944-.256l-.032 1.072c-.16.016-.208.016-.432.032-.816.096-1.504.128-2.256.128-.4 0-.656 0-1.376-.032 0 .112 0 .112-.016.32-.032.384-.064.912-.064 1.184 0 .88.24 1.488.736 1.92.512.448 1.28.688 2.256.688 2.144 0 3.536-1.104 3.536-2.8 0-1.008-.496-1.904-1.52-2.784.528-.064.704-.112 1.168-.32 1.136 1.232 1.504 2.016 1.504 3.184 0 2.256-1.888 3.776-4.688 3.776-1.68 0-2.96-.576-3.584-1.6-.32-.528-.496-1.296-.496-2.208 0-.336.016-.656.064-1.056.016-.24.016-.24.032-.384-.96-.096-1.696-.224-2.416-.4-.256-.08-.304-.08-.496-.096zm16.912.032-.288-1.168c.4-.032.48-.048 1.472-.288 2.096-.496 3.504-.704 4.88-.704 1.648 0 2.784.496 3.392 1.488.32.512.496 1.168.496 1.824 0 1.792-1.44 3.424-3.664 4.128-.976.304-1.36.368-3.296.608-.096-.448-.16-.608-.416-1.104.096.016.16.016.224.016.992 0 2.24-.192 3.152-.496 1.824-.592 2.928-1.808 2.928-3.232 0-1.456-1.024-2.24-2.96-2.24-1.072 0-2.304.192-4.208.64-.976.224-1.232.304-1.712.528zm18.048-7.232 1.264-.24c.064 1.072.656 3.696 1.2 5.296.944-.384 1.392-.56 3.872-1.424.56-.208.704-.256 1.024-.416l.48 1.216c-1.12.24-3.408.976-4.816 1.552-2.736 1.088-3.92 2.144-3.92 3.472 0 1.456 1.232 2.016 4.368 2.016 1.84 0 3.632-.208 4.576-.544l.128 1.328c-.304 0-.304 0-1.184.096-1.648.16-2.416.208-3.536.208-1.584 0-2.784-.144-3.552-.432-1.312-.48-1.984-1.36-1.984-2.624 0-1.024.48-1.952 1.424-2.72.608-.496 1.104-.8 2.096-1.296-.448-1.312-.752-2.432-1.168-4.48-.144-.672-.176-.752-.272-1.008zm16.832 9.088h-1.04c-.896 0-1.312.016-1.808.048.064-.496.08-.944.08-1.68v-5.424c0-.928-.032-1.776-.08-2.128.528.064 1.024.08 1.712.08h6.688c.656 0 1.248-.032 1.712-.08-.048.336-.08 1.232-.08 2.128v5.424c0 .752.016 1.2.08 1.68-.448-.032-.928-.048-1.792-.048h-1.392v2.896c0 .496.16.544 1.792.544 1.52 0 1.888-.064 2.112-.4.176-.272.288-.848.384-2.096.448.24.688.336 1.008.432-.368 2.864-.544 3.008-3.584 3.008-1.312 0-2.032-.08-2.352-.272-.288-.176-.384-.384-.384-.896v-3.216h-1.952c-.224 1.328-.608 2.144-1.408 2.912-.944.912-2.112 1.456-4.096 1.888-.16-.4-.288-.624-.56-.96 1.216-.224 1.776-.368 2.448-.672 1.104-.48 1.856-1.184 2.224-2.064.144-.336.176-.448.288-1.104zm-1.776-8.16v1.744h7.968v-1.744zm0 2.64v1.84h7.968v-1.84zm0 2.736v1.904h7.968v-1.904zm15.84-4.464-.064-1.2c.448.08.736.096 1.504.096 1.328 0 3.456-.096 4.896-.208.416-.032.56-.064.768-.176l.672.88c-.224.112-.304.176-.816.672-2.208 2.16-4.144 3.824-5.264 4.544l.032.048c1.216-.656 2.512-.992 3.92-.992 2.672 0 4.384 1.312 4.384 3.36 0 2.496-2.32 4.144-5.872 4.144-2.256 0-3.552-.832-3.552-2.304 0-1.072.992-1.872 2.32-1.872 1.072 0 2 .464 2.64 1.312.336.448.512.832.736 1.536 1.68-.464 2.56-1.44 2.56-2.8 0-1.536-1.28-2.448-3.44-2.448-2.352 0-4.88 1.024-6.736 2.736l-.72-1.024c.576-.336 1.152-.752 2.24-1.632 1.712-1.36 4.24-3.584 5.344-4.672l.352-.352-.032-.032c-.048 0-.048 0-.144.016-.512.096-2.432.208-4.864.288-.352.016-.512.032-.864.08zm5.248 10.128c-.352-1.456-1.152-2.224-2.304-2.224-.8 0-1.296.384-1.296.992 0 .416.208.72.64.976.416.224 1.104.368 1.792.368.4 0 .592-.016 1.168-.112z"/><path d="m24 96.608c.72 0 1.312.592 1.312 1.312s-.592 1.312-1.312 1.312-1.312-.592-1.312-1.312.592-1.312 1.312-1.312zm15.344-5.712h1.28c-.048.272-.08.912-.08 1.424 0 .944.16 2.576.352 3.472.272 1.28 1.136 3.168 2.064 4.48.64.896 1.504 1.808 2.368 2.528.512.432.928.704 1.856 1.248-.384.352-.56.544-.832 1.008-1.952-1.328-3.104-2.448-4.24-4.096-.992-1.456-1.6-2.944-2.08-5.088-.288 1.52-.56 2.384-1.104 3.568-.56 1.232-1.264 2.256-2.288 3.28-.896.928-1.552 1.456-2.944 2.336-.272-.432-.464-.64-.864-.944 1.616-.896 2.336-1.424 3.264-2.416 2.224-2.384 3.312-5.456 3.312-9.392 0-.672-.016-.992-.064-1.408zm21.04 2.096h-8.384c-.8 1.328-1.44 2.096-2.512 3.088-.112-.24-.336-.432-.752-.704 1.376-1.152 2.32-2.416 3.056-4.048.176-.384.256-.624.304-.944l1.136.256c-.112.192-.128.224-.272.56-.144.288-.208.432-.448.864h7.872c.928 0 1.472-.032 2.016-.112v1.152c-.384-.08-1.04-.112-2.016-.112zm-1.504 10.64-.736.832c-.992-1.024-1.696-1.664-3.12-2.784-1.504 1.392-2.64 2.144-5.008 3.264-.24-.4-.384-.576-.768-.88 2.288-.96 3.6-1.744 4.96-2.992-.96-.704-1.584-1.104-3.056-1.968l.688-.64c1.296.736 1.984 1.168 3.056 1.936.928-.96 1.568-1.856 1.792-2.48l1.024.592c-.064.08-.064.08-.224.272-.08.112-.08.112-.4.544-.416.576-.88 1.136-1.376 1.664 1.184.88 2.048 1.616 3.168 2.64zm.736-6.112h-8.256c-.704 0-1.184.032-1.648.096v-1.088c.432.064.864.096 1.488.096h7.664c.944 0 1.312-.016 1.808-.08-.048.48-.064.848-.064 1.36 0 1.952.208 3.568.592 4.656.224.64.624 1.264.8 1.264.224 0 .48-1.2.576-2.672.336.336.512.464.88.624-.128 1.104-.224 1.584-.432 2.192-.208.672-.56 1.04-.96 1.04-.624 0-1.408-.944-1.84-2.24-.4-1.2-.576-2.704-.608-5.248zm-7.984-2.192v-1.056c.304.064.736.08 1.392.08h6.48c.768 0 1.232-.032 1.568-.096v1.088c-.432-.08-.816-.096-1.568-.096h-6.384c-.656 0-1.088.016-1.488.08zm13.888-3.056v-1.008c.384.064.64.08 1.216.08h2.512c.576 0 .816-.016 1.216-.08v1.008c-.352-.048-.704-.064-1.216-.064h-2.512c-.512 0-.832.016-1.216.064zm-.56 2.256v-1.04c.368.064.672.08 1.28.08h3.584c.656 0 .944-.016 1.28-.08v1.04c-.32-.048-.592-.064-1.168-.064h-3.696c-.56 0-.896.016-1.28.064zm.624 2.24v-.992c.336.048.592.064 1.152.064h2.656c.544 0 .832-.016 1.136-.064v.992c-.384-.048-.624-.064-1.136-.064h-2.656c-.528 0-.816.016-1.152.064zm0 2.192v-.992c.336.048.592.064 1.152.064h2.656c.56 0 .816-.016 1.136-.064v.992c-.432-.048-.624-.064-1.136-.064h-2.656c-.512 0-.816.016-1.152.064zm1.12 6.304h-1.04c.064-.464.096-.896.096-1.552v-2.16c0-.544-.016-.912-.08-1.328.416.048.784.064 1.28.064h2.432c.688 0 .864 0 1.152-.048-.032.352-.048.656-.048 1.248v2.304c0 .448.032.88.08 1.264h-.992v-.8h-2.88zm-.016-4.16v2.32h2.896v-2.32zm6.208-3.696v5.712c0 .32.08.416.416.496.272.064.96.096 1.872.096 1.664 0 2.192-.08 2.496-.368.24-.256.4-1.072.48-2.592.352.208.752.4 1.072.48-.176 1.552-.368 2.368-.704 2.8-.384.512-1.168.656-3.392.656-1.376 0-2.144-.064-2.624-.192-.496-.16-.672-.432-.672-1.152v-5.376c0-.752-.016-1.088-.08-1.536.464.048.896.064 1.552.064h4.016v-4.112h-4.336c-.656 0-1.04.016-1.472.08v-1.12c.448.064.912.096 1.472.096h3.872c.672 0 1.056-.016 1.52-.064-.032.416-.048.688-.048 1.568v3.04c0 .64.016 1.056.064 1.488-.496-.048-.896-.064-1.568-.064zm14.48 2.192v-1.104h-3.76c-.656 0-1.04.016-1.504.08v-.992c.4.064.784.08 1.536.08h3.728v-1.04h-3.344c-.528 0-.96.016-1.312.064.048-.368.064-.656.064-1.072v-.704c0-.432-.016-.688-.064-1.088.416.048.768.064 1.328.064h3.328v-1.056h-4.64c-.736 0-1.312.032-1.792.096v-1.056c.432.064.896.096 1.824.096h4.608c0-.784-.016-1.024-.096-1.44h1.168c-.096.4-.112.624-.112 1.44h4.896c.928 0 1.408-.032 1.84-.096v1.056c-.528-.064-1.056-.096-1.808-.096h-4.928v1.056h3.68c.56 0 .912-.016 1.312-.064-.048.4-.064.64-.064 1.088v.704c0 .448.016.672.064 1.072-.352-.048-.784-.064-1.296-.064h-3.696v1.04h3.488c.928 0 1.36-.016 1.792-.064-.032.336-.048.64-.048 1.328v.672c.912 0 1.344-.016 1.696-.096v1.008c-.4-.064-.848-.08-1.696-.08v1.04c0 .784.032 1.216.096 1.6h-1.04v-.656h-4.288v1.328c0 1.104-.32 1.328-1.872 1.328-.336 0-.624-.016-1.52-.064-.032-.4-.096-.608-.272-1.008.816.112 1.376.16 1.984.16.576 0 .72-.08.72-.432v-1.312h-3.856c-.736 0-1.072.016-1.568.08v-.992c.448.064.768.08 1.536.08h3.888v-1.152h-4.8c-.88 0-1.312.016-1.744.08v-1.008c.384.064.832.096 1.744.096zm.96 0h4.288v-1.104h-4.288zm0 .832v1.152h4.288v-1.152zm-.96-5.76h-3.632v1.184h3.632zm.96 0v1.184h3.968v-1.184zm13.216-1.44h.256c.528-1.12.72-1.68.768-2.192l1.28.224c-.144.208-.144.208-.416.864-.208.512-.416.944-.496 1.088.192-.016.192-.016.336-.016 2.56-.128 4.16-.32 5.04-.608l.096 1.088c-.256.016-.352.032-.64.08-1.664.224-3.344.352-5.28.416-.48.944-.88 1.584-1.44 2.272-.16.192-.48.56-.544.608-.112.08-.192.144-.208.16 0 .016-.016.016-.016.016v.016c.016.032.016.032.032.048.576-.448.576-.448.736-.56.736-.512 1.584-.784 2.416-.784 1.184 0 1.904.592 2.112 1.776 1.168-.464 2.08-.8 2.784-1.056.784-.272.832-.288 1.088-.464l.512 1.12c-.832.144-2.272.624-4.272 1.408.032.416.032.576.032.976 0 .208 0 .56-.016.88-.016.352-.016.576-.016.72 0 .224 0 .352.032.576l-1.088.016c.048-.352.096-1.328.096-2.304 0-.256 0-.288-.016-.48-2.176 1.024-3.008 1.776-3.008 2.736 0 1.056.992 1.52 3.248 1.52 1.584 0 3.36-.256 4.272-.624l.144 1.232c-.24.016-.32.032-.64.08-1.264.208-2.656.32-3.888.32-2.864 0-4.256-.816-4.256-2.464 0-.88.544-1.712 1.632-2.528.544-.4 1.312-.816 2.384-1.28-.128-.88-.512-1.264-1.264-1.264-1.008 0-2.272.592-3.568 1.696-.624.528-.976.896-1.232 1.328l-.896-.896c1.104-.848 2.432-2.528 3.584-4.576l.144-.24c-.064.016-.224.032-.304.032-.256 0-1.76-.032-2.352-.048h-.256c-.144 0-.176 0-.352.016l.016-1.104c.576.112 1.792.176 3.424.176zm12.448 5.408.144-1.104c.64.288 1.648.496 2.864.64.08-.784.24-2.032.368-2.88-.752-.096-1.44-.208-2.384-.432-.208-.048-.272-.064-.496-.112l.144-1.056c.688.288 1.76.528 2.88.624.256-1.536.384-2.592.384-3.008v-.128l1.28.144c-.096.304-.144.496-.256 1.072-.016.144-.016.144-.16 1.024-.048.352-.08.512-.16.96.448.016.672.016.928.016 1.2 0 2.208-.096 2.928-.272l-.048 1.104c-.32.032-.32.032-1.12.096-.496.048-.976.064-1.44.064-.256 0-.528 0-1.408-.032-.256 1.84-.272 2-.368 2.896.608.016.832.016 1.056.016 1.152 0 2.32-.096 2.944-.256l-.032 1.072c-.16.016-.208.016-.432.032-.816.096-1.504.128-2.256.128-.4 0-.656 0-1.376-.032 0 .112 0 .112-.016.32-.032.384-.064.912-.064 1.184 0 .88.24 1.488.736 1.92.512.448 1.28.688 2.256.688 2.144 0 3.536-1.104 3.536-2.8 0-1.008-.496-1.904-1.52-2.784.528-.064.704-.112 1.168-.32 1.136 1.232 1.504 2.016 1.504 3.184 0 2.256-1.888 3.776-4.688 3.776-1.68 0-2.96-.576-3.584-1.6-.32-.528-.496-1.296-.496-2.208 0-.336.016-.656.064-1.056.016-.24.016-.24.032-.384-.96-.096-1.696-.224-2.416-.4-.256-.08-.304-.08-.496-.096zm16.912.032-.288-1.168c.4-.032.48-.048 1.472-.288 2.096-.496 3.504-.704 4.88-.704 1.648 0 2.784.496 3.392 1.488.32.512.496 1.168.496 1.824 0 1.792-1.44 3.424-3.664 4.128-.976.304-1.36.368-3.296.608-.096-.448-.16-.608-.416-1.104.096.016.16.016.224.016.992 0 2.24-.192 3.152-.496 1.824-.592 2.928-1.808 2.928-3.232 0-1.456-1.024-2.24-2.96-2.24-1.072 0-2.304.192-4.208.64-.976.224-1.232.304-1.712.528zm18.048-7.232 1.264-.24c.064 1.072.656 3.696 1.2 5.296.944-.384 1.392-.56 3.872-1.424.56-.208.704-.256 1.024-.416l.48 1.216c-1.12.24-3.408.976-4.816 1.552-2.736 1.088-3.92 2.144-3.92 3.472 0 1.456 1.232 2.016 4.368 2.016 1.84 0 3.632-.208 4.576-.544l.128 1.328c-.304 0-.304 0-1.184.096-1.648.16-2.416.208-3.536.208-1.584 0-2.784-.144-3.552-.432-1.312-.48-1.984-1.36-1.984-2.624 0-1.024.48-1.952 1.424-2.72.608-.496 1.104-.8 2.096-1.296-.448-1.312-.752-2.432-1.168-4.48-.144-.672-.176-.752-.272-1.008zm16.832 9.088h-1.04c-.896 0-1.312.016-1.808.048.064-.496.08-.944.08-1.68v-5.424c0-.928-.032-1.776-.08-2.128.528.064 1.024.08 1.712.08h6.688c.656 0 1.248-.032 1.712-.08-.048.336-.08 1.232-.08 2.128v5.424c0 .752.016 1.2.08 1.68-.448-.032-.928-.048-1.792-.048h-1.392v2.896c0 .496.16.544 1.792.544 1.52 0 1.888-.064 2.112-.4.176-.272.288-.848.384-2.096.448.24.688.336 1.008.432-.368 2.864-.544 3.008-3.584 3.008-1.312 0-2.032-.08-2.352-.272-.288-.176-.384-.384-.384-.896v-3.216h-1.952c-.224 1.328-.608 2.144-1.408 2.912-.944.912-2.112 1.456-4.096 1.888-.16-.4-.288-.624-.56-.96 1.216-.224 1.776-.368 2.448-.672 1.104-.48 1.856-1.184 2.224-2.064.144-.336.176-.448.288-1.104zm-1.776-8.16v1.744h7.968v-1.744zm0 2.64v1.84h7.968v-1.84zm0 2.736v1.904h7.968v-1.904zm15.84-4.464-.064-1.2c.448.08.736.096 1.504.096 1.328 0 3.456-.096 4.896-.208.416-.032.56-.064.768-.176l.672.88c-.224.112-.304.176-.816.672-2.208 2.16-4.144 3.824-5.264 4.544l.032.048c1.216-.656 2.512-.992 3.92-.992 2.672 0 4.384 1.312 4.384 3.36 0 2.496-2.32 4.144-5.872 4.144-2.256 0-3.552-.832-3.552-2.304 0-1.072.992-1.872 2.32-1.872 1.072 0 2 .464 2.64 1.312.336.448.512.832.736 1.536 1.68-.464 2.56-1.44 2.56-2.8 0-1.536-1.28-2.448-3.44-2.448-2.352 0-4.88 1.024-6.736 2.736l-.72-1.024c.576-.336 1.152-.752 2.24-1.632 1.712-1.36 4.24-3.584 5.344-4.672l.352-.352-.032-.032c-.048 0-.048 0-.144.016-.512.096-2.432.208-4.864.288-.352.016-.512.032-.864.08zm5.248 10.128c-.352-1.456-1.152-2.224-2.304-2.224-.8 0-1.296.384-1.296.992 0 .416.208.72.64.976.416.224 1.104.368 1.792.368.4 0 .592-.016 1.168-.112z"/><path d="m24 128.608c.72 0 1.312.592 1.312 1.312s-.592 1.312-1.312 1.312-1.312-.592-1.312-1.312.592-1.312 1.312-1.312zm12.464-3.488v3.792c2.528-.432 6.336-1.984 7.456-3.056l.816 1.088c-.256.112-.32.144-.704.352-2.384 1.312-4.848 2.176-7.568 2.672v2.336l-.016.096v.176c0 1.12.064 1.488.336 1.76.208.224.56.336 1.216.416.496.064 1.248.096 1.888.096.992 0 2.416-.096 3.664-.256.688-.08.992-.144 1.584-.32l.096 1.28c-.24.016-.288.016-.528.048l-.208.016-.768.08c-1.024.112-3.136.224-4.24.224-1.888 0-2.944-.192-3.504-.656-.384-.32-.576-.784-.656-1.536-.016-.256-.032-.576-.032-1.248v-7.376c0-.704-.016-.96-.064-1.328h1.312c-.064.384-.08.64-.08 1.344zm9.488-2.704c1.008 0 1.808.8 1.808 1.808 0 .992-.816 1.808-1.808 1.808-1.008 0-1.824-.816-1.824-1.808s.816-1.808 1.824-1.808zm0 .672c-.64 0-1.152.512-1.152 1.136s.512 1.136 1.152 1.136c.624 0 1.136-.512 1.136-1.136s-.512-1.136-1.136-1.136zm4.4 4.464 1.008-.336c.64 1.104.992 1.856 1.584 3.552l-1.088.368c-.384-1.408-.832-2.48-1.504-3.584zm3.296-.672.976-.304c.848 1.52 1.136 2.16 1.552 3.44l-1.056.368c-.288-1.136-.784-2.304-1.472-3.504zm5.552-.016 1.184.256c-.096.256-.096.256-.352 1.296-.256 1.12-.832 2.592-1.408 3.584-1.136 1.952-2.816 3.424-5.296 4.624-.24-.4-.368-.56-.736-.896 2.464-1.104 3.968-2.336 5.072-4.176.608-1.008 1.072-2.208 1.36-3.44.112-.528.176-.896.176-1.088zm10.96-3.904 1.312.336c-.144.208-.144.208-.352.656-.416.864-.56 1.136-.736 1.424.208-.048.208-.048 4.832-.128.56 0 .608-.016.832-.112l.688.672c-.144.192-.144.208-.32.784-.672 2.256-1.84 4.432-3.2 6.016-1.472 1.68-3.232 2.944-5.568 4-.256-.464-.384-.624-.8-.944 2.416-.992 4.112-2.208 5.648-4.048 1.232-1.488 2.192-3.36 2.752-5.36l-5.392.096c-.976 1.568-2.256 2.976-3.824 4.16-.272-.4-.432-.544-.896-.832 1.696-1.104 2.912-2.432 4.016-4.384.608-1.056.928-1.776 1.008-2.336zm23.152 1.232.64.768c-.16.208-.192.256-.384.64-1.104 2.144-2.592 3.6-4.672 4.56-.24-.4-.368-.544-.784-.912 1.12-.432 1.776-.816 2.528-1.52.736-.688 1.328-1.472 1.792-2.384h-9.088c-.88 0-1.296.016-1.888.08v-1.232c.544.08.992.112 1.904.112h8.592c1.072 0 1.072 0 1.36-.112zm-6.976 2.784h1.296c-.048.288-.048.288-.064 1.12-.048 2.672-.496 4.256-1.584 5.632-.976 1.232-2.16 2.032-4.096 2.768-.24-.512-.352-.672-.736-1.072 1.296-.384 2.096-.784 2.928-1.472 1.696-1.36 2.32-2.992 2.32-6.112 0-.448-.016-.56-.064-.864zm12.016.576 1.008-.336c.64 1.104.992 1.856 1.584 3.552l-1.088.368c-.384-1.408-.832-2.48-1.504-3.584zm3.296-.672.976-.304c.848 1.52 1.136 2.16 1.552 3.44l-1.056.368c-.288-1.136-.784-2.304-1.472-3.504zm5.552-.016 1.184.256c-.096.256-.096.256-.352 1.296-.256 1.12-.832 2.592-1.408 3.584-1.136 1.952-2.816 3.424-5.296 4.624-.24-.4-.368-.56-.736-.896 2.464-1.104 3.968-2.336 5.072-4.176.608-1.008 1.072-2.208 1.36-3.44.112-.528.176-.896.176-1.088zm15.408-2.048c-.048-.176-.064-.32-.064-.464 0-1.008.816-1.824 1.824-1.824.992 0 1.808.816 1.808 1.808 0 1.008-.816 1.824-1.824 1.824-.176 0-.336-.016-.56-.08l-.032.096c-.784 2.848-1.808 4.848-3.264 6.368-1.664 1.744-3.472 2.912-5.824 3.792-.224-.496-.4-.72-.784-1.104 2.144-.592 4.416-2 5.856-3.632 1.312-1.488 2.24-3.36 2.8-5.696h-8.144c-.928 0-1.312.032-1.792.096v-1.28c.576.08.944.096 1.808.096zm1.76-1.616c-.64 0-1.152.512-1.152 1.136 0 .64.512 1.152 1.152 1.152.624 0 1.136-.512 1.136-1.152 0-.624-.512-1.136-1.136-1.136zm3.552 1.072v-1.008c.384.064.64.08 1.216.08h2.512c.576 0 .816-.016 1.216-.08v1.008c-.352-.048-.704-.064-1.216-.064h-2.512c-.512 0-.832.016-1.216.064zm-.56 2.256v-1.04c.368.064.672.08 1.28.08h3.584c.656 0 .944-.016 1.28-.08v1.04c-.32-.048-.592-.064-1.168-.064h-3.696c-.56 0-.896.016-1.28.064zm.624 2.24v-.992c.336.048.592.064 1.152.064h2.656c.544 0 .832-.016 1.136-.064v.992c-.384-.048-.624-.064-1.136-.064h-2.656c-.528 0-.816.016-1.152.064zm0 2.192v-.992c.336.048.592.064 1.152.064h2.656c.56 0 .816-.016 1.136-.064v.992c-.432-.048-.624-.064-1.136-.064h-2.656c-.512 0-.816.016-1.152.064zm1.12 6.304h-1.04c.064-.464.096-.896.096-1.552v-2.16c0-.544-.016-.912-.08-1.328.416.048.784.064 1.28.064h2.432c.688 0 .864 0 1.152-.048-.032.352-.048.656-.048 1.248v2.304c0 .448.032.88.08 1.264h-.992v-.8h-2.88zm-.016-4.16v2.32h2.896v-2.32zm6.208-3.696v5.712c0 .32.08.416.416.496.272.064.96.096 1.872.096 1.664 0 2.192-.08 2.496-.368.24-.256.4-1.072.48-2.592.352.208.752.4 1.072.48-.176 1.552-.368 2.368-.704 2.8-.384.512-1.168.656-3.392.656-1.376 0-2.144-.064-2.624-.192-.496-.16-.672-.432-.672-1.152v-5.376c0-.752-.016-1.088-.08-1.536.464.048.896.064 1.552.064h4.016v-4.112h-4.336c-.656 0-1.04.016-1.472.08v-1.12c.448.064.912.096 1.472.096h3.872c.672 0 1.056-.016 1.52-.064-.032.416-.048.688-.048 1.568v3.04c0 .64.016 1.056.064 1.488-.496-.048-.896-.064-1.568-.064zm14.48 2.192v-1.104h-3.76c-.656 0-1.04.016-1.504.08v-.992c.4.064.784.08 1.536.08h3.728v-1.04h-3.344c-.528 0-.96.016-1.312.064.048-.368.064-.656.064-1.072v-.704c0-.432-.016-.688-.064-1.088.416.048.768.064 1.328.064h3.328v-1.056h-4.64c-.736 0-1.312.032-1.792.096v-1.056c.432.064.896.096 1.824.096h4.608c0-.784-.016-1.024-.096-1.44h1.168c-.096.4-.112.624-.112 1.44h4.896c.928 0 1.408-.032 1.84-.096v1.056c-.528-.064-1.056-.096-1.808-.096h-4.928v1.056h3.68c.56 0 .912-.016 1.312-.064-.048.4-.064.64-.064 1.088v.704c0 .448.016.672.064 1.072-.352-.048-.784-.064-1.296-.064h-3.696v1.04h3.488c.928 0 1.36-.016 1.792-.064-.032.336-.048.64-.048 1.328v.672c.912 0 1.344-.016 1.696-.096v1.008c-.4-.064-.848-.08-1.696-.08v1.04c0 .784.032 1.216.096 1.6h-1.04v-.656h-4.288v1.328c0 1.104-.32 1.328-1.872 1.328-.336 0-.624-.016-1.52-.064-.032-.4-.096-.608-.272-1.008.816.112 1.376.16 1.984.16.576 0 .72-.08.72-.432v-1.312h-3.856c-.736 0-1.072.016-1.568.08v-.992c.448.064.768.08 1.536.08h3.888v-1.152h-4.8c-.88 0-1.312.016-1.744.08v-1.008c.384.064.832.096 1.744.096zm.96 0h4.288v-1.104h-4.288zm0 .832v1.152h4.288v-1.152zm-.96-5.76h-3.632v1.184h3.632zm.96 0v1.184h3.968v-1.184zm13.216-1.44h.256c.528-1.12.72-1.68.768-2.192l1.28.224c-.144.208-.144.208-.416.864-.208.512-.416.944-.496 1.088.192-.016.192-.016.336-.016 2.56-.128 4.16-.32 5.04-.608l.096 1.088c-.256.016-.352.032-.64.08-1.664.224-3.344.352-5.28.416-.48.944-.88 1.584-1.44 2.272-.16.192-.48.56-.544.608-.112.08-.192.144-.208.16 0 .016-.016.016-.016.016v.016c.016.032.016.032.032.048.576-.448.576-.448.736-.56.736-.512 1.584-.784 2.416-.784 1.184 0 1.904.592 2.112 1.776 1.168-.464 2.08-.8 2.784-1.056.784-.272.832-.288 1.088-.464l.512 1.12c-.832.144-2.272.624-4.272 1.408.032.416.032.576.032.976 0 .208 0 .56-.016.88-.016.352-.016.576-.016.72 0 .224 0 .352.032.576l-1.088.016c.048-.352.096-1.328.096-2.304 0-.256 0-.288-.016-.48-2.176 1.024-3.008 1.776-3.008 2.736 0 1.056.992 1.52 3.248 1.52 1.584 0 3.36-.256 4.272-.624l.144 1.232c-.24.016-.32.032-.64.08-1.264.208-2.656.32-3.888.32-2.864 0-4.256-.816-4.256-2.464 0-.88.544-1.712 1.632-2.528.544-.4 1.312-.816 2.384-1.28-.128-.88-.512-1.264-1.264-1.264-1.008 0-2.272.592-3.568 1.696-.624.528-.976.896-1.232 1.328l-.896-.896c1.104-.848 2.432-2.528 3.584-4.576l.144-.24c-.064.016-.224.032-.304.032-.256 0-1.76-.032-2.352-.048h-.256c-.144 0-.176 0-.352.016l.016-1.104c.576.112 1.792.176 3.424.176zm12.448 5.408.144-1.104c.64.288 1.648.496 2.864.64.08-.784.24-2.032.368-2.88-.752-.096-1.44-.208-2.384-.432-.208-.048-.272-.064-.496-.112l.144-1.056c.688.288 1.76.528 2.88.624.256-1.536.384-2.592.384-3.008v-.128l1.28.144c-.096.304-.144.496-.256 1.072-.016.144-.016.144-.16 1.024-.048.352-.08.512-.16.96.448.016.672.016.928.016 1.2 0 2.208-.096 2.928-.272l-.048 1.104c-.32.032-.32.032-1.12.096-.496.048-.976.064-1.44.064-.256 0-.528 0-1.408-.032-.256 1.84-.272 2-.368 2.896.608.016.832.016 1.056.016 1.152 0 2.32-.096 2.944-.256l-.032 1.072c-.16.016-.208.016-.432.032-.816.096-1.504.128-2.256.128-.4 0-.656 0-1.376-.032 0 .112 0 .112-.016.32-.032.384-.064.912-.064 1.184 0 .88.24 1.488.736 1.92.512.448 1.28.688 2.256.688 2.144 0 3.536-1.104 3.536-2.8 0-1.008-.496-1.904-1.52-2.784.528-.064.704-.112 1.168-.32 1.136 1.232 1.504 2.016 1.504 3.184 0 2.256-1.888 3.776-4.688 3.776-1.68 0-2.96-.576-3.584-1.6-.32-.528-.496-1.296-.496-2.208 0-.336.016-.656.064-1.056.016-.24.016-.24.032-.384-.96-.096-1.696-.224-2.416-.4-.256-.08-.304-.08-.496-.096zm-157.488 22.032-.288-1.168c.4-.032.48-.048 1.472-.288 2.096-.496 3.504-.704 4.88-.704 1.648 0 2.784.496 3.392 1.488.32.512.496 1.168.496 1.824 0 1.792-1.44 3.424-3.664 4.128-.976.304-1.36.368-3.296.608-.096-.448-.16-.608-.416-1.104.096.016.16.016.224.016.992 0 2.24-.192 3.152-.496 1.824-.592 2.928-1.808 2.928-3.232 0-1.456-1.024-2.24-2.96-2.24-1.072 0-2.304.192-4.208.64-.976.224-1.232.304-1.712.528zm18.048-7.232 1.264-.24c.064 1.072.656 3.696 1.2 5.296.944-.384 1.392-.56 3.872-1.424.56-.208.704-.256 1.024-.416l.48 1.216c-1.12.24-3.408.976-4.816 1.552-2.736 1.088-3.92 2.144-3.92 3.472 0 1.456 1.232 2.016 4.368 2.016 1.84 0 3.632-.208 4.576-.544l.128 1.328c-.304 0-.304 0-1.184.096-1.648.16-2.416.208-3.536.208-1.584 0-2.784-.144-3.552-.432-1.312-.48-1.984-1.36-1.984-2.624 0-1.024.48-1.952 1.424-2.72.608-.496 1.104-.8 2.096-1.296-.448-1.312-.752-2.432-1.168-4.48-.144-.672-.176-.752-.272-1.008zm16.832 9.088h-1.04c-.896 0-1.312.016-1.808.048.064-.496.08-.944.08-1.68v-5.424c0-.928-.032-1.776-.08-2.128.528.064 1.024.08 1.712.08h6.688c.656 0 1.248-.032 1.712-.08-.048.336-.08 1.232-.08 2.128v5.424c0 .752.016 1.2.08 1.68-.448-.032-.928-.048-1.792-.048h-1.392v2.896c0 .496.16.544 1.792.544 1.52 0 1.888-.064 2.112-.4.176-.272.288-.848.384-2.096.448.24.688.336 1.008.432-.368 2.864-.544 3.008-3.584 3.008-1.312 0-2.032-.08-2.352-.272-.288-.176-.384-.384-.384-.896v-3.216h-1.952c-.224 1.328-.608 2.144-1.408 2.912-.944.912-2.112 1.456-4.096 1.888-.16-.4-.288-.624-.56-.96 1.216-.224 1.776-.368 2.448-.672 1.104-.48 1.856-1.184 2.224-2.064.144-.336.176-.448.288-1.104zm-1.776-8.16v1.744h7.968v-1.744zm0 2.64v1.84h7.968v-1.84zm0 2.736v1.904h7.968v-1.904zm15.84-4.464-.064-1.2c.448.08.736.096 1.504.096 1.328 0 3.456-.096 4.896-.208.416-.032.56-.064.768-.176l.672.88c-.224.112-.304.176-.816.672-2.208 2.16-4.144 3.824-5.264 4.544l.032.048c1.216-.656 2.512-.992 3.92-.992 2.672 0 4.384 1.312 4.384 3.36 0 2.496-2.32 4.144-5.872 4.144-2.256 0-3.552-.832-3.552-2.304 0-1.072.992-1.872 2.32-1.872 1.072 0 2 .464 2.64 1.312.336.448.512.832.736 1.536 1.68-.464 2.56-1.44 2.56-2.8 0-1.536-1.28-2.448-3.44-2.448-2.352 0-4.88 1.024-6.736 2.736l-.72-1.024c.576-.336 1.152-.752 2.24-1.632 1.712-1.36 4.24-3.584 5.344-4.672l.352-.352-.032-.032c-.048 0-.048 0-.144.016-.512.096-2.432.208-4.864.288-.352.016-.512.032-.864.08zm5.248 10.128c-.352-1.456-1.152-2.224-2.304-2.224-.8 0-1.296.384-1.296.992 0 .416.208.72.64.976.416.224 1.104.368 1.792.368.4 0 .592-.016 1.168-.112z"/><path d="m95.008 184.392c.84 0 1.488.648 1.488 1.488 0 .816-.672 1.488-1.488 1.488s-1.488-.672-1.488-1.488.672-1.488 1.488-1.488zm7.992 0c.84 0 1.488.648 1.488 1.488 0 .816-.672 1.488-1.488 1.488s-1.488-.672-1.488-1.488.672-1.488 1.488-1.488zm8.016 0c.84 0 1.488.648 1.488 1.488 0 .816-.672 1.488-1.488 1.488s-1.488-.672-1.488-1.488.672-1.488 1.488-1.488z" transform="matrix(0 1 -1 0 288.892 82.868)"/></g></g><g transform="translate(250 225)"><path d="m17 8v-8l12 12-12 12v-8h-17v-8z" fill="#fe9019" fill-rule="evenodd"/><path d="m16 7v-9.41421356l14.4142136 14.41421356-14.4142136 14.4142136v-9.4142136h-17v-10z" stroke="#fff" stroke-width="2"/></g><g fill="#333"><path d="m280 115.04-7.2-12.56h14.416zm22.416-1.904-.912 1.008c-1.264-1.616-3.072-3.36-5.12-4.944-1.12 1.28-1.904 2.016-3.056 2.864-1.104.8-1.952 1.328-3.136 1.92-.256-.48-.384-.656-.784-1.056 1.232-.496 2.016-.928 3.248-1.84 2.56-1.888 4.544-4.416 5.712-7.216.032-.096.048-.112.08-.192.032-.048.032-.064.048-.112-.144.016-.192.016-.384.016l-5.344.08c-.72.016-1.184.048-1.648.128l-.032-1.296c.432.064.72.08 1.264.08h.416l5.712-.064c.56-.016.752-.032 1.024-.128l.672.688c-.16.192-.272.384-.448.784-.896 1.984-1.648 3.248-2.64 4.48 2.096 1.6 3.504 2.864 5.328 4.8zm8.384-12.176 1.312.336c-.144.208-.144.208-.352.656-.416.864-.56 1.136-.736 1.424.208-.048.208-.048 4.832-.128.56 0 .608-.016.832-.112l.688.672c-.144.192-.144.208-.32.784-.672 2.256-1.84 4.432-3.2 6.016-1.472 1.68-3.232 2.944-5.568 4-.256-.464-.384-.624-.8-.944 2.416-.992 4.112-2.208 5.648-4.048 1.232-1.488 2.192-3.36 2.752-5.36l-5.392.096c-.976 1.568-2.256 2.976-3.824 4.16-.272-.4-.432-.544-.896-.832 1.696-1.104 2.912-2.432 4.016-4.384.608-1.056.928-1.776 1.008-2.336zm12.96.688h1.328c-.048.384-.064.592-.064 1.328v4.304c0 .768.016.944.064 1.328h-1.328c.048-.368.064-.704.064-1.344v-4.272c0-.688-.016-.96-.064-1.344zm7.072 0h1.344c-.064.368-.08.624-.08 1.392v1.888c0 2.544-.112 3.952-.4 4.88-.464 1.504-1.472 2.672-3.04 3.552-.784.448-1.552.752-2.912 1.152-.176-.464-.272-.624-.672-1.104 1.44-.32 2.208-.592 3.04-1.088 1.488-.864 2.256-1.888 2.56-3.376.176-.912.224-1.648.224-4.08v-1.808c0-.832-.016-1.056-.064-1.408zm6.56 6.864v-1.312c.464.08.896.096 1.984.096h9.296c1.184 0 1.44-.016 1.936-.08v1.296c-.512-.048-.88-.064-1.952-.064h-9.28c-1.168 0-1.504.016-1.984.064zm17.104-4.96.784-.864c1.712 1.088 2.704 1.872 3.856 3.008l-.832.992c-1.152-1.248-2.416-2.288-3.808-3.136zm.112 10.4-.352-1.344c1.248-.048 3.168-.544 4.656-1.232 3.088-1.376 5.232-3.728 6.528-7.12.368.496.528.64.976.944-1.28 2.784-2.768 4.656-4.88 6.112-1.648 1.12-3.296 1.776-5.968 2.384-.432.096-.56.128-.96.256zm17.152-12.304h1.328c-.048.384-.064.592-.064 1.328v4.304c0 .768.016.944.064 1.328h-1.328c.048-.368.064-.704.064-1.344v-4.272c0-.688-.016-.96-.064-1.344zm7.072 0h1.344c-.064.368-.08.624-.08 1.392v1.888c0 2.544-.112 3.952-.4 4.88-.464 1.504-1.472 2.672-3.04 3.552-.784.448-1.552.752-2.912 1.152-.176-.464-.272-.624-.672-1.104 1.44-.32 2.208-.592 3.04-1.088 1.488-.864 2.256-1.888 2.56-3.376.176-.912.224-1.648.224-4.08v-1.808c0-.832-.016-1.056-.064-1.408zm6.56 6.864v-1.312c.464.08.896.096 1.984.096h9.296c1.184 0 1.44-.016 1.936-.08v1.296c-.512-.048-.88-.064-1.952-.064h-9.28c-1.168 0-1.504.016-1.984.064zm20.752-7.712 1.264.352c-.128.192-.16.256-.24.4-.032.064-.144.288-.32.672-.16.304-.336.608-.496.88.192-.032.208-.032.592-.048l3.856-.032c.576-.016.736-.032.976-.064l.928 1.024c-.032.112-.064.192-.08.224l-.08.224-.08.24c-2.016 5.296-4.4 7.904-9.216 10.144-.24-.464-.416-.688-.784-.992 2.368-.88 4.848-2.624 6.08-4.288-.976-.896-2.528-2.016-3.584-2.576l.736-.816c1.248.704 2.368 1.488 3.536 2.48.816-1.2 1.744-3.12 2.224-4.64l-5.6.064c-.992 1.616-2.368 3.152-3.808 4.272-.352-.416-.528-.544-.928-.768 1.6-1.12 3.072-2.768 4.08-4.576.528-.944.864-1.712.944-2.176zm5.568.512.8-.432c.784.928 1.136 1.456 1.632 2.416l-.8.48c-.4-.832-1.12-1.936-1.632-2.464zm1.808-.88.784-.448c.8.976 1.088 1.392 1.648 2.432l-.8.464c-.368-.8-.96-1.68-1.632-2.448zm3.872 8.08v-1.312c.464.08.896.096 1.984.096h9.296c1.184 0 1.44-.016 1.936-.08v1.296c-.512-.048-.88-.064-1.952-.064h-9.28c-1.168 0-1.504.016-1.984.064z"/><path d="m284.752 16.416v15.088l-10.512-7.584zm16.304 3.088.432.576c-.096.144-.128.208-.336.992-.864 2.96-2.048 4.96-3.92 6.64-1.504 1.36-3.008 2.256-5.024 3.008-.224-.496-.4-.72-.784-1.104 2.144-.592 4.416-2 5.856-3.632 1.312-1.488 2.24-3.36 2.8-5.696h-8.144c-.928 0-1.312.032-1.792.096v-1.28c.576.08.944.096 1.808.096h7.728c.336 0 .544 0 .944-.016-.656-1.136-.928-1.52-1.504-2.176l.8-.416c.816.976 1.408 1.84 1.728 2.56zm.144-3.04.784-.432c.72.864 1.12 1.456 1.68 2.464l-.816.48c-.336-.752-1.008-1.76-1.648-2.512zm6.384 2.656v-1.232c.464.096.784.112 1.68.112h5.344c.896 0 1.216-.016 1.68-.112v1.232c-.432-.064-.816-.08-1.664-.08h-5.376c-.848 0-1.232.016-1.664.08zm-1.376 3.68v-1.2c.576.08.912.096 1.872.096h8.208c.592 0 .768-.016 1.04-.112l.592.688c-.144.224-.176.304-.448 1.008-1.36 3.728-3.568 5.776-7.712 7.168-.192-.464-.304-.64-.688-1.104 2.144-.608 3.552-1.328 4.752-2.432 1.136-1.04 1.856-2.224 2.592-4.192h-8.352c-.848 0-1.312.016-1.856.08zm22.304-3.008h3.376c.992 0 1.056 0 1.344-.096l.656.624c-.144.256-.144.256-.352 1.616-.384 2.416-1.36 4.384-2.896 5.84-1.216 1.136-2.768 2.016-4.688 2.656-.224-.48-.32-.64-.736-1.088 1.52-.4 2.464-.832 3.536-1.552 2.24-1.552 3.408-3.744 3.712-6.992h-8.736v2.4c0 .512.016.88.048 1.184h-1.312c.032-.272.064-.784.064-1.2v-2.16c0-.496-.016-.912-.064-1.296.496.048.864.064 1.472.064h3.392v-1.616c0-.464-.016-.64-.08-1.024h1.344c-.048.304-.08.624-.08 1.008zm12.896.928h4.88v-1.568c0-1.12 0-1.264-.048-1.632h1.248c-.048.448-.048.464-.064 1.52v1.68h1.376c1.008 0 1.328-.016 1.872-.096v1.216c-.512-.064-.832-.08-1.856-.08h-1.408c-.016 3.088-.192 4.272-.784 5.424-.864 1.6-2.304 2.72-4.464 3.456-.192-.416-.352-.656-.72-1.008 2.096-.528 3.712-1.776 4.352-3.392.352-.96.448-1.92.48-4.48h-4.864v2.672c0 .704.016.928.064 1.296h-1.296c.048-.336.064-.496.064-1.344v-2.624h-1.344c-1.024 0-1.344.016-1.856.08v-1.216c.544.08.864.096 1.872.096h1.328v-1.856c0-.848-.016-.992-.064-1.344h1.296c-.048.384-.064.592-.064 1.296zm6.688-3.968.848-.24c.512.928.768 1.488 1.136 2.624l-.848.288c-.384-1.184-.704-1.952-1.136-2.672zm1.872-.496.816-.272c.48.832.88 1.744 1.136 2.608l-.832.288c-.304-.976-.736-2-1.12-2.624z"/></g></g></svg>