<?xml version="1.0" encoding="UTF-8" standalone="no"?>
<svg width="500px" height="500px" viewBox="0 0 500 500" version="1.1" xmlns="http://www.w3.org/2000/svg" xmlns:xlink="http://www.w3.org/1999/xlink" style="background: #FFFFFF;">
    <!-- Generator: Sketch 48.2 (47327) - http://www.bohemiancoding.com/sketch -->
    <title>2.4.4_3</title>
    <desc>Created with Sketch.</desc>
    <defs>
        <rect id="path-1" x="0" y="26" width="200" height="373"></rect>
        <rect id="path-2" x="0" y="26" width="200" height="373"></rect>
    </defs>
    <g id="Page-1" stroke="none" stroke-width="1" fill="none" fill-rule="evenodd">
        <g id="2.4.4_3">
            <g id="Group" transform="translate(25.000000, 48.000000)">
                <g id="Rectangle-3">
                    <use fill="#FFFFFF" fill-rule="evenodd" xlink:href="#path-1"></use>
                    <rect stroke="#CCCCCC" stroke-width="1" x="0.5" y="26.5" width="199" height="372"></rect>
                </g>
                <path d="M26.688,46.588 L27.696,47.47 C27.552,47.758 27.516,48.064 27.498,48.658 C27.444,50.692 27.246,53.482 27.066,54.67 C26.598,57.784 25.968,58.522 23.808,58.522 C23.124,58.522 22.512,58.468 21.576,58.306 C21.558,57.226 21.468,56.794 21.162,56.002 C22.224,56.308 22.944,56.434 23.538,56.434 C24.312,56.434 24.582,56.038 24.87,54.472 C25.086,53.23 25.266,50.764 25.266,48.712 L21.072,48.712 C20.64,53.248 18.714,56.362 14.772,58.846 C14.178,57.928 13.872,57.586 13.152,56.956 C16.59,55.174 18.462,52.474 18.84,48.73 L15.852,48.73 C14.718,48.73 14.466,48.748 13.908,48.82 L13.89,46.624 C14.484,46.714 14.808,46.75 15.888,46.75 L19.038,46.732 C19.092,46.066 19.128,45.004 19.128,44.482 L19.128,44.032 C19.128,43.816 19.128,43.672 19.074,43.33 L21.486,43.384 C21.45,43.636 21.432,43.672 21.414,43.96 C21.414,44.068 21.396,44.158 21.396,44.284 L21.378,44.626 L21.324,45.598 C21.306,46.084 21.306,46.102 21.252,46.732 L25.248,46.714 C25.842,46.714 26.022,46.714 26.238,46.678 L26.184,46.534 L26.094,46.354 C25.716,45.454 25.284,44.68 24.69,43.87 L26.004,43.384 C26.706,44.32 27.102,45.04 27.606,46.228 L26.688,46.588 Z M29.856,45.292 L28.542,45.85 C28.11,44.788 27.588,43.87 26.994,43.06 L28.272,42.556 C29.01,43.51 29.424,44.23 29.856,45.292 Z M33.672,43.798 L36.12,43.816 C36.048,44.32 36.048,44.482 36.048,45.436 L36.048,50.404 C36.048,51.304 36.048,51.538 36.12,51.988 L33.654,51.988 C33.708,51.574 33.744,51.016 33.744,50.368 L33.744,45.418 C33.744,44.5 33.726,44.266 33.672,43.798 Z M41.79,43.834 L44.292,43.834 C44.22,44.284 44.202,44.482 44.202,45.508 L44.202,47.938 C44.184,50.746 44.058,52.258 43.734,53.392 C43.212,55.192 42.06,56.542 40.188,57.586 C39.234,58.126 38.334,58.486 36.678,58.972 C36.354,58.09 36.174,57.784 35.418,56.83 C37.182,56.488 38.226,56.11 39.306,55.39 C40.998,54.274 41.592,53.176 41.79,50.8 C41.862,50.026 41.88,49.234 41.88,47.794 L41.88,45.544 C41.88,44.626 41.862,44.248 41.79,43.834 Z M52.986,44.518 L55.452,44.968 C55.398,45.166 55.38,45.184 55.362,45.328 L55.326,45.634 L55.236,46.156 L55.182,46.588 C54.426,51.754 53.022,55.3 50.61,58.072 C49.764,57.262 49.422,56.992 48.558,56.524 C49.638,55.444 50.376,54.346 51.132,52.69 C51.906,51.016 52.536,48.784 52.824,46.516 C52.932,45.778 52.986,45.166 52.986,44.77 L52.986,44.518 Z M58.332,44.95 L60.564,44.518 C60.582,45.346 60.906,47.11 61.32,48.658 C62.202,51.988 63.462,54.418 65.334,56.434 C64.416,57.01 64.038,57.316 63.354,58.09 C60.96,55.228 59.286,51.088 58.584,46.246 C58.476,45.508 58.422,45.22 58.332,44.95 Z M60.744,43.834 L62.094,43.438 C62.76,44.374 63.156,45.13 63.588,46.336 L62.22,46.768 C61.806,45.616 61.428,44.842 60.744,43.834 Z M65.946,45.616 L64.578,46.048 C64.164,44.932 63.714,44.032 63.138,43.204 L64.47,42.826 C65.154,43.78 65.55,44.536 65.946,45.616 Z M67.278,52.348 L67.278,49.846 C68.07,49.954 68.412,49.972 70.194,49.972 L79.788,49.972 C81.57,49.972 81.912,49.954 82.704,49.846 L82.704,52.348 C81.984,52.258 81.786,52.258 79.77,52.258 L70.212,52.258 C68.196,52.258 67.998,52.258 67.278,52.348 Z M97.914,46.642 L94.206,46.642 C93.54,47.758 93.072,48.352 92.118,49.324 C91.776,48.892 91.362,48.55 90.678,48.154 C91.128,47.74 91.272,47.578 91.596,47.218 C91.2,47.2 90.858,47.182 90.264,47.182 L88.374,47.182 L88.374,47.776 C88.356,48.334 88.356,48.334 88.32,49.09 L90.12,49.09 C90.858,49.09 91.236,49.072 91.56,49.036 C91.506,49.576 91.506,49.576 91.488,52.096 C91.452,54.832 91.254,56.92 90.966,57.856 C90.66,58.774 90.066,59.098 88.662,59.098 C88.392,59.098 88.194,59.098 87.726,59.062 C87.69,58.306 87.6,57.802 87.366,57.118 C87.798,57.226 88.194,57.28 88.608,57.28 C89.184,57.28 89.274,57.136 89.418,56.074 C89.544,55.066 89.634,53.356 89.652,50.836 L88.23,50.836 C88.104,53.104 87.942,54.238 87.564,55.624 C87.096,57.262 86.664,58.234 85.764,59.476 C85.278,58.666 84.954,58.27 84.36,57.784 C85.296,56.542 85.836,55.12 86.16,53.014 C86.412,51.484 86.484,50.062 86.52,47.182 L86.322,47.182 C85.548,47.182 85.152,47.2 84.738,47.272 L84.738,45.328 C85.224,45.418 85.656,45.436 86.502,45.436 L87.636,45.436 L87.636,44.482 C87.636,43.816 87.6,43.366 87.528,42.898 L89.652,42.898 C89.58,43.366 89.562,43.762 89.562,44.464 L89.562,45.436 L90.282,45.436 C91.002,45.436 91.452,45.418 91.902,45.346 L91.902,46.84 C92.928,45.508 93.684,43.924 93.846,42.844 L95.844,43.222 C95.718,43.456 95.628,43.672 95.502,43.978 C95.304,44.446 95.268,44.536 95.124,44.878 L99.39,44.878 C100.164,44.878 100.758,44.842 101.244,44.77 L101.244,46.714 C100.74,46.66 100.272,46.642 99.48,46.642 L98.292,46.642 L99.57,47.722 C99.3,47.92 99.246,47.956 98.922,48.208 C98.778,48.316 97.86,49 97.59,49.198 C97.716,50.314 97.752,50.638 97.95,51.43 C98.814,50.836 99.444,50.242 100.056,49.432 L101.28,50.818 C100.272,51.844 99.552,52.474 98.544,53.194 C99.408,55.138 100.146,56.182 101.55,57.388 C101.028,58 100.758,58.45 100.38,59.368 C98.76,57.856 97.878,56.596 97.086,54.616 C96.546,53.302 96.276,52.15 96.006,50.188 C95.682,50.386 95.574,50.458 95.25,50.62 L95.25,57.532 C95.25,58.288 95.286,58.882 95.34,59.386 L93.252,59.386 C93.324,58.9 93.36,58.324 93.36,57.532 L93.36,51.574 C92.928,51.79 92.622,51.934 92.46,52.006 C92.226,51.268 92.028,50.872 91.596,50.26 C92.874,49.81 93.864,49.342 95.268,48.496 C96.348,47.866 96.924,47.452 97.914,46.642 Z M114.456,50.152 L111.018,50.152 C110.19,50.152 109.362,50.188 108.804,50.26 L108.804,48.244 C109.344,48.316 110.154,48.352 111.018,48.352 L117.138,48.352 C118.146,48.352 118.866,48.316 119.334,48.244 L119.334,50.26 C118.74,50.188 117.984,50.152 117.192,50.152 L116.418,50.152 L116.418,57.316 C116.418,58.864 115.896,59.242 113.718,59.242 C113.106,59.242 112.566,59.224 111.72,59.188 C111.612,58.396 111.504,57.928 111.198,57.172 C112.152,57.298 113.088,57.37 113.646,57.37 C114.366,57.37 114.456,57.334 114.456,56.938 L114.456,50.152 Z M106.86,42.754 L108.588,43.96 C108.39,44.176 108.39,44.176 108.048,44.572 C106.878,45.976 105.6,47.092 103.908,48.172 C103.548,47.47 103.242,47.038 102.774,46.48 C104.196,45.706 105.114,44.986 105.996,44.014 C106.392,43.546 106.626,43.204 106.86,42.754 Z M109.524,45.67 L109.524,43.672 C110.028,43.744 110.694,43.78 111.63,43.78 L116.49,43.78 C117.39,43.78 118.002,43.744 118.542,43.672 L118.542,45.67 C117.912,45.598 117.246,45.562 116.526,45.562 L111.63,45.562 C110.874,45.562 110.118,45.598 109.524,45.67 Z M105.24,57.172 L105.24,54.022 C105.24,53.266 105.24,53.158 105.276,51.934 C104.808,52.492 104.268,53.014 103.638,53.464 C103.368,52.654 103.134,52.186 102.738,51.538 C104.628,50.314 106.482,48.334 107.166,46.786 L108.858,47.902 C108.678,48.1 108.516,48.316 108.264,48.694 C107.85,49.288 107.688,49.522 107.22,50.098 L107.22,57.19 C107.22,58.144 107.256,58.864 107.346,59.458 L105.114,59.458 C105.204,58.9 105.24,58.108 105.24,57.172 Z M121.458,45.112 L121.458,43.33 C121.944,43.402 122.232,43.42 122.952,43.42 L126.048,43.42 C126.768,43.42 127.056,43.402 127.542,43.33 L127.542,45.112 C127.038,45.058 126.714,45.04 126.048,45.04 L122.952,45.04 C122.304,45.04 121.908,45.058 121.458,45.112 Z M120.846,47.758 L120.846,45.886 C121.278,45.958 121.62,45.976 122.286,45.976 L126.732,45.976 C127.47,45.976 127.776,45.958 128.172,45.904 L128.172,47.758 C127.794,47.704 127.542,47.686 126.804,47.686 L122.286,47.686 C121.656,47.686 121.278,47.704 120.846,47.758 Z M121.53,50.278 L121.53,48.604 C121.89,48.64 122.124,48.658 122.718,48.658 L126.426,48.658 C127.02,48.658 127.254,48.64 127.578,48.604 L127.578,50.278 C127.182,50.242 126.966,50.224 126.426,50.224 L122.718,50.224 C122.142,50.224 121.89,50.242 121.53,50.278 Z M121.53,52.816 L121.53,51.142 C121.89,51.178 122.124,51.196 122.718,51.196 L126.426,51.196 C127.02,51.196 127.254,51.178 127.578,51.142 L127.578,52.816 C127.164,52.762 126.984,52.762 126.39,52.762 L122.7,52.762 C122.16,52.762 121.872,52.78 121.53,52.816 Z M123.402,59.566 L121.494,59.566 C121.566,59.008 121.602,58.432 121.602,57.802 L121.602,55.138 C121.602,54.562 121.584,54.166 121.512,53.716 C121.962,53.752 122.232,53.77 122.916,53.77 L126.444,53.77 C127.146,53.77 127.344,53.77 127.65,53.716 C127.596,54.112 127.596,54.346 127.596,55.012 L127.596,58.036 C127.596,58.468 127.632,59.008 127.668,59.314 L125.832,59.314 L125.832,58.594 L123.402,58.594 L123.402,59.566 Z M123.366,55.3 L123.366,56.992 L125.832,56.992 L125.832,55.3 L123.366,55.3 Z M130.674,50.998 L130.674,56.578 C130.674,56.938 130.764,57.046 131.088,57.118 C131.43,57.19 131.97,57.226 132.672,57.226 C134.094,57.226 134.652,57.136 134.922,56.866 C135.192,56.596 135.318,55.786 135.354,53.932 C136.038,54.256 136.722,54.49 137.334,54.598 C137.19,56.686 136.992,57.604 136.506,58.252 C136.038,58.882 135.084,59.08 132.618,59.08 C129.324,59.08 128.676,58.792 128.676,57.262 L128.676,50.908 C128.676,50.044 128.658,49.702 128.604,49.144 C129.144,49.198 129.63,49.216 130.404,49.216 L134.454,49.216 L134.454,45.4 L130.296,45.4 C129.504,45.4 128.964,45.436 128.424,45.49 L128.424,43.456 C129,43.528 129.558,43.564 130.314,43.564 L134.67,43.564 C135.462,43.564 135.984,43.546 136.506,43.492 C136.452,44.122 136.434,44.446 136.434,45.31 L136.434,49.288 C136.434,50.044 136.452,50.548 136.506,51.07 C135.93,51.016 135.516,50.998 134.706,50.998 L130.674,50.998 Z" id="ガリバー旅行記" fill="#176ED3"></path>
                <path d="M15.078,88.892 L13.386,88.892 C13.494,88.244 13.53,87.722 13.53,86.876 L13.53,77.21 C13.53,76.472 13.494,75.914 13.386,75.158 C14.034,75.194 14.538,75.212 15.366,75.212 L19.038,75.212 C21.81,75.212 23.376,76.634 23.376,79.136 C23.376,81.782 21.756,83.312 18.948,83.312 L14.934,83.312 L14.934,86.858 C14.934,87.722 14.97,88.28 15.078,88.892 Z M14.934,82.07 L18.948,82.07 C20.856,82.07 21.936,81.044 21.936,79.208 C21.936,77.408 20.892,76.454 18.948,76.454 L14.934,76.454 L14.934,82.07 Z M25.446,86.804 L25.446,77.21 C25.446,76.436 25.41,75.914 25.302,75.158 C25.932,75.194 26.418,75.212 27.282,75.212 L30.324,75.212 C34.338,75.212 36.624,77.66 36.624,81.962 C36.624,84.212 35.94,86.084 34.698,87.29 C33.618,88.352 32.124,88.892 30.324,88.892 L27.282,88.892 C26.418,88.892 25.932,88.91 25.302,88.946 C25.41,88.244 25.446,87.704 25.446,86.804 Z M26.85,87.632 L30.288,87.632 C31.71,87.632 32.844,87.218 33.654,86.354 C34.644,85.346 35.166,83.816 35.166,81.962 C35.166,80.09 34.698,78.65 33.744,77.696 C32.952,76.868 31.836,76.472 30.36,76.472 L26.85,76.472 L26.85,87.632 Z M40.512,82.394 L40.512,86.786 C40.512,87.758 40.548,88.244 40.656,88.892 L38.946,88.892 C39.054,88.28 39.09,87.722 39.09,86.786 L39.09,77.21 C39.09,76.436 39.054,75.86 38.946,75.158 C39.576,75.194 40.062,75.212 40.926,75.212 L45.696,75.212 C46.578,75.212 47.082,75.176 47.766,75.086 L47.766,76.616 C47.172,76.526 46.65,76.49 45.696,76.49 L40.512,76.49 L40.512,81.134 L44.724,81.134 C45.588,81.134 46.11,81.098 46.776,81.008 L46.776,82.52 C46.182,82.43 45.66,82.394 44.724,82.394 L40.512,82.394 Z" id="PDF" fill="#176ED3"></path>
                <path d="M14.862,117.892 L13.278,117.892 C13.368,117.244 13.404,116.704 13.404,115.858 L13.404,110.224 C13.404,109.324 13.368,108.838 13.278,108.19 L14.736,108.19 L14.736,109.18 C14.736,109.27 14.718,109.486 14.7,109.828 C14.862,109.522 15.024,109.306 15.384,108.928 C15.996,108.316 16.878,107.992 17.922,107.992 C18.948,107.992 19.704,108.298 20.244,108.91 C20.514,109.198 20.622,109.414 20.802,109.954 C21.648,108.568 22.62,107.992 24.132,107.992 C25.32,107.992 26.22,108.37 26.76,109.09 C27.192,109.666 27.372,110.368 27.372,111.43 L27.372,115.876 C27.372,116.776 27.408,117.262 27.498,117.892 L25.878,117.892 C25.986,117.226 26.004,116.812 26.004,115.858 L26.004,111.61 C26.004,109.9 25.374,109.162 23.934,109.162 C23.034,109.162 22.188,109.648 21.666,110.476 C21.324,110.998 21.072,111.79 21.072,112.33 L21.072,115.876 C21.072,116.776 21.108,117.28 21.198,117.892 L19.578,117.892 C19.668,117.244 19.704,116.776 19.704,115.858 L19.704,111.61 C19.704,110.026 18.984,109.162 17.688,109.162 C16.752,109.162 15.888,109.666 15.33,110.53 C15.006,111.016 14.736,111.862 14.736,112.33 L14.736,115.858 C14.736,116.686 14.772,117.172 14.862,117.892 Z M31.62,121.672 L30.036,121.672 C30.126,120.97 30.162,120.394 30.162,119.656 L30.162,110.26 C30.162,109.396 30.126,108.874 30.036,108.19 L31.476,108.19 L31.476,109.216 C31.476,109.45 31.458,109.648 31.422,109.954 C32.232,108.676 33.492,108.01 35.094,108.01 C37.866,108.01 39.558,109.9 39.558,113.032 C39.558,116.092 37.83,118.054 35.13,118.054 C33.546,118.054 32.268,117.388 31.422,116.146 C31.476,116.65 31.494,116.92 31.494,117.406 L31.494,119.638 C31.494,120.484 31.53,121.006 31.62,121.672 Z M35.004,116.884 C36.966,116.884 38.154,115.426 38.154,113.032 C38.154,110.584 37.002,109.18 34.986,109.18 C32.916,109.18 31.512,110.728 31.512,113.05 C31.512,114.22 31.89,115.3 32.538,115.93 C33.168,116.542 34.068,116.884 35.004,116.884 Z M41.214,114.94 L42.726,114.562 C43.014,115.498 43.266,115.876 43.824,116.272 C44.436,116.704 45.228,116.92 46.146,116.92 C48.234,116.92 49.548,115.84 49.548,114.13 C49.548,112.348 48.27,111.376 45.876,111.376 C45.372,111.376 44.922,111.412 44.436,111.466 L44.436,110.044 C44.85,110.116 45.282,110.152 45.768,110.152 C46.956,110.152 47.838,109.882 48.396,109.324 C48.846,108.892 49.116,108.226 49.116,107.578 C49.116,106.03 48.036,105.13 46.218,105.13 C45.12,105.13 44.328,105.436 43.824,106.084 C43.572,106.408 43.446,106.696 43.248,107.362 L41.754,107.038 C42.06,106.12 42.276,105.706 42.726,105.238 C43.518,104.374 44.742,103.924 46.308,103.924 C48.918,103.924 50.574,105.292 50.574,107.452 C50.574,108.55 50.106,109.522 49.314,110.08 C48.846,110.422 48.45,110.566 47.622,110.728 C48.666,110.836 49.224,111.034 49.836,111.502 C50.628,112.114 51.042,113.068 51.042,114.22 C51.042,116.65 49.17,118.162 46.164,118.162 C44.346,118.162 42.996,117.658 42.132,116.686 C41.754,116.254 41.538,115.858 41.214,114.94 Z" id="mp3" fill="#176ED3"></path>
                <path d="M26.904,156.138 L27.534,156.804 C27.39,157.074 27.336,157.236 27.228,157.614 C25.824,163.284 22.584,166.974 16.986,169.296 C16.518,168.36 16.212,167.946 15.402,167.154 C20.388,165.606 23.646,162.258 24.798,157.47 L16.23,157.47 C14.898,157.47 14.556,157.488 13.962,157.578 L13.962,155.238 C14.61,155.346 15.042,155.364 16.266,155.364 L24.528,155.364 C25.176,155.364 25.482,155.346 25.824,155.31 C25.518,154.662 25.176,154.122 24.708,153.492 L26.022,153.006 C26.724,153.924 27.138,154.662 27.624,155.85 L26.904,156.138 Z M29.928,154.986 L28.596,155.526 C28.164,154.464 27.66,153.546 27.048,152.736 L28.344,152.25 C29.082,153.204 29.514,153.924 29.928,154.986 Z M33.6,153.834 L36.156,153.852 C36.084,154.338 36.066,154.788 36.048,155.67 L35.958,165.948 C37.83,165.588 39.522,164.904 40.872,163.968 C42.528,162.834 43.644,161.592 44.544,159.846 C45.246,160.782 45.48,161.034 46.254,161.682 C45.012,163.59 43.86,164.796 42.24,165.876 C40.44,167.082 38.604,167.784 35.688,168.342 C35.202,168.432 34.986,168.504 34.608,168.648 L33.456,167.262 C33.582,166.776 33.618,166.452 33.618,165.408 L33.69,155.688 C33.69,154.428 33.69,154.428 33.6,153.834 Z M49.278,162.348 L49.278,159.846 C50.07,159.954 50.412,159.972 52.194,159.972 L61.788,159.972 C63.57,159.972 63.912,159.954 64.704,159.846 L64.704,162.348 C63.984,162.258 63.786,162.258 61.77,162.258 L52.212,162.258 C50.196,162.258 49.998,162.258 49.278,162.348 Z M78.114,153.582 L80.562,154.428 C80.364,154.77 80.292,154.914 79.932,155.724 C78.798,158.406 78.096,159.774 77.394,160.818 C78.906,162.096 79.842,162.978 81.408,164.634 L79.68,166.488 C78.744,165.264 77.664,164.148 76.026,162.69 C75.252,163.716 74.316,164.724 73.218,165.696 C71.922,166.83 70.77,167.64 68.934,168.666 C68.448,167.802 68.16,167.478 67.35,166.794 C69.348,165.804 70.59,164.976 72.012,163.68 C72.876,162.906 73.596,162.132 74.298,161.232 C72.858,160.044 71.13,158.874 69.528,157.992 L71.112,156.408 C72.426,157.182 73.2,157.686 74.082,158.316 C75.432,159.288 75.432,159.288 75.576,159.378 C76.728,157.488 77.88,154.878 78.114,153.582 Z M86.196,156.444 L87.69,154.662 C89.832,155.994 90.948,156.822 92.334,158.136 L90.786,160.098 C89.346,158.568 87.87,157.38 86.196,156.444 Z M86.826,168.324 L86.16,165.84 C87.708,165.75 89.85,165.228 91.488,164.508 C93.738,163.536 95.412,162.15 96.834,160.098 C97.626,158.946 98.13,157.956 98.67,156.498 C99.372,157.344 99.66,157.614 100.578,158.262 C99.048,161.556 97.338,163.68 94.872,165.318 C93.036,166.542 90.804,167.424 88.014,168.018 C87.294,168.162 87.24,168.18 86.826,168.324 Z M112.404,156.462 C112.062,159.288 111.432,161.772 110.532,163.806 C109.506,166.128 108.354,167.19 106.878,167.19 C104.826,167.19 103.35,165.102 103.35,162.204 C103.35,160.224 104.052,158.37 105.33,156.966 C106.842,155.31 108.966,154.446 111.522,154.446 C115.842,154.446 118.65,157.074 118.65,161.124 C118.65,164.238 117.03,166.722 114.276,167.838 C113.412,168.198 112.71,168.378 111.45,168.594 C111.144,167.64 110.928,167.244 110.352,166.488 C112.008,166.272 113.088,165.984 113.934,165.498 C115.5,164.634 116.436,162.924 116.436,160.998 C116.436,159.27 115.662,157.866 114.222,157.002 C113.664,156.678 113.196,156.534 112.404,156.462 Z M110.208,156.48 C109.272,156.588 108.624,156.84 107.886,157.362 C106.374,158.442 105.438,160.296 105.438,162.222 C105.438,163.698 106.068,164.868 106.86,164.868 C107.454,164.868 108.066,164.112 108.714,162.564 C109.398,160.944 109.992,158.514 110.208,156.48 Z M127.83,154.302 L127.83,153.906 C127.83,153.51 127.794,153.168 127.722,152.772 L129.954,152.772 C129.882,153.15 129.846,153.474 129.846,153.906 L129.846,154.302 L133.932,154.302 C134.922,154.302 135.606,154.266 136.164,154.194 L136.164,156.12 C135.588,156.066 135.102,156.048 134.238,156.048 L133.41,156.048 C132.96,157.074 132.672,157.704 132.366,158.226 L135.066,158.226 C136.128,158.226 136.632,158.208 137.136,158.136 L137.136,160.062 C136.614,159.99 136.11,159.972 135.066,159.972 L122.97,159.972 C121.926,159.972 121.44,159.99 120.9,160.062 L120.9,158.136 C121.458,158.208 121.98,158.226 123.042,158.226 L125.328,158.226 C125.148,157.578 124.752,156.66 124.392,156.048 L123.636,156.048 C122.79,156.048 122.34,156.066 121.782,156.12 L121.782,154.194 C122.322,154.266 122.97,154.302 123.888,154.302 L127.83,154.302 Z M127.398,158.226 L130.35,158.226 C130.764,157.524 131.106,156.768 131.34,156.048 L126.498,156.048 C126.858,156.768 127.146,157.47 127.398,158.226 Z M124.752,161.016 L133.212,161.016 C133.95,161.016 134.364,160.998 134.94,160.944 C134.886,161.52 134.868,161.952 134.868,162.564 L134.868,167.712 C134.868,168.45 134.904,168.954 134.976,169.476 L132.906,169.476 L132.906,168.702 L125.076,168.702 L125.076,169.476 L123.006,169.476 C123.078,168.918 123.114,168.396 123.114,167.712 L123.114,162.564 C123.114,162.006 123.096,161.52 123.024,160.944 C123.618,160.998 124.014,161.016 124.752,161.016 Z M125.076,162.69 L125.076,163.968 L132.906,163.968 L132.906,162.69 L125.076,162.69 Z M125.076,165.552 L125.076,166.992 L132.906,166.992 L132.906,165.552 L125.076,165.552 Z M145.938,161.628 L144.984,161.628 C144.444,161.628 143.976,161.646 143.598,161.682 C143.634,161.268 143.652,160.836 143.652,160.188 L143.652,155.976 C143.652,155.22 143.652,155.112 143.598,154.518 C144.048,154.572 144.246,154.572 145.02,154.572 L145.596,154.572 C145.866,153.906 146.028,153.42 146.172,152.736 L148.17,152.97 C147.828,153.798 147.594,154.338 147.486,154.572 L148.998,154.572 C149.736,154.572 149.916,154.572 150.384,154.518 C150.33,154.95 150.33,155.148 150.33,155.976 L150.33,160.188 C150.33,160.962 150.348,161.34 150.384,161.682 C149.988,161.646 149.556,161.628 149.034,161.628 L147.918,161.628 L147.918,162.816 L152.778,162.816 C153.84,162.816 154.47,162.78 154.938,162.708 L154.938,164.652 C154.398,164.58 153.75,164.544 152.76,164.544 L149.268,164.544 C150.33,165.372 150.96,165.768 151.86,166.182 C153.066,166.722 153.894,167.01 155.442,167.352 C154.974,167.982 154.686,168.45 154.326,169.206 C152.616,168.666 151.968,168.396 150.906,167.784 C149.646,167.046 148.638,166.254 147.864,165.372 C147.864,165.588 147.864,165.588 147.882,165.858 C147.882,165.912 147.9,166.506 147.9,166.56 L147.9,167.604 C147.9,168.504 147.918,168.864 148.026,169.458 L145.83,169.458 C145.92,168.882 145.956,168.396 145.956,167.604 L145.956,166.578 C145.956,166.236 145.974,165.894 146.01,165.39 C145.002,166.452 144.336,167.01 143.256,167.64 C142.266,168.216 141.078,168.756 139.8,169.188 C139.44,168.45 139.17,168.036 138.63,167.424 C141.096,166.794 143.13,165.804 144.516,164.544 L141.24,164.544 C140.304,164.544 139.602,164.58 139.098,164.652 L139.098,162.708 C139.602,162.78 140.286,162.816 141.24,162.816 L145.938,162.816 L145.938,161.628 Z M145.434,156.138 L145.434,157.308 L148.548,157.308 L148.548,156.138 L145.434,156.138 Z M145.434,158.802 L145.434,160.062 L148.548,160.062 L148.548,158.802 L145.434,158.802 Z M139.17,155.022 L140.484,153.78 C141.474,154.572 142.194,155.256 143.22,156.39 L141.906,157.776 C140.988,156.606 140.178,155.796 139.17,155.022 Z M142.95,158.082 L143.4,159.738 C142.356,160.44 141.69,160.818 140.178,161.556 C139.836,161.718 139.818,161.736 139.44,161.934 L138.738,160.116 C139.89,159.828 141.258,159.144 142.95,158.082 Z M153.498,153.762 L154.956,155.04 C153.642,156.426 152.796,157.2 151.878,157.92 L150.654,156.588 C152.004,155.526 152.58,154.95 153.498,153.762 Z M150.51,159.558 L151.518,158.154 C153.318,159.072 154.272,159.612 155.352,160.332 L154.308,161.88 C152.994,160.908 151.878,160.224 150.51,159.558 Z M168.186,157.146 L167.898,157.146 C167.502,157.614 167.286,157.83 166.89,158.19 C167.502,159.09 167.826,159.666 168.204,160.548 C168.942,162.276 169.374,164.382 169.374,166.182 C169.374,167.568 169.068,168.504 168.492,168.918 C168.114,169.188 167.556,169.296 166.476,169.296 C166.044,169.296 165.774,169.278 165.216,169.224 C165.144,168.252 165.108,168.018 164.838,167.334 C165.576,167.46 166.278,167.532 166.728,167.532 C167.088,167.532 167.232,167.496 167.304,167.37 C167.448,167.172 167.538,166.632 167.538,165.876 C167.538,165.462 167.52,165.12 167.484,164.616 C166.944,165.156 166.242,165.714 165.342,166.362 C164.352,167.082 163.344,167.658 162.102,168.288 C161.778,167.712 161.472,167.28 160.914,166.758 C163.47,165.678 165.432,164.418 167.142,162.78 C167.034,162.33 166.962,162.114 166.818,161.682 C165.828,162.528 164.982,163.086 163.344,163.95 C163.11,163.302 162.93,162.924 162.588,162.438 C162.642,162.798 162.66,162.96 162.66,163.122 C162.66,164.022 162.426,164.652 161.94,165.012 C161.544,165.3 161.022,165.408 159.96,165.408 C159.888,165.408 159.78,165.408 159.636,165.39 C159.618,164.508 159.546,164.094 159.312,163.572 C159.6,163.626 159.906,163.662 160.104,163.662 C160.716,163.662 160.86,163.518 160.86,162.924 C160.86,162.384 160.734,161.682 160.518,161.124 C160.302,160.53 160.05,160.116 159.294,159.18 C159.744,158.334 159.834,158.136 160.32,156.858 C160.68,155.958 160.716,155.832 160.932,155.148 L159.078,155.148 L159.078,167.298 C159.078,168.18 159.114,168.936 159.168,169.476 L157.134,169.476 C157.206,168.846 157.242,168.036 157.242,167.244 L157.242,155.022 C157.242,154.41 157.224,153.906 157.188,153.348 C157.44,153.384 157.8,153.402 158.448,153.402 L161.094,153.402 C161.724,153.402 161.994,153.384 162.318,153.33 L163.02,154.374 C162.912,154.59 162.912,154.59 162.678,155.328 C163.11,155.382 163.506,155.4 164.028,155.4 L164.928,155.4 C164.514,154.572 164.208,154.086 163.614,153.294 L165.504,152.79 C166.116,153.708 166.53,154.428 166.98,155.4 L168.366,155.4 C168.924,154.5 169.266,153.834 169.662,152.772 L171.588,153.258 C171.066,154.32 170.778,154.806 170.382,155.4 L171.732,155.4 C172.578,155.4 173.028,155.382 173.406,155.31 L173.406,157.236 C172.812,157.164 172.29,157.146 171.642,157.146 L170.04,157.146 C170.148,158.136 170.274,158.784 170.58,159.9 C171.102,159.306 171.462,158.784 171.75,158.172 L173.478,159.234 C173.244,159.522 173.244,159.522 173.064,159.756 C172.434,160.602 171.984,161.106 171.228,161.79 C172.074,163.752 172.704,164.742 173.856,165.894 C173.424,166.56 173.118,167.244 172.884,168.09 C171.858,166.992 171.39,166.308 170.67,164.922 C169.482,162.636 168.654,160.062 168.186,157.146 Z M162.606,157.218 L162.606,155.526 C162.174,156.696 161.598,157.992 161.094,158.928 C162.066,160.368 162.354,160.998 162.57,162.294 C164.046,161.646 165.018,161.088 166.134,160.206 C165.9,159.792 165.846,159.702 165.54,159.27 C164.478,160.008 163.974,160.296 162.75,160.908 C162.516,160.224 162.282,159.756 161.958,159.324 C163.794,158.55 164.622,158.046 165.54,157.146 L164.154,157.146 C163.506,157.146 163.092,157.164 162.606,157.218 Z" id="ブレーメンの音楽隊" fill="#176ED3"></path>
                <path d="M15.078,198.892 L13.386,198.892 C13.494,198.244 13.53,197.722 13.53,196.876 L13.53,187.21 C13.53,186.472 13.494,185.914 13.386,185.158 C14.034,185.194 14.538,185.212 15.366,185.212 L19.038,185.212 C21.81,185.212 23.376,186.634 23.376,189.136 C23.376,191.782 21.756,193.312 18.948,193.312 L14.934,193.312 L14.934,196.858 C14.934,197.722 14.97,198.28 15.078,198.892 Z M14.934,192.07 L18.948,192.07 C20.856,192.07 21.936,191.044 21.936,189.208 C21.936,187.408 20.892,186.454 18.948,186.454 L14.934,186.454 L14.934,192.07 Z M25.446,196.804 L25.446,187.21 C25.446,186.436 25.41,185.914 25.302,185.158 C25.932,185.194 26.418,185.212 27.282,185.212 L30.324,185.212 C34.338,185.212 36.624,187.66 36.624,191.962 C36.624,194.212 35.94,196.084 34.698,197.29 C33.618,198.352 32.124,198.892 30.324,198.892 L27.282,198.892 C26.418,198.892 25.932,198.91 25.302,198.946 C25.41,198.244 25.446,197.704 25.446,196.804 Z M26.85,197.632 L30.288,197.632 C31.71,197.632 32.844,197.218 33.654,196.354 C34.644,195.346 35.166,193.816 35.166,191.962 C35.166,190.09 34.698,188.65 33.744,187.696 C32.952,186.868 31.836,186.472 30.36,186.472 L26.85,186.472 L26.85,197.632 Z M40.512,192.394 L40.512,196.786 C40.512,197.758 40.548,198.244 40.656,198.892 L38.946,198.892 C39.054,198.28 39.09,197.722 39.09,196.786 L39.09,187.21 C39.09,186.436 39.054,185.86 38.946,185.158 C39.576,185.194 40.062,185.212 40.926,185.212 L45.696,185.212 C46.578,185.212 47.082,185.176 47.766,185.086 L47.766,186.616 C47.172,186.526 46.65,186.49 45.696,186.49 L40.512,186.49 L40.512,191.134 L44.724,191.134 C45.588,191.134 46.11,191.098 46.776,191.008 L46.776,192.52 C46.182,192.43 45.66,192.394 44.724,192.394 L40.512,192.394 Z" id="PDF" fill="#176ED3"></path>
                <path d="M14.862,227.892 L13.278,227.892 C13.368,227.244 13.404,226.704 13.404,225.858 L13.404,220.224 C13.404,219.324 13.368,218.838 13.278,218.19 L14.736,218.19 L14.736,219.18 C14.736,219.27 14.718,219.486 14.7,219.828 C14.862,219.522 15.024,219.306 15.384,218.928 C15.996,218.316 16.878,217.992 17.922,217.992 C18.948,217.992 19.704,218.298 20.244,218.91 C20.514,219.198 20.622,219.414 20.802,219.954 C21.648,218.568 22.62,217.992 24.132,217.992 C25.32,217.992 26.22,218.37 26.76,219.09 C27.192,219.666 27.372,220.368 27.372,221.43 L27.372,225.876 C27.372,226.776 27.408,227.262 27.498,227.892 L25.878,227.892 C25.986,227.226 26.004,226.812 26.004,225.858 L26.004,221.61 C26.004,219.9 25.374,219.162 23.934,219.162 C23.034,219.162 22.188,219.648 21.666,220.476 C21.324,220.998 21.072,221.79 21.072,222.33 L21.072,225.876 C21.072,226.776 21.108,227.28 21.198,227.892 L19.578,227.892 C19.668,227.244 19.704,226.776 19.704,225.858 L19.704,221.61 C19.704,220.026 18.984,219.162 17.688,219.162 C16.752,219.162 15.888,219.666 15.33,220.53 C15.006,221.016 14.736,221.862 14.736,222.33 L14.736,225.858 C14.736,226.686 14.772,227.172 14.862,227.892 Z M31.62,231.672 L30.036,231.672 C30.126,230.97 30.162,230.394 30.162,229.656 L30.162,220.26 C30.162,219.396 30.126,218.874 30.036,218.19 L31.476,218.19 L31.476,219.216 C31.476,219.45 31.458,219.648 31.422,219.954 C32.232,218.676 33.492,218.01 35.094,218.01 C37.866,218.01 39.558,219.9 39.558,223.032 C39.558,226.092 37.83,228.054 35.13,228.054 C33.546,228.054 32.268,227.388 31.422,226.146 C31.476,226.65 31.494,226.92 31.494,227.406 L31.494,229.638 C31.494,230.484 31.53,231.006 31.62,231.672 Z M35.004,226.884 C36.966,226.884 38.154,225.426 38.154,223.032 C38.154,220.584 37.002,219.18 34.986,219.18 C32.916,219.18 31.512,220.728 31.512,223.05 C31.512,224.22 31.89,225.3 32.538,225.93 C33.168,226.542 34.068,226.884 35.004,226.884 Z M41.214,224.94 L42.726,224.562 C43.014,225.498 43.266,225.876 43.824,226.272 C44.436,226.704 45.228,226.92 46.146,226.92 C48.234,226.92 49.548,225.84 49.548,224.13 C49.548,222.348 48.27,221.376 45.876,221.376 C45.372,221.376 44.922,221.412 44.436,221.466 L44.436,220.044 C44.85,220.116 45.282,220.152 45.768,220.152 C46.956,220.152 47.838,219.882 48.396,219.324 C48.846,218.892 49.116,218.226 49.116,217.578 C49.116,216.03 48.036,215.13 46.218,215.13 C45.12,215.13 44.328,215.436 43.824,216.084 C43.572,216.408 43.446,216.696 43.248,217.362 L41.754,217.038 C42.06,216.12 42.276,215.706 42.726,215.238 C43.518,214.374 44.742,213.924 46.308,213.924 C48.918,213.924 50.574,215.292 50.574,217.452 C50.574,218.55 50.106,219.522 49.314,220.08 C48.846,220.422 48.45,220.566 47.622,220.728 C48.666,220.836 49.224,221.034 49.836,221.502 C50.628,222.114 51.042,223.068 51.042,224.22 C51.042,226.65 49.17,228.162 46.164,228.162 C44.346,228.162 42.996,227.658 42.132,226.686 C41.754,226.254 41.538,225.858 41.214,224.94 Z" id="mp3" fill="#176ED3"></path>
                <path d="M9,17.17 L0.9,3.04 L17.118,3.04 L9,17.17 Z M32.688,4.192 L33.174,4.84 C33.066,5.002 33.03,5.074 32.796,5.956 C31.824,9.286 30.492,11.536 28.386,13.426 C26.694,14.956 25.002,15.964 22.734,16.81 C22.482,16.252 22.284,16 21.852,15.568 C24.264,14.902 26.82,13.318 28.44,11.482 C29.916,9.808 30.96,7.702 31.59,5.074 L22.428,5.074 C21.384,5.074 20.952,5.11 20.412,5.182 L20.412,3.742 C21.06,3.832 21.474,3.85 22.446,3.85 L31.14,3.85 C31.518,3.85 31.752,3.85 32.202,3.832 C31.464,2.554 31.158,2.122 30.51,1.384 L31.41,0.916 C32.328,2.014 32.994,2.986 33.354,3.796 L32.688,4.192 Z M32.85,0.772 L33.732,0.286 C34.542,1.258 34.992,1.924 35.622,3.058 L34.704,3.598 C34.326,2.752 33.57,1.618 32.85,0.772 Z M40.032,3.76 L40.032,2.374 C40.554,2.482 40.914,2.5 41.922,2.5 L47.934,2.5 C48.942,2.5 49.302,2.482 49.824,2.374 L49.824,3.76 C49.338,3.688 48.906,3.67 47.952,3.67 L41.904,3.67 C40.95,3.67 40.518,3.688 40.032,3.76 Z M38.484,7.9 L38.484,6.55 C39.132,6.64 39.51,6.658 40.59,6.658 L49.824,6.658 C50.49,6.658 50.688,6.64 50.994,6.532 L51.66,7.306 C51.498,7.558 51.462,7.648 51.156,8.44 C49.626,12.634 47.142,14.938 42.48,16.504 C42.264,15.982 42.138,15.784 41.706,15.262 C44.118,14.578 45.702,13.768 47.052,12.526 C48.33,11.356 49.14,10.024 49.968,7.81 L40.572,7.81 C39.618,7.81 39.096,7.828 38.484,7.9 Z M63.576,4.516 L67.374,4.516 C68.49,4.516 68.562,4.516 68.886,4.408 L69.624,5.11 C69.462,5.398 69.462,5.398 69.228,6.928 C68.796,9.646 67.698,11.86 65.97,13.498 C64.602,14.776 62.856,15.766 60.696,16.486 C60.444,15.946 60.336,15.766 59.868,15.262 C61.578,14.812 62.64,14.326 63.846,13.516 C66.366,11.77 67.68,9.304 68.022,5.65 L58.194,5.65 L58.194,8.35 C58.194,8.926 58.212,9.34 58.248,9.682 L56.772,9.682 C56.808,9.376 56.844,8.8 56.844,8.332 L56.844,5.902 C56.844,5.344 56.826,4.876 56.772,4.444 C57.33,4.498 57.744,4.516 58.428,4.516 L62.244,4.516 L62.244,2.698 C62.244,2.176 62.226,1.978 62.154,1.546 L63.666,1.546 C63.612,1.888 63.576,2.248 63.576,2.68 L63.576,4.516 Z M78.084,5.56 L83.574,5.56 L83.574,3.796 C83.574,2.536 83.574,2.374 83.52,1.96 L84.924,1.96 C84.87,2.464 84.87,2.482 84.852,3.67 L84.852,5.56 L86.4,5.56 C87.534,5.56 87.894,5.542 88.506,5.452 L88.506,6.82 C87.93,6.748 87.57,6.73 86.418,6.73 L84.834,6.73 C84.816,10.204 84.618,11.536 83.952,12.832 C82.98,14.632 81.36,15.892 78.93,16.72 C78.714,16.252 78.534,15.982 78.12,15.586 C80.478,14.992 82.296,13.588 83.016,11.77 C83.412,10.69 83.52,9.61 83.556,6.73 L78.084,6.73 L78.084,9.736 C78.084,10.528 78.102,10.78 78.156,11.194 L76.698,11.194 C76.752,10.816 76.77,10.636 76.77,9.682 L76.77,6.73 L75.258,6.73 C74.106,6.73 73.746,6.748 73.17,6.82 L73.17,5.452 C73.782,5.542 74.142,5.56 75.276,5.56 L76.77,5.56 L76.77,3.472 C76.77,2.518 76.752,2.356 76.698,1.96 L78.156,1.96 C78.102,2.392 78.084,2.626 78.084,3.418 L78.084,5.56 Z M85.608,1.096 L86.562,0.826 C87.138,1.87 87.426,2.5 87.84,3.778 L86.886,4.102 C86.454,2.77 86.094,1.906 85.608,1.096 Z M87.714,0.538 L88.632,0.232 C89.172,1.168 89.622,2.194 89.91,3.166 L88.974,3.49 C88.632,2.392 88.146,1.24 87.714,0.538 Z" id="▼ブラウザ" fill="#333333"></path>
            </g>
            <g id="Group-2" transform="translate(275.000000, 48.000000)">
                <g id="Rectangle-3-Copy">
                    <use fill="#FFFFFF" fill-rule="evenodd" xlink:href="#path-2"></use>
                    <rect stroke="#CCCCCC" stroke-width="1" x="0.5" y="26.5" width="199" height="372"></rect>
                </g>
                <path d="M20,82.608 C20.72,82.608 21.312,83.2 21.312,83.92 C21.312,84.64 20.72,85.232 20,85.232 C19.28,85.232 18.688,84.64 18.688,83.92 C18.688,83.2 19.28,82.608 20,82.608 Z M31.76,80.496 L34.752,80.496 C34.816,79.664 34.848,78.784 34.848,78.08 C34.848,77.728 34.832,77.536 34.784,77.264 L36.08,77.28 C36.016,77.616 36.016,77.76 35.952,79.344 C35.92,79.904 35.904,80.08 35.872,80.48 L39.872,80.464 C40.576,80.464 40.608,80.464 40.928,80.352 L41.52,80.88 C41.44,81.088 41.408,81.264 41.392,81.824 C41.344,83.92 41.152,86.32 40.944,87.424 C40.544,89.616 40.064,90.192 38.624,90.192 C38.112,90.192 37.488,90.112 36.64,89.92 L36.64,89.728 C36.64,89.36 36.608,89.136 36.464,88.736 C37.328,89.008 38,89.136 38.528,89.136 C39.312,89.136 39.568,88.752 39.872,87.168 C40.112,85.904 40.256,83.856 40.272,81.488 L35.792,81.504 C35.616,83.44 35.216,84.88 34.512,86.224 C33.696,87.776 31.968,89.52 30.32,90.464 C30.048,90.032 29.888,89.856 29.504,89.52 C32.592,87.872 34.352,85.136 34.656,81.504 L31.744,81.52 C30.832,81.52 30.592,81.536 30.048,81.6 L30.032,80.384 C30.544,80.48 30.864,80.496 31.76,80.496 Z M39.664,77.376 L40.464,76.96 C41.168,77.824 41.616,78.496 42.096,79.44 L41.296,79.92 C40.896,79.072 40.128,77.872 39.664,77.376 Z M41.472,76.512 L42.256,76.08 C42.992,76.96 43.392,77.568 43.92,78.576 L43.12,79.024 C42.768,78.272 42.096,77.248 41.472,76.512 Z M47.76,77.648 L49.088,77.648 C49.04,78.032 49.024,78.24 49.024,78.976 L49.024,83.28 C49.024,84.048 49.04,84.224 49.088,84.608 L47.76,84.608 C47.808,84.24 47.824,83.904 47.824,83.264 L47.824,78.992 C47.824,78.304 47.808,78.032 47.76,77.648 Z M54.832,77.648 L56.176,77.648 C56.112,78.016 56.096,78.272 56.096,79.04 L56.096,80.928 C56.096,83.472 55.984,84.88 55.696,85.808 C55.232,87.312 54.224,88.48 52.656,89.36 C51.872,89.808 51.104,90.112 49.744,90.512 C49.568,90.048 49.472,89.888 49.072,89.408 C50.512,89.088 51.28,88.816 52.112,88.32 C53.6,87.456 54.368,86.432 54.672,84.944 C54.848,84.032 54.896,83.296 54.896,80.864 L54.896,79.056 C54.896,78.224 54.88,78 54.832,77.648 Z M64.832,78.368 L66.176,78.608 C66.112,78.784 66.096,78.88 65.968,79.696 C65.296,84.256 64,87.328 61.744,89.68 C61.344,89.248 61.168,89.104 60.72,88.848 C61.712,87.92 62.368,87.024 63.04,85.68 C63.824,84.096 64.384,82.224 64.688,80.128 C64.784,79.488 64.848,78.912 64.848,78.624 C64.848,78.576 64.848,78.48 64.832,78.368 Z M69.424,78.608 L70.608,78.368 C70.608,79.056 70.96,80.896 71.344,82.208 C72.112,85.024 73.424,87.392 74.976,88.816 C74.544,89.088 74.352,89.264 73.984,89.712 C71.856,87.456 70.256,83.76 69.632,79.664 C69.552,79.104 69.488,78.816 69.424,78.608 Z M71.504,77.92 L72.304,77.52 C73.008,78.4 73.456,79.088 73.904,80.032 L73.088,80.496 C72.72,79.648 71.952,78.416 71.504,77.92 Z M73.344,77.104 L74.128,76.688 C74.832,77.568 75.232,78.208 75.728,79.216 L74.928,79.648 C74.592,78.88 73.952,77.856 73.344,77.104 Z M77.392,84.512 L77.392,83.2 C77.856,83.28 78.288,83.296 79.376,83.296 L88.672,83.296 C89.856,83.296 90.112,83.28 90.608,83.216 L90.608,84.512 C90.096,84.464 89.728,84.448 88.656,84.448 L79.376,84.448 C78.208,84.448 77.872,84.464 77.392,84.512 Z M106.304,82.416 L107.04,83.136 C106.08,84.128 105.36,84.752 104.304,85.488 C104.56,86.144 104.896,86.848 105.248,87.408 C105.84,88.4 106.416,89.04 107.456,89.92 C107.152,90.24 107.008,90.464 106.784,90.928 C105.152,89.376 104.32,88.176 103.552,86.208 C103.136,85.136 102.896,84.128 102.672,82.624 C102.272,82.864 102.08,82.976 101.696,83.184 L101.696,89.424 C101.696,90.08 101.728,90.592 101.792,91.056 L100.624,91.056 C100.688,90.64 100.72,90.176 100.72,89.424 L100.72,83.68 C100.176,83.936 99.968,84.032 99.424,84.272 C99.28,83.872 99.184,83.712 98.912,83.36 C100.432,82.848 101.504,82.32 102.832,81.408 C103.664,80.864 104.384,80.256 104.688,79.872 L105.52,80.576 C105.28,80.72 105.248,80.752 104.784,81.136 C104.416,81.44 103.888,81.824 103.504,82.096 C103.68,83.344 103.744,83.648 104,84.576 C104.944,83.984 105.6,83.36 106.304,82.416 Z M95.728,79.296 L95.728,78.208 C95.728,77.6 95.696,77.184 95.632,76.72 L96.816,76.72 C96.752,77.184 96.72,77.584 96.72,78.208 L96.72,79.296 L97.648,79.296 C98.224,79.296 98.64,79.28 99.088,79.216 L99.088,80.256 C98.704,80.208 98.304,80.192 97.648,80.192 L95.568,80.192 C95.552,80.496 95.552,80.736 95.552,80.88 C95.552,81.216 95.52,81.696 95.488,82.336 L97.328,82.336 C98.016,82.336 98.208,82.336 98.512,82.304 C98.464,82.72 98.464,82.72 98.448,84.4 C98.416,86.4 98.288,88.048 98.08,89.248 C97.856,90.416 97.52,90.704 96.4,90.704 C96.016,90.704 95.728,90.688 95.2,90.624 C95.168,90.128 95.12,89.856 95.024,89.6 C95.472,89.696 95.968,89.76 96.384,89.76 C96.96,89.76 97.072,89.584 97.216,88.432 C97.392,87.104 97.456,85.776 97.472,83.232 L95.456,83.232 C95.296,85.712 95.248,86.16 95.008,87.28 C94.704,88.688 94.128,89.92 93.248,91.072 C92.96,90.656 92.816,90.496 92.496,90.24 C94.112,88.176 94.48,86.432 94.592,80.192 L94.32,80.192 C93.6,80.192 93.216,80.208 92.816,80.272 L92.816,79.2 C93.232,79.264 93.696,79.296 94.368,79.296 L95.728,79.296 Z M105.568,79.648 L100.864,79.648 C100.272,80.704 99.856,81.28 98.976,82.288 C98.72,82.016 98.528,81.888 98.128,81.712 C99.056,80.752 99.536,80.128 100.064,79.136 C100.56,78.256 100.896,77.36 100.976,76.784 L102.064,77.024 C101.984,77.2 101.936,77.296 101.808,77.616 C101.6,78.144 101.504,78.384 101.344,78.736 L105.536,78.736 C106.304,78.736 106.8,78.704 107.168,78.64 L107.168,79.712 C106.704,79.664 106.24,79.648 105.568,79.648 Z M119.44,82.608 L115.792,82.608 C115.04,82.608 114.4,82.64 114.016,82.704 L114.016,81.584 C114.4,81.648 115.024,81.68 115.792,81.68 L121.408,81.68 C122.224,81.68 122.8,81.648 123.168,81.584 L123.168,82.704 C122.752,82.64 122.16,82.608 121.424,82.608 L120.512,82.608 L120.512,89.616 C120.512,90.64 120.128,90.912 118.72,90.912 C118.208,90.912 117.456,90.88 116.768,90.832 C116.72,90.384 116.656,90.096 116.512,89.728 C117.424,89.856 118.112,89.92 118.768,89.92 C119.312,89.92 119.44,89.856 119.44,89.536 L119.44,82.608 Z M112.48,76.688 L113.472,77.296 C113.36,77.408 113.328,77.456 113.184,77.648 C112.224,78.96 111.072,80.08 109.632,81.12 C109.392,80.768 109.216,80.576 108.912,80.336 C109.808,79.76 110.384,79.296 111.024,78.64 C111.824,77.84 112.224,77.28 112.48,76.688 Z M114.672,78.688 L114.672,77.568 C115.104,77.632 115.616,77.664 116.336,77.664 L120.816,77.664 C121.536,77.664 122.016,77.632 122.464,77.568 L122.464,78.688 C121.984,78.624 121.456,78.592 120.816,78.592 L116.336,78.592 C115.696,78.592 115.152,78.624 114.672,78.688 Z M111.264,89.216 L111.264,85.632 C111.264,84.944 111.28,84.48 111.312,83.712 C110.736,84.448 110.272,84.896 109.488,85.504 C109.296,85.104 109.12,84.848 108.864,84.592 C110.112,83.744 111.136,82.736 112.096,81.44 C112.464,80.944 112.704,80.496 112.864,80.064 L113.856,80.624 C113.664,80.864 113.616,80.944 113.376,81.312 C113.04,81.856 112.752,82.224 112.304,82.752 L112.304,89.216 C112.304,90.08 112.336,90.72 112.416,91.168 L111.152,91.168 C111.232,90.72 111.264,90.064 111.264,89.216 Z M125.52,78.272 L125.52,77.264 C125.904,77.328 126.16,77.344 126.736,77.344 L129.248,77.344 C129.824,77.344 130.064,77.328 130.464,77.264 L130.464,78.272 C130.112,78.224 129.76,78.208 129.248,78.208 L126.736,78.208 C126.224,78.208 125.904,78.224 125.52,78.272 Z M124.96,80.528 L124.96,79.488 C125.328,79.552 125.632,79.568 126.24,79.568 L129.824,79.568 C130.48,79.568 130.768,79.552 131.104,79.488 L131.104,80.528 C130.784,80.48 130.512,80.464 129.936,80.464 L126.24,80.464 C125.68,80.464 125.344,80.48 124.96,80.528 Z M125.584,82.768 L125.584,81.776 C125.92,81.824 126.176,81.84 126.736,81.84 L129.392,81.84 C129.936,81.84 130.224,81.824 130.528,81.776 L130.528,82.768 C130.144,82.72 129.904,82.704 129.392,82.704 L126.736,82.704 C126.208,82.704 125.92,82.72 125.584,82.768 Z M125.584,84.96 L125.584,83.968 C125.92,84.016 126.176,84.032 126.736,84.032 L129.392,84.032 C129.952,84.032 130.208,84.016 130.528,83.968 L130.528,84.96 C130.096,84.912 129.904,84.896 129.392,84.896 L126.736,84.896 C126.224,84.896 125.92,84.912 125.584,84.96 Z M126.704,91.264 L125.664,91.264 C125.728,90.8 125.76,90.368 125.76,89.712 L125.76,87.552 C125.76,87.008 125.744,86.64 125.68,86.224 C126.096,86.272 126.464,86.288 126.96,86.288 L129.392,86.288 C130.08,86.288 130.256,86.288 130.544,86.24 C130.512,86.592 130.496,86.896 130.496,87.488 L130.496,89.792 C130.496,90.24 130.528,90.672 130.576,91.056 L129.584,91.056 L129.584,90.256 L126.704,90.256 L126.704,91.264 Z M126.688,87.104 L126.688,89.424 L129.584,89.424 L129.584,87.104 L126.688,87.104 Z M132.896,83.408 L132.896,89.12 C132.896,89.44 132.976,89.536 133.312,89.616 C133.584,89.68 134.272,89.712 135.184,89.712 C136.848,89.712 137.376,89.632 137.68,89.344 C137.92,89.088 138.08,88.272 138.16,86.752 C138.512,86.96 138.912,87.152 139.232,87.232 C139.056,88.784 138.864,89.6 138.528,90.032 C138.144,90.544 137.36,90.688 135.136,90.688 C133.76,90.688 132.992,90.624 132.512,90.496 C132.016,90.336 131.84,90.064 131.84,89.344 L131.84,83.968 C131.84,83.216 131.824,82.88 131.76,82.432 C132.224,82.48 132.656,82.496 133.312,82.496 L137.328,82.496 L137.328,78.384 L132.992,78.384 C132.336,78.384 131.952,78.4 131.52,78.464 L131.52,77.344 C131.968,77.408 132.432,77.44 132.992,77.44 L136.864,77.44 C137.536,77.44 137.92,77.424 138.384,77.376 C138.352,77.792 138.336,78.064 138.336,78.944 L138.336,81.984 C138.336,82.624 138.352,83.04 138.4,83.472 C137.904,83.424 137.504,83.408 136.832,83.408 L132.896,83.408 Z" id="・ガリバー旅行記" fill="#333333"></path>
                <path d="M20,110.608 C20.72,110.608 21.312,111.2 21.312,111.92 C21.312,112.64 20.72,113.232 20,113.232 C19.28,113.232 18.688,112.64 18.688,111.92 C18.688,111.2 19.28,110.608 20,110.608 Z M30.736,117.904 L29.232,117.904 C29.328,117.328 29.36,116.864 29.36,116.112 L29.36,107.52 C29.36,106.864 29.328,106.368 29.232,105.696 C29.808,105.728 30.256,105.744 30.992,105.744 L34.256,105.744 C36.72,105.744 38.112,107.008 38.112,109.232 C38.112,111.584 36.672,112.944 34.176,112.944 L30.608,112.944 L30.608,116.096 C30.608,116.864 30.64,117.36 30.736,117.904 Z M30.608,111.84 L34.176,111.84 C35.872,111.84 36.832,110.928 36.832,109.296 C36.832,107.696 35.904,106.848 34.176,106.848 L30.608,106.848 L30.608,111.84 Z M39.952,116.048 L39.952,107.52 C39.952,106.832 39.92,106.368 39.824,105.696 C40.384,105.728 40.816,105.744 41.584,105.744 L44.288,105.744 C47.856,105.744 49.888,107.92 49.888,111.744 C49.888,113.744 49.28,115.408 48.176,116.48 C47.216,117.424 45.888,117.904 44.288,117.904 L41.584,117.904 C40.816,117.904 40.384,117.92 39.824,117.952 C39.92,117.328 39.952,116.848 39.952,116.048 Z M41.2,116.784 L44.256,116.784 C45.52,116.784 46.528,116.416 47.248,115.648 C48.128,114.752 48.592,113.392 48.592,111.744 C48.592,110.08 48.176,108.8 47.328,107.952 C46.624,107.216 45.632,106.864 44.32,106.864 L41.2,106.864 L41.2,116.784 Z M53.344,112.128 L53.344,116.032 C53.344,116.896 53.376,117.328 53.472,117.904 L51.952,117.904 C52.048,117.36 52.08,116.864 52.08,116.032 L52.08,107.52 C52.08,106.832 52.048,106.32 51.952,105.696 C52.512,105.728 52.944,105.744 53.712,105.744 L57.952,105.744 C58.736,105.744 59.184,105.712 59.792,105.632 L59.792,106.992 C59.264,106.912 58.8,106.88 57.952,106.88 L53.344,106.88 L53.344,111.008 L57.088,111.008 C57.856,111.008 58.32,110.976 58.912,110.896 L58.912,112.24 C58.384,112.16 57.92,112.128 57.088,112.128 L53.344,112.128 Z" id="・PDF" fill="#333333"></path>
                <path d="M20,138.608 C20.72,138.608 21.312,139.2 21.312,139.92 C21.312,140.64 20.72,141.232 20,141.232 C19.28,141.232 18.688,140.64 18.688,139.92 C18.688,139.2 19.28,138.608 20,138.608 Z M30.544,145.904 L29.136,145.904 C29.216,145.328 29.248,144.848 29.248,144.096 L29.248,139.088 C29.248,138.288 29.216,137.856 29.136,137.28 L30.432,137.28 L30.432,138.16 C30.432,138.24 30.416,138.432 30.4,138.736 C30.544,138.464 30.688,138.272 31.008,137.936 C31.552,137.392 32.336,137.104 33.264,137.104 C34.176,137.104 34.848,137.376 35.328,137.92 C35.568,138.176 35.664,138.368 35.824,138.848 C36.576,137.616 37.44,137.104 38.784,137.104 C39.84,137.104 40.64,137.44 41.12,138.08 C41.504,138.592 41.664,139.216 41.664,140.16 L41.664,144.112 C41.664,144.912 41.696,145.344 41.776,145.904 L40.336,145.904 C40.432,145.312 40.448,144.944 40.448,144.096 L40.448,140.32 C40.448,138.8 39.888,138.144 38.608,138.144 C37.808,138.144 37.056,138.576 36.592,139.312 C36.288,139.776 36.064,140.48 36.064,140.96 L36.064,144.112 C36.064,144.912 36.096,145.36 36.176,145.904 L34.736,145.904 C34.816,145.328 34.848,144.912 34.848,144.096 L34.848,140.32 C34.848,138.912 34.208,138.144 33.056,138.144 C32.224,138.144 31.456,138.592 30.96,139.36 C30.672,139.792 30.432,140.544 30.432,140.96 L30.432,144.096 C30.432,144.832 30.464,145.264 30.544,145.904 Z M45.44,149.264 L44.032,149.264 C44.112,148.64 44.144,148.128 44.144,147.472 L44.144,139.12 C44.144,138.352 44.112,137.888 44.032,137.28 L45.312,137.28 L45.312,138.192 C45.312,138.4 45.296,138.576 45.264,138.848 C45.984,137.712 47.104,137.12 48.528,137.12 C50.992,137.12 52.496,138.8 52.496,141.584 C52.496,144.304 50.96,146.048 48.56,146.048 C47.152,146.048 46.016,145.456 45.264,144.352 C45.312,144.8 45.328,145.04 45.328,145.472 L45.328,147.456 C45.328,148.208 45.36,148.672 45.44,149.264 Z M48.448,145.008 C50.192,145.008 51.248,143.712 51.248,141.584 C51.248,139.408 50.224,138.16 48.432,138.16 C46.592,138.16 45.344,139.536 45.344,141.6 C45.344,142.64 45.68,143.6 46.256,144.16 C46.816,144.704 47.616,145.008 48.448,145.008 Z M53.968,143.28 L55.312,142.944 C55.568,143.776 55.792,144.112 56.288,144.464 C56.832,144.848 57.536,145.04 58.352,145.04 C60.208,145.04 61.376,144.08 61.376,142.56 C61.376,140.976 60.24,140.112 58.112,140.112 C57.664,140.112 57.264,140.144 56.832,140.192 L56.832,138.928 C57.2,138.992 57.584,139.024 58.016,139.024 C59.072,139.024 59.856,138.784 60.352,138.288 C60.752,137.904 60.992,137.312 60.992,136.736 C60.992,135.36 60.032,134.56 58.416,134.56 C57.44,134.56 56.736,134.832 56.288,135.408 C56.064,135.696 55.952,135.952 55.776,136.544 L54.448,136.256 C54.72,135.44 54.912,135.072 55.312,134.656 C56.016,133.888 57.104,133.488 58.496,133.488 C60.816,133.488 62.288,134.704 62.288,136.624 C62.288,137.6 61.872,138.464 61.168,138.96 C60.752,139.264 60.4,139.392 59.664,139.536 C60.592,139.632 61.088,139.808 61.632,140.224 C62.336,140.768 62.704,141.616 62.704,142.64 C62.704,144.8 61.04,146.144 58.368,146.144 C56.752,146.144 55.552,145.696 54.784,144.832 C54.448,144.448 54.256,144.096 53.968,143.28 Z" id="・mp3" fill="#333333"></path>
                <path d="M20,166.608 C20.72,166.608 21.312,167.2 21.312,167.92 C21.312,168.64 20.72,169.232 20,169.232 C19.28,169.232 18.688,168.64 18.688,167.92 C18.688,167.2 19.28,166.608 20,166.608 Z M41.056,163.504 L41.488,164.08 C41.392,164.224 41.36,164.288 41.152,165.072 C40.288,168.032 39.104,170.032 37.232,171.712 C35.728,173.072 34.224,173.968 32.208,174.72 C31.984,174.224 31.808,174 31.424,173.616 C33.568,173.024 35.84,171.616 37.28,169.984 C38.592,168.496 39.52,166.624 40.08,164.288 L31.936,164.288 C31.008,164.288 30.624,164.32 30.144,164.384 L30.144,163.104 C30.72,163.184 31.088,163.2 31.952,163.2 L39.68,163.2 C40.016,163.2 40.224,163.2 40.624,163.184 C39.968,162.048 39.696,161.664 39.12,161.008 L39.92,160.592 C40.736,161.568 41.328,162.432 41.648,163.152 L41.056,163.504 Z M41.2,160.464 L41.984,160.032 C42.704,160.896 43.104,161.488 43.664,162.496 L42.848,162.976 C42.512,162.224 41.84,161.216 41.2,160.464 Z M47.648,161.712 L49.008,161.712 C48.96,162.048 48.928,162.464 48.928,163.136 L48.88,172.784 C50.72,172.48 52.176,171.984 53.456,171.184 C55.056,170.192 56.128,169.04 57.056,167.344 C57.456,167.904 57.552,168.032 57.936,168.352 C55.744,171.616 53.392,173.104 49.12,173.936 C48.496,174.064 48.416,174.08 48.192,174.176 L47.552,173.376 C47.632,173.104 47.664,172.928 47.664,172.336 L47.696,163.168 L47.696,162.576 C47.696,162.256 47.68,162.064 47.648,161.712 Z M61.392,168.512 L61.392,167.2 C61.856,167.28 62.288,167.296 63.376,167.296 L72.672,167.296 C73.856,167.296 74.112,167.28 74.608,167.216 L74.608,168.512 C74.096,168.464 73.728,168.448 72.656,168.448 L63.376,168.448 C62.208,168.448 61.872,168.464 61.392,168.512 Z M87.072,161.568 L88.416,162.08 C88.208,162.384 88.144,162.528 87.92,163.056 C86.88,165.504 86.384,166.48 85.568,167.728 C86.944,168.864 87.968,169.84 89.248,171.168 L88.352,172.16 C87.504,171.072 86.48,170.048 84.864,168.688 C83.184,170.992 81.232,172.672 78.432,174.256 C78.144,173.776 78.016,173.632 77.6,173.296 C80.16,172.048 82.208,170.32 83.968,167.952 C82.512,166.784 81.008,165.792 79.664,165.056 L80.464,164.208 C82.032,165.152 82.832,165.68 84.624,166.992 C85.376,165.808 85.952,164.656 86.512,163.264 C86.912,162.288 86.992,162.032 87.072,161.568 Z M94.496,163.552 L95.28,162.688 C96.992,163.776 97.984,164.56 99.136,165.696 L98.304,166.688 C97.152,165.44 95.888,164.4 94.496,163.552 Z M94.608,173.952 L94.256,172.608 C95.504,172.56 97.424,172.064 98.912,171.376 C102,170 104.144,167.648 105.44,164.256 C105.808,164.752 105.968,164.896 106.416,165.2 C105.136,167.984 103.648,169.856 101.536,171.312 C99.888,172.432 98.24,173.088 95.568,173.696 C95.136,173.792 95.008,173.824 94.608,173.952 Z M116.864,163.392 C116.624,165.616 116.016,168.064 115.296,169.744 C114.368,171.856 113.424,172.816 112.272,172.816 C110.752,172.816 109.616,171.152 109.616,168.912 C109.616,167.28 110.224,165.696 111.296,164.496 C112.576,163.088 114.32,162.368 116.464,162.368 C118.256,162.368 119.824,162.928 120.864,163.952 C121.872,164.928 122.416,166.32 122.416,167.856 C122.416,170.336 121.072,172.384 118.752,173.376 C118.032,173.68 117.424,173.872 116.32,174.112 C116.16,173.584 116.064,173.424 115.76,173.04 C116.928,172.848 117.68,172.64 118.432,172.288 C120.192,171.488 121.264,169.776 121.264,167.808 C121.264,165.984 120.336,164.512 118.72,163.792 C118.128,163.536 117.664,163.424 116.864,163.392 Z M115.712,163.408 C114.752,163.488 114.064,163.712 113.328,164.16 C111.712,165.136 110.72,166.944 110.72,168.928 C110.72,170.464 111.392,171.648 112.256,171.648 C112.928,171.648 113.568,170.896 114.256,169.328 C114.912,167.824 115.504,165.456 115.712,163.408 Z M131.328,162.144 L131.328,161.648 C131.328,161.28 131.296,160.976 131.232,160.56 L132.448,160.56 C132.384,160.944 132.352,161.248 132.352,161.648 L132.352,162.144 L136.368,162.144 C137.2,162.144 137.68,162.112 138.112,162.048 L138.112,163.104 C137.6,163.056 137.152,163.04 136.448,163.04 L135.648,163.04 C135.12,164.304 134.784,165.008 134.4,165.68 L137.264,165.68 C138.224,165.68 138.736,165.648 139.136,165.584 L139.136,166.672 C138.72,166.608 138.208,166.592 137.264,166.592 L126.8,166.592 C125.856,166.592 125.376,166.608 124.928,166.672 L124.928,165.584 C125.36,165.648 125.888,165.68 126.832,165.68 L129.296,165.68 C129.072,164.88 128.736,164.016 128.224,163.04 L127.392,163.04 C126.736,163.04 126.352,163.056 125.824,163.104 L125.824,162.048 C126.224,162.112 126.672,162.144 127.472,162.144 L131.328,162.144 Z M130.368,165.68 L133.344,165.68 C133.808,164.88 134.192,164.048 134.544,163.04 L129.312,163.04 C129.696,163.824 129.824,164.16 130.368,165.68 Z M128.528,167.872 L135.472,167.872 C136,167.872 136.384,167.856 136.928,167.808 C136.88,168.272 136.864,168.592 136.864,169.056 L136.864,173.776 C136.864,174.32 136.896,174.736 136.96,175.184 L135.84,175.184 L135.84,174.384 L128.144,174.384 L128.144,175.184 L127.056,175.184 C127.12,174.72 127.152,174.304 127.152,173.776 L127.152,169.056 C127.152,168.64 127.136,168.272 127.088,167.808 C127.616,167.856 128,167.872 128.528,167.872 Z M128.144,168.768 L128.144,170.592 L135.84,170.592 L135.84,168.768 L128.144,168.768 Z M128.144,171.488 L128.144,173.488 L135.84,173.488 L135.84,171.488 L128.144,171.488 Z M146.432,162.288 L146.96,162.288 C147.232,161.68 147.376,161.248 147.536,160.576 L148.576,160.768 C148.336,161.376 148.208,161.664 147.92,162.288 L149.52,162.288 C150.032,162.288 150.272,162.272 150.688,162.24 C150.64,162.608 150.64,162.768 150.64,163.472 L150.64,166.864 C150.64,167.536 150.64,167.76 150.688,168.096 C150.368,168.064 149.968,168.048 149.568,168.048 L146.416,168.048 C145.968,168.048 145.552,168.064 145.216,168.096 C145.248,167.728 145.264,167.504 145.264,166.864 L145.264,163.456 C145.264,162.784 145.264,162.64 145.216,162.24 C145.6,162.272 145.872,162.288 146.432,162.288 Z M146.16,163.104 L146.16,164.736 L149.744,164.736 L149.744,163.104 L146.16,163.104 Z M146.16,165.552 L146.16,167.232 L149.744,167.232 L149.744,165.552 L146.16,165.552 Z M153.04,170.528 L148.912,170.528 C149.728,171.344 150.688,172 151.824,172.56 C152.848,173.056 154.176,173.536 155.392,173.84 C155.12,174.128 154.896,174.448 154.72,174.816 C151.712,173.792 150.032,172.8 148.368,171.056 C148.384,171.264 148.384,171.264 148.4,171.712 C148.416,171.904 148.432,172.384 148.432,172.592 L148.432,173.456 C148.432,174.224 148.464,174.656 148.528,175.136 L147.344,175.136 C147.408,174.672 147.44,174.176 147.44,173.456 L147.44,172.592 C147.44,172.336 147.472,171.456 147.504,171.072 C145.968,172.704 144.48,173.616 141.408,174.784 C141.2,174.384 141.056,174.208 140.704,173.856 C143.536,173.04 145.6,171.936 146.976,170.528 L142.96,170.528 C142.096,170.528 141.6,170.56 141.168,170.624 L141.168,169.568 C141.6,169.632 142.08,169.664 142.944,169.664 L147.44,169.664 L147.44,169.552 C147.44,169.072 147.408,168.784 147.36,168.464 L148.512,168.464 C148.448,168.768 148.432,169.056 148.432,169.536 L148.432,169.664 L153.04,169.664 C153.952,169.664 154.416,169.632 154.848,169.568 L154.848,170.624 C154.4,170.56 153.92,170.528 153.04,170.528 Z M141.264,162.368 L141.968,161.664 C143.024,162.512 143.312,162.784 144.336,163.872 L143.616,164.608 C142.608,163.456 142.176,163.056 141.264,162.368 Z M144.544,165.488 L144.784,166.384 C143.696,167.12 143.136,167.44 141.824,168.112 C141.536,168.256 141.456,168.304 141.264,168.416 L140.832,167.424 C141.904,167.088 143.104,166.464 144.544,165.488 Z M153.92,161.568 L154.688,162.24 C153.696,163.36 152.96,164.032 151.904,164.8 L151.248,164.112 C152.464,163.232 153.12,162.608 153.92,161.568 Z M151.008,166.24 L151.536,165.504 C153.088,166.272 154,166.784 155.232,167.568 L154.64,168.368 C153.392,167.488 152.416,166.912 151.008,166.24 Z M165.264,164.08 L162.992,164.08 C162.336,164.08 161.904,164.096 161.504,164.16 L161.504,163.152 C161.968,163.2 162.416,163.232 162.944,163.232 L164.224,163.232 C163.776,162.368 163.424,161.856 162.752,161.04 L163.648,160.672 C164.368,161.616 164.752,162.224 165.264,163.232 L166.912,163.232 C167.584,162.304 167.984,161.6 168.368,160.656 L169.328,161.008 C168.656,162.224 168.384,162.656 167.952,163.232 L169.824,163.232 C170.624,163.232 171.024,163.2 171.36,163.136 L171.36,164.16 C170.864,164.112 170.384,164.08 169.808,164.08 L167.408,164.08 C167.632,165.456 167.856,166.24 168.304,167.424 C169.136,166.688 169.664,166.032 170.128,165.216 L171.008,165.808 C170.912,165.92 170.672,166.208 170.272,166.672 C169.776,167.248 169.36,167.664 168.64,168.272 C169.056,169.184 169.424,169.856 169.952,170.592 C170.56,171.44 170.96,171.888 171.712,172.528 C171.44,172.768 171.216,173.008 170.928,173.376 C169.472,171.84 168.656,170.592 167.872,168.736 C167.232,167.2 166.88,166.048 166.48,164.08 L166.384,164.08 C165.792,164.768 165.616,164.944 165.072,165.408 C165.456,165.856 165.616,166.064 165.84,166.432 C166.736,167.904 167.28,170.032 167.28,172.144 C167.28,173.488 167.056,174.336 166.608,174.656 C166.32,174.88 165.888,174.976 165.184,174.976 C164.624,174.976 164.288,174.944 163.616,174.832 C163.584,174.32 163.552,174.176 163.424,173.808 C164.176,173.968 164.656,174.032 165.2,174.032 C165.68,174.032 165.936,173.952 166.064,173.76 C166.224,173.488 166.32,172.896 166.32,172.048 C166.32,171.456 166.288,170.944 166.208,170.32 C164.56,171.904 163.072,172.928 160.992,173.904 C160.816,173.552 160.672,173.328 160.4,173.04 C162.528,172.208 164.32,171.024 166.032,169.344 C165.888,168.736 165.776,168.4 165.552,167.84 C164.432,168.8 163.664,169.312 162.032,170.16 C161.904,169.824 161.776,169.632 161.52,169.312 C163.072,168.64 164.048,168.032 165.184,167.056 C164.928,166.608 164.752,166.352 164.384,165.936 C163.52,166.56 162.992,166.848 161.6,167.456 C161.44,167.072 161.344,166.912 161.104,166.624 C162.32,166.208 163.04,165.872 163.888,165.296 C164.48,164.896 164.72,164.672 165.264,164.08 Z M157.248,173.456 L157.248,162.368 C157.248,161.92 157.232,161.52 157.2,161.152 C157.44,161.184 157.76,161.2 158.272,161.2 L160.288,161.2 C160.8,161.2 161.072,161.184 161.28,161.136 L161.744,161.712 C161.648,161.904 161.584,162.08 161.488,162.336 C160.976,163.712 160.496,164.72 159.824,165.92 C160.704,167.008 161.072,167.664 161.312,168.592 C161.392,168.96 161.456,169.44 161.456,169.808 C161.456,170.528 161.248,171.056 160.832,171.28 C160.608,171.424 160.144,171.488 159.44,171.488 C159.36,171.488 159.28,171.488 158.848,171.472 C158.832,171.136 158.784,170.864 158.656,170.496 C159.072,170.56 159.328,170.576 159.68,170.576 C160.304,170.576 160.496,170.384 160.496,169.76 C160.496,169.408 160.464,169.04 160.4,168.736 C160.176,167.76 159.776,167.088 158.8,166.048 C159.632,164.592 160.048,163.664 160.56,162.096 L158.224,162.096 L158.224,173.472 C158.224,174.144 158.256,174.688 158.304,175.168 L157.152,175.168 C157.216,174.72 157.248,174.096 157.248,173.456 Z" id="・ブレーメンの音楽隊" fill="#333333"></path>
                <path d="M20,194.608 C20.72,194.608 21.312,195.2 21.312,195.92 C21.312,196.64 20.72,197.232 20,197.232 C19.28,197.232 18.688,196.64 18.688,195.92 C18.688,195.2 19.28,194.608 20,194.608 Z M30.736,201.904 L29.232,201.904 C29.328,201.328 29.36,200.864 29.36,200.112 L29.36,191.52 C29.36,190.864 29.328,190.368 29.232,189.696 C29.808,189.728 30.256,189.744 30.992,189.744 L34.256,189.744 C36.72,189.744 38.112,191.008 38.112,193.232 C38.112,195.584 36.672,196.944 34.176,196.944 L30.608,196.944 L30.608,200.096 C30.608,200.864 30.64,201.36 30.736,201.904 Z M30.608,195.84 L34.176,195.84 C35.872,195.84 36.832,194.928 36.832,193.296 C36.832,191.696 35.904,190.848 34.176,190.848 L30.608,190.848 L30.608,195.84 Z M39.952,200.048 L39.952,191.52 C39.952,190.832 39.92,190.368 39.824,189.696 C40.384,189.728 40.816,189.744 41.584,189.744 L44.288,189.744 C47.856,189.744 49.888,191.92 49.888,195.744 C49.888,197.744 49.28,199.408 48.176,200.48 C47.216,201.424 45.888,201.904 44.288,201.904 L41.584,201.904 C40.816,201.904 40.384,201.92 39.824,201.952 C39.92,201.328 39.952,200.848 39.952,200.048 Z M41.2,200.784 L44.256,200.784 C45.52,200.784 46.528,200.416 47.248,199.648 C48.128,198.752 48.592,197.392 48.592,195.744 C48.592,194.08 48.176,192.8 47.328,191.952 C46.624,191.216 45.632,190.864 44.32,190.864 L41.2,190.864 L41.2,200.784 Z M53.344,196.128 L53.344,200.032 C53.344,200.896 53.376,201.328 53.472,201.904 L51.952,201.904 C52.048,201.36 52.08,200.864 52.08,200.032 L52.08,191.52 C52.08,190.832 52.048,190.32 51.952,189.696 C52.512,189.728 52.944,189.744 53.712,189.744 L57.952,189.744 C58.736,189.744 59.184,189.712 59.792,189.632 L59.792,190.992 C59.264,190.912 58.8,190.88 57.952,190.88 L53.344,190.88 L53.344,195.008 L57.088,195.008 C57.856,195.008 58.32,194.976 58.912,194.896 L58.912,196.24 C58.384,196.16 57.92,196.128 57.088,196.128 L53.344,196.128 Z" id="・PDF" fill="#333333"></path>
                <path d="M20,222.608 C20.72,222.608 21.312,223.2 21.312,223.92 C21.312,224.64 20.72,225.232 20,225.232 C19.28,225.232 18.688,224.64 18.688,223.92 C18.688,223.2 19.28,222.608 20,222.608 Z M30.544,229.904 L29.136,229.904 C29.216,229.328 29.248,228.848 29.248,228.096 L29.248,223.088 C29.248,222.288 29.216,221.856 29.136,221.28 L30.432,221.28 L30.432,222.16 C30.432,222.24 30.416,222.432 30.4,222.736 C30.544,222.464 30.688,222.272 31.008,221.936 C31.552,221.392 32.336,221.104 33.264,221.104 C34.176,221.104 34.848,221.376 35.328,221.92 C35.568,222.176 35.664,222.368 35.824,222.848 C36.576,221.616 37.44,221.104 38.784,221.104 C39.84,221.104 40.64,221.44 41.12,222.08 C41.504,222.592 41.664,223.216 41.664,224.16 L41.664,228.112 C41.664,228.912 41.696,229.344 41.776,229.904 L40.336,229.904 C40.432,229.312 40.448,228.944 40.448,228.096 L40.448,224.32 C40.448,222.8 39.888,222.144 38.608,222.144 C37.808,222.144 37.056,222.576 36.592,223.312 C36.288,223.776 36.064,224.48 36.064,224.96 L36.064,228.112 C36.064,228.912 36.096,229.36 36.176,229.904 L34.736,229.904 C34.816,229.328 34.848,228.912 34.848,228.096 L34.848,224.32 C34.848,222.912 34.208,222.144 33.056,222.144 C32.224,222.144 31.456,222.592 30.96,223.36 C30.672,223.792 30.432,224.544 30.432,224.96 L30.432,228.096 C30.432,228.832 30.464,229.264 30.544,229.904 Z M45.44,233.264 L44.032,233.264 C44.112,232.64 44.144,232.128 44.144,231.472 L44.144,223.12 C44.144,222.352 44.112,221.888 44.032,221.28 L45.312,221.28 L45.312,222.192 C45.312,222.4 45.296,222.576 45.264,222.848 C45.984,221.712 47.104,221.12 48.528,221.12 C50.992,221.12 52.496,222.8 52.496,225.584 C52.496,228.304 50.96,230.048 48.56,230.048 C47.152,230.048 46.016,229.456 45.264,228.352 C45.312,228.8 45.328,229.04 45.328,229.472 L45.328,231.456 C45.328,232.208 45.36,232.672 45.44,233.264 Z M48.448,229.008 C50.192,229.008 51.248,227.712 51.248,225.584 C51.248,223.408 50.224,222.16 48.432,222.16 C46.592,222.16 45.344,223.536 45.344,225.6 C45.344,226.64 45.68,227.6 46.256,228.16 C46.816,228.704 47.616,229.008 48.448,229.008 Z M53.968,227.28 L55.312,226.944 C55.568,227.776 55.792,228.112 56.288,228.464 C56.832,228.848 57.536,229.04 58.352,229.04 C60.208,229.04 61.376,228.08 61.376,226.56 C61.376,224.976 60.24,224.112 58.112,224.112 C57.664,224.112 57.264,224.144 56.832,224.192 L56.832,222.928 C57.2,222.992 57.584,223.024 58.016,223.024 C59.072,223.024 59.856,222.784 60.352,222.288 C60.752,221.904 60.992,221.312 60.992,220.736 C60.992,219.36 60.032,218.56 58.416,218.56 C57.44,218.56 56.736,218.832 56.288,219.408 C56.064,219.696 55.952,219.952 55.776,220.544 L54.448,220.256 C54.72,219.44 54.912,219.072 55.312,218.656 C56.016,217.888 57.104,217.488 58.496,217.488 C60.816,217.488 62.288,218.704 62.288,220.624 C62.288,221.6 61.872,222.464 61.168,222.96 C60.752,223.264 60.4,223.392 59.664,223.536 C60.592,223.632 61.088,223.808 61.632,224.224 C62.336,224.768 62.704,225.616 62.704,226.64 C62.704,228.8 61.04,230.144 58.368,230.144 C56.752,230.144 55.552,229.696 54.784,228.832 C54.448,228.448 54.256,228.096 53.968,227.28 Z" id="・mp3" fill="#333333"></path>
                <path d="M16.23,44.104 L17.724,44.104 C17.67,44.536 17.652,44.77 17.652,45.598 L17.652,50.44 C17.652,51.304 17.67,51.502 17.724,51.934 L16.23,51.934 C16.284,51.52 16.302,51.142 16.302,50.422 L16.302,45.616 C16.302,44.842 16.284,44.536 16.23,44.104 Z M24.186,44.104 L25.698,44.104 C25.626,44.518 25.608,44.806 25.608,45.67 L25.608,47.794 C25.608,50.656 25.482,52.24 25.158,53.284 C24.636,54.976 23.502,56.29 21.738,57.28 C20.856,57.784 19.992,58.126 18.462,58.576 C18.264,58.054 18.156,57.874 17.706,57.334 C19.326,56.974 20.19,56.668 21.126,56.11 C22.8,55.138 23.664,53.986 24.006,52.312 C24.204,51.286 24.258,50.458 24.258,47.722 L24.258,45.688 C24.258,44.752 24.24,44.5 24.186,44.104 Z M32.808,46.246 L33.69,45.274 C35.616,46.498 36.732,47.38 38.028,48.658 L37.092,49.774 C35.796,48.37 34.374,47.2 32.808,46.246 Z M32.934,57.946 L32.538,56.434 C33.942,56.38 36.102,55.822 37.776,55.048 C41.25,53.5 43.662,50.854 45.12,47.038 C45.534,47.596 45.714,47.758 46.218,48.1 C44.778,51.232 43.104,53.338 40.728,54.976 C38.874,56.236 37.02,56.974 34.014,57.658 C33.528,57.766 33.384,57.802 32.934,57.946 Z M55.65,43.33 L57.126,43.708 C56.964,43.942 56.964,43.942 56.73,44.446 C56.262,45.418 56.1,45.724 55.902,46.048 C56.136,45.994 56.136,45.994 61.338,45.904 C61.968,45.904 62.022,45.886 62.274,45.778 L63.048,46.534 C62.886,46.75 62.886,46.768 62.688,47.416 C61.932,49.954 60.618,52.402 59.088,54.184 C57.432,56.074 55.452,57.496 52.824,58.684 C52.536,58.162 52.392,57.982 51.924,57.622 C54.642,56.506 56.55,55.138 58.278,53.068 C59.664,51.394 60.744,49.288 61.374,47.038 L55.308,47.146 C54.21,48.91 52.77,50.494 51.006,51.826 C50.7,51.376 50.52,51.214 49.998,50.89 C51.906,49.648 53.274,48.154 54.516,45.958 C55.2,44.77 55.56,43.96 55.65,43.33 Z M82.92,50.206 L82.92,51.7 C82.272,51.61 81.66,51.574 80.544,51.574 L69.456,51.574 C68.466,51.574 67.638,51.61 67.062,51.7 L67.062,50.206 C67.638,50.296 68.412,50.332 69.456,50.332 L80.544,50.332 C81.606,50.332 82.38,50.296 82.92,50.206 Z M90.354,47.776 L90.354,48.784 L91.884,48.784 C92.604,48.784 93.09,48.766 93.414,48.712 L93.414,49.63 C92.856,49.576 92.424,49.558 91.884,49.558 L87.51,49.558 C86.88,49.558 86.466,49.576 85.926,49.612 C85.962,49.18 85.98,48.73 85.98,47.992 L85.98,45.22 C85.98,44.428 85.962,43.96 85.908,43.492 C86.358,43.546 86.79,43.564 87.672,43.564 L91.776,43.564 C92.55,43.564 93.018,43.546 93.414,43.474 L93.414,44.446 C92.964,44.392 92.532,44.374 91.884,44.374 L90.336,44.374 L90.336,45.346 L91.47,45.346 C92.298,45.346 92.586,45.328 92.946,45.292 C92.91,45.598 92.892,45.814 92.892,46.174 L92.892,46.948 C92.892,47.344 92.91,47.542 92.946,47.83 C92.586,47.794 92.082,47.776 91.362,47.776 L90.354,47.776 Z M89.382,47.776 L86.988,47.776 L86.988,48.784 L89.382,48.784 L89.382,47.776 Z M86.988,47.038 L91.938,47.038 L91.938,46.084 L86.988,46.084 L86.988,47.038 Z M86.988,45.346 L89.364,45.346 L89.364,44.374 L86.988,44.374 L86.988,45.346 Z M99.372,45.652 L95.178,45.652 C94.692,46.372 94.44,46.678 93.702,47.434 C93.45,47.092 93.27,46.93 92.928,46.696 C94.152,45.67 94.818,44.644 95.286,43.078 L96.366,43.366 C96.078,44.068 95.952,44.32 95.754,44.716 L99.372,44.716 C100.074,44.716 100.452,44.698 100.902,44.626 L100.902,45.742 C100.47,45.67 100.056,45.652 99.372,45.652 Z M90.534,56.416 L89.472,56.416 C88.626,56.416 87.924,56.434 87.456,56.488 C87.51,56.092 87.528,55.534 87.528,54.652 L87.528,51.97 C87.528,51.286 87.51,50.782 87.474,50.242 C87.924,50.278 88.464,50.296 89.346,50.296 L96.87,50.296 C97.788,50.296 98.202,50.278 98.724,50.224 C98.688,50.71 98.67,51.124 98.67,51.97 L98.67,54.616 C98.67,55.57 98.688,56.182 98.742,56.488 C98.256,56.434 97.608,56.416 96.744,56.416 L95.178,56.416 L95.178,57.604 C95.178,58.144 95.376,58.198 97.05,58.198 C99.102,58.198 99.588,58.126 99.804,57.82 C99.984,57.568 100.092,57.01 100.182,56.11 C100.56,56.344 100.794,56.452 101.244,56.56 C101.028,57.802 100.83,58.378 100.488,58.702 C100.092,59.062 99.354,59.17 97.248,59.17 C94.566,59.17 94.08,58.972 94.08,57.91 L94.08,56.416 L91.686,56.416 C90.912,58.342 88.914,59.332 85.746,59.404 C85.566,58.954 85.458,58.756 85.152,58.324 C85.548,58.342 85.746,58.342 85.944,58.342 C88.248,58.342 89.886,57.658 90.534,56.416 Z M88.59,51.142 L88.59,52.06 L97.608,52.06 L97.608,51.142 L88.59,51.142 Z M88.59,52.852 L88.59,53.788 L97.608,53.788 L97.608,52.852 L88.59,52.852 Z M88.59,54.58 L88.59,55.588 L97.608,55.588 L97.608,54.58 L88.59,54.58 Z M94.602,48.622 L94.602,47.488 C94.998,47.56 95.448,47.578 96.096,47.578 L98.724,47.578 C99.444,47.578 99.84,47.56 100.254,47.488 L100.254,48.622 C99.786,48.55 99.426,48.532 98.724,48.532 L96.132,48.532 C95.448,48.532 95.016,48.55 94.602,48.622 Z" id="リンク一覧" fill="#333333"></path>
                <path d="M9,17.17 L0.9,3.04 L17.118,3.04 L9,17.17 Z M34.218,15.028 L33.192,16.162 C31.77,14.344 29.736,12.382 27.432,10.6 C26.172,12.04 25.29,12.868 23.994,13.822 C22.752,14.722 21.798,15.316 20.466,15.982 C20.178,15.442 20.034,15.244 19.584,14.794 C20.97,14.236 21.852,13.75 23.238,12.724 C26.118,10.6 28.35,7.756 29.664,4.606 C29.7,4.498 29.718,4.48 29.754,4.39 C29.79,4.336 29.79,4.318 29.808,4.264 C29.646,4.282 29.592,4.282 29.376,4.282 L23.364,4.372 C22.554,4.39 22.032,4.426 21.51,4.516 L21.474,3.058 C21.96,3.13 22.284,3.148 22.896,3.148 L23.364,3.148 L29.79,3.076 C30.42,3.058 30.636,3.04 30.942,2.932 L31.698,3.706 C31.518,3.922 31.392,4.138 31.194,4.588 C30.186,6.82 29.34,8.242 28.224,9.628 C30.582,11.428 32.166,12.85 34.218,15.028 Z M43.65,1.33 L45.126,1.708 C44.964,1.942 44.964,1.942 44.73,2.446 C44.262,3.418 44.1,3.724 43.902,4.048 C44.136,3.994 44.136,3.994 49.338,3.904 C49.968,3.904 50.022,3.886 50.274,3.778 L51.048,4.534 C50.886,4.75 50.886,4.768 50.688,5.416 C49.932,7.954 48.618,10.402 47.088,12.184 C45.432,14.074 43.452,15.496 40.824,16.684 C40.536,16.162 40.392,15.982 39.924,15.622 C42.642,14.506 44.55,13.138 46.278,11.068 C47.664,9.394 48.744,7.288 49.374,5.038 L43.308,5.146 C42.21,6.91 40.77,8.494 39.006,9.826 C38.7,9.376 38.52,9.214 37.998,8.89 C39.906,7.648 41.274,6.154 42.516,3.958 C43.2,2.77 43.56,1.96 43.65,1.33 Z M58.23,2.104 L59.724,2.104 C59.67,2.536 59.652,2.77 59.652,3.598 L59.652,8.44 C59.652,9.304 59.67,9.502 59.724,9.934 L58.23,9.934 C58.284,9.52 58.302,9.142 58.302,8.422 L58.302,3.616 C58.302,2.842 58.284,2.536 58.23,2.104 Z M66.186,2.104 L67.698,2.104 C67.626,2.518 67.608,2.806 67.608,3.67 L67.608,5.794 C67.608,8.656 67.482,10.24 67.158,11.284 C66.636,12.976 65.502,14.29 63.738,15.28 C62.856,15.784 61.992,16.126 60.462,16.576 C60.264,16.054 60.156,15.874 59.706,15.334 C61.326,14.974 62.19,14.668 63.126,14.11 C64.8,13.138 65.664,11.986 66.006,10.312 C66.204,9.286 66.258,8.458 66.258,5.722 L66.258,3.688 C66.258,2.752 66.24,2.5 66.186,2.104 Z M73.566,9.826 L73.566,8.35 C74.088,8.44 74.574,8.458 75.798,8.458 L86.256,8.458 C87.588,8.458 87.876,8.44 88.434,8.368 L88.434,9.826 C87.858,9.772 87.444,9.754 86.238,9.754 L75.798,9.754 C74.484,9.754 74.106,9.772 73.566,9.826 Z M92.808,4.246 L93.69,3.274 C95.616,4.498 96.732,5.38 98.028,6.658 L97.092,7.774 C95.796,6.37 94.374,5.2 92.808,4.246 Z M92.934,15.946 L92.538,14.434 C93.942,14.38 96.102,13.822 97.776,13.048 C101.25,11.5 103.662,8.854 105.12,5.038 C105.534,5.596 105.714,5.758 106.218,6.1 C104.778,9.232 103.104,11.338 100.728,12.976 C98.874,14.236 97.02,14.974 94.014,15.658 C93.528,15.766 93.384,15.802 92.934,15.946 Z M112.23,2.104 L113.724,2.104 C113.67,2.536 113.652,2.77 113.652,3.598 L113.652,8.44 C113.652,9.304 113.67,9.502 113.724,9.934 L112.23,9.934 C112.284,9.52 112.302,9.142 112.302,8.422 L112.302,3.616 C112.302,2.842 112.284,2.536 112.23,2.104 Z M120.186,2.104 L121.698,2.104 C121.626,2.518 121.608,2.806 121.608,3.67 L121.608,5.794 C121.608,8.656 121.482,10.24 121.158,11.284 C120.636,12.976 119.502,14.29 117.738,15.28 C116.856,15.784 115.992,16.126 114.462,16.576 C114.264,16.054 114.156,15.874 113.706,15.334 C115.326,14.974 116.19,14.668 117.126,14.11 C118.8,13.138 119.664,11.986 120.006,10.312 C120.204,9.286 120.258,8.458 120.258,5.722 L120.258,3.688 C120.258,2.752 120.24,2.5 120.186,2.104 Z M127.566,9.826 L127.566,8.35 C128.088,8.44 128.574,8.458 129.798,8.458 L140.256,8.458 C141.588,8.458 141.876,8.44 142.434,8.368 L142.434,9.826 C141.858,9.772 141.444,9.754 140.238,9.754 L129.798,9.754 C128.484,9.754 128.106,9.772 127.566,9.826 Z M150.912,1.15 L152.334,1.546 C152.19,1.762 152.154,1.834 152.064,1.996 C152.028,2.068 151.902,2.32 151.704,2.752 C151.524,3.094 151.326,3.436 151.146,3.742 C151.362,3.706 151.38,3.706 151.812,3.688 L156.15,3.652 C156.798,3.634 156.978,3.616 157.248,3.58 L158.292,4.732 C158.256,4.858 158.22,4.948 158.202,4.984 L158.112,5.236 L158.022,5.506 C155.754,11.464 153.072,14.398 147.654,16.918 C147.384,16.396 147.186,16.144 146.772,15.802 C149.436,14.812 152.226,12.85 153.612,10.978 C152.514,9.97 150.768,8.71 149.58,8.08 L150.408,7.162 C151.812,7.954 153.072,8.836 154.386,9.952 C155.304,8.602 156.348,6.442 156.888,4.732 L150.588,4.804 C149.472,6.622 147.924,8.35 146.304,9.61 C145.908,9.142 145.71,8.998 145.26,8.746 C147.06,7.486 148.716,5.632 149.85,3.598 C150.444,2.536 150.822,1.672 150.912,1.15 Z M157.176,1.726 L158.076,1.24 C158.958,2.284 159.354,2.878 159.912,3.958 L159.012,4.498 C158.562,3.562 157.752,2.32 157.176,1.726 Z M159.21,0.736 L160.092,0.232 C160.992,1.33 161.316,1.798 161.946,2.968 L161.046,3.49 C160.632,2.59 159.966,1.6 159.21,0.736 Z M163.566,9.826 L163.566,8.35 C164.088,8.44 164.574,8.458 165.798,8.458 L176.256,8.458 C177.588,8.458 177.876,8.44 178.434,8.368 L178.434,9.826 C177.858,9.772 177.444,9.754 176.238,9.754 L165.798,9.754 C164.484,9.754 164.106,9.772 163.566,9.826 Z" id="▼スクリーンリーダー" fill="#333333"></path>
            </g>
            <rect id="Rectangle-4" fill="#999999" x="237" y="246" width="23" height="8"></rect>
            <polygon id="Triangle" fill="#999999" points="266 250 254 262 254 238"></polygon>
        </g>
    </g>
</svg>