<?xml version="1.0" encoding="UTF-8"?>
<svg width="500px" height="500px" viewBox="0 0 500 500" version="1.1" xmlns="http://www.w3.org/2000/svg" xmlns:xlink="http://www.w3.org/1999/xlink" style="background: #EFEFEF;">
    <!-- Generator: Sketch 49.3 (51167) - http://www.bohemiancoding.com/sketch -->
    <title>2.4.4_ng</title>
    <desc>Created with Sketch.</desc>
    <defs>
        <rect id="path-1" x="16" y="0" width="240" height="500"></rect>
        <filter x="-12.9%" y="-5.8%" width="125.8%" height="112.4%" filterUnits="objectBoundingBox" id="filter-2">
            <feOffset dx="0" dy="2" in="SourceAlpha" result="shadowOffsetOuter1"></feOffset>
            <feGaussianBlur stdDeviation="10" in="shadowOffsetOuter1" result="shadowBlurOuter1"></feGaussianBlur>
            <feColorMatrix values="0 0 0 0 0   0 0 0 0 0   0 0 0 0 0  0 0 0 0.1 0" type="matrix" in="shadowBlurOuter1"></feColorMatrix>
        </filter>
        <rect id="path-3" x="0" y="0" width="212" height="200" rx="8"></rect>
        <filter x="-14.6%" y="-14.5%" width="129.2%" height="131.0%" filterUnits="objectBoundingBox" id="filter-4">
            <feOffset dx="0" dy="2" in="SourceAlpha" result="shadowOffsetOuter1"></feOffset>
            <feGaussianBlur stdDeviation="10" in="shadowOffsetOuter1" result="shadowBlurOuter1"></feGaussianBlur>
            <feColorMatrix values="0 0 0 0 0   0 0 0 0 0   0 0 0 0 0  0 0 0 0.1 0" type="matrix" in="shadowBlurOuter1"></feColorMatrix>
        </filter>
        <path d="M17,8 L17,0 L29,12 L17,24 L17,16 L0,16 L0,8 L17,8 Z" id="path-5"></path>
    </defs>
    <g id="2.4.4_ng" stroke="none" stroke-width="1" fill="none" fill-rule="evenodd">
        <rect id="Rectangle" fill="#EFEFEF" x="0" y="0" width="500" height="500"></rect>
        <g id="Rectangle-9">
            <use fill="black" fill-opacity="1" filter="url(#filter-2)" xlink:href="#path-1"></use>
            <use fill="#EFEFEF" fill-rule="evenodd" xlink:href="#path-1"></use>
        </g>
        <g id="Group" transform="translate(16.000000, 198.000000)">
            <rect id="Rectangle-2" fill="#FFFFFF" x="0" y="0" width="240" height="182"></rect>
            <rect id="Rectangle-16" fill="#E2E2E2" x="16" y="50" width="208" height="18"></rect>
            <rect id="Rectangle-16" fill="#E2E2E2" x="16" y="84" width="208" height="18"></rect>
            <rect id="Rectangle-16" fill="#E2E2E2" x="16" y="118" width="208" height="18"></rect>
            <path d="M23.794,17.114 L26.116,17.114 C26.044,17.42 25.99,18.32 25.99,18.968 C25.99,21.866 26.458,23.774 27.754,26.06 C28.51,27.41 29.32,28.364 30.598,29.48 C31.66,30.416 32.2,30.794 33.388,31.424 C32.704,32.126 32.416,32.558 31.984,33.422 C29.788,31.892 28.69,30.866 27.412,29.174 C26.314,27.716 25.63,26.33 25.018,24.26 C24.676,25.7 24.352,26.528 23.614,27.896 C22.894,29.21 22.12,30.182 20.842,31.352 C19.906,32.216 19.312,32.648 18.052,33.422 C17.638,32.594 17.296,32.144 16.648,31.568 C18.484,30.596 19.438,29.858 20.572,28.562 C22.894,25.898 23.866,22.946 23.866,18.626 C23.866,17.924 23.848,17.6 23.794,17.114 Z M48.112,20.048 L38.716,20.048 C37.924,21.236 37.132,22.154 36.034,23.18 C35.566,22.586 35.188,22.208 34.63,21.776 C36.16,20.426 37.15,19.184 37.888,17.708 C38.122,17.258 38.23,16.952 38.284,16.574 L40.444,16.898 C40.282,17.204 40.282,17.204 39.814,18.158 L48.112,18.158 C49.138,18.158 49.768,18.122 50.362,18.032 L50.362,20.156 C49.768,20.084 49.066,20.048 48.112,20.048 Z M46.096,31.514 L44.746,33.008 C43.666,31.964 42.856,31.226 41.614,30.236 C40.228,31.424 39.004,32.198 36.412,33.476 C36.052,32.846 35.782,32.504 35.062,31.784 C37.51,30.74 38.734,30.074 40.048,29.048 C38.95,28.238 38.338,27.842 36.916,26.996 L38.23,25.79 C39.544,26.546 40.138,26.924 41.416,27.788 C42.262,26.888 42.766,26.15 42.982,25.484 L44.908,26.402 C44.728,26.6 44.53,26.87 44.134,27.41 C43.702,28.022 43.414,28.4 42.964,28.904 C44.062,29.768 44.962,30.506 46.096,31.514 Z M46.51,25.286 L37.762,25.286 C36.826,25.286 36.232,25.322 35.692,25.394 L35.692,23.504 C36.106,23.576 36.538,23.594 37.24,23.594 L46.384,23.594 C47.572,23.594 47.95,23.576 48.49,23.522 C48.418,24.098 48.4,24.566 48.4,25.16 C48.4,27.068 48.58,28.634 48.904,29.786 C49.12,30.488 49.228,30.722 49.534,31.01 C49.786,30.668 49.912,29.822 49.966,28.346 C50.56,28.904 50.92,29.138 51.514,29.426 C51.226,32.252 50.668,33.404 49.57,33.404 C48.76,33.404 47.842,32.468 47.338,31.1 C46.78,29.624 46.546,27.932 46.51,25.286 Z M38.194,22.604 L38.194,20.858 C38.428,20.894 39.004,20.93 39.544,20.93 L47.086,20.93 C47.986,20.93 48.598,20.894 48.994,20.84 L48.994,22.622 C48.454,22.55 47.986,22.532 47.086,22.532 L39.904,22.532 C39.166,22.532 38.68,22.55 38.194,22.604 Z M53.458,19.112 L53.458,17.33 C53.944,17.402 54.232,17.42 54.952,17.42 L58.048,17.42 C58.768,17.42 59.056,17.402 59.542,17.33 L59.542,19.112 C59.038,19.058 58.714,19.04 58.048,19.04 L54.952,19.04 C54.304,19.04 53.908,19.058 53.458,19.112 Z M52.846,21.758 L52.846,19.886 C53.278,19.958 53.62,19.976 54.286,19.976 L58.732,19.976 C59.47,19.976 59.776,19.958 60.172,19.904 L60.172,21.758 C59.794,21.704 59.542,21.686 58.804,21.686 L54.286,21.686 C53.656,21.686 53.278,21.704 52.846,21.758 Z M53.53,24.278 L53.53,22.604 C53.89,22.64 54.124,22.658 54.718,22.658 L58.426,22.658 C59.02,22.658 59.254,22.64 59.578,22.604 L59.578,24.278 C59.182,24.242 58.966,24.224 58.426,24.224 L54.718,24.224 C54.142,24.224 53.89,24.242 53.53,24.278 Z M53.53,26.816 L53.53,25.142 C53.89,25.178 54.124,25.196 54.718,25.196 L58.426,25.196 C59.02,25.196 59.254,25.178 59.578,25.142 L59.578,26.816 C59.164,26.762 58.984,26.762 58.39,26.762 L54.7,26.762 C54.16,26.762 53.872,26.78 53.53,26.816 Z M55.402,33.566 L53.494,33.566 C53.566,33.008 53.602,32.432 53.602,31.802 L53.602,29.138 C53.602,28.562 53.584,28.166 53.512,27.716 C53.962,27.752 54.232,27.77 54.916,27.77 L58.444,27.77 C59.146,27.77 59.344,27.77 59.65,27.716 C59.596,28.112 59.596,28.346 59.596,29.012 L59.596,32.036 C59.596,32.468 59.632,33.008 59.668,33.314 L57.832,33.314 L57.832,32.594 L55.402,32.594 L55.402,33.566 Z M55.366,29.3 L55.366,30.992 L57.832,30.992 L57.832,29.3 L55.366,29.3 Z M62.674,24.998 L62.674,30.578 C62.674,30.938 62.764,31.046 63.088,31.118 C63.43,31.19 63.97,31.226 64.672,31.226 C66.094,31.226 66.652,31.136 66.922,30.866 C67.192,30.596 67.318,29.786 67.354,27.932 C68.038,28.256 68.722,28.49 69.334,28.598 C69.19,30.686 68.992,31.604 68.506,32.252 C68.038,32.882 67.084,33.08 64.618,33.08 C61.324,33.08 60.676,32.792 60.676,31.262 L60.676,24.908 C60.676,24.044 60.658,23.702 60.604,23.144 C61.144,23.198 61.63,23.216 62.404,23.216 L66.454,23.216 L66.454,19.4 L62.296,19.4 C61.504,19.4 60.964,19.436 60.424,19.49 L60.424,17.456 C61,17.528 61.558,17.564 62.314,17.564 L66.67,17.564 C67.462,17.564 67.984,17.546 68.506,17.492 C68.452,18.122 68.434,18.446 68.434,19.31 L68.434,23.288 C68.434,24.044 68.452,24.548 68.506,25.07 C67.93,25.016 67.516,24.998 66.706,24.998 L62.674,24.998 Z M77.884,26.708 L77.884,25.916 L73.618,25.916 C72.97,25.916 72.448,25.934 71.962,25.988 L71.962,24.422 C72.394,24.476 72.862,24.494 73.654,24.494 L77.884,24.494 L77.884,23.81 L74.068,23.81 C73.42,23.81 72.97,23.828 72.556,23.864 C72.592,23.486 72.61,23.108 72.61,22.658 L72.61,21.47 C72.61,20.966 72.592,20.642 72.556,20.21 C73.024,20.246 73.402,20.264 74.086,20.264 L77.884,20.264 L77.884,19.58 L72.952,19.58 C72.07,19.58 71.476,19.616 70.846,19.688 L70.846,17.906 C71.404,17.978 72.016,18.014 73.06,18.014 L77.884,18.014 C77.866,17.384 77.848,17.186 77.776,16.79 L79.954,16.79 C79.864,17.186 79.846,17.366 79.828,18.014 L84.886,18.014 C85.93,18.014 86.524,17.978 87.1,17.906 L87.1,19.688 C86.488,19.616 85.858,19.58 84.994,19.58 L79.828,19.58 L79.828,20.264 L83.896,20.264 C84.58,20.264 84.976,20.246 85.408,20.21 C85.372,20.606 85.354,20.912 85.354,21.47 L85.354,22.658 C85.354,23.198 85.372,23.468 85.408,23.864 C85.012,23.828 84.544,23.81 83.968,23.81 L79.828,23.81 L79.828,24.494 L83.86,24.494 C84.922,24.494 85.282,24.476 85.786,24.44 C85.732,24.89 85.732,25.142 85.732,26.078 L85.732,26.708 C86.506,26.708 86.938,26.672 87.298,26.618 L87.298,28.328 C86.866,28.274 86.524,28.238 85.732,28.238 L85.732,29.282 C85.732,30.218 85.75,30.704 85.822,31.226 L83.806,31.226 L83.806,30.524 L79.828,30.524 L79.828,31.532 C79.828,33.152 79.378,33.494 77.182,33.494 C76.75,33.494 76.03,33.458 75.454,33.422 C75.346,32.702 75.238,32.342 74.896,31.64 C75.868,31.748 76.534,31.802 77.182,31.802 C77.74,31.802 77.884,31.712 77.884,31.388 L77.884,30.524 L73.654,30.524 C72.844,30.524 72.412,30.542 71.872,30.614 L71.872,28.94 C72.358,28.994 72.664,29.012 73.582,29.012 L77.884,29.012 L77.884,28.238 L72.718,28.238 C71.692,28.238 71.206,28.256 70.738,28.328 L70.738,26.618 C71.206,26.69 71.656,26.708 72.682,26.708 L77.884,26.708 Z M79.828,26.708 L83.806,26.708 L83.806,25.916 L79.828,25.916 L79.828,26.708 Z M79.828,28.238 L79.828,29.012 L83.806,29.012 L83.806,28.238 L79.828,28.238 Z M77.884,21.668 L74.518,21.668 L74.518,22.406 L77.884,22.406 L77.884,21.668 Z M79.828,21.668 L79.828,22.406 L83.446,22.406 L83.446,21.668 L79.828,21.668 Z" id="人気記事" fill="#298538"></path>
            <path d="M140.75,159.31 L140.876,158.344 C141.436,158.596 142.318,158.778 143.382,158.904 C143.452,158.218 143.592,157.126 143.704,156.384 C143.046,156.3 142.444,156.202 141.618,156.006 C141.436,155.964 141.38,155.95 141.184,155.908 L141.31,154.984 C141.912,155.236 142.85,155.446 143.83,155.53 C144.054,154.186 144.166,153.262 144.166,152.898 L144.166,152.786 L145.286,152.912 C145.202,153.178 145.16,153.346 145.062,153.85 C145.048,153.976 145.048,153.976 144.922,154.746 C144.88,155.054 144.852,155.194 144.782,155.586 C145.174,155.6 145.37,155.6 145.594,155.6 C146.644,155.6 147.526,155.516 148.156,155.362 L148.114,156.328 C147.834,156.356 147.834,156.356 147.134,156.412 C146.7,156.454 146.28,156.468 145.874,156.468 C145.65,156.468 145.412,156.468 144.642,156.44 C144.418,158.05 144.404,158.19 144.32,158.974 C144.852,158.988 145.048,158.988 145.244,158.988 C146.252,158.988 147.274,158.904 147.82,158.764 L147.792,159.702 C147.652,159.716 147.61,159.716 147.414,159.73 C146.7,159.814 146.098,159.842 145.44,159.842 C145.09,159.842 144.866,159.842 144.236,159.814 C144.236,159.912 144.236,159.912 144.222,160.094 C144.194,160.43 144.166,160.892 144.166,161.13 C144.166,161.9 144.376,162.432 144.81,162.81 C145.258,163.202 145.93,163.412 146.784,163.412 C148.66,163.412 149.878,162.446 149.878,160.962 C149.878,160.08 149.444,159.296 148.548,158.526 C149.01,158.47 149.164,158.428 149.57,158.246 C150.564,159.324 150.886,160.01 150.886,161.032 C150.886,163.006 149.234,164.336 146.784,164.336 C145.314,164.336 144.194,163.832 143.648,162.936 C143.368,162.474 143.214,161.802 143.214,161.004 C143.214,160.71 143.228,160.43 143.27,160.08 C143.284,159.87 143.284,159.87 143.298,159.744 C142.458,159.66 141.814,159.548 141.184,159.394 C140.96,159.324 140.918,159.324 140.75,159.31 Z M155.548,159.338 L155.296,158.316 C155.646,158.288 155.716,158.274 156.584,158.064 C158.418,157.63 159.65,157.448 160.854,157.448 C162.296,157.448 163.29,157.882 163.822,158.75 C164.102,159.198 164.256,159.772 164.256,160.346 C164.256,161.914 162.996,163.342 161.05,163.958 C160.196,164.224 159.86,164.28 158.166,164.49 C158.082,164.098 158.026,163.958 157.802,163.524 C157.886,163.538 157.942,163.538 157.998,163.538 C158.866,163.538 159.958,163.37 160.756,163.104 C162.352,162.586 163.318,161.522 163.318,160.276 C163.318,159.002 162.422,158.316 160.728,158.316 C159.79,158.316 158.712,158.484 157.046,158.876 C156.192,159.072 155.968,159.142 155.548,159.338 Z M171.34,153.01 L172.446,152.8 C172.502,153.738 173.02,156.034 173.496,157.434 C174.322,157.098 174.714,156.944 176.884,156.188 C177.374,156.006 177.5,155.964 177.78,155.824 L178.2,156.888 C177.22,157.098 175.218,157.742 173.986,158.246 C171.592,159.198 170.556,160.122 170.556,161.284 C170.556,162.558 171.634,163.048 174.378,163.048 C175.988,163.048 177.556,162.866 178.382,162.572 L178.494,163.734 C178.228,163.734 178.228,163.734 177.458,163.818 C176.016,163.958 175.344,164 174.364,164 C172.978,164 171.928,163.874 171.256,163.622 C170.108,163.202 169.52,162.432 169.52,161.326 C169.52,160.43 169.94,159.618 170.766,158.946 C171.298,158.512 171.732,158.246 172.6,157.812 C172.208,156.664 171.942,155.684 171.578,153.892 C171.452,153.304 171.424,153.234 171.34,153.01 Z M186.068,160.962 L185.158,160.962 C184.374,160.962 184.01,160.976 183.576,161.004 C183.632,160.57 183.646,160.178 183.646,159.534 L183.646,154.788 C183.646,153.976 183.618,153.234 183.576,152.926 C184.038,152.982 184.472,152.996 185.074,152.996 L190.926,152.996 C191.5,152.996 192.018,152.968 192.424,152.926 C192.382,153.22 192.354,154.004 192.354,154.788 L192.354,159.534 C192.354,160.192 192.368,160.584 192.424,161.004 C192.032,160.976 191.612,160.962 190.856,160.962 L189.638,160.962 L189.638,163.496 C189.638,163.93 189.778,163.972 191.206,163.972 C192.536,163.972 192.858,163.916 193.054,163.622 C193.208,163.384 193.306,162.88 193.39,161.788 C193.782,161.998 193.992,162.082 194.272,162.166 C193.95,164.672 193.796,164.798 191.136,164.798 C189.988,164.798 189.358,164.728 189.078,164.56 C188.826,164.406 188.742,164.224 188.742,163.776 L188.742,160.962 L187.034,160.962 C186.838,162.124 186.502,162.838 185.802,163.51 C184.976,164.308 183.954,164.784 182.218,165.162 C182.078,164.812 181.966,164.616 181.728,164.322 C182.792,164.126 183.282,164 183.87,163.734 C184.836,163.314 185.494,162.698 185.816,161.928 C185.942,161.634 185.97,161.536 186.068,160.962 Z M184.514,153.822 L184.514,155.348 L191.486,155.348 L191.486,153.822 L184.514,153.822 Z M184.514,156.132 L184.514,157.742 L191.486,157.742 L191.486,156.132 L184.514,156.132 Z M184.514,158.526 L184.514,160.192 L191.486,160.192 L191.486,158.526 L184.514,158.526 Z M198.374,154.62 L198.318,153.57 C198.71,153.64 198.962,153.654 199.634,153.654 C200.796,153.654 202.658,153.57 203.918,153.472 C204.282,153.444 204.408,153.416 204.59,153.318 L205.178,154.088 C204.982,154.186 204.912,154.242 204.464,154.676 C202.532,156.566 200.838,158.022 199.858,158.652 L199.886,158.694 C200.95,158.12 202.084,157.826 203.316,157.826 C205.654,157.826 207.152,158.974 207.152,160.766 C207.152,162.95 205.122,164.392 202.014,164.392 C200.04,164.392 198.906,163.664 198.906,162.376 C198.906,161.438 199.774,160.738 200.936,160.738 C201.874,160.738 202.686,161.144 203.246,161.886 C203.54,162.278 203.694,162.614 203.89,163.23 C205.36,162.824 206.13,161.97 206.13,160.78 C206.13,159.436 205.01,158.638 203.12,158.638 C201.062,158.638 198.85,159.534 197.226,161.032 L196.596,160.136 C197.1,159.842 197.604,159.478 198.556,158.708 C200.054,157.518 202.266,155.572 203.232,154.62 L203.54,154.312 L203.512,154.284 C203.47,154.284 203.47,154.284 203.386,154.298 C202.938,154.382 201.258,154.48 199.13,154.55 C198.822,154.564 198.682,154.578 198.374,154.62 Z M202.966,163.482 C202.658,162.208 201.958,161.536 200.95,161.536 C200.25,161.536 199.816,161.872 199.816,162.404 C199.816,162.768 199.998,163.034 200.376,163.258 C200.74,163.454 201.342,163.58 201.944,163.58 C202.294,163.58 202.462,163.566 202.966,163.482 Z" id="もっと見る" fill="#757575"></path>
            <path d="M214.421387,163.908203 C214.273274,163.76009 214.201335,163.582358 214.205566,163.375 C214.209798,163.167642 214.290201,162.98991 214.446777,162.841797 L218.940918,158.5 L214.446777,154.158203 C214.290201,154.01009 214.209798,153.832358 214.205566,153.625 C214.201335,153.417642 214.273274,153.23991 214.421387,153.091797 C214.565268,152.935221 214.747232,152.856934 214.967285,152.856934 C215.183107,152.856934 215.360839,152.926757 215.500488,153.066406 L220.553223,157.954102 C220.709799,158.097982 220.788086,158.279947 220.788086,158.5 C220.788086,158.720053 220.709799,158.902018 220.553223,159.045898 L215.500488,163.933594 C215.343912,164.081706 215.163006,164.152588 214.957764,164.14624 C214.752522,164.139893 214.573731,164.060548 214.421387,163.908203 Z" id="&gt;" fill="#AAAAAA"></path>
        </g>
        <g id="Group" transform="translate(16.000000, 0.000000)">
            <rect id="Rectangle-2" fill="#FFFFFF" x="0" y="0" width="240" height="182"></rect>
            <rect id="Rectangle-16" fill="#E2E2E2" x="16" y="50" width="208" height="18"></rect>
            <rect id="Rectangle-16" fill="#E2E2E2" x="16" y="84" width="208" height="18"></rect>
            <rect id="Rectangle-16" fill="#E2E2E2" x="16" y="118" width="208" height="18"></rect>
            <path d="M27.754,22.334 L31.804,22.334 C32.596,22.334 33.046,22.298 33.442,22.226 L33.442,24.224 C32.992,24.17 32.704,24.152 32.002,24.152 L31.552,24.152 L31.552,31.406 C31.552,32.486 31.57,32.99 31.66,33.53 L29.554,33.53 C29.644,32.972 29.662,32.45 29.662,31.406 L29.662,24.152 L27.736,24.152 C27.718,26.438 27.502,28.328 27.07,29.966 C26.71,31.37 26.152,32.63 25.468,33.584 C24.748,32.99 24.442,32.792 23.686,32.396 C25.396,30.308 25.846,27.95 25.846,21.128 C25.846,19.616 25.828,19.04 25.738,18.32 C27.772,18.266 30.886,17.474 31.804,16.79 L33.28,18.536 C33.082,18.59 33.01,18.626 32.686,18.734 C31.246,19.274 30.112,19.544 27.754,19.958 L27.754,22.334 Z M20.266,24.44 L18.394,24.44 C17.638,24.44 17.224,24.458 16.756,24.512 L16.756,22.586 C17.206,22.658 17.584,22.676 18.43,22.676 L18.862,22.676 C18.61,21.668 18.43,21.2 18.07,20.552 L19.654,20.156 L18.808,20.156 C18.016,20.156 17.602,20.174 17.116,20.228 L17.116,18.302 C17.566,18.374 17.98,18.392 18.844,18.392 L20.212,18.392 L20.212,18.122 C20.212,17.51 20.194,17.258 20.122,16.808 L22.3,16.808 C22.228,17.24 22.21,17.474 22.21,18.122 L22.21,18.392 L23.434,18.392 C24.28,18.392 24.64,18.374 25.108,18.302 L25.108,20.228 C24.622,20.174 24.19,20.156 23.416,20.156 L22.678,20.156 L24.208,20.588 C24.1,20.822 24.1,20.822 23.938,21.218 C23.83,21.398 23.83,21.398 23.632,21.884 C23.506,22.19 23.434,22.316 23.236,22.676 L23.596,22.676 C24.406,22.676 24.784,22.658 25.252,22.586 L25.252,24.512 C24.748,24.458 24.37,24.44 23.596,24.44 L22.138,24.44 L22.138,25.718 L23.524,25.718 C24.298,25.718 24.694,25.7 25.162,25.628 L25.162,27.518 C24.694,27.464 24.28,27.446 23.524,27.446 L22.858,27.446 C23.398,28.076 23.848,28.454 24.712,29.03 C24.316,29.696 24.118,30.074 23.848,30.74 C22.948,29.93 22.66,29.624 22.084,28.796 C22.102,29.03 22.102,29.03 22.12,29.498 C22.12,29.552 22.138,30.11 22.138,30.2 L22.138,32 C22.138,32.63 22.174,33.062 22.246,33.494 L20.176,33.494 C20.23,33.08 20.266,32.648 20.266,32.072 L20.266,30.272 C20.266,29.93 20.284,29.462 20.32,29.048 C19.582,30.434 18.754,31.37 17.35,32.378 C17.098,31.64 16.846,31.136 16.432,30.542 C17.8,29.696 18.808,28.706 19.582,27.446 L18.412,27.446 C17.638,27.446 17.26,27.464 16.774,27.536 L16.774,25.628 C17.242,25.7 17.602,25.718 18.448,25.718 L20.266,25.718 L20.266,24.44 Z M22.426,20.156 L19.78,20.156 C20.176,20.93 20.32,21.308 20.554,22.244 L18.952,22.676 L21.418,22.676 C21.922,21.74 22.156,21.164 22.426,20.156 Z M41.902,19.976 L37.384,19.976 C36.61,19.976 36.16,19.994 35.584,20.066 L35.584,18.392 C36.106,18.482 36.538,18.5 37.384,18.5 L39.67,18.5 C39.31,17.906 39.04,17.582 38.518,17.006 L40.372,16.592 C40.948,17.348 41.308,17.87 41.668,18.5 L44.278,18.5 C44.674,18.032 45.214,17.222 45.556,16.592 L47.5,17.024 C46.978,17.762 46.708,18.104 46.33,18.5 L48.598,18.5 C49.462,18.5 49.894,18.482 50.416,18.392 L50.416,20.066 C49.876,19.994 49.39,19.976 48.598,19.976 L43.828,19.976 L43.828,20.768 L47.878,20.768 C48.814,20.768 49.102,20.75 49.588,20.696 L49.588,22.19 C49.102,22.136 48.76,22.118 47.878,22.118 L43.828,22.118 L43.828,22.91 L49.228,22.91 C50.128,22.91 50.542,22.892 51.046,22.82 L51.046,24.494 C50.488,24.422 50.074,24.404 49.228,24.404 L40.408,24.404 C40.336,24.71 40.264,24.926 40.21,25.142 L47.86,25.142 C48.454,25.142 48.976,25.124 49.552,25.07 C49.498,25.628 49.48,26.006 49.48,26.78 L49.48,31.64 C49.48,32.432 49.498,32.918 49.588,33.476 L47.518,33.476 L47.518,32.81 L40.624,32.81 L40.624,33.476 L38.59,33.476 C38.662,32.918 38.698,32.45 38.698,31.712 L38.698,29.822 C38.698,29.48 38.716,28.814 38.734,28.544 C37.888,30.128 37.168,31.064 35.998,32.09 C35.566,31.388 35.08,30.848 34.54,30.416 C35.746,29.462 36.394,28.76 37.006,27.788 C37.708,26.708 38.068,25.844 38.446,24.404 L36.772,24.404 C35.872,24.404 35.476,24.422 34.954,24.494 L34.954,22.82 C35.44,22.892 35.854,22.91 36.772,22.91 L41.902,22.91 L41.902,22.118 L38.158,22.118 C37.276,22.118 36.934,22.136 36.448,22.19 L36.448,20.696 C36.934,20.75 37.222,20.768 38.158,20.768 L41.902,20.768 L41.902,19.976 Z M47.536,26.582 L40.624,26.582 L40.624,27.338 L47.536,27.338 L47.536,26.582 Z M47.536,28.598 L40.624,28.598 L40.624,29.336 L47.536,29.336 L47.536,28.598 Z M47.536,30.596 L40.624,30.596 L40.624,31.334 L47.536,31.334 L47.536,30.596 Z M53.458,19.112 L53.458,17.33 C53.944,17.402 54.232,17.42 54.952,17.42 L58.048,17.42 C58.768,17.42 59.056,17.402 59.542,17.33 L59.542,19.112 C59.038,19.058 58.714,19.04 58.048,19.04 L54.952,19.04 C54.304,19.04 53.908,19.058 53.458,19.112 Z M52.846,21.758 L52.846,19.886 C53.278,19.958 53.62,19.976 54.286,19.976 L58.732,19.976 C59.47,19.976 59.776,19.958 60.172,19.904 L60.172,21.758 C59.794,21.704 59.542,21.686 58.804,21.686 L54.286,21.686 C53.656,21.686 53.278,21.704 52.846,21.758 Z M53.53,24.278 L53.53,22.604 C53.89,22.64 54.124,22.658 54.718,22.658 L58.426,22.658 C59.02,22.658 59.254,22.64 59.578,22.604 L59.578,24.278 C59.182,24.242 58.966,24.224 58.426,24.224 L54.718,24.224 C54.142,24.224 53.89,24.242 53.53,24.278 Z M53.53,26.816 L53.53,25.142 C53.89,25.178 54.124,25.196 54.718,25.196 L58.426,25.196 C59.02,25.196 59.254,25.178 59.578,25.142 L59.578,26.816 C59.164,26.762 58.984,26.762 58.39,26.762 L54.7,26.762 C54.16,26.762 53.872,26.78 53.53,26.816 Z M55.402,33.566 L53.494,33.566 C53.566,33.008 53.602,32.432 53.602,31.802 L53.602,29.138 C53.602,28.562 53.584,28.166 53.512,27.716 C53.962,27.752 54.232,27.77 54.916,27.77 L58.444,27.77 C59.146,27.77 59.344,27.77 59.65,27.716 C59.596,28.112 59.596,28.346 59.596,29.012 L59.596,32.036 C59.596,32.468 59.632,33.008 59.668,33.314 L57.832,33.314 L57.832,32.594 L55.402,32.594 L55.402,33.566 Z M55.366,29.3 L55.366,30.992 L57.832,30.992 L57.832,29.3 L55.366,29.3 Z M62.674,24.998 L62.674,30.578 C62.674,30.938 62.764,31.046 63.088,31.118 C63.43,31.19 63.97,31.226 64.672,31.226 C66.094,31.226 66.652,31.136 66.922,30.866 C67.192,30.596 67.318,29.786 67.354,27.932 C68.038,28.256 68.722,28.49 69.334,28.598 C69.19,30.686 68.992,31.604 68.506,32.252 C68.038,32.882 67.084,33.08 64.618,33.08 C61.324,33.08 60.676,32.792 60.676,31.262 L60.676,24.908 C60.676,24.044 60.658,23.702 60.604,23.144 C61.144,23.198 61.63,23.216 62.404,23.216 L66.454,23.216 L66.454,19.4 L62.296,19.4 C61.504,19.4 60.964,19.436 60.424,19.49 L60.424,17.456 C61,17.528 61.558,17.564 62.314,17.564 L66.67,17.564 C67.462,17.564 67.984,17.546 68.506,17.492 C68.452,18.122 68.434,18.446 68.434,19.31 L68.434,23.288 C68.434,24.044 68.452,24.548 68.506,25.07 C67.93,25.016 67.516,24.998 66.706,24.998 L62.674,24.998 Z M77.884,26.708 L77.884,25.916 L73.618,25.916 C72.97,25.916 72.448,25.934 71.962,25.988 L71.962,24.422 C72.394,24.476 72.862,24.494 73.654,24.494 L77.884,24.494 L77.884,23.81 L74.068,23.81 C73.42,23.81 72.97,23.828 72.556,23.864 C72.592,23.486 72.61,23.108 72.61,22.658 L72.61,21.47 C72.61,20.966 72.592,20.642 72.556,20.21 C73.024,20.246 73.402,20.264 74.086,20.264 L77.884,20.264 L77.884,19.58 L72.952,19.58 C72.07,19.58 71.476,19.616 70.846,19.688 L70.846,17.906 C71.404,17.978 72.016,18.014 73.06,18.014 L77.884,18.014 C77.866,17.384 77.848,17.186 77.776,16.79 L79.954,16.79 C79.864,17.186 79.846,17.366 79.828,18.014 L84.886,18.014 C85.93,18.014 86.524,17.978 87.1,17.906 L87.1,19.688 C86.488,19.616 85.858,19.58 84.994,19.58 L79.828,19.58 L79.828,20.264 L83.896,20.264 C84.58,20.264 84.976,20.246 85.408,20.21 C85.372,20.606 85.354,20.912 85.354,21.47 L85.354,22.658 C85.354,23.198 85.372,23.468 85.408,23.864 C85.012,23.828 84.544,23.81 83.968,23.81 L79.828,23.81 L79.828,24.494 L83.86,24.494 C84.922,24.494 85.282,24.476 85.786,24.44 C85.732,24.89 85.732,25.142 85.732,26.078 L85.732,26.708 C86.506,26.708 86.938,26.672 87.298,26.618 L87.298,28.328 C86.866,28.274 86.524,28.238 85.732,28.238 L85.732,29.282 C85.732,30.218 85.75,30.704 85.822,31.226 L83.806,31.226 L83.806,30.524 L79.828,30.524 L79.828,31.532 C79.828,33.152 79.378,33.494 77.182,33.494 C76.75,33.494 76.03,33.458 75.454,33.422 C75.346,32.702 75.238,32.342 74.896,31.64 C75.868,31.748 76.534,31.802 77.182,31.802 C77.74,31.802 77.884,31.712 77.884,31.388 L77.884,30.524 L73.654,30.524 C72.844,30.524 72.412,30.542 71.872,30.614 L71.872,28.94 C72.358,28.994 72.664,29.012 73.582,29.012 L77.884,29.012 L77.884,28.238 L72.718,28.238 C71.692,28.238 71.206,28.256 70.738,28.328 L70.738,26.618 C71.206,26.69 71.656,26.708 72.682,26.708 L77.884,26.708 Z M79.828,26.708 L83.806,26.708 L83.806,25.916 L79.828,25.916 L79.828,26.708 Z M79.828,28.238 L79.828,29.012 L83.806,29.012 L83.806,28.238 L79.828,28.238 Z M77.884,21.668 L74.518,21.668 L74.518,22.406 L77.884,22.406 L77.884,21.668 Z M79.828,21.668 L79.828,22.406 L83.446,22.406 L83.446,21.668 L79.828,21.668 Z" id="新着記事" fill="#298538"></path>
            <path d="M140.75,159.31 L140.876,158.344 C141.436,158.596 142.318,158.778 143.382,158.904 C143.452,158.218 143.592,157.126 143.704,156.384 C143.046,156.3 142.444,156.202 141.618,156.006 C141.436,155.964 141.38,155.95 141.184,155.908 L141.31,154.984 C141.912,155.236 142.85,155.446 143.83,155.53 C144.054,154.186 144.166,153.262 144.166,152.898 L144.166,152.786 L145.286,152.912 C145.202,153.178 145.16,153.346 145.062,153.85 C145.048,153.976 145.048,153.976 144.922,154.746 C144.88,155.054 144.852,155.194 144.782,155.586 C145.174,155.6 145.37,155.6 145.594,155.6 C146.644,155.6 147.526,155.516 148.156,155.362 L148.114,156.328 C147.834,156.356 147.834,156.356 147.134,156.412 C146.7,156.454 146.28,156.468 145.874,156.468 C145.65,156.468 145.412,156.468 144.642,156.44 C144.418,158.05 144.404,158.19 144.32,158.974 C144.852,158.988 145.048,158.988 145.244,158.988 C146.252,158.988 147.274,158.904 147.82,158.764 L147.792,159.702 C147.652,159.716 147.61,159.716 147.414,159.73 C146.7,159.814 146.098,159.842 145.44,159.842 C145.09,159.842 144.866,159.842 144.236,159.814 C144.236,159.912 144.236,159.912 144.222,160.094 C144.194,160.43 144.166,160.892 144.166,161.13 C144.166,161.9 144.376,162.432 144.81,162.81 C145.258,163.202 145.93,163.412 146.784,163.412 C148.66,163.412 149.878,162.446 149.878,160.962 C149.878,160.08 149.444,159.296 148.548,158.526 C149.01,158.47 149.164,158.428 149.57,158.246 C150.564,159.324 150.886,160.01 150.886,161.032 C150.886,163.006 149.234,164.336 146.784,164.336 C145.314,164.336 144.194,163.832 143.648,162.936 C143.368,162.474 143.214,161.802 143.214,161.004 C143.214,160.71 143.228,160.43 143.27,160.08 C143.284,159.87 143.284,159.87 143.298,159.744 C142.458,159.66 141.814,159.548 141.184,159.394 C140.96,159.324 140.918,159.324 140.75,159.31 Z M155.548,159.338 L155.296,158.316 C155.646,158.288 155.716,158.274 156.584,158.064 C158.418,157.63 159.65,157.448 160.854,157.448 C162.296,157.448 163.29,157.882 163.822,158.75 C164.102,159.198 164.256,159.772 164.256,160.346 C164.256,161.914 162.996,163.342 161.05,163.958 C160.196,164.224 159.86,164.28 158.166,164.49 C158.082,164.098 158.026,163.958 157.802,163.524 C157.886,163.538 157.942,163.538 157.998,163.538 C158.866,163.538 159.958,163.37 160.756,163.104 C162.352,162.586 163.318,161.522 163.318,160.276 C163.318,159.002 162.422,158.316 160.728,158.316 C159.79,158.316 158.712,158.484 157.046,158.876 C156.192,159.072 155.968,159.142 155.548,159.338 Z M171.34,153.01 L172.446,152.8 C172.502,153.738 173.02,156.034 173.496,157.434 C174.322,157.098 174.714,156.944 176.884,156.188 C177.374,156.006 177.5,155.964 177.78,155.824 L178.2,156.888 C177.22,157.098 175.218,157.742 173.986,158.246 C171.592,159.198 170.556,160.122 170.556,161.284 C170.556,162.558 171.634,163.048 174.378,163.048 C175.988,163.048 177.556,162.866 178.382,162.572 L178.494,163.734 C178.228,163.734 178.228,163.734 177.458,163.818 C176.016,163.958 175.344,164 174.364,164 C172.978,164 171.928,163.874 171.256,163.622 C170.108,163.202 169.52,162.432 169.52,161.326 C169.52,160.43 169.94,159.618 170.766,158.946 C171.298,158.512 171.732,158.246 172.6,157.812 C172.208,156.664 171.942,155.684 171.578,153.892 C171.452,153.304 171.424,153.234 171.34,153.01 Z M186.068,160.962 L185.158,160.962 C184.374,160.962 184.01,160.976 183.576,161.004 C183.632,160.57 183.646,160.178 183.646,159.534 L183.646,154.788 C183.646,153.976 183.618,153.234 183.576,152.926 C184.038,152.982 184.472,152.996 185.074,152.996 L190.926,152.996 C191.5,152.996 192.018,152.968 192.424,152.926 C192.382,153.22 192.354,154.004 192.354,154.788 L192.354,159.534 C192.354,160.192 192.368,160.584 192.424,161.004 C192.032,160.976 191.612,160.962 190.856,160.962 L189.638,160.962 L189.638,163.496 C189.638,163.93 189.778,163.972 191.206,163.972 C192.536,163.972 192.858,163.916 193.054,163.622 C193.208,163.384 193.306,162.88 193.39,161.788 C193.782,161.998 193.992,162.082 194.272,162.166 C193.95,164.672 193.796,164.798 191.136,164.798 C189.988,164.798 189.358,164.728 189.078,164.56 C188.826,164.406 188.742,164.224 188.742,163.776 L188.742,160.962 L187.034,160.962 C186.838,162.124 186.502,162.838 185.802,163.51 C184.976,164.308 183.954,164.784 182.218,165.162 C182.078,164.812 181.966,164.616 181.728,164.322 C182.792,164.126 183.282,164 183.87,163.734 C184.836,163.314 185.494,162.698 185.816,161.928 C185.942,161.634 185.97,161.536 186.068,160.962 Z M184.514,153.822 L184.514,155.348 L191.486,155.348 L191.486,153.822 L184.514,153.822 Z M184.514,156.132 L184.514,157.742 L191.486,157.742 L191.486,156.132 L184.514,156.132 Z M184.514,158.526 L184.514,160.192 L191.486,160.192 L191.486,158.526 L184.514,158.526 Z M198.374,154.62 L198.318,153.57 C198.71,153.64 198.962,153.654 199.634,153.654 C200.796,153.654 202.658,153.57 203.918,153.472 C204.282,153.444 204.408,153.416 204.59,153.318 L205.178,154.088 C204.982,154.186 204.912,154.242 204.464,154.676 C202.532,156.566 200.838,158.022 199.858,158.652 L199.886,158.694 C200.95,158.12 202.084,157.826 203.316,157.826 C205.654,157.826 207.152,158.974 207.152,160.766 C207.152,162.95 205.122,164.392 202.014,164.392 C200.04,164.392 198.906,163.664 198.906,162.376 C198.906,161.438 199.774,160.738 200.936,160.738 C201.874,160.738 202.686,161.144 203.246,161.886 C203.54,162.278 203.694,162.614 203.89,163.23 C205.36,162.824 206.13,161.97 206.13,160.78 C206.13,159.436 205.01,158.638 203.12,158.638 C201.062,158.638 198.85,159.534 197.226,161.032 L196.596,160.136 C197.1,159.842 197.604,159.478 198.556,158.708 C200.054,157.518 202.266,155.572 203.232,154.62 L203.54,154.312 L203.512,154.284 C203.47,154.284 203.47,154.284 203.386,154.298 C202.938,154.382 201.258,154.48 199.13,154.55 C198.822,154.564 198.682,154.578 198.374,154.62 Z M202.966,163.482 C202.658,162.208 201.958,161.536 200.95,161.536 C200.25,161.536 199.816,161.872 199.816,162.404 C199.816,162.768 199.998,163.034 200.376,163.258 C200.74,163.454 201.342,163.58 201.944,163.58 C202.294,163.58 202.462,163.566 202.966,163.482 Z" id="もっと見る" fill="#757575"></path>
            <path d="M214.421387,163.908203 C214.273274,163.76009 214.201335,163.582358 214.205566,163.375 C214.209798,163.167642 214.290201,162.98991 214.446777,162.841797 L218.940918,158.5 L214.446777,154.158203 C214.290201,154.01009 214.209798,153.832358 214.205566,153.625 C214.201335,153.417642 214.273274,153.23991 214.421387,153.091797 C214.565268,152.935221 214.747232,152.856934 214.967285,152.856934 C215.183107,152.856934 215.360839,152.926757 215.500488,153.066406 L220.553223,157.954102 C220.709799,158.097982 220.788086,158.279947 220.788086,158.5 C220.788086,158.720053 220.709799,158.902018 220.553223,159.045898 L215.500488,163.933594 C215.343912,164.081706 215.163006,164.152588 214.957764,164.14624 C214.752522,164.139893 214.573731,164.060548 214.421387,163.908203 Z" id="&gt;" fill="#AAAAAA"></path>
        </g>
        <g id="Group" transform="translate(16.000000, 396.000000)">
            <rect id="Rectangle-2" fill="#FFFFFF" x="0" y="0" width="240" height="182"></rect>
            <rect id="Rectangle-16" fill="#E2E2E2" x="16" y="50" width="208" height="18"></rect>
            <rect id="Rectangle-16" fill="#E2E2E2" x="16" y="84" width="208" height="18"></rect>
            <path d="M21.562,19.778 L21.562,23.414 C24.28,22.91 28.258,21.308 29.428,20.21 L30.868,22.244 C30.67,22.316 30.634,22.334 30.49,22.406 L30.022,22.64 C27.358,24.008 24.568,24.944 21.562,25.502 L21.562,27.878 C21.544,27.986 21.544,28.094 21.544,28.166 C21.544,29.174 21.616,29.57 21.868,29.822 C22.174,30.128 23.2,30.29 24.946,30.29 C26.152,30.29 27.808,30.182 29.122,30.002 C29.986,29.894 30.382,29.804 31.174,29.57 L31.282,31.964 C30.904,31.964 30.814,31.982 28.906,32.162 C27.844,32.27 25.576,32.378 24.478,32.378 C22.21,32.378 20.968,32.144 20.266,31.604 C19.762,31.226 19.492,30.65 19.384,29.768 C19.348,29.462 19.33,29.156 19.33,28.112 L19.312,19.76 C19.312,18.842 19.312,18.554 19.24,18.104 L21.652,18.104 C21.58,18.536 21.562,18.86 21.562,19.778 Z M31.93,16.592 C33.082,16.592 34.018,17.528 34.018,18.662 C34.018,19.814 33.082,20.75 31.93,20.75 C30.796,20.75 29.86,19.814 29.86,18.662 C29.86,17.528 30.796,16.592 31.93,16.592 Z M31.93,17.492 C31.282,17.492 30.76,18.014 30.76,18.662 C30.76,19.31 31.282,19.85 31.93,19.85 C32.596,19.85 33.118,19.31 33.118,18.662 C33.118,18.014 32.596,17.492 31.93,17.492 Z M36.61,22.208 L38.518,21.65 C39.274,23.036 39.634,23.9 40.282,25.916 L38.248,26.564 C37.78,24.746 37.42,23.792 36.61,22.208 Z M40.462,21.452 L42.352,20.912 C43.306,22.694 43.648,23.486 44.098,25.052 L42.1,25.682 C41.758,24.314 41.218,22.928 40.462,21.452 Z M46.654,21.272 L48.85,21.776 C48.742,22.046 48.706,22.136 48.598,22.694 C48.076,25.142 47.266,27.122 46.114,28.688 C44.782,30.506 43.288,31.676 40.624,33.026 C40.156,32.234 39.94,31.964 39.184,31.244 C40.444,30.758 41.182,30.362 42.244,29.588 C44.35,28.058 45.556,26.222 46.33,23.342 C46.564,22.46 46.654,21.83 46.654,21.272 Z M66.328,19.346 L67.48,20.48 C67.3,20.75 67.228,20.912 67.03,21.56 C66.202,24.296 64.924,26.726 63.34,28.508 C61.684,30.398 59.704,31.802 56.932,33.08 C56.428,32.18 56.194,31.874 55.402,31.19 C57.202,30.452 58.21,29.912 59.344,29.066 C61.918,27.158 63.61,24.692 64.6,21.47 L59.182,21.56 C58.084,23.306 56.68,24.854 54.97,26.168 C54.43,25.43 54.16,25.196 53.224,24.62 C55.276,23.216 56.572,21.776 57.886,19.4 C58.444,18.374 58.732,17.672 58.804,17.024 L61.27,17.51 C61.162,17.672 61.162,17.672 60.964,18.068 C60.91,18.158 60.91,18.158 60.73,18.572 L60.496,19.04 C60.388,19.292 60.388,19.292 60.208,19.616 C60.442,19.598 60.73,19.58 61.072,19.58 L65.014,19.526 C65.716,19.526 65.914,19.49 66.328,19.346 Z M85.372,18.23 L86.578,19.598 C86.326,19.904 86.326,19.922 85.858,20.858 C85.228,22.19 84.184,23.54 83.086,24.476 C82.366,25.106 81.772,25.502 80.926,25.97 C80.386,25.214 80.116,24.944 79.306,24.332 C80.512,23.792 81.196,23.378 81.934,22.676 C82.672,21.992 83.23,21.254 83.644,20.39 L74.194,20.39 C72.934,20.39 72.484,20.408 71.746,20.498 L71.746,18.248 C72.43,18.356 72.988,18.392 74.23,18.392 L83.626,18.392 C84.706,18.392 84.868,18.374 85.372,18.23 Z M76.822,21.866 L79.27,21.866 C79.216,22.208 79.216,22.226 79.198,23.324 C79.126,26.402 78.64,28.13 77.416,29.696 C76.336,31.082 75.022,32 72.772,32.936 C72.304,31.964 72.07,31.64 71.35,30.884 C72.808,30.452 73.618,30.056 74.5,29.354 C76.336,27.896 76.912,26.348 76.912,22.946 C76.912,22.406 76.894,22.244 76.822,21.866 Z M90.61,22.208 L92.518,21.65 C93.274,23.036 93.634,23.9 94.282,25.916 L92.248,26.564 C91.78,24.746 91.42,23.792 90.61,22.208 Z M94.462,21.452 L96.352,20.912 C97.306,22.694 97.648,23.486 98.098,25.052 L96.1,25.682 C95.758,24.314 95.218,22.928 94.462,21.452 Z M100.654,21.272 L102.85,21.776 C102.742,22.046 102.706,22.136 102.598,22.694 C102.076,25.142 101.266,27.122 100.114,28.688 C98.782,30.506 97.288,31.676 94.624,33.026 C94.156,32.234 93.94,31.964 93.184,31.244 C94.444,30.758 95.182,30.362 96.244,29.588 C98.35,28.058 99.556,26.222 100.33,23.342 C100.564,22.46 100.654,21.83 100.654,21.272 Z M109.996,18.914 L118.258,18.914 C118.798,18.914 119.014,18.896 119.32,18.878 C119.338,17.708 120.238,16.79 121.39,16.79 C122.542,16.79 123.478,17.726 123.478,18.86 C123.478,20.012 122.542,20.948 121.39,20.948 C121.282,20.948 121.174,20.93 121.048,20.912 C119.59,26.798 116.404,30.47 110.716,32.846 C110.248,31.91 109.942,31.496 109.132,30.704 C114.118,29.156 117.376,25.808 118.528,21.02 L109.96,21.02 C108.628,21.02 108.286,21.038 107.692,21.128 L107.692,18.788 C108.34,18.896 108.772,18.914 109.996,18.914 Z M121.39,17.69 C120.742,17.69 120.22,18.212 120.22,18.86 C120.22,19.508 120.742,20.048 121.39,20.048 C122.056,20.048 122.578,19.508 122.578,18.86 C122.578,18.212 122.056,17.69 121.39,17.69 Z" id="ピックアップ" fill="#298538"></path>
        </g>
        <g id="Group-2" transform="translate(272.000000, 132.000000)">
            <g id="Rectangle-9">
                <use fill="black" fill-opacity="1" filter="url(#filter-4)" xlink:href="#path-3"></use>
                <use fill="#444444" fill-rule="evenodd" xlink:href="#path-3"></use>
            </g>
            <path d="M19.672,25.798 L22.12,25.816 C22.048,26.32 22.048,26.482 22.048,27.436 L22.048,32.404 C22.048,33.304 22.048,33.538 22.12,33.988 L19.654,33.988 C19.708,33.574 19.744,33.016 19.744,32.368 L19.744,27.418 C19.744,26.5 19.726,26.266 19.672,25.798 Z M27.79,25.834 L30.292,25.834 C30.22,26.284 30.202,26.482 30.202,27.508 L30.202,29.938 C30.184,32.746 30.058,34.258 29.734,35.392 C29.212,37.192 28.06,38.542 26.188,39.586 C25.234,40.126 24.334,40.486 22.678,40.972 C22.354,40.09 22.174,39.784 21.418,38.83 C23.182,38.488 24.226,38.11 25.306,37.39 C26.998,36.274 27.592,35.176 27.79,32.8 C27.862,32.026 27.88,31.234 27.88,29.794 L27.88,27.544 C27.88,26.626 27.862,26.248 27.79,25.834 Z M36.196,28.444 L37.69,26.662 C39.832,27.994 40.948,28.822 42.334,30.136 L40.786,32.098 C39.346,30.568 37.87,29.38 36.196,28.444 Z M36.826,40.324 L36.16,37.84 C37.708,37.75 39.85,37.228 41.488,36.508 C43.738,35.536 45.412,34.15 46.834,32.098 C47.626,30.946 48.13,29.956 48.67,28.498 C49.372,29.344 49.66,29.614 50.578,30.262 C49.048,33.556 47.338,35.68 44.872,37.318 C43.036,38.542 40.804,39.424 38.014,40.018 C37.294,40.162 37.24,40.18 36.826,40.324 Z M66.598,27.346 L67.75,28.48 C67.57,28.75 67.498,28.912 67.3,29.56 C66.472,32.296 65.194,34.726 63.61,36.508 C61.954,38.398 59.974,39.802 57.202,41.08 C56.698,40.18 56.464,39.874 55.672,39.19 C57.472,38.452 58.48,37.912 59.614,37.066 C62.188,35.158 63.88,32.692 64.87,29.47 L59.452,29.56 C58.354,31.306 56.95,32.854 55.24,34.168 C54.7,33.43 54.43,33.196 53.494,32.62 C55.546,31.216 56.842,29.776 58.156,27.4 C58.714,26.374 59.002,25.672 59.074,25.024 L61.54,25.51 C61.432,25.672 61.432,25.672 61.234,26.068 C61.18,26.158 61.18,26.158 61,26.572 L60.766,27.04 C60.658,27.292 60.658,27.292 60.478,27.616 C60.712,27.598 61,27.58 61.342,27.58 L65.284,27.526 C65.986,27.526 66.184,27.49 66.598,27.346 Z M87.082,31.666 L87.082,34.042 C86.254,33.952 85.426,33.916 84.346,33.916 L73.69,33.916 C72.682,33.916 71.746,33.97 70.936,34.042 L70.936,31.666 C71.71,31.756 72.52,31.792 73.69,31.792 L84.346,31.792 C85.552,31.792 86.38,31.756 87.082,31.666 Z M94.876,29.812 L94.876,30.406 L95.956,30.406 C96.694,30.406 97.162,30.388 97.432,30.334 L97.432,31.558 C96.946,31.522 96.604,31.504 95.956,31.504 L90.97,31.504 C90.394,31.504 90.07,31.522 89.566,31.558 C89.602,31.072 89.62,30.658 89.62,29.758 L89.62,27.112 C89.62,26.266 89.602,25.69 89.548,25.276 C89.998,25.312 90.484,25.33 91.384,25.33 L95.686,25.33 C96.496,25.33 96.946,25.312 97.414,25.24 L97.414,26.662 C97.036,26.626 96.622,26.608 95.992,26.608 L94.876,26.608 L94.876,27.184 L95.812,27.184 C96.37,27.184 96.766,27.166 97.018,27.148 C96.982,27.4 96.982,27.436 96.964,28.012 C98.062,27.076 98.656,26.158 99.034,24.844 L100.924,25.204 C100.69,25.744 100.6,25.942 100.438,26.248 L103.426,26.248 C104.092,26.248 104.578,26.212 105.01,26.158 L105.01,27.904 C104.56,27.832 104.074,27.814 103.426,27.814 L99.52,27.814 C98.962,28.606 98.584,29.02 97.81,29.704 C97.504,29.272 97.396,29.128 96.964,28.678 L96.964,28.984 C96.964,29.434 96.982,29.56 97.018,29.848 C96.658,29.83 96.334,29.812 95.74,29.812 L94.876,29.812 Z M93.238,29.812 L91.33,29.812 L91.33,30.406 L93.238,30.406 L93.238,29.812 Z M91.33,28.768 L95.344,28.768 L95.344,28.228 L91.33,28.228 L91.33,28.768 Z M91.33,27.184 L93.238,27.184 L93.238,26.608 L91.33,26.608 L91.33,27.184 Z M93.868,38.434 L93.04,38.434 C92.32,38.434 91.474,38.452 91.132,38.488 C91.168,38.182 91.204,37.426 91.204,36.688 L91.204,33.214 C91.204,32.656 91.204,32.422 91.168,31.918 C91.528,31.954 92.104,31.972 92.968,31.972 L101.248,31.972 C102.148,31.972 102.508,31.954 102.994,31.9 C102.958,32.296 102.94,32.566 102.94,33.196 L102.94,36.58 C102.94,37.39 102.976,38.236 103.012,38.488 C102.652,38.452 101.896,38.434 101.122,38.434 L99.556,38.434 L99.556,39.244 C99.556,39.712 99.754,39.784 101.158,39.784 C102.652,39.784 103.12,39.712 103.336,39.46 C103.48,39.28 103.552,38.83 103.606,37.768 C104.308,38.11 104.758,38.254 105.388,38.38 C105.226,39.856 105.01,40.486 104.56,40.846 C104.11,41.224 103.282,41.35 101.158,41.35 C98.242,41.35 97.666,41.116 97.666,39.946 L97.666,38.434 L95.956,38.434 C95.092,40.396 93.058,41.44 89.782,41.584 C89.512,40.864 89.368,40.558 88.882,39.82 C89.116,39.838 89.296,39.838 89.422,39.838 C91.546,39.838 93.058,39.352 93.868,38.434 Z M93.058,33.142 L93.058,33.736 L101.068,33.736 L101.068,33.142 L93.058,33.142 Z M93.058,34.816 L93.058,35.428 L101.068,35.428 L101.068,34.816 L93.058,34.816 Z M93.058,36.508 L93.058,37.156 L101.068,37.156 L101.068,36.508 L93.058,36.508 Z M98.548,30.748 L98.548,29.092 C98.854,29.146 99.43,29.164 99.988,29.164 L102.868,29.164 C103.606,29.164 104.038,29.146 104.434,29.092 L104.434,30.748 C103.984,30.694 103.606,30.676 102.886,30.676 L100.096,30.676 C99.412,30.676 98.944,30.694 98.548,30.748 Z" id="リンク一覧" fill="#FFFFFF"></path>
            <path d="M24,64.608 C24.72,64.608 25.312,65.2 25.312,65.92 C25.312,66.64 24.72,67.232 24,67.232 C23.28,67.232 22.688,66.64 22.688,65.92 C22.688,65.2 23.28,64.608 24,64.608 Z M34,66.64 L34.144,65.536 C34.784,65.824 35.792,66.032 37.008,66.176 C37.088,65.392 37.248,64.144 37.376,63.296 C36.624,63.2 35.936,63.088 34.992,62.864 C34.784,62.816 34.72,62.8 34.496,62.752 L34.64,61.696 C35.328,61.984 36.4,62.224 37.52,62.32 C37.776,60.784 37.904,59.728 37.904,59.312 L37.904,59.184 L39.184,59.328 C39.088,59.632 39.04,59.824 38.928,60.4 C38.912,60.544 38.912,60.544 38.768,61.424 C38.72,61.776 38.688,61.936 38.608,62.384 C39.056,62.4 39.28,62.4 39.536,62.4 C40.736,62.4 41.744,62.304 42.464,62.128 L42.416,63.232 C42.096,63.264 42.096,63.264 41.296,63.328 C40.8,63.376 40.32,63.392 39.856,63.392 C39.6,63.392 39.328,63.392 38.448,63.36 C38.192,65.2 38.176,65.36 38.08,66.256 C38.688,66.272 38.912,66.272 39.136,66.272 C40.288,66.272 41.456,66.176 42.08,66.016 L42.048,67.088 C41.888,67.104 41.84,67.104 41.616,67.12 C40.8,67.216 40.112,67.248 39.36,67.248 C38.96,67.248 38.704,67.248 37.984,67.216 C37.984,67.328 37.984,67.328 37.968,67.536 C37.936,67.92 37.904,68.448 37.904,68.72 C37.904,69.6 38.144,70.208 38.64,70.64 C39.152,71.088 39.92,71.328 40.896,71.328 C43.04,71.328 44.432,70.224 44.432,68.528 C44.432,67.52 43.936,66.624 42.912,65.744 C43.44,65.68 43.616,65.632 44.08,65.424 C45.216,66.656 45.584,67.44 45.584,68.608 C45.584,70.864 43.696,72.384 40.896,72.384 C39.216,72.384 37.936,71.808 37.312,70.784 C36.992,70.256 36.816,69.488 36.816,68.576 C36.816,68.24 36.832,67.92 36.88,67.52 C36.896,67.28 36.896,67.28 36.912,67.136 C35.952,67.04 35.216,66.912 34.496,66.736 C34.24,66.656 34.192,66.656 34,66.64 Z M50.912,66.672 L50.624,65.504 C51.024,65.472 51.104,65.456 52.096,65.216 C54.192,64.72 55.6,64.512 56.976,64.512 C58.624,64.512 59.76,65.008 60.368,66 C60.688,66.512 60.864,67.168 60.864,67.824 C60.864,69.616 59.424,71.248 57.2,71.952 C56.224,72.256 55.84,72.32 53.904,72.56 C53.808,72.112 53.744,71.952 53.488,71.456 C53.584,71.472 53.648,71.472 53.712,71.472 C54.704,71.472 55.952,71.28 56.864,70.976 C58.688,70.384 59.792,69.168 59.792,67.744 C59.792,66.288 58.768,65.504 56.832,65.504 C55.76,65.504 54.528,65.696 52.624,66.144 C51.648,66.368 51.392,66.448 50.912,66.672 Z M68.96,59.44 L70.224,59.2 C70.288,60.272 70.88,62.896 71.424,64.496 C72.368,64.112 72.816,63.936 75.296,63.072 C75.856,62.864 76,62.816 76.32,62.656 L76.8,63.872 C75.68,64.112 73.392,64.848 71.984,65.424 C69.248,66.512 68.064,67.568 68.064,68.896 C68.064,70.352 69.296,70.912 72.432,70.912 C74.272,70.912 76.064,70.704 77.008,70.368 L77.136,71.696 C76.832,71.696 76.832,71.696 75.952,71.792 C74.304,71.952 73.536,72 72.416,72 C70.832,72 69.632,71.856 68.864,71.568 C67.552,71.088 66.88,70.208 66.88,68.944 C66.88,67.92 67.36,66.992 68.304,66.224 C68.912,65.728 69.408,65.424 70.4,64.928 C69.952,63.616 69.648,62.496 69.232,60.448 C69.088,59.776 69.056,59.696 68.96,59.44 Z M85.792,68.528 L84.752,68.528 C83.856,68.528 83.44,68.544 82.944,68.576 C83.008,68.08 83.024,67.632 83.024,66.896 L83.024,61.472 C83.024,60.544 82.992,59.696 82.944,59.344 C83.472,59.408 83.968,59.424 84.656,59.424 L91.344,59.424 C92,59.424 92.592,59.392 93.056,59.344 C93.008,59.68 92.976,60.576 92.976,61.472 L92.976,66.896 C92.976,67.648 92.992,68.096 93.056,68.576 C92.608,68.544 92.128,68.528 91.264,68.528 L89.872,68.528 L89.872,71.424 C89.872,71.92 90.032,71.968 91.664,71.968 C93.184,71.968 93.552,71.904 93.776,71.568 C93.952,71.296 94.064,70.72 94.16,69.472 C94.608,69.712 94.848,69.808 95.168,69.904 C94.8,72.768 94.624,72.912 91.584,72.912 C90.272,72.912 89.552,72.832 89.232,72.64 C88.944,72.464 88.848,72.256 88.848,71.744 L88.848,68.528 L86.896,68.528 C86.672,69.856 86.288,70.672 85.488,71.44 C84.544,72.352 83.376,72.896 81.392,73.328 C81.232,72.928 81.104,72.704 80.832,72.368 C82.048,72.144 82.608,72 83.28,71.696 C84.384,71.216 85.136,70.512 85.504,69.632 C85.648,69.296 85.68,69.184 85.792,68.528 Z M84.016,60.368 L84.016,62.112 L91.984,62.112 L91.984,60.368 L84.016,60.368 Z M84.016,63.008 L84.016,64.848 L91.984,64.848 L91.984,63.008 L84.016,63.008 Z M84.016,65.744 L84.016,67.648 L91.984,67.648 L91.984,65.744 L84.016,65.744 Z M99.856,61.28 L99.792,60.08 C100.24,60.16 100.528,60.176 101.296,60.176 C102.624,60.176 104.752,60.08 106.192,59.968 C106.608,59.936 106.752,59.904 106.96,59.792 L107.632,60.672 C107.408,60.784 107.328,60.848 106.816,61.344 C104.608,63.504 102.672,65.168 101.552,65.888 L101.584,65.936 C102.8,65.28 104.096,64.944 105.504,64.944 C108.176,64.944 109.888,66.256 109.888,68.304 C109.888,70.8 107.568,72.448 104.016,72.448 C101.76,72.448 100.464,71.616 100.464,70.144 C100.464,69.072 101.456,68.272 102.784,68.272 C103.856,68.272 104.784,68.736 105.424,69.584 C105.76,70.032 105.936,70.416 106.16,71.12 C107.84,70.656 108.72,69.68 108.72,68.32 C108.72,66.784 107.44,65.872 105.28,65.872 C102.928,65.872 100.4,66.896 98.544,68.608 L97.824,67.584 C98.4,67.248 98.976,66.832 100.064,65.952 C101.776,64.592 104.304,62.368 105.408,61.28 L105.76,60.928 L105.728,60.896 C105.68,60.896 105.68,60.896 105.584,60.912 C105.072,61.008 103.152,61.12 100.72,61.2 C100.368,61.216 100.208,61.232 99.856,61.28 Z M105.104,71.408 C104.752,69.952 103.952,69.184 102.8,69.184 C102,69.184 101.504,69.568 101.504,70.176 C101.504,70.592 101.712,70.896 102.144,71.152 C102.56,71.376 103.248,71.52 103.936,71.52 C104.336,71.52 104.528,71.504 105.104,71.408 Z" id="・もっと見る" fill="#FFFFFF"></path>
            <path d="M24,96.608 C24.72,96.608 25.312,97.2 25.312,97.92 C25.312,98.64 24.72,99.232 24,99.232 C23.28,99.232 22.688,98.64 22.688,97.92 C22.688,97.2 23.28,96.608 24,96.608 Z M34,98.64 L34.144,97.536 C34.784,97.824 35.792,98.032 37.008,98.176 C37.088,97.392 37.248,96.144 37.376,95.296 C36.624,95.2 35.936,95.088 34.992,94.864 C34.784,94.816 34.72,94.8 34.496,94.752 L34.64,93.696 C35.328,93.984 36.4,94.224 37.52,94.32 C37.776,92.784 37.904,91.728 37.904,91.312 L37.904,91.184 L39.184,91.328 C39.088,91.632 39.04,91.824 38.928,92.4 C38.912,92.544 38.912,92.544 38.768,93.424 C38.72,93.776 38.688,93.936 38.608,94.384 C39.056,94.4 39.28,94.4 39.536,94.4 C40.736,94.4 41.744,94.304 42.464,94.128 L42.416,95.232 C42.096,95.264 42.096,95.264 41.296,95.328 C40.8,95.376 40.32,95.392 39.856,95.392 C39.6,95.392 39.328,95.392 38.448,95.36 C38.192,97.2 38.176,97.36 38.08,98.256 C38.688,98.272 38.912,98.272 39.136,98.272 C40.288,98.272 41.456,98.176 42.08,98.016 L42.048,99.088 C41.888,99.104 41.84,99.104 41.616,99.12 C40.8,99.216 40.112,99.248 39.36,99.248 C38.96,99.248 38.704,99.248 37.984,99.216 C37.984,99.328 37.984,99.328 37.968,99.536 C37.936,99.92 37.904,100.448 37.904,100.72 C37.904,101.6 38.144,102.208 38.64,102.64 C39.152,103.088 39.92,103.328 40.896,103.328 C43.04,103.328 44.432,102.224 44.432,100.528 C44.432,99.52 43.936,98.624 42.912,97.744 C43.44,97.68 43.616,97.632 44.08,97.424 C45.216,98.656 45.584,99.44 45.584,100.608 C45.584,102.864 43.696,104.384 40.896,104.384 C39.216,104.384 37.936,103.808 37.312,102.784 C36.992,102.256 36.816,101.488 36.816,100.576 C36.816,100.24 36.832,99.92 36.88,99.52 C36.896,99.28 36.896,99.28 36.912,99.136 C35.952,99.04 35.216,98.912 34.496,98.736 C34.24,98.656 34.192,98.656 34,98.64 Z M50.912,98.672 L50.624,97.504 C51.024,97.472 51.104,97.456 52.096,97.216 C54.192,96.72 55.6,96.512 56.976,96.512 C58.624,96.512 59.76,97.008 60.368,98 C60.688,98.512 60.864,99.168 60.864,99.824 C60.864,101.616 59.424,103.248 57.2,103.952 C56.224,104.256 55.84,104.32 53.904,104.56 C53.808,104.112 53.744,103.952 53.488,103.456 C53.584,103.472 53.648,103.472 53.712,103.472 C54.704,103.472 55.952,103.28 56.864,102.976 C58.688,102.384 59.792,101.168 59.792,99.744 C59.792,98.288 58.768,97.504 56.832,97.504 C55.76,97.504 54.528,97.696 52.624,98.144 C51.648,98.368 51.392,98.448 50.912,98.672 Z M68.96,91.44 L70.224,91.2 C70.288,92.272 70.88,94.896 71.424,96.496 C72.368,96.112 72.816,95.936 75.296,95.072 C75.856,94.864 76,94.816 76.32,94.656 L76.8,95.872 C75.68,96.112 73.392,96.848 71.984,97.424 C69.248,98.512 68.064,99.568 68.064,100.896 C68.064,102.352 69.296,102.912 72.432,102.912 C74.272,102.912 76.064,102.704 77.008,102.368 L77.136,103.696 C76.832,103.696 76.832,103.696 75.952,103.792 C74.304,103.952 73.536,104 72.416,104 C70.832,104 69.632,103.856 68.864,103.568 C67.552,103.088 66.88,102.208 66.88,100.944 C66.88,99.92 67.36,98.992 68.304,98.224 C68.912,97.728 69.408,97.424 70.4,96.928 C69.952,95.616 69.648,94.496 69.232,92.448 C69.088,91.776 69.056,91.696 68.96,91.44 Z M85.792,100.528 L84.752,100.528 C83.856,100.528 83.44,100.544 82.944,100.576 C83.008,100.08 83.024,99.632 83.024,98.896 L83.024,93.472 C83.024,92.544 82.992,91.696 82.944,91.344 C83.472,91.408 83.968,91.424 84.656,91.424 L91.344,91.424 C92,91.424 92.592,91.392 93.056,91.344 C93.008,91.68 92.976,92.576 92.976,93.472 L92.976,98.896 C92.976,99.648 92.992,100.096 93.056,100.576 C92.608,100.544 92.128,100.528 91.264,100.528 L89.872,100.528 L89.872,103.424 C89.872,103.92 90.032,103.968 91.664,103.968 C93.184,103.968 93.552,103.904 93.776,103.568 C93.952,103.296 94.064,102.72 94.16,101.472 C94.608,101.712 94.848,101.808 95.168,101.904 C94.8,104.768 94.624,104.912 91.584,104.912 C90.272,104.912 89.552,104.832 89.232,104.64 C88.944,104.464 88.848,104.256 88.848,103.744 L88.848,100.528 L86.896,100.528 C86.672,101.856 86.288,102.672 85.488,103.44 C84.544,104.352 83.376,104.896 81.392,105.328 C81.232,104.928 81.104,104.704 80.832,104.368 C82.048,104.144 82.608,104 83.28,103.696 C84.384,103.216 85.136,102.512 85.504,101.632 C85.648,101.296 85.68,101.184 85.792,100.528 Z M84.016,92.368 L84.016,94.112 L91.984,94.112 L91.984,92.368 L84.016,92.368 Z M84.016,95.008 L84.016,96.848 L91.984,96.848 L91.984,95.008 L84.016,95.008 Z M84.016,97.744 L84.016,99.648 L91.984,99.648 L91.984,97.744 L84.016,97.744 Z M99.856,93.28 L99.792,92.08 C100.24,92.16 100.528,92.176 101.296,92.176 C102.624,92.176 104.752,92.08 106.192,91.968 C106.608,91.936 106.752,91.904 106.96,91.792 L107.632,92.672 C107.408,92.784 107.328,92.848 106.816,93.344 C104.608,95.504 102.672,97.168 101.552,97.888 L101.584,97.936 C102.8,97.28 104.096,96.944 105.504,96.944 C108.176,96.944 109.888,98.256 109.888,100.304 C109.888,102.8 107.568,104.448 104.016,104.448 C101.76,104.448 100.464,103.616 100.464,102.144 C100.464,101.072 101.456,100.272 102.784,100.272 C103.856,100.272 104.784,100.736 105.424,101.584 C105.76,102.032 105.936,102.416 106.16,103.12 C107.84,102.656 108.72,101.68 108.72,100.32 C108.72,98.784 107.44,97.872 105.28,97.872 C102.928,97.872 100.4,98.896 98.544,100.608 L97.824,99.584 C98.4,99.248 98.976,98.832 100.064,97.952 C101.776,96.592 104.304,94.368 105.408,93.28 L105.76,92.928 L105.728,92.896 C105.68,92.896 105.68,92.896 105.584,92.912 C105.072,93.008 103.152,93.12 100.72,93.2 C100.368,93.216 100.208,93.232 99.856,93.28 Z M105.104,103.408 C104.752,101.952 103.952,101.184 102.8,101.184 C102,101.184 101.504,101.568 101.504,102.176 C101.504,102.592 101.712,102.896 102.144,103.152 C102.56,103.376 103.248,103.52 103.936,103.52 C104.336,103.52 104.528,103.504 105.104,103.408 Z" id="・もっと見る" fill="#FFFFFF"></path>
            <path d="M24,128.608 C24.72,128.608 25.312,129.2 25.312,129.92 C25.312,130.64 24.72,131.232 24,131.232 C23.28,131.232 22.688,130.64 22.688,129.92 C22.688,129.2 23.28,128.608 24,128.608 Z M34,130.64 L34.144,129.536 C34.784,129.824 35.792,130.032 37.008,130.176 C37.088,129.392 37.248,128.144 37.376,127.296 C36.624,127.2 35.936,127.088 34.992,126.864 C34.784,126.816 34.72,126.8 34.496,126.752 L34.64,125.696 C35.328,125.984 36.4,126.224 37.52,126.32 C37.776,124.784 37.904,123.728 37.904,123.312 L37.904,123.184 L39.184,123.328 C39.088,123.632 39.04,123.824 38.928,124.4 C38.912,124.544 38.912,124.544 38.768,125.424 C38.72,125.776 38.688,125.936 38.608,126.384 C39.056,126.4 39.28,126.4 39.536,126.4 C40.736,126.4 41.744,126.304 42.464,126.128 L42.416,127.232 C42.096,127.264 42.096,127.264 41.296,127.328 C40.8,127.376 40.32,127.392 39.856,127.392 C39.6,127.392 39.328,127.392 38.448,127.36 C38.192,129.2 38.176,129.36 38.08,130.256 C38.688,130.272 38.912,130.272 39.136,130.272 C40.288,130.272 41.456,130.176 42.08,130.016 L42.048,131.088 C41.888,131.104 41.84,131.104 41.616,131.12 C40.8,131.216 40.112,131.248 39.36,131.248 C38.96,131.248 38.704,131.248 37.984,131.216 C37.984,131.328 37.984,131.328 37.968,131.536 C37.936,131.92 37.904,132.448 37.904,132.72 C37.904,133.6 38.144,134.208 38.64,134.64 C39.152,135.088 39.92,135.328 40.896,135.328 C43.04,135.328 44.432,134.224 44.432,132.528 C44.432,131.52 43.936,130.624 42.912,129.744 C43.44,129.68 43.616,129.632 44.08,129.424 C45.216,130.656 45.584,131.44 45.584,132.608 C45.584,134.864 43.696,136.384 40.896,136.384 C39.216,136.384 37.936,135.808 37.312,134.784 C36.992,134.256 36.816,133.488 36.816,132.576 C36.816,132.24 36.832,131.92 36.88,131.52 C36.896,131.28 36.896,131.28 36.912,131.136 C35.952,131.04 35.216,130.912 34.496,130.736 C34.24,130.656 34.192,130.656 34,130.64 Z M50.912,130.672 L50.624,129.504 C51.024,129.472 51.104,129.456 52.096,129.216 C54.192,128.72 55.6,128.512 56.976,128.512 C58.624,128.512 59.76,129.008 60.368,130 C60.688,130.512 60.864,131.168 60.864,131.824 C60.864,133.616 59.424,135.248 57.2,135.952 C56.224,136.256 55.84,136.32 53.904,136.56 C53.808,136.112 53.744,135.952 53.488,135.456 C53.584,135.472 53.648,135.472 53.712,135.472 C54.704,135.472 55.952,135.28 56.864,134.976 C58.688,134.384 59.792,133.168 59.792,131.744 C59.792,130.288 58.768,129.504 56.832,129.504 C55.76,129.504 54.528,129.696 52.624,130.144 C51.648,130.368 51.392,130.448 50.912,130.672 Z M68.96,123.44 L70.224,123.2 C70.288,124.272 70.88,126.896 71.424,128.496 C72.368,128.112 72.816,127.936 75.296,127.072 C75.856,126.864 76,126.816 76.32,126.656 L76.8,127.872 C75.68,128.112 73.392,128.848 71.984,129.424 C69.248,130.512 68.064,131.568 68.064,132.896 C68.064,134.352 69.296,134.912 72.432,134.912 C74.272,134.912 76.064,134.704 77.008,134.368 L77.136,135.696 C76.832,135.696 76.832,135.696 75.952,135.792 C74.304,135.952 73.536,136 72.416,136 C70.832,136 69.632,135.856 68.864,135.568 C67.552,135.088 66.88,134.208 66.88,132.944 C66.88,131.92 67.36,130.992 68.304,130.224 C68.912,129.728 69.408,129.424 70.4,128.928 C69.952,127.616 69.648,126.496 69.232,124.448 C69.088,123.776 69.056,123.696 68.96,123.44 Z M85.792,132.528 L84.752,132.528 C83.856,132.528 83.44,132.544 82.944,132.576 C83.008,132.08 83.024,131.632 83.024,130.896 L83.024,125.472 C83.024,124.544 82.992,123.696 82.944,123.344 C83.472,123.408 83.968,123.424 84.656,123.424 L91.344,123.424 C92,123.424 92.592,123.392 93.056,123.344 C93.008,123.68 92.976,124.576 92.976,125.472 L92.976,130.896 C92.976,131.648 92.992,132.096 93.056,132.576 C92.608,132.544 92.128,132.528 91.264,132.528 L89.872,132.528 L89.872,135.424 C89.872,135.92 90.032,135.968 91.664,135.968 C93.184,135.968 93.552,135.904 93.776,135.568 C93.952,135.296 94.064,134.72 94.16,133.472 C94.608,133.712 94.848,133.808 95.168,133.904 C94.8,136.768 94.624,136.912 91.584,136.912 C90.272,136.912 89.552,136.832 89.232,136.64 C88.944,136.464 88.848,136.256 88.848,135.744 L88.848,132.528 L86.896,132.528 C86.672,133.856 86.288,134.672 85.488,135.44 C84.544,136.352 83.376,136.896 81.392,137.328 C81.232,136.928 81.104,136.704 80.832,136.368 C82.048,136.144 82.608,136 83.28,135.696 C84.384,135.216 85.136,134.512 85.504,133.632 C85.648,133.296 85.68,133.184 85.792,132.528 Z M84.016,124.368 L84.016,126.112 L91.984,126.112 L91.984,124.368 L84.016,124.368 Z M84.016,127.008 L84.016,128.848 L91.984,128.848 L91.984,127.008 L84.016,127.008 Z M84.016,129.744 L84.016,131.648 L91.984,131.648 L91.984,129.744 L84.016,129.744 Z M99.856,125.28 L99.792,124.08 C100.24,124.16 100.528,124.176 101.296,124.176 C102.624,124.176 104.752,124.08 106.192,123.968 C106.608,123.936 106.752,123.904 106.96,123.792 L107.632,124.672 C107.408,124.784 107.328,124.848 106.816,125.344 C104.608,127.504 102.672,129.168 101.552,129.888 L101.584,129.936 C102.8,129.28 104.096,128.944 105.504,128.944 C108.176,128.944 109.888,130.256 109.888,132.304 C109.888,134.8 107.568,136.448 104.016,136.448 C101.76,136.448 100.464,135.616 100.464,134.144 C100.464,133.072 101.456,132.272 102.784,132.272 C103.856,132.272 104.784,132.736 105.424,133.584 C105.76,134.032 105.936,134.416 106.16,135.12 C107.84,134.656 108.72,133.68 108.72,132.32 C108.72,130.784 107.44,129.872 105.28,129.872 C102.928,129.872 100.4,130.896 98.544,132.608 L97.824,131.584 C98.4,131.248 98.976,130.832 100.064,129.952 C101.776,128.592 104.304,126.368 105.408,125.28 L105.76,124.928 L105.728,124.896 C105.68,124.896 105.68,124.896 105.584,124.912 C105.072,125.008 103.152,125.12 100.72,125.2 C100.368,125.216 100.208,125.232 99.856,125.28 Z M105.104,135.408 C104.752,133.952 103.952,133.184 102.8,133.184 C102,133.184 101.504,133.568 101.504,134.176 C101.504,134.592 101.712,134.896 102.144,135.152 C102.56,135.376 103.248,135.52 103.936,135.52 C104.336,135.52 104.528,135.504 105.104,135.408 Z" id="・もっと見る" fill="#FFFFFF"></path>
            <path d="M95.008,162.392 C95.848,162.392 96.496,163.04 96.496,163.88 C96.496,164.696 95.824,165.368 95.008,165.368 C94.192,165.368 93.52,164.696 93.52,163.88 C93.52,163.064 94.192,162.392 95.008,162.392 Z M103,162.392 C103.84,162.392 104.488,163.04 104.488,163.88 C104.488,164.696 103.816,165.368 103,165.368 C102.184,165.368 101.512,164.696 101.512,163.88 C101.512,163.064 102.184,162.392 103,162.392 Z M111.016,162.392 C111.856,162.392 112.504,163.04 112.504,163.88 C112.504,164.696 111.832,165.368 111.016,165.368 C110.2,165.368 109.528,164.696 109.528,163.88 C109.528,163.064 110.2,162.392 111.016,162.392 Z" id="…" fill="#FFFFFF" transform="translate(103.012000, 163.880000) rotate(90.000000) translate(-103.012000, -163.880000) "></path>
        </g>
        <g id="→" transform="translate(250.000000, 225.000000)">
            <g id="Combined-Shape">
                <use fill="#FE9019" fill-rule="evenodd" xlink:href="#path-5"></use>
                <path stroke="#FFFFFF" stroke-width="2" d="M16,7 L16,-2.41421356 L30.4142136,12 L16,26.4142136 L16,17 L-1,17 L-1,7 L16,7 Z"></path>
            </g>
        </g>
        <path d="M280,115.04 L272.8,102.48 L287.216,102.48 L280,115.04 Z M302.416,113.136 L301.504,114.144 C300.24,112.528 298.432,110.784 296.384,109.2 C295.264,110.48 294.48,111.216 293.328,112.064 C292.224,112.864 291.376,113.392 290.192,113.984 C289.936,113.504 289.808,113.328 289.408,112.928 C290.64,112.432 291.424,112 292.656,111.088 C295.216,109.2 297.2,106.672 298.368,103.872 C298.4,103.776 298.416,103.76 298.448,103.68 C298.48,103.632 298.48,103.616 298.496,103.568 C298.352,103.584 298.304,103.584 298.112,103.584 L292.768,103.664 C292.048,103.68 291.584,103.712 291.12,103.792 L291.088,102.496 C291.52,102.56 291.808,102.576 292.352,102.576 L292.768,102.576 L298.48,102.512 C299.04,102.496 299.232,102.48 299.504,102.384 L300.176,103.072 C300.016,103.264 299.904,103.456 299.728,103.856 C298.832,105.84 298.08,107.104 297.088,108.336 C299.184,109.936 300.592,111.2 302.416,113.136 Z M310.8,100.96 L312.112,101.296 C311.968,101.504 311.968,101.504 311.76,101.952 C311.344,102.816 311.2,103.088 311.024,103.376 C311.232,103.328 311.232,103.328 315.856,103.248 C316.416,103.248 316.464,103.232 316.688,103.136 L317.376,103.808 C317.232,104 317.232,104.016 317.056,104.592 C316.384,106.848 315.216,109.024 313.856,110.608 C312.384,112.288 310.624,113.552 308.288,114.608 C308.032,114.144 307.904,113.984 307.488,113.664 C309.904,112.672 311.6,111.456 313.136,109.616 C314.368,108.128 315.328,106.256 315.888,104.256 L310.496,104.352 C309.52,105.92 308.24,107.328 306.672,108.512 C306.4,108.112 306.24,107.968 305.776,107.68 C307.472,106.576 308.688,105.248 309.792,103.296 C310.4,102.24 310.72,101.52 310.8,100.96 Z M323.76,101.648 L325.088,101.648 C325.04,102.032 325.024,102.24 325.024,102.976 L325.024,107.28 C325.024,108.048 325.04,108.224 325.088,108.608 L323.76,108.608 C323.808,108.24 323.824,107.904 323.824,107.264 L323.824,102.992 C323.824,102.304 323.808,102.032 323.76,101.648 Z M330.832,101.648 L332.176,101.648 C332.112,102.016 332.096,102.272 332.096,103.04 L332.096,104.928 C332.096,107.472 331.984,108.88 331.696,109.808 C331.232,111.312 330.224,112.48 328.656,113.36 C327.872,113.808 327.104,114.112 325.744,114.512 C325.568,114.048 325.472,113.888 325.072,113.408 C326.512,113.088 327.28,112.816 328.112,112.32 C329.6,111.456 330.368,110.432 330.672,108.944 C330.848,108.032 330.896,107.296 330.896,104.864 L330.896,103.056 C330.896,102.224 330.88,102 330.832,101.648 Z M337.392,108.512 L337.392,107.2 C337.856,107.28 338.288,107.296 339.376,107.296 L348.672,107.296 C349.856,107.296 350.112,107.28 350.608,107.216 L350.608,108.512 C350.096,108.464 349.728,108.448 348.656,108.448 L339.376,108.448 C338.208,108.448 337.872,108.464 337.392,108.512 Z M354.496,103.552 L355.28,102.688 C356.992,103.776 357.984,104.56 359.136,105.696 L358.304,106.688 C357.152,105.44 355.888,104.4 354.496,103.552 Z M354.608,113.952 L354.256,112.608 C355.504,112.56 357.424,112.064 358.912,111.376 C362,110 364.144,107.648 365.44,104.256 C365.808,104.752 365.968,104.896 366.416,105.2 C365.136,107.984 363.648,109.856 361.536,111.312 C359.888,112.432 358.24,113.088 355.568,113.696 C355.136,113.792 355.008,113.824 354.608,113.952 Z M371.76,101.648 L373.088,101.648 C373.04,102.032 373.024,102.24 373.024,102.976 L373.024,107.28 C373.024,108.048 373.04,108.224 373.088,108.608 L371.76,108.608 C371.808,108.24 371.824,107.904 371.824,107.264 L371.824,102.992 C371.824,102.304 371.808,102.032 371.76,101.648 Z M378.832,101.648 L380.176,101.648 C380.112,102.016 380.096,102.272 380.096,103.04 L380.096,104.928 C380.096,107.472 379.984,108.88 379.696,109.808 C379.232,111.312 378.224,112.48 376.656,113.36 C375.872,113.808 375.104,114.112 373.744,114.512 C373.568,114.048 373.472,113.888 373.072,113.408 C374.512,113.088 375.28,112.816 376.112,112.32 C377.6,111.456 378.368,110.432 378.672,108.944 C378.848,108.032 378.896,107.296 378.896,104.864 L378.896,103.056 C378.896,102.224 378.88,102 378.832,101.648 Z M385.392,108.512 L385.392,107.2 C385.856,107.28 386.288,107.296 387.376,107.296 L396.672,107.296 C397.856,107.296 398.112,107.28 398.608,107.216 L398.608,108.512 C398.096,108.464 397.728,108.448 396.656,108.448 L387.376,108.448 C386.208,108.448 385.872,108.464 385.392,108.512 Z M406.144,100.8 L407.408,101.152 C407.28,101.344 407.248,101.408 407.168,101.552 C407.136,101.616 407.024,101.84 406.848,102.224 C406.688,102.528 406.512,102.832 406.352,103.104 C406.544,103.072 406.56,103.072 406.944,103.056 L410.8,103.024 C411.376,103.008 411.536,102.992 411.776,102.96 L412.704,103.984 C412.672,104.096 412.64,104.176 412.624,104.208 L412.544,104.432 L412.464,104.672 C410.448,109.968 408.064,112.576 403.248,114.816 C403.008,114.352 402.832,114.128 402.464,113.824 C404.832,112.944 407.312,111.2 408.544,109.536 C407.568,108.64 406.016,107.52 404.96,106.96 L405.696,106.144 C406.944,106.848 408.064,107.632 409.232,108.624 C410.048,107.424 410.976,105.504 411.456,103.984 L405.856,104.048 C404.864,105.664 403.488,107.2 402.048,108.32 C401.696,107.904 401.52,107.776 401.12,107.552 C402.72,106.432 404.192,104.784 405.2,102.976 C405.728,102.032 406.064,101.264 406.144,100.8 Z M411.712,101.312 L412.512,100.88 C413.296,101.808 413.648,102.336 414.144,103.296 L413.344,103.776 C412.944,102.944 412.224,101.84 411.712,101.312 Z M413.52,100.432 L414.304,99.984 C415.104,100.96 415.392,101.376 415.952,102.416 L415.152,102.88 C414.784,102.08 414.192,101.2 413.52,100.432 Z M417.392,108.512 L417.392,107.2 C417.856,107.28 418.288,107.296 419.376,107.296 L428.672,107.296 C429.856,107.296 430.112,107.28 430.608,107.216 L430.608,108.512 C430.096,108.464 429.728,108.448 428.656,108.448 L419.376,108.448 C418.208,108.448 417.872,108.464 417.392,108.512 Z" id="▼スクリーンリーダー" fill="#333333"></path>
        <path d="M284.752,16.416 L284.752,31.504 L274.24,23.92 L284.752,16.416 Z M301.056,19.504 L301.488,20.08 C301.392,20.224 301.36,20.288 301.152,21.072 C300.288,24.032 299.104,26.032 297.232,27.712 C295.728,29.072 294.224,29.968 292.208,30.72 C291.984,30.224 291.808,30 291.424,29.616 C293.568,29.024 295.84,27.616 297.28,25.984 C298.592,24.496 299.52,22.624 300.08,20.288 L291.936,20.288 C291.008,20.288 290.624,20.32 290.144,20.384 L290.144,19.104 C290.72,19.184 291.088,19.2 291.952,19.2 L299.68,19.2 C300.016,19.2 300.224,19.2 300.624,19.184 C299.968,18.048 299.696,17.664 299.12,17.008 L299.92,16.592 C300.736,17.568 301.328,18.432 301.648,19.152 L301.056,19.504 Z M301.2,16.464 L301.984,16.032 C302.704,16.896 303.104,17.488 303.664,18.496 L302.848,18.976 C302.512,18.224 301.84,17.216 301.2,16.464 Z M307.584,19.12 L307.584,17.888 C308.048,17.984 308.368,18 309.264,18 L314.608,18 C315.504,18 315.824,17.984 316.288,17.888 L316.288,19.12 C315.856,19.056 315.472,19.04 314.624,19.04 L309.248,19.04 C308.4,19.04 308.016,19.056 307.584,19.12 Z M306.208,22.8 L306.208,21.6 C306.784,21.68 307.12,21.696 308.08,21.696 L316.288,21.696 C316.88,21.696 317.056,21.68 317.328,21.584 L317.92,22.272 C317.776,22.496 317.744,22.576 317.472,23.28 C316.112,27.008 313.904,29.056 309.76,30.448 C309.568,29.984 309.456,29.808 309.072,29.344 C311.216,28.736 312.624,28.016 313.824,26.912 C314.96,25.872 315.68,24.688 316.416,22.72 L308.064,22.72 C307.216,22.72 306.752,22.736 306.208,22.8 Z M328.512,19.792 L331.888,19.792 C332.88,19.792 332.944,19.792 333.232,19.696 L333.888,20.32 C333.744,20.576 333.744,20.576 333.536,21.936 C333.152,24.352 332.176,26.32 330.64,27.776 C329.424,28.912 327.872,29.792 325.952,30.432 C325.728,29.952 325.632,29.792 325.216,29.344 C326.736,28.944 327.68,28.512 328.752,27.792 C330.992,26.24 332.16,24.048 332.464,20.8 L323.728,20.8 L323.728,23.2 C323.728,23.712 323.744,24.08 323.776,24.384 L322.464,24.384 C322.496,24.112 322.528,23.6 322.528,23.184 L322.528,21.024 C322.528,20.528 322.512,20.112 322.464,19.728 C322.96,19.776 323.328,19.792 323.936,19.792 L327.328,19.792 L327.328,18.176 C327.328,17.712 327.312,17.536 327.248,17.152 L328.592,17.152 C328.544,17.456 328.512,17.776 328.512,18.16 L328.512,19.792 Z M341.408,20.72 L346.288,20.72 L346.288,19.152 C346.288,18.032 346.288,17.888 346.24,17.52 L347.488,17.52 C347.44,17.968 347.44,17.984 347.424,19.04 L347.424,20.72 L348.8,20.72 C349.808,20.72 350.128,20.704 350.672,20.624 L350.672,21.84 C350.16,21.776 349.84,21.76 348.816,21.76 L347.408,21.76 C347.392,24.848 347.216,26.032 346.624,27.184 C345.76,28.784 344.32,29.904 342.16,30.64 C341.968,30.224 341.808,29.984 341.44,29.632 C343.536,29.104 345.152,27.856 345.792,26.24 C346.144,25.28 346.24,24.32 346.272,21.76 L341.408,21.76 L341.408,24.432 C341.408,25.136 341.424,25.36 341.472,25.728 L340.176,25.728 C340.224,25.392 340.24,25.232 340.24,24.384 L340.24,21.76 L338.896,21.76 C337.872,21.76 337.552,21.776 337.04,21.84 L337.04,20.624 C337.584,20.704 337.904,20.72 338.912,20.72 L340.24,20.72 L340.24,18.864 C340.24,18.016 340.224,17.872 340.176,17.52 L341.472,17.52 C341.424,17.904 341.408,18.112 341.408,18.816 L341.408,20.72 Z M348.096,16.752 L348.944,16.512 C349.456,17.44 349.712,18 350.08,19.136 L349.232,19.424 C348.848,18.24 348.528,17.472 348.096,16.752 Z M349.968,16.256 L350.784,15.984 C351.264,16.816 351.664,17.728 351.92,18.592 L351.088,18.88 C350.784,17.904 350.352,16.88 349.968,16.256 Z" id="◀ブラウザ" fill="#333333"></path>
    </g>
</svg>