<svg fill="none" height="44" viewBox="0 0 144 44" width="144" xmlns="http://www.w3.org/2000/svg" xmlns:xlink="http://www.w3.org/1999/xlink"><clipPath id="a"><path d="m0 0h143.094v43.428h-143.094z"/></clipPath><g clip-path="url(#a)"><path d="m35.136 33.552c-.444-1.074-1.254-1.578-2.754-2.55-1.128-.732-1.908-1.728-2.046-3.738-.18-2.616.396-4.236.264-7.986-.102-2.892-1.14-5.076-1.788-6.348-.762-1.5-.906-2.568-.954-4.302-.048-1.584.018-5.106-.018-6.21-.042-1.11-.486-1.824005-1.242-2.178005-.918-.426-1.902-.2939999-2.724.606-.756.828005-2.136 2.304005-3.078 3.168005-1.236 1.134-2.028 1.386-3.12 1.386-1.098 0-1.884-.252-3.12-1.386-.948-.87-2.322-2.346-3.084-3.168005-.828-.8999999-1.80601-1.032-2.72401-.606-.756.354-1.206 1.068005-1.242 2.178005-.042 1.104.03 4.626-.018 6.21-.048 1.734-.192 2.802-.954 4.302-.648 1.278-1.686 3.462-1.788 6.348-.132 3.75.438 5.37.264 7.986-.138 2.01-.912 3.006-2.046 3.738-1.5.972-2.310002 1.476-2.754002 2.55-.312.756-.311999 1.848.612 2.322.588002.3 1.296002.24 2.040002-.054.57-.228 1.134-.57 1.692-.534.426.024.774.252.84.954.06.726.402 1.032.93 1.032.432 0 .84-.294 1.146-1.092.324-.852.492-1.602 1.002-1.59.546.012.678.606.72 1.434.054 1.194-.408 2.112-1.29 2.928-1.02.942-1.782 1.824-1.506 2.982.198.822 1.092 1.356 2.52 1.428 1.43401.072 3.79201.084 5.43001.048 1.53-.036 2.406-.696 2.592-1.572.216-.996-.36-1.35-.216-2.172.078-.45.51-.654.96-.654s.882.198.96.654c.144.822-.432 1.176-.216 2.172.186.876 1.062 1.536 2.592 1.572 1.638.042 4.002.024 5.43-.048s2.322-.6 2.52-1.428c.276-1.158-.486-2.04-1.506-2.982-.882-.816-1.344-1.734-1.29-2.928.036-.828.168-1.422.72-1.434.51-.012.672.738 1.002 1.59.306.798.72 1.092 1.146 1.092.528 0 .87-.312.93-1.032.06-.702.408-.936.834-.954.558-.03 1.122.306 1.692.534.738.294 1.452.348 2.034.054.918-.474.918-1.566.606-2.322z" fill="#2d8c3c"/><path d="m11.01 15.162c.66 0 1.188-.534 1.188-1.188s-.534-1.188-1.188-1.188-1.18801.534-1.18801 1.188.52801 1.188 1.18801 1.188z" fill="#fff"/><path d="m24.342 17.328c-1.92-1.626-3.9-2.268-6.678-2.262-2.778-.006-4.764.63-6.684 2.262-1.32 1.122-2.178 3.354-1.176 5.04.504.852 1.494 1.536 2.646 1.638 1.536.138 2.496-.42 3.108-1.086.582-.642 1.218-1.254 2.1-1.254.888 0 1.518.612 2.1 1.254.612.672 1.572 1.224 3.108 1.086 1.158-.102 2.142-.786 2.646-1.638 1.008-1.686.15-3.924-1.17-5.04z" fill="#fff"/><path d="m17.664 26.418c-3.036 0-5.508 2.472-5.508 5.508s2.472 5.508 5.508 5.508 5.502-2.472 5.502-5.508-2.472-5.508-5.502-5.508z" fill="#fff"/><path d="m24.312 15.162c.654 0 1.188-.534 1.188-1.188s-.534-1.188-1.188-1.188c-.66 0-1.188.534-1.188 1.188s.534 1.188 1.188 1.188z" fill="#fff"/><path d="m17.664 15.66c-1.542 0-2.748.918-2.748 2.094s1.206 2.094 2.748 2.094 2.748-.918 2.748-2.094-1.206-2.094-2.748-2.094z" fill="#2d8c3c"/><g fill="#000"><path d="m50.13 11.25c-3.822 0-7.206 2.67-8.052 6.342-.156.684-.228 1.692-.228 3.27v12.342c0 1.158.936 2.094 2.094 2.094s2.094-.936 2.094-2.094v-4.95h8.184v4.95c0 1.158.936 2.094 2.094 2.094s2.094-.936 2.094-2.094v-12.342c0-1.572-.072-2.58-.228-3.27-.846-3.672-4.236-6.342-8.052-6.342zm-4.092 12.816v-3.204c0-1.626.084-2.172.12-2.328.414-1.794 2.082-3.09 3.972-3.09s3.558 1.302 3.966 3.09c.036.162.126.708.126 2.334v3.204h-8.184z"/><path d="m117.726 23.13c-.09-3.96-3.144-7.032-7.056-7.032-1.104 0-2.154.258-3.084.714v-3.57c0-1.098-.888-1.986-1.98-1.986-1.098 0-1.986.888-1.986 1.986v13.566c0 1.38.048 2.628.282 3.432.852 2.928 3.57 5.07 6.768 5.07 3.78 0 6.948-3.138 7.056-6.996.042-1.548.042-3.414 0-5.184zm-3.966 5.076c-.048 1.734-1.434 3.144-3.09 3.144-1.698 0-3.066-1.41-3.084-3.084-.018-1.692-.024-3.438 0-5.106.018-1.674 1.386-3.084 3.084-3.084 1.71 0 3.042 1.374 3.09 3.114.048 1.728.042 3.546 0 5.016z"/><path d="m76.458 16.086c-1.542 0-2.946.606-4.008 1.596-1.062-.99-2.466-1.596-4.008-1.596-2.736 0-5.13 1.926-5.814 4.692-.18.72-.18 1.53-.18 2.238v10.308c0 1.098.888 1.986 1.986 1.986 1.092 0 1.98-.888 1.98-1.986v-10.308c0-.414 0-1.032.06-1.278.246-.99 1.056-1.68 1.962-1.68 1.116 0 2.022.996 2.022 2.226v11.052c0 1.098.888 1.986 1.986 1.986 1.092 0 1.98-.888 1.98-1.986v-11.064c0-1.224.906-2.226 2.028-2.226.912 0 1.716.69 1.962 1.68.06.246.06.87.06 1.278v10.314c0 1.098.888 1.986 1.986 1.986 1.092 0 1.98-.888 1.98-1.986v-10.302c0-.714 0-1.524-.174-2.238-.684-2.766-3.072-4.692-5.808-4.692z"/><path d="m120.546 29.142c0 3.408 3.18 6.18 7.086 6.18 3.846 0 7.026-2.76 7.086-6.15.042-2.268.042-4.476 0-6.93-.06-3.51-3.102-6.156-7.086-6.156-3.528 0-5.76 1.956-6.36 2.55-.774.774-.774 2.028 0 2.808.774.774 2.028.774 2.808 0 .234-.234 1.494-1.392 3.552-1.392 1.56 0 2.796.768 3.066 1.836-1.026.522-2.838.948-3.81 1.176-1.566.378-6.342 1.506-6.342 6.078zm10.242-3.018c.018 1.008.03 1.998-.03 2.982-.072 1.086-1.278 2.256-3.12 2.256-1.692 0-3.12-1.014-3.12-2.22 0-.498 0-1.428 3.294-2.214 1.056-.252 2.064-.504 2.976-.804z"/><path d="m100.536 22.272c0-3.414-3.1801-6.186-7.086-6.186-3.846 0-7.026 2.76-7.086 6.15-.042 2.274-.042 4.476 0 6.936.06 3.51 3.102 6.156 7.086 6.156 3.5279 0 5.7599-1.956 6.3599-2.55.7741-.774.7741-2.028 0-2.802-.774-.774-2.028-.774-2.802 0-.234.234-1.494 1.392-3.552 1.392-1.56 0-2.796-.768-3.066-1.836 1.026-.522 2.8381-.948 3.81-1.176 1.56-.39 6.3361-1.518 6.3361-6.084zm-10.242 3.012c-.018-1.008-.0301-1.998.0299-2.982.072-1.086 1.2781-2.25 3.1201-2.25 1.692 0 3.1199 1.014 3.1199 2.22 0 .498 0 1.428-3.294 2.208-1.056.252-2.0579.504-2.9759.804z"/><path d="m140.706 32.598c.45-.048.732-.3.822-.432.108-.162.162-.33.162-.51 0-.228-.096-.444-.288-.636-.186-.192-.48-.288-.87-.288h-1.44v3.342h.498v-1.464h.528l.984 1.464h.594zm.456-.942c0 .144-.042.234-.168.354-.114.108-.288.162-.522.162h-.888v-1.008h.942c.186 0 .336.042.456.132.126.084.18.204.18.36z"/><path d="m140.286 29.61c-1.548 0-2.808 1.26-2.808 2.808s1.26 2.808 2.808 2.808 2.808-1.26 2.808-2.808-1.26-2.808-2.808-2.808zm0 5.118c-1.272 0-2.304-1.032-2.304-2.304s1.032-2.304 2.304-2.304 2.304 1.032 2.304 2.304c0 1.266-1.032 2.304-2.304 2.304z"/></g></g></svg>