<?xml version="1.0" encoding="UTF-8" standalone="no"?>
<svg width="500px" height="433px" viewBox="0 0 500 433" version="1.1" xmlns="http://www.w3.org/2000/svg" xmlns:xlink="http://www.w3.org/1999/xlink" style="background: #FFFFFF;">
    <!-- Generator: Sketch 49.3 (51167) - http://www.bohemiancoding.com/sketch -->
    <title>3.3.5_ng</title>
    <desc>Created with Sketch.</desc>
    <defs></defs>
    <g id="3.3.5_ng" stroke="none" stroke-width="1" fill="none" fill-rule="evenodd">
        <rect id="Rectangle-14" fill="#444444" x="100" y="208" width="300" height="60"></rect>
        <path d="M205.78,231.7 L207.12,233.22 C206.84,233.56 206.84,233.58 206.32,234.62 C205.62,236.1 204.46,237.6 203.24,238.64 C202.44,239.34 201.78,239.78 200.84,240.3 C200.24,239.46 199.94,239.16 199.04,238.48 C200.38,237.88 201.14,237.42 201.96,236.64 C202.78,235.88 203.4,235.06 203.86,234.1 L193.36,234.1 C191.96,234.1 191.46,234.12 190.64,234.22 L190.64,231.72 C191.4,231.84 192.02,231.88 193.4,231.88 L203.84,231.88 C205.04,231.88 205.22,231.86 205.78,231.7 Z M196.28,235.74 L199,235.74 C198.94,236.12 198.94,236.14 198.92,237.36 C198.84,240.78 198.3,242.7 196.94,244.44 C195.74,245.98 194.28,247 191.78,248.04 C191.26,246.96 191,246.6 190.2,245.76 C191.82,245.28 192.72,244.84 193.7,244.06 C195.74,242.44 196.38,240.72 196.38,236.94 C196.38,236.34 196.36,236.16 196.28,235.74 Z M220.86,230.98 L223.58,231.92 C223.36,232.3 223.28,232.46 222.88,233.36 C221.62,236.34 220.84,237.86 220.06,239.02 C221.74,240.44 222.78,241.42 224.52,243.26 L222.6,245.32 C221.56,243.96 220.36,242.72 218.54,241.1 C217.68,242.24 216.64,243.36 215.42,244.44 C213.98,245.7 212.7,246.6 210.66,247.74 C210.12,246.78 209.8,246.42 208.9,245.66 C211.12,244.56 212.5,243.64 214.08,242.2 C215.04,241.34 215.84,240.48 216.62,239.48 C215.02,238.16 213.1,236.86 211.32,235.88 L213.08,234.12 C214.54,234.98 215.4,235.54 216.38,236.24 C217.88,237.32 217.88,237.32 218.04,237.42 C219.32,235.32 220.6,232.42 220.86,230.98 Z M229.84,234.16 L231.5,232.18 C233.88,233.66 235.12,234.58 236.66,236.04 L234.94,238.22 C233.34,236.52 231.7,235.2 229.84,234.16 Z M230.54,247.36 L229.8,244.6 C231.52,244.5 233.9,243.92 235.72,243.12 C238.22,242.04 240.08,240.5 241.66,238.22 C242.54,236.94 243.1,235.84 243.7,234.22 C244.48,235.16 244.8,235.46 245.82,236.18 C244.12,239.84 242.22,242.2 239.48,244.02 C237.44,245.38 234.96,246.36 231.86,247.02 C231.06,247.18 231,247.2 230.54,247.36 Z M251.94,232.02 L254.68,232.52 C254.62,232.74 254.6,232.76 254.58,232.92 L254.54,233.26 L254.44,233.84 L254.38,234.32 C253.54,240.06 251.98,244 249.3,247.08 C248.36,246.18 247.98,245.88 247.02,245.36 C248.22,244.16 249.04,242.94 249.88,241.1 C250.74,239.24 251.44,236.76 251.76,234.24 C251.88,233.42 251.94,232.74 251.94,232.3 L251.94,232.02 Z M257.88,232.5 L260.36,232.02 C260.38,232.94 260.74,234.9 261.2,236.62 C262.18,240.32 263.58,243.02 265.66,245.26 C264.64,245.9 264.22,246.24 263.46,247.1 C260.8,243.92 258.94,239.32 258.16,233.94 C258.04,233.12 257.98,232.8 257.88,232.5 Z M260.56,231.26 L262.06,230.82 C262.8,231.86 263.24,232.7 263.72,234.04 L262.2,234.52 C261.74,233.24 261.32,232.38 260.56,231.26 Z M266.34,233.24 L264.82,233.72 C264.36,232.48 263.86,231.48 263.22,230.56 L264.7,230.14 C265.46,231.2 265.9,232.04 266.34,233.24 Z M267.02,240.72 L267.02,237.94 C267.9,238.06 268.28,238.08 270.26,238.08 L280.92,238.08 C282.9,238.08 283.28,238.06 284.16,237.94 L284.16,240.72 C283.36,240.62 283.14,240.62 280.9,240.62 L270.28,240.62 C268.04,240.62 267.82,240.62 267.02,240.72 Z M290.88,247.48 L288.46,247.62 C288.44,247.26 288.42,247.14 288.36,246.68 C287.98,244.26 287.84,242.72 287.84,240.7 C287.84,238.12 288.08,235.84 288.66,232.88 C288.88,231.76 288.92,231.56 288.96,231.02 L291.6,231.3 C291.12,232.48 290.66,234.72 290.34,237.28 C290.14,238.78 290.06,239.96 290.04,241.7 C290.04,242.14 290.02,242.3 290,242.8 C290.22,242.1 290.26,241.96 291.04,240.16 L292.64,240.88 C291.54,243.2 290.86,245.52 290.86,246.94 C290.86,247.06 290.86,247.22 290.88,247.48 Z M293.64,235.5 L293.68,233.1 C294.58,233.34 295.64,233.42 297.38,233.42 C299.6,233.42 301.5,233.24 302.82,232.88 L302.94,235.3 C302.78,235.32 302.48,235.36 301.52,235.48 C300.24,235.64 298.72,235.72 297.24,235.72 C295.78,235.72 295.76,235.72 293.64,235.5 Z M295.02,238.8 L296.98,239.72 C295.98,240.88 295.56,241.74 295.56,242.6 C295.56,243.74 296.66,244.34 298.74,244.34 C300.5,244.34 302.24,244.06 303.5,243.58 L303.7,246.12 C303.42,246.14 303.34,246.16 302.88,246.24 C301.28,246.5 300.06,246.62 298.74,246.62 C296.26,246.62 294.66,246.06 293.78,244.88 C293.4,244.38 293.18,243.64 293.18,242.92 C293.18,241.62 293.78,240.28 295.02,238.8 Z M311.7,230.42 L314.26,230.68 C314.14,231.06 314.14,231.06 313.94,232.02 C313.84,232.5 313.74,232.9 313.52,233.78 C314.9,233.64 315.94,233.46 316.72,233.22 L316.78,235.52 C316.56,235.54 316.52,235.54 316.14,235.62 C315.42,235.74 314.2,235.88 312.96,235.98 C312.38,237.98 311.66,239.88 310.76,241.78 C310.3,242.76 310.12,243.12 309.36,244.52 C309.1,245 309.1,245 308.98,245.24 L306.68,243.96 C307.38,243.04 307.94,242.14 308.62,240.76 C309.4,239.16 309.74,238.34 310.5,236.04 C309.6,236.06 309.48,236.06 309.24,236.06 C308.98,236.06 308.86,236.06 308.44,236.04 L307.38,236.02 L307.38,233.74 C308.1,233.88 308.86,233.92 310.08,233.92 C310.32,233.92 310.66,233.92 311.1,233.9 C311.44,232.48 311.66,231.28 311.7,230.42 Z M324.5,235.62 L323.42,237.68 C321.68,236.52 319.9,235.66 317.66,234.88 L318.86,232.94 C321.22,233.84 322.72,234.54 324.5,235.62 Z M324.42,244.64 L323.32,246.88 C322.6,246.02 321.44,245.08 320.26,244.4 C320.28,244.58 320.3,244.72 320.3,244.8 C320.3,245.54 319.96,246.4 319.44,246.92 C318.74,247.64 317.54,248.04 316.12,248.04 C313.48,248.04 311.76,246.72 311.76,244.68 C311.76,242.66 313.54,241.24 316.08,241.24 C316.68,241.24 317.1,241.28 317.94,241.42 C317.88,240.5 317.84,239.72 317.84,239.12 C317.84,238.34 317.88,237.76 318,237.1 L320.32,237.22 C320.12,237.96 320.08,238.42 320.08,239.24 C320.08,240.04 320.12,240.84 320.26,241.98 C321.7,242.62 321.9,242.72 323.42,243.82 C323.72,244.02 323.8,244.1 324.12,244.36 C324.28,244.52 324.28,244.52 324.42,244.64 Z M318.02,243.54 C317.32,243.3 316.84,243.22 316.22,243.22 C314.92,243.22 314.08,243.76 314.08,244.6 C314.08,245.42 314.8,245.9 316.04,245.9 C317.4,245.9 318.06,245.34 318.06,244.22 C318.06,244.02 318.02,243.54 318.02,243.54 Z M333.48,238.7 L333.52,238.74 C335.34,238.02 336.22,237.82 337.72,237.82 C341.14,237.82 343.34,239.58 343.34,242.32 C343.34,244.22 342.4,245.74 340.62,246.74 C339.32,247.48 337.62,247.88 335.78,247.88 C334.1,247.88 332.7,247.56 331.9,246.96 C331.14,246.4 330.7,245.56 330.7,244.66 C330.7,243 332.14,241.8 334.14,241.8 C335.54,241.8 336.76,242.38 337.6,243.44 C338,243.94 338.22,244.38 338.52,245.24 C340.18,244.62 340.9,243.76 340.9,242.34 C340.9,240.78 339.36,239.76 336.94,239.76 C334.02,239.76 331.1,240.94 328.7,243.12 L327.34,240.96 C328.04,240.62 328.84,240.08 330.16,239.08 C332.02,237.66 334.62,235.42 336.14,233.88 L336.5,233.52 L336.48,233.5 C335.72,233.6 334.44,233.68 330.82,233.84 C330.38,233.86 330.24,233.88 329.86,233.94 L329.76,231.54 C330.44,231.62 331.02,231.66 332.12,231.66 C333.82,231.66 336.26,231.56 338.2,231.42 C338.9,231.36 339.12,231.32 339.44,231.16 L340.68,232.92 C340.34,233.1 340.2,233.22 339.64,233.74 C338.64,234.66 337.18,235.96 336.5,236.54 C336.14,236.84 334.7,237.92 334.3,238.18 C333.8,238.52 333.8,238.52 333.48,238.7 Z M336.36,245.82 C336,244.44 335.24,243.72 334.12,243.72 C333.4,243.72 332.94,244.08 332.94,244.64 C332.94,245.44 333.84,245.9 335.32,245.9 C335.7,245.9 335.8,245.9 336.36,245.82 Z" id="アメンバーになる" fill="#FFFFFF"></path>
        <path d="M156.792,237.736 C156.792,236.487994 157.059997,235.316005 157.596,234.22 C158.132003,233.123995 158.863995,232.168004 159.792,231.352 C160.720005,230.535996 161.803994,229.892002 163.044,229.42 C164.284006,228.947998 165.615993,228.712 167.04,228.712 C168.448007,228.712 169.771994,228.947998 171.012,229.42 C172.252006,229.892002 173.335995,230.535996 174.264,231.352 C175.192005,232.168004 175.923997,233.123995 176.46,234.22 C176.996003,235.316005 177.264,236.487994 177.264,237.736 C177.264,238.840006 177.052002,239.883995 176.628,240.868 C176.203998,241.852005 175.608004,242.751996 174.84,243.568 C174.952001,243.696001 175.083999,243.843999 175.236,244.012 C175.388001,244.180001 175.575999,244.359999 175.8,244.552 C176.136002,244.856002 176.579997,245.203998 177.132,245.596 C177.684003,245.988002 178.375996,246.391998 179.208,246.808 C177.767993,246.808 176.496006,246.804 175.392,246.796 C174.287994,246.788 173.316004,246.784 172.476,246.784 C171.635996,246.784 170.920003,246.78 170.328,246.772 C169.735997,246.764 169.240002,246.76 168.84,246.76 L167.04,246.76 C165.615993,246.76 164.284006,246.520002 163.044,246.04 C161.803994,245.559998 160.720005,244.912004 159.792,244.096 C158.863995,243.279996 158.132003,242.324005 157.596,241.228 C157.059997,240.131995 156.792,238.968006 156.792,237.736 Z M170.352,234.304 L163.056,234.304 C162.879999,234.304 162.720001,234.383999 162.576,234.544 C162.431999,234.704001 162.36,234.903999 162.36,235.144 C162.36,235.400001 162.431999,235.611999 162.576,235.78 C162.720001,235.948001 162.879999,236.032 163.056,236.032 L169.2,236.032 C169.28,236.032 169.32,236.064 169.32,236.128 C169.32,236.208 169.288,236.335999 169.224,236.512 C169.16,236.688001 169.040001,236.895999 168.864,237.136 C168.687999,237.376001 168.524001,237.579999 168.372,237.748 C168.219999,237.916001 168.144,238.111999 168.144,238.336 C168.144,238.592001 168.275999,238.835999 168.54,239.068 C168.804001,239.300001 169.095998,239.416 169.416,239.416 C169.672001,239.416 169.891999,239.328001 170.076,239.152 C170.260001,238.975999 170.455999,238.720002 170.664,238.384 C171.032002,237.775997 171.299999,237.208003 171.468,236.68 C171.636001,236.151997 171.72,235.776001 171.72,235.552 C171.72,235.183998 171.596001,234.884001 171.348,234.652 C171.099999,234.419999 170.768002,234.304 170.352,234.304 Z M167.616,238.096 C167.760001,237.151995 167.376005,236.68 166.464,236.68 C166.031998,236.68 165.744001,236.791999 165.6,237.016 C165.504,237.176001 165.456,237.411998 165.456,237.724 C165.456,238.036002 165.392001,238.383998 165.264,238.768 C165.039999,239.472004 164.608003,240.039998 163.968,240.472 C163.791999,240.584001 163.624001,240.676 163.464,240.748 C163.303999,240.82 163.164001,240.892 163.044,240.964 C162.923999,241.036 162.828,241.123999 162.756,241.228 C162.684,241.332001 162.648,241.479999 162.648,241.672 C162.648,242.008002 162.759999,242.303999 162.984,242.56 C163.208001,242.816001 163.463999,242.944 163.752,242.944 C164.024001,242.944 164.379998,242.824001 164.82,242.584 C165.260002,242.343999 165.711998,241.984002 166.176,241.504 C166.880004,240.783996 167.359999,239.648008 167.616,238.096 Z" id="j" fill="#FFFFFF"></path>
        <path d="M91.7,169.04 L91.82,167.62 C93.28,167.96 94.86,168.1 97.14,168.1 C99.48,168.1 101.1,167.96 102.2,167.68 L102.3,169 C101.06,169.52 99.22,170.62 97.26,172.04 L96.24,171.22 C97.52,170.36 98,170.06 98.9,169.56 C99.12,169.44 99.16,169.42 99.4,169.3 C99.54,169.22 99.58,169.22 99.78,169.1 C98.58,169.3 97.9,169.36 96.76,169.36 C95.36,169.36 93.66,169.26 92.36,169.1 C92,169.06 91.96,169.04 91.7,169.04 Z M92.9,174.16 L93.92,174.92 C92.62,176 92.02,176.92 92.02,177.86 C92.02,178.78 92.6,179.44 93.72,179.82 C94.48,180.08 95.8,180.22 97.38,180.22 C99.88,180.22 102.26,179.92 103.38,179.46 L103.56,181.1 C103.3,181.12 103.22,181.14 102.88,181.2 C101.14,181.5 99.24,181.66 97.48,181.66 C95.56,181.66 93.86,181.42 92.88,181.04 C91.38,180.42 90.6,179.4 90.6,178.02 C90.6,176.72 91.36,175.46 92.9,174.16 Z M118.08,168.74 C117.78,171.52 117.02,174.58 116.12,176.68 C114.96,179.32 113.78,180.52 112.34,180.52 C110.44,180.52 109.02,178.44 109.02,175.64 C109.02,173.6 109.78,171.62 111.12,170.12 C112.72,168.36 114.9,167.46 117.58,167.46 C119.82,167.46 121.78,168.16 123.08,169.44 C124.34,170.66 125.02,172.4 125.02,174.32 C125.02,177.42 123.34,179.98 120.44,181.22 C119.54,181.6 118.78,181.84 117.4,182.14 C117.2,181.48 117.08,181.28 116.7,180.8 C118.16,180.56 119.1,180.3 120.04,179.86 C122.24,178.86 123.58,176.72 123.58,174.26 C123.58,171.98 122.42,170.14 120.4,169.24 C119.66,168.92 119.08,168.78 118.08,168.74 Z M116.64,168.76 C115.44,168.86 114.58,169.14 113.66,169.7 C111.64,170.92 110.4,173.18 110.4,175.66 C110.4,177.58 111.24,179.06 112.32,179.06 C113.16,179.06 113.96,178.12 114.82,176.16 C115.64,174.28 116.38,171.32 116.64,168.76 Z M128.9,167.34 L128.9,166.08 C129.38,166.16 129.7,166.18 130.42,166.18 L133.56,166.18 C134.28,166.18 134.58,166.16 135.08,166.08 L135.08,167.34 C134.64,167.28 134.2,167.26 133.56,167.26 L130.42,167.26 C129.78,167.26 129.38,167.28 128.9,167.34 Z M128.2,170.16 L128.2,168.86 C128.66,168.94 129.04,168.96 129.8,168.96 L134.28,168.96 C135.1,168.96 135.46,168.94 135.88,168.86 L135.88,170.16 C135.48,170.1 135.14,170.08 134.42,170.08 L129.8,170.08 C129.1,170.08 128.68,170.1 128.2,170.16 Z M128.98,172.96 L128.98,171.72 C129.4,171.78 129.72,171.8 130.42,171.8 L133.74,171.8 C134.42,171.8 134.78,171.78 135.16,171.72 L135.16,172.96 C134.68,172.9 134.38,172.88 133.74,172.88 L130.42,172.88 C129.76,172.88 129.4,172.9 128.98,172.96 Z M128.98,175.7 L128.98,174.46 C129.4,174.52 129.72,174.54 130.42,174.54 L133.74,174.54 C134.44,174.54 134.76,174.52 135.16,174.46 L135.16,175.7 C134.62,175.64 134.38,175.62 133.74,175.62 L130.42,175.62 C129.78,175.62 129.4,175.64 128.98,175.7 Z M130.38,183.58 L129.08,183.58 C129.16,183 129.2,182.46 129.2,181.64 L129.2,178.94 C129.2,178.26 129.18,177.8 129.1,177.28 C129.62,177.34 130.08,177.36 130.7,177.36 L133.74,177.36 C134.6,177.36 134.82,177.36 135.18,177.3 C135.14,177.74 135.12,178.12 135.12,178.86 L135.12,181.74 C135.12,182.3 135.16,182.84 135.22,183.32 L133.98,183.32 L133.98,182.32 L130.38,182.32 L130.38,183.58 Z M130.36,178.38 L130.36,181.28 L133.98,181.28 L133.98,178.38 L130.36,178.38 Z M138.12,173.76 L138.12,180.9 C138.12,181.3 138.22,181.42 138.64,181.52 C138.98,181.6 139.84,181.64 140.98,181.64 C143.06,181.64 143.72,181.54 144.1,181.18 C144.4,180.86 144.6,179.84 144.7,177.94 C145.14,178.2 145.64,178.44 146.04,178.54 C145.82,180.48 145.58,181.5 145.16,182.04 C144.68,182.68 143.7,182.86 140.92,182.86 C139.2,182.86 138.24,182.78 137.64,182.62 C137.02,182.42 136.8,182.08 136.8,181.18 L136.8,174.46 C136.8,173.52 136.78,173.1 136.7,172.54 C137.28,172.6 137.82,172.62 138.64,172.62 L143.66,172.62 L143.66,167.48 L138.24,167.48 C137.42,167.48 136.94,167.5 136.4,167.58 L136.4,166.18 C136.96,166.26 137.54,166.3 138.24,166.3 L143.08,166.3 C143.92,166.3 144.4,166.28 144.98,166.22 C144.94,166.74 144.92,167.08 144.92,168.18 L144.92,171.98 C144.92,172.78 144.94,173.3 145,173.84 C144.38,173.78 143.88,173.76 143.04,173.76 L138.12,173.76 Z M156.22,176.5 L156.22,175.12 L151.52,175.12 C150.7,175.12 150.22,175.14 149.64,175.22 L149.64,173.98 C150.14,174.06 150.62,174.08 151.56,174.08 L156.22,174.08 L156.22,172.78 L152.04,172.78 C151.38,172.78 150.84,172.8 150.4,172.86 C150.46,172.4 150.48,172.04 150.48,171.52 L150.48,170.64 C150.48,170.1 150.46,169.78 150.4,169.28 C150.92,169.34 151.36,169.36 152.06,169.36 L156.22,169.36 L156.22,168.04 L150.42,168.04 C149.5,168.04 148.78,168.08 148.18,168.16 L148.18,166.84 C148.72,166.92 149.3,166.96 150.46,166.96 L156.22,166.96 C156.22,165.98 156.2,165.68 156.1,165.16 L157.56,165.16 C157.44,165.66 157.42,165.94 157.42,166.96 L163.54,166.96 C164.7,166.96 165.3,166.92 165.84,166.84 L165.84,168.16 C165.18,168.08 164.52,168.04 163.58,168.04 L157.42,168.04 L157.42,169.36 L162.02,169.36 C162.72,169.36 163.16,169.34 163.66,169.28 C163.6,169.78 163.58,170.08 163.58,170.64 L163.58,171.52 C163.58,172.08 163.6,172.36 163.66,172.86 C163.22,172.8 162.68,172.78 162.04,172.78 L157.42,172.78 L157.42,174.08 L161.78,174.08 C162.94,174.08 163.48,174.06 164.02,174 C163.98,174.42 163.96,174.8 163.96,175.66 L163.96,176.5 C165.1,176.5 165.64,176.48 166.08,176.38 L166.08,177.64 C165.58,177.56 165.02,177.54 163.96,177.54 L163.96,178.84 C163.96,179.82 164,180.36 164.08,180.84 L162.78,180.84 L162.78,180.02 L157.42,180.02 L157.42,181.68 C157.42,183.06 157.02,183.34 155.08,183.34 C154.66,183.34 154.3,183.32 153.18,183.26 C153.14,182.76 153.06,182.5 152.84,182 C153.86,182.14 154.56,182.2 155.32,182.2 C156.04,182.2 156.22,182.1 156.22,181.66 L156.22,180.02 L151.4,180.02 C150.48,180.02 150.06,180.04 149.44,180.12 L149.44,178.88 C150,178.96 150.4,178.98 151.36,178.98 L156.22,178.98 L156.22,177.54 L150.22,177.54 C149.12,177.54 148.58,177.56 148.04,177.64 L148.04,176.38 C148.52,176.46 149.08,176.5 150.22,176.5 L156.22,176.5 Z M157.42,176.5 L162.78,176.5 L162.78,175.12 L157.42,175.12 L157.42,176.5 Z M157.42,177.54 L157.42,178.98 L162.78,178.98 L162.78,177.54 L157.42,177.54 Z M156.22,170.34 L151.68,170.34 L151.68,171.82 L156.22,171.82 L156.22,170.34 Z M157.42,170.34 L157.42,171.82 L162.38,171.82 L162.38,170.34 L157.42,170.34 Z M174.34,171.68 L174.38,170.28 C175.36,170.52 176.22,170.6 177.98,170.6 C178.76,170.6 179.3,170.58 180.12,170.54 C180.1,168.66 180.1,168.66 180.1,167.14 C180.1,166.8 180.08,166.52 180.04,166.32 L181.54,166.32 C181.44,166.86 181.4,167.8 181.4,169.46 C181.4,169.68 181.4,170 181.42,170.44 C182.96,170.26 184.12,170.02 184.88,169.7 L184.94,171.06 C184.9,171.06 184.9,171.06 183.54,171.34 C183.02,171.46 182.46,171.54 181.42,171.66 C181.44,173.64 181.48,174.66 181.64,177.32 C183.1,177.98 183.66,178.3 184.98,179.28 C185.22,179.44 185.26,179.48 185.48,179.62 L184.86,181.02 C184.24,180.32 183.44,179.76 182.02,178.94 C181.94,178.9 181.94,178.9 181.82,178.82 C181.74,178.76 181.74,178.76 181.64,178.7 C181.68,179 181.68,179.04 181.68,179.22 C181.68,179.74 181.6,180.22 181.44,180.58 C180.96,181.64 179.74,182.26 178.1,182.26 C175.78,182.26 174.32,181.16 174.32,179.42 C174.32,177.76 175.9,176.58 178.12,176.58 C178.94,176.58 179.88,176.74 180.34,176.98 C180.28,176.56 180.2,174.68 180.14,171.76 C179.24,171.8 178.62,171.82 177.86,171.82 C177.04,171.82 176.3,171.8 175.6,171.76 C175.26,171.72 175.04,171.72 174.96,171.72 C174.78,171.7 174.66,171.7 174.62,171.7 C174.52,171.68 174.46,171.68 174.42,171.68 L174.34,171.68 Z M180.36,178.2 C179.54,177.88 179.02,177.78 178.22,177.78 C176.66,177.78 175.64,178.44 175.64,179.44 C175.64,180.42 176.56,181.06 177.96,181.06 C178.84,181.06 179.62,180.8 180,180.36 C180.26,180.06 180.38,179.58 180.38,178.8 C180.38,178.66 180.36,178.2 180.36,178.2 Z M170.8,166.3 L172.36,166.56 C171.5,168.56 170.82,172.66 170.82,175.94 C170.82,176.64 170.86,177.82 170.9,178.74 C170.9,178.9 170.9,178.94 170.92,179.3 L170.92,179.68 L171,179.7 C171.36,178.2 171.5,177.82 172.18,176.18 C172.26,176 172.3,175.92 172.34,175.78 L173.32,176.24 C172.38,178.2 171.6,180.74 171.6,181.92 C171.6,182.02 171.6,182.04 171.64,182.32 L170.22,182.46 C170.2,182.28 170.18,182.18 170.1,181.72 C169.74,179.86 169.54,177.8 169.54,175.78 C169.54,173.12 169.8,171.02 170.58,167.56 C170.76,166.68 170.78,166.56 170.8,166.3 Z M204.44,167.24 L205.24,168.2 C205.04,168.46 205,168.52 204.76,169 C203.38,171.68 201.52,173.5 198.92,174.7 C198.62,174.2 198.46,174.02 197.94,173.56 C199.34,173.02 200.16,172.54 201.1,171.66 C202.02,170.8 202.76,169.82 203.34,168.68 L191.98,168.68 C190.88,168.68 190.36,168.7 189.62,168.78 L189.62,167.24 C190.3,167.34 190.86,167.38 192,167.38 L202.74,167.38 C204.08,167.38 204.08,167.38 204.44,167.24 Z M195.72,170.72 L197.34,170.72 C197.28,171.08 197.28,171.08 197.26,172.12 C197.2,175.46 196.64,177.44 195.28,179.16 C194.06,180.7 192.58,181.7 190.16,182.62 C189.86,181.98 189.72,181.78 189.24,181.28 C190.86,180.8 191.86,180.3 192.9,179.44 C195.02,177.74 195.8,175.7 195.8,171.8 C195.8,171.24 195.78,171.1 195.72,170.72 Z M219.84,166.46 L221.52,167.1 C221.26,167.48 221.18,167.66 220.9,168.32 C219.6,171.38 218.98,172.6 217.96,174.16 C219.68,175.58 220.96,176.8 222.56,178.46 L221.44,179.7 C220.38,178.34 219.1,177.06 217.08,175.36 C214.98,178.24 212.54,180.34 209.04,182.32 C208.68,181.72 208.52,181.54 208,181.12 C211.2,179.56 213.76,177.4 215.96,174.44 C214.14,172.98 212.26,171.74 210.58,170.82 L211.58,169.76 C213.54,170.94 214.54,171.6 216.78,173.24 C217.72,171.76 218.44,170.32 219.14,168.58 C219.64,167.36 219.74,167.04 219.84,166.46 Z M229.12,168.94 L230.1,167.86 C232.24,169.22 233.48,170.2 234.92,171.62 L233.88,172.86 C232.44,171.3 230.86,170 229.12,168.94 Z M229.26,181.94 L228.82,180.26 C230.38,180.2 232.78,179.58 234.64,178.72 C238.5,177 241.18,174.06 242.8,169.82 C243.26,170.44 243.46,170.62 244.02,171 C242.42,174.48 240.56,176.82 237.92,178.64 C235.86,180.04 233.8,180.86 230.46,181.62 C229.92,181.74 229.76,181.78 229.26,181.94 Z M251.04,167.46 L252.72,167.76 C252.64,167.98 252.62,168.1 252.46,169.12 C251.62,174.82 250,178.66 247.18,181.6 C246.68,181.06 246.46,180.88 245.9,180.56 C247.14,179.4 247.96,178.28 248.8,176.6 C249.78,174.62 250.48,172.28 250.86,169.66 C250.98,168.86 251.06,168.14 251.06,167.78 C251.06,167.72 251.06,167.6 251.04,167.46 Z M256.78,167.76 L258.26,167.46 C258.26,168.32 258.7,170.62 259.18,172.26 C260.14,175.78 261.78,178.74 263.72,180.52 C263.18,180.86 262.94,181.08 262.48,181.64 C259.82,178.82 257.82,174.2 257.04,169.08 C256.94,168.38 256.86,168.02 256.78,167.76 Z M259.38,166.9 L260.38,166.4 C261.26,167.5 261.82,168.36 262.38,169.54 L261.36,170.12 C260.9,169.06 259.94,167.52 259.38,166.9 Z M261.68,165.88 L262.66,165.36 C263.54,166.46 264.04,167.26 264.66,168.52 L263.66,169.06 C263.24,168.1 262.44,166.82 261.68,165.88 Z M265.74,175.14 L265.74,173.5 C266.32,173.6 266.86,173.62 268.22,173.62 L279.84,173.62 C281.32,173.62 281.64,173.6 282.26,173.52 L282.26,175.14 C281.62,175.08 281.16,175.06 279.82,175.06 L268.22,175.06 C266.76,175.06 266.34,175.08 265.74,175.14 Z M287.02,171.42 L286.94,169.96 C287.46,170.04 287.8,170.06 288.48,170.06 C290.3,170.06 292.56,169.9 294.44,169.64 C294.14,168.96 293.82,168.16 293.46,167.26 C293.24,166.74 293.12,166.46 292.94,166.1 L294.52,165.88 C294.6,166.4 294.6,166.4 295.1,167.68 C295.58,168.96 295.64,169.06 295.82,169.44 C297.76,169.12 299.58,168.64 300.66,168.18 L300.86,169.6 C300.44,169.68 300.28,169.72 299.68,169.88 C298.48,170.2 298.24,170.26 296.98,170.5 C296.5,170.6 296.5,170.6 296.3,170.64 C297.02,172.2 298.5,174.6 299.9,176.46 L298.56,177.22 C298.02,176.78 297.74,176.6 297.18,176.4 C296.16,176.06 295.04,175.88 293.68,175.88 C292,175.88 290.78,176.16 289.88,176.72 C289.22,177.14 288.8,177.86 288.8,178.58 C288.8,179.2 289.08,179.74 289.56,180.14 C290.3,180.72 291.74,181.06 293.46,181.06 C295.44,181.06 297.64,180.56 299.14,179.78 L299.36,181.32 C297.36,182.06 295.46,182.4 293.48,182.4 C291.04,182.4 289.2,181.86 288.28,180.9 C287.7,180.28 287.38,179.5 287.38,178.7 C287.38,177.38 288.24,176.12 289.64,175.44 C290.7,174.92 291.9,174.7 293.52,174.7 C295.24,174.7 296.82,174.98 297.66,175.42 C296.62,174 296.12,173.18 295.26,171.5 C295.04,171.08 295.04,171.04 294.92,170.84 C292.94,171.12 290.44,171.32 287.8,171.36 C287.42,171.36 287.32,171.38 287.02,171.42 Z M311.58,165.98 L313.2,166.42 C312.94,166.9 312.94,166.9 310.98,171.92 C310.36,173.5 310.36,173.5 309.54,175.22 L309.32,175.66 C309.24,175.8 309.22,175.84 309.14,176.02 L309.24,176.06 C310.56,174.16 311.58,173.44 313,173.44 C313.86,173.44 314.64,173.9 315,174.62 C315.24,175.1 315.34,175.74 315.34,176.88 L315.34,178.24 C315.34,179.28 315.42,179.78 315.66,180.14 C315.92,180.52 316.52,180.76 317.18,180.76 C318.6,180.76 319.64,179.94 320.38,178.26 C320.8,177.34 321.02,176.5 321.14,175.42 C321.66,175.92 321.88,176.1 322.46,176.44 C322.06,178.02 321.66,179.02 321.04,179.96 C320.12,181.36 318.7,182.14 317.06,182.14 C315.58,182.14 314.52,181.48 314.14,180.34 C314.02,179.94 313.96,179.3 313.96,178.18 L313.96,177.04 C313.96,176.22 313.92,175.84 313.8,175.52 C313.62,175.02 313.26,174.78 312.66,174.78 C311.5,174.78 310.2,175.84 309.08,177.74 C308.42,178.86 307.5,181.14 307.24,182.34 L305.7,181.86 C305.96,181.3 305.96,181.3 308.84,173.62 C311.02,167.84 311.46,166.58 311.58,165.98 Z M336.02,174.56 L334.06,174.56 L334.06,181.3 C335.86,180.84 336.24,180.72 337.74,180.22 L337.8,181.4 C335.58,182.08 334.52,182.38 331.44,183.12 C330.92,183.24 330.78,183.28 330.5,183.4 L330.18,182.06 C330.8,182 331.44,181.9 332.82,181.58 L332.82,168.3 C332.82,167.54 332.8,166.9 332.74,166.22 C333.26,166.28 333.8,166.3 334.7,166.3 L339.88,166.3 C340.86,166.3 341.4,166.28 341.8,166.2 C341.76,166.72 341.74,167.12 341.74,168.4 L341.74,172.54 C341.74,173.76 341.76,174.08 341.8,174.62 C341.2,174.58 340.64,174.56 339.9,174.56 L337.22,174.56 C337.6,176.06 337.82,176.62 338.4,177.66 C339.9,176.68 341.36,175.5 341.84,174.84 L342.8,175.76 C342.7,175.86 342.68,175.86 342.54,175.98 C341.62,176.76 340.38,177.66 339,178.6 C340.14,180.14 341.42,181.16 343.5,182.2 C343.1,182.58 342.96,182.78 342.64,183.32 C340.42,182 339.14,180.86 337.98,179.18 C337.02,177.8 336.56,176.7 336.02,174.56 Z M334.04,167.4 L334.04,169.86 L340.56,169.86 L340.56,167.4 L334.04,167.4 Z M334.04,170.96 L334.04,173.48 L340.56,173.48 L340.56,170.96 L334.04,170.96 Z M326,181.58 L326,167.5 C326,166.96 325.98,166.48 325.94,165.98 C326.24,166.02 326.68,166.04 327.28,166.04 L330.2,166.04 C330.84,166.04 331.24,166.02 331.46,165.96 L332.18,166.78 C332.08,166.96 331.98,167.14 331.88,167.42 C331.18,169.12 330.6,170.34 329.7,172 C330.88,173.38 331.32,174.14 331.6,175.26 C331.72,175.76 331.78,176.24 331.78,176.82 C331.78,177.8 331.46,178.46 330.88,178.72 C330.56,178.86 330.06,178.92 329.24,178.92 C328.96,178.92 328.74,178.92 328.28,178.88 C328.24,178.34 328.16,178.04 327.98,177.62 C328.48,177.72 328.92,177.76 329.4,177.76 C330.26,177.76 330.52,177.5 330.52,176.68 C330.52,175.96 330.38,175.26 330.08,174.56 C329.72,173.74 329.34,173.2 328.36,172.14 C329.46,170.1 329.84,169.24 330.64,167.16 L327.24,167.16 L327.24,181.58 C327.24,182.3 327.26,182.84 327.34,183.44 L325.88,183.44 C325.96,182.88 326,182.32 326,181.58 Z M353.48,180.9 L353.48,172.4 L349.94,172.4 C349.08,172.4 348.56,172.44 347.96,172.52 L347.96,171.14 C348.5,171.22 349.06,171.26 349.94,171.26 L358.22,171.26 C359.1,171.26 359.66,171.22 360.2,171.14 L360.2,172.52 C359.64,172.44 359.1,172.4 358.22,172.4 L354.72,172.4 L354.72,175.66 L358.58,175.66 C359.44,175.66 359.98,175.62 360.5,175.54 L360.5,176.9 C359.92,176.8 359.4,176.78 358.58,176.78 L354.72,176.78 L354.72,181.22 C355.6,181.38 356.56,181.44 357.98,181.44 C359.6,181.44 360.98,181.38 362.66,181.24 C362.4,181.74 362.3,182.06 362.22,182.64 C360.48,182.68 360.34,182.68 359.8,182.68 C356.84,182.68 356.44,182.66 355.42,182.52 C352.3,182.08 350.34,180.88 349.28,178.76 C348.46,180.66 347.74,181.72 346.24,183.3 C345.9,182.88 345.76,182.74 345.2,182.36 C346.58,181.06 347.22,180.22 347.9,178.8 C348.58,177.4 349.12,175.38 349.12,174.24 L349.12,174.04 L350.52,174.32 L350.28,175.36 C350.18,175.84 349.88,177 349.74,177.48 C350.26,178.56 350.62,179.04 351.32,179.68 C351.9,180.18 352.56,180.56 353.48,180.9 Z M353.18,167.7 L353.18,166.74 C353.18,166.28 353.14,165.96 353.06,165.48 L354.62,165.48 C354.52,165.92 354.48,166.28 354.48,166.72 L354.48,167.7 L360.32,167.7 C361.1,167.7 361.68,167.68 362.32,167.62 C362.26,168.04 362.24,168.42 362.24,168.98 L362.24,170.24 C362.24,170.84 362.26,171.24 362.32,171.66 L361.02,171.66 L361.02,168.86 L347.06,168.86 L347.06,171.66 L345.74,171.66 C345.8,171.22 345.82,170.86 345.82,170.24 L345.82,168.98 C345.82,168.46 345.8,168 345.74,167.62 C346.38,167.68 346.96,167.7 347.76,167.7 L353.18,167.7 Z M365.9,170.34 L365.8,168.76 C366.18,168.78 366.38,168.78 366.52,168.78 C366.8,168.78 367.04,168.76 367.66,168.72 C368.78,168.64 368.9,168.62 371.36,168.48 L374.5,168.28 C376.96,168.14 377.22,168.12 377.88,168.1 L379.02,168.06 C380.74,167.96 381.12,167.92 381.4,167.84 L381.52,169.32 C380.72,169.32 380.04,169.4 379.28,169.6 C377.94,169.94 376.54,170.66 375.44,171.6 C373.84,172.94 372.98,174.56 372.98,176.22 C372.98,177.9 374,179.24 375.78,179.92 C376.76,180.28 378.02,180.56 378.78,180.56 L378.98,180.56 L378.72,182.18 C378.5,182.14 378.46,182.12 378.1,182.06 C376.12,181.72 374.92,181.3 373.78,180.52 C372.36,179.56 371.56,178.1 371.56,176.44 C371.56,174.12 372.92,171.92 375.3,170.3 C375.92,169.88 376.44,169.6 377.2,169.24 C376.06,169.44 374.9,169.54 372.8,169.68 C368.82,169.96 366.62,170.16 365.9,170.34 Z M378.18,172.26 L379.18,171.74 C380.08,172.82 380.64,173.66 381.24,174.84 L380.22,175.44 C379.74,174.38 378.78,172.88 378.18,172.26 Z M380.46,171.18 L381.44,170.64 C382.34,171.74 382.84,172.5 383.5,173.76 L382.5,174.32 C382.06,173.38 381.24,172.1 380.46,171.18 Z M395.06,168.68 L395.02,167.1 C395.02,166.58 395,166.36 394.94,165.94 L396.44,165.94 C396.36,166.58 396.34,166.88 396.34,168.44 L396.34,168.66 C400.12,168.64 401.66,168.6 402.32,168.52 L402.32,169.94 C401.58,169.86 400.88,169.84 398.5,169.84 C398.2,169.84 397.98,169.84 396.36,169.88 L396.36,173.84 C396.7,174.68 396.84,175.32 396.84,176.2 C396.84,178.28 395.88,180.12 394.16,181.42 C393.34,182.02 392.46,182.48 391,183.04 C390.66,182.4 390.54,182.22 390.12,181.78 C391.68,181.28 392.56,180.88 393.36,180.28 C394.82,179.18 395.52,177.88 395.6,176.06 C395.42,176.54 395.3,176.76 395.06,177.04 C394.46,177.76 393.6,178.12 392.54,178.12 C390.62,178.12 389.26,176.8 389.26,174.96 C389.26,173.06 390.76,171.66 392.8,171.66 C393.76,171.66 394.6,171.98 395.12,172.56 C395.1,172.28 395.1,172.2 395.1,171.46 C395.1,171.38 395.08,171.18 395.08,170.94 L395.08,169.9 C391.06,169.98 387.02,170.18 385.68,170.4 L385.62,168.94 C385.98,168.96 386.12,168.96 386.42,168.96 C387,168.96 387,168.96 390.22,168.84 C392.14,168.76 393.7,168.72 395.06,168.68 Z M395,174.52 C395,173.86 394.74,173.44 394.16,173.12 C393.78,172.9 393.36,172.8 392.82,172.8 C391.56,172.8 390.6,173.7 390.6,174.9 C390.6,176.06 391.44,176.88 392.66,176.88 C394.04,176.88 395,175.92 395,174.52 Z M406.1,177.3 C407.76,177.3 409.1,178.64 409.1,180.3 C409.1,181.96 407.76,183.3 406.1,183.3 C404.44,183.3 403.1,181.96 403.1,180.3 C403.1,178.64 404.44,177.3 406.1,177.3 Z M406.1,178.44 C405.08,178.44 404.24,179.28 404.24,180.3 C404.24,181.32 405.08,182.16 406.1,182.16 C407.12,182.16 407.96,181.32 407.96,180.3 C407.96,179.28 407.12,178.44 406.1,178.44 Z" id="この記事はアメンバーさん限定です。" fill="#333333"></path>
    </g>
</svg>