<?xml version="1.0" encoding="UTF-8" standalone="no"?>
<svg width="500px" height="400px" viewBox="0 0 500 400" version="1.1" xmlns="http://www.w3.org/2000/svg" xmlns:xlink="http://www.w3.org/1999/xlink" style="background: #EFEFEF;">
    <!-- Generator: Sketch 49.3 (51167) - http://www.bohemiancoding.com/sketch -->
    <title>2.2.4_ok</title>
    <desc>Created with Sketch.</desc>
    <defs>
        <rect id="path-1" x="40" y="44" width="420" height="312" rx="8"></rect>
        <filter x="-7.4%" y="-9.3%" width="114.8%" height="119.9%" filterUnits="objectBoundingBox" id="filter-2">
            <feOffset dx="0" dy="2" in="SourceAlpha" result="shadowOffsetOuter1"></feOffset>
            <feGaussianBlur stdDeviation="10" in="shadowOffsetOuter1" result="shadowBlurOuter1"></feGaussianBlur>
            <feColorMatrix values="0 0 0 0 0   0 0 0 0 0   0 0 0 0 0  0 0 0 0.1 0" type="matrix" in="shadowBlurOuter1"></feColorMatrix>
        </filter>
    </defs>
    <g id="2.2.4_ok" stroke="none" stroke-width="1" fill="none" fill-rule="evenodd">
        <g id="Rectangle-9">
            <use fill="black" fill-opacity="1" filter="url(#filter-2)" xlink:href="#path-1"></use>
            <use fill="#FFFFFF" fill-rule="evenodd" xlink:href="#path-1"></use>
        </g>
        <path d="M156.38,86.7 L157.72,88.22 C157.44,88.56 157.44,88.58 156.92,89.62 C156.22,91.1 155.06,92.6 153.84,93.64 C153.04,94.34 152.38,94.78 151.44,95.3 C150.84,94.46 150.54,94.16 149.64,93.48 C150.98,92.88 151.74,92.42 152.56,91.64 C153.38,90.88 154,90.06 154.46,89.1 L143.96,89.1 C142.56,89.1 142.06,89.12 141.24,89.22 L141.24,86.72 C142,86.84 142.62,86.88 144,86.88 L154.44,86.88 C155.64,86.88 155.82,86.86 156.38,86.7 Z M146.88,90.74 L149.6,90.74 C149.54,91.12 149.54,91.14 149.52,92.36 C149.44,95.78 148.9,97.7 147.54,99.44 C146.34,100.98 144.88,102 142.38,103.04 C141.86,101.96 141.6,101.6 140.8,100.76 C142.42,100.28 143.32,99.84 144.3,99.06 C146.34,97.44 146.98,95.72 146.98,91.94 C146.98,91.34 146.96,91.16 146.88,90.74 Z M162.311111,91.12 L164.431111,90.5 C165.271111,92.04 165.671111,93 166.391111,95.24 L164.131111,95.96 C163.611111,93.94 163.211111,92.88 162.311111,91.12 Z M166.591111,90.28 L168.691111,89.68 C169.751111,91.66 170.131111,92.54 170.631111,94.28 L168.411111,94.98 C168.031111,93.46 167.431111,91.92 166.591111,90.28 Z M173.471111,90.08 L175.911111,90.64 C175.791111,90.94 175.751111,91.04 175.631111,91.66 C175.051111,94.38 174.151111,96.58 172.871111,98.32 C171.391111,100.34 169.731111,101.64 166.771111,103.14 C166.251111,102.26 166.011111,101.96 165.171111,101.16 C166.571111,100.62 167.391111,100.18 168.571111,99.32 C170.911111,97.62 172.251111,95.58 173.111111,92.38 C173.371111,91.4 173.471111,90.7 173.471111,90.08 Z M183.962222,87.46 L193.142222,87.46 C193.742222,87.46 193.982222,87.44 194.322222,87.42 C194.342222,86.12 195.342222,85.1 196.622222,85.1 C197.902222,85.1 198.942222,86.14 198.942222,87.4 C198.942222,88.68 197.902222,89.72 196.622222,89.72 C196.502222,89.72 196.382222,89.7 196.242222,89.68 C194.622222,96.22 191.082222,100.3 184.762222,102.94 C184.242222,101.9 183.902222,101.44 183.002222,100.56 C188.542222,98.84 192.162222,95.12 193.442222,89.8 L183.922222,89.8 C182.442222,89.8 182.062222,89.82 181.402222,89.92 L181.402222,87.32 C182.122222,87.44 182.602222,87.46 183.962222,87.46 Z M196.622222,86.1 C195.902222,86.1 195.322222,86.68 195.322222,87.4 C195.322222,88.12 195.902222,88.72 196.622222,88.72 C197.362222,88.72 197.942222,88.12 197.942222,87.4 C197.942222,86.68 197.362222,86.1 196.622222,86.1 Z M213.773333,86.58 L213.773333,89.02 C213.153333,88.94 212.873333,88.92 211.233333,88.92 L205.273333,88.92 C203.633333,88.92 203.373333,88.94 202.733333,89.02 L202.733333,86.58 C203.413333,86.7 203.813333,86.72 205.313333,86.72 L211.193333,86.72 C212.713333,86.72 213.113333,86.7 213.773333,86.58 Z M215.033333,93.92 L210.753333,93.92 C210.533333,98.86 208.653333,101.5 204.133333,103.24 C203.653333,102.24 203.313333,101.8 202.493333,101.02 C206.413333,99.78 207.973333,97.8 208.113333,93.92 L203.253333,93.92 C201.693333,93.92 201.393333,93.94 200.713333,94.02 L200.713333,91.64 C201.413333,91.76 201.813333,91.78 203.293333,91.78 L214.993333,91.78 C216.473333,91.78 216.873333,91.76 217.573333,91.64 L217.573333,94.02 C216.893333,93.94 216.593333,93.92 215.033333,93.92 Z M219.273333,87.54 L217.793333,88.12 C217.333333,86.98 216.753333,85.96 216.073333,85.02 L217.513333,84.5 C218.313333,85.56 218.793333,86.36 219.273333,87.54 Z M213.453333,85.8 L214.933333,85.28 C215.693333,86.32 216.153333,87.12 216.713333,88.44 L215.213333,89 C214.653333,87.66 214.193333,86.84 213.453333,85.8 Z M220.864444,95.72 L220.864444,92.94 C221.744444,93.06 222.124444,93.08 224.104444,93.08 L234.764444,93.08 C236.744444,93.08 237.124444,93.06 238.004444,92.94 L238.004444,95.72 C237.204444,95.62 236.984444,95.62 234.744444,95.62 L224.124444,95.62 C221.884444,95.62 221.664444,95.62 220.864444,95.72 Z M247.595556,102.9 L244.855556,102.9 C244.955556,102.26 244.975556,101.72 244.975556,100.66 L244.975556,87.84 C244.975556,86.86 244.935556,86.34 244.855556,85.8 L247.595556,85.8 C247.515556,86.4 247.515556,86.66 247.515556,87.9 L247.515556,91.62 C250.255556,92.58 253.395556,94.04 256.595556,95.84 L255.195556,98.2 C253.535556,97.06 251.455556,95.92 248.115556,94.38 C247.655555,94.16 247.595556,94.14 247.435556,94.04 C247.495556,94.6 247.515556,94.84 247.515556,95.4 L247.515556,100.68 C247.515556,101.72 247.535556,102.24 247.595556,102.9 Z M271.226667,89.18 C270.846667,92.32 270.146667,95.08 269.146667,97.34 C268.006667,99.92 266.726667,101.1 265.086667,101.1 C262.806667,101.1 261.166667,98.78 261.166667,95.56 C261.166667,93.36 261.946667,91.3 263.366667,89.74 C265.046667,87.9 267.406667,86.94 270.246667,86.94 C275.046667,86.94 278.166667,89.86 278.166667,94.36 C278.166667,97.82 276.366667,100.58 273.306667,101.82 C272.346667,102.22 271.566667,102.42 270.166667,102.66 C269.826667,101.6 269.586667,101.16 268.946667,100.32 C270.786667,100.08 271.986667,99.76 272.926667,99.22 C274.666667,98.26 275.706667,96.36 275.706667,94.22 C275.706667,92.3 274.846667,90.74 273.246667,89.78 C272.626667,89.42 272.106667,89.26 271.226667,89.18 Z M268.786667,89.2 C267.746667,89.32 267.026667,89.6 266.206667,90.18 C264.526667,91.38 263.486667,93.44 263.486667,95.58 C263.486667,97.22 264.186667,98.52 265.066667,98.52 C265.726667,98.52 266.406667,97.68 267.126667,95.96 C267.886667,94.16 268.546667,91.46 268.786667,89.2 Z M288.037778,95.88 L288.057778,99.82 C288.057778,100.64 288.017778,101.12 287.897778,101.52 C287.717778,102.22 286.997778,102.68 286.057778,102.68 C284.797778,102.68 283.277778,102.12 282.277778,101.26 C281.557778,100.64 281.177778,99.86 281.177778,99 C281.177778,98.06 281.797778,97 282.897778,96.04 C283.617778,95.42 284.497778,94.9 285.817778,94.34 L285.797778,91.26 C285.637778,91.26 285.637778,91.26 284.977778,91.3 C284.677778,91.32 284.397778,91.32 283.897778,91.32 C283.597778,91.32 283.037778,91.3 282.797778,91.3 C282.537778,91.28 282.357778,91.28 282.297778,91.28 C282.217778,91.28 282.057778,91.28 281.877778,91.3 L281.857778,89.06 C282.417778,89.18 283.217778,89.24 284.277778,89.24 C284.477778,89.24 284.697778,89.24 284.977778,89.22 C285.457778,89.2 285.557778,89.2 285.777778,89.2 L285.777778,87.88 C285.777778,86.74 285.757778,86.22 285.657778,85.58 L288.157778,85.58 C288.057778,86.22 288.037778,86.64 288.037778,87.76 L288.037778,89.04 C289.537778,88.86 290.877778,88.6 291.897778,88.28 L291.977778,90.52 C291.617778,90.58 291.237778,90.64 289.857778,90.88 C289.197778,91 288.797778,91.06 288.037778,91.14 L288.037778,93.74 C289.397778,93.34 290.657778,93.18 292.117778,93.18 C295.457778,93.18 297.837778,95.22 297.837778,98.06 C297.837778,100.66 295.897778,102.62 293.297778,102.62 C291.677778,102.62 290.537778,101.84 290.017778,100.4 C289.757778,99.72 289.677778,99.06 289.677778,97.84 C290.697778,97.56 291.037778,97.42 291.897778,96.96 C291.857778,97.34 291.857778,97.52 291.857778,97.84 C291.857778,98.68 291.937778,99.22 292.137778,99.6 C292.357778,100.02 292.837778,100.28 293.397778,100.28 C294.577778,100.28 295.417778,99.34 295.417778,98.06 C295.417778,96.34 294.017778,95.22 291.877778,95.22 C290.677778,95.22 289.457778,95.44 288.037778,95.88 Z M285.797778,99.52 L285.797778,96.6 C284.297778,97.4 283.417778,98.28 283.417778,99 C283.417778,99.34 283.617778,99.64 284.077778,99.92 C284.477778,100.2 284.977778,100.36 285.357778,100.36 C285.697778,100.36 285.797778,100.18 285.797778,99.52 Z M298.717778,91.08 L296.877778,92.56 C295.877778,90.98 294.417778,89.4 292.877778,88.24 L294.757778,86.98 C296.497778,88.32 297.657778,89.52 298.717778,91.08 Z M304.968889,89.72 L303.988889,89.72 C303.428889,90.86 303.048889,91.46 302.248889,92.44 C301.728889,91.82 301.288889,91.42 300.528889,90.92 C301.808889,89.56 302.528889,88.24 303.088889,86.24 C303.248889,85.72 303.308889,85.38 303.328889,85 L305.588889,85.44 C305.488889,85.7 305.428889,85.88 305.248889,86.48 C305.128889,86.9 305.008889,87.24 304.828889,87.74 L307.848889,87.74 C308.788889,87.74 309.268889,87.72 309.828889,87.64 L309.828889,89.82 C309.248889,89.76 308.608889,89.72 307.848889,89.72 L307.108889,89.72 C307.068889,91.84 307.068889,91.84 306.988889,92.86 L308.188889,92.86 C309.048889,92.86 309.508889,92.84 310.068889,92.76 L310.068889,94.96 C309.528889,94.88 308.988889,94.86 308.128889,94.86 L306.788889,94.86 C306.748889,95.14 306.728889,95.24 306.668889,95.54 C307.128889,96.36 307.288889,96.6 307.708889,97.12 C308.488889,98.12 309.088889,98.7 310.308889,99.64 C309.788889,100.3 309.468889,100.88 309.088889,101.82 C307.648889,100.5 306.648889,99.3 305.988889,98.04 C305.208889,100.08 304.268889,101.32 302.128889,103.1 C301.688889,102.3 301.288889,101.88 300.468889,101.3 C302.048889,100.32 303.088889,99.18 303.828889,97.68 C304.208889,96.86 304.448889,96.02 304.648889,94.86 L303.108889,94.86 C302.048889,94.86 301.508889,94.88 300.928889,94.98 L300.928889,92.74 C301.508889,92.84 302.008889,92.86 303.168889,92.86 L304.868889,92.86 C304.908889,92.24 304.948889,91.18 304.968889,89.72 Z M312.668889,101.64 L312.668889,103 L310.448889,103 C310.508889,102.36 310.568889,101.5 310.568889,100.7 L310.568889,88.92 C310.568889,88.12 310.528889,87.46 310.448889,86.8 C311.028889,86.88 311.428889,86.9 312.288889,86.9 L316.488889,86.9 C317.288889,86.9 317.768889,86.88 318.348889,86.8 C318.268889,87.44 318.248889,88 318.248889,88.92 L318.248889,100.5 C318.248889,101.42 318.288889,102.28 318.368889,103.02 L316.108889,103.02 L316.108889,101.64 L312.668889,101.64 Z M312.708889,88.9 L312.708889,99.64 L316.108889,99.64 L316.108889,88.9 L312.708889,88.9 Z M325.74,87.7 L326.9,85.68 C328.28,86.44 332.1,87.58 334.36,87.9 L333.54,90.2 C330.12,89.42 328.02,88.76 325.74,87.7 Z M324.14,89.46 L326.64,89.6 C326.34,90.7 326,92.56 325.74,94.52 C325.7,94.8 325.7,94.8 325.64,95.1 L325.68,95.14 C326.84,94.02 329.32,93.24 331.74,93.24 C335.14,93.24 337.38,94.92 337.38,97.48 C337.38,98.94 336.6,100.42 335.32,101.34 C334.02,102.28 332.36,102.7 330.04,102.7 C328.32,102.7 327.22,102.56 324.94,102 C324.92,100.76 324.88,100.36 324.64,99.42 C326.6,100.1 328.32,100.42 330.02,100.42 C332.84,100.42 334.8,99.24 334.8,97.54 C334.8,96.2 333.54,95.4 331.42,95.4 C329.64,95.4 327.78,95.94 326.44,96.86 C326.08,97.12 325.96,97.24 325.54,97.72 L323.02,97.64 C323.08,97.28 323.08,97.2 323.18,96.44 C323.34,95.2 323.66,92.98 324.02,90.62 C324.1,90.14 324.12,89.9 324.14,89.46 Z M357.251111,99.38 L357.411111,102.06 C357.191111,102.08 357.191111,102.08 356.511111,102.16 C355.051111,102.32 352.411111,102.46 351.091111,102.46 C347.351111,102.46 345.731111,101.74 345.131111,99.82 C344.851111,98.92 344.771111,97.8 344.771111,94.36 C344.771111,94.06 344.771111,93.98 344.791111,92.42 C341.991111,92.62 341.991111,92.62 341.091111,92.78 L340.931111,90.44 C341.211111,90.46 341.411111,90.46 341.511111,90.46 C341.691111,90.46 342.791111,90.4 344.771111,90.28 C344.791111,89.96 344.791111,89.78 344.791111,89.66 C344.791111,87.54 344.771111,86.98 344.651111,86.26 L347.331111,86.26 C347.211111,87 347.211111,87 347.151111,90.16 C349.951111,90.02 349.951111,90.02 352.931111,89.88 C352.931111,86.7 352.931111,86.7 352.811111,85.92 L355.311111,85.92 C355.231111,86.56 355.211111,86.8 355.211111,87.3 L355.211111,89.8 C358.431111,89.7 358.431111,89.7 359.091111,89.62 L359.131111,92 C358.671111,91.94 358.491111,91.94 357.991111,91.94 C357.291111,91.94 356.151111,91.96 355.211111,91.96 C355.191111,93.98 355.011111,95.48 354.691111,96.2 C354.251111,97.2 353.431111,97.7 352.251111,97.7 C351.311111,97.7 350.431111,97.5 349.391111,97.02 C349.411111,96.62 349.411111,96.5 349.411111,96.22 C349.411111,95.68 349.371111,95.3 349.271111,94.58 C350.351111,95.2 351.291111,95.56 351.891111,95.56 C352.411111,95.56 352.631111,95.3 352.751111,94.52 C352.851111,93.94 352.911111,93.14 352.931111,92.02 C349.891111,92.14 349.891111,92.14 347.111111,92.3 L347.111111,92.84 C347.111111,92.94 347.111111,92.94 347.091111,94 L347.091111,94.42 C347.091111,95.46 347.151111,97.64 347.191111,98.04 C347.351111,99.72 348.211111,100.14 351.471111,100.14 C354.071111,100.14 355.951111,99.9 357.251111,99.38 Z" id="アップデートのお知らせ" fill="#333333"></path>
        <path d="M138,142.608 C138.72,142.608 139.312,143.2 139.312,143.92 C139.312,144.64 138.72,145.232 138,145.232 C137.28,145.232 136.688,144.64 136.688,143.92 C136.688,143.2 137.28,142.608 138,142.608 Z M154.159111,138.768 L148.767111,138.768 C148.159111,138.768 147.535111,138.8 147.023111,138.864 L147.023111,137.696 C147.519111,137.76 148.047111,137.792 148.751111,137.792 L159.391111,137.792 C160.159111,137.792 160.671111,137.76 161.135111,137.696 L161.135111,138.864 C160.639111,138.8 160.063111,138.768 159.407111,138.768 L155.391111,138.768 C154.991111,139.568 154.815111,139.888 154.367111,140.56 L154.367111,149.424 C154.367111,150.08 154.399111,150.608 154.479111,151.152 L153.167111,151.152 C153.231111,150.624 153.279111,150.016 153.279111,149.424 L153.279111,143.712 C153.279111,143.072 153.295111,142.528 153.311111,141.888 C152.719111,142.704 151.887111,143.584 150.863111,144.48 C149.887111,145.36 148.895111,146.08 147.407111,146.992 C147.215111,146.64 147.055111,146.432 146.671111,146.048 C148.735111,144.912 150.159111,143.84 151.615111,142.32 C152.799111,141.104 153.407111,140.24 154.159111,138.768 Z M155.183111,142.064 L155.967111,141.408 C156.831111,142.48 157.471111,143.104 158.431111,143.888 C159.487111,144.72 160.431111,145.312 161.631111,145.872 C161.343111,146.144 161.167111,146.384 160.895111,146.864 C158.511111,145.552 156.703111,144.016 155.183111,142.064 Z M167.118222,137.408 L173.486222,137.408 C174.190222,137.408 174.574222,137.392 175.134222,137.328 C175.070222,137.712 175.054222,138.128 175.054222,138.896 L175.054222,144.192 C175.054222,144.96 175.070222,145.424 175.134222,145.792 C174.590222,145.744 174.046222,145.712 173.438222,145.712 L167.022222,145.712 C166.414222,145.712 165.854222,145.744 165.326222,145.792 C165.390222,145.392 165.406222,144.912 165.406222,144.144 L165.406222,138.832 C165.406222,138.128 165.390222,137.776 165.326222,137.328 C165.838222,137.392 166.366222,137.408 167.118222,137.408 Z M174.062222,138.288 L166.398222,138.288 L166.398222,139.84 L174.062222,139.84 L174.062222,138.288 Z M174.062222,140.704 L166.398222,140.704 L166.398222,142.32 L174.062222,142.32 L174.062222,140.704 Z M174.062222,143.184 L166.398222,143.184 L166.398222,144.848 L174.062222,144.848 L174.062222,143.184 Z M163.166222,147.92 L163.166222,146.784 C163.598222,146.848 164.158222,146.88 164.814222,146.88 L175.726222,146.88 C176.398222,146.88 176.942222,146.848 177.374222,146.784 L177.374222,147.92 C176.926222,147.856 176.350222,147.824 175.742222,147.824 L164.814222,147.824 C164.158222,147.824 163.630222,147.856 163.166222,147.92 Z M167.870222,148.176 L168.766222,148.752 C167.278222,150.016 166.334222,150.512 164.126222,151.168 C163.886222,150.768 163.774222,150.624 163.406222,150.272 C164.798222,149.936 165.422222,149.728 166.206222,149.344 C166.846222,149.008 167.214222,148.752 167.870222,148.176 Z M171.550222,148.736 L172.430222,148.144 C173.822222,149.168 174.798222,149.584 177.102222,150.176 C176.782222,150.528 176.654222,150.704 176.398222,151.104 C174.222222,150.448 173.278222,149.984 171.550222,148.736 Z M185.677333,136.736 L186.877333,136.736 C187.549333,137.824 188.285333,138.624 189.517333,139.632 C190.877333,140.752 192.381333,141.648 193.901333,142.256 C193.613333,142.592 193.453333,142.864 193.261333,143.264 C191.661333,142.48 190.045333,141.424 188.749333,140.32 C187.741333,139.472 187.005333,138.656 186.285333,137.632 C185.213333,139.136 184.333333,140.048 182.925333,141.136 C181.837333,141.968 180.829333,142.592 179.533333,143.216 C179.357333,142.848 179.229333,142.672 178.861333,142.304 C180.509333,141.568 181.885333,140.688 183.213333,139.52 C184.349333,138.544 184.973333,137.824 185.677333,136.736 Z M182.557333,142.688 L182.557333,141.6 C182.845333,141.648 183.229333,141.664 183.821333,141.664 L188.781333,141.664 C189.405333,141.664 189.789333,141.648 190.125333,141.6 L190.125333,142.688 C189.773333,142.64 189.389333,142.624 188.781333,142.624 L183.805333,142.624 C183.309333,142.624 182.893333,142.64 182.557333,142.688 Z M182.445333,151.04 L181.293333,151.04 C181.357333,150.544 181.389333,150.08 181.389333,149.472 L181.389333,145.936 C181.389333,145.344 181.373333,144.912 181.309333,144.464 C181.645333,144.512 181.981333,144.528 182.557333,144.528 L190.061333,144.528 C190.637333,144.528 190.973333,144.512 191.309333,144.464 C191.245333,144.896 191.229333,145.312 191.229333,145.936 L191.229333,149.472 C191.229333,150.096 191.261333,150.576 191.325333,151.04 L190.173333,151.04 L190.173333,150.112 L182.445333,150.112 L182.445333,151.04 Z M182.445333,145.504 L182.445333,149.168 L190.173333,149.168 L190.173333,145.504 L182.445333,145.504 Z M199.996444,139.232 L200.252444,139.232 C200.780444,138.112 200.972444,137.552 201.020444,137.04 L202.300444,137.264 C202.156444,137.472 202.156444,137.472 201.884444,138.128 C201.676444,138.64 201.468444,139.072 201.388444,139.216 C201.580444,139.2 201.580444,139.2 201.724444,139.2 C204.284444,139.072 205.884444,138.88 206.764444,138.592 L206.860444,139.68 C206.604444,139.696 206.508444,139.712 206.220444,139.76 C204.556444,139.984 202.876444,140.112 200.940444,140.176 C200.460444,141.12 200.060444,141.76 199.500444,142.448 C199.340444,142.64 199.020444,143.008 198.956444,143.056 C198.844444,143.136 198.764444,143.2 198.748444,143.216 C198.748444,143.232 198.732444,143.232 198.732444,143.232 L198.732444,143.248 C198.748444,143.28 198.748444,143.28 198.764444,143.296 C199.340444,142.848 199.340444,142.848 199.500444,142.736 C200.236444,142.224 201.084444,141.952 201.916444,141.952 C203.100444,141.952 203.820444,142.544 204.028444,143.728 C205.196444,143.264 206.108444,142.928 206.812444,142.672 C207.596444,142.4 207.644444,142.384 207.900444,142.208 L208.412444,143.328 C207.580444,143.472 206.140444,143.952 204.140444,144.736 C204.172444,145.152 204.172444,145.312 204.172444,145.712 C204.172444,145.92 204.172444,146.272 204.156444,146.592 C204.140444,146.944 204.140444,147.168 204.140444,147.312 C204.140444,147.536 204.140444,147.664 204.172444,147.888 L203.084444,147.904 C203.132444,147.552 203.180444,146.576 203.180444,145.6 C203.180444,145.344 203.180444,145.312 203.164444,145.12 C200.988444,146.144 200.156444,146.896 200.156444,147.856 C200.156444,148.912 201.148444,149.376 203.404444,149.376 C204.988444,149.376 206.764444,149.12 207.676444,148.752 L207.820444,149.984 C207.580444,150 207.500444,150.016 207.180444,150.064 C205.916444,150.272 204.524444,150.384 203.292444,150.384 C200.428444,150.384 199.036444,149.568 199.036444,147.92 C199.036444,147.04 199.580444,146.208 200.668444,145.392 C201.212444,144.992 201.980444,144.576 203.052444,144.112 C202.924444,143.232 202.540444,142.848 201.788444,142.848 C200.780444,142.848 199.516444,143.44 198.220444,144.544 C197.596444,145.072 197.244444,145.44 196.988444,145.872 L196.092444,144.976 C197.196444,144.128 198.524444,142.448 199.676444,140.4 L199.820444,140.16 C199.756444,140.176 199.596444,140.192 199.516444,140.192 C199.260444,140.192 197.756444,140.16 197.164444,140.144 L196.908444,140.144 C196.764444,140.144 196.732444,140.144 196.556444,140.16 L196.572444,139.056 C197.148444,139.168 198.364444,139.232 199.996444,139.232 Z M225.675556,138.08 L225.675556,139.136 C225.179555,139.072 224.779556,139.056 224.123556,139.056 C223.499555,140.224 222.939555,140.928 221.947555,141.744 C223.211556,142.496 224.411555,142.928 226.219556,143.264 C226.011555,143.568 225.867555,143.84 225.755556,144.224 C223.643555,143.664 222.507555,143.184 221.211556,142.288 C219.931556,143.152 218.859555,143.632 217.083555,144.144 C216.923555,143.776 216.795555,143.568 216.571555,143.312 C218.267556,142.912 219.275555,142.512 220.491556,141.744 C219.707556,141.056 219.291556,140.544 218.795555,139.648 C218.219556,140.448 217.883555,140.848 217.179555,141.504 C217.067555,141.312 216.811555,141.104 216.443556,140.912 C217.323555,140.16 217.819555,139.6 218.363555,138.752 C218.843555,138 219.115555,137.392 219.355555,136.576 L220.379555,136.832 C220.043555,137.488 220.011555,137.584 219.691555,138.176 L224.043555,138.176 C224.859555,138.176 225.291556,138.144 225.675556,138.08 Z M223.051556,139.056 L219.371555,139.056 C219.867555,139.984 220.331555,140.544 221.227555,141.232 C222.139555,140.528 222.587556,139.984 223.051556,139.056 Z M212.955556,149.232 L212.955556,144.256 C212.955556,143.424 212.971555,142.656 213.003556,141.904 C212.603555,142.816 212.251555,143.392 211.547555,144.272 C211.307555,143.872 211.131555,143.632 210.891555,143.392 C212.507555,141.584 213.915555,138.768 214.267556,136.64 L215.355555,136.928 C215.259555,137.136 215.243556,137.216 215.115555,137.6 C214.811555,138.576 214.491556,139.36 213.931556,140.496 L213.931556,149.216 C213.931556,150.176 213.947555,150.64 213.995555,151.2 L212.859555,151.2 C212.923555,150.624 212.955556,150.128 212.955556,149.232 Z M221.403555,143.408 L222.219556,144.064 C222.059555,144.176 222.059555,144.176 221.707556,144.432 C221.275555,144.752 220.299555,145.248 219.499555,145.568 C218.795555,145.856 218.267556,146.016 217.355555,146.256 C217.195556,145.92 217.083555,145.728 216.795555,145.408 C218.875555,145.024 220.603555,144.272 221.403555,143.408 Z M224.747556,146.288 L225.643555,146.928 C225.435555,147.088 225.323555,147.168 225.003556,147.456 C224.027556,148.288 222.747556,149.088 221.451555,149.68 C220.235556,150.24 218.955556,150.656 217.035555,151.088 C216.859555,150.688 216.715555,150.432 216.491556,150.176 C218.987555,149.728 220.939555,149.04 222.619555,148.016 C223.707556,147.36 224.331555,146.848 224.747556,146.288 Z M215.179555,139.456 L216.251555,139.456 C216.203555,139.872 216.187556,140.176 216.187556,140.816 L216.187556,147.12 C216.187556,147.952 216.203555,148.288 216.267556,148.752 L215.163556,148.752 C215.227555,148.256 215.259555,147.888 215.259555,147.12 L215.259555,140.832 C215.259555,140.192 215.243556,139.888 215.179555,139.456 Z M222.907556,144.8 L223.803556,145.424 C222.747556,146.256 222.347555,146.544 221.579555,146.96 C220.411555,147.616 219.259556,148.048 217.483555,148.496 C217.323555,148.08 217.179555,147.856 216.939555,147.616 C218.555555,147.312 219.851555,146.864 221.067555,146.208 C221.915555,145.744 222.571555,145.232 222.907556,144.8 Z M234.554667,149.36 L234.554667,138.56 L230.026667,138.56 C229.290667,138.56 228.746667,138.592 228.218667,138.656 L228.218667,137.488 C228.714667,137.552 229.242667,137.584 229.994667,137.584 L239.370667,137.584 C240.106667,137.584 240.618667,137.552 241.146667,137.488 L241.146667,138.656 C240.618667,138.592 240.058667,138.56 239.370667,138.56 L235.658667,138.56 L235.658667,143.12 L238.842667,143.12 C239.610667,143.12 240.090667,143.088 240.490667,143.024 L240.490667,144.176 C240.090667,144.112 239.578667,144.08 238.842667,144.08 L235.658667,144.08 L235.658667,149.36 L239.850667,149.36 C240.650667,149.36 241.146667,149.328 241.706667,149.248 L241.706667,150.448 C241.178667,150.368 240.618667,150.336 239.866667,150.336 L229.450667,150.336 C228.698667,150.336 228.154667,150.368 227.594667,150.448 L227.594667,149.248 C228.090667,149.328 228.570667,149.36 229.434667,149.36 L230.234667,149.36 L230.234667,143.792 C230.234667,143.008 230.202667,142.496 230.122667,141.952 L231.434667,141.952 C231.354667,142.464 231.322667,143.008 231.322667,143.792 L231.322667,149.36 L234.554667,149.36 Z M246.489778,137.52 L247.881778,137.52 C247.785778,138.064 247.721778,138.88 247.673778,140.896 C247.609778,142.816 247.561778,144.992 247.561778,145.712 C247.561778,145.904 247.577778,146.304 247.593778,146.672 C247.657778,147.632 247.865778,148.16 248.345778,148.592 C248.793778,148.992 249.513778,149.216 250.345778,149.216 C252.249778,149.216 253.721778,148.256 254.633778,146.432 C255.001778,145.664 255.193778,145.04 255.417778,143.92 C255.865778,144.304 256.057778,144.432 256.569778,144.688 C255.961778,146.56 255.497778,147.504 254.793778,148.32 C253.657778,149.664 252.153778,150.32 250.281778,150.32 C248.921778,150.32 247.913778,149.936 247.273778,149.2 C246.617778,148.448 246.393778,147.6 246.393778,145.92 C246.393778,144.848 246.409778,144.448 246.537778,139.408 C246.553778,138.928 246.553778,138.624 246.553778,138.368 C246.553778,138.032 246.537778,137.84 246.489778,137.52 Z M272.888889,148.72 L272.248889,149.84 C271.512889,149.072 270.344889,148.256 268.984889,147.552 C268.712889,147.408 268.344889,147.248 267.912889,147.072 C267.944889,147.44 267.944889,147.44 267.944889,147.648 C267.944889,148.496 267.832889,149.008 267.544889,149.392 C267.080889,150.048 266.104889,150.4 264.840889,150.4 C263.784889,150.4 262.904889,150.176 262.360889,149.76 C261.816889,149.36 261.496889,148.736 261.496889,148.08 C261.496889,147.024 262.328889,146.192 263.736889,145.872 C264.216889,145.76 264.696889,145.712 265.400889,145.712 C265.928889,145.712 266.152889,145.728 266.840889,145.84 C266.824889,145.792 266.824889,145.792 266.824889,145.648 C266.824889,145.632 266.808889,145.568 266.808889,145.472 C266.792889,145.328 266.792889,144.992 266.776889,144.528 C266.760889,144.32 266.760889,144.016 266.744889,143.6 C266.168889,143.616 265.368889,143.632 264.856889,143.632 C263.896889,143.632 263.144889,143.6 262.152889,143.52 C261.976889,143.504 261.848889,143.504 261.752889,143.504 L261.624889,143.504 L261.640889,142.448 C262.360889,142.608 263.688889,142.704 265.304889,142.704 C265.720889,142.704 266.280889,142.704 266.728889,142.688 L266.696889,140.496 C266.232889,140.512 265.976889,140.512 265.608889,140.512 C264.440889,140.512 263.144889,140.464 261.704889,140.352 C261.592889,140.336 261.496889,140.336 261.416889,140.336 C261.368889,140.336 261.288889,140.336 261.192889,140.352 L261.208889,139.264 C261.896889,139.456 263.560889,139.584 265.304889,139.584 C265.624889,139.584 266.168889,139.568 266.696889,139.568 C266.680889,137.616 266.680889,137.616 266.616889,137.264 L267.848889,137.264 C267.784889,137.6 267.752889,138.368 267.736889,139.52 C269.944889,139.376 271.592889,139.152 272.472889,138.864 L272.552889,139.952 C272.280889,139.968 272.280889,139.968 271.448889,140.08 C269.944889,140.304 269.512889,140.352 267.736889,140.464 C267.752889,141.776 267.752889,141.776 267.768889,142.624 C269.944889,142.464 271.320889,142.272 272.200889,141.968 L272.264889,143.072 C272.056889,143.088 271.896889,143.104 271.336889,143.184 C270.232889,143.36 268.968889,143.488 267.784889,143.568 C267.816889,144.464 267.816889,144.464 267.880889,146.016 C269.272889,146.4 270.664889,147.136 272.344889,148.352 C272.600889,148.544 272.680889,148.592 272.888889,148.72 Z M266.856889,147.424 L266.840889,146.816 C266.232889,146.672 265.912889,146.64 265.208889,146.64 C263.624889,146.64 262.584889,147.216 262.584889,148.064 C262.584889,148.912 263.384889,149.392 264.776889,149.392 C265.624889,149.392 266.232889,149.216 266.536889,148.864 C266.760889,148.64 266.856889,148.192 266.856889,147.424 Z M278.712,137.52 L280.104,137.52 C280.008,138.064 279.944,138.88 279.896,140.896 C279.832,142.816 279.784,144.992 279.784,145.712 C279.784,145.904 279.8,146.304 279.816,146.672 C279.88,147.632 280.088,148.16 280.568,148.592 C281.016,148.992 281.736,149.216 282.568,149.216 C284.472,149.216 285.944,148.256 286.856,146.432 C287.224,145.664 287.416,145.04 287.64,143.92 C288.088,144.304 288.28,144.432 288.792,144.688 C288.184,146.56 287.72,147.504 287.016,148.32 C285.88,149.664 284.376,150.32 282.504,150.32 C281.144,150.32 280.136,149.936 279.496,149.2 C278.84,148.448 278.616,147.6 278.616,145.92 C278.616,144.848 278.632,144.448 278.76,139.408 C278.776,138.928 278.776,138.624 278.776,138.368 C278.776,138.032 278.76,137.84 278.712,137.52 Z M292.887111,141.072 L292.887111,139.952 C293.399111,140.048 294.039111,140.096 294.887111,140.096 C295.207111,140.096 295.383111,140.096 295.847111,140.064 C296.167111,138.096 296.199111,137.824 296.199111,137.12 L297.463111,137.248 C297.367111,137.632 297.367111,137.632 297.175111,138.768 C297.095111,139.28 297.047111,139.504 296.967111,139.984 C298.215111,139.856 299.079111,139.696 299.847111,139.44 L299.927111,140.544 C299.799111,140.56 299.799111,140.56 299.479111,140.624 C298.663111,140.8 297.559111,140.944 296.775111,141.008 C296.535111,142.272 296.087111,144.08 295.655111,145.536 C295.127111,147.248 294.663111,148.464 293.815111,150.416 L292.647111,149.92 C293.831111,147.856 295.063111,144.208 295.655111,141.072 C295.335111,141.088 295.143111,141.088 294.551111,141.088 C293.991111,141.088 293.847111,141.088 293.223111,141.056 L293.159111,141.056 C293.127111,141.056 293.031111,141.056 292.887111,141.072 Z M304.967111,141.856 L304.983111,142.992 C304.215111,142.912 303.767111,142.88 303.095111,142.88 C301.671111,142.88 300.551111,143.024 299.095111,143.424 L298.983111,142.336 C300.839111,141.936 301.879111,141.808 303.223111,141.808 C303.527111,141.808 303.767111,141.808 304.967111,141.856 Z M299.143111,145.312 L300.039111,145.76 C299.719111,146.144 299.671111,146.192 299.559111,146.368 C299.303111,146.704 299.159111,147.12 299.159111,147.504 C299.159111,148.464 300.135111,148.976 301.959111,148.976 C303.159111,148.976 304.583111,148.752 305.495111,148.432 L305.607111,149.632 C305.431111,149.664 305.431111,149.664 304.903111,149.744 C303.831111,149.936 302.903111,150.016 302.055111,150.016 C299.431111,150.016 298.071111,149.2 298.071111,147.616 C298.071111,146.896 298.295111,146.4 299.143111,145.312 Z M310.502222,146.24 C311.830222,146.24 312.902222,147.312 312.902222,148.64 C312.902222,149.968 311.830222,151.04 310.502222,151.04 C309.174222,151.04 308.102222,149.968 308.102222,148.64 C308.102222,147.312 309.174222,146.24 310.502222,146.24 Z M310.502222,147.152 C309.686222,147.152 309.014222,147.824 309.014222,148.64 C309.014222,149.456 309.686222,150.128 310.502222,150.128 C311.318222,150.128 311.990222,149.456 311.990222,148.64 C311.990222,147.824 311.318222,147.152 310.502222,147.152 Z" id="・不具合を修正しました。" fill="#333333"></path>
        <path d="M138,174.608 C138.72,174.608 139.312,175.2 139.312,175.92 C139.312,176.64 138.72,177.232 138,177.232 C137.28,177.232 136.688,176.64 136.688,175.92 C136.688,175.2 137.28,174.608 138,174.608 Z M161.151111,175.072 L161.151111,176.4 C160.575111,176.32 160.031111,176.288 159.039111,176.288 L149.183111,176.288 C148.303111,176.288 147.567111,176.32 147.055111,176.4 L147.055111,175.072 C147.567111,175.152 148.255111,175.184 149.183111,175.184 L159.039111,175.184 C159.983111,175.184 160.671111,175.152 161.151111,175.072 Z M167.918222,170.48 L169.694222,170.48 C170.414222,170.48 170.814222,170.464 171.182222,170.4 L171.182222,171.456 C170.862222,171.392 170.414222,171.376 169.710222,171.376 L164.926222,171.376 C164.270222,171.376 163.854222,171.392 163.486222,171.456 L163.486222,170.4 C163.870222,170.464 164.238222,170.48 164.974222,170.48 L166.910222,170.48 L166.910222,169.888 C166.910222,169.376 166.878222,168.976 166.814222,168.672 L168.014222,168.672 C167.950222,169.04 167.918222,169.392 167.918222,169.904 L167.918222,170.48 Z M168.990222,174.832 L169.902222,174.832 C170.638222,174.832 171.070222,174.816 171.390222,174.752 L171.390222,175.824 C171.070222,175.776 170.606222,175.744 169.934222,175.744 L164.574222,175.744 C163.838222,175.744 163.438222,175.76 163.054222,175.824 L163.054222,174.752 C163.422222,174.816 163.854222,174.832 164.590222,174.832 L168.046222,174.832 C168.622222,173.664 168.894222,172.912 169.198222,171.648 L170.174222,171.984 C169.774222,173.184 169.518222,173.824 168.990222,174.832 Z M164.526222,172 L165.422222,171.68 C165.934222,172.64 166.158222,173.216 166.494222,174.336 L165.566222,174.656 C165.310222,173.664 165.054222,173.024 164.526222,172 Z M165.150222,182.112 L165.150222,183.104 L164.078222,183.104 C164.126222,182.736 164.142222,182.384 164.142222,181.664 L164.142222,178.416 C164.142222,177.68 164.126222,177.408 164.094222,177.072 C164.430222,177.104 164.798222,177.12 165.358222,177.12 L169.150222,177.12 C169.742222,177.12 170.046222,177.104 170.318222,177.072 C170.270222,177.392 170.270222,177.584 170.270222,178.4 L170.270222,181.84 C170.270222,182.432 170.286222,182.72 170.334222,183.104 L169.262222,183.104 L169.262222,182.112 L165.150222,182.112 Z M165.150222,178.016 L165.150222,181.216 L169.278222,181.216 L169.278222,178.016 L165.150222,178.016 Z M177.022222,169.136 L177.502222,169.808 C177.390222,170 177.390222,170 176.846222,171.232 C176.430222,172.176 175.822222,173.344 175.198222,174.4 C176.222222,175.456 176.622222,176.016 177.006222,176.912 C177.326222,177.632 177.486222,178.4 177.486222,179.152 C177.486222,180.016 177.198222,180.64 176.670222,180.944 C176.382222,181.104 175.886222,181.184 175.230222,181.184 C174.798222,181.184 174.382222,181.168 173.902222,181.12 C173.886222,180.672 173.822222,180.4 173.694222,180.048 C174.334222,180.16 174.734222,180.208 175.246222,180.208 C176.158222,180.208 176.462222,179.92 176.462222,179.072 C176.462222,178.336 176.286222,177.632 175.934222,176.896 C175.518222,176.032 175.102222,175.52 174.030222,174.576 C174.958222,173.072 175.598222,171.728 176.190222,170.112 L173.006222,170.112 L173.006222,181.488 C173.006222,182.304 173.038222,182.8 173.118222,183.264 L171.902222,183.264 C171.966222,182.8 171.998222,182.272 171.998222,181.504 L171.998222,170.624 C171.998222,170.144 171.982222,169.696 171.934222,169.152 C172.350222,169.184 172.654222,169.2 173.214222,169.2 L175.790222,169.2 C176.398222,169.2 176.734222,169.184 177.022222,169.136 Z M190.973333,175.024 L187.133333,175.024 C186.941333,179.168 185.597333,181.12 181.981333,182.528 C181.773333,182.064 181.613333,181.856 181.229333,181.488 C184.541333,180.384 185.789333,178.672 185.917333,175.024 L181.581333,175.024 C180.573333,175.024 180.237333,175.04 179.741333,175.104 L179.741333,173.92 C180.269333,174 180.589333,174.016 181.597333,174.016 L190.957333,174.016 C191.981333,174.016 192.285333,174 192.813333,173.92 L192.813333,175.104 C192.317333,175.04 191.981333,175.024 190.973333,175.024 Z M181.357333,171.168 L181.357333,169.952 C181.837333,170.048 182.157333,170.064 183.197333,170.064 L188.029333,170.064 C188.893333,170.064 189.309333,170.048 189.869333,169.984 L189.869333,171.136 C189.661333,171.12 189.053333,171.104 188.045333,171.088 L183.181333,171.088 C182.077333,171.088 181.805333,171.104 181.357333,171.168 Z M189.933333,168.992 L190.733333,168.608 C191.421333,169.488 191.853333,170.192 192.301333,171.136 L191.485333,171.584 C191.117333,170.72 190.381333,169.504 189.933333,168.992 Z M191.901333,168.4 L192.701333,168 C193.389333,168.896 193.773333,169.52 194.269333,170.528 L193.453333,170.976 C193.133333,170.208 192.493333,169.152 191.901333,168.4 Z M199.852444,172.72 L204.732444,172.72 L204.732444,171.152 C204.732444,170.032 204.732444,169.888 204.684444,169.52 L205.932444,169.52 C205.884444,169.968 205.884444,169.984 205.868444,171.04 L205.868444,172.72 L207.244444,172.72 C208.252444,172.72 208.572444,172.704 209.116444,172.624 L209.116444,173.84 C208.604444,173.776 208.284444,173.76 207.260444,173.76 L205.852444,173.76 C205.836444,176.848 205.660444,178.032 205.068444,179.184 C204.204444,180.784 202.764444,181.904 200.604444,182.64 C200.412444,182.224 200.252444,181.984 199.884444,181.632 C201.980444,181.104 203.596444,179.856 204.236444,178.24 C204.588444,177.28 204.684444,176.32 204.716444,173.76 L199.852444,173.76 L199.852444,176.432 C199.852444,177.136 199.868444,177.36 199.916444,177.728 L198.620444,177.728 C198.668444,177.392 198.684444,177.232 198.684444,176.384 L198.684444,173.76 L197.340444,173.76 C196.316444,173.76 195.996444,173.776 195.484444,173.84 L195.484444,172.624 C196.028444,172.704 196.348444,172.72 197.356444,172.72 L198.684444,172.72 L198.684444,170.864 C198.684444,170.016 198.668444,169.872 198.620444,169.52 L199.916444,169.52 C199.868444,169.904 199.852444,170.112 199.852444,170.816 L199.852444,172.72 Z M206.540444,168.752 L207.388444,168.512 C207.900444,169.44 208.156444,170 208.524444,171.136 L207.676444,171.424 C207.292444,170.24 206.972444,169.472 206.540444,168.752 Z M208.412444,168.256 L209.228444,167.984 C209.708444,168.816 210.108444,169.728 210.364444,170.592 L209.532444,170.88 C209.228444,169.904 208.796444,168.88 208.412444,168.256 Z M222.123556,169.296 L223.227555,170.08 C222.939555,170.288 222.923555,170.32 222.523555,170.752 C221.515556,171.808 220.155555,172.976 218.779555,173.968 L218.779555,180.784 C218.779555,181.696 218.795555,182.048 218.859555,182.48 L217.467556,182.48 C217.547555,182.064 217.563556,181.696 217.563556,180.816 L217.563556,174.736 C215.483555,176.016 214.315555,176.544 211.387555,177.536 C211.163555,177.024 211.083555,176.864 210.763555,176.464 C213.771555,175.68 216.539556,174.304 219.067555,172.32 C220.555555,171.168 221.675555,170.048 222.123556,169.296 Z M228.202667,171.552 L228.986667,170.688 C230.698667,171.776 231.690667,172.56 232.842667,173.696 L232.010667,174.688 C230.858667,173.44 229.594667,172.4 228.202667,171.552 Z M228.314667,181.952 L227.962667,180.608 C229.210667,180.56 231.130667,180.064 232.618667,179.376 C235.706667,178 237.850667,175.648 239.146667,172.256 C239.514667,172.752 239.674667,172.896 240.122667,173.2 C238.842667,175.984 237.354667,177.856 235.242667,179.312 C233.594667,180.432 231.946667,181.088 229.274667,181.696 C228.842667,181.792 228.714667,181.824 228.314667,181.952 Z M247.369778,171.232 L247.625778,171.232 C248.153778,170.112 248.345778,169.552 248.393778,169.04 L249.673778,169.264 C249.529778,169.472 249.529778,169.472 249.257778,170.128 C249.049778,170.64 248.841778,171.072 248.761778,171.216 C248.953778,171.2 248.953778,171.2 249.097778,171.2 C251.657778,171.072 253.257778,170.88 254.137778,170.592 L254.233778,171.68 C253.977778,171.696 253.881778,171.712 253.593778,171.76 C251.929778,171.984 250.249778,172.112 248.313778,172.176 C247.833778,173.12 247.433778,173.76 246.873778,174.448 C246.713778,174.64 246.393778,175.008 246.329778,175.056 C246.217778,175.136 246.137778,175.2 246.121778,175.216 C246.121778,175.232 246.105778,175.232 246.105778,175.232 L246.105778,175.248 C246.121778,175.28 246.121778,175.28 246.137778,175.296 C246.713778,174.848 246.713778,174.848 246.873778,174.736 C247.609778,174.224 248.457778,173.952 249.289778,173.952 C250.473778,173.952 251.193778,174.544 251.401778,175.728 C252.569778,175.264 253.481778,174.928 254.185778,174.672 C254.969778,174.4 255.017778,174.384 255.273778,174.208 L255.785778,175.328 C254.953778,175.472 253.513778,175.952 251.513778,176.736 C251.545778,177.152 251.545778,177.312 251.545778,177.712 C251.545778,177.92 251.545778,178.272 251.529778,178.592 C251.513778,178.944 251.513778,179.168 251.513778,179.312 C251.513778,179.536 251.513778,179.664 251.545778,179.888 L250.457778,179.904 C250.505778,179.552 250.553778,178.576 250.553778,177.6 C250.553778,177.344 250.553778,177.312 250.537778,177.12 C248.361778,178.144 247.529778,178.896 247.529778,179.856 C247.529778,180.912 248.521778,181.376 250.777778,181.376 C252.361778,181.376 254.137778,181.12 255.049778,180.752 L255.193778,181.984 C254.953778,182 254.873778,182.016 254.553778,182.064 C253.289778,182.272 251.897778,182.384 250.665778,182.384 C247.801778,182.384 246.409778,181.568 246.409778,179.92 C246.409778,179.04 246.953778,178.208 248.041778,177.392 C248.585778,176.992 249.353778,176.576 250.425778,176.112 C250.297778,175.232 249.913778,174.848 249.161778,174.848 C248.153778,174.848 246.889778,175.44 245.593778,176.544 C244.969778,177.072 244.617778,177.44 244.361778,177.872 L243.465778,176.976 C244.569778,176.128 245.897778,174.448 247.049778,172.4 L247.193778,172.16 C247.129778,172.176 246.969778,172.192 246.889778,172.192 C246.633778,172.192 245.129778,172.16 244.537778,172.144 L244.281778,172.144 C244.137778,172.144 244.105778,172.144 243.929778,172.16 L243.945778,171.056 C244.521778,171.168 245.737778,171.232 247.369778,171.232 Z M264.280889,171.216 L260.776889,171.216 C259.960889,171.216 259.512889,171.232 259.064889,171.296 L259.064889,170.224 C259.480889,170.288 259.976889,170.32 260.824889,170.32 L265.368889,170.32 L265.368889,169.856 C265.368889,169.392 265.336889,169.056 265.272889,168.736 L266.520889,168.736 C266.456889,169.072 266.424889,169.392 266.424889,169.856 L266.424889,170.32 L271.000889,170.32 C271.848889,170.32 272.344889,170.288 272.792889,170.224 L272.792889,171.296 C272.280889,171.248 271.704889,171.216 271.016889,171.216 L268.200889,171.216 L268.200889,174.864 C268.200889,175.648 267.928889,175.888 267.064889,175.888 C266.680889,175.888 266.152889,175.872 265.720889,175.84 C265.688889,175.488 265.608889,175.232 265.432889,174.896 C265.960889,174.976 266.376889,175.008 266.792889,175.008 C267.144889,175.008 267.224889,174.944 267.224889,174.64 L267.224889,171.216 L265.256889,171.216 C265.176889,173.968 264.520889,175.168 262.392889,176.432 C262.152889,176.144 261.944889,175.968 261.560889,175.728 C262.776889,175.152 263.400889,174.608 263.800889,173.776 C264.136889,173.072 264.248889,172.448 264.280889,171.216 Z M269.448889,177.232 L270.104889,177.888 C269.976889,178.016 269.976889,178.016 269.608889,178.4 C268.728889,179.328 267.976889,179.952 266.968889,180.608 C268.776889,181.472 270.568889,181.904 273.272889,182.128 C273.000889,182.496 272.840889,182.8 272.696889,183.184 C269.832889,182.752 267.848889,182.144 266.056889,181.152 C265.064889,181.68 263.880889,182.128 262.536889,182.48 C261.544889,182.736 261.192889,182.8 259.144889,183.104 C259.016889,182.688 258.872889,182.464 258.600889,182.112 C261.320889,181.936 263.160889,181.504 265.112889,180.576 C264.168889,179.936 263.576889,179.424 262.824889,178.608 C261.896889,179.312 261.256889,179.696 260.072889,180.256 C259.832889,179.904 259.720889,179.76 259.464889,179.488 C260.904889,178.928 262.040889,178.224 263.096889,177.248 C263.752889,176.64 264.104889,176.208 264.408889,175.664 L265.352889,176.08 C265.240889,176.192 265.224889,176.224 265.112889,176.352 C264.840889,176.672 264.536889,177.024 264.264889,177.312 L267.960889,177.312 C268.648889,177.312 269.128889,177.28 269.448889,177.232 Z M268.504889,178.144 L263.576889,178.144 C264.264889,178.88 265.016889,179.488 266.024889,180.112 C267.032889,179.52 267.640889,179.04 268.504889,178.144 Z M261.864889,171.808 L262.776889,172.224 C262.296889,173.168 261.992889,173.648 261.400889,174.336 C260.920889,174.896 260.584889,175.216 259.832889,175.808 C259.496889,175.456 259.416889,175.408 259.000889,175.12 C259.768889,174.608 260.136889,174.304 260.584889,173.808 C261.160889,173.184 261.464889,172.704 261.864889,171.808 Z M268.952889,172.512 L269.688889,171.952 C270.952889,173.136 271.608889,173.824 272.680889,175.168 L271.784889,175.856 C270.808889,174.4 270.152889,173.632 268.952889,172.512 Z M281.64,170.272 L276.664,170.272 C276.008,170.272 275.544,170.304 274.984,170.368 L274.984,169.264 C275.448,169.328 275.976,169.36 276.664,169.36 L287.464,169.36 C288.152,169.36 288.632,169.328 289.144,169.264 L289.144,170.368 C288.648,170.304 288.088,170.272 287.464,170.272 L282.648,170.272 L282.648,171.84 L285.864,171.84 C286.872,171.84 287.288,171.824 287.752,171.76 C287.704,172.304 287.688,172.736 287.688,173.52 L287.688,176.256 C287.688,177.008 287.704,177.424 287.752,177.952 C287.256,177.888 286.776,177.872 285.912,177.872 L282.28,177.872 C282.024,178.912 281.72,179.632 281.192,180.304 C283.08,181.44 285.496,182 288.44,182 C288.616,182 288.92,182 289.384,181.984 C289.192,182.304 289.096,182.592 288.952,183.12 C285.336,183.072 282.76,182.432 280.552,181.024 C279.24,182.256 277.688,182.96 275.384,183.424 C275.24,182.992 275.192,182.88 274.904,182.448 C276.072,182.272 276.696,182.112 277.528,181.776 C278.456,181.408 279.128,181.024 279.768,180.464 C279.192,180 278.952,179.776 278.36,179.152 L278.008,178.8 L278.936,178.256 C279.224,178.72 279.768,179.28 280.408,179.776 C280.824,179.216 281.048,178.72 281.256,177.872 L278.328,177.872 C277.464,177.872 276.968,177.888 276.488,177.952 C276.52,177.392 276.552,176.912 276.552,176.24 L276.552,173.52 C276.552,172.752 276.536,172.272 276.488,171.76 C276.984,171.824 277.352,171.84 278.344,171.84 L281.64,171.84 L281.64,170.272 Z M281.624,172.688 L277.528,172.688 L277.528,174.368 L281.592,174.368 C281.608,173.632 281.624,173.344 281.624,172.688 Z M282.632,172.688 L282.6,174.368 L286.696,174.368 L286.696,172.688 L282.632,172.688 Z M281.56,175.2 L277.528,175.2 L277.528,177.024 L281.416,177.024 C281.48,176.416 281.512,176.032 281.56,175.2 Z M286.696,175.2 L282.568,175.2 C282.536,175.968 282.504,176.32 282.424,177.024 L286.696,177.024 L286.696,175.2 Z M293.863111,169.52 L295.255111,169.52 C295.159111,170.064 295.095111,170.88 295.047111,172.896 C294.983111,174.816 294.935111,176.992 294.935111,177.712 C294.935111,177.904 294.951111,178.304 294.967111,178.672 C295.031111,179.632 295.239111,180.16 295.719111,180.592 C296.167111,180.992 296.887111,181.216 297.719111,181.216 C299.623111,181.216 301.095111,180.256 302.007111,178.432 C302.375111,177.664 302.567111,177.04 302.791111,175.92 C303.239111,176.304 303.431111,176.432 303.943111,176.688 C303.335111,178.56 302.871111,179.504 302.167111,180.32 C301.031111,181.664 299.527111,182.32 297.655111,182.32 C296.295111,182.32 295.287111,181.936 294.647111,181.2 C293.991111,180.448 293.767111,179.6 293.767111,177.92 C293.767111,176.848 293.783111,176.448 293.911111,171.408 C293.927111,170.928 293.927111,170.624 293.927111,170.368 C293.927111,170.032 293.911111,169.84 293.863111,169.52 Z M320.262222,180.72 L319.622222,181.84 C318.886222,181.072 317.718222,180.256 316.358222,179.552 C316.086222,179.408 315.718222,179.248 315.286222,179.072 C315.318222,179.44 315.318222,179.44 315.318222,179.648 C315.318222,180.496 315.206222,181.008 314.918222,181.392 C314.454222,182.048 313.478222,182.4 312.214222,182.4 C311.158222,182.4 310.278222,182.176 309.734222,181.76 C309.190222,181.36 308.870222,180.736 308.870222,180.08 C308.870222,179.024 309.702222,178.192 311.110222,177.872 C311.590222,177.76 312.070222,177.712 312.774222,177.712 C313.302222,177.712 313.526222,177.728 314.214222,177.84 C314.198222,177.792 314.198222,177.792 314.198222,177.648 C314.198222,177.632 314.182222,177.568 314.182222,177.472 C314.166222,177.328 314.166222,176.992 314.150222,176.528 C314.134222,176.32 314.134222,176.016 314.118222,175.6 C313.542222,175.616 312.742222,175.632 312.230222,175.632 C311.270222,175.632 310.518222,175.6 309.526222,175.52 C309.350222,175.504 309.222222,175.504 309.126222,175.504 L308.998222,175.504 L309.014222,174.448 C309.734222,174.608 311.062222,174.704 312.678222,174.704 C313.094222,174.704 313.654222,174.704 314.102222,174.688 L314.070222,172.496 C313.606222,172.512 313.350222,172.512 312.982222,172.512 C311.814222,172.512 310.518222,172.464 309.078222,172.352 C308.966222,172.336 308.870222,172.336 308.790222,172.336 C308.742222,172.336 308.662222,172.336 308.566222,172.352 L308.582222,171.264 C309.270222,171.456 310.934222,171.584 312.678222,171.584 C312.998222,171.584 313.542222,171.568 314.070222,171.568 C314.054222,169.616 314.054222,169.616 313.990222,169.264 L315.222222,169.264 C315.158222,169.6 315.126222,170.368 315.110222,171.52 C317.318222,171.376 318.966222,171.152 319.846222,170.864 L319.926222,171.952 C319.654222,171.968 319.654222,171.968 318.822222,172.08 C317.318222,172.304 316.886222,172.352 315.110222,172.464 C315.126222,173.776 315.126222,173.776 315.142222,174.624 C317.318222,174.464 318.694222,174.272 319.574222,173.968 L319.638222,175.072 C319.430222,175.088 319.270222,175.104 318.710222,175.184 C317.606222,175.36 316.342222,175.488 315.158222,175.568 C315.190222,176.464 315.190222,176.464 315.254222,178.016 C316.646222,178.4 318.038222,179.136 319.718222,180.352 C319.974222,180.544 320.054222,180.592 320.262222,180.72 Z M314.230222,179.424 L314.214222,178.816 C313.606222,178.672 313.286222,178.64 312.582222,178.64 C310.998222,178.64 309.958222,179.216 309.958222,180.064 C309.958222,180.912 310.758222,181.392 312.150222,181.392 C312.998222,181.392 313.606222,181.216 313.910222,180.864 C314.134222,180.64 314.230222,180.192 314.230222,179.424 Z M326.085333,169.52 L327.477333,169.52 C327.381333,170.064 327.317333,170.88 327.269333,172.896 C327.205333,174.816 327.157333,176.992 327.157333,177.712 C327.157333,177.904 327.173333,178.304 327.189333,178.672 C327.253333,179.632 327.461333,180.16 327.941333,180.592 C328.389333,180.992 329.109333,181.216 329.941333,181.216 C331.845333,181.216 333.317333,180.256 334.229333,178.432 C334.597333,177.664 334.789333,177.04 335.013333,175.92 C335.461333,176.304 335.653333,176.432 336.165333,176.688 C335.557333,178.56 335.093333,179.504 334.389333,180.32 C333.253333,181.664 331.749333,182.32 329.877333,182.32 C328.517333,182.32 327.509333,181.936 326.869333,181.2 C326.213333,180.448 325.989333,179.6 325.989333,177.92 C325.989333,176.848 326.005333,176.448 326.133333,171.408 C326.149333,170.928 326.149333,170.624 326.149333,170.368 C326.149333,170.032 326.133333,169.84 326.085333,169.52 Z M340.260444,173.072 L340.260444,171.952 C340.772444,172.048 341.412444,172.096 342.260444,172.096 C342.580444,172.096 342.756444,172.096 343.220444,172.064 C343.540444,170.096 343.572444,169.824 343.572444,169.12 L344.836444,169.248 C344.740444,169.632 344.740444,169.632 344.548444,170.768 C344.468444,171.28 344.420444,171.504 344.340444,171.984 C345.588444,171.856 346.452444,171.696 347.220444,171.44 L347.300444,172.544 C347.172444,172.56 347.172444,172.56 346.852444,172.624 C346.036444,172.8 344.932444,172.944 344.148444,173.008 C343.908444,174.272 343.460444,176.08 343.028444,177.536 C342.500444,179.248 342.036444,180.464 341.188444,182.416 L340.020444,181.92 C341.204444,179.856 342.436444,176.208 343.028444,173.072 C342.708444,173.088 342.516444,173.088 341.924444,173.088 C341.364444,173.088 341.220444,173.088 340.596444,173.056 L340.532444,173.056 C340.500444,173.056 340.404444,173.056 340.260444,173.072 Z M352.340444,173.856 L352.356444,174.992 C351.588444,174.912 351.140444,174.88 350.468444,174.88 C349.044444,174.88 347.924444,175.024 346.468444,175.424 L346.356444,174.336 C348.212444,173.936 349.252444,173.808 350.596444,173.808 C350.900444,173.808 351.140444,173.808 352.340444,173.856 Z M346.516444,177.312 L347.412444,177.76 C347.092444,178.144 347.044444,178.192 346.932444,178.368 C346.676444,178.704 346.532444,179.12 346.532444,179.504 C346.532444,180.464 347.508444,180.976 349.332444,180.976 C350.532444,180.976 351.956444,180.752 352.868444,180.432 L352.980444,181.632 C352.804444,181.664 352.804444,181.664 352.276444,181.744 C351.204444,181.936 350.276444,182.016 349.428444,182.016 C346.804444,182.016 345.444444,181.2 345.444444,179.616 C345.444444,178.896 345.668444,178.4 346.516444,177.312 Z M357.875555,178.24 C359.203555,178.24 360.275555,179.312 360.275555,180.64 C360.275555,181.968 359.203555,183.04 357.875555,183.04 C356.547555,183.04 355.475555,181.968 355.475555,180.64 C355.475555,179.312 356.547555,178.24 357.875555,178.24 Z M357.875555,179.152 C357.059555,179.152 356.387555,179.824 356.387555,180.64 C356.387555,181.456 357.059555,182.128 357.875555,182.128 C358.691555,182.128 359.363555,181.456 359.363555,180.64 C359.363555,179.824 358.691555,179.152 357.875555,179.152 Z" id="・一部デザインを変更しました。" fill="#333333"></path>
        <rect id="Rectangle-11" fill="#2D8C3C" x="100" y="208" width="300" height="48" rx="8"></rect>
        <path d="M207.38,224.7 L208.72,226.22 C208.44,226.56 208.44,226.58 207.92,227.62 C207.22,229.1 206.06,230.6 204.84,231.64 C204.04,232.34 203.38,232.78 202.44,233.3 C201.84,232.46 201.54,232.16 200.64,231.48 C201.98,230.88 202.74,230.42 203.56,229.64 C204.38,228.88 205,228.06 205.46,227.1 L194.96,227.1 C193.56,227.1 193.06,227.12 192.24,227.22 L192.24,224.72 C193,224.84 193.62,224.88 195,224.88 L205.44,224.88 C206.64,224.88 206.82,224.86 207.38,224.7 Z M197.88,228.74 L200.6,228.74 C200.54,229.12 200.54,229.14 200.52,230.36 C200.44,233.78 199.9,235.7 198.54,237.44 C197.34,238.98 195.88,240 193.38,241.04 C192.86,239.96 192.6,239.6 191.8,238.76 C193.42,238.28 194.32,237.84 195.3,237.06 C197.34,235.44 197.98,233.72 197.98,229.94 C197.98,229.34 197.96,229.16 197.88,228.74 Z M213.311111,229.12 L215.431111,228.5 C216.271111,230.04 216.671111,231 217.391111,233.24 L215.131111,233.96 C214.611111,231.94 214.211111,230.88 213.311111,229.12 Z M217.591111,228.28 L219.691111,227.68 C220.751111,229.66 221.131111,230.54 221.631111,232.28 L219.411111,232.98 C219.031111,231.46 218.431111,229.92 217.591111,228.28 Z M224.471111,228.08 L226.911111,228.64 C226.791111,228.94 226.751111,229.04 226.631111,229.66 C226.051111,232.38 225.151111,234.58 223.871111,236.32 C222.391111,238.34 220.731111,239.64 217.771111,241.14 C217.251111,240.26 217.011111,239.96 216.171111,239.16 C217.571111,238.62 218.391111,238.18 219.571111,237.32 C221.911111,235.62 223.251111,233.58 224.111111,230.38 C224.371111,229.4 224.471111,228.7 224.471111,228.08 Z M234.962222,225.46 L244.142222,225.46 C244.742222,225.46 244.982222,225.44 245.322222,225.42 C245.342222,224.12 246.342222,223.1 247.622222,223.1 C248.902222,223.1 249.942222,224.14 249.942222,225.4 C249.942222,226.68 248.902222,227.72 247.622222,227.72 C247.502222,227.72 247.382222,227.7 247.242222,227.68 C245.622222,234.22 242.082222,238.3 235.762222,240.94 C235.242222,239.9 234.902222,239.44 234.002222,238.56 C239.542222,236.84 243.162222,233.12 244.442222,227.8 L234.922222,227.8 C233.442222,227.8 233.062222,227.82 232.402222,227.92 L232.402222,225.32 C233.122222,225.44 233.602222,225.46 234.962222,225.46 Z M247.622222,224.1 C246.902222,224.1 246.322222,224.68 246.322222,225.4 C246.322222,226.12 246.902222,226.72 247.622222,226.72 C248.362222,226.72 248.942222,226.12 248.942222,225.4 C248.942222,224.68 248.362222,224.1 247.622222,224.1 Z M264.773333,224.58 L264.773333,227.02 C264.153333,226.94 263.873333,226.92 262.233333,226.92 L256.273333,226.92 C254.633333,226.92 254.373333,226.94 253.733333,227.02 L253.733333,224.58 C254.413333,224.7 254.813333,224.72 256.313333,224.72 L262.193333,224.72 C263.713333,224.72 264.113333,224.7 264.773333,224.58 Z M266.033333,231.92 L261.753333,231.92 C261.533333,236.86 259.653333,239.5 255.133333,241.24 C254.653333,240.24 254.313333,239.8 253.493333,239.02 C257.413333,237.78 258.973333,235.8 259.113333,231.92 L254.253333,231.92 C252.693333,231.92 252.393333,231.94 251.713333,232.02 L251.713333,229.64 C252.413333,229.76 252.813333,229.78 254.293333,229.78 L265.993333,229.78 C267.473333,229.78 267.873333,229.76 268.573333,229.64 L268.573333,232.02 C267.893333,231.94 267.593333,231.92 266.033333,231.92 Z M270.273333,225.54 L268.793333,226.12 C268.333333,224.98 267.753333,223.96 267.073333,223.02 L268.513333,222.5 C269.313333,223.56 269.793333,224.36 270.273333,225.54 Z M264.453333,223.8 L265.933333,223.28 C266.693333,224.32 267.153333,225.12 267.713333,226.44 L266.213333,227 C265.653333,225.66 265.193333,224.84 264.453333,223.8 Z M271.864444,233.72 L271.864444,230.94 C272.744444,231.06 273.124444,231.08 275.104444,231.08 L285.764444,231.08 C287.744444,231.08 288.124444,231.06 289.004444,230.94 L289.004444,233.72 C288.204444,233.62 287.984444,233.62 285.744444,233.62 L275.124444,233.62 C272.884444,233.62 272.664444,233.62 271.864444,233.72 Z M298.595555,240.9 L295.855555,240.9 C295.955556,240.26 295.975555,239.72 295.975555,238.66 L295.975555,225.84 C295.975555,224.86 295.935555,224.34 295.855555,223.8 L298.595555,223.8 C298.515556,224.4 298.515556,224.66 298.515556,225.9 L298.515556,229.62 C301.255556,230.58 304.395556,232.04 307.595555,233.84 L306.195556,236.2 C304.535555,235.06 302.455556,233.92 299.115556,232.38 C298.655555,232.16 298.595555,232.14 298.435555,232.04 C298.495556,232.6 298.515556,232.84 298.515556,233.4 L298.515556,238.68 C298.515556,239.72 298.535555,240.24 298.595555,240.9 Z" id="アップデート" fill="#FFFFFF"></path>
        <rect id="Rectangle-11" stroke="#2D8C3C" stroke-width="2" x="99" y="267" width="302" height="50" rx="8"></rect>
        <path d="M210.5,288.26 L212.76,288.9 C212.68,289.06 212.68,289.06 212.52,289.48 C212.32,290.04 212.3,290.06 212.24,290.24 C213.06,290.44 213.64,290.72 214.32,291.22 C215.6,292.18 216.22,293.42 216.22,295 C216.22,297.18 215.04,298.88 212.78,300 C211.6,300.58 210.46,300.88 208.7,301.06 C208.48,300.2 208.3,299.84 207.64,298.8 C209.26,298.78 210.28,298.56 211.46,298 C213.06,297.24 213.8,296.26 213.8,294.88 C213.8,293.62 212.98,292.6 211.56,292.12 C210.46,294.5 209.52,295.94 208.08,297.44 C206.28,299.34 204.5,300.32 202.84,300.32 C200.98,300.32 199.72,298.9 199.72,296.82 C199.72,295.18 200.42,293.6 201.7,292.34 C202.5,291.56 203.24,291.06 204.44,290.54 C204.44,289.9 204.48,289.1 204.52,288.14 C204.3,288.14 203.22,288.12 201.28,288.06 L200.9,288.06 C200.84,288.06 200.66,288.06 200.44,288.08 L200.44,285.84 C201.34,286.04 202.52,286.14 204.18,286.14 L204.62,286.14 C204.64,285.74 204.64,285.74 204.7,284.94 C204.72,284.68 204.74,284.18 204.74,283.8 C204.74,283.72 204.74,283.64 204.7,283.48 L207.18,283.6 C207.02,284.14 206.94,284.66 206.82,286.06 C210.02,285.88 212.86,285.48 214.4,285 L214.5,287.3 C214.22,287.32 214.14,287.32 213.72,287.38 C211.52,287.74 208.28,288.04 206.68,288.08 C206.62,288.94 206.6,289.58 206.58,290 C207.66,289.78 208.12,289.74 209.34,289.74 C209.58,289.74 209.74,289.74 210.1,289.78 C210.32,289.14 210.44,288.72 210.5,288.26 Z M204.48,292.82 C203.6,293.4 203.26,293.7 202.86,294.2 C202.26,294.98 201.96,295.8 201.96,296.64 C201.96,297.54 202.4,298.1 203.1,298.1 C203.66,298.1 204.2,297.86 204.84,297.34 C204.58,296.04 204.48,294.76 204.48,292.82 Z M206.74,295.84 L206.78,295.86 C206.86,295.74 206.86,295.74 207,295.58 C207.94,294.52 208.74,293.24 209.48,291.58 C209.26,291.56 209.16,291.56 208.96,291.56 C208.08,291.56 207.36,291.66 206.56,291.92 C206.58,293.76 206.58,293.96 206.7,295.36 C206.72,295.48 206.72,295.48 206.72,295.62 C206.72,295.72 206.72,295.74 206.74,295.84 Z M224.071111,283.98 L226.671111,283.56 C226.751111,284.9 227.351111,287.78 227.991111,289.82 C229.291111,289.34 229.291111,289.34 233.171111,288.06 C233.531111,287.94 233.631111,287.9 233.931111,287.76 L234.791111,290.28 C233.051111,290.62 230.431111,291.38 228.191111,292.2 C225.271111,293.28 223.811111,294.56 223.811111,296 C223.811111,297.46 225.171111,298.08 228.391111,298.08 C230.891111,298.08 233.351111,297.78 234.851111,297.26 L235.071111,300 C234.631111,300 234.531111,300.02 233.451111,300.14 C231.291111,300.36 230.171111,300.44 228.771111,300.44 C225.991111,300.44 224.251111,300.1 222.971111,299.34 C221.871111,298.68 221.231111,297.44 221.231111,296 C221.231111,294.66 221.871111,293.38 223.011111,292.42 C223.791111,291.76 224.431111,291.36 225.731111,290.7 C225.231111,289.08 224.891111,287.74 224.391111,285.28 C224.191111,284.32 224.171111,284.28 224.071111,283.98 Z M239.842222,288.66 L239.702222,286.04 C240.142222,286.06 240.362222,286.06 240.462222,286.06 C240.822222,286.06 240.822222,286.06 243.762222,285.86 C245.222222,285.78 248.642222,285.6 253.982222,285.34 C255.622222,285.26 255.722222,285.26 256.042222,285.18 L256.182222,287.72 C255.962222,287.7 255.962222,287.7 255.762222,287.7 C254.562222,287.7 253.082222,288.1 251.802222,288.78 C249.262222,290.1 247.762222,292.1 247.762222,294.12 C247.762222,295.68 248.742222,296.88 250.422222,297.38 C251.402222,297.68 252.682222,297.9 253.402222,297.9 C253.422222,297.9 253.602222,297.9 253.802222,297.88 L253.442222,300.6 C253.182222,300.54 253.142222,300.54 252.762222,300.48 C250.562222,300.2 249.302222,299.84 248.082222,299.16 C246.242222,298.12 245.222222,296.42 245.222222,294.34 C245.222222,292.64 245.902222,290.96 247.122222,289.64 C247.882222,288.82 248.602222,288.28 249.902222,287.62 C248.282222,287.86 247.042222,287.98 243.162222,288.26 C241.382222,288.4 240.462222,288.52 239.842222,288.66 Z M252.082222,290.58 L253.482222,289.88 C254.362222,290.82 254.902222,291.58 255.582222,292.82 L254.182222,293.56 C253.522222,292.34 252.962222,291.54 252.082222,290.58 Z M257.962222,291.52 L256.582222,292.3 C255.982222,291.2 255.322222,290.26 254.542222,289.4 L255.882222,288.7 C256.782222,289.62 257.342222,290.38 257.962222,291.52 Z M264.393333,295.32 L263.333333,295.32 C262.353333,295.32 261.733333,295.34 261.073333,295.42 C261.113333,294.7 261.153333,293.96 261.153333,293.26 L261.153333,289.28 C261.153333,288.38 261.133333,287.74 261.073333,287.12 C261.713333,287.18 262.073333,287.2 263.333333,287.2 L267.333333,287.2 L267.333333,285.8 L261.813333,285.8 C260.933333,285.8 260.193333,285.84 259.373333,285.92 L259.373333,283.76 C260.073333,283.84 260.853333,283.88 261.813333,283.88 L274.893333,283.88 C275.813333,283.88 276.613333,283.84 277.353333,283.76 L277.353333,285.92 C276.633333,285.84 275.733333,285.8 274.893333,285.8 L269.533333,285.8 L269.533333,287.2 L273.473333,287.2 C274.733333,287.2 275.153333,287.18 275.733333,287.12 C275.673333,287.84 275.653333,288.48 275.653333,289.3 L275.653333,293.3 C275.653333,294.12 275.673333,294.7 275.733333,295.42 C275.093333,295.34 274.533333,295.32 273.513333,295.32 L269.093333,295.32 C268.773333,296.46 268.473333,297.12 267.913333,297.96 C270.053333,298.96 272.393333,299.4 275.493333,299.4 C276.133333,299.4 276.633333,299.38 277.713333,299.32 C277.293333,300.22 277.113333,300.78 276.933333,301.6 C272.393333,301.6 269.253333,300.94 266.533333,299.46 C264.833333,300.82 263.133333,301.48 260.113333,301.92 C259.793333,300.98 259.713333,300.78 259.193333,299.88 C262.093333,299.56 263.253333,299.2 264.673333,298.2 C263.913333,297.6 263.733333,297.44 262.913333,296.54 C262.853333,296.48 262.853333,296.48 262.633333,296.24 L264.393333,295.32 Z M266.833333,295.32 L264.533333,295.32 C264.913333,295.82 265.413333,296.34 266.053333,296.84 C266.453333,296.3 266.633333,295.92 266.833333,295.32 Z M267.313333,289.02 L263.233333,289.02 L263.233333,290.4 L267.273333,290.4 L267.313333,289.02 Z M269.513333,289.02 L269.493333,290.4 L273.553333,290.4 L273.553333,289.02 L269.513333,289.02 Z M267.233333,292.12 L263.233333,292.12 L263.233333,293.5 L267.153333,293.5 C267.193333,293.04 267.193333,292.84 267.233333,292.12 Z M273.553333,292.12 L269.453333,292.12 C269.413333,292.88 269.413333,293.08 269.373333,293.5 L273.553333,293.5 L273.553333,292.12 Z M291.504444,289.26 L296.004444,289.26 C296.884444,289.26 297.384444,289.22 297.824444,289.14 L297.824444,291.36 C297.324444,291.3 297.004444,291.28 296.224444,291.28 L295.724444,291.28 L295.724444,299.34 C295.724444,300.54 295.744444,301.1 295.844444,301.7 L293.504444,301.7 C293.604444,301.08 293.624444,300.5 293.624444,299.34 L293.624444,291.28 L291.484444,291.28 C291.464444,293.82 291.224444,295.92 290.744444,297.74 C290.344444,299.3 289.724444,300.7 288.964444,301.76 C288.164444,301.1 287.824444,300.88 286.984444,300.44 C288.884444,298.12 289.384444,295.5 289.384444,287.92 C289.384444,286.24 289.364444,285.6 289.264444,284.8 C291.524444,284.74 294.984444,283.86 296.004444,283.1 L297.644444,285.04 C297.424444,285.1 297.344444,285.14 296.984444,285.26 C295.384444,285.86 294.124444,286.16 291.504444,286.62 L291.504444,289.26 Z M283.184444,291.6 L281.104444,291.6 C280.264444,291.6 279.804444,291.62 279.284444,291.68 L279.284444,289.54 C279.784444,289.62 280.204444,289.64 281.144444,289.64 L281.624444,289.64 C281.344444,288.52 281.144444,288 280.744444,287.28 L282.504444,286.84 L281.564444,286.84 C280.684444,286.84 280.224444,286.86 279.684444,286.92 L279.684444,284.78 C280.184444,284.86 280.644444,284.88 281.604444,284.88 L283.124444,284.88 L283.124444,284.58 C283.124444,283.9 283.104444,283.62 283.024444,283.12 L285.444444,283.12 C285.364444,283.6 285.344444,283.86 285.344444,284.58 L285.344444,284.88 L286.704444,284.88 C287.644444,284.88 288.044444,284.86 288.564444,284.78 L288.564444,286.92 C288.024444,286.86 287.544444,286.84 286.684444,286.84 L285.864444,286.84 L287.564444,287.32 C287.444444,287.58 287.444444,287.58 287.264444,288.02 C287.144444,288.22 287.144444,288.22 286.924444,288.76 C286.784444,289.1 286.704444,289.24 286.484444,289.64 L286.884444,289.64 C287.784444,289.64 288.204444,289.62 288.724444,289.54 L288.724444,291.68 C288.164444,291.62 287.744444,291.6 286.884444,291.6 L285.264444,291.6 L285.264444,293.02 L286.804444,293.02 C287.664444,293.02 288.104444,293 288.624444,292.92 L288.624444,295.02 C288.104444,294.96 287.644444,294.94 286.804444,294.94 L286.064444,294.94 C286.664444,295.64 287.164444,296.06 288.124444,296.7 C287.684444,297.44 287.464444,297.86 287.164444,298.6 C286.164444,297.7 285.844444,297.36 285.204444,296.44 C285.224444,296.7 285.224444,296.7 285.244444,297.22 C285.244444,297.28 285.264444,297.9 285.264444,298 L285.264444,300 C285.264444,300.7 285.304444,301.18 285.384444,301.66 L283.084444,301.66 C283.144444,301.2 283.184444,300.72 283.184444,300.08 L283.184444,298.08 C283.184444,297.7 283.204444,297.18 283.244444,296.72 C282.424444,298.26 281.504444,299.3 279.944444,300.42 C279.664444,299.6 279.384444,299.04 278.924444,298.38 C280.444444,297.44 281.564444,296.34 282.424444,294.94 L281.124444,294.94 C280.264444,294.94 279.844444,294.96 279.304444,295.04 L279.304444,292.92 C279.824444,293 280.224444,293.02 281.164444,293.02 L283.184444,293.02 L283.184444,291.6 Z M285.584444,286.84 L282.644444,286.84 C283.084444,287.7 283.244444,288.12 283.504444,289.16 L281.724444,289.64 L284.464444,289.64 C285.024444,288.6 285.284444,287.96 285.584444,286.84 Z" id="あとで更新" fill="#2D8C3C"></path>
        <g id="Group" transform="translate(422.324116, 82.324116) rotate(45.000000) translate(-422.324116, -82.324116) translate(409.824116, 70.324116)" fill="#AAAAAA">
            <rect id="Rectangle" x="11" y="0" width="3" height="24"></rect>
            <rect id="Rectangle" transform="translate(12.500000, 12.000000) rotate(90.000000) translate(-12.500000, -12.000000) " x="11" y="0" width="3" height="24"></rect>
        </g>
    </g>
</svg>